G04 #@! TF.FileFunction,Legend,Top*
%FSLAX46Y46*%
G04 Gerber Fmt 4.6, Leading zero omitted, Abs format (unit mm)*
G04 Created by KiCad (PCBNEW 4.0.2+e4-6225~38~ubuntu14.04.1-stable) date Sat Jul 23 15:42:03 2016*
%MOMM*%
G01*
G04 APERTURE LIST*
%ADD10C,0.150000*%
%ADD11C,0.381000*%
%ADD12C,0.076200*%
%ADD13C,3.797300*%
%ADD14C,1.524000*%
G04 APERTURE END LIST*
D10*
X184150000Y-88900000D02*
X159385000Y-88900000D01*
X59055000Y-88900000D02*
X88265000Y-88900000D01*
X59055000Y-88900000D02*
X59055000Y-29210000D01*
X184150000Y-29210000D02*
X184150000Y-88900000D01*
X59055000Y-29210000D02*
X184150000Y-29210000D01*
D11*
X193675000Y-22860000D02*
G75*
G03X193675000Y-22860000I-3175000J0D01*
G01*
X168275000Y-22860000D02*
G75*
G03X168275000Y-22860000I-3175000J0D01*
G01*
X81915000Y-22860000D02*
G75*
G03X81915000Y-22860000I-3175000J0D01*
G01*
X56515000Y-22860000D02*
G75*
G03X56515000Y-22860000I-3175000J0D01*
G01*
X56515000Y-93980000D02*
G75*
G03X56515000Y-93980000I-3175000J0D01*
G01*
X81915000Y-93980000D02*
G75*
G03X81915000Y-93980000I-3175000J0D01*
G01*
X193675000Y-93980000D02*
G75*
G03X193675000Y-93980000I-3175000J0D01*
G01*
X168275000Y-93980000D02*
G75*
G03X168275000Y-93980000I-3175000J0D01*
G01*
X56515000Y-68580000D02*
G75*
G03X56515000Y-68580000I-3175000J0D01*
G01*
X56515000Y-48260000D02*
G75*
G03X56515000Y-48260000I-3175000J0D01*
G01*
X193675000Y-48260000D02*
G75*
G03X193675000Y-48260000I-3175000J0D01*
G01*
X193675000Y-68580000D02*
G75*
G03X193675000Y-68580000I-3175000J0D01*
G01*
X183515000Y-85090000D02*
G75*
G03X183515000Y-85090000I-3175000J0D01*
G01*
X135255000Y-83820000D02*
G75*
G03X135255000Y-83820000I-3175000J0D01*
G01*
X178435000Y-33020000D02*
G75*
G03X178435000Y-33020000I-3175000J0D01*
G01*
X150495000Y-33020000D02*
G75*
G03X150495000Y-33020000I-3175000J0D01*
G01*
X71755000Y-33020000D02*
G75*
G03X71755000Y-33020000I-3175000J0D01*
G01*
X71755000Y-85090000D02*
G75*
G03X71755000Y-85090000I-3175000J0D01*
G01*
D12*
X69443600Y-38100000D02*
G75*
G03X69443600Y-38100000I-863600J0D01*
G01*
X69443600Y-78740000D02*
G75*
G03X69443600Y-78740000I-863600J0D01*
G01*
X69443600Y-73660000D02*
G75*
G03X69443600Y-73660000I-863600J0D01*
G01*
X69443600Y-68580000D02*
G75*
G03X69443600Y-68580000I-863600J0D01*
G01*
X69443600Y-40640000D02*
G75*
G03X69443600Y-40640000I-863600J0D01*
G01*
X69443600Y-45720000D02*
G75*
G03X69443600Y-45720000I-863600J0D01*
G01*
X69443600Y-50800000D02*
G75*
G03X69443600Y-50800000I-863600J0D01*
G01*
X69443600Y-55880000D02*
G75*
G03X69443600Y-55880000I-863600J0D01*
G01*
X69443600Y-60960000D02*
G75*
G03X69443600Y-60960000I-863600J0D01*
G01*
X69443600Y-66040000D02*
G75*
G03X69443600Y-66040000I-863600J0D01*
G01*
X69443600Y-58420000D02*
G75*
G03X69443600Y-58420000I-863600J0D01*
G01*
X69443600Y-53340000D02*
G75*
G03X69443600Y-53340000I-863600J0D01*
G01*
X69443600Y-48260000D02*
G75*
G03X69443600Y-48260000I-863600J0D01*
G01*
X69443600Y-43180000D02*
G75*
G03X69443600Y-43180000I-863600J0D01*
G01*
X69443600Y-63500000D02*
G75*
G03X69443600Y-63500000I-863600J0D01*
G01*
X69443600Y-76200000D02*
G75*
G03X69443600Y-76200000I-863600J0D01*
G01*
X69443600Y-71120000D02*
G75*
G03X69443600Y-71120000I-863600J0D01*
G01*
X87223600Y-40640000D02*
G75*
G03X87223600Y-40640000I-863600J0D01*
G01*
X97383600Y-40640000D02*
G75*
G03X97383600Y-40640000I-863600J0D01*
G01*
X105003600Y-58420000D02*
G75*
G03X105003600Y-58420000I-863600J0D01*
G01*
X107543600Y-40640000D02*
G75*
G03X107543600Y-40640000I-863600J0D01*
G01*
X107543600Y-38100000D02*
G75*
G03X107543600Y-38100000I-863600J0D01*
G01*
X94843600Y-40640000D02*
G75*
G03X94843600Y-40640000I-863600J0D01*
G01*
X92303600Y-40640000D02*
G75*
G03X92303600Y-40640000I-863600J0D01*
G01*
X110083600Y-53340000D02*
G75*
G03X110083600Y-53340000I-863600J0D01*
G01*
X115163600Y-50800000D02*
G75*
G03X115163600Y-50800000I-863600J0D01*
G01*
X110083600Y-50800000D02*
G75*
G03X110083600Y-50800000I-863600J0D01*
G01*
X105003600Y-63500000D02*
G75*
G03X105003600Y-63500000I-863600J0D01*
G01*
X107543600Y-60960000D02*
G75*
G03X107543600Y-60960000I-863600J0D01*
G01*
X102463600Y-66040000D02*
G75*
G03X102463600Y-66040000I-863600J0D01*
G01*
X145643600Y-48260000D02*
G75*
G03X145643600Y-48260000I-863600J0D01*
G01*
X153263600Y-53340000D02*
G75*
G03X153263600Y-53340000I-863600J0D01*
G01*
X160883600Y-45720000D02*
G75*
G03X160883600Y-45720000I-863600J0D01*
G01*
X150723600Y-66040000D02*
G75*
G03X150723600Y-66040000I-863600J0D01*
G01*
X158343600Y-53340000D02*
G75*
G03X158343600Y-53340000I-863600J0D01*
G01*
X150723600Y-60960000D02*
G75*
G03X150723600Y-60960000I-863600J0D01*
G01*
X163423600Y-66040000D02*
G75*
G03X163423600Y-66040000I-863600J0D01*
G01*
X112623600Y-60960000D02*
G75*
G03X112623600Y-60960000I-863600J0D01*
G01*
X155803600Y-40640000D02*
G75*
G03X155803600Y-40640000I-863600J0D01*
G01*
X127863600Y-38100000D02*
G75*
G03X127863600Y-38100000I-863600J0D01*
G01*
X153263600Y-40640000D02*
G75*
G03X153263600Y-40640000I-863600J0D01*
G01*
X153263600Y-48260000D02*
G75*
G03X153263600Y-48260000I-863600J0D01*
G01*
X163423600Y-63500000D02*
G75*
G03X163423600Y-63500000I-863600J0D01*
G01*
X89763600Y-40640000D02*
G75*
G03X89763600Y-40640000I-863600J0D01*
G01*
X176123600Y-58420000D02*
G75*
G03X176123600Y-58420000I-863600J0D01*
G01*
X176123600Y-63500000D02*
G75*
G03X176123600Y-63500000I-863600J0D01*
G01*
X176123600Y-66040000D02*
G75*
G03X176123600Y-66040000I-863600J0D01*
G01*
X176123600Y-68580000D02*
G75*
G03X176123600Y-68580000I-863600J0D01*
G01*
X110083600Y-63500000D02*
G75*
G03X110083600Y-63500000I-863600J0D01*
G01*
X171043600Y-58420000D02*
G75*
G03X171043600Y-58420000I-863600J0D01*
G01*
D10*
X70127905Y-38552381D02*
X70127905Y-37552381D01*
X70508858Y-37552381D01*
X70604096Y-37600000D01*
X70651715Y-37647619D01*
X70699334Y-37742857D01*
X70699334Y-37885714D01*
X70651715Y-37980952D01*
X70604096Y-38028571D01*
X70508858Y-38076190D01*
X70127905Y-38076190D01*
X71175524Y-38552381D02*
X71366000Y-38552381D01*
X71461239Y-38504762D01*
X71508858Y-38457143D01*
X71604096Y-38314286D01*
X71651715Y-38123810D01*
X71651715Y-37742857D01*
X71604096Y-37647619D01*
X71556477Y-37600000D01*
X71461239Y-37552381D01*
X71270762Y-37552381D01*
X71175524Y-37600000D01*
X71127905Y-37647619D01*
X71080286Y-37742857D01*
X71080286Y-37980952D01*
X71127905Y-38076190D01*
X71175524Y-38123810D01*
X71270762Y-38171429D01*
X71461239Y-38171429D01*
X71556477Y-38123810D01*
X71604096Y-38076190D01*
X71651715Y-37980952D01*
X70159714Y-79192381D02*
X70159714Y-78192381D01*
X70540667Y-78192381D01*
X70635905Y-78240000D01*
X70683524Y-78287619D01*
X70731143Y-78382857D01*
X70731143Y-78525714D01*
X70683524Y-78620952D01*
X70635905Y-78668571D01*
X70540667Y-78716190D01*
X70159714Y-78716190D01*
X71683524Y-79192381D02*
X71112095Y-79192381D01*
X71397809Y-79192381D02*
X71397809Y-78192381D01*
X71302571Y-78335238D01*
X71207333Y-78430476D01*
X71112095Y-78478095D01*
X72254952Y-78620952D02*
X72159714Y-78573333D01*
X72112095Y-78525714D01*
X72064476Y-78430476D01*
X72064476Y-78382857D01*
X72112095Y-78287619D01*
X72159714Y-78240000D01*
X72254952Y-78192381D01*
X72445429Y-78192381D01*
X72540667Y-78240000D01*
X72588286Y-78287619D01*
X72635905Y-78382857D01*
X72635905Y-78430476D01*
X72588286Y-78525714D01*
X72540667Y-78573333D01*
X72445429Y-78620952D01*
X72254952Y-78620952D01*
X72159714Y-78668571D01*
X72112095Y-78716190D01*
X72064476Y-78811429D01*
X72064476Y-79001905D01*
X72112095Y-79097143D01*
X72159714Y-79144762D01*
X72254952Y-79192381D01*
X72445429Y-79192381D01*
X72540667Y-79144762D01*
X72588286Y-79097143D01*
X72635905Y-79001905D01*
X72635905Y-78811429D01*
X72588286Y-78716190D01*
X72540667Y-78668571D01*
X72445429Y-78620952D01*
X70159714Y-74112381D02*
X70159714Y-73112381D01*
X70540667Y-73112381D01*
X70635905Y-73160000D01*
X70683524Y-73207619D01*
X70731143Y-73302857D01*
X70731143Y-73445714D01*
X70683524Y-73540952D01*
X70635905Y-73588571D01*
X70540667Y-73636190D01*
X70159714Y-73636190D01*
X71683524Y-74112381D02*
X71112095Y-74112381D01*
X71397809Y-74112381D02*
X71397809Y-73112381D01*
X71302571Y-73255238D01*
X71207333Y-73350476D01*
X71112095Y-73398095D01*
X72016857Y-73112381D02*
X72683524Y-73112381D01*
X72254952Y-74112381D01*
X70159714Y-69032381D02*
X70159714Y-68032381D01*
X70540667Y-68032381D01*
X70635905Y-68080000D01*
X70683524Y-68127619D01*
X70731143Y-68222857D01*
X70731143Y-68365714D01*
X70683524Y-68460952D01*
X70635905Y-68508571D01*
X70540667Y-68556190D01*
X70159714Y-68556190D01*
X71683524Y-69032381D02*
X71112095Y-69032381D01*
X71397809Y-69032381D02*
X71397809Y-68032381D01*
X71302571Y-68175238D01*
X71207333Y-68270476D01*
X71112095Y-68318095D01*
X72540667Y-68032381D02*
X72350190Y-68032381D01*
X72254952Y-68080000D01*
X72207333Y-68127619D01*
X72112095Y-68270476D01*
X72064476Y-68460952D01*
X72064476Y-68841905D01*
X72112095Y-68937143D01*
X72159714Y-68984762D01*
X72254952Y-69032381D01*
X72445429Y-69032381D01*
X72540667Y-68984762D01*
X72588286Y-68937143D01*
X72635905Y-68841905D01*
X72635905Y-68603810D01*
X72588286Y-68508571D01*
X72540667Y-68460952D01*
X72445429Y-68413333D01*
X72254952Y-68413333D01*
X72159714Y-68460952D01*
X72112095Y-68508571D01*
X72064476Y-68603810D01*
X70127905Y-41092381D02*
X70127905Y-40092381D01*
X70508858Y-40092381D01*
X70604096Y-40140000D01*
X70651715Y-40187619D01*
X70699334Y-40282857D01*
X70699334Y-40425714D01*
X70651715Y-40520952D01*
X70604096Y-40568571D01*
X70508858Y-40616190D01*
X70127905Y-40616190D01*
X71651715Y-41092381D02*
X71080286Y-41092381D01*
X71366000Y-41092381D02*
X71366000Y-40092381D01*
X71270762Y-40235238D01*
X71175524Y-40330476D01*
X71080286Y-40378095D01*
X70127905Y-46172381D02*
X70127905Y-45172381D01*
X70508858Y-45172381D01*
X70604096Y-45220000D01*
X70651715Y-45267619D01*
X70699334Y-45362857D01*
X70699334Y-45505714D01*
X70651715Y-45600952D01*
X70604096Y-45648571D01*
X70508858Y-45696190D01*
X70127905Y-45696190D01*
X71080286Y-45267619D02*
X71127905Y-45220000D01*
X71223143Y-45172381D01*
X71461239Y-45172381D01*
X71556477Y-45220000D01*
X71604096Y-45267619D01*
X71651715Y-45362857D01*
X71651715Y-45458095D01*
X71604096Y-45600952D01*
X71032667Y-46172381D01*
X71651715Y-46172381D01*
X70127905Y-51252381D02*
X70127905Y-50252381D01*
X70508858Y-50252381D01*
X70604096Y-50300000D01*
X70651715Y-50347619D01*
X70699334Y-50442857D01*
X70699334Y-50585714D01*
X70651715Y-50680952D01*
X70604096Y-50728571D01*
X70508858Y-50776190D01*
X70127905Y-50776190D01*
X71032667Y-50252381D02*
X71651715Y-50252381D01*
X71318381Y-50633333D01*
X71461239Y-50633333D01*
X71556477Y-50680952D01*
X71604096Y-50728571D01*
X71651715Y-50823810D01*
X71651715Y-51061905D01*
X71604096Y-51157143D01*
X71556477Y-51204762D01*
X71461239Y-51252381D01*
X71175524Y-51252381D01*
X71080286Y-51204762D01*
X71032667Y-51157143D01*
X70127905Y-56332381D02*
X70127905Y-55332381D01*
X70508858Y-55332381D01*
X70604096Y-55380000D01*
X70651715Y-55427619D01*
X70699334Y-55522857D01*
X70699334Y-55665714D01*
X70651715Y-55760952D01*
X70604096Y-55808571D01*
X70508858Y-55856190D01*
X70127905Y-55856190D01*
X71556477Y-55665714D02*
X71556477Y-56332381D01*
X71318381Y-55284762D02*
X71080286Y-55999048D01*
X71699334Y-55999048D01*
X70127905Y-61412381D02*
X70127905Y-60412381D01*
X70508858Y-60412381D01*
X70604096Y-60460000D01*
X70651715Y-60507619D01*
X70699334Y-60602857D01*
X70699334Y-60745714D01*
X70651715Y-60840952D01*
X70604096Y-60888571D01*
X70508858Y-60936190D01*
X70127905Y-60936190D01*
X71604096Y-60412381D02*
X71127905Y-60412381D01*
X71080286Y-60888571D01*
X71127905Y-60840952D01*
X71223143Y-60793333D01*
X71461239Y-60793333D01*
X71556477Y-60840952D01*
X71604096Y-60888571D01*
X71651715Y-60983810D01*
X71651715Y-61221905D01*
X71604096Y-61317143D01*
X71556477Y-61364762D01*
X71461239Y-61412381D01*
X71223143Y-61412381D01*
X71127905Y-61364762D01*
X71080286Y-61317143D01*
X70127905Y-66492381D02*
X70127905Y-65492381D01*
X70508858Y-65492381D01*
X70604096Y-65540000D01*
X70651715Y-65587619D01*
X70699334Y-65682857D01*
X70699334Y-65825714D01*
X70651715Y-65920952D01*
X70604096Y-65968571D01*
X70508858Y-66016190D01*
X70127905Y-66016190D01*
X71556477Y-65492381D02*
X71366000Y-65492381D01*
X71270762Y-65540000D01*
X71223143Y-65587619D01*
X71127905Y-65730476D01*
X71080286Y-65920952D01*
X71080286Y-66301905D01*
X71127905Y-66397143D01*
X71175524Y-66444762D01*
X71270762Y-66492381D01*
X71461239Y-66492381D01*
X71556477Y-66444762D01*
X71604096Y-66397143D01*
X71651715Y-66301905D01*
X71651715Y-66063810D01*
X71604096Y-65968571D01*
X71556477Y-65920952D01*
X71461239Y-65873333D01*
X71270762Y-65873333D01*
X71175524Y-65920952D01*
X71127905Y-65968571D01*
X71080286Y-66063810D01*
X70159714Y-58872381D02*
X70159714Y-57872381D01*
X70540667Y-57872381D01*
X70635905Y-57920000D01*
X70683524Y-57967619D01*
X70731143Y-58062857D01*
X70731143Y-58205714D01*
X70683524Y-58300952D01*
X70635905Y-58348571D01*
X70540667Y-58396190D01*
X70159714Y-58396190D01*
X71683524Y-58872381D02*
X71112095Y-58872381D01*
X71397809Y-58872381D02*
X71397809Y-57872381D01*
X71302571Y-58015238D01*
X71207333Y-58110476D01*
X71112095Y-58158095D01*
X72540667Y-58205714D02*
X72540667Y-58872381D01*
X72302571Y-57824762D02*
X72064476Y-58539048D01*
X72683524Y-58539048D01*
X70159714Y-53792381D02*
X70159714Y-52792381D01*
X70540667Y-52792381D01*
X70635905Y-52840000D01*
X70683524Y-52887619D01*
X70731143Y-52982857D01*
X70731143Y-53125714D01*
X70683524Y-53220952D01*
X70635905Y-53268571D01*
X70540667Y-53316190D01*
X70159714Y-53316190D01*
X71683524Y-53792381D02*
X71112095Y-53792381D01*
X71397809Y-53792381D02*
X71397809Y-52792381D01*
X71302571Y-52935238D01*
X71207333Y-53030476D01*
X71112095Y-53078095D01*
X72016857Y-52792381D02*
X72635905Y-52792381D01*
X72302571Y-53173333D01*
X72445429Y-53173333D01*
X72540667Y-53220952D01*
X72588286Y-53268571D01*
X72635905Y-53363810D01*
X72635905Y-53601905D01*
X72588286Y-53697143D01*
X72540667Y-53744762D01*
X72445429Y-53792381D01*
X72159714Y-53792381D01*
X72064476Y-53744762D01*
X72016857Y-53697143D01*
X70159714Y-48712381D02*
X70159714Y-47712381D01*
X70540667Y-47712381D01*
X70635905Y-47760000D01*
X70683524Y-47807619D01*
X70731143Y-47902857D01*
X70731143Y-48045714D01*
X70683524Y-48140952D01*
X70635905Y-48188571D01*
X70540667Y-48236190D01*
X70159714Y-48236190D01*
X71683524Y-48712381D02*
X71112095Y-48712381D01*
X71397809Y-48712381D02*
X71397809Y-47712381D01*
X71302571Y-47855238D01*
X71207333Y-47950476D01*
X71112095Y-47998095D01*
X72064476Y-47807619D02*
X72112095Y-47760000D01*
X72207333Y-47712381D01*
X72445429Y-47712381D01*
X72540667Y-47760000D01*
X72588286Y-47807619D01*
X72635905Y-47902857D01*
X72635905Y-47998095D01*
X72588286Y-48140952D01*
X72016857Y-48712381D01*
X72635905Y-48712381D01*
X70159714Y-43632381D02*
X70159714Y-42632381D01*
X70540667Y-42632381D01*
X70635905Y-42680000D01*
X70683524Y-42727619D01*
X70731143Y-42822857D01*
X70731143Y-42965714D01*
X70683524Y-43060952D01*
X70635905Y-43108571D01*
X70540667Y-43156190D01*
X70159714Y-43156190D01*
X71683524Y-43632381D02*
X71112095Y-43632381D01*
X71397809Y-43632381D02*
X71397809Y-42632381D01*
X71302571Y-42775238D01*
X71207333Y-42870476D01*
X71112095Y-42918095D01*
X72635905Y-43632381D02*
X72064476Y-43632381D01*
X72350190Y-43632381D02*
X72350190Y-42632381D01*
X72254952Y-42775238D01*
X72159714Y-42870476D01*
X72064476Y-42918095D01*
X70159714Y-63952381D02*
X70159714Y-62952381D01*
X70540667Y-62952381D01*
X70635905Y-63000000D01*
X70683524Y-63047619D01*
X70731143Y-63142857D01*
X70731143Y-63285714D01*
X70683524Y-63380952D01*
X70635905Y-63428571D01*
X70540667Y-63476190D01*
X70159714Y-63476190D01*
X71683524Y-63952381D02*
X71112095Y-63952381D01*
X71397809Y-63952381D02*
X71397809Y-62952381D01*
X71302571Y-63095238D01*
X71207333Y-63190476D01*
X71112095Y-63238095D01*
X72588286Y-62952381D02*
X72112095Y-62952381D01*
X72064476Y-63428571D01*
X72112095Y-63380952D01*
X72207333Y-63333333D01*
X72445429Y-63333333D01*
X72540667Y-63380952D01*
X72588286Y-63428571D01*
X72635905Y-63523810D01*
X72635905Y-63761905D01*
X72588286Y-63857143D01*
X72540667Y-63904762D01*
X72445429Y-63952381D01*
X72207333Y-63952381D01*
X72112095Y-63904762D01*
X72064476Y-63857143D01*
X70127905Y-76652381D02*
X70127905Y-75652381D01*
X70508858Y-75652381D01*
X70604096Y-75700000D01*
X70651715Y-75747619D01*
X70699334Y-75842857D01*
X70699334Y-75985714D01*
X70651715Y-76080952D01*
X70604096Y-76128571D01*
X70508858Y-76176190D01*
X70127905Y-76176190D01*
X71270762Y-76080952D02*
X71175524Y-76033333D01*
X71127905Y-75985714D01*
X71080286Y-75890476D01*
X71080286Y-75842857D01*
X71127905Y-75747619D01*
X71175524Y-75700000D01*
X71270762Y-75652381D01*
X71461239Y-75652381D01*
X71556477Y-75700000D01*
X71604096Y-75747619D01*
X71651715Y-75842857D01*
X71651715Y-75890476D01*
X71604096Y-75985714D01*
X71556477Y-76033333D01*
X71461239Y-76080952D01*
X71270762Y-76080952D01*
X71175524Y-76128571D01*
X71127905Y-76176190D01*
X71080286Y-76271429D01*
X71080286Y-76461905D01*
X71127905Y-76557143D01*
X71175524Y-76604762D01*
X71270762Y-76652381D01*
X71461239Y-76652381D01*
X71556477Y-76604762D01*
X71604096Y-76557143D01*
X71651715Y-76461905D01*
X71651715Y-76271429D01*
X71604096Y-76176190D01*
X71556477Y-76128571D01*
X71461239Y-76080952D01*
X70127905Y-71572381D02*
X70127905Y-70572381D01*
X70508858Y-70572381D01*
X70604096Y-70620000D01*
X70651715Y-70667619D01*
X70699334Y-70762857D01*
X70699334Y-70905714D01*
X70651715Y-71000952D01*
X70604096Y-71048571D01*
X70508858Y-71096190D01*
X70127905Y-71096190D01*
X71032667Y-70572381D02*
X71699334Y-70572381D01*
X71270762Y-71572381D01*
X86812381Y-44394286D02*
X85812381Y-44394286D01*
X85812381Y-44013333D01*
X85860000Y-43918095D01*
X85907619Y-43870476D01*
X86002857Y-43822857D01*
X86145714Y-43822857D01*
X86240952Y-43870476D01*
X86288571Y-43918095D01*
X86336190Y-44013333D01*
X86336190Y-44394286D01*
X85812381Y-43489524D02*
X85812381Y-42870476D01*
X86193333Y-43203810D01*
X86193333Y-43060952D01*
X86240952Y-42965714D01*
X86288571Y-42918095D01*
X86383810Y-42870476D01*
X86621905Y-42870476D01*
X86717143Y-42918095D01*
X86764762Y-42965714D01*
X86812381Y-43060952D01*
X86812381Y-43346667D01*
X86764762Y-43441905D01*
X86717143Y-43489524D01*
X85812381Y-42537143D02*
X85812381Y-41870476D01*
X86812381Y-42299048D01*
X96972381Y-44394286D02*
X95972381Y-44394286D01*
X95972381Y-44013333D01*
X96020000Y-43918095D01*
X96067619Y-43870476D01*
X96162857Y-43822857D01*
X96305714Y-43822857D01*
X96400952Y-43870476D01*
X96448571Y-43918095D01*
X96496190Y-44013333D01*
X96496190Y-44394286D01*
X95972381Y-43489524D02*
X95972381Y-42870476D01*
X96353333Y-43203810D01*
X96353333Y-43060952D01*
X96400952Y-42965714D01*
X96448571Y-42918095D01*
X96543810Y-42870476D01*
X96781905Y-42870476D01*
X96877143Y-42918095D01*
X96924762Y-42965714D01*
X96972381Y-43060952D01*
X96972381Y-43346667D01*
X96924762Y-43441905D01*
X96877143Y-43489524D01*
X95972381Y-41965714D02*
X95972381Y-42441905D01*
X96448571Y-42489524D01*
X96400952Y-42441905D01*
X96353333Y-42346667D01*
X96353333Y-42108571D01*
X96400952Y-42013333D01*
X96448571Y-41965714D01*
X96543810Y-41918095D01*
X96781905Y-41918095D01*
X96877143Y-41965714D01*
X96924762Y-42013333D01*
X96972381Y-42108571D01*
X96972381Y-42346667D01*
X96924762Y-42441905D01*
X96877143Y-42489524D01*
X100131714Y-58872381D02*
X100131714Y-57872381D01*
X100512667Y-57872381D01*
X100607905Y-57920000D01*
X100655524Y-57967619D01*
X100703143Y-58062857D01*
X100703143Y-58205714D01*
X100655524Y-58300952D01*
X100607905Y-58348571D01*
X100512667Y-58396190D01*
X100131714Y-58396190D01*
X101036476Y-57872381D02*
X101655524Y-57872381D01*
X101322190Y-58253333D01*
X101465048Y-58253333D01*
X101560286Y-58300952D01*
X101607905Y-58348571D01*
X101655524Y-58443810D01*
X101655524Y-58681905D01*
X101607905Y-58777143D01*
X101560286Y-58824762D01*
X101465048Y-58872381D01*
X101179333Y-58872381D01*
X101084095Y-58824762D01*
X101036476Y-58777143D01*
X102512667Y-58205714D02*
X102512667Y-58872381D01*
X102274571Y-57824762D02*
X102036476Y-58539048D01*
X102655524Y-58539048D01*
X102925714Y-41092381D02*
X102925714Y-40092381D01*
X103306667Y-40092381D01*
X103401905Y-40140000D01*
X103449524Y-40187619D01*
X103497143Y-40282857D01*
X103497143Y-40425714D01*
X103449524Y-40520952D01*
X103401905Y-40568571D01*
X103306667Y-40616190D01*
X102925714Y-40616190D01*
X103830476Y-40092381D02*
X104449524Y-40092381D01*
X104116190Y-40473333D01*
X104259048Y-40473333D01*
X104354286Y-40520952D01*
X104401905Y-40568571D01*
X104449524Y-40663810D01*
X104449524Y-40901905D01*
X104401905Y-40997143D01*
X104354286Y-41044762D01*
X104259048Y-41092381D01*
X103973333Y-41092381D01*
X103878095Y-41044762D01*
X103830476Y-40997143D01*
X104782857Y-40092381D02*
X105401905Y-40092381D01*
X105068571Y-40473333D01*
X105211429Y-40473333D01*
X105306667Y-40520952D01*
X105354286Y-40568571D01*
X105401905Y-40663810D01*
X105401905Y-40901905D01*
X105354286Y-40997143D01*
X105306667Y-41044762D01*
X105211429Y-41092381D01*
X104925714Y-41092381D01*
X104830476Y-41044762D01*
X104782857Y-40997143D01*
X108005714Y-37282381D02*
X108005714Y-36282381D01*
X108386667Y-36282381D01*
X108481905Y-36330000D01*
X108529524Y-36377619D01*
X108577143Y-36472857D01*
X108577143Y-36615714D01*
X108529524Y-36710952D01*
X108481905Y-36758571D01*
X108386667Y-36806190D01*
X108005714Y-36806190D01*
X108910476Y-36282381D02*
X109529524Y-36282381D01*
X109196190Y-36663333D01*
X109339048Y-36663333D01*
X109434286Y-36710952D01*
X109481905Y-36758571D01*
X109529524Y-36853810D01*
X109529524Y-37091905D01*
X109481905Y-37187143D01*
X109434286Y-37234762D01*
X109339048Y-37282381D01*
X109053333Y-37282381D01*
X108958095Y-37234762D01*
X108910476Y-37187143D01*
X109910476Y-36377619D02*
X109958095Y-36330000D01*
X110053333Y-36282381D01*
X110291429Y-36282381D01*
X110386667Y-36330000D01*
X110434286Y-36377619D01*
X110481905Y-36472857D01*
X110481905Y-36568095D01*
X110434286Y-36710952D01*
X109862857Y-37282381D01*
X110481905Y-37282381D01*
X94432381Y-44394286D02*
X93432381Y-44394286D01*
X93432381Y-44013333D01*
X93480000Y-43918095D01*
X93527619Y-43870476D01*
X93622857Y-43822857D01*
X93765714Y-43822857D01*
X93860952Y-43870476D01*
X93908571Y-43918095D01*
X93956190Y-44013333D01*
X93956190Y-44394286D01*
X93432381Y-43489524D02*
X93432381Y-42870476D01*
X93813333Y-43203810D01*
X93813333Y-43060952D01*
X93860952Y-42965714D01*
X93908571Y-42918095D01*
X94003810Y-42870476D01*
X94241905Y-42870476D01*
X94337143Y-42918095D01*
X94384762Y-42965714D01*
X94432381Y-43060952D01*
X94432381Y-43346667D01*
X94384762Y-43441905D01*
X94337143Y-43489524D01*
X94432381Y-41918095D02*
X94432381Y-42489524D01*
X94432381Y-42203810D02*
X93432381Y-42203810D01*
X93575238Y-42299048D01*
X93670476Y-42394286D01*
X93718095Y-42489524D01*
X91892381Y-44394286D02*
X90892381Y-44394286D01*
X90892381Y-44013333D01*
X90940000Y-43918095D01*
X90987619Y-43870476D01*
X91082857Y-43822857D01*
X91225714Y-43822857D01*
X91320952Y-43870476D01*
X91368571Y-43918095D01*
X91416190Y-44013333D01*
X91416190Y-44394286D01*
X90892381Y-43489524D02*
X90892381Y-42870476D01*
X91273333Y-43203810D01*
X91273333Y-43060952D01*
X91320952Y-42965714D01*
X91368571Y-42918095D01*
X91463810Y-42870476D01*
X91701905Y-42870476D01*
X91797143Y-42918095D01*
X91844762Y-42965714D01*
X91892381Y-43060952D01*
X91892381Y-43346667D01*
X91844762Y-43441905D01*
X91797143Y-43489524D01*
X90892381Y-42251429D02*
X90892381Y-42156190D01*
X90940000Y-42060952D01*
X90987619Y-42013333D01*
X91082857Y-41965714D01*
X91273333Y-41918095D01*
X91511429Y-41918095D01*
X91701905Y-41965714D01*
X91797143Y-42013333D01*
X91844762Y-42060952D01*
X91892381Y-42156190D01*
X91892381Y-42251429D01*
X91844762Y-42346667D01*
X91797143Y-42394286D01*
X91701905Y-42441905D01*
X91511429Y-42489524D01*
X91273333Y-42489524D01*
X91082857Y-42441905D01*
X90987619Y-42394286D01*
X90940000Y-42346667D01*
X90892381Y-42251429D01*
X105465714Y-53792381D02*
X105465714Y-52792381D01*
X105846667Y-52792381D01*
X105941905Y-52840000D01*
X105989524Y-52887619D01*
X106037143Y-52982857D01*
X106037143Y-53125714D01*
X105989524Y-53220952D01*
X105941905Y-53268571D01*
X105846667Y-53316190D01*
X105465714Y-53316190D01*
X106418095Y-52887619D02*
X106465714Y-52840000D01*
X106560952Y-52792381D01*
X106799048Y-52792381D01*
X106894286Y-52840000D01*
X106941905Y-52887619D01*
X106989524Y-52982857D01*
X106989524Y-53078095D01*
X106941905Y-53220952D01*
X106370476Y-53792381D01*
X106989524Y-53792381D01*
X107560952Y-53220952D02*
X107465714Y-53173333D01*
X107418095Y-53125714D01*
X107370476Y-53030476D01*
X107370476Y-52982857D01*
X107418095Y-52887619D01*
X107465714Y-52840000D01*
X107560952Y-52792381D01*
X107751429Y-52792381D01*
X107846667Y-52840000D01*
X107894286Y-52887619D01*
X107941905Y-52982857D01*
X107941905Y-53030476D01*
X107894286Y-53125714D01*
X107846667Y-53173333D01*
X107751429Y-53220952D01*
X107560952Y-53220952D01*
X107465714Y-53268571D01*
X107418095Y-53316190D01*
X107370476Y-53411429D01*
X107370476Y-53601905D01*
X107418095Y-53697143D01*
X107465714Y-53744762D01*
X107560952Y-53792381D01*
X107751429Y-53792381D01*
X107846667Y-53744762D01*
X107894286Y-53697143D01*
X107941905Y-53601905D01*
X107941905Y-53411429D01*
X107894286Y-53316190D01*
X107846667Y-53268571D01*
X107751429Y-53220952D01*
X115625714Y-51252381D02*
X115625714Y-50252381D01*
X116006667Y-50252381D01*
X116101905Y-50300000D01*
X116149524Y-50347619D01*
X116197143Y-50442857D01*
X116197143Y-50585714D01*
X116149524Y-50680952D01*
X116101905Y-50728571D01*
X116006667Y-50776190D01*
X115625714Y-50776190D01*
X116578095Y-50347619D02*
X116625714Y-50300000D01*
X116720952Y-50252381D01*
X116959048Y-50252381D01*
X117054286Y-50300000D01*
X117101905Y-50347619D01*
X117149524Y-50442857D01*
X117149524Y-50538095D01*
X117101905Y-50680952D01*
X116530476Y-51252381D01*
X117149524Y-51252381D01*
X117482857Y-50252381D02*
X118149524Y-50252381D01*
X117720952Y-51252381D01*
X104957714Y-51252381D02*
X104957714Y-50252381D01*
X105338667Y-50252381D01*
X105433905Y-50300000D01*
X105481524Y-50347619D01*
X105529143Y-50442857D01*
X105529143Y-50585714D01*
X105481524Y-50680952D01*
X105433905Y-50728571D01*
X105338667Y-50776190D01*
X104957714Y-50776190D01*
X105910095Y-50347619D02*
X105957714Y-50300000D01*
X106052952Y-50252381D01*
X106291048Y-50252381D01*
X106386286Y-50300000D01*
X106433905Y-50347619D01*
X106481524Y-50442857D01*
X106481524Y-50538095D01*
X106433905Y-50680952D01*
X105862476Y-51252381D01*
X106481524Y-51252381D01*
X107338667Y-50252381D02*
X107148190Y-50252381D01*
X107052952Y-50300000D01*
X107005333Y-50347619D01*
X106910095Y-50490476D01*
X106862476Y-50680952D01*
X106862476Y-51061905D01*
X106910095Y-51157143D01*
X106957714Y-51204762D01*
X107052952Y-51252381D01*
X107243429Y-51252381D01*
X107338667Y-51204762D01*
X107386286Y-51157143D01*
X107433905Y-51061905D01*
X107433905Y-50823810D01*
X107386286Y-50728571D01*
X107338667Y-50680952D01*
X107243429Y-50633333D01*
X107052952Y-50633333D01*
X106957714Y-50680952D01*
X106910095Y-50728571D01*
X106862476Y-50823810D01*
X100131714Y-63952381D02*
X100131714Y-62952381D01*
X100512667Y-62952381D01*
X100607905Y-63000000D01*
X100655524Y-63047619D01*
X100703143Y-63142857D01*
X100703143Y-63285714D01*
X100655524Y-63380952D01*
X100607905Y-63428571D01*
X100512667Y-63476190D01*
X100131714Y-63476190D01*
X101084095Y-63047619D02*
X101131714Y-63000000D01*
X101226952Y-62952381D01*
X101465048Y-62952381D01*
X101560286Y-63000000D01*
X101607905Y-63047619D01*
X101655524Y-63142857D01*
X101655524Y-63238095D01*
X101607905Y-63380952D01*
X101036476Y-63952381D01*
X101655524Y-63952381D01*
X102560286Y-62952381D02*
X102084095Y-62952381D01*
X102036476Y-63428571D01*
X102084095Y-63380952D01*
X102179333Y-63333333D01*
X102417429Y-63333333D01*
X102512667Y-63380952D01*
X102560286Y-63428571D01*
X102607905Y-63523810D01*
X102607905Y-63761905D01*
X102560286Y-63857143D01*
X102512667Y-63904762D01*
X102417429Y-63952381D01*
X102179333Y-63952381D01*
X102084095Y-63904762D01*
X102036476Y-63857143D01*
X102417714Y-61412381D02*
X102417714Y-60412381D01*
X102798667Y-60412381D01*
X102893905Y-60460000D01*
X102941524Y-60507619D01*
X102989143Y-60602857D01*
X102989143Y-60745714D01*
X102941524Y-60840952D01*
X102893905Y-60888571D01*
X102798667Y-60936190D01*
X102417714Y-60936190D01*
X103370095Y-60507619D02*
X103417714Y-60460000D01*
X103512952Y-60412381D01*
X103751048Y-60412381D01*
X103846286Y-60460000D01*
X103893905Y-60507619D01*
X103941524Y-60602857D01*
X103941524Y-60698095D01*
X103893905Y-60840952D01*
X103322476Y-61412381D01*
X103941524Y-61412381D01*
X104798667Y-60745714D02*
X104798667Y-61412381D01*
X104560571Y-60364762D02*
X104322476Y-61079048D01*
X104941524Y-61079048D01*
X97591714Y-66492381D02*
X97591714Y-65492381D01*
X97972667Y-65492381D01*
X98067905Y-65540000D01*
X98115524Y-65587619D01*
X98163143Y-65682857D01*
X98163143Y-65825714D01*
X98115524Y-65920952D01*
X98067905Y-65968571D01*
X97972667Y-66016190D01*
X97591714Y-66016190D01*
X98544095Y-65587619D02*
X98591714Y-65540000D01*
X98686952Y-65492381D01*
X98925048Y-65492381D01*
X99020286Y-65540000D01*
X99067905Y-65587619D01*
X99115524Y-65682857D01*
X99115524Y-65778095D01*
X99067905Y-65920952D01*
X98496476Y-66492381D01*
X99115524Y-66492381D01*
X99448857Y-65492381D02*
X100067905Y-65492381D01*
X99734571Y-65873333D01*
X99877429Y-65873333D01*
X99972667Y-65920952D01*
X100020286Y-65968571D01*
X100067905Y-66063810D01*
X100067905Y-66301905D01*
X100020286Y-66397143D01*
X99972667Y-66444762D01*
X99877429Y-66492381D01*
X99591714Y-66492381D01*
X99496476Y-66444762D01*
X99448857Y-66397143D01*
X141025714Y-48712381D02*
X141025714Y-47712381D01*
X141406667Y-47712381D01*
X141501905Y-47760000D01*
X141549524Y-47807619D01*
X141597143Y-47902857D01*
X141597143Y-48045714D01*
X141549524Y-48140952D01*
X141501905Y-48188571D01*
X141406667Y-48236190D01*
X141025714Y-48236190D01*
X142454286Y-48045714D02*
X142454286Y-48712381D01*
X142216190Y-47664762D02*
X141978095Y-48379048D01*
X142597143Y-48379048D01*
X143454286Y-47712381D02*
X142978095Y-47712381D01*
X142930476Y-48188571D01*
X142978095Y-48140952D01*
X143073333Y-48093333D01*
X143311429Y-48093333D01*
X143406667Y-48140952D01*
X143454286Y-48188571D01*
X143501905Y-48283810D01*
X143501905Y-48521905D01*
X143454286Y-48617143D01*
X143406667Y-48664762D01*
X143311429Y-48712381D01*
X143073333Y-48712381D01*
X142978095Y-48664762D01*
X142930476Y-48617143D01*
X148645714Y-53792381D02*
X148645714Y-52792381D01*
X149026667Y-52792381D01*
X149121905Y-52840000D01*
X149169524Y-52887619D01*
X149217143Y-52982857D01*
X149217143Y-53125714D01*
X149169524Y-53220952D01*
X149121905Y-53268571D01*
X149026667Y-53316190D01*
X148645714Y-53316190D01*
X150074286Y-53125714D02*
X150074286Y-53792381D01*
X149836190Y-52744762D02*
X149598095Y-53459048D01*
X150217143Y-53459048D01*
X151026667Y-53125714D02*
X151026667Y-53792381D01*
X150788571Y-52744762D02*
X150550476Y-53459048D01*
X151169524Y-53459048D01*
X161345714Y-46172381D02*
X161345714Y-45172381D01*
X161726667Y-45172381D01*
X161821905Y-45220000D01*
X161869524Y-45267619D01*
X161917143Y-45362857D01*
X161917143Y-45505714D01*
X161869524Y-45600952D01*
X161821905Y-45648571D01*
X161726667Y-45696190D01*
X161345714Y-45696190D01*
X162774286Y-45505714D02*
X162774286Y-46172381D01*
X162536190Y-45124762D02*
X162298095Y-45839048D01*
X162917143Y-45839048D01*
X163202857Y-45172381D02*
X163821905Y-45172381D01*
X163488571Y-45553333D01*
X163631429Y-45553333D01*
X163726667Y-45600952D01*
X163774286Y-45648571D01*
X163821905Y-45743810D01*
X163821905Y-45981905D01*
X163774286Y-46077143D01*
X163726667Y-46124762D01*
X163631429Y-46172381D01*
X163345714Y-46172381D01*
X163250476Y-46124762D01*
X163202857Y-46077143D01*
X146105714Y-66492381D02*
X146105714Y-65492381D01*
X146486667Y-65492381D01*
X146581905Y-65540000D01*
X146629524Y-65587619D01*
X146677143Y-65682857D01*
X146677143Y-65825714D01*
X146629524Y-65920952D01*
X146581905Y-65968571D01*
X146486667Y-66016190D01*
X146105714Y-66016190D01*
X147534286Y-65825714D02*
X147534286Y-66492381D01*
X147296190Y-65444762D02*
X147058095Y-66159048D01*
X147677143Y-66159048D01*
X148010476Y-65587619D02*
X148058095Y-65540000D01*
X148153333Y-65492381D01*
X148391429Y-65492381D01*
X148486667Y-65540000D01*
X148534286Y-65587619D01*
X148581905Y-65682857D01*
X148581905Y-65778095D01*
X148534286Y-65920952D01*
X147962857Y-66492381D01*
X148581905Y-66492381D01*
X158805714Y-53792381D02*
X158805714Y-52792381D01*
X159186667Y-52792381D01*
X159281905Y-52840000D01*
X159329524Y-52887619D01*
X159377143Y-52982857D01*
X159377143Y-53125714D01*
X159329524Y-53220952D01*
X159281905Y-53268571D01*
X159186667Y-53316190D01*
X158805714Y-53316190D01*
X160234286Y-53125714D02*
X160234286Y-53792381D01*
X159996190Y-52744762D02*
X159758095Y-53459048D01*
X160377143Y-53459048D01*
X161281905Y-53792381D02*
X160710476Y-53792381D01*
X160996190Y-53792381D02*
X160996190Y-52792381D01*
X160900952Y-52935238D01*
X160805714Y-53030476D01*
X160710476Y-53078095D01*
X146105714Y-61412381D02*
X146105714Y-60412381D01*
X146486667Y-60412381D01*
X146581905Y-60460000D01*
X146629524Y-60507619D01*
X146677143Y-60602857D01*
X146677143Y-60745714D01*
X146629524Y-60840952D01*
X146581905Y-60888571D01*
X146486667Y-60936190D01*
X146105714Y-60936190D01*
X147534286Y-60745714D02*
X147534286Y-61412381D01*
X147296190Y-60364762D02*
X147058095Y-61079048D01*
X147677143Y-61079048D01*
X148248571Y-60412381D02*
X148343810Y-60412381D01*
X148439048Y-60460000D01*
X148486667Y-60507619D01*
X148534286Y-60602857D01*
X148581905Y-60793333D01*
X148581905Y-61031429D01*
X148534286Y-61221905D01*
X148486667Y-61317143D01*
X148439048Y-61364762D01*
X148343810Y-61412381D01*
X148248571Y-61412381D01*
X148153333Y-61364762D01*
X148105714Y-61317143D01*
X148058095Y-61221905D01*
X148010476Y-61031429D01*
X148010476Y-60793333D01*
X148058095Y-60602857D01*
X148105714Y-60507619D01*
X148153333Y-60460000D01*
X148248571Y-60412381D01*
X158805714Y-66492381D02*
X158805714Y-65492381D01*
X159186667Y-65492381D01*
X159281905Y-65540000D01*
X159329524Y-65587619D01*
X159377143Y-65682857D01*
X159377143Y-65825714D01*
X159329524Y-65920952D01*
X159281905Y-65968571D01*
X159186667Y-66016190D01*
X158805714Y-66016190D01*
X159710476Y-65492381D02*
X160329524Y-65492381D01*
X159996190Y-65873333D01*
X160139048Y-65873333D01*
X160234286Y-65920952D01*
X160281905Y-65968571D01*
X160329524Y-66063810D01*
X160329524Y-66301905D01*
X160281905Y-66397143D01*
X160234286Y-66444762D01*
X160139048Y-66492381D01*
X159853333Y-66492381D01*
X159758095Y-66444762D01*
X159710476Y-66397143D01*
X160805714Y-66492381D02*
X160996190Y-66492381D01*
X161091429Y-66444762D01*
X161139048Y-66397143D01*
X161234286Y-66254286D01*
X161281905Y-66063810D01*
X161281905Y-65682857D01*
X161234286Y-65587619D01*
X161186667Y-65540000D01*
X161091429Y-65492381D01*
X160900952Y-65492381D01*
X160805714Y-65540000D01*
X160758095Y-65587619D01*
X160710476Y-65682857D01*
X160710476Y-65920952D01*
X160758095Y-66016190D01*
X160805714Y-66063810D01*
X160900952Y-66111429D01*
X161091429Y-66111429D01*
X161186667Y-66063810D01*
X161234286Y-66016190D01*
X161281905Y-65920952D01*
X113593714Y-61412381D02*
X113593714Y-60412381D01*
X113974667Y-60412381D01*
X114069905Y-60460000D01*
X114117524Y-60507619D01*
X114165143Y-60602857D01*
X114165143Y-60745714D01*
X114117524Y-60840952D01*
X114069905Y-60888571D01*
X113974667Y-60936190D01*
X113593714Y-60936190D01*
X114498476Y-60412381D02*
X115117524Y-60412381D01*
X114784190Y-60793333D01*
X114927048Y-60793333D01*
X115022286Y-60840952D01*
X115069905Y-60888571D01*
X115117524Y-60983810D01*
X115117524Y-61221905D01*
X115069905Y-61317143D01*
X115022286Y-61364762D01*
X114927048Y-61412381D01*
X114641333Y-61412381D01*
X114546095Y-61364762D01*
X114498476Y-61317143D01*
X115974667Y-60412381D02*
X115784190Y-60412381D01*
X115688952Y-60460000D01*
X115641333Y-60507619D01*
X115546095Y-60650476D01*
X115498476Y-60840952D01*
X115498476Y-61221905D01*
X115546095Y-61317143D01*
X115593714Y-61364762D01*
X115688952Y-61412381D01*
X115879429Y-61412381D01*
X115974667Y-61364762D01*
X116022286Y-61317143D01*
X116069905Y-61221905D01*
X116069905Y-60983810D01*
X116022286Y-60888571D01*
X115974667Y-60840952D01*
X115879429Y-60793333D01*
X115688952Y-60793333D01*
X115593714Y-60840952D01*
X115546095Y-60888571D01*
X115498476Y-60983810D01*
X156265714Y-41092381D02*
X156265714Y-40092381D01*
X156646667Y-40092381D01*
X156741905Y-40140000D01*
X156789524Y-40187619D01*
X156837143Y-40282857D01*
X156837143Y-40425714D01*
X156789524Y-40520952D01*
X156741905Y-40568571D01*
X156646667Y-40616190D01*
X156265714Y-40616190D01*
X157741905Y-40092381D02*
X157265714Y-40092381D01*
X157218095Y-40568571D01*
X157265714Y-40520952D01*
X157360952Y-40473333D01*
X157599048Y-40473333D01*
X157694286Y-40520952D01*
X157741905Y-40568571D01*
X157789524Y-40663810D01*
X157789524Y-40901905D01*
X157741905Y-40997143D01*
X157694286Y-41044762D01*
X157599048Y-41092381D01*
X157360952Y-41092381D01*
X157265714Y-41044762D01*
X157218095Y-40997143D01*
X158694286Y-40092381D02*
X158218095Y-40092381D01*
X158170476Y-40568571D01*
X158218095Y-40520952D01*
X158313333Y-40473333D01*
X158551429Y-40473333D01*
X158646667Y-40520952D01*
X158694286Y-40568571D01*
X158741905Y-40663810D01*
X158741905Y-40901905D01*
X158694286Y-40997143D01*
X158646667Y-41044762D01*
X158551429Y-41092381D01*
X158313333Y-41092381D01*
X158218095Y-41044762D01*
X158170476Y-40997143D01*
X123245714Y-38552381D02*
X123245714Y-37552381D01*
X123626667Y-37552381D01*
X123721905Y-37600000D01*
X123769524Y-37647619D01*
X123817143Y-37742857D01*
X123817143Y-37885714D01*
X123769524Y-37980952D01*
X123721905Y-38028571D01*
X123626667Y-38076190D01*
X123245714Y-38076190D01*
X124721905Y-37552381D02*
X124245714Y-37552381D01*
X124198095Y-38028571D01*
X124245714Y-37980952D01*
X124340952Y-37933333D01*
X124579048Y-37933333D01*
X124674286Y-37980952D01*
X124721905Y-38028571D01*
X124769524Y-38123810D01*
X124769524Y-38361905D01*
X124721905Y-38457143D01*
X124674286Y-38504762D01*
X124579048Y-38552381D01*
X124340952Y-38552381D01*
X124245714Y-38504762D01*
X124198095Y-38457143D01*
X125626667Y-37885714D02*
X125626667Y-38552381D01*
X125388571Y-37504762D02*
X125150476Y-38219048D01*
X125769524Y-38219048D01*
X148645714Y-41092381D02*
X148645714Y-40092381D01*
X149026667Y-40092381D01*
X149121905Y-40140000D01*
X149169524Y-40187619D01*
X149217143Y-40282857D01*
X149217143Y-40425714D01*
X149169524Y-40520952D01*
X149121905Y-40568571D01*
X149026667Y-40616190D01*
X148645714Y-40616190D01*
X150121905Y-40092381D02*
X149645714Y-40092381D01*
X149598095Y-40568571D01*
X149645714Y-40520952D01*
X149740952Y-40473333D01*
X149979048Y-40473333D01*
X150074286Y-40520952D01*
X150121905Y-40568571D01*
X150169524Y-40663810D01*
X150169524Y-40901905D01*
X150121905Y-40997143D01*
X150074286Y-41044762D01*
X149979048Y-41092381D01*
X149740952Y-41092381D01*
X149645714Y-41044762D01*
X149598095Y-40997143D01*
X150502857Y-40092381D02*
X151121905Y-40092381D01*
X150788571Y-40473333D01*
X150931429Y-40473333D01*
X151026667Y-40520952D01*
X151074286Y-40568571D01*
X151121905Y-40663810D01*
X151121905Y-40901905D01*
X151074286Y-40997143D01*
X151026667Y-41044762D01*
X150931429Y-41092381D01*
X150645714Y-41092381D01*
X150550476Y-41044762D01*
X150502857Y-40997143D01*
X148645714Y-48712381D02*
X148645714Y-47712381D01*
X149026667Y-47712381D01*
X149121905Y-47760000D01*
X149169524Y-47807619D01*
X149217143Y-47902857D01*
X149217143Y-48045714D01*
X149169524Y-48140952D01*
X149121905Y-48188571D01*
X149026667Y-48236190D01*
X148645714Y-48236190D01*
X150121905Y-47712381D02*
X149645714Y-47712381D01*
X149598095Y-48188571D01*
X149645714Y-48140952D01*
X149740952Y-48093333D01*
X149979048Y-48093333D01*
X150074286Y-48140952D01*
X150121905Y-48188571D01*
X150169524Y-48283810D01*
X150169524Y-48521905D01*
X150121905Y-48617143D01*
X150074286Y-48664762D01*
X149979048Y-48712381D01*
X149740952Y-48712381D01*
X149645714Y-48664762D01*
X149598095Y-48617143D01*
X150550476Y-47807619D02*
X150598095Y-47760000D01*
X150693333Y-47712381D01*
X150931429Y-47712381D01*
X151026667Y-47760000D01*
X151074286Y-47807619D01*
X151121905Y-47902857D01*
X151121905Y-47998095D01*
X151074286Y-48140952D01*
X150502857Y-48712381D01*
X151121905Y-48712381D01*
X158805714Y-63952381D02*
X158805714Y-62952381D01*
X159186667Y-62952381D01*
X159281905Y-63000000D01*
X159329524Y-63047619D01*
X159377143Y-63142857D01*
X159377143Y-63285714D01*
X159329524Y-63380952D01*
X159281905Y-63428571D01*
X159186667Y-63476190D01*
X158805714Y-63476190D01*
X160281905Y-62952381D02*
X159805714Y-62952381D01*
X159758095Y-63428571D01*
X159805714Y-63380952D01*
X159900952Y-63333333D01*
X160139048Y-63333333D01*
X160234286Y-63380952D01*
X160281905Y-63428571D01*
X160329524Y-63523810D01*
X160329524Y-63761905D01*
X160281905Y-63857143D01*
X160234286Y-63904762D01*
X160139048Y-63952381D01*
X159900952Y-63952381D01*
X159805714Y-63904762D01*
X159758095Y-63857143D01*
X161281905Y-63952381D02*
X160710476Y-63952381D01*
X160996190Y-63952381D02*
X160996190Y-62952381D01*
X160900952Y-63095238D01*
X160805714Y-63190476D01*
X160710476Y-63238095D01*
X89352381Y-44394286D02*
X88352381Y-44394286D01*
X88352381Y-44013333D01*
X88400000Y-43918095D01*
X88447619Y-43870476D01*
X88542857Y-43822857D01*
X88685714Y-43822857D01*
X88780952Y-43870476D01*
X88828571Y-43918095D01*
X88876190Y-44013333D01*
X88876190Y-44394286D01*
X88447619Y-43441905D02*
X88400000Y-43394286D01*
X88352381Y-43299048D01*
X88352381Y-43060952D01*
X88400000Y-42965714D01*
X88447619Y-42918095D01*
X88542857Y-42870476D01*
X88638095Y-42870476D01*
X88780952Y-42918095D01*
X89352381Y-43489524D01*
X89352381Y-42870476D01*
X89352381Y-42394286D02*
X89352381Y-42203810D01*
X89304762Y-42108571D01*
X89257143Y-42060952D01*
X89114286Y-41965714D01*
X88923810Y-41918095D01*
X88542857Y-41918095D01*
X88447619Y-41965714D01*
X88400000Y-42013333D01*
X88352381Y-42108571D01*
X88352381Y-42299048D01*
X88400000Y-42394286D01*
X88447619Y-42441905D01*
X88542857Y-42489524D01*
X88780952Y-42489524D01*
X88876190Y-42441905D01*
X88923810Y-42394286D01*
X88971429Y-42299048D01*
X88971429Y-42108571D01*
X88923810Y-42013333D01*
X88876190Y-41965714D01*
X88780952Y-41918095D01*
X174045714Y-56332381D02*
X174045714Y-55332381D01*
X174426667Y-55332381D01*
X174521905Y-55380000D01*
X174569524Y-55427619D01*
X174617143Y-55522857D01*
X174617143Y-55665714D01*
X174569524Y-55760952D01*
X174521905Y-55808571D01*
X174426667Y-55856190D01*
X174045714Y-55856190D01*
X175474286Y-55665714D02*
X175474286Y-56332381D01*
X175236190Y-55284762D02*
X174998095Y-55999048D01*
X175617143Y-55999048D01*
X176045714Y-56332381D02*
X176236190Y-56332381D01*
X176331429Y-56284762D01*
X176379048Y-56237143D01*
X176474286Y-56094286D01*
X176521905Y-55903810D01*
X176521905Y-55522857D01*
X176474286Y-55427619D01*
X176426667Y-55380000D01*
X176331429Y-55332381D01*
X176140952Y-55332381D01*
X176045714Y-55380000D01*
X175998095Y-55427619D01*
X175950476Y-55522857D01*
X175950476Y-55760952D01*
X175998095Y-55856190D01*
X176045714Y-55903810D01*
X176140952Y-55951429D01*
X176331429Y-55951429D01*
X176426667Y-55903810D01*
X176474286Y-55856190D01*
X176521905Y-55760952D01*
X171505714Y-63952381D02*
X171505714Y-62952381D01*
X171886667Y-62952381D01*
X171981905Y-63000000D01*
X172029524Y-63047619D01*
X172077143Y-63142857D01*
X172077143Y-63285714D01*
X172029524Y-63380952D01*
X171981905Y-63428571D01*
X171886667Y-63476190D01*
X171505714Y-63476190D01*
X172934286Y-63285714D02*
X172934286Y-63952381D01*
X172696190Y-62904762D02*
X172458095Y-63619048D01*
X173077143Y-63619048D01*
X173600952Y-63380952D02*
X173505714Y-63333333D01*
X173458095Y-63285714D01*
X173410476Y-63190476D01*
X173410476Y-63142857D01*
X173458095Y-63047619D01*
X173505714Y-63000000D01*
X173600952Y-62952381D01*
X173791429Y-62952381D01*
X173886667Y-63000000D01*
X173934286Y-63047619D01*
X173981905Y-63142857D01*
X173981905Y-63190476D01*
X173934286Y-63285714D01*
X173886667Y-63333333D01*
X173791429Y-63380952D01*
X173600952Y-63380952D01*
X173505714Y-63428571D01*
X173458095Y-63476190D01*
X173410476Y-63571429D01*
X173410476Y-63761905D01*
X173458095Y-63857143D01*
X173505714Y-63904762D01*
X173600952Y-63952381D01*
X173791429Y-63952381D01*
X173886667Y-63904762D01*
X173934286Y-63857143D01*
X173981905Y-63761905D01*
X173981905Y-63571429D01*
X173934286Y-63476190D01*
X173886667Y-63428571D01*
X173791429Y-63380952D01*
X171505714Y-66492381D02*
X171505714Y-65492381D01*
X171886667Y-65492381D01*
X171981905Y-65540000D01*
X172029524Y-65587619D01*
X172077143Y-65682857D01*
X172077143Y-65825714D01*
X172029524Y-65920952D01*
X171981905Y-65968571D01*
X171886667Y-66016190D01*
X171505714Y-66016190D01*
X172934286Y-65825714D02*
X172934286Y-66492381D01*
X172696190Y-65444762D02*
X172458095Y-66159048D01*
X173077143Y-66159048D01*
X173362857Y-65492381D02*
X174029524Y-65492381D01*
X173600952Y-66492381D01*
X171505714Y-69032381D02*
X171505714Y-68032381D01*
X171886667Y-68032381D01*
X171981905Y-68080000D01*
X172029524Y-68127619D01*
X172077143Y-68222857D01*
X172077143Y-68365714D01*
X172029524Y-68460952D01*
X171981905Y-68508571D01*
X171886667Y-68556190D01*
X171505714Y-68556190D01*
X172934286Y-68365714D02*
X172934286Y-69032381D01*
X172696190Y-67984762D02*
X172458095Y-68699048D01*
X173077143Y-68699048D01*
X173886667Y-68032381D02*
X173696190Y-68032381D01*
X173600952Y-68080000D01*
X173553333Y-68127619D01*
X173458095Y-68270476D01*
X173410476Y-68460952D01*
X173410476Y-68841905D01*
X173458095Y-68937143D01*
X173505714Y-68984762D01*
X173600952Y-69032381D01*
X173791429Y-69032381D01*
X173886667Y-68984762D01*
X173934286Y-68937143D01*
X173981905Y-68841905D01*
X173981905Y-68603810D01*
X173934286Y-68508571D01*
X173886667Y-68460952D01*
X173791429Y-68413333D01*
X173600952Y-68413333D01*
X173505714Y-68460952D01*
X173458095Y-68508571D01*
X173410476Y-68603810D01*
X110799714Y-63952381D02*
X110799714Y-62952381D01*
X111180667Y-62952381D01*
X111275905Y-63000000D01*
X111323524Y-63047619D01*
X111371143Y-63142857D01*
X111371143Y-63285714D01*
X111323524Y-63380952D01*
X111275905Y-63428571D01*
X111180667Y-63476190D01*
X110799714Y-63476190D01*
X111704476Y-62952381D02*
X112323524Y-62952381D01*
X111990190Y-63333333D01*
X112133048Y-63333333D01*
X112228286Y-63380952D01*
X112275905Y-63428571D01*
X112323524Y-63523810D01*
X112323524Y-63761905D01*
X112275905Y-63857143D01*
X112228286Y-63904762D01*
X112133048Y-63952381D01*
X111847333Y-63952381D01*
X111752095Y-63904762D01*
X111704476Y-63857143D01*
X112894952Y-63380952D02*
X112799714Y-63333333D01*
X112752095Y-63285714D01*
X112704476Y-63190476D01*
X112704476Y-63142857D01*
X112752095Y-63047619D01*
X112799714Y-63000000D01*
X112894952Y-62952381D01*
X113085429Y-62952381D01*
X113180667Y-63000000D01*
X113228286Y-63047619D01*
X113275905Y-63142857D01*
X113275905Y-63190476D01*
X113228286Y-63285714D01*
X113180667Y-63333333D01*
X113085429Y-63380952D01*
X112894952Y-63380952D01*
X112799714Y-63428571D01*
X112752095Y-63476190D01*
X112704476Y-63571429D01*
X112704476Y-63761905D01*
X112752095Y-63857143D01*
X112799714Y-63904762D01*
X112894952Y-63952381D01*
X113085429Y-63952381D01*
X113180667Y-63904762D01*
X113228286Y-63857143D01*
X113275905Y-63761905D01*
X113275905Y-63571429D01*
X113228286Y-63476190D01*
X113180667Y-63428571D01*
X113085429Y-63380952D01*
X166425714Y-58872381D02*
X166425714Y-57872381D01*
X166806667Y-57872381D01*
X166901905Y-57920000D01*
X166949524Y-57967619D01*
X166997143Y-58062857D01*
X166997143Y-58205714D01*
X166949524Y-58300952D01*
X166901905Y-58348571D01*
X166806667Y-58396190D01*
X166425714Y-58396190D01*
X167901905Y-57872381D02*
X167425714Y-57872381D01*
X167378095Y-58348571D01*
X167425714Y-58300952D01*
X167520952Y-58253333D01*
X167759048Y-58253333D01*
X167854286Y-58300952D01*
X167901905Y-58348571D01*
X167949524Y-58443810D01*
X167949524Y-58681905D01*
X167901905Y-58777143D01*
X167854286Y-58824762D01*
X167759048Y-58872381D01*
X167520952Y-58872381D01*
X167425714Y-58824762D01*
X167378095Y-58777143D01*
X168568571Y-57872381D02*
X168663810Y-57872381D01*
X168759048Y-57920000D01*
X168806667Y-57967619D01*
X168854286Y-58062857D01*
X168901905Y-58253333D01*
X168901905Y-58491429D01*
X168854286Y-58681905D01*
X168806667Y-58777143D01*
X168759048Y-58824762D01*
X168663810Y-58872381D01*
X168568571Y-58872381D01*
X168473333Y-58824762D01*
X168425714Y-58777143D01*
X168378095Y-58681905D01*
X168330476Y-58491429D01*
X168330476Y-58253333D01*
X168378095Y-58062857D01*
X168425714Y-57967619D01*
X168473333Y-57920000D01*
X168568571Y-57872381D01*
%LPC*%
D13*
X190500000Y-22860000D03*
X165100000Y-22860000D03*
X78740000Y-22860000D03*
X53340000Y-22860000D03*
X53340000Y-93980000D03*
X78740000Y-93980000D03*
X190500000Y-93980000D03*
X165100000Y-93980000D03*
X53340000Y-68580000D03*
X53340000Y-48260000D03*
X190500000Y-48260000D03*
X190500000Y-68580000D03*
X180340000Y-85090000D03*
X132080000Y-83820000D03*
X175260000Y-33020000D03*
X147320000Y-33020000D03*
X68580000Y-33020000D03*
X68580000Y-85090000D03*
D14*
X68580000Y-38100000D03*
X68580000Y-78740000D03*
X68580000Y-73660000D03*
X68580000Y-68580000D03*
X68580000Y-40640000D03*
X68580000Y-45720000D03*
X68580000Y-50800000D03*
X68580000Y-55880000D03*
X68580000Y-60960000D03*
X68580000Y-66040000D03*
X68580000Y-58420000D03*
X68580000Y-53340000D03*
X68580000Y-48260000D03*
X68580000Y-43180000D03*
X68580000Y-63500000D03*
X68580000Y-76200000D03*
X68580000Y-71120000D03*
X86360000Y-40640000D03*
X96520000Y-40640000D03*
X104140000Y-58420000D03*
X106680000Y-40640000D03*
X106680000Y-38100000D03*
X93980000Y-40640000D03*
X91440000Y-40640000D03*
X109220000Y-53340000D03*
X114300000Y-50800000D03*
X109220000Y-50800000D03*
X104140000Y-63500000D03*
X106680000Y-60960000D03*
X101600000Y-66040000D03*
X144780000Y-48260000D03*
X152400000Y-53340000D03*
X160020000Y-45720000D03*
X149860000Y-66040000D03*
X157480000Y-53340000D03*
X149860000Y-60960000D03*
X162560000Y-66040000D03*
X111760000Y-60960000D03*
X154940000Y-40640000D03*
X127000000Y-38100000D03*
X152400000Y-40640000D03*
X152400000Y-48260000D03*
X162560000Y-63500000D03*
X88900000Y-40640000D03*
X175260000Y-58420000D03*
X175260000Y-63500000D03*
X175260000Y-66040000D03*
X175260000Y-68580000D03*
X109220000Y-63500000D03*
X170180000Y-58420000D03*
M02*
