M48
INCH,TZ
T1C0.025
T2C0.039
T3C0.040
T4C0.047
%
G90
G05
T1
X031750Y-010500
X031750Y-012500
X032200Y-014500
X032200Y-017000
X032250Y-011750
X032250Y-013500
X032300Y-020500
X032300Y-026500
X032300Y-030500
X033000Y-008250
X033000Y-010500
X033000Y-011250
X033000Y-015000
X033250Y-030500
X033291Y-022496
X033300Y-026500
X033300Y-028500
X033300Y-032500
X033350Y-018500
X033350Y-020500
X033469Y-033618
X033750Y-010750
X033750Y-012250
X033768Y-016602
X034000Y-013750
X034000Y-034000
X034087Y-019142
X034323Y-021043
X034327Y-020252
X034350Y-019750
X034450Y-032500
X034500Y-017550
X034500Y-027500
X034500Y-029500
X034750Y-023000
X034945Y-023390
X035043Y-024689
X035250Y-012500
X035250Y-018250
X035250Y-026250
X035250Y-028000
X035378Y-024059
X035559Y-023437
X035890Y-022382
X036157Y-016957
X036500Y-009250
X036559Y-027713
X036587Y-024571
X036750Y-027250
X036878Y-018252
X037000Y-008250
X037000Y-014750
X037000Y-021250
X037000Y-022409
X037000Y-025250
X037250Y-017000
X037250Y-020250
X037250Y-025750
X037250Y-029000
X037311Y-027252
X037437Y-020783
X037472Y-022150
X037488Y-024248
X037500Y-012740
X037571Y-023425
X037575Y-019256
X037750Y-010750
X037750Y-012250
X037776Y-022500
X038000Y-017750
X038250Y-029000
X038276Y-023260
X038402Y-014327
X038484Y-022846
X038500Y-024250
X038750Y-009750
X038750Y-021250
X038750Y-027750
X038750Y-031000
X038750Y-036500
X038858Y-024650
X039087Y-014323
X039185Y-024059
X039250Y-015000
X039250Y-021000
X039250Y-025500
X039250Y-026250
X039500Y-023250
X039500Y-024500
X039563Y-026748
X039750Y-016000
X039750Y-017000
X039957Y-020984
X040000Y-028000
X040028Y-027240
X040248Y-022846
X040638Y-020457
X040750Y-017750
X040750Y-019000
X040750Y-021750
X041000Y-024102
X041250Y-019500
X041250Y-027500
X041488Y-021752
X041750Y-010750
X041750Y-012250
X042000Y-025500
X042150Y-017189
X043000Y-017500
X043000Y-028000
X043004Y-015449
X043004Y-023819
X043250Y-032750
X043500Y-027750
X043750Y-029500
X043750Y-036750
X043750Y-038500
X044000Y-023250
X044500Y-013500
X044500Y-016000
X044750Y-031000
X045000Y-023000
X045750Y-013500
X045902Y-018591
X046250Y-010250
X046250Y-022250
X046559Y-018571
X046579Y-016512
X046579Y-017882
X046689Y-013500
X047750Y-008750
X047921Y-018039
X048250Y-010750
X048250Y-021750
X048614Y-018039
X048750Y-023000
X048976Y-017311
X049000Y-020750
X049370Y-018039
X049500Y-008000
X049882Y-017441
X049902Y-016500
X050250Y-018750
X050250Y-021250
X050996Y-036299
X051250Y-025000
X051661Y-012799
X051750Y-008750
X051750Y-010250
X052028Y-021799
X052750Y-029750
X052807Y-022280
X052823Y-013642
X052835Y-019992
X052839Y-018339
X052858Y-012878
X053012Y-025114
X053250Y-010370
X053250Y-022750
X053250Y-024000
X053476Y-029370
X053500Y-028250
X053750Y-009250
X053750Y-026000
X053783Y-021882
X053799Y-018098
X053941Y-019059
X054039Y-021252
X054071Y-014094
X054079Y-014846
X054079Y-016819
X054181Y-012917
X054250Y-026500
X054307Y-017465
X054433Y-013657
X054480Y-021201
X054500Y-020591
X054630Y-018319
X054732Y-022370
X054750Y-024500
X054750Y-025500
X054827Y-019020
X054839Y-030232
X054850Y-029378
X055250Y-011564
X055528Y-036280
X055618Y-013657
X055634Y-018319
X055638Y-020874
X055642Y-019976
X056000Y-010750
X056000Y-022750
X056250Y-024000
X056250Y-028500
X056500Y-011250
X056500Y-022250
X056614Y-012220
X056701Y-018201
X056750Y-014000
X056750Y-023750
X056750Y-029000
X056756Y-022827
X057500Y-025079
X057512Y-024118
X058189Y-015567
X058201Y-016819
X058240Y-023799
X058250Y-020750
X058250Y-027500
X058996Y-022496
X059000Y-016000
X059000Y-019000
X059000Y-028500
X059055Y-020339
X059283Y-029008
X059339Y-024819
X059370Y-027402
X059591Y-023610
X059750Y-033000
X059750Y-034500
X059756Y-025839
X059843Y-026504
X059984Y-025217
X060390Y-022307
X060390Y-036764
X060750Y-021500
X060913Y-028728
X060929Y-025161
X061000Y-030250
X061000Y-034500
X061622Y-021803
X061622Y-037028
X061750Y-019750
X062000Y-027000
X062150Y-031280
X062201Y-025161
X062240Y-029331
X062250Y-034500
X062299Y-028713
X062469Y-023579
X062512Y-021488
X062512Y-022539
X062614Y-027657
X063000Y-019000
X063000Y-024500
X063000Y-026000
X063000Y-028000
X063250Y-008250
X063250Y-010750
X063441Y-021488
X063469Y-023579
X063500Y-026500
X063500Y-030750
X064000Y-016500
X064000Y-018000
X064000Y-022500
X064250Y-027500
X065000Y-018500
X065000Y-020250
X065000Y-022480
X065000Y-025000
X065000Y-029250
X065000Y-029750
X065000Y-031750
X065012Y-019366
X065039Y-023839
X065500Y-010750
X065500Y-017250
X065500Y-028250
X065500Y-030250
X065500Y-031250
X066000Y-027000
X067000Y-028750
X067000Y-029750
X067250Y-007850
X067250Y-015500
X067744Y-019366
X067750Y-018500
X067750Y-020250
X068250Y-032250
X068250Y-036250
X069250Y-028750
X070000Y-019750
X070000Y-022500
X070000Y-024000
X070000Y-029250
X070000Y-038000
X070750Y-028750
X070750Y-031750
X071000Y-036250
X072000Y-025000
X072000Y-030750
X072750Y-014500
X073000Y-015500
X073500Y-017000
X073500Y-018000
X090750Y-043500
X090750Y-045500
X091200Y-047500
X091200Y-050000
X091250Y-044750
X091250Y-046500
X091300Y-053500
X091300Y-059500
X091300Y-063500
X092000Y-041250
X092000Y-043500
X092000Y-044250
X092000Y-048000
X092250Y-063500
X092291Y-055496
X092300Y-059500
X092300Y-061500
X092300Y-065500
X092350Y-051500
X092350Y-053500
X092469Y-066618
X092750Y-043750
X092750Y-045250
X092768Y-049602
X093000Y-046750
X093000Y-067000
X093087Y-052142
X093323Y-054043
X093327Y-053252
X093350Y-052750
X093450Y-065500
X093500Y-050550
X093500Y-060500
X093500Y-062500
X093750Y-056000
X093945Y-056390
X094043Y-057689
X094250Y-045500
X094250Y-051250
X094250Y-059250
X094250Y-061000
X094378Y-057059
X094559Y-056437
X094890Y-055382
X095157Y-049957
X095500Y-042250
X095559Y-060713
X095587Y-057571
X095750Y-060250
X095878Y-051252
X096000Y-041250
X096000Y-047750
X096000Y-054250
X096000Y-055409
X096000Y-058250
X096250Y-050000
X096250Y-053250
X096250Y-058750
X096250Y-062000
X096311Y-060252
X096437Y-053783
X096472Y-055150
X096488Y-057248
X096500Y-045740
X096571Y-056425
X096575Y-052256
X096750Y-043750
X096750Y-045250
X096776Y-055500
X097000Y-050750
X097250Y-062000
X097276Y-056260
X097402Y-047327
X097484Y-055846
X097500Y-057250
X097750Y-042750
X097750Y-054250
X097750Y-060750
X097750Y-064000
X097750Y-069500
X097858Y-057650
X098087Y-047323
X098185Y-057059
X098250Y-048000
X098250Y-054000
X098250Y-058500
X098250Y-059250
X098500Y-056250
X098500Y-057500
X098563Y-059748
X098750Y-049000
X098750Y-050000
X098957Y-053984
X099000Y-061000
X099028Y-060240
X099248Y-055846
X099638Y-053457
X099750Y-050750
X099750Y-052000
X099750Y-054750
X100000Y-057102
X100250Y-052500
X100250Y-060500
X100488Y-054752
X100750Y-043750
X100750Y-045250
X101000Y-058500
X101150Y-050189
X102000Y-050500
X102000Y-061000
X102004Y-048449
X102004Y-056819
X102250Y-065750
X102500Y-060750
X102750Y-062500
X102750Y-069750
X102750Y-071500
X103000Y-056250
X103500Y-046500
X103500Y-049000
X103750Y-064000
X104000Y-056000
X104750Y-046500
X104902Y-051591
X105250Y-043250
X105250Y-055250
X105559Y-051571
X105579Y-049512
X105579Y-050882
X105689Y-046500
X106750Y-041750
X106921Y-051039
X107250Y-043750
X107250Y-054750
X107614Y-051039
X107750Y-056000
X107976Y-050311
X108000Y-053750
X108370Y-051039
X108500Y-041000
X108882Y-050441
X108902Y-049500
X109250Y-051750
X109250Y-054250
X109996Y-069299
X110250Y-058000
X110661Y-045799
X110750Y-041750
X110750Y-043250
X111028Y-054799
X111750Y-062750
X111807Y-055280
X111823Y-046642
X111835Y-052992
X111839Y-051339
X111858Y-045878
X112012Y-058114
X112250Y-043370
X112250Y-055750
X112250Y-057000
X112476Y-062370
X112500Y-061250
X112750Y-042250
X112750Y-059000
X112783Y-054882
X112799Y-051098
X112941Y-052059
X113039Y-054252
X113071Y-047094
X113079Y-047846
X113079Y-049819
X113181Y-045917
X113250Y-059500
X113307Y-050465
X113433Y-046657
X113480Y-054201
X113500Y-053591
X113630Y-051319
X113732Y-055370
X113750Y-057500
X113750Y-058500
X113827Y-052020
X113839Y-063232
X113850Y-062378
X114250Y-044564
X114528Y-069280
X114618Y-046657
X114634Y-051319
X114638Y-053874
X114642Y-052976
X115000Y-043750
X115000Y-055750
X115250Y-057000
X115250Y-061500
X115500Y-044250
X115500Y-055250
X115614Y-045220
X115701Y-051201
X115750Y-047000
X115750Y-056750
X115750Y-062000
X115756Y-055827
X116500Y-058079
X116512Y-057118
X117189Y-048567
X117201Y-049819
X117240Y-056799
X117250Y-053750
X117250Y-060500
X117996Y-055496
X118000Y-049000
X118000Y-052000
X118000Y-061500
X118055Y-053339
X118283Y-062008
X118339Y-057819
X118370Y-060402
X118591Y-056610
X118750Y-066000
X118750Y-067500
X118756Y-058839
X118843Y-059504
X118984Y-058217
X119390Y-055307
X119390Y-069764
X119750Y-054500
X119913Y-061728
X119929Y-058161
X120000Y-063250
X120000Y-067500
X120622Y-054803
X120622Y-070028
X120750Y-052750
X121000Y-060000
X121150Y-064280
X121201Y-058161
X121240Y-062331
X121250Y-067500
X121299Y-061713
X121469Y-056579
X121512Y-054488
X121512Y-055539
X121614Y-060657
X122000Y-052000
X122000Y-057500
X122000Y-059000
X122000Y-061000
X122250Y-041250
X122250Y-043750
X122441Y-054488
X122469Y-056579
X122500Y-059500
X122500Y-063750
X123000Y-049500
X123000Y-051000
X123000Y-055500
X123250Y-060500
X124000Y-051500
X124000Y-053250
X124000Y-055480
X124000Y-058000
X124000Y-062250
X124000Y-062750
X124000Y-064750
X124012Y-052366
X124039Y-056839
X124500Y-043750
X124500Y-050250
X124500Y-061250
X124500Y-063250
X124500Y-064250
X125000Y-060000
X126000Y-061750
X126000Y-062750
X126250Y-040850
X126250Y-048500
X126744Y-052366
X126750Y-051500
X126750Y-053250
X127250Y-065250
X127250Y-069250
X128250Y-061750
X129000Y-052750
X129000Y-055500
X129000Y-057000
X129000Y-062250
X129000Y-071000
X129750Y-061750
X129750Y-064750
X130000Y-069250
X131000Y-058000
X131000Y-063750
X131750Y-047500
X132000Y-048500
X132500Y-050000
X132500Y-051000
T2
X052000Y-014000
X052000Y-015000
X052000Y-016000
X052000Y-017000
X052000Y-018000
X052000Y-019000
X052000Y-020000
X052000Y-021000
X052000Y-022600
X052000Y-023600
X052000Y-024600
X052000Y-025600
X052000Y-026600
X052000Y-027600
X052000Y-028600
X052000Y-029600
X052000Y-030600
X052000Y-031600
X060000Y-012950
X060000Y-013950
X061000Y-012950
X061000Y-013950
X062000Y-012950
X062000Y-013950
X071000Y-014000
X071000Y-015000
X071000Y-016000
X071000Y-017000
X071000Y-018000
X071000Y-019000
X071000Y-021000
X071000Y-022000
X071000Y-023000
X071000Y-024000
X071000Y-025000
X071000Y-026000
X071000Y-027000
X071000Y-028000
X111000Y-047000
X111000Y-048000
X111000Y-049000
X111000Y-050000
X111000Y-051000
X111000Y-052000
X111000Y-053000
X111000Y-054000
X111000Y-055600
X111000Y-056600
X111000Y-057600
X111000Y-058600
X111000Y-059600
X111000Y-060600
X111000Y-061600
X111000Y-062600
X111000Y-063600
X111000Y-064600
X119000Y-045950
X119000Y-046950
X120000Y-045950
X120000Y-046950
X121000Y-045950
X121000Y-046950
X130000Y-047000
X130000Y-048000
X130000Y-049000
X130000Y-050000
X130000Y-051000
X130000Y-052000
X130000Y-054000
X130000Y-055000
X130000Y-056000
X130000Y-057000
X130000Y-058000
X130000Y-059000
X130000Y-060000
X130000Y-061000
T3
X030000Y-012000
X030000Y-013000
X030000Y-014000
X030000Y-015000
X030000Y-016000
X030000Y-017000
X030000Y-018000
X030000Y-019000
X030000Y-020000
X030000Y-021000
X030000Y-022000
X030000Y-023000
X030000Y-024000
X030000Y-025000
X030000Y-026000
X030000Y-027000
X030000Y-028000
X030000Y-029000
X030000Y-030000
X030000Y-031000
X031000Y-012000
X031000Y-013000
X031000Y-014000
X031000Y-015000
X031000Y-016000
X031000Y-017000
X031000Y-018000
X031000Y-019000
X031000Y-020000
X031000Y-021000
X031000Y-022000
X031000Y-023000
X031000Y-024000
X031000Y-025000
X031000Y-026000
X031000Y-027000
X031000Y-028000
X031000Y-029000
X031000Y-030000
X031000Y-031000
X042750Y-034000
X042750Y-035000
X043750Y-034000
X043750Y-035000
X044750Y-034000
X044750Y-035000
X089000Y-045000
X089000Y-046000
X089000Y-047000
X089000Y-048000
X089000Y-049000
X089000Y-050000
X089000Y-051000
X089000Y-052000
X089000Y-053000
X089000Y-054000
X089000Y-055000
X089000Y-056000
X089000Y-057000
X089000Y-058000
X089000Y-059000
X089000Y-060000
X089000Y-061000
X089000Y-062000
X089000Y-063000
X089000Y-064000
X090000Y-045000
X090000Y-046000
X090000Y-047000
X090000Y-048000
X090000Y-049000
X090000Y-050000
X090000Y-051000
X090000Y-052000
X090000Y-053000
X090000Y-054000
X090000Y-055000
X090000Y-056000
X090000Y-057000
X090000Y-058000
X090000Y-059000
X090000Y-060000
X090000Y-061000
X090000Y-062000
X090000Y-063000
X090000Y-064000
X101750Y-067000
X101750Y-068000
X102750Y-067000
X102750Y-068000
X103750Y-067000
X103750Y-068000
T4
X027000Y-015000
X027000Y-016000
X027000Y-017000
X027000Y-018000
X027000Y-019000
X027000Y-020000
X027000Y-021000
X027000Y-022000
X027000Y-023000
X027000Y-024000
X027000Y-025000
X027000Y-026000
X027000Y-027000
X027000Y-028000
X027000Y-029000
X027000Y-030000
X027000Y-031000
X034000Y-016000
X035000Y-016000
X036000Y-016000
X037000Y-016000
X038000Y-016000
X040000Y-026000
X041000Y-023000
X041000Y-025000
X042000Y-015000
X042000Y-016000
X042000Y-024000
X043000Y-020000
X043000Y-021000
X043000Y-025000
X044000Y-024000
X045000Y-020000
X050000Y-015000
X057000Y-019000
X059000Y-024000
X059000Y-026000
X060000Y-016000
X060000Y-019000
X060000Y-021000
X061000Y-016000
X062000Y-021000
X063000Y-018000
X064000Y-025000
X064000Y-026000
X067000Y-023000
X069000Y-023000
X069000Y-025000
X069000Y-026000
X069000Y-027000
X086000Y-048000
X086000Y-049000
X086000Y-050000
X086000Y-051000
X086000Y-052000
X086000Y-053000
X086000Y-054000
X086000Y-055000
X086000Y-056000
X086000Y-057000
X086000Y-058000
X086000Y-059000
X086000Y-060000
X086000Y-061000
X086000Y-062000
X086000Y-063000
X086000Y-064000
X093000Y-049000
X094000Y-049000
X095000Y-049000
X096000Y-049000
X097000Y-049000
X099000Y-059000
X100000Y-056000
X100000Y-058000
X101000Y-048000
X101000Y-049000
X101000Y-057000
X102000Y-053000
X102000Y-054000
X102000Y-058000
X103000Y-057000
X104000Y-053000
X109000Y-048000
X116000Y-052000
X118000Y-057000
X118000Y-059000
X119000Y-049000
X119000Y-052000
X119000Y-054000
X120000Y-049000
X121000Y-054000
X122000Y-051000
X123000Y-058000
X123000Y-059000
X126000Y-056000
X128000Y-056000
X128000Y-058000
X128000Y-059000
X128000Y-060000
T0
M30
