M48
INCH,TZ
T1C0.125
T2C0.149
%
G90
G05
T1
X027000Y-013000
X027000Y-033500
X052000Y-033000
X058000Y-013000
X069000Y-013000
X071000Y-033500
X086000Y-046000
X086000Y-066500
X111000Y-066000
X117000Y-046000
X128000Y-046000
X130000Y-066500
T2
X021000Y-009000
X021000Y-019000
X021000Y-027000
X021000Y-037000
X021000Y-042000
X021000Y-052000
X021000Y-060000
X021000Y-070000
X031000Y-009000
X031000Y-037000
X031000Y-042000
X031000Y-070000
X065000Y-009000
X065000Y-037000
X065000Y-042000
X065000Y-070000
X075000Y-009000
X075000Y-019000
X075000Y-027000
X075000Y-037000
X075000Y-042000
X075000Y-052000
X075000Y-060000
X075000Y-070000
X080000Y-009000
X080000Y-019000
X080000Y-027000
X080000Y-037000
X080000Y-042000
X080000Y-052000
X080000Y-060000
X080000Y-070000
X085750Y-014450
X085750Y-021250
X085750Y-028000
X090000Y-009000
X090000Y-037000
X090000Y-042000
X090000Y-070000
X090300Y-014450
X090300Y-021250
X090300Y-028000
X124000Y-009000
X124000Y-037000
X124000Y-042000
X124000Y-070000
X134000Y-009000
X134000Y-019000
X134000Y-027000
X134000Y-037000
X134000Y-042000
X134000Y-052000
X134000Y-060000
X134000Y-070000
T0
M30
