M48
;DRILL file {KiCad 4.0.2+e4-6225~38~ubuntu14.04.1-stable} date Sat Jul 23 15:41:57 2016
;FORMAT={-:-/ absolute / inch / decimal}
FMAT,2
INCH,TZ
T1C0.059
T2C0.125
T3C0.149
%
G90
G05
M72
T1
X2.7Y-1.5
X2.7Y-1.6
X2.7Y-1.7
X2.7Y-1.8
X2.7Y-1.9
X2.7Y-2.
X2.7Y-2.1
X2.7Y-2.2
X2.7Y-2.3
X2.7Y-2.4
X2.7Y-2.5
X2.7Y-2.6
X2.7Y-2.7
X2.7Y-2.8
X2.7Y-2.9
X2.7Y-3.
X2.7Y-3.1
X3.4Y-1.6
X3.5Y-1.6
X3.6Y-1.6
X3.7Y-1.6
X3.8Y-1.6
X4.Y-2.6
X4.1Y-2.3
X4.1Y-2.5
X4.2Y-1.5
X4.2Y-1.6
X4.2Y-2.4
X4.3Y-2.
X4.3Y-2.1
X4.3Y-2.5
X4.4Y-2.4
X4.5Y-2.
X5.Y-1.5
X5.7Y-1.9
X5.9Y-2.4
X5.9Y-2.6
X6.Y-1.6
X6.Y-1.9
X6.Y-2.1
X6.1Y-1.6
X6.2Y-2.1
X6.3Y-1.8
X6.4Y-2.5
X6.4Y-2.6
X6.7Y-2.3
X6.9Y-2.3
X6.9Y-2.5
X6.9Y-2.6
X6.9Y-2.7
T2
X2.7Y-1.3
X2.7Y-3.35
X5.2Y-3.3
X5.8Y-1.3
X6.9Y-1.3
X7.1Y-3.35
T3
X2.1Y-0.9
X2.1Y-1.9
X2.1Y-2.7
X2.1Y-3.7
X3.1Y-0.9
X3.1Y-3.7
X6.5Y-0.9
X6.5Y-3.7
X7.5Y-0.9
X7.5Y-1.9
X7.5Y-2.7
X7.5Y-3.7
T0
M30
