G04 #@! TF.FileFunction,Paste,Top*
%FSLAX46Y46*%
G04 Gerber Fmt 4.6, Leading zero omitted, Abs format (unit mm)*
G04 Created by KiCad (PCBNEW 4.0.2+e4-6225~38~ubuntu14.04.1-stable) date Sat Jun  4 16:02:06 2016*
%MOMM*%
G01*
G04 APERTURE LIST*
%ADD10C,0.150000*%
%ADD11R,1.524000X0.248920*%
%ADD12O,1.524000X0.248920*%
%ADD13O,0.248920X1.524000*%
%ADD14R,1.000760X0.800100*%
%ADD15R,3.657600X2.032000*%
%ADD16R,1.016000X2.032000*%
%ADD17R,1.143000X0.508000*%
%ADD18R,2.999740X1.998980*%
%ADD19R,1.397000X0.889000*%
%ADD20R,0.889000X1.397000*%
%ADD21R,0.635000X1.143000*%
%ADD22R,1.143000X0.635000*%
%ADD23R,0.797560X0.797560*%
%ADD24R,1.270000X3.180000*%
%ADD25R,2.550160X2.700020*%
%ADD26R,2.550160X3.799840*%
G04 APERTURE END LIST*
D10*
D11*
X88110060Y-55940960D03*
D12*
X88110060Y-56441340D03*
X88110060Y-56941720D03*
X88110060Y-57442100D03*
X88110060Y-57942480D03*
X88110060Y-58440320D03*
X88110060Y-58940700D03*
X88110060Y-59441080D03*
X88110060Y-59941460D03*
X88110060Y-60441840D03*
X88110060Y-60942220D03*
X88110060Y-61440060D03*
X88110060Y-61940440D03*
X88110060Y-62440820D03*
X88110060Y-62941200D03*
X88110060Y-63441580D03*
D13*
X90230960Y-65722500D03*
X90731340Y-65722500D03*
X91231720Y-65722500D03*
X91732100Y-65722500D03*
X92232480Y-65722500D03*
X92730320Y-65722500D03*
X93230700Y-65722500D03*
X93731080Y-65722500D03*
X94231460Y-65722500D03*
X94731840Y-65722500D03*
X95232220Y-65722500D03*
X95730060Y-65722500D03*
X96230440Y-65722500D03*
X96730820Y-65722500D03*
X97231200Y-65722500D03*
X97731580Y-65722500D03*
D12*
X100012500Y-63441580D03*
X100012500Y-62941200D03*
X100012500Y-62440820D03*
X100012500Y-61940440D03*
X100012500Y-61440060D03*
X100012500Y-60942220D03*
X100012500Y-60441840D03*
X100012500Y-59941460D03*
X100012500Y-59441080D03*
X100012500Y-58940700D03*
X100012500Y-58440320D03*
X100012500Y-57942480D03*
X100012500Y-57442100D03*
X100012500Y-56941720D03*
X100012500Y-56441340D03*
X100012500Y-55940960D03*
D13*
X97731580Y-53820060D03*
X97231200Y-53820060D03*
X96230440Y-53820060D03*
X96730820Y-53802280D03*
X95730060Y-53820060D03*
X95232220Y-53820060D03*
X94731840Y-53820060D03*
X94231460Y-53820060D03*
X93731080Y-53820060D03*
X93230700Y-53820060D03*
X92737940Y-53820060D03*
X92237560Y-53820060D03*
X91737180Y-53820060D03*
X91236800Y-53820060D03*
X90738960Y-53820060D03*
X90238580Y-53820060D03*
D14*
X103040180Y-67310000D03*
X105239820Y-66357500D03*
X105239820Y-68262500D03*
X82085180Y-80645000D03*
X84284820Y-79692500D03*
X84284820Y-81597500D03*
D15*
X99695000Y-81407000D03*
D16*
X99695000Y-74803000D03*
X97409000Y-74803000D03*
X101981000Y-74803000D03*
D17*
X125095000Y-81280000D03*
X125095000Y-80010000D03*
X125095000Y-78740000D03*
X125095000Y-77470000D03*
X125095000Y-76200000D03*
X125095000Y-74930000D03*
X125095000Y-73660000D03*
X125095000Y-72390000D03*
X114935000Y-72390000D03*
X114935000Y-73660000D03*
X114935000Y-74930000D03*
X114935000Y-76200000D03*
X114935000Y-77470000D03*
X114935000Y-78740000D03*
X114935000Y-80010000D03*
X114935000Y-81280000D03*
X125095000Y-62865000D03*
X125095000Y-61595000D03*
X125095000Y-60325000D03*
X125095000Y-59055000D03*
X125095000Y-57785000D03*
X125095000Y-56515000D03*
X125095000Y-55245000D03*
X125095000Y-53975000D03*
X114935000Y-53975000D03*
X114935000Y-55245000D03*
X114935000Y-56515000D03*
X114935000Y-57785000D03*
X114935000Y-59055000D03*
X114935000Y-60325000D03*
X114935000Y-61595000D03*
X114935000Y-62865000D03*
X158369000Y-70485000D03*
X158369000Y-69215000D03*
X158369000Y-67945000D03*
X158369000Y-66675000D03*
X158369000Y-65405000D03*
X158369000Y-64135000D03*
X158369000Y-62865000D03*
X153035000Y-62865000D03*
X153035000Y-64135000D03*
X153035000Y-65405000D03*
X153035000Y-66675000D03*
X153035000Y-67945000D03*
X153035000Y-69215000D03*
X153035000Y-70485000D03*
X169799000Y-55245000D03*
X169799000Y-53975000D03*
X169799000Y-52705000D03*
X169799000Y-51435000D03*
X169799000Y-50165000D03*
X169799000Y-48895000D03*
X169799000Y-47625000D03*
X164465000Y-47625000D03*
X164465000Y-48895000D03*
X164465000Y-50165000D03*
X164465000Y-51435000D03*
X164465000Y-52705000D03*
X164465000Y-53975000D03*
X164465000Y-55245000D03*
X149479000Y-55245000D03*
X149479000Y-53975000D03*
X149479000Y-52705000D03*
X149479000Y-51435000D03*
X149479000Y-50165000D03*
X149479000Y-48895000D03*
X149479000Y-47625000D03*
X144145000Y-47625000D03*
X144145000Y-48895000D03*
X144145000Y-50165000D03*
X144145000Y-51435000D03*
X144145000Y-52705000D03*
X144145000Y-53975000D03*
X144145000Y-55245000D03*
D18*
X88265000Y-74470260D03*
X88265000Y-80469740D03*
D19*
X137160000Y-79692500D03*
X137160000Y-77787500D03*
X137160000Y-74612500D03*
X137160000Y-72707500D03*
D20*
X141922500Y-79375000D03*
X143827500Y-79375000D03*
D19*
X107950000Y-72707500D03*
X107950000Y-70802500D03*
X108585000Y-81597500D03*
X108585000Y-79692500D03*
X105410000Y-75247500D03*
X105410000Y-77152500D03*
D20*
X173037500Y-73025000D03*
X174942500Y-73025000D03*
X173037500Y-69850000D03*
X174942500Y-69850000D03*
D19*
X107950000Y-66357500D03*
X107950000Y-68262500D03*
X105410000Y-81597500D03*
X105410000Y-79692500D03*
D20*
X101282500Y-42545000D03*
X103187500Y-42545000D03*
D19*
X92710000Y-75247500D03*
X92710000Y-73342500D03*
X100330000Y-69532500D03*
X100330000Y-71437500D03*
D20*
X98742500Y-43180000D03*
X96837500Y-43180000D03*
D19*
X97155000Y-69532500D03*
X97155000Y-71437500D03*
D20*
X87312500Y-42545000D03*
X89217500Y-42545000D03*
X101282500Y-45720000D03*
X103187500Y-45720000D03*
X93662500Y-42545000D03*
X91757500Y-42545000D03*
D19*
X137160000Y-69532500D03*
X137160000Y-67627500D03*
X128270000Y-69532500D03*
X128270000Y-67627500D03*
X114300000Y-66992500D03*
X114300000Y-68897500D03*
X111125000Y-68897500D03*
X111125000Y-66992500D03*
X106680000Y-50482500D03*
X106680000Y-48577500D03*
X103505000Y-50482500D03*
X103505000Y-48577500D03*
D20*
X94297500Y-46355000D03*
X92392500Y-46355000D03*
D21*
X166243000Y-59055000D03*
X167767000Y-59055000D03*
X145923000Y-59055000D03*
X147447000Y-59055000D03*
X79502000Y-81280000D03*
X77978000Y-81280000D03*
X75692000Y-81280000D03*
X74168000Y-81280000D03*
D22*
X111760000Y-77597000D03*
X111760000Y-76073000D03*
X106045000Y-45847000D03*
X106045000Y-44323000D03*
D21*
X154813000Y-74295000D03*
X156337000Y-74295000D03*
D22*
X111760000Y-81407000D03*
X111760000Y-79883000D03*
X111760000Y-73787000D03*
X111760000Y-72263000D03*
X128270000Y-73787000D03*
X128270000Y-72263000D03*
X108585000Y-76962000D03*
X108585000Y-75438000D03*
X128270000Y-81407000D03*
X128270000Y-79883000D03*
D21*
X112522000Y-64135000D03*
X110998000Y-64135000D03*
D22*
X91440000Y-69088000D03*
X91440000Y-70612000D03*
X92710000Y-50292000D03*
X92710000Y-48768000D03*
X93980000Y-70612000D03*
X93980000Y-69088000D03*
X95250000Y-48768000D03*
X95250000Y-50292000D03*
D21*
X87503000Y-45720000D03*
X89027000Y-45720000D03*
D22*
X97790000Y-49022000D03*
X97790000Y-47498000D03*
X90170000Y-50292000D03*
X90170000Y-48768000D03*
D21*
X177292000Y-78740000D03*
X175768000Y-78740000D03*
D22*
X128270000Y-63373000D03*
X128270000Y-64897000D03*
D21*
X110998000Y-50165000D03*
X112522000Y-50165000D03*
D22*
X100965000Y-50292000D03*
X100965000Y-48768000D03*
X88900000Y-69088000D03*
X88900000Y-70612000D03*
X102235000Y-54102000D03*
X102235000Y-52578000D03*
X86360000Y-69088000D03*
X86360000Y-70612000D03*
D21*
X103378000Y-71120000D03*
X104902000Y-71120000D03*
X94107000Y-78105000D03*
X92583000Y-78105000D03*
D23*
X181089300Y-78740000D03*
X179590700Y-78740000D03*
D24*
X111760000Y-44630000D03*
X114300000Y-44630000D03*
X109220000Y-44630000D03*
X111760000Y-39190000D03*
X109220000Y-39190000D03*
X114300000Y-39190000D03*
D21*
X67183000Y-53340000D03*
X68707000Y-53340000D03*
X67183000Y-58420000D03*
X68707000Y-58420000D03*
X67183000Y-55880000D03*
X68707000Y-55880000D03*
X67183000Y-50800000D03*
X68707000Y-50800000D03*
X67183000Y-78740000D03*
X68707000Y-78740000D03*
X67183000Y-76200000D03*
X68707000Y-76200000D03*
X67183000Y-71120000D03*
X68707000Y-71120000D03*
X67183000Y-73660000D03*
X68707000Y-73660000D03*
X67183000Y-45720000D03*
X68707000Y-45720000D03*
X67183000Y-48260000D03*
X68707000Y-48260000D03*
X67183000Y-40640000D03*
X68707000Y-40640000D03*
X67183000Y-43180000D03*
X68707000Y-43180000D03*
X67183000Y-38100000D03*
X68707000Y-38100000D03*
X67183000Y-63500000D03*
X68707000Y-63500000D03*
X67183000Y-60960000D03*
X68707000Y-60960000D03*
X67183000Y-66040000D03*
X68707000Y-66040000D03*
X67183000Y-68580000D03*
X68707000Y-68580000D03*
X78613000Y-58420000D03*
X80137000Y-58420000D03*
X70993000Y-58420000D03*
X72517000Y-58420000D03*
X74803000Y-57150000D03*
X76327000Y-57150000D03*
X74803000Y-54610000D03*
X76327000Y-54610000D03*
X70993000Y-55880000D03*
X72517000Y-55880000D03*
X78613000Y-55880000D03*
X80137000Y-55880000D03*
X78613000Y-50800000D03*
X80137000Y-50800000D03*
X70993000Y-50800000D03*
X72517000Y-50800000D03*
X74803000Y-49530000D03*
X76327000Y-49530000D03*
X74803000Y-41910000D03*
X76327000Y-41910000D03*
X78613000Y-78740000D03*
X80137000Y-78740000D03*
X70993000Y-78740000D03*
X72517000Y-78740000D03*
X74803000Y-77470000D03*
X76327000Y-77470000D03*
X74803000Y-74930000D03*
X76327000Y-74930000D03*
X70993000Y-76200000D03*
X72517000Y-76200000D03*
X78613000Y-76200000D03*
X80137000Y-76200000D03*
X78613000Y-71120000D03*
X80137000Y-71120000D03*
X70993000Y-71120000D03*
X72517000Y-71120000D03*
X74803000Y-69850000D03*
X76327000Y-69850000D03*
X74803000Y-72390000D03*
X76327000Y-72390000D03*
X78613000Y-48260000D03*
X80137000Y-48260000D03*
X70993000Y-48260000D03*
X72517000Y-48260000D03*
X74803000Y-46990000D03*
X76327000Y-46990000D03*
X74803000Y-52070000D03*
X76327000Y-52070000D03*
X74803000Y-44450000D03*
X76327000Y-44450000D03*
X70993000Y-45720000D03*
X72517000Y-45720000D03*
X78613000Y-45720000D03*
X80137000Y-45720000D03*
X78613000Y-40640000D03*
X80137000Y-40640000D03*
X70993000Y-40640000D03*
X72517000Y-40640000D03*
X74803000Y-39370000D03*
X76327000Y-39370000D03*
X70993000Y-38100000D03*
X72517000Y-38100000D03*
X70993000Y-43180000D03*
X72517000Y-43180000D03*
X78613000Y-43180000D03*
X80137000Y-43180000D03*
X78613000Y-53340000D03*
X80137000Y-53340000D03*
X70993000Y-53340000D03*
X72517000Y-53340000D03*
X78613000Y-38100000D03*
X80137000Y-38100000D03*
X74803000Y-36830000D03*
X76327000Y-36830000D03*
X78613000Y-73660000D03*
X80137000Y-73660000D03*
X70993000Y-73660000D03*
X72517000Y-73660000D03*
X70993000Y-63500000D03*
X72517000Y-63500000D03*
X74803000Y-62230000D03*
X76327000Y-62230000D03*
X74803000Y-59690000D03*
X76327000Y-59690000D03*
X70993000Y-60960000D03*
X72517000Y-60960000D03*
X78613000Y-63500000D03*
X80137000Y-63500000D03*
X78613000Y-60960000D03*
X80137000Y-60960000D03*
X78613000Y-66040000D03*
X80137000Y-66040000D03*
X70993000Y-66040000D03*
X72517000Y-66040000D03*
X74803000Y-64770000D03*
X76327000Y-64770000D03*
X74803000Y-67310000D03*
X76327000Y-67310000D03*
X70993000Y-68580000D03*
X72517000Y-68580000D03*
X78613000Y-68580000D03*
X80137000Y-68580000D03*
D25*
X84279740Y-33020000D03*
D26*
X78280260Y-33020000D03*
D21*
X92583000Y-80645000D03*
X94107000Y-80645000D03*
M02*
