G04 (created by PCBNEW (2013-jul-07)-stable) date Sat Oct  3 18:01:44 2015*
%MOIN*%
G04 Gerber Fmt 3.4, Leading zero omitted, Abs format*
%FSLAX34Y34*%
G01*
G70*
G90*
G04 APERTURE LIST*
%ADD10C,0.00590551*%
%ADD11C,0.1495*%
%ADD12R,0.06X0.06*%
%ADD13C,0.06*%
%ADD14C,0.035*%
%ADD15C,0.01*%
G04 APERTURE END LIST*
G54D10*
G54D11*
X27000Y-33500D03*
X27000Y-13000D03*
G54D12*
X41000Y-15000D03*
G54D13*
X40000Y-15000D03*
X39000Y-15000D03*
X38000Y-15000D03*
X37000Y-15000D03*
X36000Y-15000D03*
X35000Y-15000D03*
G54D12*
X25000Y-32000D03*
G54D13*
X25000Y-31000D03*
X25000Y-30000D03*
X25000Y-29000D03*
X25000Y-28000D03*
X25000Y-27000D03*
X25000Y-26000D03*
X25000Y-25000D03*
X25000Y-24000D03*
X25000Y-23000D03*
X25000Y-22000D03*
X25000Y-21000D03*
X25000Y-20000D03*
X25000Y-19000D03*
X25000Y-18000D03*
X25000Y-17000D03*
X25000Y-16000D03*
X25000Y-15000D03*
X71000Y-28000D03*
X71000Y-27000D03*
X71000Y-26000D03*
X71000Y-25000D03*
X71000Y-24000D03*
X71000Y-23000D03*
X71000Y-22000D03*
X71000Y-21000D03*
X71000Y-19000D03*
X71000Y-18000D03*
X71000Y-17000D03*
X71000Y-16000D03*
X71000Y-15000D03*
X71000Y-14000D03*
X60000Y-13950D03*
X61000Y-13950D03*
X62000Y-13950D03*
X62000Y-12950D03*
X61000Y-12950D03*
X60000Y-12950D03*
X52000Y-14000D03*
X52000Y-15000D03*
X52000Y-16000D03*
X52000Y-17000D03*
X52000Y-18000D03*
X52000Y-19000D03*
X52000Y-20000D03*
X52000Y-21000D03*
X52000Y-22600D03*
X52000Y-23600D03*
X52000Y-24600D03*
X52000Y-25600D03*
X52000Y-26600D03*
X52000Y-27600D03*
X52000Y-28600D03*
X52000Y-29600D03*
X52000Y-30600D03*
X52000Y-31600D03*
G54D14*
X39374Y-21559D03*
X39750Y-20250D03*
X38750Y-24500D03*
X41748Y-18543D03*
X43330Y-19342D03*
X40885Y-25968D03*
X41874Y-25192D03*
X43996Y-18988D03*
X44310Y-20356D03*
X43019Y-23389D03*
X56500Y-22500D03*
X58000Y-21000D03*
X44629Y-19129D03*
X44641Y-22720D03*
X42334Y-23062D03*
X42133Y-22366D03*
X41291Y-22035D03*
X40629Y-22228D03*
X40000Y-25000D03*
X41800Y-24400D03*
X57996Y-25750D03*
X40800Y-24200D03*
X56000Y-22000D03*
X58250Y-19750D03*
X43500Y-21000D03*
X34000Y-26500D03*
X36000Y-19750D03*
X37141Y-17559D03*
X44000Y-14500D03*
X34251Y-15023D03*
X63250Y-19250D03*
X63250Y-25250D03*
X54500Y-23000D03*
X54503Y-20996D03*
X59681Y-24889D03*
X43334Y-20334D03*
X66929Y-22440D03*
X66826Y-27240D03*
X59444Y-19318D03*
X57511Y-18649D03*
X50594Y-24208D03*
X50665Y-15015D03*
X50000Y-23000D03*
X50000Y-21250D03*
X63267Y-26425D03*
X53448Y-24220D03*
X64750Y-25750D03*
X35500Y-13000D03*
X35685Y-16744D03*
X40150Y-30228D03*
X40150Y-28728D03*
X40150Y-30881D03*
X37460Y-30271D03*
X40307Y-17370D03*
X31751Y-32031D03*
X56062Y-19748D03*
X56047Y-18129D03*
X61350Y-26759D03*
X61500Y-20250D03*
X61507Y-21834D03*
X29750Y-13000D03*
X38700Y-23950D03*
X39400Y-25400D03*
X45000Y-14500D03*
X43000Y-16500D03*
X43114Y-26704D03*
X43251Y-28236D03*
X44750Y-27750D03*
X44649Y-20930D03*
X37681Y-18637D03*
X36000Y-19200D03*
X28500Y-32000D03*
X29000Y-31000D03*
X29000Y-30000D03*
X29000Y-29000D03*
X29000Y-28000D03*
X29000Y-27000D03*
X29000Y-26000D03*
X29000Y-25000D03*
X29000Y-24000D03*
X29000Y-23000D03*
X29000Y-22000D03*
X29000Y-21000D03*
X29000Y-20000D03*
X29000Y-19000D03*
X29000Y-18000D03*
X29000Y-17000D03*
X29000Y-16000D03*
X29000Y-15000D03*
X32000Y-16000D03*
X32000Y-31000D03*
X32000Y-30000D03*
X32000Y-29000D03*
X32000Y-28000D03*
X32000Y-27000D03*
X32000Y-26000D03*
X32000Y-25000D03*
X32000Y-15000D03*
X32000Y-17000D03*
X32000Y-18000D03*
X32000Y-19000D03*
X32000Y-20000D03*
X32000Y-21000D03*
X32000Y-22000D03*
X32000Y-24000D03*
X32000Y-23250D03*
X39303Y-28594D03*
X40122Y-18669D03*
X37681Y-32086D03*
X32535Y-32263D03*
X34748Y-30877D03*
X35842Y-29629D03*
X38051Y-20448D03*
X38866Y-25866D03*
X36003Y-28307D03*
X35000Y-28287D03*
X34000Y-28303D03*
X37007Y-28322D03*
X36704Y-25090D03*
X38618Y-17889D03*
X36716Y-20397D03*
X43700Y-24610D03*
X44539Y-31090D03*
X39173Y-19594D03*
X39173Y-20816D03*
X53279Y-30641D03*
X50535Y-30889D03*
X68633Y-31011D03*
X61750Y-24750D03*
X61500Y-28750D03*
X58000Y-22750D03*
X66000Y-22750D03*
X66250Y-18750D03*
X58250Y-18750D03*
X49543Y-20535D03*
X50535Y-26098D03*
X69500Y-28750D03*
X43413Y-32106D03*
X43385Y-29015D03*
X54750Y-26600D03*
X60500Y-29250D03*
X65000Y-23250D03*
X57000Y-23250D03*
X68250Y-29500D03*
G54D10*
G36*
X37450Y-17979D02*
X36700Y-18729D01*
X36700Y-20072D01*
X36652Y-20072D01*
X36532Y-20121D01*
X36441Y-20213D01*
X36391Y-20332D01*
X36391Y-20462D01*
X36440Y-20581D01*
X36532Y-20672D01*
X36651Y-20722D01*
X36700Y-20722D01*
X36700Y-24765D01*
X36640Y-24765D01*
X36520Y-24814D01*
X36429Y-24906D01*
X36379Y-25025D01*
X36379Y-25154D01*
X36429Y-25274D01*
X36520Y-25365D01*
X36639Y-25415D01*
X36700Y-25415D01*
X36700Y-28216D01*
X36682Y-28257D01*
X36682Y-28387D01*
X36700Y-28428D01*
X36700Y-30200D01*
X36328Y-30200D01*
X36328Y-28242D01*
X36325Y-28233D01*
X36325Y-19136D01*
X36275Y-19016D01*
X36184Y-18925D01*
X36064Y-18875D01*
X35935Y-18875D01*
X35816Y-18925D01*
X35724Y-19016D01*
X35675Y-19135D01*
X35674Y-19265D01*
X35724Y-19384D01*
X35815Y-19476D01*
X35935Y-19525D01*
X36064Y-19525D01*
X36183Y-19476D01*
X36275Y-19385D01*
X36324Y-19265D01*
X36325Y-19136D01*
X36325Y-28233D01*
X36279Y-28123D01*
X36188Y-28031D01*
X36068Y-27982D01*
X35939Y-27982D01*
X35820Y-28031D01*
X35728Y-28122D01*
X35678Y-28242D01*
X35678Y-28371D01*
X35728Y-28490D01*
X35819Y-28582D01*
X35939Y-28632D01*
X36068Y-28632D01*
X36187Y-28582D01*
X36279Y-28491D01*
X36328Y-28372D01*
X36328Y-28242D01*
X36328Y-30200D01*
X36167Y-30200D01*
X36167Y-29565D01*
X36118Y-29446D01*
X36026Y-29354D01*
X35907Y-29304D01*
X35778Y-29304D01*
X35658Y-29354D01*
X35567Y-29445D01*
X35517Y-29564D01*
X35517Y-29694D01*
X35566Y-29813D01*
X35658Y-29905D01*
X35777Y-29954D01*
X35906Y-29954D01*
X36026Y-29905D01*
X36117Y-29814D01*
X36167Y-29694D01*
X36167Y-29565D01*
X36167Y-30200D01*
X35700Y-30200D01*
X35700Y-31200D01*
X35325Y-31200D01*
X35325Y-28223D01*
X35275Y-28103D01*
X35184Y-28012D01*
X35064Y-27962D01*
X34935Y-27962D01*
X34816Y-28011D01*
X34724Y-28103D01*
X34675Y-28222D01*
X34674Y-28351D01*
X34724Y-28471D01*
X34815Y-28562D01*
X34935Y-28612D01*
X35064Y-28612D01*
X35183Y-28563D01*
X35275Y-28471D01*
X35324Y-28352D01*
X35325Y-28223D01*
X35325Y-31200D01*
X34819Y-31200D01*
X34931Y-31153D01*
X35023Y-31062D01*
X35072Y-30942D01*
X35073Y-30813D01*
X35023Y-30694D01*
X34932Y-30602D01*
X34812Y-30553D01*
X34683Y-30552D01*
X34564Y-30602D01*
X34472Y-30693D01*
X34423Y-30813D01*
X34422Y-30942D01*
X34472Y-31061D01*
X34563Y-31153D01*
X34676Y-31200D01*
X34325Y-31200D01*
X34325Y-28238D01*
X34275Y-28119D01*
X34184Y-28027D01*
X34064Y-27978D01*
X33935Y-27978D01*
X33816Y-28027D01*
X33724Y-28118D01*
X33675Y-28238D01*
X33674Y-28367D01*
X33724Y-28487D01*
X33815Y-28578D01*
X33935Y-28628D01*
X34064Y-28628D01*
X34183Y-28578D01*
X34275Y-28487D01*
X34324Y-28368D01*
X34325Y-28238D01*
X34325Y-31200D01*
X32259Y-31200D01*
X32275Y-31184D01*
X32324Y-31064D01*
X32325Y-30935D01*
X32325Y-29935D01*
X32325Y-28935D01*
X32325Y-27935D01*
X32325Y-26935D01*
X32325Y-25935D01*
X32325Y-24935D01*
X32325Y-23935D01*
X32325Y-23185D01*
X32325Y-21935D01*
X32325Y-20935D01*
X32325Y-19935D01*
X32325Y-18935D01*
X32325Y-17935D01*
X32325Y-16935D01*
X32325Y-15935D01*
X32325Y-14935D01*
X32275Y-14816D01*
X32184Y-14724D01*
X32064Y-14675D01*
X31935Y-14674D01*
X31816Y-14724D01*
X31724Y-14815D01*
X31675Y-14935D01*
X31674Y-15064D01*
X31724Y-15183D01*
X31815Y-15275D01*
X31935Y-15324D01*
X32064Y-15325D01*
X32183Y-15275D01*
X32275Y-15184D01*
X32324Y-15064D01*
X32325Y-14935D01*
X32325Y-15935D01*
X32275Y-15816D01*
X32184Y-15724D01*
X32064Y-15675D01*
X31935Y-15674D01*
X31816Y-15724D01*
X31724Y-15815D01*
X31675Y-15935D01*
X31674Y-16064D01*
X31724Y-16183D01*
X31815Y-16275D01*
X31935Y-16324D01*
X32064Y-16325D01*
X32183Y-16275D01*
X32275Y-16184D01*
X32324Y-16064D01*
X32325Y-15935D01*
X32325Y-16935D01*
X32275Y-16816D01*
X32184Y-16724D01*
X32064Y-16675D01*
X31935Y-16674D01*
X31816Y-16724D01*
X31724Y-16815D01*
X31675Y-16935D01*
X31674Y-17064D01*
X31724Y-17183D01*
X31815Y-17275D01*
X31935Y-17324D01*
X32064Y-17325D01*
X32183Y-17275D01*
X32275Y-17184D01*
X32324Y-17064D01*
X32325Y-16935D01*
X32325Y-17935D01*
X32275Y-17816D01*
X32184Y-17724D01*
X32064Y-17675D01*
X31935Y-17674D01*
X31816Y-17724D01*
X31724Y-17815D01*
X31675Y-17935D01*
X31674Y-18064D01*
X31724Y-18183D01*
X31815Y-18275D01*
X31935Y-18324D01*
X32064Y-18325D01*
X32183Y-18275D01*
X32275Y-18184D01*
X32324Y-18064D01*
X32325Y-17935D01*
X32325Y-18935D01*
X32275Y-18816D01*
X32184Y-18724D01*
X32064Y-18675D01*
X31935Y-18674D01*
X31816Y-18724D01*
X31724Y-18815D01*
X31675Y-18935D01*
X31674Y-19064D01*
X31724Y-19183D01*
X31815Y-19275D01*
X31935Y-19324D01*
X32064Y-19325D01*
X32183Y-19275D01*
X32275Y-19184D01*
X32324Y-19064D01*
X32325Y-18935D01*
X32325Y-19935D01*
X32275Y-19816D01*
X32184Y-19724D01*
X32064Y-19675D01*
X31935Y-19674D01*
X31816Y-19724D01*
X31724Y-19815D01*
X31675Y-19935D01*
X31674Y-20064D01*
X31724Y-20183D01*
X31815Y-20275D01*
X31935Y-20324D01*
X32064Y-20325D01*
X32183Y-20275D01*
X32275Y-20184D01*
X32324Y-20064D01*
X32325Y-19935D01*
X32325Y-20935D01*
X32275Y-20816D01*
X32184Y-20724D01*
X32064Y-20675D01*
X31935Y-20674D01*
X31816Y-20724D01*
X31724Y-20815D01*
X31675Y-20935D01*
X31674Y-21064D01*
X31724Y-21183D01*
X31815Y-21275D01*
X31935Y-21324D01*
X32064Y-21325D01*
X32183Y-21275D01*
X32275Y-21184D01*
X32324Y-21064D01*
X32325Y-20935D01*
X32325Y-21935D01*
X32275Y-21816D01*
X32184Y-21724D01*
X32064Y-21675D01*
X31935Y-21674D01*
X31816Y-21724D01*
X31724Y-21815D01*
X31675Y-21935D01*
X31674Y-22064D01*
X31724Y-22183D01*
X31815Y-22275D01*
X31935Y-22324D01*
X32064Y-22325D01*
X32183Y-22275D01*
X32275Y-22184D01*
X32324Y-22064D01*
X32325Y-21935D01*
X32325Y-23185D01*
X32275Y-23066D01*
X32184Y-22974D01*
X32064Y-22925D01*
X31935Y-22924D01*
X31816Y-22974D01*
X31724Y-23065D01*
X31675Y-23185D01*
X31674Y-23314D01*
X31724Y-23433D01*
X31815Y-23525D01*
X31935Y-23574D01*
X32064Y-23575D01*
X32183Y-23525D01*
X32275Y-23434D01*
X32324Y-23314D01*
X32325Y-23185D01*
X32325Y-23935D01*
X32275Y-23816D01*
X32184Y-23724D01*
X32064Y-23675D01*
X31935Y-23674D01*
X31816Y-23724D01*
X31724Y-23815D01*
X31675Y-23935D01*
X31674Y-24064D01*
X31724Y-24183D01*
X31815Y-24275D01*
X31935Y-24324D01*
X32064Y-24325D01*
X32183Y-24275D01*
X32275Y-24184D01*
X32324Y-24064D01*
X32325Y-23935D01*
X32325Y-24935D01*
X32275Y-24816D01*
X32184Y-24724D01*
X32064Y-24675D01*
X31935Y-24674D01*
X31816Y-24724D01*
X31724Y-24815D01*
X31675Y-24935D01*
X31674Y-25064D01*
X31724Y-25183D01*
X31815Y-25275D01*
X31935Y-25324D01*
X32064Y-25325D01*
X32183Y-25275D01*
X32275Y-25184D01*
X32324Y-25064D01*
X32325Y-24935D01*
X32325Y-25935D01*
X32275Y-25816D01*
X32184Y-25724D01*
X32064Y-25675D01*
X31935Y-25674D01*
X31816Y-25724D01*
X31724Y-25815D01*
X31675Y-25935D01*
X31674Y-26064D01*
X31724Y-26183D01*
X31815Y-26275D01*
X31935Y-26324D01*
X32064Y-26325D01*
X32183Y-26275D01*
X32275Y-26184D01*
X32324Y-26064D01*
X32325Y-25935D01*
X32325Y-26935D01*
X32275Y-26816D01*
X32184Y-26724D01*
X32064Y-26675D01*
X31935Y-26674D01*
X31816Y-26724D01*
X31724Y-26815D01*
X31675Y-26935D01*
X31674Y-27064D01*
X31724Y-27183D01*
X31815Y-27275D01*
X31935Y-27324D01*
X32064Y-27325D01*
X32183Y-27275D01*
X32275Y-27184D01*
X32324Y-27064D01*
X32325Y-26935D01*
X32325Y-27935D01*
X32275Y-27816D01*
X32184Y-27724D01*
X32064Y-27675D01*
X31935Y-27674D01*
X31816Y-27724D01*
X31724Y-27815D01*
X31675Y-27935D01*
X31674Y-28064D01*
X31724Y-28183D01*
X31815Y-28275D01*
X31935Y-28324D01*
X32064Y-28325D01*
X32183Y-28275D01*
X32275Y-28184D01*
X32324Y-28064D01*
X32325Y-27935D01*
X32325Y-28935D01*
X32275Y-28816D01*
X32184Y-28724D01*
X32064Y-28675D01*
X31935Y-28674D01*
X31816Y-28724D01*
X31724Y-28815D01*
X31675Y-28935D01*
X31674Y-29064D01*
X31724Y-29183D01*
X31815Y-29275D01*
X31935Y-29324D01*
X32064Y-29325D01*
X32183Y-29275D01*
X32275Y-29184D01*
X32324Y-29064D01*
X32325Y-28935D01*
X32325Y-29935D01*
X32275Y-29816D01*
X32184Y-29724D01*
X32064Y-29675D01*
X31935Y-29674D01*
X31816Y-29724D01*
X31724Y-29815D01*
X31675Y-29935D01*
X31674Y-30064D01*
X31724Y-30183D01*
X31815Y-30275D01*
X31935Y-30324D01*
X32064Y-30325D01*
X32183Y-30275D01*
X32275Y-30184D01*
X32324Y-30064D01*
X32325Y-29935D01*
X32325Y-30935D01*
X32275Y-30816D01*
X32184Y-30724D01*
X32064Y-30675D01*
X31935Y-30674D01*
X31816Y-30724D01*
X31724Y-30815D01*
X31675Y-30935D01*
X31674Y-31064D01*
X31724Y-31183D01*
X31740Y-31200D01*
X30450Y-31200D01*
X30450Y-34450D01*
X30075Y-34450D01*
X30075Y-12935D01*
X30025Y-12816D01*
X29934Y-12724D01*
X29814Y-12675D01*
X29685Y-12674D01*
X29566Y-12724D01*
X29474Y-12815D01*
X29425Y-12935D01*
X29424Y-13064D01*
X29474Y-13183D01*
X29565Y-13275D01*
X29685Y-13324D01*
X29814Y-13325D01*
X29933Y-13275D01*
X30025Y-13184D01*
X30074Y-13064D01*
X30075Y-12935D01*
X30075Y-34450D01*
X29325Y-34450D01*
X29325Y-30935D01*
X29325Y-29935D01*
X29325Y-28935D01*
X29325Y-27935D01*
X29325Y-26935D01*
X29325Y-25935D01*
X29325Y-24935D01*
X29325Y-23935D01*
X29325Y-22935D01*
X29325Y-21935D01*
X29325Y-20935D01*
X29325Y-19935D01*
X29325Y-18935D01*
X29325Y-17935D01*
X29325Y-16935D01*
X29325Y-15935D01*
X29325Y-14935D01*
X29275Y-14816D01*
X29184Y-14724D01*
X29064Y-14675D01*
X28935Y-14674D01*
X28816Y-14724D01*
X28724Y-14815D01*
X28675Y-14935D01*
X28674Y-15064D01*
X28724Y-15183D01*
X28815Y-15275D01*
X28935Y-15324D01*
X29064Y-15325D01*
X29183Y-15275D01*
X29275Y-15184D01*
X29324Y-15064D01*
X29325Y-14935D01*
X29325Y-15935D01*
X29275Y-15816D01*
X29184Y-15724D01*
X29064Y-15675D01*
X28935Y-15674D01*
X28816Y-15724D01*
X28724Y-15815D01*
X28675Y-15935D01*
X28674Y-16064D01*
X28724Y-16183D01*
X28815Y-16275D01*
X28935Y-16324D01*
X29064Y-16325D01*
X29183Y-16275D01*
X29275Y-16184D01*
X29324Y-16064D01*
X29325Y-15935D01*
X29325Y-16935D01*
X29275Y-16816D01*
X29184Y-16724D01*
X29064Y-16675D01*
X28935Y-16674D01*
X28816Y-16724D01*
X28724Y-16815D01*
X28675Y-16935D01*
X28674Y-17064D01*
X28724Y-17183D01*
X28815Y-17275D01*
X28935Y-17324D01*
X29064Y-17325D01*
X29183Y-17275D01*
X29275Y-17184D01*
X29324Y-17064D01*
X29325Y-16935D01*
X29325Y-17935D01*
X29275Y-17816D01*
X29184Y-17724D01*
X29064Y-17675D01*
X28935Y-17674D01*
X28816Y-17724D01*
X28724Y-17815D01*
X28675Y-17935D01*
X28674Y-18064D01*
X28724Y-18183D01*
X28815Y-18275D01*
X28935Y-18324D01*
X29064Y-18325D01*
X29183Y-18275D01*
X29275Y-18184D01*
X29324Y-18064D01*
X29325Y-17935D01*
X29325Y-18935D01*
X29275Y-18816D01*
X29184Y-18724D01*
X29064Y-18675D01*
X28935Y-18674D01*
X28816Y-18724D01*
X28724Y-18815D01*
X28675Y-18935D01*
X28674Y-19064D01*
X28724Y-19183D01*
X28815Y-19275D01*
X28935Y-19324D01*
X29064Y-19325D01*
X29183Y-19275D01*
X29275Y-19184D01*
X29324Y-19064D01*
X29325Y-18935D01*
X29325Y-19935D01*
X29275Y-19816D01*
X29184Y-19724D01*
X29064Y-19675D01*
X28935Y-19674D01*
X28816Y-19724D01*
X28724Y-19815D01*
X28675Y-19935D01*
X28674Y-20064D01*
X28724Y-20183D01*
X28815Y-20275D01*
X28935Y-20324D01*
X29064Y-20325D01*
X29183Y-20275D01*
X29275Y-20184D01*
X29324Y-20064D01*
X29325Y-19935D01*
X29325Y-20935D01*
X29275Y-20816D01*
X29184Y-20724D01*
X29064Y-20675D01*
X28935Y-20674D01*
X28816Y-20724D01*
X28724Y-20815D01*
X28675Y-20935D01*
X28674Y-21064D01*
X28724Y-21183D01*
X28815Y-21275D01*
X28935Y-21324D01*
X29064Y-21325D01*
X29183Y-21275D01*
X29275Y-21184D01*
X29324Y-21064D01*
X29325Y-20935D01*
X29325Y-21935D01*
X29275Y-21816D01*
X29184Y-21724D01*
X29064Y-21675D01*
X28935Y-21674D01*
X28816Y-21724D01*
X28724Y-21815D01*
X28675Y-21935D01*
X28674Y-22064D01*
X28724Y-22183D01*
X28815Y-22275D01*
X28935Y-22324D01*
X29064Y-22325D01*
X29183Y-22275D01*
X29275Y-22184D01*
X29324Y-22064D01*
X29325Y-21935D01*
X29325Y-22935D01*
X29275Y-22816D01*
X29184Y-22724D01*
X29064Y-22675D01*
X28935Y-22674D01*
X28816Y-22724D01*
X28724Y-22815D01*
X28675Y-22935D01*
X28674Y-23064D01*
X28724Y-23183D01*
X28815Y-23275D01*
X28935Y-23324D01*
X29064Y-23325D01*
X29183Y-23275D01*
X29275Y-23184D01*
X29324Y-23064D01*
X29325Y-22935D01*
X29325Y-23935D01*
X29275Y-23816D01*
X29184Y-23724D01*
X29064Y-23675D01*
X28935Y-23674D01*
X28816Y-23724D01*
X28724Y-23815D01*
X28675Y-23935D01*
X28674Y-24064D01*
X28724Y-24183D01*
X28815Y-24275D01*
X28935Y-24324D01*
X29064Y-24325D01*
X29183Y-24275D01*
X29275Y-24184D01*
X29324Y-24064D01*
X29325Y-23935D01*
X29325Y-24935D01*
X29275Y-24816D01*
X29184Y-24724D01*
X29064Y-24675D01*
X28935Y-24674D01*
X28816Y-24724D01*
X28724Y-24815D01*
X28675Y-24935D01*
X28674Y-25064D01*
X28724Y-25183D01*
X28815Y-25275D01*
X28935Y-25324D01*
X29064Y-25325D01*
X29183Y-25275D01*
X29275Y-25184D01*
X29324Y-25064D01*
X29325Y-24935D01*
X29325Y-25935D01*
X29275Y-25816D01*
X29184Y-25724D01*
X29064Y-25675D01*
X28935Y-25674D01*
X28816Y-25724D01*
X28724Y-25815D01*
X28675Y-25935D01*
X28674Y-26064D01*
X28724Y-26183D01*
X28815Y-26275D01*
X28935Y-26324D01*
X29064Y-26325D01*
X29183Y-26275D01*
X29275Y-26184D01*
X29324Y-26064D01*
X29325Y-25935D01*
X29325Y-26935D01*
X29275Y-26816D01*
X29184Y-26724D01*
X29064Y-26675D01*
X28935Y-26674D01*
X28816Y-26724D01*
X28724Y-26815D01*
X28675Y-26935D01*
X28674Y-27064D01*
X28724Y-27183D01*
X28815Y-27275D01*
X28935Y-27324D01*
X29064Y-27325D01*
X29183Y-27275D01*
X29275Y-27184D01*
X29324Y-27064D01*
X29325Y-26935D01*
X29325Y-27935D01*
X29275Y-27816D01*
X29184Y-27724D01*
X29064Y-27675D01*
X28935Y-27674D01*
X28816Y-27724D01*
X28724Y-27815D01*
X28675Y-27935D01*
X28674Y-28064D01*
X28724Y-28183D01*
X28815Y-28275D01*
X28935Y-28324D01*
X29064Y-28325D01*
X29183Y-28275D01*
X29275Y-28184D01*
X29324Y-28064D01*
X29325Y-27935D01*
X29325Y-28935D01*
X29275Y-28816D01*
X29184Y-28724D01*
X29064Y-28675D01*
X28935Y-28674D01*
X28816Y-28724D01*
X28724Y-28815D01*
X28675Y-28935D01*
X28674Y-29064D01*
X28724Y-29183D01*
X28815Y-29275D01*
X28935Y-29324D01*
X29064Y-29325D01*
X29183Y-29275D01*
X29275Y-29184D01*
X29324Y-29064D01*
X29325Y-28935D01*
X29325Y-29935D01*
X29275Y-29816D01*
X29184Y-29724D01*
X29064Y-29675D01*
X28935Y-29674D01*
X28816Y-29724D01*
X28724Y-29815D01*
X28675Y-29935D01*
X28674Y-30064D01*
X28724Y-30183D01*
X28815Y-30275D01*
X28935Y-30324D01*
X29064Y-30325D01*
X29183Y-30275D01*
X29275Y-30184D01*
X29324Y-30064D01*
X29325Y-29935D01*
X29325Y-30935D01*
X29275Y-30816D01*
X29184Y-30724D01*
X29064Y-30675D01*
X28935Y-30674D01*
X28816Y-30724D01*
X28724Y-30815D01*
X28675Y-30935D01*
X28674Y-31064D01*
X28724Y-31183D01*
X28815Y-31275D01*
X28935Y-31324D01*
X29064Y-31325D01*
X29183Y-31275D01*
X29275Y-31184D01*
X29324Y-31064D01*
X29325Y-30935D01*
X29325Y-34450D01*
X28825Y-34450D01*
X28825Y-31935D01*
X28775Y-31816D01*
X28684Y-31724D01*
X28564Y-31675D01*
X28435Y-31674D01*
X28316Y-31724D01*
X28224Y-31815D01*
X28175Y-31935D01*
X28174Y-32064D01*
X28224Y-32183D01*
X28315Y-32275D01*
X28435Y-32324D01*
X28564Y-32325D01*
X28683Y-32275D01*
X28775Y-32184D01*
X28824Y-32064D01*
X28825Y-31935D01*
X28825Y-34450D01*
X27897Y-34450D01*
X27897Y-33322D01*
X27897Y-12822D01*
X27761Y-12492D01*
X27509Y-12239D01*
X27179Y-12102D01*
X26822Y-12102D01*
X26492Y-12238D01*
X26239Y-12490D01*
X26102Y-12820D01*
X26102Y-13177D01*
X26238Y-13507D01*
X26490Y-13760D01*
X26820Y-13897D01*
X27177Y-13897D01*
X27507Y-13761D01*
X27760Y-13509D01*
X27897Y-13179D01*
X27897Y-12822D01*
X27897Y-33322D01*
X27761Y-32992D01*
X27509Y-32739D01*
X27179Y-32602D01*
X26822Y-32602D01*
X26492Y-32738D01*
X26239Y-32990D01*
X26102Y-33320D01*
X26102Y-33677D01*
X26238Y-34007D01*
X26490Y-34260D01*
X26820Y-34397D01*
X27177Y-34397D01*
X27507Y-34261D01*
X27760Y-34009D01*
X27897Y-33679D01*
X27897Y-33322D01*
X27897Y-34450D01*
X25450Y-34450D01*
X25450Y-30910D01*
X25450Y-29910D01*
X25450Y-28910D01*
X25450Y-27910D01*
X25450Y-26910D01*
X25450Y-25910D01*
X25450Y-24910D01*
X25450Y-23910D01*
X25450Y-22910D01*
X25450Y-21910D01*
X25450Y-20910D01*
X25450Y-19910D01*
X25450Y-18910D01*
X25450Y-17910D01*
X25450Y-16910D01*
X25450Y-15910D01*
X25450Y-14910D01*
X25381Y-14745D01*
X25255Y-14618D01*
X25089Y-14550D01*
X24910Y-14549D01*
X24745Y-14618D01*
X24618Y-14744D01*
X24550Y-14910D01*
X24549Y-15089D01*
X24618Y-15254D01*
X24744Y-15381D01*
X24910Y-15449D01*
X25089Y-15450D01*
X25254Y-15381D01*
X25381Y-15255D01*
X25449Y-15089D01*
X25450Y-14910D01*
X25450Y-15910D01*
X25381Y-15745D01*
X25255Y-15618D01*
X25089Y-15550D01*
X24910Y-15549D01*
X24745Y-15618D01*
X24618Y-15744D01*
X24550Y-15910D01*
X24549Y-16089D01*
X24618Y-16254D01*
X24744Y-16381D01*
X24910Y-16449D01*
X25089Y-16450D01*
X25254Y-16381D01*
X25381Y-16255D01*
X25449Y-16089D01*
X25450Y-15910D01*
X25450Y-16910D01*
X25381Y-16745D01*
X25255Y-16618D01*
X25089Y-16550D01*
X24910Y-16549D01*
X24745Y-16618D01*
X24618Y-16744D01*
X24550Y-16910D01*
X24549Y-17089D01*
X24618Y-17254D01*
X24744Y-17381D01*
X24910Y-17449D01*
X25089Y-17450D01*
X25254Y-17381D01*
X25381Y-17255D01*
X25449Y-17089D01*
X25450Y-16910D01*
X25450Y-17910D01*
X25381Y-17745D01*
X25255Y-17618D01*
X25089Y-17550D01*
X24910Y-17549D01*
X24745Y-17618D01*
X24618Y-17744D01*
X24550Y-17910D01*
X24549Y-18089D01*
X24618Y-18254D01*
X24744Y-18381D01*
X24910Y-18449D01*
X25089Y-18450D01*
X25254Y-18381D01*
X25381Y-18255D01*
X25449Y-18089D01*
X25450Y-17910D01*
X25450Y-18910D01*
X25381Y-18745D01*
X25255Y-18618D01*
X25089Y-18550D01*
X24910Y-18549D01*
X24745Y-18618D01*
X24618Y-18744D01*
X24550Y-18910D01*
X24549Y-19089D01*
X24618Y-19254D01*
X24744Y-19381D01*
X24910Y-19449D01*
X25089Y-19450D01*
X25254Y-19381D01*
X25381Y-19255D01*
X25449Y-19089D01*
X25450Y-18910D01*
X25450Y-19910D01*
X25381Y-19745D01*
X25255Y-19618D01*
X25089Y-19550D01*
X24910Y-19549D01*
X24745Y-19618D01*
X24618Y-19744D01*
X24550Y-19910D01*
X24549Y-20089D01*
X24618Y-20254D01*
X24744Y-20381D01*
X24910Y-20449D01*
X25089Y-20450D01*
X25254Y-20381D01*
X25381Y-20255D01*
X25449Y-20089D01*
X25450Y-19910D01*
X25450Y-20910D01*
X25381Y-20745D01*
X25255Y-20618D01*
X25089Y-20550D01*
X24910Y-20549D01*
X24745Y-20618D01*
X24618Y-20744D01*
X24550Y-20910D01*
X24549Y-21089D01*
X24618Y-21254D01*
X24744Y-21381D01*
X24910Y-21449D01*
X25089Y-21450D01*
X25254Y-21381D01*
X25381Y-21255D01*
X25449Y-21089D01*
X25450Y-20910D01*
X25450Y-21910D01*
X25381Y-21745D01*
X25255Y-21618D01*
X25089Y-21550D01*
X24910Y-21549D01*
X24745Y-21618D01*
X24618Y-21744D01*
X24550Y-21910D01*
X24549Y-22089D01*
X24618Y-22254D01*
X24744Y-22381D01*
X24910Y-22449D01*
X25089Y-22450D01*
X25254Y-22381D01*
X25381Y-22255D01*
X25449Y-22089D01*
X25450Y-21910D01*
X25450Y-22910D01*
X25381Y-22745D01*
X25255Y-22618D01*
X25089Y-22550D01*
X24910Y-22549D01*
X24745Y-22618D01*
X24618Y-22744D01*
X24550Y-22910D01*
X24549Y-23089D01*
X24618Y-23254D01*
X24744Y-23381D01*
X24910Y-23449D01*
X25089Y-23450D01*
X25254Y-23381D01*
X25381Y-23255D01*
X25449Y-23089D01*
X25450Y-22910D01*
X25450Y-23910D01*
X25381Y-23745D01*
X25255Y-23618D01*
X25089Y-23550D01*
X24910Y-23549D01*
X24745Y-23618D01*
X24618Y-23744D01*
X24550Y-23910D01*
X24549Y-24089D01*
X24618Y-24254D01*
X24744Y-24381D01*
X24910Y-24449D01*
X25089Y-24450D01*
X25254Y-24381D01*
X25381Y-24255D01*
X25449Y-24089D01*
X25450Y-23910D01*
X25450Y-24910D01*
X25381Y-24745D01*
X25255Y-24618D01*
X25089Y-24550D01*
X24910Y-24549D01*
X24745Y-24618D01*
X24618Y-24744D01*
X24550Y-24910D01*
X24549Y-25089D01*
X24618Y-25254D01*
X24744Y-25381D01*
X24910Y-25449D01*
X25089Y-25450D01*
X25254Y-25381D01*
X25381Y-25255D01*
X25449Y-25089D01*
X25450Y-24910D01*
X25450Y-25910D01*
X25381Y-25745D01*
X25255Y-25618D01*
X25089Y-25550D01*
X24910Y-25549D01*
X24745Y-25618D01*
X24618Y-25744D01*
X24550Y-25910D01*
X24549Y-26089D01*
X24618Y-26254D01*
X24744Y-26381D01*
X24910Y-26449D01*
X25089Y-26450D01*
X25254Y-26381D01*
X25381Y-26255D01*
X25449Y-26089D01*
X25450Y-25910D01*
X25450Y-26910D01*
X25381Y-26745D01*
X25255Y-26618D01*
X25089Y-26550D01*
X24910Y-26549D01*
X24745Y-26618D01*
X24618Y-26744D01*
X24550Y-26910D01*
X24549Y-27089D01*
X24618Y-27254D01*
X24744Y-27381D01*
X24910Y-27449D01*
X25089Y-27450D01*
X25254Y-27381D01*
X25381Y-27255D01*
X25449Y-27089D01*
X25450Y-26910D01*
X25450Y-27910D01*
X25381Y-27745D01*
X25255Y-27618D01*
X25089Y-27550D01*
X24910Y-27549D01*
X24745Y-27618D01*
X24618Y-27744D01*
X24550Y-27910D01*
X24549Y-28089D01*
X24618Y-28254D01*
X24744Y-28381D01*
X24910Y-28449D01*
X25089Y-28450D01*
X25254Y-28381D01*
X25381Y-28255D01*
X25449Y-28089D01*
X25450Y-27910D01*
X25450Y-28910D01*
X25381Y-28745D01*
X25255Y-28618D01*
X25089Y-28550D01*
X24910Y-28549D01*
X24745Y-28618D01*
X24618Y-28744D01*
X24550Y-28910D01*
X24549Y-29089D01*
X24618Y-29254D01*
X24744Y-29381D01*
X24910Y-29449D01*
X25089Y-29450D01*
X25254Y-29381D01*
X25381Y-29255D01*
X25449Y-29089D01*
X25450Y-28910D01*
X25450Y-29910D01*
X25381Y-29745D01*
X25255Y-29618D01*
X25089Y-29550D01*
X24910Y-29549D01*
X24745Y-29618D01*
X24618Y-29744D01*
X24550Y-29910D01*
X24549Y-30089D01*
X24618Y-30254D01*
X24744Y-30381D01*
X24910Y-30449D01*
X25089Y-30450D01*
X25254Y-30381D01*
X25381Y-30255D01*
X25449Y-30089D01*
X25450Y-29910D01*
X25450Y-30910D01*
X25381Y-30745D01*
X25255Y-30618D01*
X25089Y-30550D01*
X24910Y-30549D01*
X24745Y-30618D01*
X24618Y-30744D01*
X24550Y-30910D01*
X24549Y-31089D01*
X24618Y-31254D01*
X24744Y-31381D01*
X24910Y-31449D01*
X25089Y-31450D01*
X25254Y-31381D01*
X25381Y-31255D01*
X25449Y-31089D01*
X25450Y-30910D01*
X25450Y-34450D01*
X25450Y-34450D01*
X25450Y-32270D01*
X25450Y-31670D01*
X25427Y-31615D01*
X25385Y-31572D01*
X25329Y-31550D01*
X25270Y-31549D01*
X24670Y-31549D01*
X24615Y-31572D01*
X24572Y-31614D01*
X24550Y-31670D01*
X24549Y-31729D01*
X24549Y-32329D01*
X24572Y-32384D01*
X24614Y-32427D01*
X24670Y-32449D01*
X24729Y-32450D01*
X25329Y-32450D01*
X25384Y-32427D01*
X25427Y-32385D01*
X25449Y-32329D01*
X25450Y-32270D01*
X25450Y-34450D01*
X23800Y-34450D01*
X23800Y-12050D01*
X34200Y-12050D01*
X34200Y-14698D01*
X34187Y-14698D01*
X34068Y-14747D01*
X33976Y-14839D01*
X33927Y-14958D01*
X33926Y-15087D01*
X33976Y-15207D01*
X34067Y-15298D01*
X34187Y-15348D01*
X34200Y-15348D01*
X34200Y-16550D01*
X35200Y-16550D01*
X35200Y-17300D01*
X35750Y-17300D01*
X37450Y-17300D01*
X37450Y-17979D01*
X37450Y-17979D01*
G37*
G54D15*
X37450Y-17979D02*
X36700Y-18729D01*
X36700Y-20072D01*
X36652Y-20072D01*
X36532Y-20121D01*
X36441Y-20213D01*
X36391Y-20332D01*
X36391Y-20462D01*
X36440Y-20581D01*
X36532Y-20672D01*
X36651Y-20722D01*
X36700Y-20722D01*
X36700Y-24765D01*
X36640Y-24765D01*
X36520Y-24814D01*
X36429Y-24906D01*
X36379Y-25025D01*
X36379Y-25154D01*
X36429Y-25274D01*
X36520Y-25365D01*
X36639Y-25415D01*
X36700Y-25415D01*
X36700Y-28216D01*
X36682Y-28257D01*
X36682Y-28387D01*
X36700Y-28428D01*
X36700Y-30200D01*
X36328Y-30200D01*
X36328Y-28242D01*
X36325Y-28233D01*
X36325Y-19136D01*
X36275Y-19016D01*
X36184Y-18925D01*
X36064Y-18875D01*
X35935Y-18875D01*
X35816Y-18925D01*
X35724Y-19016D01*
X35675Y-19135D01*
X35674Y-19265D01*
X35724Y-19384D01*
X35815Y-19476D01*
X35935Y-19525D01*
X36064Y-19525D01*
X36183Y-19476D01*
X36275Y-19385D01*
X36324Y-19265D01*
X36325Y-19136D01*
X36325Y-28233D01*
X36279Y-28123D01*
X36188Y-28031D01*
X36068Y-27982D01*
X35939Y-27982D01*
X35820Y-28031D01*
X35728Y-28122D01*
X35678Y-28242D01*
X35678Y-28371D01*
X35728Y-28490D01*
X35819Y-28582D01*
X35939Y-28632D01*
X36068Y-28632D01*
X36187Y-28582D01*
X36279Y-28491D01*
X36328Y-28372D01*
X36328Y-28242D01*
X36328Y-30200D01*
X36167Y-30200D01*
X36167Y-29565D01*
X36118Y-29446D01*
X36026Y-29354D01*
X35907Y-29304D01*
X35778Y-29304D01*
X35658Y-29354D01*
X35567Y-29445D01*
X35517Y-29564D01*
X35517Y-29694D01*
X35566Y-29813D01*
X35658Y-29905D01*
X35777Y-29954D01*
X35906Y-29954D01*
X36026Y-29905D01*
X36117Y-29814D01*
X36167Y-29694D01*
X36167Y-29565D01*
X36167Y-30200D01*
X35700Y-30200D01*
X35700Y-31200D01*
X35325Y-31200D01*
X35325Y-28223D01*
X35275Y-28103D01*
X35184Y-28012D01*
X35064Y-27962D01*
X34935Y-27962D01*
X34816Y-28011D01*
X34724Y-28103D01*
X34675Y-28222D01*
X34674Y-28351D01*
X34724Y-28471D01*
X34815Y-28562D01*
X34935Y-28612D01*
X35064Y-28612D01*
X35183Y-28563D01*
X35275Y-28471D01*
X35324Y-28352D01*
X35325Y-28223D01*
X35325Y-31200D01*
X34819Y-31200D01*
X34931Y-31153D01*
X35023Y-31062D01*
X35072Y-30942D01*
X35073Y-30813D01*
X35023Y-30694D01*
X34932Y-30602D01*
X34812Y-30553D01*
X34683Y-30552D01*
X34564Y-30602D01*
X34472Y-30693D01*
X34423Y-30813D01*
X34422Y-30942D01*
X34472Y-31061D01*
X34563Y-31153D01*
X34676Y-31200D01*
X34325Y-31200D01*
X34325Y-28238D01*
X34275Y-28119D01*
X34184Y-28027D01*
X34064Y-27978D01*
X33935Y-27978D01*
X33816Y-28027D01*
X33724Y-28118D01*
X33675Y-28238D01*
X33674Y-28367D01*
X33724Y-28487D01*
X33815Y-28578D01*
X33935Y-28628D01*
X34064Y-28628D01*
X34183Y-28578D01*
X34275Y-28487D01*
X34324Y-28368D01*
X34325Y-28238D01*
X34325Y-31200D01*
X32259Y-31200D01*
X32275Y-31184D01*
X32324Y-31064D01*
X32325Y-30935D01*
X32325Y-29935D01*
X32325Y-28935D01*
X32325Y-27935D01*
X32325Y-26935D01*
X32325Y-25935D01*
X32325Y-24935D01*
X32325Y-23935D01*
X32325Y-23185D01*
X32325Y-21935D01*
X32325Y-20935D01*
X32325Y-19935D01*
X32325Y-18935D01*
X32325Y-17935D01*
X32325Y-16935D01*
X32325Y-15935D01*
X32325Y-14935D01*
X32275Y-14816D01*
X32184Y-14724D01*
X32064Y-14675D01*
X31935Y-14674D01*
X31816Y-14724D01*
X31724Y-14815D01*
X31675Y-14935D01*
X31674Y-15064D01*
X31724Y-15183D01*
X31815Y-15275D01*
X31935Y-15324D01*
X32064Y-15325D01*
X32183Y-15275D01*
X32275Y-15184D01*
X32324Y-15064D01*
X32325Y-14935D01*
X32325Y-15935D01*
X32275Y-15816D01*
X32184Y-15724D01*
X32064Y-15675D01*
X31935Y-15674D01*
X31816Y-15724D01*
X31724Y-15815D01*
X31675Y-15935D01*
X31674Y-16064D01*
X31724Y-16183D01*
X31815Y-16275D01*
X31935Y-16324D01*
X32064Y-16325D01*
X32183Y-16275D01*
X32275Y-16184D01*
X32324Y-16064D01*
X32325Y-15935D01*
X32325Y-16935D01*
X32275Y-16816D01*
X32184Y-16724D01*
X32064Y-16675D01*
X31935Y-16674D01*
X31816Y-16724D01*
X31724Y-16815D01*
X31675Y-16935D01*
X31674Y-17064D01*
X31724Y-17183D01*
X31815Y-17275D01*
X31935Y-17324D01*
X32064Y-17325D01*
X32183Y-17275D01*
X32275Y-17184D01*
X32324Y-17064D01*
X32325Y-16935D01*
X32325Y-17935D01*
X32275Y-17816D01*
X32184Y-17724D01*
X32064Y-17675D01*
X31935Y-17674D01*
X31816Y-17724D01*
X31724Y-17815D01*
X31675Y-17935D01*
X31674Y-18064D01*
X31724Y-18183D01*
X31815Y-18275D01*
X31935Y-18324D01*
X32064Y-18325D01*
X32183Y-18275D01*
X32275Y-18184D01*
X32324Y-18064D01*
X32325Y-17935D01*
X32325Y-18935D01*
X32275Y-18816D01*
X32184Y-18724D01*
X32064Y-18675D01*
X31935Y-18674D01*
X31816Y-18724D01*
X31724Y-18815D01*
X31675Y-18935D01*
X31674Y-19064D01*
X31724Y-19183D01*
X31815Y-19275D01*
X31935Y-19324D01*
X32064Y-19325D01*
X32183Y-19275D01*
X32275Y-19184D01*
X32324Y-19064D01*
X32325Y-18935D01*
X32325Y-19935D01*
X32275Y-19816D01*
X32184Y-19724D01*
X32064Y-19675D01*
X31935Y-19674D01*
X31816Y-19724D01*
X31724Y-19815D01*
X31675Y-19935D01*
X31674Y-20064D01*
X31724Y-20183D01*
X31815Y-20275D01*
X31935Y-20324D01*
X32064Y-20325D01*
X32183Y-20275D01*
X32275Y-20184D01*
X32324Y-20064D01*
X32325Y-19935D01*
X32325Y-20935D01*
X32275Y-20816D01*
X32184Y-20724D01*
X32064Y-20675D01*
X31935Y-20674D01*
X31816Y-20724D01*
X31724Y-20815D01*
X31675Y-20935D01*
X31674Y-21064D01*
X31724Y-21183D01*
X31815Y-21275D01*
X31935Y-21324D01*
X32064Y-21325D01*
X32183Y-21275D01*
X32275Y-21184D01*
X32324Y-21064D01*
X32325Y-20935D01*
X32325Y-21935D01*
X32275Y-21816D01*
X32184Y-21724D01*
X32064Y-21675D01*
X31935Y-21674D01*
X31816Y-21724D01*
X31724Y-21815D01*
X31675Y-21935D01*
X31674Y-22064D01*
X31724Y-22183D01*
X31815Y-22275D01*
X31935Y-22324D01*
X32064Y-22325D01*
X32183Y-22275D01*
X32275Y-22184D01*
X32324Y-22064D01*
X32325Y-21935D01*
X32325Y-23185D01*
X32275Y-23066D01*
X32184Y-22974D01*
X32064Y-22925D01*
X31935Y-22924D01*
X31816Y-22974D01*
X31724Y-23065D01*
X31675Y-23185D01*
X31674Y-23314D01*
X31724Y-23433D01*
X31815Y-23525D01*
X31935Y-23574D01*
X32064Y-23575D01*
X32183Y-23525D01*
X32275Y-23434D01*
X32324Y-23314D01*
X32325Y-23185D01*
X32325Y-23935D01*
X32275Y-23816D01*
X32184Y-23724D01*
X32064Y-23675D01*
X31935Y-23674D01*
X31816Y-23724D01*
X31724Y-23815D01*
X31675Y-23935D01*
X31674Y-24064D01*
X31724Y-24183D01*
X31815Y-24275D01*
X31935Y-24324D01*
X32064Y-24325D01*
X32183Y-24275D01*
X32275Y-24184D01*
X32324Y-24064D01*
X32325Y-23935D01*
X32325Y-24935D01*
X32275Y-24816D01*
X32184Y-24724D01*
X32064Y-24675D01*
X31935Y-24674D01*
X31816Y-24724D01*
X31724Y-24815D01*
X31675Y-24935D01*
X31674Y-25064D01*
X31724Y-25183D01*
X31815Y-25275D01*
X31935Y-25324D01*
X32064Y-25325D01*
X32183Y-25275D01*
X32275Y-25184D01*
X32324Y-25064D01*
X32325Y-24935D01*
X32325Y-25935D01*
X32275Y-25816D01*
X32184Y-25724D01*
X32064Y-25675D01*
X31935Y-25674D01*
X31816Y-25724D01*
X31724Y-25815D01*
X31675Y-25935D01*
X31674Y-26064D01*
X31724Y-26183D01*
X31815Y-26275D01*
X31935Y-26324D01*
X32064Y-26325D01*
X32183Y-26275D01*
X32275Y-26184D01*
X32324Y-26064D01*
X32325Y-25935D01*
X32325Y-26935D01*
X32275Y-26816D01*
X32184Y-26724D01*
X32064Y-26675D01*
X31935Y-26674D01*
X31816Y-26724D01*
X31724Y-26815D01*
X31675Y-26935D01*
X31674Y-27064D01*
X31724Y-27183D01*
X31815Y-27275D01*
X31935Y-27324D01*
X32064Y-27325D01*
X32183Y-27275D01*
X32275Y-27184D01*
X32324Y-27064D01*
X32325Y-26935D01*
X32325Y-27935D01*
X32275Y-27816D01*
X32184Y-27724D01*
X32064Y-27675D01*
X31935Y-27674D01*
X31816Y-27724D01*
X31724Y-27815D01*
X31675Y-27935D01*
X31674Y-28064D01*
X31724Y-28183D01*
X31815Y-28275D01*
X31935Y-28324D01*
X32064Y-28325D01*
X32183Y-28275D01*
X32275Y-28184D01*
X32324Y-28064D01*
X32325Y-27935D01*
X32325Y-28935D01*
X32275Y-28816D01*
X32184Y-28724D01*
X32064Y-28675D01*
X31935Y-28674D01*
X31816Y-28724D01*
X31724Y-28815D01*
X31675Y-28935D01*
X31674Y-29064D01*
X31724Y-29183D01*
X31815Y-29275D01*
X31935Y-29324D01*
X32064Y-29325D01*
X32183Y-29275D01*
X32275Y-29184D01*
X32324Y-29064D01*
X32325Y-28935D01*
X32325Y-29935D01*
X32275Y-29816D01*
X32184Y-29724D01*
X32064Y-29675D01*
X31935Y-29674D01*
X31816Y-29724D01*
X31724Y-29815D01*
X31675Y-29935D01*
X31674Y-30064D01*
X31724Y-30183D01*
X31815Y-30275D01*
X31935Y-30324D01*
X32064Y-30325D01*
X32183Y-30275D01*
X32275Y-30184D01*
X32324Y-30064D01*
X32325Y-29935D01*
X32325Y-30935D01*
X32275Y-30816D01*
X32184Y-30724D01*
X32064Y-30675D01*
X31935Y-30674D01*
X31816Y-30724D01*
X31724Y-30815D01*
X31675Y-30935D01*
X31674Y-31064D01*
X31724Y-31183D01*
X31740Y-31200D01*
X30450Y-31200D01*
X30450Y-34450D01*
X30075Y-34450D01*
X30075Y-12935D01*
X30025Y-12816D01*
X29934Y-12724D01*
X29814Y-12675D01*
X29685Y-12674D01*
X29566Y-12724D01*
X29474Y-12815D01*
X29425Y-12935D01*
X29424Y-13064D01*
X29474Y-13183D01*
X29565Y-13275D01*
X29685Y-13324D01*
X29814Y-13325D01*
X29933Y-13275D01*
X30025Y-13184D01*
X30074Y-13064D01*
X30075Y-12935D01*
X30075Y-34450D01*
X29325Y-34450D01*
X29325Y-30935D01*
X29325Y-29935D01*
X29325Y-28935D01*
X29325Y-27935D01*
X29325Y-26935D01*
X29325Y-25935D01*
X29325Y-24935D01*
X29325Y-23935D01*
X29325Y-22935D01*
X29325Y-21935D01*
X29325Y-20935D01*
X29325Y-19935D01*
X29325Y-18935D01*
X29325Y-17935D01*
X29325Y-16935D01*
X29325Y-15935D01*
X29325Y-14935D01*
X29275Y-14816D01*
X29184Y-14724D01*
X29064Y-14675D01*
X28935Y-14674D01*
X28816Y-14724D01*
X28724Y-14815D01*
X28675Y-14935D01*
X28674Y-15064D01*
X28724Y-15183D01*
X28815Y-15275D01*
X28935Y-15324D01*
X29064Y-15325D01*
X29183Y-15275D01*
X29275Y-15184D01*
X29324Y-15064D01*
X29325Y-14935D01*
X29325Y-15935D01*
X29275Y-15816D01*
X29184Y-15724D01*
X29064Y-15675D01*
X28935Y-15674D01*
X28816Y-15724D01*
X28724Y-15815D01*
X28675Y-15935D01*
X28674Y-16064D01*
X28724Y-16183D01*
X28815Y-16275D01*
X28935Y-16324D01*
X29064Y-16325D01*
X29183Y-16275D01*
X29275Y-16184D01*
X29324Y-16064D01*
X29325Y-15935D01*
X29325Y-16935D01*
X29275Y-16816D01*
X29184Y-16724D01*
X29064Y-16675D01*
X28935Y-16674D01*
X28816Y-16724D01*
X28724Y-16815D01*
X28675Y-16935D01*
X28674Y-17064D01*
X28724Y-17183D01*
X28815Y-17275D01*
X28935Y-17324D01*
X29064Y-17325D01*
X29183Y-17275D01*
X29275Y-17184D01*
X29324Y-17064D01*
X29325Y-16935D01*
X29325Y-17935D01*
X29275Y-17816D01*
X29184Y-17724D01*
X29064Y-17675D01*
X28935Y-17674D01*
X28816Y-17724D01*
X28724Y-17815D01*
X28675Y-17935D01*
X28674Y-18064D01*
X28724Y-18183D01*
X28815Y-18275D01*
X28935Y-18324D01*
X29064Y-18325D01*
X29183Y-18275D01*
X29275Y-18184D01*
X29324Y-18064D01*
X29325Y-17935D01*
X29325Y-18935D01*
X29275Y-18816D01*
X29184Y-18724D01*
X29064Y-18675D01*
X28935Y-18674D01*
X28816Y-18724D01*
X28724Y-18815D01*
X28675Y-18935D01*
X28674Y-19064D01*
X28724Y-19183D01*
X28815Y-19275D01*
X28935Y-19324D01*
X29064Y-19325D01*
X29183Y-19275D01*
X29275Y-19184D01*
X29324Y-19064D01*
X29325Y-18935D01*
X29325Y-19935D01*
X29275Y-19816D01*
X29184Y-19724D01*
X29064Y-19675D01*
X28935Y-19674D01*
X28816Y-19724D01*
X28724Y-19815D01*
X28675Y-19935D01*
X28674Y-20064D01*
X28724Y-20183D01*
X28815Y-20275D01*
X28935Y-20324D01*
X29064Y-20325D01*
X29183Y-20275D01*
X29275Y-20184D01*
X29324Y-20064D01*
X29325Y-19935D01*
X29325Y-20935D01*
X29275Y-20816D01*
X29184Y-20724D01*
X29064Y-20675D01*
X28935Y-20674D01*
X28816Y-20724D01*
X28724Y-20815D01*
X28675Y-20935D01*
X28674Y-21064D01*
X28724Y-21183D01*
X28815Y-21275D01*
X28935Y-21324D01*
X29064Y-21325D01*
X29183Y-21275D01*
X29275Y-21184D01*
X29324Y-21064D01*
X29325Y-20935D01*
X29325Y-21935D01*
X29275Y-21816D01*
X29184Y-21724D01*
X29064Y-21675D01*
X28935Y-21674D01*
X28816Y-21724D01*
X28724Y-21815D01*
X28675Y-21935D01*
X28674Y-22064D01*
X28724Y-22183D01*
X28815Y-22275D01*
X28935Y-22324D01*
X29064Y-22325D01*
X29183Y-22275D01*
X29275Y-22184D01*
X29324Y-22064D01*
X29325Y-21935D01*
X29325Y-22935D01*
X29275Y-22816D01*
X29184Y-22724D01*
X29064Y-22675D01*
X28935Y-22674D01*
X28816Y-22724D01*
X28724Y-22815D01*
X28675Y-22935D01*
X28674Y-23064D01*
X28724Y-23183D01*
X28815Y-23275D01*
X28935Y-23324D01*
X29064Y-23325D01*
X29183Y-23275D01*
X29275Y-23184D01*
X29324Y-23064D01*
X29325Y-22935D01*
X29325Y-23935D01*
X29275Y-23816D01*
X29184Y-23724D01*
X29064Y-23675D01*
X28935Y-23674D01*
X28816Y-23724D01*
X28724Y-23815D01*
X28675Y-23935D01*
X28674Y-24064D01*
X28724Y-24183D01*
X28815Y-24275D01*
X28935Y-24324D01*
X29064Y-24325D01*
X29183Y-24275D01*
X29275Y-24184D01*
X29324Y-24064D01*
X29325Y-23935D01*
X29325Y-24935D01*
X29275Y-24816D01*
X29184Y-24724D01*
X29064Y-24675D01*
X28935Y-24674D01*
X28816Y-24724D01*
X28724Y-24815D01*
X28675Y-24935D01*
X28674Y-25064D01*
X28724Y-25183D01*
X28815Y-25275D01*
X28935Y-25324D01*
X29064Y-25325D01*
X29183Y-25275D01*
X29275Y-25184D01*
X29324Y-25064D01*
X29325Y-24935D01*
X29325Y-25935D01*
X29275Y-25816D01*
X29184Y-25724D01*
X29064Y-25675D01*
X28935Y-25674D01*
X28816Y-25724D01*
X28724Y-25815D01*
X28675Y-25935D01*
X28674Y-26064D01*
X28724Y-26183D01*
X28815Y-26275D01*
X28935Y-26324D01*
X29064Y-26325D01*
X29183Y-26275D01*
X29275Y-26184D01*
X29324Y-26064D01*
X29325Y-25935D01*
X29325Y-26935D01*
X29275Y-26816D01*
X29184Y-26724D01*
X29064Y-26675D01*
X28935Y-26674D01*
X28816Y-26724D01*
X28724Y-26815D01*
X28675Y-26935D01*
X28674Y-27064D01*
X28724Y-27183D01*
X28815Y-27275D01*
X28935Y-27324D01*
X29064Y-27325D01*
X29183Y-27275D01*
X29275Y-27184D01*
X29324Y-27064D01*
X29325Y-26935D01*
X29325Y-27935D01*
X29275Y-27816D01*
X29184Y-27724D01*
X29064Y-27675D01*
X28935Y-27674D01*
X28816Y-27724D01*
X28724Y-27815D01*
X28675Y-27935D01*
X28674Y-28064D01*
X28724Y-28183D01*
X28815Y-28275D01*
X28935Y-28324D01*
X29064Y-28325D01*
X29183Y-28275D01*
X29275Y-28184D01*
X29324Y-28064D01*
X29325Y-27935D01*
X29325Y-28935D01*
X29275Y-28816D01*
X29184Y-28724D01*
X29064Y-28675D01*
X28935Y-28674D01*
X28816Y-28724D01*
X28724Y-28815D01*
X28675Y-28935D01*
X28674Y-29064D01*
X28724Y-29183D01*
X28815Y-29275D01*
X28935Y-29324D01*
X29064Y-29325D01*
X29183Y-29275D01*
X29275Y-29184D01*
X29324Y-29064D01*
X29325Y-28935D01*
X29325Y-29935D01*
X29275Y-29816D01*
X29184Y-29724D01*
X29064Y-29675D01*
X28935Y-29674D01*
X28816Y-29724D01*
X28724Y-29815D01*
X28675Y-29935D01*
X28674Y-30064D01*
X28724Y-30183D01*
X28815Y-30275D01*
X28935Y-30324D01*
X29064Y-30325D01*
X29183Y-30275D01*
X29275Y-30184D01*
X29324Y-30064D01*
X29325Y-29935D01*
X29325Y-30935D01*
X29275Y-30816D01*
X29184Y-30724D01*
X29064Y-30675D01*
X28935Y-30674D01*
X28816Y-30724D01*
X28724Y-30815D01*
X28675Y-30935D01*
X28674Y-31064D01*
X28724Y-31183D01*
X28815Y-31275D01*
X28935Y-31324D01*
X29064Y-31325D01*
X29183Y-31275D01*
X29275Y-31184D01*
X29324Y-31064D01*
X29325Y-30935D01*
X29325Y-34450D01*
X28825Y-34450D01*
X28825Y-31935D01*
X28775Y-31816D01*
X28684Y-31724D01*
X28564Y-31675D01*
X28435Y-31674D01*
X28316Y-31724D01*
X28224Y-31815D01*
X28175Y-31935D01*
X28174Y-32064D01*
X28224Y-32183D01*
X28315Y-32275D01*
X28435Y-32324D01*
X28564Y-32325D01*
X28683Y-32275D01*
X28775Y-32184D01*
X28824Y-32064D01*
X28825Y-31935D01*
X28825Y-34450D01*
X27897Y-34450D01*
X27897Y-33322D01*
X27897Y-12822D01*
X27761Y-12492D01*
X27509Y-12239D01*
X27179Y-12102D01*
X26822Y-12102D01*
X26492Y-12238D01*
X26239Y-12490D01*
X26102Y-12820D01*
X26102Y-13177D01*
X26238Y-13507D01*
X26490Y-13760D01*
X26820Y-13897D01*
X27177Y-13897D01*
X27507Y-13761D01*
X27760Y-13509D01*
X27897Y-13179D01*
X27897Y-12822D01*
X27897Y-33322D01*
X27761Y-32992D01*
X27509Y-32739D01*
X27179Y-32602D01*
X26822Y-32602D01*
X26492Y-32738D01*
X26239Y-32990D01*
X26102Y-33320D01*
X26102Y-33677D01*
X26238Y-34007D01*
X26490Y-34260D01*
X26820Y-34397D01*
X27177Y-34397D01*
X27507Y-34261D01*
X27760Y-34009D01*
X27897Y-33679D01*
X27897Y-33322D01*
X27897Y-34450D01*
X25450Y-34450D01*
X25450Y-30910D01*
X25450Y-29910D01*
X25450Y-28910D01*
X25450Y-27910D01*
X25450Y-26910D01*
X25450Y-25910D01*
X25450Y-24910D01*
X25450Y-23910D01*
X25450Y-22910D01*
X25450Y-21910D01*
X25450Y-20910D01*
X25450Y-19910D01*
X25450Y-18910D01*
X25450Y-17910D01*
X25450Y-16910D01*
X25450Y-15910D01*
X25450Y-14910D01*
X25381Y-14745D01*
X25255Y-14618D01*
X25089Y-14550D01*
X24910Y-14549D01*
X24745Y-14618D01*
X24618Y-14744D01*
X24550Y-14910D01*
X24549Y-15089D01*
X24618Y-15254D01*
X24744Y-15381D01*
X24910Y-15449D01*
X25089Y-15450D01*
X25254Y-15381D01*
X25381Y-15255D01*
X25449Y-15089D01*
X25450Y-14910D01*
X25450Y-15910D01*
X25381Y-15745D01*
X25255Y-15618D01*
X25089Y-15550D01*
X24910Y-15549D01*
X24745Y-15618D01*
X24618Y-15744D01*
X24550Y-15910D01*
X24549Y-16089D01*
X24618Y-16254D01*
X24744Y-16381D01*
X24910Y-16449D01*
X25089Y-16450D01*
X25254Y-16381D01*
X25381Y-16255D01*
X25449Y-16089D01*
X25450Y-15910D01*
X25450Y-16910D01*
X25381Y-16745D01*
X25255Y-16618D01*
X25089Y-16550D01*
X24910Y-16549D01*
X24745Y-16618D01*
X24618Y-16744D01*
X24550Y-16910D01*
X24549Y-17089D01*
X24618Y-17254D01*
X24744Y-17381D01*
X24910Y-17449D01*
X25089Y-17450D01*
X25254Y-17381D01*
X25381Y-17255D01*
X25449Y-17089D01*
X25450Y-16910D01*
X25450Y-17910D01*
X25381Y-17745D01*
X25255Y-17618D01*
X25089Y-17550D01*
X24910Y-17549D01*
X24745Y-17618D01*
X24618Y-17744D01*
X24550Y-17910D01*
X24549Y-18089D01*
X24618Y-18254D01*
X24744Y-18381D01*
X24910Y-18449D01*
X25089Y-18450D01*
X25254Y-18381D01*
X25381Y-18255D01*
X25449Y-18089D01*
X25450Y-17910D01*
X25450Y-18910D01*
X25381Y-18745D01*
X25255Y-18618D01*
X25089Y-18550D01*
X24910Y-18549D01*
X24745Y-18618D01*
X24618Y-18744D01*
X24550Y-18910D01*
X24549Y-19089D01*
X24618Y-19254D01*
X24744Y-19381D01*
X24910Y-19449D01*
X25089Y-19450D01*
X25254Y-19381D01*
X25381Y-19255D01*
X25449Y-19089D01*
X25450Y-18910D01*
X25450Y-19910D01*
X25381Y-19745D01*
X25255Y-19618D01*
X25089Y-19550D01*
X24910Y-19549D01*
X24745Y-19618D01*
X24618Y-19744D01*
X24550Y-19910D01*
X24549Y-20089D01*
X24618Y-20254D01*
X24744Y-20381D01*
X24910Y-20449D01*
X25089Y-20450D01*
X25254Y-20381D01*
X25381Y-20255D01*
X25449Y-20089D01*
X25450Y-19910D01*
X25450Y-20910D01*
X25381Y-20745D01*
X25255Y-20618D01*
X25089Y-20550D01*
X24910Y-20549D01*
X24745Y-20618D01*
X24618Y-20744D01*
X24550Y-20910D01*
X24549Y-21089D01*
X24618Y-21254D01*
X24744Y-21381D01*
X24910Y-21449D01*
X25089Y-21450D01*
X25254Y-21381D01*
X25381Y-21255D01*
X25449Y-21089D01*
X25450Y-20910D01*
X25450Y-21910D01*
X25381Y-21745D01*
X25255Y-21618D01*
X25089Y-21550D01*
X24910Y-21549D01*
X24745Y-21618D01*
X24618Y-21744D01*
X24550Y-21910D01*
X24549Y-22089D01*
X24618Y-22254D01*
X24744Y-22381D01*
X24910Y-22449D01*
X25089Y-22450D01*
X25254Y-22381D01*
X25381Y-22255D01*
X25449Y-22089D01*
X25450Y-21910D01*
X25450Y-22910D01*
X25381Y-22745D01*
X25255Y-22618D01*
X25089Y-22550D01*
X24910Y-22549D01*
X24745Y-22618D01*
X24618Y-22744D01*
X24550Y-22910D01*
X24549Y-23089D01*
X24618Y-23254D01*
X24744Y-23381D01*
X24910Y-23449D01*
X25089Y-23450D01*
X25254Y-23381D01*
X25381Y-23255D01*
X25449Y-23089D01*
X25450Y-22910D01*
X25450Y-23910D01*
X25381Y-23745D01*
X25255Y-23618D01*
X25089Y-23550D01*
X24910Y-23549D01*
X24745Y-23618D01*
X24618Y-23744D01*
X24550Y-23910D01*
X24549Y-24089D01*
X24618Y-24254D01*
X24744Y-24381D01*
X24910Y-24449D01*
X25089Y-24450D01*
X25254Y-24381D01*
X25381Y-24255D01*
X25449Y-24089D01*
X25450Y-23910D01*
X25450Y-24910D01*
X25381Y-24745D01*
X25255Y-24618D01*
X25089Y-24550D01*
X24910Y-24549D01*
X24745Y-24618D01*
X24618Y-24744D01*
X24550Y-24910D01*
X24549Y-25089D01*
X24618Y-25254D01*
X24744Y-25381D01*
X24910Y-25449D01*
X25089Y-25450D01*
X25254Y-25381D01*
X25381Y-25255D01*
X25449Y-25089D01*
X25450Y-24910D01*
X25450Y-25910D01*
X25381Y-25745D01*
X25255Y-25618D01*
X25089Y-25550D01*
X24910Y-25549D01*
X24745Y-25618D01*
X24618Y-25744D01*
X24550Y-25910D01*
X24549Y-26089D01*
X24618Y-26254D01*
X24744Y-26381D01*
X24910Y-26449D01*
X25089Y-26450D01*
X25254Y-26381D01*
X25381Y-26255D01*
X25449Y-26089D01*
X25450Y-25910D01*
X25450Y-26910D01*
X25381Y-26745D01*
X25255Y-26618D01*
X25089Y-26550D01*
X24910Y-26549D01*
X24745Y-26618D01*
X24618Y-26744D01*
X24550Y-26910D01*
X24549Y-27089D01*
X24618Y-27254D01*
X24744Y-27381D01*
X24910Y-27449D01*
X25089Y-27450D01*
X25254Y-27381D01*
X25381Y-27255D01*
X25449Y-27089D01*
X25450Y-26910D01*
X25450Y-27910D01*
X25381Y-27745D01*
X25255Y-27618D01*
X25089Y-27550D01*
X24910Y-27549D01*
X24745Y-27618D01*
X24618Y-27744D01*
X24550Y-27910D01*
X24549Y-28089D01*
X24618Y-28254D01*
X24744Y-28381D01*
X24910Y-28449D01*
X25089Y-28450D01*
X25254Y-28381D01*
X25381Y-28255D01*
X25449Y-28089D01*
X25450Y-27910D01*
X25450Y-28910D01*
X25381Y-28745D01*
X25255Y-28618D01*
X25089Y-28550D01*
X24910Y-28549D01*
X24745Y-28618D01*
X24618Y-28744D01*
X24550Y-28910D01*
X24549Y-29089D01*
X24618Y-29254D01*
X24744Y-29381D01*
X24910Y-29449D01*
X25089Y-29450D01*
X25254Y-29381D01*
X25381Y-29255D01*
X25449Y-29089D01*
X25450Y-28910D01*
X25450Y-29910D01*
X25381Y-29745D01*
X25255Y-29618D01*
X25089Y-29550D01*
X24910Y-29549D01*
X24745Y-29618D01*
X24618Y-29744D01*
X24550Y-29910D01*
X24549Y-30089D01*
X24618Y-30254D01*
X24744Y-30381D01*
X24910Y-30449D01*
X25089Y-30450D01*
X25254Y-30381D01*
X25381Y-30255D01*
X25449Y-30089D01*
X25450Y-29910D01*
X25450Y-30910D01*
X25381Y-30745D01*
X25255Y-30618D01*
X25089Y-30550D01*
X24910Y-30549D01*
X24745Y-30618D01*
X24618Y-30744D01*
X24550Y-30910D01*
X24549Y-31089D01*
X24618Y-31254D01*
X24744Y-31381D01*
X24910Y-31449D01*
X25089Y-31450D01*
X25254Y-31381D01*
X25381Y-31255D01*
X25449Y-31089D01*
X25450Y-30910D01*
X25450Y-34450D01*
X25450Y-34450D01*
X25450Y-32270D01*
X25450Y-31670D01*
X25427Y-31615D01*
X25385Y-31572D01*
X25329Y-31550D01*
X25270Y-31549D01*
X24670Y-31549D01*
X24615Y-31572D01*
X24572Y-31614D01*
X24550Y-31670D01*
X24549Y-31729D01*
X24549Y-32329D01*
X24572Y-32384D01*
X24614Y-32427D01*
X24670Y-32449D01*
X24729Y-32450D01*
X25329Y-32450D01*
X25384Y-32427D01*
X25427Y-32385D01*
X25449Y-32329D01*
X25450Y-32270D01*
X25450Y-34450D01*
X23800Y-34450D01*
X23800Y-12050D01*
X34200Y-12050D01*
X34200Y-14698D01*
X34187Y-14698D01*
X34068Y-14747D01*
X33976Y-14839D01*
X33927Y-14958D01*
X33926Y-15087D01*
X33976Y-15207D01*
X34067Y-15298D01*
X34187Y-15348D01*
X34200Y-15348D01*
X34200Y-16550D01*
X35200Y-16550D01*
X35200Y-17300D01*
X35750Y-17300D01*
X37450Y-17300D01*
X37450Y-17979D01*
G54D10*
G36*
X45450Y-34450D02*
X44864Y-34450D01*
X44864Y-31026D01*
X44815Y-30906D01*
X44723Y-30815D01*
X44604Y-30765D01*
X44475Y-30765D01*
X44355Y-30814D01*
X44264Y-30906D01*
X44214Y-31025D01*
X44214Y-31154D01*
X44263Y-31274D01*
X44355Y-31365D01*
X44474Y-31415D01*
X44603Y-31415D01*
X44723Y-31366D01*
X44814Y-31274D01*
X44864Y-31155D01*
X44864Y-31026D01*
X44864Y-34450D01*
X43738Y-34450D01*
X43738Y-32041D01*
X43710Y-31975D01*
X43710Y-28951D01*
X43661Y-28831D01*
X43577Y-28747D01*
X43577Y-28171D01*
X43527Y-28052D01*
X43436Y-27960D01*
X43316Y-27911D01*
X43187Y-27911D01*
X43068Y-27960D01*
X42976Y-28051D01*
X42927Y-28171D01*
X42926Y-28300D01*
X42976Y-28420D01*
X43067Y-28511D01*
X43187Y-28561D01*
X43316Y-28561D01*
X43435Y-28511D01*
X43527Y-28420D01*
X43576Y-28301D01*
X43577Y-28171D01*
X43577Y-28747D01*
X43570Y-28740D01*
X43450Y-28690D01*
X43321Y-28690D01*
X43201Y-28740D01*
X43110Y-28831D01*
X43060Y-28950D01*
X43060Y-29080D01*
X43110Y-29199D01*
X43201Y-29291D01*
X43320Y-29340D01*
X43450Y-29340D01*
X43569Y-29291D01*
X43661Y-29200D01*
X43710Y-29080D01*
X43710Y-28951D01*
X43710Y-31975D01*
X43689Y-31922D01*
X43597Y-31830D01*
X43478Y-31781D01*
X43349Y-31781D01*
X43229Y-31830D01*
X43138Y-31921D01*
X43088Y-32041D01*
X43088Y-32170D01*
X43137Y-32290D01*
X43229Y-32381D01*
X43348Y-32431D01*
X43477Y-32431D01*
X43597Y-32381D01*
X43688Y-32290D01*
X43738Y-32171D01*
X43738Y-32041D01*
X43738Y-34450D01*
X39628Y-34450D01*
X39628Y-28530D01*
X39578Y-28410D01*
X39487Y-28319D01*
X39368Y-28269D01*
X39238Y-28269D01*
X39119Y-28318D01*
X39027Y-28410D01*
X38978Y-28529D01*
X38978Y-28658D01*
X39027Y-28778D01*
X39118Y-28869D01*
X39238Y-28919D01*
X39367Y-28919D01*
X39487Y-28870D01*
X39578Y-28778D01*
X39628Y-28659D01*
X39628Y-28530D01*
X39628Y-34450D01*
X38006Y-34450D01*
X38006Y-32022D01*
X37956Y-31902D01*
X37865Y-31811D01*
X37746Y-31761D01*
X37616Y-31761D01*
X37497Y-31810D01*
X37405Y-31902D01*
X37356Y-32021D01*
X37356Y-32150D01*
X37405Y-32270D01*
X37496Y-32361D01*
X37616Y-32411D01*
X37745Y-32411D01*
X37864Y-32362D01*
X37956Y-32270D01*
X38006Y-32151D01*
X38006Y-32022D01*
X38006Y-34450D01*
X32860Y-34450D01*
X32860Y-32199D01*
X32811Y-32079D01*
X32719Y-31988D01*
X32600Y-31938D01*
X32471Y-31938D01*
X32351Y-31988D01*
X32260Y-32079D01*
X32210Y-32198D01*
X32210Y-32328D01*
X32259Y-32447D01*
X32351Y-32539D01*
X32470Y-32588D01*
X32599Y-32588D01*
X32719Y-32539D01*
X32810Y-32448D01*
X32860Y-32328D01*
X32860Y-32199D01*
X32860Y-34450D01*
X30800Y-34450D01*
X30800Y-31550D01*
X36050Y-31550D01*
X36050Y-30550D01*
X37050Y-30550D01*
X37050Y-28647D01*
X37072Y-28647D01*
X37191Y-28598D01*
X37283Y-28507D01*
X37332Y-28387D01*
X37332Y-28258D01*
X37283Y-28138D01*
X37192Y-28047D01*
X37072Y-27997D01*
X37050Y-27997D01*
X37050Y-18800D01*
X37396Y-18800D01*
X37405Y-18821D01*
X37496Y-18913D01*
X37616Y-18962D01*
X37745Y-18962D01*
X37864Y-18913D01*
X37956Y-18822D01*
X38006Y-18702D01*
X38006Y-18573D01*
X37956Y-18453D01*
X37865Y-18362D01*
X37800Y-18335D01*
X37800Y-16950D01*
X35550Y-16950D01*
X35550Y-16479D01*
X35270Y-16200D01*
X35229Y-16200D01*
X35229Y-15442D01*
X35000Y-15212D01*
X34770Y-15442D01*
X34803Y-15525D01*
X35019Y-15560D01*
X35196Y-15525D01*
X35229Y-15442D01*
X35229Y-16200D01*
X34550Y-16200D01*
X34550Y-15226D01*
X34557Y-15229D01*
X34787Y-15000D01*
X34557Y-14770D01*
X34550Y-14773D01*
X34550Y-12050D01*
X45450Y-12050D01*
X45450Y-16450D01*
X45325Y-16450D01*
X45325Y-14435D01*
X45275Y-14316D01*
X45184Y-14224D01*
X45064Y-14175D01*
X44935Y-14174D01*
X44816Y-14224D01*
X44724Y-14315D01*
X44675Y-14435D01*
X44674Y-14564D01*
X44724Y-14683D01*
X44815Y-14775D01*
X44935Y-14824D01*
X45064Y-14825D01*
X45183Y-14775D01*
X45275Y-14684D01*
X45324Y-14564D01*
X45325Y-14435D01*
X45325Y-16450D01*
X44325Y-16450D01*
X44325Y-14435D01*
X44275Y-14316D01*
X44184Y-14224D01*
X44064Y-14175D01*
X43935Y-14174D01*
X43816Y-14224D01*
X43724Y-14315D01*
X43675Y-14435D01*
X43674Y-14564D01*
X43724Y-14683D01*
X43815Y-14775D01*
X43935Y-14824D01*
X44064Y-14825D01*
X44183Y-14775D01*
X44275Y-14684D01*
X44324Y-14564D01*
X44325Y-14435D01*
X44325Y-16450D01*
X43550Y-16450D01*
X43550Y-14200D01*
X35450Y-14200D01*
X35450Y-14773D01*
X35442Y-14770D01*
X35229Y-14982D01*
X35229Y-14557D01*
X35196Y-14474D01*
X34980Y-14439D01*
X34803Y-14474D01*
X34770Y-14557D01*
X35000Y-14787D01*
X35229Y-14557D01*
X35229Y-14982D01*
X35212Y-15000D01*
X35442Y-15229D01*
X35450Y-15226D01*
X35450Y-16020D01*
X35979Y-16550D01*
X39270Y-16550D01*
X39520Y-16300D01*
X40700Y-16300D01*
X40700Y-18479D01*
X40479Y-18700D01*
X40447Y-18700D01*
X40447Y-18604D01*
X40397Y-18485D01*
X40306Y-18393D01*
X40186Y-18344D01*
X40057Y-18344D01*
X39938Y-18393D01*
X39846Y-18484D01*
X39797Y-18604D01*
X39797Y-18700D01*
X39479Y-18700D01*
X38943Y-19236D01*
X38943Y-17825D01*
X38893Y-17705D01*
X38802Y-17614D01*
X38683Y-17564D01*
X38553Y-17564D01*
X38434Y-17614D01*
X38342Y-17705D01*
X38293Y-17824D01*
X38293Y-17954D01*
X38342Y-18073D01*
X38433Y-18165D01*
X38553Y-18214D01*
X38682Y-18214D01*
X38801Y-18165D01*
X38893Y-18074D01*
X38943Y-17954D01*
X38943Y-17825D01*
X38943Y-19236D01*
X38450Y-19729D01*
X38450Y-20229D01*
X38352Y-20326D01*
X38326Y-20264D01*
X38235Y-20173D01*
X38116Y-20123D01*
X37986Y-20123D01*
X37867Y-20173D01*
X37775Y-20264D01*
X37726Y-20383D01*
X37726Y-20513D01*
X37775Y-20632D01*
X37866Y-20724D01*
X37929Y-20750D01*
X37700Y-20979D01*
X37700Y-22300D01*
X38200Y-22300D01*
X38200Y-25020D01*
X38744Y-25564D01*
X38682Y-25590D01*
X38590Y-25681D01*
X38541Y-25801D01*
X38541Y-25930D01*
X38590Y-26049D01*
X38681Y-26141D01*
X38801Y-26191D01*
X38930Y-26191D01*
X39049Y-26141D01*
X39141Y-26050D01*
X39167Y-25988D01*
X40729Y-27550D01*
X43479Y-27550D01*
X44229Y-28300D01*
X45450Y-28300D01*
X45450Y-34450D01*
X45450Y-34450D01*
G37*
G54D15*
X45450Y-34450D02*
X44864Y-34450D01*
X44864Y-31026D01*
X44815Y-30906D01*
X44723Y-30815D01*
X44604Y-30765D01*
X44475Y-30765D01*
X44355Y-30814D01*
X44264Y-30906D01*
X44214Y-31025D01*
X44214Y-31154D01*
X44263Y-31274D01*
X44355Y-31365D01*
X44474Y-31415D01*
X44603Y-31415D01*
X44723Y-31366D01*
X44814Y-31274D01*
X44864Y-31155D01*
X44864Y-31026D01*
X44864Y-34450D01*
X43738Y-34450D01*
X43738Y-32041D01*
X43710Y-31975D01*
X43710Y-28951D01*
X43661Y-28831D01*
X43577Y-28747D01*
X43577Y-28171D01*
X43527Y-28052D01*
X43436Y-27960D01*
X43316Y-27911D01*
X43187Y-27911D01*
X43068Y-27960D01*
X42976Y-28051D01*
X42927Y-28171D01*
X42926Y-28300D01*
X42976Y-28420D01*
X43067Y-28511D01*
X43187Y-28561D01*
X43316Y-28561D01*
X43435Y-28511D01*
X43527Y-28420D01*
X43576Y-28301D01*
X43577Y-28171D01*
X43577Y-28747D01*
X43570Y-28740D01*
X43450Y-28690D01*
X43321Y-28690D01*
X43201Y-28740D01*
X43110Y-28831D01*
X43060Y-28950D01*
X43060Y-29080D01*
X43110Y-29199D01*
X43201Y-29291D01*
X43320Y-29340D01*
X43450Y-29340D01*
X43569Y-29291D01*
X43661Y-29200D01*
X43710Y-29080D01*
X43710Y-28951D01*
X43710Y-31975D01*
X43689Y-31922D01*
X43597Y-31830D01*
X43478Y-31781D01*
X43349Y-31781D01*
X43229Y-31830D01*
X43138Y-31921D01*
X43088Y-32041D01*
X43088Y-32170D01*
X43137Y-32290D01*
X43229Y-32381D01*
X43348Y-32431D01*
X43477Y-32431D01*
X43597Y-32381D01*
X43688Y-32290D01*
X43738Y-32171D01*
X43738Y-32041D01*
X43738Y-34450D01*
X39628Y-34450D01*
X39628Y-28530D01*
X39578Y-28410D01*
X39487Y-28319D01*
X39368Y-28269D01*
X39238Y-28269D01*
X39119Y-28318D01*
X39027Y-28410D01*
X38978Y-28529D01*
X38978Y-28658D01*
X39027Y-28778D01*
X39118Y-28869D01*
X39238Y-28919D01*
X39367Y-28919D01*
X39487Y-28870D01*
X39578Y-28778D01*
X39628Y-28659D01*
X39628Y-28530D01*
X39628Y-34450D01*
X38006Y-34450D01*
X38006Y-32022D01*
X37956Y-31902D01*
X37865Y-31811D01*
X37746Y-31761D01*
X37616Y-31761D01*
X37497Y-31810D01*
X37405Y-31902D01*
X37356Y-32021D01*
X37356Y-32150D01*
X37405Y-32270D01*
X37496Y-32361D01*
X37616Y-32411D01*
X37745Y-32411D01*
X37864Y-32362D01*
X37956Y-32270D01*
X38006Y-32151D01*
X38006Y-32022D01*
X38006Y-34450D01*
X32860Y-34450D01*
X32860Y-32199D01*
X32811Y-32079D01*
X32719Y-31988D01*
X32600Y-31938D01*
X32471Y-31938D01*
X32351Y-31988D01*
X32260Y-32079D01*
X32210Y-32198D01*
X32210Y-32328D01*
X32259Y-32447D01*
X32351Y-32539D01*
X32470Y-32588D01*
X32599Y-32588D01*
X32719Y-32539D01*
X32810Y-32448D01*
X32860Y-32328D01*
X32860Y-32199D01*
X32860Y-34450D01*
X30800Y-34450D01*
X30800Y-31550D01*
X36050Y-31550D01*
X36050Y-30550D01*
X37050Y-30550D01*
X37050Y-28647D01*
X37072Y-28647D01*
X37191Y-28598D01*
X37283Y-28507D01*
X37332Y-28387D01*
X37332Y-28258D01*
X37283Y-28138D01*
X37192Y-28047D01*
X37072Y-27997D01*
X37050Y-27997D01*
X37050Y-18800D01*
X37396Y-18800D01*
X37405Y-18821D01*
X37496Y-18913D01*
X37616Y-18962D01*
X37745Y-18962D01*
X37864Y-18913D01*
X37956Y-18822D01*
X38006Y-18702D01*
X38006Y-18573D01*
X37956Y-18453D01*
X37865Y-18362D01*
X37800Y-18335D01*
X37800Y-16950D01*
X35550Y-16950D01*
X35550Y-16479D01*
X35270Y-16200D01*
X35229Y-16200D01*
X35229Y-15442D01*
X35000Y-15212D01*
X34770Y-15442D01*
X34803Y-15525D01*
X35019Y-15560D01*
X35196Y-15525D01*
X35229Y-15442D01*
X35229Y-16200D01*
X34550Y-16200D01*
X34550Y-15226D01*
X34557Y-15229D01*
X34787Y-15000D01*
X34557Y-14770D01*
X34550Y-14773D01*
X34550Y-12050D01*
X45450Y-12050D01*
X45450Y-16450D01*
X45325Y-16450D01*
X45325Y-14435D01*
X45275Y-14316D01*
X45184Y-14224D01*
X45064Y-14175D01*
X44935Y-14174D01*
X44816Y-14224D01*
X44724Y-14315D01*
X44675Y-14435D01*
X44674Y-14564D01*
X44724Y-14683D01*
X44815Y-14775D01*
X44935Y-14824D01*
X45064Y-14825D01*
X45183Y-14775D01*
X45275Y-14684D01*
X45324Y-14564D01*
X45325Y-14435D01*
X45325Y-16450D01*
X44325Y-16450D01*
X44325Y-14435D01*
X44275Y-14316D01*
X44184Y-14224D01*
X44064Y-14175D01*
X43935Y-14174D01*
X43816Y-14224D01*
X43724Y-14315D01*
X43675Y-14435D01*
X43674Y-14564D01*
X43724Y-14683D01*
X43815Y-14775D01*
X43935Y-14824D01*
X44064Y-14825D01*
X44183Y-14775D01*
X44275Y-14684D01*
X44324Y-14564D01*
X44325Y-14435D01*
X44325Y-16450D01*
X43550Y-16450D01*
X43550Y-14200D01*
X35450Y-14200D01*
X35450Y-14773D01*
X35442Y-14770D01*
X35229Y-14982D01*
X35229Y-14557D01*
X35196Y-14474D01*
X34980Y-14439D01*
X34803Y-14474D01*
X34770Y-14557D01*
X35000Y-14787D01*
X35229Y-14557D01*
X35229Y-14982D01*
X35212Y-15000D01*
X35442Y-15229D01*
X35450Y-15226D01*
X35450Y-16020D01*
X35979Y-16550D01*
X39270Y-16550D01*
X39520Y-16300D01*
X40700Y-16300D01*
X40700Y-18479D01*
X40479Y-18700D01*
X40447Y-18700D01*
X40447Y-18604D01*
X40397Y-18485D01*
X40306Y-18393D01*
X40186Y-18344D01*
X40057Y-18344D01*
X39938Y-18393D01*
X39846Y-18484D01*
X39797Y-18604D01*
X39797Y-18700D01*
X39479Y-18700D01*
X38943Y-19236D01*
X38943Y-17825D01*
X38893Y-17705D01*
X38802Y-17614D01*
X38683Y-17564D01*
X38553Y-17564D01*
X38434Y-17614D01*
X38342Y-17705D01*
X38293Y-17824D01*
X38293Y-17954D01*
X38342Y-18073D01*
X38433Y-18165D01*
X38553Y-18214D01*
X38682Y-18214D01*
X38801Y-18165D01*
X38893Y-18074D01*
X38943Y-17954D01*
X38943Y-17825D01*
X38943Y-19236D01*
X38450Y-19729D01*
X38450Y-20229D01*
X38352Y-20326D01*
X38326Y-20264D01*
X38235Y-20173D01*
X38116Y-20123D01*
X37986Y-20123D01*
X37867Y-20173D01*
X37775Y-20264D01*
X37726Y-20383D01*
X37726Y-20513D01*
X37775Y-20632D01*
X37866Y-20724D01*
X37929Y-20750D01*
X37700Y-20979D01*
X37700Y-22300D01*
X38200Y-22300D01*
X38200Y-25020D01*
X38744Y-25564D01*
X38682Y-25590D01*
X38590Y-25681D01*
X38541Y-25801D01*
X38541Y-25930D01*
X38590Y-26049D01*
X38681Y-26141D01*
X38801Y-26191D01*
X38930Y-26191D01*
X39049Y-26141D01*
X39141Y-26050D01*
X39167Y-25988D01*
X40729Y-27550D01*
X43479Y-27550D01*
X44229Y-28300D01*
X45450Y-28300D01*
X45450Y-34450D01*
G54D10*
G36*
X45450Y-27950D02*
X45009Y-27950D01*
X45025Y-27934D01*
X45074Y-27814D01*
X45075Y-27685D01*
X45025Y-27566D01*
X44974Y-27514D01*
X44974Y-20865D01*
X44954Y-20819D01*
X44954Y-19065D01*
X44905Y-18946D01*
X44814Y-18854D01*
X44694Y-18804D01*
X44565Y-18804D01*
X44446Y-18854D01*
X44354Y-18945D01*
X44321Y-19026D01*
X44321Y-18923D01*
X44271Y-18804D01*
X44180Y-18712D01*
X44060Y-18663D01*
X43931Y-18663D01*
X43812Y-18712D01*
X43720Y-18803D01*
X43671Y-18923D01*
X43671Y-19052D01*
X43720Y-19172D01*
X43811Y-19263D01*
X43931Y-19313D01*
X44060Y-19313D01*
X44179Y-19263D01*
X44271Y-19172D01*
X44304Y-19091D01*
X44304Y-19194D01*
X44354Y-19313D01*
X44445Y-19405D01*
X44564Y-19454D01*
X44694Y-19454D01*
X44813Y-19405D01*
X44905Y-19314D01*
X44954Y-19194D01*
X44954Y-19065D01*
X44954Y-20819D01*
X44924Y-20746D01*
X44833Y-20654D01*
X44713Y-20605D01*
X44635Y-20604D01*
X44635Y-20291D01*
X44585Y-20172D01*
X44494Y-20080D01*
X44374Y-20031D01*
X44245Y-20030D01*
X44126Y-20080D01*
X44034Y-20171D01*
X43985Y-20291D01*
X43984Y-20420D01*
X44034Y-20539D01*
X44125Y-20631D01*
X44245Y-20680D01*
X44374Y-20681D01*
X44493Y-20631D01*
X44585Y-20540D01*
X44634Y-20420D01*
X44635Y-20291D01*
X44635Y-20604D01*
X44584Y-20604D01*
X44465Y-20654D01*
X44373Y-20745D01*
X44324Y-20865D01*
X44323Y-20994D01*
X44373Y-21113D01*
X44464Y-21205D01*
X44584Y-21254D01*
X44713Y-21255D01*
X44832Y-21205D01*
X44924Y-21114D01*
X44973Y-20994D01*
X44974Y-20865D01*
X44974Y-27514D01*
X44966Y-27507D01*
X44966Y-22656D01*
X44917Y-22536D01*
X44826Y-22445D01*
X44706Y-22395D01*
X44577Y-22395D01*
X44457Y-22444D01*
X44366Y-22536D01*
X44316Y-22655D01*
X44316Y-22784D01*
X44366Y-22904D01*
X44457Y-22995D01*
X44576Y-23045D01*
X44706Y-23045D01*
X44825Y-22996D01*
X44917Y-22904D01*
X44966Y-22785D01*
X44966Y-22656D01*
X44966Y-27507D01*
X44934Y-27474D01*
X44814Y-27425D01*
X44685Y-27424D01*
X44566Y-27474D01*
X44474Y-27565D01*
X44425Y-27685D01*
X44424Y-27814D01*
X44474Y-27933D01*
X44490Y-27950D01*
X44270Y-27950D01*
X44025Y-27705D01*
X44025Y-24545D01*
X43976Y-24426D01*
X43885Y-24334D01*
X43825Y-24309D01*
X43825Y-20935D01*
X43775Y-20816D01*
X43684Y-20724D01*
X43659Y-20714D01*
X43659Y-20270D01*
X43610Y-20150D01*
X43518Y-20059D01*
X43399Y-20009D01*
X43270Y-20009D01*
X43150Y-20058D01*
X43059Y-20150D01*
X43009Y-20269D01*
X43009Y-20399D01*
X43058Y-20518D01*
X43150Y-20610D01*
X43269Y-20659D01*
X43399Y-20659D01*
X43518Y-20610D01*
X43610Y-20518D01*
X43659Y-20399D01*
X43659Y-20270D01*
X43659Y-20714D01*
X43564Y-20675D01*
X43435Y-20674D01*
X43316Y-20724D01*
X43224Y-20815D01*
X43175Y-20935D01*
X43174Y-21064D01*
X43224Y-21183D01*
X43315Y-21275D01*
X43435Y-21324D01*
X43564Y-21325D01*
X43683Y-21275D01*
X43775Y-21184D01*
X43824Y-21064D01*
X43825Y-20935D01*
X43825Y-24309D01*
X43765Y-24285D01*
X43636Y-24285D01*
X43516Y-24334D01*
X43425Y-24425D01*
X43375Y-24545D01*
X43375Y-24674D01*
X43425Y-24794D01*
X43516Y-24885D01*
X43635Y-24935D01*
X43765Y-24935D01*
X43884Y-24885D01*
X43976Y-24794D01*
X44025Y-24675D01*
X44025Y-24545D01*
X44025Y-27705D01*
X43520Y-27200D01*
X43439Y-27200D01*
X43439Y-26640D01*
X43389Y-26520D01*
X43344Y-26475D01*
X43344Y-23325D01*
X43295Y-23205D01*
X43204Y-23114D01*
X43084Y-23064D01*
X42955Y-23064D01*
X42835Y-23114D01*
X42744Y-23205D01*
X42694Y-23324D01*
X42694Y-23454D01*
X42744Y-23573D01*
X42835Y-23665D01*
X42954Y-23714D01*
X43084Y-23714D01*
X43203Y-23665D01*
X43295Y-23574D01*
X43344Y-23454D01*
X43344Y-23325D01*
X43344Y-26475D01*
X43298Y-26429D01*
X43179Y-26379D01*
X43049Y-26379D01*
X42930Y-26429D01*
X42838Y-26520D01*
X42789Y-26639D01*
X42789Y-26769D01*
X42838Y-26888D01*
X42929Y-26980D01*
X43049Y-27029D01*
X43178Y-27029D01*
X43298Y-26980D01*
X43389Y-26889D01*
X43439Y-26769D01*
X43439Y-26640D01*
X43439Y-27200D01*
X42659Y-27200D01*
X42659Y-22998D01*
X42610Y-22879D01*
X42518Y-22787D01*
X42458Y-22762D01*
X42458Y-22301D01*
X42409Y-22182D01*
X42318Y-22090D01*
X42198Y-22041D01*
X42069Y-22041D01*
X41950Y-22090D01*
X41858Y-22181D01*
X41808Y-22301D01*
X41808Y-22430D01*
X41858Y-22549D01*
X41949Y-22641D01*
X42068Y-22691D01*
X42198Y-22691D01*
X42317Y-22641D01*
X42409Y-22550D01*
X42458Y-22431D01*
X42458Y-22301D01*
X42458Y-22762D01*
X42399Y-22738D01*
X42270Y-22737D01*
X42150Y-22787D01*
X42059Y-22878D01*
X42009Y-22998D01*
X42009Y-23127D01*
X42058Y-23246D01*
X42150Y-23338D01*
X42269Y-23387D01*
X42399Y-23388D01*
X42518Y-23338D01*
X42610Y-23247D01*
X42659Y-23127D01*
X42659Y-22998D01*
X42659Y-27200D01*
X42199Y-27200D01*
X42199Y-25128D01*
X42149Y-25009D01*
X42125Y-24984D01*
X42125Y-24335D01*
X42075Y-24216D01*
X41984Y-24124D01*
X41864Y-24075D01*
X41735Y-24074D01*
X41616Y-24124D01*
X41616Y-21971D01*
X41567Y-21851D01*
X41475Y-21760D01*
X41356Y-21710D01*
X41226Y-21710D01*
X41107Y-21759D01*
X41015Y-21851D01*
X40966Y-21970D01*
X40966Y-22099D01*
X41015Y-22219D01*
X41107Y-22310D01*
X41226Y-22360D01*
X41355Y-22360D01*
X41475Y-22311D01*
X41566Y-22219D01*
X41616Y-22100D01*
X41616Y-21971D01*
X41616Y-24124D01*
X41616Y-24124D01*
X41524Y-24215D01*
X41475Y-24335D01*
X41474Y-24464D01*
X41524Y-24583D01*
X41615Y-24675D01*
X41735Y-24724D01*
X41864Y-24725D01*
X41983Y-24675D01*
X42075Y-24584D01*
X42124Y-24464D01*
X42125Y-24335D01*
X42125Y-24984D01*
X42058Y-24917D01*
X41938Y-24867D01*
X41809Y-24867D01*
X41690Y-24917D01*
X41598Y-25008D01*
X41549Y-25127D01*
X41548Y-25257D01*
X41598Y-25376D01*
X41689Y-25468D01*
X41809Y-25517D01*
X41938Y-25517D01*
X42057Y-25468D01*
X42149Y-25377D01*
X42198Y-25257D01*
X42199Y-25128D01*
X42199Y-27200D01*
X41125Y-27200D01*
X41125Y-24135D01*
X41075Y-24016D01*
X40984Y-23924D01*
X40954Y-23912D01*
X40954Y-22163D01*
X40905Y-22044D01*
X40814Y-21952D01*
X40694Y-21903D01*
X40565Y-21903D01*
X40446Y-21952D01*
X40354Y-22044D01*
X40304Y-22163D01*
X40304Y-22292D01*
X40354Y-22412D01*
X40445Y-22503D01*
X40564Y-22553D01*
X40694Y-22553D01*
X40813Y-22504D01*
X40905Y-22412D01*
X40954Y-22293D01*
X40954Y-22163D01*
X40954Y-23912D01*
X40864Y-23875D01*
X40735Y-23874D01*
X40616Y-23924D01*
X40524Y-24015D01*
X40475Y-24135D01*
X40474Y-24264D01*
X40524Y-24383D01*
X40615Y-24475D01*
X40735Y-24524D01*
X40864Y-24525D01*
X40983Y-24475D01*
X41075Y-24384D01*
X41124Y-24264D01*
X41125Y-24135D01*
X41125Y-27200D01*
X40770Y-27200D01*
X40325Y-26754D01*
X40325Y-24935D01*
X40275Y-24816D01*
X40184Y-24724D01*
X40075Y-24679D01*
X40075Y-20185D01*
X40025Y-20066D01*
X39934Y-19974D01*
X39814Y-19925D01*
X39685Y-19924D01*
X39566Y-19974D01*
X39474Y-20065D01*
X39425Y-20185D01*
X39424Y-20314D01*
X39474Y-20433D01*
X39565Y-20525D01*
X39685Y-20574D01*
X39814Y-20575D01*
X39933Y-20525D01*
X40025Y-20434D01*
X40074Y-20314D01*
X40075Y-20185D01*
X40075Y-24679D01*
X40064Y-24675D01*
X39935Y-24674D01*
X39816Y-24724D01*
X39724Y-24815D01*
X39699Y-24877D01*
X39699Y-21494D01*
X39649Y-21375D01*
X39558Y-21283D01*
X39498Y-21258D01*
X39498Y-20752D01*
X39448Y-20633D01*
X39357Y-20541D01*
X39238Y-20491D01*
X39108Y-20491D01*
X38989Y-20541D01*
X38897Y-20632D01*
X38848Y-20751D01*
X38848Y-20881D01*
X38897Y-21000D01*
X38988Y-21092D01*
X39108Y-21141D01*
X39237Y-21141D01*
X39357Y-21092D01*
X39448Y-21001D01*
X39498Y-20881D01*
X39498Y-20752D01*
X39498Y-21258D01*
X39438Y-21234D01*
X39309Y-21233D01*
X39190Y-21283D01*
X39098Y-21374D01*
X39049Y-21494D01*
X39048Y-21623D01*
X39098Y-21742D01*
X39189Y-21834D01*
X39309Y-21883D01*
X39438Y-21884D01*
X39557Y-21834D01*
X39649Y-21743D01*
X39698Y-21623D01*
X39699Y-21494D01*
X39699Y-24877D01*
X39675Y-24935D01*
X39674Y-25064D01*
X39724Y-25183D01*
X39815Y-25275D01*
X39935Y-25324D01*
X40064Y-25325D01*
X40183Y-25275D01*
X40275Y-25184D01*
X40324Y-25064D01*
X40325Y-24935D01*
X40325Y-26754D01*
X39267Y-25696D01*
X39335Y-25724D01*
X39464Y-25725D01*
X39583Y-25675D01*
X39675Y-25584D01*
X39724Y-25464D01*
X39725Y-25335D01*
X39675Y-25216D01*
X39584Y-25124D01*
X39464Y-25075D01*
X39335Y-25074D01*
X39216Y-25124D01*
X39124Y-25215D01*
X39075Y-25335D01*
X39074Y-25464D01*
X39103Y-25532D01*
X38550Y-24979D01*
X38550Y-24239D01*
X38635Y-24274D01*
X38764Y-24275D01*
X38883Y-24225D01*
X38975Y-24134D01*
X39024Y-24014D01*
X39025Y-23885D01*
X38975Y-23766D01*
X38884Y-23674D01*
X38764Y-23625D01*
X38635Y-23624D01*
X38550Y-23660D01*
X38550Y-21950D01*
X38050Y-21950D01*
X38050Y-21020D01*
X38800Y-20270D01*
X38800Y-19770D01*
X38866Y-19703D01*
X38897Y-19778D01*
X38988Y-19869D01*
X39108Y-19919D01*
X39237Y-19919D01*
X39357Y-19870D01*
X39448Y-19778D01*
X39498Y-19659D01*
X39498Y-19530D01*
X39448Y-19410D01*
X39357Y-19319D01*
X39282Y-19288D01*
X39520Y-19050D01*
X40520Y-19050D01*
X41050Y-18520D01*
X41050Y-15950D01*
X39479Y-15950D01*
X39229Y-16200D01*
X36020Y-16200D01*
X35800Y-15979D01*
X35800Y-15591D01*
X36275Y-16067D01*
X36459Y-15883D01*
X36116Y-15541D01*
X36196Y-15525D01*
X36229Y-15442D01*
X36000Y-15212D01*
X35893Y-15318D01*
X35800Y-15224D01*
X35800Y-14775D01*
X35893Y-14681D01*
X36000Y-14787D01*
X36229Y-14557D01*
X36226Y-14550D01*
X36910Y-14550D01*
X36745Y-14618D01*
X36618Y-14744D01*
X36550Y-14910D01*
X36550Y-14928D01*
X36525Y-14803D01*
X36442Y-14770D01*
X36212Y-15000D01*
X36442Y-15229D01*
X36525Y-15196D01*
X36549Y-15044D01*
X36549Y-15089D01*
X36618Y-15254D01*
X36744Y-15381D01*
X36910Y-15449D01*
X37089Y-15450D01*
X37254Y-15381D01*
X37381Y-15255D01*
X37449Y-15089D01*
X37450Y-14910D01*
X37381Y-14745D01*
X37255Y-14618D01*
X37089Y-14550D01*
X36999Y-14550D01*
X37910Y-14550D01*
X37745Y-14618D01*
X37618Y-14744D01*
X37550Y-14910D01*
X37549Y-15089D01*
X37618Y-15254D01*
X37744Y-15381D01*
X37910Y-15449D01*
X38089Y-15450D01*
X38254Y-15381D01*
X38381Y-15255D01*
X38449Y-15089D01*
X38450Y-14910D01*
X38381Y-14745D01*
X38255Y-14618D01*
X38089Y-14550D01*
X37999Y-14550D01*
X38910Y-14550D01*
X38745Y-14618D01*
X38618Y-14744D01*
X38550Y-14910D01*
X38549Y-15089D01*
X38618Y-15254D01*
X38744Y-15381D01*
X38910Y-15449D01*
X39089Y-15450D01*
X39254Y-15381D01*
X39381Y-15255D01*
X39449Y-15089D01*
X39450Y-14910D01*
X39381Y-14745D01*
X39255Y-14618D01*
X39089Y-14550D01*
X38999Y-14550D01*
X39910Y-14550D01*
X39745Y-14618D01*
X39618Y-14744D01*
X39550Y-14910D01*
X39549Y-15089D01*
X39618Y-15254D01*
X39744Y-15381D01*
X39910Y-15449D01*
X40089Y-15450D01*
X40254Y-15381D01*
X40381Y-15255D01*
X40449Y-15089D01*
X40450Y-14910D01*
X40381Y-14745D01*
X40255Y-14618D01*
X40089Y-14550D01*
X39999Y-14550D01*
X40670Y-14550D01*
X40615Y-14572D01*
X40572Y-14614D01*
X40550Y-14670D01*
X40549Y-14729D01*
X40549Y-15329D01*
X40572Y-15384D01*
X40614Y-15427D01*
X40670Y-15449D01*
X40729Y-15450D01*
X41329Y-15450D01*
X41384Y-15427D01*
X41427Y-15385D01*
X41449Y-15329D01*
X41450Y-15270D01*
X41450Y-14670D01*
X41427Y-14615D01*
X41385Y-14572D01*
X41329Y-14550D01*
X41300Y-14550D01*
X43200Y-14550D01*
X43200Y-16240D01*
X43184Y-16224D01*
X43064Y-16175D01*
X42935Y-16174D01*
X42816Y-16224D01*
X42724Y-16315D01*
X42675Y-16435D01*
X42674Y-16564D01*
X42724Y-16683D01*
X42815Y-16775D01*
X42935Y-16824D01*
X43064Y-16825D01*
X43183Y-16775D01*
X43200Y-16759D01*
X43200Y-16800D01*
X45450Y-16800D01*
X45450Y-27950D01*
X45450Y-27950D01*
G37*
G54D15*
X45450Y-27950D02*
X45009Y-27950D01*
X45025Y-27934D01*
X45074Y-27814D01*
X45075Y-27685D01*
X45025Y-27566D01*
X44974Y-27514D01*
X44974Y-20865D01*
X44954Y-20819D01*
X44954Y-19065D01*
X44905Y-18946D01*
X44814Y-18854D01*
X44694Y-18804D01*
X44565Y-18804D01*
X44446Y-18854D01*
X44354Y-18945D01*
X44321Y-19026D01*
X44321Y-18923D01*
X44271Y-18804D01*
X44180Y-18712D01*
X44060Y-18663D01*
X43931Y-18663D01*
X43812Y-18712D01*
X43720Y-18803D01*
X43671Y-18923D01*
X43671Y-19052D01*
X43720Y-19172D01*
X43811Y-19263D01*
X43931Y-19313D01*
X44060Y-19313D01*
X44179Y-19263D01*
X44271Y-19172D01*
X44304Y-19091D01*
X44304Y-19194D01*
X44354Y-19313D01*
X44445Y-19405D01*
X44564Y-19454D01*
X44694Y-19454D01*
X44813Y-19405D01*
X44905Y-19314D01*
X44954Y-19194D01*
X44954Y-19065D01*
X44954Y-20819D01*
X44924Y-20746D01*
X44833Y-20654D01*
X44713Y-20605D01*
X44635Y-20604D01*
X44635Y-20291D01*
X44585Y-20172D01*
X44494Y-20080D01*
X44374Y-20031D01*
X44245Y-20030D01*
X44126Y-20080D01*
X44034Y-20171D01*
X43985Y-20291D01*
X43984Y-20420D01*
X44034Y-20539D01*
X44125Y-20631D01*
X44245Y-20680D01*
X44374Y-20681D01*
X44493Y-20631D01*
X44585Y-20540D01*
X44634Y-20420D01*
X44635Y-20291D01*
X44635Y-20604D01*
X44584Y-20604D01*
X44465Y-20654D01*
X44373Y-20745D01*
X44324Y-20865D01*
X44323Y-20994D01*
X44373Y-21113D01*
X44464Y-21205D01*
X44584Y-21254D01*
X44713Y-21255D01*
X44832Y-21205D01*
X44924Y-21114D01*
X44973Y-20994D01*
X44974Y-20865D01*
X44974Y-27514D01*
X44966Y-27507D01*
X44966Y-22656D01*
X44917Y-22536D01*
X44826Y-22445D01*
X44706Y-22395D01*
X44577Y-22395D01*
X44457Y-22444D01*
X44366Y-22536D01*
X44316Y-22655D01*
X44316Y-22784D01*
X44366Y-22904D01*
X44457Y-22995D01*
X44576Y-23045D01*
X44706Y-23045D01*
X44825Y-22996D01*
X44917Y-22904D01*
X44966Y-22785D01*
X44966Y-22656D01*
X44966Y-27507D01*
X44934Y-27474D01*
X44814Y-27425D01*
X44685Y-27424D01*
X44566Y-27474D01*
X44474Y-27565D01*
X44425Y-27685D01*
X44424Y-27814D01*
X44474Y-27933D01*
X44490Y-27950D01*
X44270Y-27950D01*
X44025Y-27705D01*
X44025Y-24545D01*
X43976Y-24426D01*
X43885Y-24334D01*
X43825Y-24309D01*
X43825Y-20935D01*
X43775Y-20816D01*
X43684Y-20724D01*
X43659Y-20714D01*
X43659Y-20270D01*
X43610Y-20150D01*
X43518Y-20059D01*
X43399Y-20009D01*
X43270Y-20009D01*
X43150Y-20058D01*
X43059Y-20150D01*
X43009Y-20269D01*
X43009Y-20399D01*
X43058Y-20518D01*
X43150Y-20610D01*
X43269Y-20659D01*
X43399Y-20659D01*
X43518Y-20610D01*
X43610Y-20518D01*
X43659Y-20399D01*
X43659Y-20270D01*
X43659Y-20714D01*
X43564Y-20675D01*
X43435Y-20674D01*
X43316Y-20724D01*
X43224Y-20815D01*
X43175Y-20935D01*
X43174Y-21064D01*
X43224Y-21183D01*
X43315Y-21275D01*
X43435Y-21324D01*
X43564Y-21325D01*
X43683Y-21275D01*
X43775Y-21184D01*
X43824Y-21064D01*
X43825Y-20935D01*
X43825Y-24309D01*
X43765Y-24285D01*
X43636Y-24285D01*
X43516Y-24334D01*
X43425Y-24425D01*
X43375Y-24545D01*
X43375Y-24674D01*
X43425Y-24794D01*
X43516Y-24885D01*
X43635Y-24935D01*
X43765Y-24935D01*
X43884Y-24885D01*
X43976Y-24794D01*
X44025Y-24675D01*
X44025Y-24545D01*
X44025Y-27705D01*
X43520Y-27200D01*
X43439Y-27200D01*
X43439Y-26640D01*
X43389Y-26520D01*
X43344Y-26475D01*
X43344Y-23325D01*
X43295Y-23205D01*
X43204Y-23114D01*
X43084Y-23064D01*
X42955Y-23064D01*
X42835Y-23114D01*
X42744Y-23205D01*
X42694Y-23324D01*
X42694Y-23454D01*
X42744Y-23573D01*
X42835Y-23665D01*
X42954Y-23714D01*
X43084Y-23714D01*
X43203Y-23665D01*
X43295Y-23574D01*
X43344Y-23454D01*
X43344Y-23325D01*
X43344Y-26475D01*
X43298Y-26429D01*
X43179Y-26379D01*
X43049Y-26379D01*
X42930Y-26429D01*
X42838Y-26520D01*
X42789Y-26639D01*
X42789Y-26769D01*
X42838Y-26888D01*
X42929Y-26980D01*
X43049Y-27029D01*
X43178Y-27029D01*
X43298Y-26980D01*
X43389Y-26889D01*
X43439Y-26769D01*
X43439Y-26640D01*
X43439Y-27200D01*
X42659Y-27200D01*
X42659Y-22998D01*
X42610Y-22879D01*
X42518Y-22787D01*
X42458Y-22762D01*
X42458Y-22301D01*
X42409Y-22182D01*
X42318Y-22090D01*
X42198Y-22041D01*
X42069Y-22041D01*
X41950Y-22090D01*
X41858Y-22181D01*
X41808Y-22301D01*
X41808Y-22430D01*
X41858Y-22549D01*
X41949Y-22641D01*
X42068Y-22691D01*
X42198Y-22691D01*
X42317Y-22641D01*
X42409Y-22550D01*
X42458Y-22431D01*
X42458Y-22301D01*
X42458Y-22762D01*
X42399Y-22738D01*
X42270Y-22737D01*
X42150Y-22787D01*
X42059Y-22878D01*
X42009Y-22998D01*
X42009Y-23127D01*
X42058Y-23246D01*
X42150Y-23338D01*
X42269Y-23387D01*
X42399Y-23388D01*
X42518Y-23338D01*
X42610Y-23247D01*
X42659Y-23127D01*
X42659Y-22998D01*
X42659Y-27200D01*
X42199Y-27200D01*
X42199Y-25128D01*
X42149Y-25009D01*
X42125Y-24984D01*
X42125Y-24335D01*
X42075Y-24216D01*
X41984Y-24124D01*
X41864Y-24075D01*
X41735Y-24074D01*
X41616Y-24124D01*
X41616Y-21971D01*
X41567Y-21851D01*
X41475Y-21760D01*
X41356Y-21710D01*
X41226Y-21710D01*
X41107Y-21759D01*
X41015Y-21851D01*
X40966Y-21970D01*
X40966Y-22099D01*
X41015Y-22219D01*
X41107Y-22310D01*
X41226Y-22360D01*
X41355Y-22360D01*
X41475Y-22311D01*
X41566Y-22219D01*
X41616Y-22100D01*
X41616Y-21971D01*
X41616Y-24124D01*
X41616Y-24124D01*
X41524Y-24215D01*
X41475Y-24335D01*
X41474Y-24464D01*
X41524Y-24583D01*
X41615Y-24675D01*
X41735Y-24724D01*
X41864Y-24725D01*
X41983Y-24675D01*
X42075Y-24584D01*
X42124Y-24464D01*
X42125Y-24335D01*
X42125Y-24984D01*
X42058Y-24917D01*
X41938Y-24867D01*
X41809Y-24867D01*
X41690Y-24917D01*
X41598Y-25008D01*
X41549Y-25127D01*
X41548Y-25257D01*
X41598Y-25376D01*
X41689Y-25468D01*
X41809Y-25517D01*
X41938Y-25517D01*
X42057Y-25468D01*
X42149Y-25377D01*
X42198Y-25257D01*
X42199Y-25128D01*
X42199Y-27200D01*
X41125Y-27200D01*
X41125Y-24135D01*
X41075Y-24016D01*
X40984Y-23924D01*
X40954Y-23912D01*
X40954Y-22163D01*
X40905Y-22044D01*
X40814Y-21952D01*
X40694Y-21903D01*
X40565Y-21903D01*
X40446Y-21952D01*
X40354Y-22044D01*
X40304Y-22163D01*
X40304Y-22292D01*
X40354Y-22412D01*
X40445Y-22503D01*
X40564Y-22553D01*
X40694Y-22553D01*
X40813Y-22504D01*
X40905Y-22412D01*
X40954Y-22293D01*
X40954Y-22163D01*
X40954Y-23912D01*
X40864Y-23875D01*
X40735Y-23874D01*
X40616Y-23924D01*
X40524Y-24015D01*
X40475Y-24135D01*
X40474Y-24264D01*
X40524Y-24383D01*
X40615Y-24475D01*
X40735Y-24524D01*
X40864Y-24525D01*
X40983Y-24475D01*
X41075Y-24384D01*
X41124Y-24264D01*
X41125Y-24135D01*
X41125Y-27200D01*
X40770Y-27200D01*
X40325Y-26754D01*
X40325Y-24935D01*
X40275Y-24816D01*
X40184Y-24724D01*
X40075Y-24679D01*
X40075Y-20185D01*
X40025Y-20066D01*
X39934Y-19974D01*
X39814Y-19925D01*
X39685Y-19924D01*
X39566Y-19974D01*
X39474Y-20065D01*
X39425Y-20185D01*
X39424Y-20314D01*
X39474Y-20433D01*
X39565Y-20525D01*
X39685Y-20574D01*
X39814Y-20575D01*
X39933Y-20525D01*
X40025Y-20434D01*
X40074Y-20314D01*
X40075Y-20185D01*
X40075Y-24679D01*
X40064Y-24675D01*
X39935Y-24674D01*
X39816Y-24724D01*
X39724Y-24815D01*
X39699Y-24877D01*
X39699Y-21494D01*
X39649Y-21375D01*
X39558Y-21283D01*
X39498Y-21258D01*
X39498Y-20752D01*
X39448Y-20633D01*
X39357Y-20541D01*
X39238Y-20491D01*
X39108Y-20491D01*
X38989Y-20541D01*
X38897Y-20632D01*
X38848Y-20751D01*
X38848Y-20881D01*
X38897Y-21000D01*
X38988Y-21092D01*
X39108Y-21141D01*
X39237Y-21141D01*
X39357Y-21092D01*
X39448Y-21001D01*
X39498Y-20881D01*
X39498Y-20752D01*
X39498Y-21258D01*
X39438Y-21234D01*
X39309Y-21233D01*
X39190Y-21283D01*
X39098Y-21374D01*
X39049Y-21494D01*
X39048Y-21623D01*
X39098Y-21742D01*
X39189Y-21834D01*
X39309Y-21883D01*
X39438Y-21884D01*
X39557Y-21834D01*
X39649Y-21743D01*
X39698Y-21623D01*
X39699Y-21494D01*
X39699Y-24877D01*
X39675Y-24935D01*
X39674Y-25064D01*
X39724Y-25183D01*
X39815Y-25275D01*
X39935Y-25324D01*
X40064Y-25325D01*
X40183Y-25275D01*
X40275Y-25184D01*
X40324Y-25064D01*
X40325Y-24935D01*
X40325Y-26754D01*
X39267Y-25696D01*
X39335Y-25724D01*
X39464Y-25725D01*
X39583Y-25675D01*
X39675Y-25584D01*
X39724Y-25464D01*
X39725Y-25335D01*
X39675Y-25216D01*
X39584Y-25124D01*
X39464Y-25075D01*
X39335Y-25074D01*
X39216Y-25124D01*
X39124Y-25215D01*
X39075Y-25335D01*
X39074Y-25464D01*
X39103Y-25532D01*
X38550Y-24979D01*
X38550Y-24239D01*
X38635Y-24274D01*
X38764Y-24275D01*
X38883Y-24225D01*
X38975Y-24134D01*
X39024Y-24014D01*
X39025Y-23885D01*
X38975Y-23766D01*
X38884Y-23674D01*
X38764Y-23625D01*
X38635Y-23624D01*
X38550Y-23660D01*
X38550Y-21950D01*
X38050Y-21950D01*
X38050Y-21020D01*
X38800Y-20270D01*
X38800Y-19770D01*
X38866Y-19703D01*
X38897Y-19778D01*
X38988Y-19869D01*
X39108Y-19919D01*
X39237Y-19919D01*
X39357Y-19870D01*
X39448Y-19778D01*
X39498Y-19659D01*
X39498Y-19530D01*
X39448Y-19410D01*
X39357Y-19319D01*
X39282Y-19288D01*
X39520Y-19050D01*
X40520Y-19050D01*
X41050Y-18520D01*
X41050Y-15950D01*
X39479Y-15950D01*
X39229Y-16200D01*
X36020Y-16200D01*
X35800Y-15979D01*
X35800Y-15591D01*
X36275Y-16067D01*
X36459Y-15883D01*
X36116Y-15541D01*
X36196Y-15525D01*
X36229Y-15442D01*
X36000Y-15212D01*
X35893Y-15318D01*
X35800Y-15224D01*
X35800Y-14775D01*
X35893Y-14681D01*
X36000Y-14787D01*
X36229Y-14557D01*
X36226Y-14550D01*
X36910Y-14550D01*
X36745Y-14618D01*
X36618Y-14744D01*
X36550Y-14910D01*
X36550Y-14928D01*
X36525Y-14803D01*
X36442Y-14770D01*
X36212Y-15000D01*
X36442Y-15229D01*
X36525Y-15196D01*
X36549Y-15044D01*
X36549Y-15089D01*
X36618Y-15254D01*
X36744Y-15381D01*
X36910Y-15449D01*
X37089Y-15450D01*
X37254Y-15381D01*
X37381Y-15255D01*
X37449Y-15089D01*
X37450Y-14910D01*
X37381Y-14745D01*
X37255Y-14618D01*
X37089Y-14550D01*
X36999Y-14550D01*
X37910Y-14550D01*
X37745Y-14618D01*
X37618Y-14744D01*
X37550Y-14910D01*
X37549Y-15089D01*
X37618Y-15254D01*
X37744Y-15381D01*
X37910Y-15449D01*
X38089Y-15450D01*
X38254Y-15381D01*
X38381Y-15255D01*
X38449Y-15089D01*
X38450Y-14910D01*
X38381Y-14745D01*
X38255Y-14618D01*
X38089Y-14550D01*
X37999Y-14550D01*
X38910Y-14550D01*
X38745Y-14618D01*
X38618Y-14744D01*
X38550Y-14910D01*
X38549Y-15089D01*
X38618Y-15254D01*
X38744Y-15381D01*
X38910Y-15449D01*
X39089Y-15450D01*
X39254Y-15381D01*
X39381Y-15255D01*
X39449Y-15089D01*
X39450Y-14910D01*
X39381Y-14745D01*
X39255Y-14618D01*
X39089Y-14550D01*
X38999Y-14550D01*
X39910Y-14550D01*
X39745Y-14618D01*
X39618Y-14744D01*
X39550Y-14910D01*
X39549Y-15089D01*
X39618Y-15254D01*
X39744Y-15381D01*
X39910Y-15449D01*
X40089Y-15450D01*
X40254Y-15381D01*
X40381Y-15255D01*
X40449Y-15089D01*
X40450Y-14910D01*
X40381Y-14745D01*
X40255Y-14618D01*
X40089Y-14550D01*
X39999Y-14550D01*
X40670Y-14550D01*
X40615Y-14572D01*
X40572Y-14614D01*
X40550Y-14670D01*
X40549Y-14729D01*
X40549Y-15329D01*
X40572Y-15384D01*
X40614Y-15427D01*
X40670Y-15449D01*
X40729Y-15450D01*
X41329Y-15450D01*
X41384Y-15427D01*
X41427Y-15385D01*
X41449Y-15329D01*
X41450Y-15270D01*
X41450Y-14670D01*
X41427Y-14615D01*
X41385Y-14572D01*
X41329Y-14550D01*
X41300Y-14550D01*
X43200Y-14550D01*
X43200Y-16240D01*
X43184Y-16224D01*
X43064Y-16175D01*
X42935Y-16174D01*
X42816Y-16224D01*
X42724Y-16315D01*
X42675Y-16435D01*
X42674Y-16564D01*
X42724Y-16683D01*
X42815Y-16775D01*
X42935Y-16824D01*
X43064Y-16825D01*
X43183Y-16775D01*
X43200Y-16759D01*
X43200Y-16800D01*
X45450Y-16800D01*
X45450Y-27950D01*
G54D10*
G36*
X71950Y-34450D02*
X71775Y-34450D01*
X71775Y-33346D01*
X71657Y-33061D01*
X71450Y-32853D01*
X71450Y-27910D01*
X71450Y-26910D01*
X71450Y-25910D01*
X71450Y-24910D01*
X71450Y-23910D01*
X71450Y-22910D01*
X71450Y-21910D01*
X71450Y-20910D01*
X71450Y-18910D01*
X71450Y-17910D01*
X71450Y-16910D01*
X71450Y-15910D01*
X71450Y-14910D01*
X71450Y-13910D01*
X71381Y-13745D01*
X71255Y-13618D01*
X71089Y-13550D01*
X70910Y-13549D01*
X70745Y-13618D01*
X70618Y-13744D01*
X70550Y-13910D01*
X70549Y-14089D01*
X70618Y-14254D01*
X70744Y-14381D01*
X70910Y-14449D01*
X71089Y-14450D01*
X71254Y-14381D01*
X71381Y-14255D01*
X71449Y-14089D01*
X71450Y-13910D01*
X71450Y-14910D01*
X71381Y-14745D01*
X71255Y-14618D01*
X71089Y-14550D01*
X70910Y-14549D01*
X70745Y-14618D01*
X70618Y-14744D01*
X70550Y-14910D01*
X70549Y-15089D01*
X70618Y-15254D01*
X70744Y-15381D01*
X70910Y-15449D01*
X71089Y-15450D01*
X71254Y-15381D01*
X71381Y-15255D01*
X71449Y-15089D01*
X71450Y-14910D01*
X71450Y-15910D01*
X71381Y-15745D01*
X71255Y-15618D01*
X71089Y-15550D01*
X70910Y-15549D01*
X70745Y-15618D01*
X70618Y-15744D01*
X70550Y-15910D01*
X70549Y-16089D01*
X70618Y-16254D01*
X70744Y-16381D01*
X70910Y-16449D01*
X71089Y-16450D01*
X71254Y-16381D01*
X71381Y-16255D01*
X71449Y-16089D01*
X71450Y-15910D01*
X71450Y-16910D01*
X71381Y-16745D01*
X71255Y-16618D01*
X71089Y-16550D01*
X70910Y-16549D01*
X70745Y-16618D01*
X70618Y-16744D01*
X70550Y-16910D01*
X70549Y-17089D01*
X70618Y-17254D01*
X70744Y-17381D01*
X70910Y-17449D01*
X71089Y-17450D01*
X71254Y-17381D01*
X71381Y-17255D01*
X71449Y-17089D01*
X71450Y-16910D01*
X71450Y-17910D01*
X71381Y-17745D01*
X71255Y-17618D01*
X71089Y-17550D01*
X70910Y-17549D01*
X70745Y-17618D01*
X70618Y-17744D01*
X70550Y-17910D01*
X70549Y-18089D01*
X70618Y-18254D01*
X70744Y-18381D01*
X70910Y-18449D01*
X71089Y-18450D01*
X71254Y-18381D01*
X71381Y-18255D01*
X71449Y-18089D01*
X71450Y-17910D01*
X71450Y-18910D01*
X71381Y-18745D01*
X71255Y-18618D01*
X71089Y-18550D01*
X70910Y-18549D01*
X70745Y-18618D01*
X70618Y-18744D01*
X70550Y-18910D01*
X70549Y-19089D01*
X70618Y-19254D01*
X70744Y-19381D01*
X70910Y-19449D01*
X71089Y-19450D01*
X71254Y-19381D01*
X71381Y-19255D01*
X71449Y-19089D01*
X71450Y-18910D01*
X71450Y-20910D01*
X71381Y-20745D01*
X71255Y-20618D01*
X71089Y-20550D01*
X70910Y-20549D01*
X70745Y-20618D01*
X70618Y-20744D01*
X70550Y-20910D01*
X70549Y-21089D01*
X70618Y-21254D01*
X70744Y-21381D01*
X70910Y-21449D01*
X71089Y-21450D01*
X71254Y-21381D01*
X71381Y-21255D01*
X71449Y-21089D01*
X71450Y-20910D01*
X71450Y-21910D01*
X71381Y-21745D01*
X71255Y-21618D01*
X71089Y-21550D01*
X70910Y-21549D01*
X70745Y-21618D01*
X70618Y-21744D01*
X70550Y-21910D01*
X70549Y-22089D01*
X70618Y-22254D01*
X70744Y-22381D01*
X70910Y-22449D01*
X71089Y-22450D01*
X71254Y-22381D01*
X71381Y-22255D01*
X71449Y-22089D01*
X71450Y-21910D01*
X71450Y-22910D01*
X71381Y-22745D01*
X71255Y-22618D01*
X71089Y-22550D01*
X70910Y-22549D01*
X70745Y-22618D01*
X70618Y-22744D01*
X70550Y-22910D01*
X70549Y-23089D01*
X70618Y-23254D01*
X70744Y-23381D01*
X70910Y-23449D01*
X71089Y-23450D01*
X71254Y-23381D01*
X71381Y-23255D01*
X71449Y-23089D01*
X71450Y-22910D01*
X71450Y-23910D01*
X71381Y-23745D01*
X71255Y-23618D01*
X71089Y-23550D01*
X70910Y-23549D01*
X70745Y-23618D01*
X70618Y-23744D01*
X70550Y-23910D01*
X70549Y-24089D01*
X70618Y-24254D01*
X70744Y-24381D01*
X70910Y-24449D01*
X71089Y-24450D01*
X71254Y-24381D01*
X71381Y-24255D01*
X71449Y-24089D01*
X71450Y-23910D01*
X71450Y-24910D01*
X71381Y-24745D01*
X71255Y-24618D01*
X71089Y-24550D01*
X70910Y-24549D01*
X70745Y-24618D01*
X70618Y-24744D01*
X70550Y-24910D01*
X70549Y-25089D01*
X70618Y-25254D01*
X70744Y-25381D01*
X70910Y-25449D01*
X71089Y-25450D01*
X71254Y-25381D01*
X71381Y-25255D01*
X71449Y-25089D01*
X71450Y-24910D01*
X71450Y-25910D01*
X71381Y-25745D01*
X71255Y-25618D01*
X71089Y-25550D01*
X70910Y-25549D01*
X70745Y-25618D01*
X70618Y-25744D01*
X70550Y-25910D01*
X70549Y-26089D01*
X70618Y-26254D01*
X70744Y-26381D01*
X70910Y-26449D01*
X71089Y-26450D01*
X71254Y-26381D01*
X71381Y-26255D01*
X71449Y-26089D01*
X71450Y-25910D01*
X71450Y-26910D01*
X71381Y-26745D01*
X71255Y-26618D01*
X71089Y-26550D01*
X70910Y-26549D01*
X70745Y-26618D01*
X70618Y-26744D01*
X70550Y-26910D01*
X70549Y-27089D01*
X70618Y-27254D01*
X70744Y-27381D01*
X70910Y-27449D01*
X71089Y-27450D01*
X71254Y-27381D01*
X71381Y-27255D01*
X71449Y-27089D01*
X71450Y-26910D01*
X71450Y-27910D01*
X71381Y-27745D01*
X71255Y-27618D01*
X71089Y-27550D01*
X70910Y-27549D01*
X70745Y-27618D01*
X70618Y-27744D01*
X70550Y-27910D01*
X70549Y-28089D01*
X70618Y-28254D01*
X70744Y-28381D01*
X70910Y-28449D01*
X71089Y-28450D01*
X71254Y-28381D01*
X71381Y-28255D01*
X71449Y-28089D01*
X71450Y-27910D01*
X71450Y-32853D01*
X71439Y-32843D01*
X71154Y-32725D01*
X70846Y-32724D01*
X70561Y-32842D01*
X70343Y-33060D01*
X70225Y-33345D01*
X70224Y-33653D01*
X70342Y-33938D01*
X70560Y-34156D01*
X70845Y-34274D01*
X71153Y-34275D01*
X71438Y-34157D01*
X71656Y-33939D01*
X71774Y-33654D01*
X71775Y-33346D01*
X71775Y-34450D01*
X69825Y-34450D01*
X69825Y-28685D01*
X69775Y-28566D01*
X69775Y-28565D01*
X69775Y-12846D01*
X69657Y-12561D01*
X69439Y-12343D01*
X69154Y-12225D01*
X68846Y-12224D01*
X68561Y-12342D01*
X68343Y-12560D01*
X68225Y-12845D01*
X68224Y-13153D01*
X68342Y-13438D01*
X68560Y-13656D01*
X68845Y-13774D01*
X69153Y-13775D01*
X69438Y-13657D01*
X69656Y-13439D01*
X69774Y-13154D01*
X69775Y-12846D01*
X69775Y-28565D01*
X69684Y-28474D01*
X69564Y-28425D01*
X69435Y-28424D01*
X69316Y-28474D01*
X69224Y-28565D01*
X69175Y-28685D01*
X69174Y-28814D01*
X69224Y-28933D01*
X69315Y-29025D01*
X69435Y-29074D01*
X69564Y-29075D01*
X69683Y-29025D01*
X69775Y-28934D01*
X69824Y-28814D01*
X69825Y-28685D01*
X69825Y-34450D01*
X68958Y-34450D01*
X68958Y-30947D01*
X68909Y-30827D01*
X68818Y-30736D01*
X68698Y-30686D01*
X68569Y-30686D01*
X68450Y-30736D01*
X68358Y-30827D01*
X68308Y-30946D01*
X68308Y-31076D01*
X68358Y-31195D01*
X68449Y-31287D01*
X68568Y-31336D01*
X68698Y-31336D01*
X68817Y-31287D01*
X68909Y-31196D01*
X68958Y-31076D01*
X68958Y-30947D01*
X68958Y-34450D01*
X67254Y-34450D01*
X67254Y-22376D01*
X67204Y-22257D01*
X67113Y-22165D01*
X66994Y-22116D01*
X66864Y-22115D01*
X66745Y-22165D01*
X66653Y-22256D01*
X66604Y-22376D01*
X66604Y-22505D01*
X66653Y-22624D01*
X66744Y-22716D01*
X66864Y-22765D01*
X66993Y-22766D01*
X67112Y-22716D01*
X67204Y-22625D01*
X67254Y-22505D01*
X67254Y-22376D01*
X67254Y-34450D01*
X67151Y-34450D01*
X67151Y-27175D01*
X67102Y-27056D01*
X67011Y-26964D01*
X66891Y-26915D01*
X66762Y-26915D01*
X66642Y-26964D01*
X66575Y-27032D01*
X66575Y-18685D01*
X66525Y-18566D01*
X66434Y-18474D01*
X66314Y-18425D01*
X66185Y-18424D01*
X66066Y-18474D01*
X65974Y-18565D01*
X65925Y-18685D01*
X65924Y-18814D01*
X65974Y-18933D01*
X66065Y-19025D01*
X66185Y-19074D01*
X66314Y-19075D01*
X66433Y-19025D01*
X66525Y-18934D01*
X66574Y-18814D01*
X66575Y-18685D01*
X66575Y-27032D01*
X66551Y-27055D01*
X66501Y-27175D01*
X66501Y-27304D01*
X66551Y-27424D01*
X66642Y-27515D01*
X66761Y-27565D01*
X66891Y-27565D01*
X67010Y-27515D01*
X67102Y-27424D01*
X67151Y-27305D01*
X67151Y-27175D01*
X67151Y-34450D01*
X66325Y-34450D01*
X66325Y-22685D01*
X66275Y-22566D01*
X66184Y-22474D01*
X66064Y-22425D01*
X65935Y-22424D01*
X65816Y-22474D01*
X65724Y-22565D01*
X65675Y-22685D01*
X65674Y-22814D01*
X65724Y-22933D01*
X65815Y-23025D01*
X65935Y-23074D01*
X66064Y-23075D01*
X66183Y-23025D01*
X66275Y-22934D01*
X66324Y-22814D01*
X66325Y-22685D01*
X66325Y-34450D01*
X65075Y-34450D01*
X65075Y-25685D01*
X65025Y-25566D01*
X64934Y-25474D01*
X64814Y-25425D01*
X64685Y-25424D01*
X64566Y-25474D01*
X64474Y-25565D01*
X64425Y-25685D01*
X64424Y-25814D01*
X64474Y-25933D01*
X64565Y-26025D01*
X64685Y-26074D01*
X64814Y-26075D01*
X64933Y-26025D01*
X65025Y-25934D01*
X65074Y-25814D01*
X65075Y-25685D01*
X65075Y-34450D01*
X63592Y-34450D01*
X63592Y-26360D01*
X63575Y-26317D01*
X63575Y-25185D01*
X63575Y-19185D01*
X63525Y-19066D01*
X63434Y-18974D01*
X63314Y-18925D01*
X63185Y-18924D01*
X63066Y-18974D01*
X62974Y-19065D01*
X62925Y-19185D01*
X62924Y-19314D01*
X62974Y-19433D01*
X63065Y-19525D01*
X63185Y-19574D01*
X63314Y-19575D01*
X63433Y-19525D01*
X63525Y-19434D01*
X63574Y-19314D01*
X63575Y-19185D01*
X63575Y-25185D01*
X63525Y-25066D01*
X63434Y-24974D01*
X63314Y-24925D01*
X63185Y-24924D01*
X63066Y-24974D01*
X62974Y-25065D01*
X62925Y-25185D01*
X62924Y-25314D01*
X62974Y-25433D01*
X63065Y-25525D01*
X63185Y-25574D01*
X63314Y-25575D01*
X63433Y-25525D01*
X63525Y-25434D01*
X63574Y-25314D01*
X63575Y-25185D01*
X63575Y-26317D01*
X63543Y-26241D01*
X63452Y-26149D01*
X63332Y-26100D01*
X63203Y-26100D01*
X63083Y-26149D01*
X62992Y-26240D01*
X62942Y-26360D01*
X62942Y-26489D01*
X62992Y-26609D01*
X63083Y-26700D01*
X63202Y-26750D01*
X63332Y-26750D01*
X63451Y-26700D01*
X63543Y-26609D01*
X63592Y-26490D01*
X63592Y-26360D01*
X63592Y-34450D01*
X62450Y-34450D01*
X62450Y-13860D01*
X62450Y-12860D01*
X62381Y-12695D01*
X62255Y-12568D01*
X62089Y-12500D01*
X61910Y-12499D01*
X61745Y-12568D01*
X61618Y-12694D01*
X61550Y-12860D01*
X61549Y-13039D01*
X61618Y-13204D01*
X61744Y-13331D01*
X61910Y-13399D01*
X62089Y-13400D01*
X62254Y-13331D01*
X62381Y-13205D01*
X62449Y-13039D01*
X62450Y-12860D01*
X62450Y-13860D01*
X62381Y-13695D01*
X62255Y-13568D01*
X62089Y-13500D01*
X61910Y-13499D01*
X61745Y-13568D01*
X61618Y-13694D01*
X61550Y-13860D01*
X61549Y-14039D01*
X61618Y-14204D01*
X61744Y-14331D01*
X61910Y-14399D01*
X62089Y-14400D01*
X62254Y-14331D01*
X62381Y-14205D01*
X62449Y-14039D01*
X62450Y-13860D01*
X62450Y-34450D01*
X62075Y-34450D01*
X62075Y-24685D01*
X62025Y-24566D01*
X61934Y-24474D01*
X61832Y-24432D01*
X61832Y-21770D01*
X61825Y-21751D01*
X61825Y-20185D01*
X61775Y-20066D01*
X61684Y-19974D01*
X61564Y-19925D01*
X61450Y-19924D01*
X61450Y-13860D01*
X61450Y-12860D01*
X61381Y-12695D01*
X61255Y-12568D01*
X61089Y-12500D01*
X60910Y-12499D01*
X60745Y-12568D01*
X60618Y-12694D01*
X60550Y-12860D01*
X60549Y-13039D01*
X60618Y-13204D01*
X60744Y-13331D01*
X60910Y-13399D01*
X61089Y-13400D01*
X61254Y-13331D01*
X61381Y-13205D01*
X61449Y-13039D01*
X61450Y-12860D01*
X61450Y-13860D01*
X61381Y-13695D01*
X61255Y-13568D01*
X61089Y-13500D01*
X60910Y-13499D01*
X60745Y-13568D01*
X60618Y-13694D01*
X60550Y-13860D01*
X60549Y-14039D01*
X60618Y-14204D01*
X60744Y-14331D01*
X60910Y-14399D01*
X61089Y-14400D01*
X61254Y-14331D01*
X61381Y-14205D01*
X61449Y-14039D01*
X61450Y-13860D01*
X61450Y-19924D01*
X61435Y-19924D01*
X61316Y-19974D01*
X61224Y-20065D01*
X61175Y-20185D01*
X61174Y-20314D01*
X61224Y-20433D01*
X61315Y-20525D01*
X61435Y-20574D01*
X61564Y-20575D01*
X61683Y-20525D01*
X61775Y-20434D01*
X61824Y-20314D01*
X61825Y-20185D01*
X61825Y-21751D01*
X61783Y-21650D01*
X61692Y-21559D01*
X61572Y-21509D01*
X61443Y-21509D01*
X61324Y-21558D01*
X61232Y-21650D01*
X61182Y-21769D01*
X61182Y-21899D01*
X61232Y-22018D01*
X61323Y-22110D01*
X61442Y-22159D01*
X61572Y-22159D01*
X61691Y-22110D01*
X61783Y-22018D01*
X61832Y-21899D01*
X61832Y-21770D01*
X61832Y-24432D01*
X61814Y-24425D01*
X61685Y-24424D01*
X61566Y-24474D01*
X61474Y-24565D01*
X61425Y-24685D01*
X61424Y-24814D01*
X61474Y-24933D01*
X61565Y-25025D01*
X61685Y-25074D01*
X61814Y-25075D01*
X61933Y-25025D01*
X62025Y-24934D01*
X62074Y-24814D01*
X62075Y-24685D01*
X62075Y-34450D01*
X61825Y-34450D01*
X61825Y-28685D01*
X61775Y-28566D01*
X61684Y-28474D01*
X61675Y-28470D01*
X61675Y-26695D01*
X61626Y-26575D01*
X61534Y-26484D01*
X61415Y-26434D01*
X61286Y-26434D01*
X61166Y-26484D01*
X61075Y-26575D01*
X61025Y-26694D01*
X61025Y-26824D01*
X61074Y-26943D01*
X61166Y-27035D01*
X61285Y-27084D01*
X61414Y-27084D01*
X61534Y-27035D01*
X61625Y-26944D01*
X61675Y-26824D01*
X61675Y-26695D01*
X61675Y-28470D01*
X61564Y-28425D01*
X61435Y-28424D01*
X61316Y-28474D01*
X61224Y-28565D01*
X61175Y-28685D01*
X61174Y-28814D01*
X61224Y-28933D01*
X61315Y-29025D01*
X61435Y-29074D01*
X61564Y-29075D01*
X61683Y-29025D01*
X61775Y-28934D01*
X61824Y-28814D01*
X61825Y-28685D01*
X61825Y-34450D01*
X60450Y-34450D01*
X60450Y-13860D01*
X60450Y-12860D01*
X60381Y-12695D01*
X60255Y-12568D01*
X60089Y-12500D01*
X59910Y-12499D01*
X59745Y-12568D01*
X59618Y-12694D01*
X59550Y-12860D01*
X59549Y-13039D01*
X59618Y-13204D01*
X59744Y-13331D01*
X59910Y-13399D01*
X60089Y-13400D01*
X60254Y-13331D01*
X60381Y-13205D01*
X60449Y-13039D01*
X60450Y-12860D01*
X60450Y-13860D01*
X60381Y-13695D01*
X60255Y-13568D01*
X60089Y-13500D01*
X59910Y-13499D01*
X59745Y-13568D01*
X59618Y-13694D01*
X59550Y-13860D01*
X59549Y-14039D01*
X59618Y-14204D01*
X59744Y-14331D01*
X59910Y-14399D01*
X60089Y-14400D01*
X60254Y-14331D01*
X60381Y-14205D01*
X60449Y-14039D01*
X60450Y-13860D01*
X60450Y-34450D01*
X60006Y-34450D01*
X60006Y-24825D01*
X59956Y-24705D01*
X59865Y-24614D01*
X59769Y-24574D01*
X59769Y-19254D01*
X59720Y-19135D01*
X59629Y-19043D01*
X59509Y-18993D01*
X59380Y-18993D01*
X59261Y-19043D01*
X59169Y-19134D01*
X59119Y-19253D01*
X59119Y-19383D01*
X59169Y-19502D01*
X59260Y-19594D01*
X59379Y-19643D01*
X59509Y-19643D01*
X59628Y-19594D01*
X59720Y-19503D01*
X59769Y-19383D01*
X59769Y-19254D01*
X59769Y-24574D01*
X59746Y-24564D01*
X59616Y-24564D01*
X59497Y-24614D01*
X59405Y-24705D01*
X59356Y-24824D01*
X59356Y-24954D01*
X59405Y-25073D01*
X59496Y-25165D01*
X59616Y-25214D01*
X59745Y-25214D01*
X59864Y-25165D01*
X59956Y-25074D01*
X60006Y-24954D01*
X60006Y-24825D01*
X60006Y-34450D01*
X58775Y-34450D01*
X58775Y-12846D01*
X58657Y-12561D01*
X58439Y-12343D01*
X58154Y-12225D01*
X57846Y-12224D01*
X57561Y-12342D01*
X57343Y-12560D01*
X57225Y-12845D01*
X57224Y-13153D01*
X57342Y-13438D01*
X57560Y-13656D01*
X57845Y-13774D01*
X58153Y-13775D01*
X58438Y-13657D01*
X58656Y-13439D01*
X58774Y-13154D01*
X58775Y-12846D01*
X58775Y-34450D01*
X58575Y-34450D01*
X58575Y-19685D01*
X58575Y-18685D01*
X58525Y-18566D01*
X58434Y-18474D01*
X58314Y-18425D01*
X58185Y-18424D01*
X58066Y-18474D01*
X57974Y-18565D01*
X57925Y-18685D01*
X57924Y-18814D01*
X57974Y-18933D01*
X58065Y-19025D01*
X58185Y-19074D01*
X58314Y-19075D01*
X58433Y-19025D01*
X58525Y-18934D01*
X58574Y-18814D01*
X58575Y-18685D01*
X58575Y-19685D01*
X58525Y-19566D01*
X58434Y-19474D01*
X58314Y-19425D01*
X58185Y-19424D01*
X58066Y-19474D01*
X57974Y-19565D01*
X57925Y-19685D01*
X57924Y-19814D01*
X57974Y-19933D01*
X58065Y-20025D01*
X58185Y-20074D01*
X58314Y-20075D01*
X58433Y-20025D01*
X58525Y-19934D01*
X58574Y-19814D01*
X58575Y-19685D01*
X58575Y-34450D01*
X58325Y-34450D01*
X58325Y-22685D01*
X58325Y-20935D01*
X58275Y-20816D01*
X58184Y-20724D01*
X58064Y-20675D01*
X57935Y-20674D01*
X57836Y-20715D01*
X57836Y-18585D01*
X57787Y-18465D01*
X57696Y-18374D01*
X57576Y-18324D01*
X57447Y-18324D01*
X57327Y-18373D01*
X57236Y-18465D01*
X57186Y-18584D01*
X57186Y-18713D01*
X57236Y-18833D01*
X57327Y-18924D01*
X57446Y-18974D01*
X57576Y-18974D01*
X57695Y-18925D01*
X57787Y-18833D01*
X57836Y-18714D01*
X57836Y-18585D01*
X57836Y-20715D01*
X57816Y-20724D01*
X57724Y-20815D01*
X57675Y-20935D01*
X57674Y-21064D01*
X57724Y-21183D01*
X57815Y-21275D01*
X57935Y-21324D01*
X58064Y-21325D01*
X58183Y-21275D01*
X58275Y-21184D01*
X58324Y-21064D01*
X58325Y-20935D01*
X58325Y-22685D01*
X58275Y-22566D01*
X58184Y-22474D01*
X58064Y-22425D01*
X57935Y-22424D01*
X57816Y-22474D01*
X57724Y-22565D01*
X57675Y-22685D01*
X57674Y-22814D01*
X57724Y-22933D01*
X57815Y-23025D01*
X57935Y-23074D01*
X58064Y-23075D01*
X58183Y-23025D01*
X58275Y-22934D01*
X58324Y-22814D01*
X58325Y-22685D01*
X58325Y-34450D01*
X58321Y-34450D01*
X58321Y-25685D01*
X58271Y-25566D01*
X58180Y-25474D01*
X58060Y-25425D01*
X57931Y-25424D01*
X57812Y-25474D01*
X57720Y-25565D01*
X57671Y-25685D01*
X57671Y-25814D01*
X57720Y-25933D01*
X57811Y-26025D01*
X57931Y-26074D01*
X58060Y-26075D01*
X58179Y-26025D01*
X58271Y-25934D01*
X58321Y-25814D01*
X58321Y-25685D01*
X58321Y-34450D01*
X56825Y-34450D01*
X56825Y-22435D01*
X56775Y-22316D01*
X56684Y-22224D01*
X56564Y-22175D01*
X56435Y-22174D01*
X56388Y-22194D01*
X56388Y-19683D01*
X56372Y-19645D01*
X56372Y-18065D01*
X56322Y-17946D01*
X56231Y-17854D01*
X56112Y-17804D01*
X55982Y-17804D01*
X55863Y-17854D01*
X55771Y-17945D01*
X55722Y-18064D01*
X55722Y-18194D01*
X55771Y-18313D01*
X55862Y-18405D01*
X55982Y-18454D01*
X56111Y-18454D01*
X56231Y-18405D01*
X56322Y-18314D01*
X56372Y-18194D01*
X56372Y-18065D01*
X56372Y-19645D01*
X56338Y-19564D01*
X56247Y-19472D01*
X56127Y-19423D01*
X55998Y-19422D01*
X55879Y-19472D01*
X55787Y-19563D01*
X55738Y-19683D01*
X55737Y-19812D01*
X55787Y-19931D01*
X55878Y-20023D01*
X55998Y-20072D01*
X56127Y-20073D01*
X56246Y-20023D01*
X56338Y-19932D01*
X56387Y-19812D01*
X56388Y-19683D01*
X56388Y-22194D01*
X56325Y-22220D01*
X56325Y-21935D01*
X56275Y-21816D01*
X56184Y-21724D01*
X56064Y-21675D01*
X55935Y-21674D01*
X55816Y-21724D01*
X55724Y-21815D01*
X55675Y-21935D01*
X55674Y-22064D01*
X55724Y-22183D01*
X55815Y-22275D01*
X55935Y-22324D01*
X56064Y-22325D01*
X56183Y-22275D01*
X56275Y-22184D01*
X56324Y-22064D01*
X56325Y-21935D01*
X56325Y-22220D01*
X56316Y-22224D01*
X56224Y-22315D01*
X56175Y-22435D01*
X56174Y-22564D01*
X56224Y-22683D01*
X56315Y-22775D01*
X56435Y-22824D01*
X56564Y-22825D01*
X56683Y-22775D01*
X56775Y-22684D01*
X56824Y-22564D01*
X56825Y-22435D01*
X56825Y-34450D01*
X54828Y-34450D01*
X54828Y-20931D01*
X54779Y-20812D01*
X54688Y-20720D01*
X54568Y-20671D01*
X54439Y-20671D01*
X54320Y-20720D01*
X54228Y-20811D01*
X54178Y-20931D01*
X54178Y-21060D01*
X54228Y-21179D01*
X54319Y-21271D01*
X54439Y-21321D01*
X54568Y-21321D01*
X54687Y-21271D01*
X54779Y-21180D01*
X54828Y-21060D01*
X54828Y-20931D01*
X54828Y-34450D01*
X54825Y-34450D01*
X54825Y-22935D01*
X54775Y-22816D01*
X54684Y-22724D01*
X54564Y-22675D01*
X54435Y-22674D01*
X54316Y-22724D01*
X54224Y-22815D01*
X54175Y-22935D01*
X54174Y-23064D01*
X54224Y-23183D01*
X54315Y-23275D01*
X54435Y-23324D01*
X54564Y-23325D01*
X54683Y-23275D01*
X54775Y-23184D01*
X54824Y-23064D01*
X54825Y-22935D01*
X54825Y-34450D01*
X53773Y-34450D01*
X53773Y-24156D01*
X53724Y-24036D01*
X53633Y-23945D01*
X53513Y-23895D01*
X53384Y-23895D01*
X53264Y-23944D01*
X53173Y-24036D01*
X53123Y-24155D01*
X53123Y-24284D01*
X53173Y-24404D01*
X53264Y-24495D01*
X53383Y-24545D01*
X53513Y-24545D01*
X53632Y-24496D01*
X53724Y-24404D01*
X53773Y-24285D01*
X53773Y-24156D01*
X53773Y-34450D01*
X53604Y-34450D01*
X53604Y-30577D01*
X53555Y-30457D01*
X53463Y-30366D01*
X53344Y-30316D01*
X53215Y-30316D01*
X53095Y-30366D01*
X53004Y-30457D01*
X52954Y-30576D01*
X52954Y-30706D01*
X53003Y-30825D01*
X53095Y-30917D01*
X53214Y-30966D01*
X53343Y-30966D01*
X53463Y-30917D01*
X53554Y-30826D01*
X53604Y-30706D01*
X53604Y-30577D01*
X53604Y-34450D01*
X52775Y-34450D01*
X52775Y-32846D01*
X52657Y-32561D01*
X52450Y-32353D01*
X52450Y-31510D01*
X52450Y-30510D01*
X52450Y-29510D01*
X52450Y-28510D01*
X52450Y-27510D01*
X52450Y-26510D01*
X52450Y-25510D01*
X52450Y-24510D01*
X52450Y-23510D01*
X52450Y-22510D01*
X52450Y-20910D01*
X52450Y-19910D01*
X52450Y-18910D01*
X52450Y-17910D01*
X52450Y-16910D01*
X52450Y-15910D01*
X52450Y-14910D01*
X52450Y-13910D01*
X52381Y-13745D01*
X52255Y-13618D01*
X52089Y-13550D01*
X51910Y-13549D01*
X51745Y-13618D01*
X51618Y-13744D01*
X51550Y-13910D01*
X51549Y-14089D01*
X51618Y-14254D01*
X51744Y-14381D01*
X51910Y-14449D01*
X52089Y-14450D01*
X52254Y-14381D01*
X52381Y-14255D01*
X52449Y-14089D01*
X52450Y-13910D01*
X52450Y-14910D01*
X52381Y-14745D01*
X52255Y-14618D01*
X52089Y-14550D01*
X51910Y-14549D01*
X51745Y-14618D01*
X51618Y-14744D01*
X51550Y-14910D01*
X51549Y-15089D01*
X51618Y-15254D01*
X51744Y-15381D01*
X51910Y-15449D01*
X52089Y-15450D01*
X52254Y-15381D01*
X52381Y-15255D01*
X52449Y-15089D01*
X52450Y-14910D01*
X52450Y-15910D01*
X52381Y-15745D01*
X52255Y-15618D01*
X52089Y-15550D01*
X51910Y-15549D01*
X51745Y-15618D01*
X51618Y-15744D01*
X51550Y-15910D01*
X51549Y-16089D01*
X51618Y-16254D01*
X51744Y-16381D01*
X51910Y-16449D01*
X52089Y-16450D01*
X52254Y-16381D01*
X52381Y-16255D01*
X52449Y-16089D01*
X52450Y-15910D01*
X52450Y-16910D01*
X52381Y-16745D01*
X52255Y-16618D01*
X52089Y-16550D01*
X51910Y-16549D01*
X51745Y-16618D01*
X51618Y-16744D01*
X51550Y-16910D01*
X51549Y-17089D01*
X51618Y-17254D01*
X51744Y-17381D01*
X51910Y-17449D01*
X52089Y-17450D01*
X52254Y-17381D01*
X52381Y-17255D01*
X52449Y-17089D01*
X52450Y-16910D01*
X52450Y-17910D01*
X52381Y-17745D01*
X52255Y-17618D01*
X52089Y-17550D01*
X51910Y-17549D01*
X51745Y-17618D01*
X51618Y-17744D01*
X51550Y-17910D01*
X51549Y-18089D01*
X51618Y-18254D01*
X51744Y-18381D01*
X51910Y-18449D01*
X52089Y-18450D01*
X52254Y-18381D01*
X52381Y-18255D01*
X52449Y-18089D01*
X52450Y-17910D01*
X52450Y-18910D01*
X52381Y-18745D01*
X52255Y-18618D01*
X52089Y-18550D01*
X51910Y-18549D01*
X51745Y-18618D01*
X51618Y-18744D01*
X51550Y-18910D01*
X51549Y-19089D01*
X51618Y-19254D01*
X51744Y-19381D01*
X51910Y-19449D01*
X52089Y-19450D01*
X52254Y-19381D01*
X52381Y-19255D01*
X52449Y-19089D01*
X52450Y-18910D01*
X52450Y-19910D01*
X52381Y-19745D01*
X52255Y-19618D01*
X52089Y-19550D01*
X51910Y-19549D01*
X51745Y-19618D01*
X51618Y-19744D01*
X51550Y-19910D01*
X51549Y-20089D01*
X51618Y-20254D01*
X51744Y-20381D01*
X51910Y-20449D01*
X52089Y-20450D01*
X52254Y-20381D01*
X52381Y-20255D01*
X52449Y-20089D01*
X52450Y-19910D01*
X52450Y-20910D01*
X52381Y-20745D01*
X52255Y-20618D01*
X52089Y-20550D01*
X51910Y-20549D01*
X51745Y-20618D01*
X51618Y-20744D01*
X51550Y-20910D01*
X51549Y-21089D01*
X51618Y-21254D01*
X51744Y-21381D01*
X51910Y-21449D01*
X52089Y-21450D01*
X52254Y-21381D01*
X52381Y-21255D01*
X52449Y-21089D01*
X52450Y-20910D01*
X52450Y-22510D01*
X52381Y-22345D01*
X52255Y-22218D01*
X52089Y-22150D01*
X51910Y-22149D01*
X51745Y-22218D01*
X51618Y-22344D01*
X51550Y-22510D01*
X51549Y-22689D01*
X51618Y-22854D01*
X51744Y-22981D01*
X51910Y-23049D01*
X52089Y-23050D01*
X52254Y-22981D01*
X52381Y-22855D01*
X52449Y-22689D01*
X52450Y-22510D01*
X52450Y-23510D01*
X52381Y-23345D01*
X52255Y-23218D01*
X52089Y-23150D01*
X51910Y-23149D01*
X51745Y-23218D01*
X51618Y-23344D01*
X51550Y-23510D01*
X51549Y-23689D01*
X51618Y-23854D01*
X51744Y-23981D01*
X51910Y-24049D01*
X52089Y-24050D01*
X52254Y-23981D01*
X52381Y-23855D01*
X52449Y-23689D01*
X52450Y-23510D01*
X52450Y-24510D01*
X52381Y-24345D01*
X52255Y-24218D01*
X52089Y-24150D01*
X51910Y-24149D01*
X51745Y-24218D01*
X51618Y-24344D01*
X51550Y-24510D01*
X51549Y-24689D01*
X51618Y-24854D01*
X51744Y-24981D01*
X51910Y-25049D01*
X52089Y-25050D01*
X52254Y-24981D01*
X52381Y-24855D01*
X52449Y-24689D01*
X52450Y-24510D01*
X52450Y-25510D01*
X52381Y-25345D01*
X52255Y-25218D01*
X52089Y-25150D01*
X51910Y-25149D01*
X51745Y-25218D01*
X51618Y-25344D01*
X51550Y-25510D01*
X51549Y-25689D01*
X51618Y-25854D01*
X51744Y-25981D01*
X51910Y-26049D01*
X52089Y-26050D01*
X52254Y-25981D01*
X52381Y-25855D01*
X52449Y-25689D01*
X52450Y-25510D01*
X52450Y-26510D01*
X52381Y-26345D01*
X52255Y-26218D01*
X52089Y-26150D01*
X51910Y-26149D01*
X51745Y-26218D01*
X51618Y-26344D01*
X51550Y-26510D01*
X51549Y-26689D01*
X51618Y-26854D01*
X51744Y-26981D01*
X51910Y-27049D01*
X52089Y-27050D01*
X52254Y-26981D01*
X52381Y-26855D01*
X52449Y-26689D01*
X52450Y-26510D01*
X52450Y-27510D01*
X52381Y-27345D01*
X52255Y-27218D01*
X52089Y-27150D01*
X51910Y-27149D01*
X51745Y-27218D01*
X51618Y-27344D01*
X51550Y-27510D01*
X51549Y-27689D01*
X51618Y-27854D01*
X51744Y-27981D01*
X51910Y-28049D01*
X52089Y-28050D01*
X52254Y-27981D01*
X52381Y-27855D01*
X52449Y-27689D01*
X52450Y-27510D01*
X52450Y-28510D01*
X52381Y-28345D01*
X52255Y-28218D01*
X52089Y-28150D01*
X51910Y-28149D01*
X51745Y-28218D01*
X51618Y-28344D01*
X51550Y-28510D01*
X51549Y-28689D01*
X51618Y-28854D01*
X51744Y-28981D01*
X51910Y-29049D01*
X52089Y-29050D01*
X52254Y-28981D01*
X52381Y-28855D01*
X52449Y-28689D01*
X52450Y-28510D01*
X52450Y-29510D01*
X52381Y-29345D01*
X52255Y-29218D01*
X52089Y-29150D01*
X51910Y-29149D01*
X51745Y-29218D01*
X51618Y-29344D01*
X51550Y-29510D01*
X51549Y-29689D01*
X51618Y-29854D01*
X51744Y-29981D01*
X51910Y-30049D01*
X52089Y-30050D01*
X52254Y-29981D01*
X52381Y-29855D01*
X52449Y-29689D01*
X52450Y-29510D01*
X52450Y-30510D01*
X52381Y-30345D01*
X52255Y-30218D01*
X52089Y-30150D01*
X51910Y-30149D01*
X51745Y-30218D01*
X51618Y-30344D01*
X51550Y-30510D01*
X51549Y-30689D01*
X51618Y-30854D01*
X51744Y-30981D01*
X51910Y-31049D01*
X52089Y-31050D01*
X52254Y-30981D01*
X52381Y-30855D01*
X52449Y-30689D01*
X52450Y-30510D01*
X52450Y-31510D01*
X52381Y-31345D01*
X52255Y-31218D01*
X52089Y-31150D01*
X51910Y-31149D01*
X51745Y-31218D01*
X51618Y-31344D01*
X51550Y-31510D01*
X51549Y-31689D01*
X51618Y-31854D01*
X51744Y-31981D01*
X51910Y-32049D01*
X52089Y-32050D01*
X52254Y-31981D01*
X52381Y-31855D01*
X52449Y-31689D01*
X52450Y-31510D01*
X52450Y-32353D01*
X52439Y-32343D01*
X52154Y-32225D01*
X51846Y-32224D01*
X51561Y-32342D01*
X51343Y-32560D01*
X51225Y-32845D01*
X51224Y-33153D01*
X51342Y-33438D01*
X51560Y-33656D01*
X51845Y-33774D01*
X52153Y-33775D01*
X52438Y-33657D01*
X52656Y-33439D01*
X52774Y-33154D01*
X52775Y-32846D01*
X52775Y-34450D01*
X50990Y-34450D01*
X50990Y-14951D01*
X50941Y-14831D01*
X50849Y-14740D01*
X50730Y-14690D01*
X50600Y-14690D01*
X50481Y-14740D01*
X50389Y-14831D01*
X50340Y-14950D01*
X50340Y-15080D01*
X50389Y-15199D01*
X50481Y-15291D01*
X50600Y-15340D01*
X50729Y-15340D01*
X50849Y-15291D01*
X50940Y-15200D01*
X50990Y-15080D01*
X50990Y-14951D01*
X50990Y-34450D01*
X50919Y-34450D01*
X50919Y-24144D01*
X50870Y-24024D01*
X50778Y-23933D01*
X50659Y-23883D01*
X50530Y-23883D01*
X50410Y-23932D01*
X50325Y-24018D01*
X50325Y-22935D01*
X50325Y-21185D01*
X50275Y-21066D01*
X50184Y-20974D01*
X50064Y-20925D01*
X49935Y-20924D01*
X49868Y-20952D01*
X49868Y-20471D01*
X49818Y-20351D01*
X49727Y-20260D01*
X49608Y-20210D01*
X49478Y-20210D01*
X49359Y-20259D01*
X49267Y-20351D01*
X49218Y-20470D01*
X49218Y-20599D01*
X49267Y-20719D01*
X49358Y-20810D01*
X49478Y-20860D01*
X49607Y-20860D01*
X49727Y-20811D01*
X49818Y-20719D01*
X49868Y-20600D01*
X49868Y-20471D01*
X49868Y-20952D01*
X49816Y-20974D01*
X49724Y-21065D01*
X49675Y-21185D01*
X49674Y-21314D01*
X49724Y-21433D01*
X49815Y-21525D01*
X49935Y-21574D01*
X50064Y-21575D01*
X50183Y-21525D01*
X50275Y-21434D01*
X50324Y-21314D01*
X50325Y-21185D01*
X50325Y-22935D01*
X50275Y-22816D01*
X50184Y-22724D01*
X50064Y-22675D01*
X49935Y-22674D01*
X49816Y-22724D01*
X49724Y-22815D01*
X49675Y-22935D01*
X49674Y-23064D01*
X49724Y-23183D01*
X49815Y-23275D01*
X49935Y-23324D01*
X50064Y-23325D01*
X50183Y-23275D01*
X50275Y-23184D01*
X50324Y-23064D01*
X50325Y-22935D01*
X50325Y-24018D01*
X50319Y-24024D01*
X50269Y-24143D01*
X50269Y-24273D01*
X50318Y-24392D01*
X50410Y-24484D01*
X50529Y-24533D01*
X50658Y-24533D01*
X50778Y-24484D01*
X50869Y-24392D01*
X50919Y-24273D01*
X50919Y-24144D01*
X50919Y-34450D01*
X50860Y-34450D01*
X50860Y-30825D01*
X50860Y-26034D01*
X50811Y-25914D01*
X50719Y-25823D01*
X50600Y-25773D01*
X50471Y-25773D01*
X50351Y-25822D01*
X50260Y-25914D01*
X50210Y-26033D01*
X50210Y-26162D01*
X50259Y-26282D01*
X50351Y-26373D01*
X50470Y-26423D01*
X50599Y-26423D01*
X50719Y-26374D01*
X50810Y-26282D01*
X50860Y-26163D01*
X50860Y-26034D01*
X50860Y-30825D01*
X50811Y-30705D01*
X50719Y-30614D01*
X50600Y-30564D01*
X50471Y-30564D01*
X50351Y-30614D01*
X50260Y-30705D01*
X50210Y-30824D01*
X50210Y-30954D01*
X50259Y-31073D01*
X50351Y-31165D01*
X50470Y-31214D01*
X50599Y-31214D01*
X50719Y-31165D01*
X50810Y-31074D01*
X50860Y-30954D01*
X50860Y-30825D01*
X50860Y-34450D01*
X49050Y-34450D01*
X49050Y-12050D01*
X71950Y-12050D01*
X71950Y-34450D01*
X71950Y-34450D01*
G37*
G54D15*
X71950Y-34450D02*
X71775Y-34450D01*
X71775Y-33346D01*
X71657Y-33061D01*
X71450Y-32853D01*
X71450Y-27910D01*
X71450Y-26910D01*
X71450Y-25910D01*
X71450Y-24910D01*
X71450Y-23910D01*
X71450Y-22910D01*
X71450Y-21910D01*
X71450Y-20910D01*
X71450Y-18910D01*
X71450Y-17910D01*
X71450Y-16910D01*
X71450Y-15910D01*
X71450Y-14910D01*
X71450Y-13910D01*
X71381Y-13745D01*
X71255Y-13618D01*
X71089Y-13550D01*
X70910Y-13549D01*
X70745Y-13618D01*
X70618Y-13744D01*
X70550Y-13910D01*
X70549Y-14089D01*
X70618Y-14254D01*
X70744Y-14381D01*
X70910Y-14449D01*
X71089Y-14450D01*
X71254Y-14381D01*
X71381Y-14255D01*
X71449Y-14089D01*
X71450Y-13910D01*
X71450Y-14910D01*
X71381Y-14745D01*
X71255Y-14618D01*
X71089Y-14550D01*
X70910Y-14549D01*
X70745Y-14618D01*
X70618Y-14744D01*
X70550Y-14910D01*
X70549Y-15089D01*
X70618Y-15254D01*
X70744Y-15381D01*
X70910Y-15449D01*
X71089Y-15450D01*
X71254Y-15381D01*
X71381Y-15255D01*
X71449Y-15089D01*
X71450Y-14910D01*
X71450Y-15910D01*
X71381Y-15745D01*
X71255Y-15618D01*
X71089Y-15550D01*
X70910Y-15549D01*
X70745Y-15618D01*
X70618Y-15744D01*
X70550Y-15910D01*
X70549Y-16089D01*
X70618Y-16254D01*
X70744Y-16381D01*
X70910Y-16449D01*
X71089Y-16450D01*
X71254Y-16381D01*
X71381Y-16255D01*
X71449Y-16089D01*
X71450Y-15910D01*
X71450Y-16910D01*
X71381Y-16745D01*
X71255Y-16618D01*
X71089Y-16550D01*
X70910Y-16549D01*
X70745Y-16618D01*
X70618Y-16744D01*
X70550Y-16910D01*
X70549Y-17089D01*
X70618Y-17254D01*
X70744Y-17381D01*
X70910Y-17449D01*
X71089Y-17450D01*
X71254Y-17381D01*
X71381Y-17255D01*
X71449Y-17089D01*
X71450Y-16910D01*
X71450Y-17910D01*
X71381Y-17745D01*
X71255Y-17618D01*
X71089Y-17550D01*
X70910Y-17549D01*
X70745Y-17618D01*
X70618Y-17744D01*
X70550Y-17910D01*
X70549Y-18089D01*
X70618Y-18254D01*
X70744Y-18381D01*
X70910Y-18449D01*
X71089Y-18450D01*
X71254Y-18381D01*
X71381Y-18255D01*
X71449Y-18089D01*
X71450Y-17910D01*
X71450Y-18910D01*
X71381Y-18745D01*
X71255Y-18618D01*
X71089Y-18550D01*
X70910Y-18549D01*
X70745Y-18618D01*
X70618Y-18744D01*
X70550Y-18910D01*
X70549Y-19089D01*
X70618Y-19254D01*
X70744Y-19381D01*
X70910Y-19449D01*
X71089Y-19450D01*
X71254Y-19381D01*
X71381Y-19255D01*
X71449Y-19089D01*
X71450Y-18910D01*
X71450Y-20910D01*
X71381Y-20745D01*
X71255Y-20618D01*
X71089Y-20550D01*
X70910Y-20549D01*
X70745Y-20618D01*
X70618Y-20744D01*
X70550Y-20910D01*
X70549Y-21089D01*
X70618Y-21254D01*
X70744Y-21381D01*
X70910Y-21449D01*
X71089Y-21450D01*
X71254Y-21381D01*
X71381Y-21255D01*
X71449Y-21089D01*
X71450Y-20910D01*
X71450Y-21910D01*
X71381Y-21745D01*
X71255Y-21618D01*
X71089Y-21550D01*
X70910Y-21549D01*
X70745Y-21618D01*
X70618Y-21744D01*
X70550Y-21910D01*
X70549Y-22089D01*
X70618Y-22254D01*
X70744Y-22381D01*
X70910Y-22449D01*
X71089Y-22450D01*
X71254Y-22381D01*
X71381Y-22255D01*
X71449Y-22089D01*
X71450Y-21910D01*
X71450Y-22910D01*
X71381Y-22745D01*
X71255Y-22618D01*
X71089Y-22550D01*
X70910Y-22549D01*
X70745Y-22618D01*
X70618Y-22744D01*
X70550Y-22910D01*
X70549Y-23089D01*
X70618Y-23254D01*
X70744Y-23381D01*
X70910Y-23449D01*
X71089Y-23450D01*
X71254Y-23381D01*
X71381Y-23255D01*
X71449Y-23089D01*
X71450Y-22910D01*
X71450Y-23910D01*
X71381Y-23745D01*
X71255Y-23618D01*
X71089Y-23550D01*
X70910Y-23549D01*
X70745Y-23618D01*
X70618Y-23744D01*
X70550Y-23910D01*
X70549Y-24089D01*
X70618Y-24254D01*
X70744Y-24381D01*
X70910Y-24449D01*
X71089Y-24450D01*
X71254Y-24381D01*
X71381Y-24255D01*
X71449Y-24089D01*
X71450Y-23910D01*
X71450Y-24910D01*
X71381Y-24745D01*
X71255Y-24618D01*
X71089Y-24550D01*
X70910Y-24549D01*
X70745Y-24618D01*
X70618Y-24744D01*
X70550Y-24910D01*
X70549Y-25089D01*
X70618Y-25254D01*
X70744Y-25381D01*
X70910Y-25449D01*
X71089Y-25450D01*
X71254Y-25381D01*
X71381Y-25255D01*
X71449Y-25089D01*
X71450Y-24910D01*
X71450Y-25910D01*
X71381Y-25745D01*
X71255Y-25618D01*
X71089Y-25550D01*
X70910Y-25549D01*
X70745Y-25618D01*
X70618Y-25744D01*
X70550Y-25910D01*
X70549Y-26089D01*
X70618Y-26254D01*
X70744Y-26381D01*
X70910Y-26449D01*
X71089Y-26450D01*
X71254Y-26381D01*
X71381Y-26255D01*
X71449Y-26089D01*
X71450Y-25910D01*
X71450Y-26910D01*
X71381Y-26745D01*
X71255Y-26618D01*
X71089Y-26550D01*
X70910Y-26549D01*
X70745Y-26618D01*
X70618Y-26744D01*
X70550Y-26910D01*
X70549Y-27089D01*
X70618Y-27254D01*
X70744Y-27381D01*
X70910Y-27449D01*
X71089Y-27450D01*
X71254Y-27381D01*
X71381Y-27255D01*
X71449Y-27089D01*
X71450Y-26910D01*
X71450Y-27910D01*
X71381Y-27745D01*
X71255Y-27618D01*
X71089Y-27550D01*
X70910Y-27549D01*
X70745Y-27618D01*
X70618Y-27744D01*
X70550Y-27910D01*
X70549Y-28089D01*
X70618Y-28254D01*
X70744Y-28381D01*
X70910Y-28449D01*
X71089Y-28450D01*
X71254Y-28381D01*
X71381Y-28255D01*
X71449Y-28089D01*
X71450Y-27910D01*
X71450Y-32853D01*
X71439Y-32843D01*
X71154Y-32725D01*
X70846Y-32724D01*
X70561Y-32842D01*
X70343Y-33060D01*
X70225Y-33345D01*
X70224Y-33653D01*
X70342Y-33938D01*
X70560Y-34156D01*
X70845Y-34274D01*
X71153Y-34275D01*
X71438Y-34157D01*
X71656Y-33939D01*
X71774Y-33654D01*
X71775Y-33346D01*
X71775Y-34450D01*
X69825Y-34450D01*
X69825Y-28685D01*
X69775Y-28566D01*
X69775Y-28565D01*
X69775Y-12846D01*
X69657Y-12561D01*
X69439Y-12343D01*
X69154Y-12225D01*
X68846Y-12224D01*
X68561Y-12342D01*
X68343Y-12560D01*
X68225Y-12845D01*
X68224Y-13153D01*
X68342Y-13438D01*
X68560Y-13656D01*
X68845Y-13774D01*
X69153Y-13775D01*
X69438Y-13657D01*
X69656Y-13439D01*
X69774Y-13154D01*
X69775Y-12846D01*
X69775Y-28565D01*
X69684Y-28474D01*
X69564Y-28425D01*
X69435Y-28424D01*
X69316Y-28474D01*
X69224Y-28565D01*
X69175Y-28685D01*
X69174Y-28814D01*
X69224Y-28933D01*
X69315Y-29025D01*
X69435Y-29074D01*
X69564Y-29075D01*
X69683Y-29025D01*
X69775Y-28934D01*
X69824Y-28814D01*
X69825Y-28685D01*
X69825Y-34450D01*
X68958Y-34450D01*
X68958Y-30947D01*
X68909Y-30827D01*
X68818Y-30736D01*
X68698Y-30686D01*
X68569Y-30686D01*
X68450Y-30736D01*
X68358Y-30827D01*
X68308Y-30946D01*
X68308Y-31076D01*
X68358Y-31195D01*
X68449Y-31287D01*
X68568Y-31336D01*
X68698Y-31336D01*
X68817Y-31287D01*
X68909Y-31196D01*
X68958Y-31076D01*
X68958Y-30947D01*
X68958Y-34450D01*
X67254Y-34450D01*
X67254Y-22376D01*
X67204Y-22257D01*
X67113Y-22165D01*
X66994Y-22116D01*
X66864Y-22115D01*
X66745Y-22165D01*
X66653Y-22256D01*
X66604Y-22376D01*
X66604Y-22505D01*
X66653Y-22624D01*
X66744Y-22716D01*
X66864Y-22765D01*
X66993Y-22766D01*
X67112Y-22716D01*
X67204Y-22625D01*
X67254Y-22505D01*
X67254Y-22376D01*
X67254Y-34450D01*
X67151Y-34450D01*
X67151Y-27175D01*
X67102Y-27056D01*
X67011Y-26964D01*
X66891Y-26915D01*
X66762Y-26915D01*
X66642Y-26964D01*
X66575Y-27032D01*
X66575Y-18685D01*
X66525Y-18566D01*
X66434Y-18474D01*
X66314Y-18425D01*
X66185Y-18424D01*
X66066Y-18474D01*
X65974Y-18565D01*
X65925Y-18685D01*
X65924Y-18814D01*
X65974Y-18933D01*
X66065Y-19025D01*
X66185Y-19074D01*
X66314Y-19075D01*
X66433Y-19025D01*
X66525Y-18934D01*
X66574Y-18814D01*
X66575Y-18685D01*
X66575Y-27032D01*
X66551Y-27055D01*
X66501Y-27175D01*
X66501Y-27304D01*
X66551Y-27424D01*
X66642Y-27515D01*
X66761Y-27565D01*
X66891Y-27565D01*
X67010Y-27515D01*
X67102Y-27424D01*
X67151Y-27305D01*
X67151Y-27175D01*
X67151Y-34450D01*
X66325Y-34450D01*
X66325Y-22685D01*
X66275Y-22566D01*
X66184Y-22474D01*
X66064Y-22425D01*
X65935Y-22424D01*
X65816Y-22474D01*
X65724Y-22565D01*
X65675Y-22685D01*
X65674Y-22814D01*
X65724Y-22933D01*
X65815Y-23025D01*
X65935Y-23074D01*
X66064Y-23075D01*
X66183Y-23025D01*
X66275Y-22934D01*
X66324Y-22814D01*
X66325Y-22685D01*
X66325Y-34450D01*
X65075Y-34450D01*
X65075Y-25685D01*
X65025Y-25566D01*
X64934Y-25474D01*
X64814Y-25425D01*
X64685Y-25424D01*
X64566Y-25474D01*
X64474Y-25565D01*
X64425Y-25685D01*
X64424Y-25814D01*
X64474Y-25933D01*
X64565Y-26025D01*
X64685Y-26074D01*
X64814Y-26075D01*
X64933Y-26025D01*
X65025Y-25934D01*
X65074Y-25814D01*
X65075Y-25685D01*
X65075Y-34450D01*
X63592Y-34450D01*
X63592Y-26360D01*
X63575Y-26317D01*
X63575Y-25185D01*
X63575Y-19185D01*
X63525Y-19066D01*
X63434Y-18974D01*
X63314Y-18925D01*
X63185Y-18924D01*
X63066Y-18974D01*
X62974Y-19065D01*
X62925Y-19185D01*
X62924Y-19314D01*
X62974Y-19433D01*
X63065Y-19525D01*
X63185Y-19574D01*
X63314Y-19575D01*
X63433Y-19525D01*
X63525Y-19434D01*
X63574Y-19314D01*
X63575Y-19185D01*
X63575Y-25185D01*
X63525Y-25066D01*
X63434Y-24974D01*
X63314Y-24925D01*
X63185Y-24924D01*
X63066Y-24974D01*
X62974Y-25065D01*
X62925Y-25185D01*
X62924Y-25314D01*
X62974Y-25433D01*
X63065Y-25525D01*
X63185Y-25574D01*
X63314Y-25575D01*
X63433Y-25525D01*
X63525Y-25434D01*
X63574Y-25314D01*
X63575Y-25185D01*
X63575Y-26317D01*
X63543Y-26241D01*
X63452Y-26149D01*
X63332Y-26100D01*
X63203Y-26100D01*
X63083Y-26149D01*
X62992Y-26240D01*
X62942Y-26360D01*
X62942Y-26489D01*
X62992Y-26609D01*
X63083Y-26700D01*
X63202Y-26750D01*
X63332Y-26750D01*
X63451Y-26700D01*
X63543Y-26609D01*
X63592Y-26490D01*
X63592Y-26360D01*
X63592Y-34450D01*
X62450Y-34450D01*
X62450Y-13860D01*
X62450Y-12860D01*
X62381Y-12695D01*
X62255Y-12568D01*
X62089Y-12500D01*
X61910Y-12499D01*
X61745Y-12568D01*
X61618Y-12694D01*
X61550Y-12860D01*
X61549Y-13039D01*
X61618Y-13204D01*
X61744Y-13331D01*
X61910Y-13399D01*
X62089Y-13400D01*
X62254Y-13331D01*
X62381Y-13205D01*
X62449Y-13039D01*
X62450Y-12860D01*
X62450Y-13860D01*
X62381Y-13695D01*
X62255Y-13568D01*
X62089Y-13500D01*
X61910Y-13499D01*
X61745Y-13568D01*
X61618Y-13694D01*
X61550Y-13860D01*
X61549Y-14039D01*
X61618Y-14204D01*
X61744Y-14331D01*
X61910Y-14399D01*
X62089Y-14400D01*
X62254Y-14331D01*
X62381Y-14205D01*
X62449Y-14039D01*
X62450Y-13860D01*
X62450Y-34450D01*
X62075Y-34450D01*
X62075Y-24685D01*
X62025Y-24566D01*
X61934Y-24474D01*
X61832Y-24432D01*
X61832Y-21770D01*
X61825Y-21751D01*
X61825Y-20185D01*
X61775Y-20066D01*
X61684Y-19974D01*
X61564Y-19925D01*
X61450Y-19924D01*
X61450Y-13860D01*
X61450Y-12860D01*
X61381Y-12695D01*
X61255Y-12568D01*
X61089Y-12500D01*
X60910Y-12499D01*
X60745Y-12568D01*
X60618Y-12694D01*
X60550Y-12860D01*
X60549Y-13039D01*
X60618Y-13204D01*
X60744Y-13331D01*
X60910Y-13399D01*
X61089Y-13400D01*
X61254Y-13331D01*
X61381Y-13205D01*
X61449Y-13039D01*
X61450Y-12860D01*
X61450Y-13860D01*
X61381Y-13695D01*
X61255Y-13568D01*
X61089Y-13500D01*
X60910Y-13499D01*
X60745Y-13568D01*
X60618Y-13694D01*
X60550Y-13860D01*
X60549Y-14039D01*
X60618Y-14204D01*
X60744Y-14331D01*
X60910Y-14399D01*
X61089Y-14400D01*
X61254Y-14331D01*
X61381Y-14205D01*
X61449Y-14039D01*
X61450Y-13860D01*
X61450Y-19924D01*
X61435Y-19924D01*
X61316Y-19974D01*
X61224Y-20065D01*
X61175Y-20185D01*
X61174Y-20314D01*
X61224Y-20433D01*
X61315Y-20525D01*
X61435Y-20574D01*
X61564Y-20575D01*
X61683Y-20525D01*
X61775Y-20434D01*
X61824Y-20314D01*
X61825Y-20185D01*
X61825Y-21751D01*
X61783Y-21650D01*
X61692Y-21559D01*
X61572Y-21509D01*
X61443Y-21509D01*
X61324Y-21558D01*
X61232Y-21650D01*
X61182Y-21769D01*
X61182Y-21899D01*
X61232Y-22018D01*
X61323Y-22110D01*
X61442Y-22159D01*
X61572Y-22159D01*
X61691Y-22110D01*
X61783Y-22018D01*
X61832Y-21899D01*
X61832Y-21770D01*
X61832Y-24432D01*
X61814Y-24425D01*
X61685Y-24424D01*
X61566Y-24474D01*
X61474Y-24565D01*
X61425Y-24685D01*
X61424Y-24814D01*
X61474Y-24933D01*
X61565Y-25025D01*
X61685Y-25074D01*
X61814Y-25075D01*
X61933Y-25025D01*
X62025Y-24934D01*
X62074Y-24814D01*
X62075Y-24685D01*
X62075Y-34450D01*
X61825Y-34450D01*
X61825Y-28685D01*
X61775Y-28566D01*
X61684Y-28474D01*
X61675Y-28470D01*
X61675Y-26695D01*
X61626Y-26575D01*
X61534Y-26484D01*
X61415Y-26434D01*
X61286Y-26434D01*
X61166Y-26484D01*
X61075Y-26575D01*
X61025Y-26694D01*
X61025Y-26824D01*
X61074Y-26943D01*
X61166Y-27035D01*
X61285Y-27084D01*
X61414Y-27084D01*
X61534Y-27035D01*
X61625Y-26944D01*
X61675Y-26824D01*
X61675Y-26695D01*
X61675Y-28470D01*
X61564Y-28425D01*
X61435Y-28424D01*
X61316Y-28474D01*
X61224Y-28565D01*
X61175Y-28685D01*
X61174Y-28814D01*
X61224Y-28933D01*
X61315Y-29025D01*
X61435Y-29074D01*
X61564Y-29075D01*
X61683Y-29025D01*
X61775Y-28934D01*
X61824Y-28814D01*
X61825Y-28685D01*
X61825Y-34450D01*
X60450Y-34450D01*
X60450Y-13860D01*
X60450Y-12860D01*
X60381Y-12695D01*
X60255Y-12568D01*
X60089Y-12500D01*
X59910Y-12499D01*
X59745Y-12568D01*
X59618Y-12694D01*
X59550Y-12860D01*
X59549Y-13039D01*
X59618Y-13204D01*
X59744Y-13331D01*
X59910Y-13399D01*
X60089Y-13400D01*
X60254Y-13331D01*
X60381Y-13205D01*
X60449Y-13039D01*
X60450Y-12860D01*
X60450Y-13860D01*
X60381Y-13695D01*
X60255Y-13568D01*
X60089Y-13500D01*
X59910Y-13499D01*
X59745Y-13568D01*
X59618Y-13694D01*
X59550Y-13860D01*
X59549Y-14039D01*
X59618Y-14204D01*
X59744Y-14331D01*
X59910Y-14399D01*
X60089Y-14400D01*
X60254Y-14331D01*
X60381Y-14205D01*
X60449Y-14039D01*
X60450Y-13860D01*
X60450Y-34450D01*
X60006Y-34450D01*
X60006Y-24825D01*
X59956Y-24705D01*
X59865Y-24614D01*
X59769Y-24574D01*
X59769Y-19254D01*
X59720Y-19135D01*
X59629Y-19043D01*
X59509Y-18993D01*
X59380Y-18993D01*
X59261Y-19043D01*
X59169Y-19134D01*
X59119Y-19253D01*
X59119Y-19383D01*
X59169Y-19502D01*
X59260Y-19594D01*
X59379Y-19643D01*
X59509Y-19643D01*
X59628Y-19594D01*
X59720Y-19503D01*
X59769Y-19383D01*
X59769Y-19254D01*
X59769Y-24574D01*
X59746Y-24564D01*
X59616Y-24564D01*
X59497Y-24614D01*
X59405Y-24705D01*
X59356Y-24824D01*
X59356Y-24954D01*
X59405Y-25073D01*
X59496Y-25165D01*
X59616Y-25214D01*
X59745Y-25214D01*
X59864Y-25165D01*
X59956Y-25074D01*
X60006Y-24954D01*
X60006Y-24825D01*
X60006Y-34450D01*
X58775Y-34450D01*
X58775Y-12846D01*
X58657Y-12561D01*
X58439Y-12343D01*
X58154Y-12225D01*
X57846Y-12224D01*
X57561Y-12342D01*
X57343Y-12560D01*
X57225Y-12845D01*
X57224Y-13153D01*
X57342Y-13438D01*
X57560Y-13656D01*
X57845Y-13774D01*
X58153Y-13775D01*
X58438Y-13657D01*
X58656Y-13439D01*
X58774Y-13154D01*
X58775Y-12846D01*
X58775Y-34450D01*
X58575Y-34450D01*
X58575Y-19685D01*
X58575Y-18685D01*
X58525Y-18566D01*
X58434Y-18474D01*
X58314Y-18425D01*
X58185Y-18424D01*
X58066Y-18474D01*
X57974Y-18565D01*
X57925Y-18685D01*
X57924Y-18814D01*
X57974Y-18933D01*
X58065Y-19025D01*
X58185Y-19074D01*
X58314Y-19075D01*
X58433Y-19025D01*
X58525Y-18934D01*
X58574Y-18814D01*
X58575Y-18685D01*
X58575Y-19685D01*
X58525Y-19566D01*
X58434Y-19474D01*
X58314Y-19425D01*
X58185Y-19424D01*
X58066Y-19474D01*
X57974Y-19565D01*
X57925Y-19685D01*
X57924Y-19814D01*
X57974Y-19933D01*
X58065Y-20025D01*
X58185Y-20074D01*
X58314Y-20075D01*
X58433Y-20025D01*
X58525Y-19934D01*
X58574Y-19814D01*
X58575Y-19685D01*
X58575Y-34450D01*
X58325Y-34450D01*
X58325Y-22685D01*
X58325Y-20935D01*
X58275Y-20816D01*
X58184Y-20724D01*
X58064Y-20675D01*
X57935Y-20674D01*
X57836Y-20715D01*
X57836Y-18585D01*
X57787Y-18465D01*
X57696Y-18374D01*
X57576Y-18324D01*
X57447Y-18324D01*
X57327Y-18373D01*
X57236Y-18465D01*
X57186Y-18584D01*
X57186Y-18713D01*
X57236Y-18833D01*
X57327Y-18924D01*
X57446Y-18974D01*
X57576Y-18974D01*
X57695Y-18925D01*
X57787Y-18833D01*
X57836Y-18714D01*
X57836Y-18585D01*
X57836Y-20715D01*
X57816Y-20724D01*
X57724Y-20815D01*
X57675Y-20935D01*
X57674Y-21064D01*
X57724Y-21183D01*
X57815Y-21275D01*
X57935Y-21324D01*
X58064Y-21325D01*
X58183Y-21275D01*
X58275Y-21184D01*
X58324Y-21064D01*
X58325Y-20935D01*
X58325Y-22685D01*
X58275Y-22566D01*
X58184Y-22474D01*
X58064Y-22425D01*
X57935Y-22424D01*
X57816Y-22474D01*
X57724Y-22565D01*
X57675Y-22685D01*
X57674Y-22814D01*
X57724Y-22933D01*
X57815Y-23025D01*
X57935Y-23074D01*
X58064Y-23075D01*
X58183Y-23025D01*
X58275Y-22934D01*
X58324Y-22814D01*
X58325Y-22685D01*
X58325Y-34450D01*
X58321Y-34450D01*
X58321Y-25685D01*
X58271Y-25566D01*
X58180Y-25474D01*
X58060Y-25425D01*
X57931Y-25424D01*
X57812Y-25474D01*
X57720Y-25565D01*
X57671Y-25685D01*
X57671Y-25814D01*
X57720Y-25933D01*
X57811Y-26025D01*
X57931Y-26074D01*
X58060Y-26075D01*
X58179Y-26025D01*
X58271Y-25934D01*
X58321Y-25814D01*
X58321Y-25685D01*
X58321Y-34450D01*
X56825Y-34450D01*
X56825Y-22435D01*
X56775Y-22316D01*
X56684Y-22224D01*
X56564Y-22175D01*
X56435Y-22174D01*
X56388Y-22194D01*
X56388Y-19683D01*
X56372Y-19645D01*
X56372Y-18065D01*
X56322Y-17946D01*
X56231Y-17854D01*
X56112Y-17804D01*
X55982Y-17804D01*
X55863Y-17854D01*
X55771Y-17945D01*
X55722Y-18064D01*
X55722Y-18194D01*
X55771Y-18313D01*
X55862Y-18405D01*
X55982Y-18454D01*
X56111Y-18454D01*
X56231Y-18405D01*
X56322Y-18314D01*
X56372Y-18194D01*
X56372Y-18065D01*
X56372Y-19645D01*
X56338Y-19564D01*
X56247Y-19472D01*
X56127Y-19423D01*
X55998Y-19422D01*
X55879Y-19472D01*
X55787Y-19563D01*
X55738Y-19683D01*
X55737Y-19812D01*
X55787Y-19931D01*
X55878Y-20023D01*
X55998Y-20072D01*
X56127Y-20073D01*
X56246Y-20023D01*
X56338Y-19932D01*
X56387Y-19812D01*
X56388Y-19683D01*
X56388Y-22194D01*
X56325Y-22220D01*
X56325Y-21935D01*
X56275Y-21816D01*
X56184Y-21724D01*
X56064Y-21675D01*
X55935Y-21674D01*
X55816Y-21724D01*
X55724Y-21815D01*
X55675Y-21935D01*
X55674Y-22064D01*
X55724Y-22183D01*
X55815Y-22275D01*
X55935Y-22324D01*
X56064Y-22325D01*
X56183Y-22275D01*
X56275Y-22184D01*
X56324Y-22064D01*
X56325Y-21935D01*
X56325Y-22220D01*
X56316Y-22224D01*
X56224Y-22315D01*
X56175Y-22435D01*
X56174Y-22564D01*
X56224Y-22683D01*
X56315Y-22775D01*
X56435Y-22824D01*
X56564Y-22825D01*
X56683Y-22775D01*
X56775Y-22684D01*
X56824Y-22564D01*
X56825Y-22435D01*
X56825Y-34450D01*
X54828Y-34450D01*
X54828Y-20931D01*
X54779Y-20812D01*
X54688Y-20720D01*
X54568Y-20671D01*
X54439Y-20671D01*
X54320Y-20720D01*
X54228Y-20811D01*
X54178Y-20931D01*
X54178Y-21060D01*
X54228Y-21179D01*
X54319Y-21271D01*
X54439Y-21321D01*
X54568Y-21321D01*
X54687Y-21271D01*
X54779Y-21180D01*
X54828Y-21060D01*
X54828Y-20931D01*
X54828Y-34450D01*
X54825Y-34450D01*
X54825Y-22935D01*
X54775Y-22816D01*
X54684Y-22724D01*
X54564Y-22675D01*
X54435Y-22674D01*
X54316Y-22724D01*
X54224Y-22815D01*
X54175Y-22935D01*
X54174Y-23064D01*
X54224Y-23183D01*
X54315Y-23275D01*
X54435Y-23324D01*
X54564Y-23325D01*
X54683Y-23275D01*
X54775Y-23184D01*
X54824Y-23064D01*
X54825Y-22935D01*
X54825Y-34450D01*
X53773Y-34450D01*
X53773Y-24156D01*
X53724Y-24036D01*
X53633Y-23945D01*
X53513Y-23895D01*
X53384Y-23895D01*
X53264Y-23944D01*
X53173Y-24036D01*
X53123Y-24155D01*
X53123Y-24284D01*
X53173Y-24404D01*
X53264Y-24495D01*
X53383Y-24545D01*
X53513Y-24545D01*
X53632Y-24496D01*
X53724Y-24404D01*
X53773Y-24285D01*
X53773Y-24156D01*
X53773Y-34450D01*
X53604Y-34450D01*
X53604Y-30577D01*
X53555Y-30457D01*
X53463Y-30366D01*
X53344Y-30316D01*
X53215Y-30316D01*
X53095Y-30366D01*
X53004Y-30457D01*
X52954Y-30576D01*
X52954Y-30706D01*
X53003Y-30825D01*
X53095Y-30917D01*
X53214Y-30966D01*
X53343Y-30966D01*
X53463Y-30917D01*
X53554Y-30826D01*
X53604Y-30706D01*
X53604Y-30577D01*
X53604Y-34450D01*
X52775Y-34450D01*
X52775Y-32846D01*
X52657Y-32561D01*
X52450Y-32353D01*
X52450Y-31510D01*
X52450Y-30510D01*
X52450Y-29510D01*
X52450Y-28510D01*
X52450Y-27510D01*
X52450Y-26510D01*
X52450Y-25510D01*
X52450Y-24510D01*
X52450Y-23510D01*
X52450Y-22510D01*
X52450Y-20910D01*
X52450Y-19910D01*
X52450Y-18910D01*
X52450Y-17910D01*
X52450Y-16910D01*
X52450Y-15910D01*
X52450Y-14910D01*
X52450Y-13910D01*
X52381Y-13745D01*
X52255Y-13618D01*
X52089Y-13550D01*
X51910Y-13549D01*
X51745Y-13618D01*
X51618Y-13744D01*
X51550Y-13910D01*
X51549Y-14089D01*
X51618Y-14254D01*
X51744Y-14381D01*
X51910Y-14449D01*
X52089Y-14450D01*
X52254Y-14381D01*
X52381Y-14255D01*
X52449Y-14089D01*
X52450Y-13910D01*
X52450Y-14910D01*
X52381Y-14745D01*
X52255Y-14618D01*
X52089Y-14550D01*
X51910Y-14549D01*
X51745Y-14618D01*
X51618Y-14744D01*
X51550Y-14910D01*
X51549Y-15089D01*
X51618Y-15254D01*
X51744Y-15381D01*
X51910Y-15449D01*
X52089Y-15450D01*
X52254Y-15381D01*
X52381Y-15255D01*
X52449Y-15089D01*
X52450Y-14910D01*
X52450Y-15910D01*
X52381Y-15745D01*
X52255Y-15618D01*
X52089Y-15550D01*
X51910Y-15549D01*
X51745Y-15618D01*
X51618Y-15744D01*
X51550Y-15910D01*
X51549Y-16089D01*
X51618Y-16254D01*
X51744Y-16381D01*
X51910Y-16449D01*
X52089Y-16450D01*
X52254Y-16381D01*
X52381Y-16255D01*
X52449Y-16089D01*
X52450Y-15910D01*
X52450Y-16910D01*
X52381Y-16745D01*
X52255Y-16618D01*
X52089Y-16550D01*
X51910Y-16549D01*
X51745Y-16618D01*
X51618Y-16744D01*
X51550Y-16910D01*
X51549Y-17089D01*
X51618Y-17254D01*
X51744Y-17381D01*
X51910Y-17449D01*
X52089Y-17450D01*
X52254Y-17381D01*
X52381Y-17255D01*
X52449Y-17089D01*
X52450Y-16910D01*
X52450Y-17910D01*
X52381Y-17745D01*
X52255Y-17618D01*
X52089Y-17550D01*
X51910Y-17549D01*
X51745Y-17618D01*
X51618Y-17744D01*
X51550Y-17910D01*
X51549Y-18089D01*
X51618Y-18254D01*
X51744Y-18381D01*
X51910Y-18449D01*
X52089Y-18450D01*
X52254Y-18381D01*
X52381Y-18255D01*
X52449Y-18089D01*
X52450Y-17910D01*
X52450Y-18910D01*
X52381Y-18745D01*
X52255Y-18618D01*
X52089Y-18550D01*
X51910Y-18549D01*
X51745Y-18618D01*
X51618Y-18744D01*
X51550Y-18910D01*
X51549Y-19089D01*
X51618Y-19254D01*
X51744Y-19381D01*
X51910Y-19449D01*
X52089Y-19450D01*
X52254Y-19381D01*
X52381Y-19255D01*
X52449Y-19089D01*
X52450Y-18910D01*
X52450Y-19910D01*
X52381Y-19745D01*
X52255Y-19618D01*
X52089Y-19550D01*
X51910Y-19549D01*
X51745Y-19618D01*
X51618Y-19744D01*
X51550Y-19910D01*
X51549Y-20089D01*
X51618Y-20254D01*
X51744Y-20381D01*
X51910Y-20449D01*
X52089Y-20450D01*
X52254Y-20381D01*
X52381Y-20255D01*
X52449Y-20089D01*
X52450Y-19910D01*
X52450Y-20910D01*
X52381Y-20745D01*
X52255Y-20618D01*
X52089Y-20550D01*
X51910Y-20549D01*
X51745Y-20618D01*
X51618Y-20744D01*
X51550Y-20910D01*
X51549Y-21089D01*
X51618Y-21254D01*
X51744Y-21381D01*
X51910Y-21449D01*
X52089Y-21450D01*
X52254Y-21381D01*
X52381Y-21255D01*
X52449Y-21089D01*
X52450Y-20910D01*
X52450Y-22510D01*
X52381Y-22345D01*
X52255Y-22218D01*
X52089Y-22150D01*
X51910Y-22149D01*
X51745Y-22218D01*
X51618Y-22344D01*
X51550Y-22510D01*
X51549Y-22689D01*
X51618Y-22854D01*
X51744Y-22981D01*
X51910Y-23049D01*
X52089Y-23050D01*
X52254Y-22981D01*
X52381Y-22855D01*
X52449Y-22689D01*
X52450Y-22510D01*
X52450Y-23510D01*
X52381Y-23345D01*
X52255Y-23218D01*
X52089Y-23150D01*
X51910Y-23149D01*
X51745Y-23218D01*
X51618Y-23344D01*
X51550Y-23510D01*
X51549Y-23689D01*
X51618Y-23854D01*
X51744Y-23981D01*
X51910Y-24049D01*
X52089Y-24050D01*
X52254Y-23981D01*
X52381Y-23855D01*
X52449Y-23689D01*
X52450Y-23510D01*
X52450Y-24510D01*
X52381Y-24345D01*
X52255Y-24218D01*
X52089Y-24150D01*
X51910Y-24149D01*
X51745Y-24218D01*
X51618Y-24344D01*
X51550Y-24510D01*
X51549Y-24689D01*
X51618Y-24854D01*
X51744Y-24981D01*
X51910Y-25049D01*
X52089Y-25050D01*
X52254Y-24981D01*
X52381Y-24855D01*
X52449Y-24689D01*
X52450Y-24510D01*
X52450Y-25510D01*
X52381Y-25345D01*
X52255Y-25218D01*
X52089Y-25150D01*
X51910Y-25149D01*
X51745Y-25218D01*
X51618Y-25344D01*
X51550Y-25510D01*
X51549Y-25689D01*
X51618Y-25854D01*
X51744Y-25981D01*
X51910Y-26049D01*
X52089Y-26050D01*
X52254Y-25981D01*
X52381Y-25855D01*
X52449Y-25689D01*
X52450Y-25510D01*
X52450Y-26510D01*
X52381Y-26345D01*
X52255Y-26218D01*
X52089Y-26150D01*
X51910Y-26149D01*
X51745Y-26218D01*
X51618Y-26344D01*
X51550Y-26510D01*
X51549Y-26689D01*
X51618Y-26854D01*
X51744Y-26981D01*
X51910Y-27049D01*
X52089Y-27050D01*
X52254Y-26981D01*
X52381Y-26855D01*
X52449Y-26689D01*
X52450Y-26510D01*
X52450Y-27510D01*
X52381Y-27345D01*
X52255Y-27218D01*
X52089Y-27150D01*
X51910Y-27149D01*
X51745Y-27218D01*
X51618Y-27344D01*
X51550Y-27510D01*
X51549Y-27689D01*
X51618Y-27854D01*
X51744Y-27981D01*
X51910Y-28049D01*
X52089Y-28050D01*
X52254Y-27981D01*
X52381Y-27855D01*
X52449Y-27689D01*
X52450Y-27510D01*
X52450Y-28510D01*
X52381Y-28345D01*
X52255Y-28218D01*
X52089Y-28150D01*
X51910Y-28149D01*
X51745Y-28218D01*
X51618Y-28344D01*
X51550Y-28510D01*
X51549Y-28689D01*
X51618Y-28854D01*
X51744Y-28981D01*
X51910Y-29049D01*
X52089Y-29050D01*
X52254Y-28981D01*
X52381Y-28855D01*
X52449Y-28689D01*
X52450Y-28510D01*
X52450Y-29510D01*
X52381Y-29345D01*
X52255Y-29218D01*
X52089Y-29150D01*
X51910Y-29149D01*
X51745Y-29218D01*
X51618Y-29344D01*
X51550Y-29510D01*
X51549Y-29689D01*
X51618Y-29854D01*
X51744Y-29981D01*
X51910Y-30049D01*
X52089Y-30050D01*
X52254Y-29981D01*
X52381Y-29855D01*
X52449Y-29689D01*
X52450Y-29510D01*
X52450Y-30510D01*
X52381Y-30345D01*
X52255Y-30218D01*
X52089Y-30150D01*
X51910Y-30149D01*
X51745Y-30218D01*
X51618Y-30344D01*
X51550Y-30510D01*
X51549Y-30689D01*
X51618Y-30854D01*
X51744Y-30981D01*
X51910Y-31049D01*
X52089Y-31050D01*
X52254Y-30981D01*
X52381Y-30855D01*
X52449Y-30689D01*
X52450Y-30510D01*
X52450Y-31510D01*
X52381Y-31345D01*
X52255Y-31218D01*
X52089Y-31150D01*
X51910Y-31149D01*
X51745Y-31218D01*
X51618Y-31344D01*
X51550Y-31510D01*
X51549Y-31689D01*
X51618Y-31854D01*
X51744Y-31981D01*
X51910Y-32049D01*
X52089Y-32050D01*
X52254Y-31981D01*
X52381Y-31855D01*
X52449Y-31689D01*
X52450Y-31510D01*
X52450Y-32353D01*
X52439Y-32343D01*
X52154Y-32225D01*
X51846Y-32224D01*
X51561Y-32342D01*
X51343Y-32560D01*
X51225Y-32845D01*
X51224Y-33153D01*
X51342Y-33438D01*
X51560Y-33656D01*
X51845Y-33774D01*
X52153Y-33775D01*
X52438Y-33657D01*
X52656Y-33439D01*
X52774Y-33154D01*
X52775Y-32846D01*
X52775Y-34450D01*
X50990Y-34450D01*
X50990Y-14951D01*
X50941Y-14831D01*
X50849Y-14740D01*
X50730Y-14690D01*
X50600Y-14690D01*
X50481Y-14740D01*
X50389Y-14831D01*
X50340Y-14950D01*
X50340Y-15080D01*
X50389Y-15199D01*
X50481Y-15291D01*
X50600Y-15340D01*
X50729Y-15340D01*
X50849Y-15291D01*
X50940Y-15200D01*
X50990Y-15080D01*
X50990Y-14951D01*
X50990Y-34450D01*
X50919Y-34450D01*
X50919Y-24144D01*
X50870Y-24024D01*
X50778Y-23933D01*
X50659Y-23883D01*
X50530Y-23883D01*
X50410Y-23932D01*
X50325Y-24018D01*
X50325Y-22935D01*
X50325Y-21185D01*
X50275Y-21066D01*
X50184Y-20974D01*
X50064Y-20925D01*
X49935Y-20924D01*
X49868Y-20952D01*
X49868Y-20471D01*
X49818Y-20351D01*
X49727Y-20260D01*
X49608Y-20210D01*
X49478Y-20210D01*
X49359Y-20259D01*
X49267Y-20351D01*
X49218Y-20470D01*
X49218Y-20599D01*
X49267Y-20719D01*
X49358Y-20810D01*
X49478Y-20860D01*
X49607Y-20860D01*
X49727Y-20811D01*
X49818Y-20719D01*
X49868Y-20600D01*
X49868Y-20471D01*
X49868Y-20952D01*
X49816Y-20974D01*
X49724Y-21065D01*
X49675Y-21185D01*
X49674Y-21314D01*
X49724Y-21433D01*
X49815Y-21525D01*
X49935Y-21574D01*
X50064Y-21575D01*
X50183Y-21525D01*
X50275Y-21434D01*
X50324Y-21314D01*
X50325Y-21185D01*
X50325Y-22935D01*
X50275Y-22816D01*
X50184Y-22724D01*
X50064Y-22675D01*
X49935Y-22674D01*
X49816Y-22724D01*
X49724Y-22815D01*
X49675Y-22935D01*
X49674Y-23064D01*
X49724Y-23183D01*
X49815Y-23275D01*
X49935Y-23324D01*
X50064Y-23325D01*
X50183Y-23275D01*
X50275Y-23184D01*
X50324Y-23064D01*
X50325Y-22935D01*
X50325Y-24018D01*
X50319Y-24024D01*
X50269Y-24143D01*
X50269Y-24273D01*
X50318Y-24392D01*
X50410Y-24484D01*
X50529Y-24533D01*
X50658Y-24533D01*
X50778Y-24484D01*
X50869Y-24392D01*
X50919Y-24273D01*
X50919Y-24144D01*
X50919Y-34450D01*
X50860Y-34450D01*
X50860Y-30825D01*
X50860Y-26034D01*
X50811Y-25914D01*
X50719Y-25823D01*
X50600Y-25773D01*
X50471Y-25773D01*
X50351Y-25822D01*
X50260Y-25914D01*
X50210Y-26033D01*
X50210Y-26162D01*
X50259Y-26282D01*
X50351Y-26373D01*
X50470Y-26423D01*
X50599Y-26423D01*
X50719Y-26374D01*
X50810Y-26282D01*
X50860Y-26163D01*
X50860Y-26034D01*
X50860Y-30825D01*
X50811Y-30705D01*
X50719Y-30614D01*
X50600Y-30564D01*
X50471Y-30564D01*
X50351Y-30614D01*
X50260Y-30705D01*
X50210Y-30824D01*
X50210Y-30954D01*
X50259Y-31073D01*
X50351Y-31165D01*
X50470Y-31214D01*
X50599Y-31214D01*
X50719Y-31165D01*
X50810Y-31074D01*
X50860Y-30954D01*
X50860Y-30825D01*
X50860Y-34450D01*
X49050Y-34450D01*
X49050Y-12050D01*
X71950Y-12050D01*
X71950Y-34450D01*
M02*
