G04 #@! TF.FileFunction,Copper,L2,Inr,Plane*
%FSLAX46Y46*%
G04 Gerber Fmt 4.6, Leading zero omitted, Abs format (unit mm)*
G04 Created by KiCad (PCBNEW 4.0.2+e4-6225~38~ubuntu14.04.1-stable) date Sat Jun  4 16:02:06 2016*
%MOMM*%
G01*
G04 APERTURE LIST*
%ADD10C,0.150000*%
%ADD11C,3.797300*%
%ADD12R,1.524000X1.524000*%
%ADD13C,1.524000*%
%ADD14C,0.889000*%
%ADD15C,0.254000*%
G04 APERTURE END LIST*
D10*
D11*
X68580000Y-85090000D03*
X68580000Y-33020000D03*
D12*
X104140000Y-38100000D03*
D13*
X101600000Y-38100000D03*
X99060000Y-38100000D03*
X96520000Y-38100000D03*
X93980000Y-38100000D03*
X91440000Y-38100000D03*
X88900000Y-38100000D03*
D12*
X63500000Y-81280000D03*
D13*
X63500000Y-78740000D03*
X63500000Y-76200000D03*
X63500000Y-73660000D03*
X63500000Y-71120000D03*
X63500000Y-68580000D03*
X63500000Y-66040000D03*
X63500000Y-63500000D03*
X63500000Y-60960000D03*
X63500000Y-58420000D03*
X63500000Y-55880000D03*
X63500000Y-53340000D03*
X63500000Y-50800000D03*
X63500000Y-48260000D03*
X63500000Y-45720000D03*
X63500000Y-43180000D03*
X63500000Y-40640000D03*
X63500000Y-38100000D03*
X180340000Y-71120000D03*
X180340000Y-68580000D03*
X180340000Y-66040000D03*
X180340000Y-63500000D03*
X180340000Y-60960000D03*
X180340000Y-58420000D03*
X180340000Y-55880000D03*
X180340000Y-53340000D03*
X180340000Y-48260000D03*
X180340000Y-45720000D03*
X180340000Y-43180000D03*
X180340000Y-40640000D03*
X180340000Y-38100000D03*
X180340000Y-35560000D03*
X152400000Y-35433000D03*
X154940000Y-35433000D03*
X157480000Y-35433000D03*
X157480000Y-32893000D03*
X154940000Y-32893000D03*
X152400000Y-32893000D03*
X132080000Y-35560000D03*
X132080000Y-38100000D03*
X132080000Y-40640000D03*
X132080000Y-43180000D03*
X132080000Y-45720000D03*
X132080000Y-48260000D03*
X132080000Y-50800000D03*
X132080000Y-53340000D03*
X132080000Y-57404000D03*
X132080000Y-59944000D03*
X132080000Y-62484000D03*
X132080000Y-65024000D03*
X132080000Y-67564000D03*
X132080000Y-70104000D03*
X132080000Y-72644000D03*
X132080000Y-75184000D03*
X132080000Y-77724000D03*
X132080000Y-80264000D03*
D14*
X100010000Y-54760000D03*
X100965000Y-51435000D03*
X98425000Y-62230000D03*
X106040000Y-47100000D03*
X110060000Y-49130000D03*
X103850000Y-65960000D03*
X106360000Y-63990000D03*
X111750000Y-48230000D03*
X112547400Y-51704240D03*
X109270000Y-59410000D03*
X143510000Y-57150000D03*
X147320000Y-53340000D03*
X113360000Y-48590000D03*
X113390000Y-57710000D03*
X107530000Y-58580000D03*
X107020000Y-56810000D03*
X104880000Y-55970000D03*
X103200000Y-56460000D03*
X101600000Y-63500000D03*
X106172000Y-61976000D03*
X147310000Y-65405000D03*
X103632000Y-61468000D03*
X142240000Y-55880000D03*
X147955000Y-50165000D03*
X110490000Y-53340000D03*
X86360000Y-67310000D03*
X91440000Y-50165000D03*
X94340000Y-44600000D03*
X111760000Y-36830000D03*
X87000000Y-38160000D03*
X160655000Y-48895000D03*
X160655000Y-64135000D03*
X138430000Y-58420000D03*
X138440000Y-53330000D03*
X151590000Y-63220000D03*
X110070000Y-51650000D03*
X170000000Y-57000000D03*
X169740000Y-69190000D03*
X150990000Y-49070000D03*
X146080000Y-47370000D03*
X128510000Y-61490000D03*
X128690000Y-38140000D03*
X127000000Y-58420000D03*
X127000000Y-53975000D03*
X160700000Y-67120000D03*
X135760000Y-61520000D03*
X164465000Y-65405000D03*
X90170000Y-33020000D03*
X90640000Y-42530000D03*
X101981000Y-76780000D03*
X101981000Y-72970000D03*
X101981000Y-78440000D03*
X95150000Y-76890000D03*
X102380000Y-44120000D03*
X80650000Y-81360000D03*
X142400000Y-50160000D03*
X142360000Y-46050000D03*
X155830000Y-67970000D03*
X156210000Y-51435000D03*
X156230000Y-55460000D03*
X75565000Y-33020000D03*
X98298000Y-60833000D03*
X100076000Y-64516000D03*
X114300000Y-36830000D03*
X109220000Y-41910000D03*
X109510000Y-67830000D03*
X109860000Y-71720000D03*
X113665000Y-70485000D03*
X113408460Y-53162200D03*
X95710000Y-47340000D03*
X91440000Y-48770000D03*
X72390000Y-81280000D03*
X73660000Y-78740000D03*
X73660000Y-76200000D03*
X73660000Y-73660000D03*
X73660000Y-71120000D03*
X73660000Y-68580000D03*
X73660000Y-66040000D03*
X73660000Y-63500000D03*
X73660000Y-60960000D03*
X73660000Y-58420000D03*
X73660000Y-55880000D03*
X73660000Y-53340000D03*
X73660000Y-50800000D03*
X73660000Y-48260000D03*
X73660000Y-45720000D03*
X73660000Y-43180000D03*
X73660000Y-40640000D03*
X73660000Y-38100000D03*
X81280000Y-40640000D03*
X81280000Y-78740000D03*
X81280000Y-76200000D03*
X81280000Y-73660000D03*
X81280000Y-71120000D03*
X81280000Y-68580000D03*
X81280000Y-66040000D03*
X81280000Y-63500000D03*
X81280000Y-38100000D03*
X81280000Y-43180000D03*
X81280000Y-45720000D03*
X81280000Y-48260000D03*
X81280000Y-50800000D03*
X81280000Y-53340000D03*
X81280000Y-55880000D03*
X81280000Y-60960000D03*
X81280000Y-59055000D03*
X99830000Y-72630000D03*
X101910000Y-47420000D03*
X95710000Y-81500000D03*
X82640000Y-81950000D03*
X88260000Y-78430000D03*
X91040000Y-75260000D03*
X96650000Y-51940000D03*
X98720000Y-65700000D03*
X91450000Y-71900000D03*
X88900000Y-71850000D03*
X86360000Y-71890000D03*
X94000000Y-71940000D03*
X93230000Y-63730000D03*
X98090000Y-45440000D03*
X93260000Y-51810000D03*
X111000000Y-62510000D03*
X113130000Y-78970000D03*
X99500000Y-49770000D03*
X99500000Y-52875000D03*
X135330000Y-77830000D03*
X128360000Y-78460000D03*
X174330000Y-78770000D03*
X156845000Y-62865000D03*
X156210000Y-73025000D03*
X147320000Y-57785000D03*
X167640000Y-57785000D03*
X168275000Y-47625000D03*
X147955000Y-47625000D03*
X125840000Y-52160000D03*
X128360000Y-66290000D03*
X176530000Y-73025000D03*
X139065000Y-67564000D03*
X153670000Y-74295000D03*
X165100000Y-59055000D03*
X144780000Y-59055000D03*
X173355000Y-74930000D03*
X110270000Y-81550000D03*
X110200000Y-73700000D03*
D15*
G36*
X86868000Y-37334384D02*
X86836518Y-37334357D01*
X86533002Y-37459767D01*
X86300583Y-37691781D01*
X86174643Y-37995077D01*
X86174357Y-38323482D01*
X86299767Y-38626998D01*
X86531781Y-38859417D01*
X86835077Y-38985357D01*
X86868000Y-38985386D01*
X86868000Y-41910000D01*
X86878006Y-41959410D01*
X86906447Y-42001035D01*
X86948841Y-42028315D01*
X86995000Y-42037000D01*
X89408000Y-42037000D01*
X89408000Y-43815000D01*
X89418006Y-43864410D01*
X89446447Y-43906035D01*
X89488841Y-43933315D01*
X89535000Y-43942000D01*
X95123000Y-43942000D01*
X95123000Y-45667394D01*
X93255197Y-47535197D01*
X93227334Y-47577211D01*
X93218000Y-47625000D01*
X93218000Y-50984463D01*
X93096518Y-50984357D01*
X92793002Y-51109767D01*
X92560583Y-51341781D01*
X92434643Y-51645077D01*
X92434357Y-51973482D01*
X92559767Y-52276998D01*
X92791781Y-52509417D01*
X93095077Y-52635357D01*
X93218000Y-52635464D01*
X93218000Y-62904489D01*
X93066518Y-62904357D01*
X92763002Y-63029767D01*
X92530583Y-63261781D01*
X92404643Y-63565077D01*
X92404357Y-63893482D01*
X92529767Y-64196998D01*
X92761781Y-64429417D01*
X93065077Y-64555357D01*
X93218000Y-64555490D01*
X93218000Y-71670662D01*
X93174643Y-71775077D01*
X93174357Y-72103482D01*
X93218000Y-72209106D01*
X93218000Y-76708000D01*
X90805000Y-76708000D01*
X90755590Y-76718006D01*
X90713965Y-76746447D01*
X90686685Y-76788841D01*
X90678000Y-76835000D01*
X90678000Y-79248000D01*
X88441980Y-79248000D01*
X88726998Y-79130233D01*
X88959417Y-78898219D01*
X89085357Y-78594923D01*
X89085643Y-78266518D01*
X88960233Y-77963002D01*
X88728219Y-77730583D01*
X88424923Y-77604643D01*
X88096518Y-77604357D01*
X87793002Y-77729767D01*
X87560583Y-77961781D01*
X87434643Y-78265077D01*
X87434357Y-78593482D01*
X87559767Y-78896998D01*
X87791781Y-79129417D01*
X88077359Y-79248000D01*
X81939567Y-79248000D01*
X81979417Y-79208219D01*
X82105357Y-78904923D01*
X82105643Y-78576518D01*
X81980233Y-78273002D01*
X81748219Y-78040583D01*
X81444923Y-77914643D01*
X81116518Y-77914357D01*
X80813002Y-78039767D01*
X80580583Y-78271781D01*
X80454643Y-78575077D01*
X80454357Y-78903482D01*
X80579767Y-79206998D01*
X80620698Y-79248000D01*
X77470000Y-79248000D01*
X77420590Y-79258006D01*
X77378965Y-79286447D01*
X77351685Y-79328841D01*
X77343000Y-79375000D01*
X77343000Y-87503000D01*
X60452000Y-87503000D01*
X60452000Y-85541461D01*
X66299955Y-85541461D01*
X66646280Y-86379631D01*
X67286996Y-87021466D01*
X68124560Y-87369253D01*
X69031461Y-87370045D01*
X69869631Y-87023720D01*
X70511466Y-86383004D01*
X70859253Y-85545440D01*
X70860045Y-84638539D01*
X70513720Y-83800369D01*
X69873004Y-83158534D01*
X69035440Y-82810747D01*
X68128539Y-82809955D01*
X67290369Y-83156280D01*
X66648534Y-83796996D01*
X66300747Y-84634560D01*
X66299955Y-85541461D01*
X60452000Y-85541461D01*
X60452000Y-80518000D01*
X62349536Y-80518000D01*
X62349536Y-82042000D01*
X62376103Y-82183190D01*
X62459546Y-82312865D01*
X62586866Y-82399859D01*
X62738000Y-82430464D01*
X64262000Y-82430464D01*
X64403190Y-82403897D01*
X64532865Y-82320454D01*
X64619859Y-82193134D01*
X64650464Y-82042000D01*
X64650464Y-81443482D01*
X71564357Y-81443482D01*
X71689767Y-81746998D01*
X71921781Y-81979417D01*
X72225077Y-82105357D01*
X72553482Y-82105643D01*
X72856998Y-81980233D01*
X73089417Y-81748219D01*
X73215357Y-81444923D01*
X73215643Y-81116518D01*
X73090233Y-80813002D01*
X72858219Y-80580583D01*
X72554923Y-80454643D01*
X72226518Y-80454357D01*
X71923002Y-80579767D01*
X71690583Y-80811781D01*
X71564643Y-81115077D01*
X71564357Y-81443482D01*
X64650464Y-81443482D01*
X64650464Y-80518000D01*
X64623897Y-80376810D01*
X64540454Y-80247135D01*
X64413134Y-80160141D01*
X64262000Y-80129536D01*
X62738000Y-80129536D01*
X62596810Y-80156103D01*
X62467135Y-80239546D01*
X62380141Y-80366866D01*
X62349536Y-80518000D01*
X60452000Y-80518000D01*
X60452000Y-78966359D01*
X62356802Y-78966359D01*
X62530446Y-79386612D01*
X62851697Y-79708423D01*
X63271646Y-79882801D01*
X63726359Y-79883198D01*
X64146612Y-79709554D01*
X64468423Y-79388303D01*
X64642801Y-78968354D01*
X64642857Y-78903482D01*
X72834357Y-78903482D01*
X72959767Y-79206998D01*
X73191781Y-79439417D01*
X73495077Y-79565357D01*
X73823482Y-79565643D01*
X74126998Y-79440233D01*
X74359417Y-79208219D01*
X74485357Y-78904923D01*
X74485643Y-78576518D01*
X74360233Y-78273002D01*
X74128219Y-78040583D01*
X73824923Y-77914643D01*
X73496518Y-77914357D01*
X73193002Y-78039767D01*
X72960583Y-78271781D01*
X72834643Y-78575077D01*
X72834357Y-78903482D01*
X64642857Y-78903482D01*
X64643198Y-78513641D01*
X64469554Y-78093388D01*
X64148303Y-77771577D01*
X63728354Y-77597199D01*
X63273641Y-77596802D01*
X62853388Y-77770446D01*
X62531577Y-78091697D01*
X62357199Y-78511646D01*
X62356802Y-78966359D01*
X60452000Y-78966359D01*
X60452000Y-76426359D01*
X62356802Y-76426359D01*
X62530446Y-76846612D01*
X62851697Y-77168423D01*
X63271646Y-77342801D01*
X63726359Y-77343198D01*
X64146612Y-77169554D01*
X64468423Y-76848303D01*
X64642801Y-76428354D01*
X64642857Y-76363482D01*
X72834357Y-76363482D01*
X72959767Y-76666998D01*
X73191781Y-76899417D01*
X73495077Y-77025357D01*
X73823482Y-77025643D01*
X74126998Y-76900233D01*
X74359417Y-76668219D01*
X74485357Y-76364923D01*
X74485358Y-76363482D01*
X80454357Y-76363482D01*
X80579767Y-76666998D01*
X80811781Y-76899417D01*
X81115077Y-77025357D01*
X81443482Y-77025643D01*
X81746998Y-76900233D01*
X81979417Y-76668219D01*
X82105357Y-76364923D01*
X82105643Y-76036518D01*
X81980233Y-75733002D01*
X81748219Y-75500583D01*
X81562540Y-75423482D01*
X90214357Y-75423482D01*
X90339767Y-75726998D01*
X90571781Y-75959417D01*
X90875077Y-76085357D01*
X91203482Y-76085643D01*
X91506998Y-75960233D01*
X91739417Y-75728219D01*
X91865357Y-75424923D01*
X91865643Y-75096518D01*
X91740233Y-74793002D01*
X91508219Y-74560583D01*
X91204923Y-74434643D01*
X90876518Y-74434357D01*
X90573002Y-74559767D01*
X90340583Y-74791781D01*
X90214643Y-75095077D01*
X90214357Y-75423482D01*
X81562540Y-75423482D01*
X81444923Y-75374643D01*
X81116518Y-75374357D01*
X80813002Y-75499767D01*
X80580583Y-75731781D01*
X80454643Y-76035077D01*
X80454357Y-76363482D01*
X74485358Y-76363482D01*
X74485643Y-76036518D01*
X74360233Y-75733002D01*
X74128219Y-75500583D01*
X73824923Y-75374643D01*
X73496518Y-75374357D01*
X73193002Y-75499767D01*
X72960583Y-75731781D01*
X72834643Y-76035077D01*
X72834357Y-76363482D01*
X64642857Y-76363482D01*
X64643198Y-75973641D01*
X64469554Y-75553388D01*
X64148303Y-75231577D01*
X63728354Y-75057199D01*
X63273641Y-75056802D01*
X62853388Y-75230446D01*
X62531577Y-75551697D01*
X62357199Y-75971646D01*
X62356802Y-76426359D01*
X60452000Y-76426359D01*
X60452000Y-73886359D01*
X62356802Y-73886359D01*
X62530446Y-74306612D01*
X62851697Y-74628423D01*
X63271646Y-74802801D01*
X63726359Y-74803198D01*
X64146612Y-74629554D01*
X64468423Y-74308303D01*
X64642801Y-73888354D01*
X64642857Y-73823482D01*
X72834357Y-73823482D01*
X72959767Y-74126998D01*
X73191781Y-74359417D01*
X73495077Y-74485357D01*
X73823482Y-74485643D01*
X74126998Y-74360233D01*
X74359417Y-74128219D01*
X74485357Y-73824923D01*
X74485358Y-73823482D01*
X80454357Y-73823482D01*
X80579767Y-74126998D01*
X80811781Y-74359417D01*
X81115077Y-74485357D01*
X81443482Y-74485643D01*
X81746998Y-74360233D01*
X81979417Y-74128219D01*
X82105357Y-73824923D01*
X82105643Y-73496518D01*
X81980233Y-73193002D01*
X81748219Y-72960583D01*
X81444923Y-72834643D01*
X81116518Y-72834357D01*
X80813002Y-72959767D01*
X80580583Y-73191781D01*
X80454643Y-73495077D01*
X80454357Y-73823482D01*
X74485358Y-73823482D01*
X74485643Y-73496518D01*
X74360233Y-73193002D01*
X74128219Y-72960583D01*
X73824923Y-72834643D01*
X73496518Y-72834357D01*
X73193002Y-72959767D01*
X72960583Y-73191781D01*
X72834643Y-73495077D01*
X72834357Y-73823482D01*
X64642857Y-73823482D01*
X64643198Y-73433641D01*
X64469554Y-73013388D01*
X64148303Y-72691577D01*
X63728354Y-72517199D01*
X63273641Y-72516802D01*
X62853388Y-72690446D01*
X62531577Y-73011697D01*
X62357199Y-73431646D01*
X62356802Y-73886359D01*
X60452000Y-73886359D01*
X60452000Y-71346359D01*
X62356802Y-71346359D01*
X62530446Y-71766612D01*
X62851697Y-72088423D01*
X63271646Y-72262801D01*
X63726359Y-72263198D01*
X64146612Y-72089554D01*
X64182746Y-72053482D01*
X85534357Y-72053482D01*
X85659767Y-72356998D01*
X85891781Y-72589417D01*
X86195077Y-72715357D01*
X86523482Y-72715643D01*
X86826998Y-72590233D01*
X87059417Y-72358219D01*
X87185357Y-72054923D01*
X87185393Y-72013482D01*
X88074357Y-72013482D01*
X88199767Y-72316998D01*
X88431781Y-72549417D01*
X88735077Y-72675357D01*
X89063482Y-72675643D01*
X89366998Y-72550233D01*
X89599417Y-72318219D01*
X89705193Y-72063482D01*
X90624357Y-72063482D01*
X90749767Y-72366998D01*
X90981781Y-72599417D01*
X91285077Y-72725357D01*
X91613482Y-72725643D01*
X91916998Y-72600233D01*
X92149417Y-72368219D01*
X92275357Y-72064923D01*
X92275643Y-71736518D01*
X92150233Y-71433002D01*
X91918219Y-71200583D01*
X91614923Y-71074643D01*
X91286518Y-71074357D01*
X90983002Y-71199767D01*
X90750583Y-71431781D01*
X90624643Y-71735077D01*
X90624357Y-72063482D01*
X89705193Y-72063482D01*
X89725357Y-72014923D01*
X89725643Y-71686518D01*
X89600233Y-71383002D01*
X89368219Y-71150583D01*
X89064923Y-71024643D01*
X88736518Y-71024357D01*
X88433002Y-71149767D01*
X88200583Y-71381781D01*
X88074643Y-71685077D01*
X88074357Y-72013482D01*
X87185393Y-72013482D01*
X87185643Y-71726518D01*
X87060233Y-71423002D01*
X86828219Y-71190583D01*
X86524923Y-71064643D01*
X86196518Y-71064357D01*
X85893002Y-71189767D01*
X85660583Y-71421781D01*
X85534643Y-71725077D01*
X85534357Y-72053482D01*
X64182746Y-72053482D01*
X64468423Y-71768303D01*
X64642801Y-71348354D01*
X64642857Y-71283482D01*
X72834357Y-71283482D01*
X72959767Y-71586998D01*
X73191781Y-71819417D01*
X73495077Y-71945357D01*
X73823482Y-71945643D01*
X74126998Y-71820233D01*
X74359417Y-71588219D01*
X74485357Y-71284923D01*
X74485358Y-71283482D01*
X80454357Y-71283482D01*
X80579767Y-71586998D01*
X80811781Y-71819417D01*
X81115077Y-71945357D01*
X81443482Y-71945643D01*
X81746998Y-71820233D01*
X81979417Y-71588219D01*
X82105357Y-71284923D01*
X82105643Y-70956518D01*
X81980233Y-70653002D01*
X81748219Y-70420583D01*
X81444923Y-70294643D01*
X81116518Y-70294357D01*
X80813002Y-70419767D01*
X80580583Y-70651781D01*
X80454643Y-70955077D01*
X80454357Y-71283482D01*
X74485358Y-71283482D01*
X74485643Y-70956518D01*
X74360233Y-70653002D01*
X74128219Y-70420583D01*
X73824923Y-70294643D01*
X73496518Y-70294357D01*
X73193002Y-70419767D01*
X72960583Y-70651781D01*
X72834643Y-70955077D01*
X72834357Y-71283482D01*
X64642857Y-71283482D01*
X64643198Y-70893641D01*
X64469554Y-70473388D01*
X64148303Y-70151577D01*
X63728354Y-69977199D01*
X63273641Y-69976802D01*
X62853388Y-70150446D01*
X62531577Y-70471697D01*
X62357199Y-70891646D01*
X62356802Y-71346359D01*
X60452000Y-71346359D01*
X60452000Y-68806359D01*
X62356802Y-68806359D01*
X62530446Y-69226612D01*
X62851697Y-69548423D01*
X63271646Y-69722801D01*
X63726359Y-69723198D01*
X64146612Y-69549554D01*
X64468423Y-69228303D01*
X64642801Y-68808354D01*
X64642857Y-68743482D01*
X72834357Y-68743482D01*
X72959767Y-69046998D01*
X73191781Y-69279417D01*
X73495077Y-69405357D01*
X73823482Y-69405643D01*
X74126998Y-69280233D01*
X74359417Y-69048219D01*
X74485357Y-68744923D01*
X74485358Y-68743482D01*
X80454357Y-68743482D01*
X80579767Y-69046998D01*
X80811781Y-69279417D01*
X81115077Y-69405357D01*
X81443482Y-69405643D01*
X81746998Y-69280233D01*
X81979417Y-69048219D01*
X82105357Y-68744923D01*
X82105643Y-68416518D01*
X81980233Y-68113002D01*
X81748219Y-67880583D01*
X81444923Y-67754643D01*
X81116518Y-67754357D01*
X80813002Y-67879767D01*
X80580583Y-68111781D01*
X80454643Y-68415077D01*
X80454357Y-68743482D01*
X74485358Y-68743482D01*
X74485643Y-68416518D01*
X74360233Y-68113002D01*
X74128219Y-67880583D01*
X73824923Y-67754643D01*
X73496518Y-67754357D01*
X73193002Y-67879767D01*
X72960583Y-68111781D01*
X72834643Y-68415077D01*
X72834357Y-68743482D01*
X64642857Y-68743482D01*
X64643198Y-68353641D01*
X64469554Y-67933388D01*
X64148303Y-67611577D01*
X63728354Y-67437199D01*
X63273641Y-67436802D01*
X62853388Y-67610446D01*
X62531577Y-67931697D01*
X62357199Y-68351646D01*
X62356802Y-68806359D01*
X60452000Y-68806359D01*
X60452000Y-66266359D01*
X62356802Y-66266359D01*
X62530446Y-66686612D01*
X62851697Y-67008423D01*
X63271646Y-67182801D01*
X63726359Y-67183198D01*
X64146612Y-67009554D01*
X64468423Y-66688303D01*
X64642801Y-66268354D01*
X64642857Y-66203482D01*
X72834357Y-66203482D01*
X72959767Y-66506998D01*
X73191781Y-66739417D01*
X73495077Y-66865357D01*
X73823482Y-66865643D01*
X74126998Y-66740233D01*
X74359417Y-66508219D01*
X74485357Y-66204923D01*
X74485358Y-66203482D01*
X80454357Y-66203482D01*
X80579767Y-66506998D01*
X80811781Y-66739417D01*
X81115077Y-66865357D01*
X81443482Y-66865643D01*
X81746998Y-66740233D01*
X81979417Y-66508219D01*
X82105357Y-66204923D01*
X82105643Y-65876518D01*
X81980233Y-65573002D01*
X81748219Y-65340583D01*
X81444923Y-65214643D01*
X81116518Y-65214357D01*
X80813002Y-65339767D01*
X80580583Y-65571781D01*
X80454643Y-65875077D01*
X80454357Y-66203482D01*
X74485358Y-66203482D01*
X74485643Y-65876518D01*
X74360233Y-65573002D01*
X74128219Y-65340583D01*
X73824923Y-65214643D01*
X73496518Y-65214357D01*
X73193002Y-65339767D01*
X72960583Y-65571781D01*
X72834643Y-65875077D01*
X72834357Y-66203482D01*
X64642857Y-66203482D01*
X64643198Y-65813641D01*
X64469554Y-65393388D01*
X64148303Y-65071577D01*
X63728354Y-64897199D01*
X63273641Y-64896802D01*
X62853388Y-65070446D01*
X62531577Y-65391697D01*
X62357199Y-65811646D01*
X62356802Y-66266359D01*
X60452000Y-66266359D01*
X60452000Y-63726359D01*
X62356802Y-63726359D01*
X62530446Y-64146612D01*
X62851697Y-64468423D01*
X63271646Y-64642801D01*
X63726359Y-64643198D01*
X64146612Y-64469554D01*
X64468423Y-64148303D01*
X64642801Y-63728354D01*
X64642857Y-63663482D01*
X72834357Y-63663482D01*
X72959767Y-63966998D01*
X73191781Y-64199417D01*
X73495077Y-64325357D01*
X73823482Y-64325643D01*
X74126998Y-64200233D01*
X74359417Y-63968219D01*
X74485357Y-63664923D01*
X74485358Y-63663482D01*
X80454357Y-63663482D01*
X80579767Y-63966998D01*
X80811781Y-64199417D01*
X81115077Y-64325357D01*
X81443482Y-64325643D01*
X81746998Y-64200233D01*
X81979417Y-63968219D01*
X82105357Y-63664923D01*
X82105643Y-63336518D01*
X81980233Y-63033002D01*
X81748219Y-62800583D01*
X81444923Y-62674643D01*
X81116518Y-62674357D01*
X80813002Y-62799767D01*
X80580583Y-63031781D01*
X80454643Y-63335077D01*
X80454357Y-63663482D01*
X74485358Y-63663482D01*
X74485643Y-63336518D01*
X74360233Y-63033002D01*
X74128219Y-62800583D01*
X73824923Y-62674643D01*
X73496518Y-62674357D01*
X73193002Y-62799767D01*
X72960583Y-63031781D01*
X72834643Y-63335077D01*
X72834357Y-63663482D01*
X64642857Y-63663482D01*
X64643198Y-63273641D01*
X64469554Y-62853388D01*
X64148303Y-62531577D01*
X63728354Y-62357199D01*
X63273641Y-62356802D01*
X62853388Y-62530446D01*
X62531577Y-62851697D01*
X62357199Y-63271646D01*
X62356802Y-63726359D01*
X60452000Y-63726359D01*
X60452000Y-61186359D01*
X62356802Y-61186359D01*
X62530446Y-61606612D01*
X62851697Y-61928423D01*
X63271646Y-62102801D01*
X63726359Y-62103198D01*
X64146612Y-61929554D01*
X64468423Y-61608303D01*
X64642801Y-61188354D01*
X64642857Y-61123482D01*
X72834357Y-61123482D01*
X72959767Y-61426998D01*
X73191781Y-61659417D01*
X73495077Y-61785357D01*
X73823482Y-61785643D01*
X74126998Y-61660233D01*
X74359417Y-61428219D01*
X74485357Y-61124923D01*
X74485358Y-61123482D01*
X80454357Y-61123482D01*
X80579767Y-61426998D01*
X80811781Y-61659417D01*
X81115077Y-61785357D01*
X81443482Y-61785643D01*
X81746998Y-61660233D01*
X81979417Y-61428219D01*
X82105357Y-61124923D01*
X82105643Y-60796518D01*
X81980233Y-60493002D01*
X81748219Y-60260583D01*
X81444923Y-60134643D01*
X81116518Y-60134357D01*
X80813002Y-60259767D01*
X80580583Y-60491781D01*
X80454643Y-60795077D01*
X80454357Y-61123482D01*
X74485358Y-61123482D01*
X74485643Y-60796518D01*
X74360233Y-60493002D01*
X74128219Y-60260583D01*
X73824923Y-60134643D01*
X73496518Y-60134357D01*
X73193002Y-60259767D01*
X72960583Y-60491781D01*
X72834643Y-60795077D01*
X72834357Y-61123482D01*
X64642857Y-61123482D01*
X64643198Y-60733641D01*
X64469554Y-60313388D01*
X64148303Y-59991577D01*
X63728354Y-59817199D01*
X63273641Y-59816802D01*
X62853388Y-59990446D01*
X62531577Y-60311697D01*
X62357199Y-60731646D01*
X62356802Y-61186359D01*
X60452000Y-61186359D01*
X60452000Y-58646359D01*
X62356802Y-58646359D01*
X62530446Y-59066612D01*
X62851697Y-59388423D01*
X63271646Y-59562801D01*
X63726359Y-59563198D01*
X64146612Y-59389554D01*
X64468423Y-59068303D01*
X64642801Y-58648354D01*
X64642857Y-58583482D01*
X72834357Y-58583482D01*
X72959767Y-58886998D01*
X73191781Y-59119417D01*
X73495077Y-59245357D01*
X73823482Y-59245643D01*
X73889216Y-59218482D01*
X80454357Y-59218482D01*
X80579767Y-59521998D01*
X80811781Y-59754417D01*
X81115077Y-59880357D01*
X81443482Y-59880643D01*
X81746998Y-59755233D01*
X81979417Y-59523219D01*
X82105357Y-59219923D01*
X82105643Y-58891518D01*
X81980233Y-58588002D01*
X81748219Y-58355583D01*
X81444923Y-58229643D01*
X81116518Y-58229357D01*
X80813002Y-58354767D01*
X80580583Y-58586781D01*
X80454643Y-58890077D01*
X80454357Y-59218482D01*
X73889216Y-59218482D01*
X74126998Y-59120233D01*
X74359417Y-58888219D01*
X74485357Y-58584923D01*
X74485643Y-58256518D01*
X74360233Y-57953002D01*
X74128219Y-57720583D01*
X73824923Y-57594643D01*
X73496518Y-57594357D01*
X73193002Y-57719767D01*
X72960583Y-57951781D01*
X72834643Y-58255077D01*
X72834357Y-58583482D01*
X64642857Y-58583482D01*
X64643198Y-58193641D01*
X64469554Y-57773388D01*
X64148303Y-57451577D01*
X63728354Y-57277199D01*
X63273641Y-57276802D01*
X62853388Y-57450446D01*
X62531577Y-57771697D01*
X62357199Y-58191646D01*
X62356802Y-58646359D01*
X60452000Y-58646359D01*
X60452000Y-56106359D01*
X62356802Y-56106359D01*
X62530446Y-56526612D01*
X62851697Y-56848423D01*
X63271646Y-57022801D01*
X63726359Y-57023198D01*
X64146612Y-56849554D01*
X64468423Y-56528303D01*
X64642801Y-56108354D01*
X64642857Y-56043482D01*
X72834357Y-56043482D01*
X72959767Y-56346998D01*
X73191781Y-56579417D01*
X73495077Y-56705357D01*
X73823482Y-56705643D01*
X74126998Y-56580233D01*
X74359417Y-56348219D01*
X74485357Y-56044923D01*
X74485358Y-56043482D01*
X80454357Y-56043482D01*
X80579767Y-56346998D01*
X80811781Y-56579417D01*
X81115077Y-56705357D01*
X81443482Y-56705643D01*
X81746998Y-56580233D01*
X81979417Y-56348219D01*
X82105357Y-56044923D01*
X82105643Y-55716518D01*
X81980233Y-55413002D01*
X81748219Y-55180583D01*
X81444923Y-55054643D01*
X81116518Y-55054357D01*
X80813002Y-55179767D01*
X80580583Y-55411781D01*
X80454643Y-55715077D01*
X80454357Y-56043482D01*
X74485358Y-56043482D01*
X74485643Y-55716518D01*
X74360233Y-55413002D01*
X74128219Y-55180583D01*
X73824923Y-55054643D01*
X73496518Y-55054357D01*
X73193002Y-55179767D01*
X72960583Y-55411781D01*
X72834643Y-55715077D01*
X72834357Y-56043482D01*
X64642857Y-56043482D01*
X64643198Y-55653641D01*
X64469554Y-55233388D01*
X64148303Y-54911577D01*
X63728354Y-54737199D01*
X63273641Y-54736802D01*
X62853388Y-54910446D01*
X62531577Y-55231697D01*
X62357199Y-55651646D01*
X62356802Y-56106359D01*
X60452000Y-56106359D01*
X60452000Y-53566359D01*
X62356802Y-53566359D01*
X62530446Y-53986612D01*
X62851697Y-54308423D01*
X63271646Y-54482801D01*
X63726359Y-54483198D01*
X64146612Y-54309554D01*
X64468423Y-53988303D01*
X64642801Y-53568354D01*
X64642857Y-53503482D01*
X72834357Y-53503482D01*
X72959767Y-53806998D01*
X73191781Y-54039417D01*
X73495077Y-54165357D01*
X73823482Y-54165643D01*
X74126998Y-54040233D01*
X74359417Y-53808219D01*
X74485357Y-53504923D01*
X74485358Y-53503482D01*
X80454357Y-53503482D01*
X80579767Y-53806998D01*
X80811781Y-54039417D01*
X81115077Y-54165357D01*
X81443482Y-54165643D01*
X81746998Y-54040233D01*
X81979417Y-53808219D01*
X82105357Y-53504923D01*
X82105643Y-53176518D01*
X81980233Y-52873002D01*
X81748219Y-52640583D01*
X81444923Y-52514643D01*
X81116518Y-52514357D01*
X80813002Y-52639767D01*
X80580583Y-52871781D01*
X80454643Y-53175077D01*
X80454357Y-53503482D01*
X74485358Y-53503482D01*
X74485643Y-53176518D01*
X74360233Y-52873002D01*
X74128219Y-52640583D01*
X73824923Y-52514643D01*
X73496518Y-52514357D01*
X73193002Y-52639767D01*
X72960583Y-52871781D01*
X72834643Y-53175077D01*
X72834357Y-53503482D01*
X64642857Y-53503482D01*
X64643198Y-53113641D01*
X64469554Y-52693388D01*
X64148303Y-52371577D01*
X63728354Y-52197199D01*
X63273641Y-52196802D01*
X62853388Y-52370446D01*
X62531577Y-52691697D01*
X62357199Y-53111646D01*
X62356802Y-53566359D01*
X60452000Y-53566359D01*
X60452000Y-51026359D01*
X62356802Y-51026359D01*
X62530446Y-51446612D01*
X62851697Y-51768423D01*
X63271646Y-51942801D01*
X63726359Y-51943198D01*
X64146612Y-51769554D01*
X64468423Y-51448303D01*
X64642801Y-51028354D01*
X64642857Y-50963482D01*
X72834357Y-50963482D01*
X72959767Y-51266998D01*
X73191781Y-51499417D01*
X73495077Y-51625357D01*
X73823482Y-51625643D01*
X74126998Y-51500233D01*
X74359417Y-51268219D01*
X74485357Y-50964923D01*
X74485358Y-50963482D01*
X80454357Y-50963482D01*
X80579767Y-51266998D01*
X80811781Y-51499417D01*
X81115077Y-51625357D01*
X81443482Y-51625643D01*
X81746998Y-51500233D01*
X81979417Y-51268219D01*
X82105357Y-50964923D01*
X82105643Y-50636518D01*
X81980233Y-50333002D01*
X81748219Y-50100583D01*
X81444923Y-49974643D01*
X81116518Y-49974357D01*
X80813002Y-50099767D01*
X80580583Y-50331781D01*
X80454643Y-50635077D01*
X80454357Y-50963482D01*
X74485358Y-50963482D01*
X74485643Y-50636518D01*
X74360233Y-50333002D01*
X74128219Y-50100583D01*
X73824923Y-49974643D01*
X73496518Y-49974357D01*
X73193002Y-50099767D01*
X72960583Y-50331781D01*
X72834643Y-50635077D01*
X72834357Y-50963482D01*
X64642857Y-50963482D01*
X64643198Y-50573641D01*
X64469554Y-50153388D01*
X64148303Y-49831577D01*
X63728354Y-49657199D01*
X63273641Y-49656802D01*
X62853388Y-49830446D01*
X62531577Y-50151697D01*
X62357199Y-50571646D01*
X62356802Y-51026359D01*
X60452000Y-51026359D01*
X60452000Y-48486359D01*
X62356802Y-48486359D01*
X62530446Y-48906612D01*
X62851697Y-49228423D01*
X63271646Y-49402801D01*
X63726359Y-49403198D01*
X64146612Y-49229554D01*
X64468423Y-48908303D01*
X64642801Y-48488354D01*
X64642857Y-48423482D01*
X72834357Y-48423482D01*
X72959767Y-48726998D01*
X73191781Y-48959417D01*
X73495077Y-49085357D01*
X73823482Y-49085643D01*
X74126998Y-48960233D01*
X74359417Y-48728219D01*
X74485357Y-48424923D01*
X74485358Y-48423482D01*
X80454357Y-48423482D01*
X80579767Y-48726998D01*
X80811781Y-48959417D01*
X81115077Y-49085357D01*
X81443482Y-49085643D01*
X81746998Y-48960233D01*
X81773795Y-48933482D01*
X90614357Y-48933482D01*
X90739767Y-49236998D01*
X90971781Y-49469417D01*
X91275077Y-49595357D01*
X91603482Y-49595643D01*
X91906998Y-49470233D01*
X92139417Y-49238219D01*
X92265357Y-48934923D01*
X92265643Y-48606518D01*
X92140233Y-48303002D01*
X91908219Y-48070583D01*
X91604923Y-47944643D01*
X91276518Y-47944357D01*
X90973002Y-48069767D01*
X90740583Y-48301781D01*
X90614643Y-48605077D01*
X90614357Y-48933482D01*
X81773795Y-48933482D01*
X81979417Y-48728219D01*
X82105357Y-48424923D01*
X82105643Y-48096518D01*
X81980233Y-47793002D01*
X81748219Y-47560583D01*
X81444923Y-47434643D01*
X81116518Y-47434357D01*
X80813002Y-47559767D01*
X80580583Y-47791781D01*
X80454643Y-48095077D01*
X80454357Y-48423482D01*
X74485358Y-48423482D01*
X74485643Y-48096518D01*
X74360233Y-47793002D01*
X74128219Y-47560583D01*
X73824923Y-47434643D01*
X73496518Y-47434357D01*
X73193002Y-47559767D01*
X72960583Y-47791781D01*
X72834643Y-48095077D01*
X72834357Y-48423482D01*
X64642857Y-48423482D01*
X64643198Y-48033641D01*
X64469554Y-47613388D01*
X64148303Y-47291577D01*
X63728354Y-47117199D01*
X63273641Y-47116802D01*
X62853388Y-47290446D01*
X62531577Y-47611697D01*
X62357199Y-48031646D01*
X62356802Y-48486359D01*
X60452000Y-48486359D01*
X60452000Y-45946359D01*
X62356802Y-45946359D01*
X62530446Y-46366612D01*
X62851697Y-46688423D01*
X63271646Y-46862801D01*
X63726359Y-46863198D01*
X64146612Y-46689554D01*
X64468423Y-46368303D01*
X64642801Y-45948354D01*
X64642857Y-45883482D01*
X72834357Y-45883482D01*
X72959767Y-46186998D01*
X73191781Y-46419417D01*
X73495077Y-46545357D01*
X73823482Y-46545643D01*
X74126998Y-46420233D01*
X74359417Y-46188219D01*
X74485357Y-45884923D01*
X74485358Y-45883482D01*
X80454357Y-45883482D01*
X80579767Y-46186998D01*
X80811781Y-46419417D01*
X81115077Y-46545357D01*
X81443482Y-46545643D01*
X81746998Y-46420233D01*
X81979417Y-46188219D01*
X82105357Y-45884923D01*
X82105643Y-45556518D01*
X81980233Y-45253002D01*
X81748219Y-45020583D01*
X81444923Y-44894643D01*
X81116518Y-44894357D01*
X80813002Y-45019767D01*
X80580583Y-45251781D01*
X80454643Y-45555077D01*
X80454357Y-45883482D01*
X74485358Y-45883482D01*
X74485643Y-45556518D01*
X74360233Y-45253002D01*
X74128219Y-45020583D01*
X73824923Y-44894643D01*
X73496518Y-44894357D01*
X73193002Y-45019767D01*
X72960583Y-45251781D01*
X72834643Y-45555077D01*
X72834357Y-45883482D01*
X64642857Y-45883482D01*
X64643198Y-45493641D01*
X64469554Y-45073388D01*
X64148303Y-44751577D01*
X63728354Y-44577199D01*
X63273641Y-44576802D01*
X62853388Y-44750446D01*
X62531577Y-45071697D01*
X62357199Y-45491646D01*
X62356802Y-45946359D01*
X60452000Y-45946359D01*
X60452000Y-43406359D01*
X62356802Y-43406359D01*
X62530446Y-43826612D01*
X62851697Y-44148423D01*
X63271646Y-44322801D01*
X63726359Y-44323198D01*
X64146612Y-44149554D01*
X64468423Y-43828303D01*
X64642801Y-43408354D01*
X64642857Y-43343482D01*
X72834357Y-43343482D01*
X72959767Y-43646998D01*
X73191781Y-43879417D01*
X73495077Y-44005357D01*
X73823482Y-44005643D01*
X74126998Y-43880233D01*
X74359417Y-43648219D01*
X74485357Y-43344923D01*
X74485358Y-43343482D01*
X80454357Y-43343482D01*
X80579767Y-43646998D01*
X80811781Y-43879417D01*
X81115077Y-44005357D01*
X81443482Y-44005643D01*
X81746998Y-43880233D01*
X81979417Y-43648219D01*
X82105357Y-43344923D01*
X82105643Y-43016518D01*
X81980233Y-42713002D01*
X81748219Y-42480583D01*
X81444923Y-42354643D01*
X81116518Y-42354357D01*
X80813002Y-42479767D01*
X80580583Y-42711781D01*
X80454643Y-43015077D01*
X80454357Y-43343482D01*
X74485358Y-43343482D01*
X74485643Y-43016518D01*
X74360233Y-42713002D01*
X74128219Y-42480583D01*
X73824923Y-42354643D01*
X73496518Y-42354357D01*
X73193002Y-42479767D01*
X72960583Y-42711781D01*
X72834643Y-43015077D01*
X72834357Y-43343482D01*
X64642857Y-43343482D01*
X64643198Y-42953641D01*
X64469554Y-42533388D01*
X64148303Y-42211577D01*
X63728354Y-42037199D01*
X63273641Y-42036802D01*
X62853388Y-42210446D01*
X62531577Y-42531697D01*
X62357199Y-42951646D01*
X62356802Y-43406359D01*
X60452000Y-43406359D01*
X60452000Y-40866359D01*
X62356802Y-40866359D01*
X62530446Y-41286612D01*
X62851697Y-41608423D01*
X63271646Y-41782801D01*
X63726359Y-41783198D01*
X64146612Y-41609554D01*
X64468423Y-41288303D01*
X64642801Y-40868354D01*
X64642857Y-40803482D01*
X72834357Y-40803482D01*
X72959767Y-41106998D01*
X73191781Y-41339417D01*
X73495077Y-41465357D01*
X73823482Y-41465643D01*
X74126998Y-41340233D01*
X74359417Y-41108219D01*
X74485357Y-40804923D01*
X74485358Y-40803482D01*
X80454357Y-40803482D01*
X80579767Y-41106998D01*
X80811781Y-41339417D01*
X81115077Y-41465357D01*
X81443482Y-41465643D01*
X81746998Y-41340233D01*
X81979417Y-41108219D01*
X82105357Y-40804923D01*
X82105643Y-40476518D01*
X81980233Y-40173002D01*
X81748219Y-39940583D01*
X81444923Y-39814643D01*
X81116518Y-39814357D01*
X80813002Y-39939767D01*
X80580583Y-40171781D01*
X80454643Y-40475077D01*
X80454357Y-40803482D01*
X74485358Y-40803482D01*
X74485643Y-40476518D01*
X74360233Y-40173002D01*
X74128219Y-39940583D01*
X73824923Y-39814643D01*
X73496518Y-39814357D01*
X73193002Y-39939767D01*
X72960583Y-40171781D01*
X72834643Y-40475077D01*
X72834357Y-40803482D01*
X64642857Y-40803482D01*
X64643198Y-40413641D01*
X64469554Y-39993388D01*
X64148303Y-39671577D01*
X63728354Y-39497199D01*
X63273641Y-39496802D01*
X62853388Y-39670446D01*
X62531577Y-39991697D01*
X62357199Y-40411646D01*
X62356802Y-40866359D01*
X60452000Y-40866359D01*
X60452000Y-38326359D01*
X62356802Y-38326359D01*
X62530446Y-38746612D01*
X62851697Y-39068423D01*
X63271646Y-39242801D01*
X63726359Y-39243198D01*
X64146612Y-39069554D01*
X64468423Y-38748303D01*
X64642801Y-38328354D01*
X64642857Y-38263482D01*
X72834357Y-38263482D01*
X72959767Y-38566998D01*
X73191781Y-38799417D01*
X73495077Y-38925357D01*
X73823482Y-38925643D01*
X74126998Y-38800233D01*
X74359417Y-38568219D01*
X74485357Y-38264923D01*
X74485358Y-38263482D01*
X80454357Y-38263482D01*
X80579767Y-38566998D01*
X80811781Y-38799417D01*
X81115077Y-38925357D01*
X81443482Y-38925643D01*
X81746998Y-38800233D01*
X81979417Y-38568219D01*
X82105357Y-38264923D01*
X82105643Y-37936518D01*
X81980233Y-37633002D01*
X81748219Y-37400583D01*
X81444923Y-37274643D01*
X81116518Y-37274357D01*
X80813002Y-37399767D01*
X80580583Y-37631781D01*
X80454643Y-37935077D01*
X80454357Y-38263482D01*
X74485358Y-38263482D01*
X74485643Y-37936518D01*
X74360233Y-37633002D01*
X74128219Y-37400583D01*
X73824923Y-37274643D01*
X73496518Y-37274357D01*
X73193002Y-37399767D01*
X72960583Y-37631781D01*
X72834643Y-37935077D01*
X72834357Y-38263482D01*
X64642857Y-38263482D01*
X64643198Y-37873641D01*
X64469554Y-37453388D01*
X64148303Y-37131577D01*
X63728354Y-36957199D01*
X63273641Y-36956802D01*
X62853388Y-37130446D01*
X62531577Y-37451697D01*
X62357199Y-37871646D01*
X62356802Y-38326359D01*
X60452000Y-38326359D01*
X60452000Y-33471461D01*
X66299955Y-33471461D01*
X66646280Y-34309631D01*
X67286996Y-34951466D01*
X68124560Y-35299253D01*
X69031461Y-35300045D01*
X69869631Y-34953720D01*
X70511466Y-34313004D01*
X70859253Y-33475440D01*
X70859507Y-33183482D01*
X74739357Y-33183482D01*
X74864767Y-33486998D01*
X75096781Y-33719417D01*
X75400077Y-33845357D01*
X75728482Y-33845643D01*
X76031998Y-33720233D01*
X76264417Y-33488219D01*
X76390357Y-33184923D01*
X76390643Y-32856518D01*
X76265233Y-32553002D01*
X76033219Y-32320583D01*
X75729923Y-32194643D01*
X75401518Y-32194357D01*
X75098002Y-32319767D01*
X74865583Y-32551781D01*
X74739643Y-32855077D01*
X74739357Y-33183482D01*
X70859507Y-33183482D01*
X70860045Y-32568539D01*
X70513720Y-31730369D01*
X69873004Y-31088534D01*
X69035440Y-30740747D01*
X68128539Y-30739955D01*
X67290369Y-31086280D01*
X66648534Y-31726996D01*
X66300747Y-32564560D01*
X66299955Y-33471461D01*
X60452000Y-33471461D01*
X60452000Y-30607000D01*
X86868000Y-30607000D01*
X86868000Y-37334384D01*
X86868000Y-37334384D01*
G37*
X86868000Y-37334384D02*
X86836518Y-37334357D01*
X86533002Y-37459767D01*
X86300583Y-37691781D01*
X86174643Y-37995077D01*
X86174357Y-38323482D01*
X86299767Y-38626998D01*
X86531781Y-38859417D01*
X86835077Y-38985357D01*
X86868000Y-38985386D01*
X86868000Y-41910000D01*
X86878006Y-41959410D01*
X86906447Y-42001035D01*
X86948841Y-42028315D01*
X86995000Y-42037000D01*
X89408000Y-42037000D01*
X89408000Y-43815000D01*
X89418006Y-43864410D01*
X89446447Y-43906035D01*
X89488841Y-43933315D01*
X89535000Y-43942000D01*
X95123000Y-43942000D01*
X95123000Y-45667394D01*
X93255197Y-47535197D01*
X93227334Y-47577211D01*
X93218000Y-47625000D01*
X93218000Y-50984463D01*
X93096518Y-50984357D01*
X92793002Y-51109767D01*
X92560583Y-51341781D01*
X92434643Y-51645077D01*
X92434357Y-51973482D01*
X92559767Y-52276998D01*
X92791781Y-52509417D01*
X93095077Y-52635357D01*
X93218000Y-52635464D01*
X93218000Y-62904489D01*
X93066518Y-62904357D01*
X92763002Y-63029767D01*
X92530583Y-63261781D01*
X92404643Y-63565077D01*
X92404357Y-63893482D01*
X92529767Y-64196998D01*
X92761781Y-64429417D01*
X93065077Y-64555357D01*
X93218000Y-64555490D01*
X93218000Y-71670662D01*
X93174643Y-71775077D01*
X93174357Y-72103482D01*
X93218000Y-72209106D01*
X93218000Y-76708000D01*
X90805000Y-76708000D01*
X90755590Y-76718006D01*
X90713965Y-76746447D01*
X90686685Y-76788841D01*
X90678000Y-76835000D01*
X90678000Y-79248000D01*
X88441980Y-79248000D01*
X88726998Y-79130233D01*
X88959417Y-78898219D01*
X89085357Y-78594923D01*
X89085643Y-78266518D01*
X88960233Y-77963002D01*
X88728219Y-77730583D01*
X88424923Y-77604643D01*
X88096518Y-77604357D01*
X87793002Y-77729767D01*
X87560583Y-77961781D01*
X87434643Y-78265077D01*
X87434357Y-78593482D01*
X87559767Y-78896998D01*
X87791781Y-79129417D01*
X88077359Y-79248000D01*
X81939567Y-79248000D01*
X81979417Y-79208219D01*
X82105357Y-78904923D01*
X82105643Y-78576518D01*
X81980233Y-78273002D01*
X81748219Y-78040583D01*
X81444923Y-77914643D01*
X81116518Y-77914357D01*
X80813002Y-78039767D01*
X80580583Y-78271781D01*
X80454643Y-78575077D01*
X80454357Y-78903482D01*
X80579767Y-79206998D01*
X80620698Y-79248000D01*
X77470000Y-79248000D01*
X77420590Y-79258006D01*
X77378965Y-79286447D01*
X77351685Y-79328841D01*
X77343000Y-79375000D01*
X77343000Y-87503000D01*
X60452000Y-87503000D01*
X60452000Y-85541461D01*
X66299955Y-85541461D01*
X66646280Y-86379631D01*
X67286996Y-87021466D01*
X68124560Y-87369253D01*
X69031461Y-87370045D01*
X69869631Y-87023720D01*
X70511466Y-86383004D01*
X70859253Y-85545440D01*
X70860045Y-84638539D01*
X70513720Y-83800369D01*
X69873004Y-83158534D01*
X69035440Y-82810747D01*
X68128539Y-82809955D01*
X67290369Y-83156280D01*
X66648534Y-83796996D01*
X66300747Y-84634560D01*
X66299955Y-85541461D01*
X60452000Y-85541461D01*
X60452000Y-80518000D01*
X62349536Y-80518000D01*
X62349536Y-82042000D01*
X62376103Y-82183190D01*
X62459546Y-82312865D01*
X62586866Y-82399859D01*
X62738000Y-82430464D01*
X64262000Y-82430464D01*
X64403190Y-82403897D01*
X64532865Y-82320454D01*
X64619859Y-82193134D01*
X64650464Y-82042000D01*
X64650464Y-81443482D01*
X71564357Y-81443482D01*
X71689767Y-81746998D01*
X71921781Y-81979417D01*
X72225077Y-82105357D01*
X72553482Y-82105643D01*
X72856998Y-81980233D01*
X73089417Y-81748219D01*
X73215357Y-81444923D01*
X73215643Y-81116518D01*
X73090233Y-80813002D01*
X72858219Y-80580583D01*
X72554923Y-80454643D01*
X72226518Y-80454357D01*
X71923002Y-80579767D01*
X71690583Y-80811781D01*
X71564643Y-81115077D01*
X71564357Y-81443482D01*
X64650464Y-81443482D01*
X64650464Y-80518000D01*
X64623897Y-80376810D01*
X64540454Y-80247135D01*
X64413134Y-80160141D01*
X64262000Y-80129536D01*
X62738000Y-80129536D01*
X62596810Y-80156103D01*
X62467135Y-80239546D01*
X62380141Y-80366866D01*
X62349536Y-80518000D01*
X60452000Y-80518000D01*
X60452000Y-78966359D01*
X62356802Y-78966359D01*
X62530446Y-79386612D01*
X62851697Y-79708423D01*
X63271646Y-79882801D01*
X63726359Y-79883198D01*
X64146612Y-79709554D01*
X64468423Y-79388303D01*
X64642801Y-78968354D01*
X64642857Y-78903482D01*
X72834357Y-78903482D01*
X72959767Y-79206998D01*
X73191781Y-79439417D01*
X73495077Y-79565357D01*
X73823482Y-79565643D01*
X74126998Y-79440233D01*
X74359417Y-79208219D01*
X74485357Y-78904923D01*
X74485643Y-78576518D01*
X74360233Y-78273002D01*
X74128219Y-78040583D01*
X73824923Y-77914643D01*
X73496518Y-77914357D01*
X73193002Y-78039767D01*
X72960583Y-78271781D01*
X72834643Y-78575077D01*
X72834357Y-78903482D01*
X64642857Y-78903482D01*
X64643198Y-78513641D01*
X64469554Y-78093388D01*
X64148303Y-77771577D01*
X63728354Y-77597199D01*
X63273641Y-77596802D01*
X62853388Y-77770446D01*
X62531577Y-78091697D01*
X62357199Y-78511646D01*
X62356802Y-78966359D01*
X60452000Y-78966359D01*
X60452000Y-76426359D01*
X62356802Y-76426359D01*
X62530446Y-76846612D01*
X62851697Y-77168423D01*
X63271646Y-77342801D01*
X63726359Y-77343198D01*
X64146612Y-77169554D01*
X64468423Y-76848303D01*
X64642801Y-76428354D01*
X64642857Y-76363482D01*
X72834357Y-76363482D01*
X72959767Y-76666998D01*
X73191781Y-76899417D01*
X73495077Y-77025357D01*
X73823482Y-77025643D01*
X74126998Y-76900233D01*
X74359417Y-76668219D01*
X74485357Y-76364923D01*
X74485358Y-76363482D01*
X80454357Y-76363482D01*
X80579767Y-76666998D01*
X80811781Y-76899417D01*
X81115077Y-77025357D01*
X81443482Y-77025643D01*
X81746998Y-76900233D01*
X81979417Y-76668219D01*
X82105357Y-76364923D01*
X82105643Y-76036518D01*
X81980233Y-75733002D01*
X81748219Y-75500583D01*
X81562540Y-75423482D01*
X90214357Y-75423482D01*
X90339767Y-75726998D01*
X90571781Y-75959417D01*
X90875077Y-76085357D01*
X91203482Y-76085643D01*
X91506998Y-75960233D01*
X91739417Y-75728219D01*
X91865357Y-75424923D01*
X91865643Y-75096518D01*
X91740233Y-74793002D01*
X91508219Y-74560583D01*
X91204923Y-74434643D01*
X90876518Y-74434357D01*
X90573002Y-74559767D01*
X90340583Y-74791781D01*
X90214643Y-75095077D01*
X90214357Y-75423482D01*
X81562540Y-75423482D01*
X81444923Y-75374643D01*
X81116518Y-75374357D01*
X80813002Y-75499767D01*
X80580583Y-75731781D01*
X80454643Y-76035077D01*
X80454357Y-76363482D01*
X74485358Y-76363482D01*
X74485643Y-76036518D01*
X74360233Y-75733002D01*
X74128219Y-75500583D01*
X73824923Y-75374643D01*
X73496518Y-75374357D01*
X73193002Y-75499767D01*
X72960583Y-75731781D01*
X72834643Y-76035077D01*
X72834357Y-76363482D01*
X64642857Y-76363482D01*
X64643198Y-75973641D01*
X64469554Y-75553388D01*
X64148303Y-75231577D01*
X63728354Y-75057199D01*
X63273641Y-75056802D01*
X62853388Y-75230446D01*
X62531577Y-75551697D01*
X62357199Y-75971646D01*
X62356802Y-76426359D01*
X60452000Y-76426359D01*
X60452000Y-73886359D01*
X62356802Y-73886359D01*
X62530446Y-74306612D01*
X62851697Y-74628423D01*
X63271646Y-74802801D01*
X63726359Y-74803198D01*
X64146612Y-74629554D01*
X64468423Y-74308303D01*
X64642801Y-73888354D01*
X64642857Y-73823482D01*
X72834357Y-73823482D01*
X72959767Y-74126998D01*
X73191781Y-74359417D01*
X73495077Y-74485357D01*
X73823482Y-74485643D01*
X74126998Y-74360233D01*
X74359417Y-74128219D01*
X74485357Y-73824923D01*
X74485358Y-73823482D01*
X80454357Y-73823482D01*
X80579767Y-74126998D01*
X80811781Y-74359417D01*
X81115077Y-74485357D01*
X81443482Y-74485643D01*
X81746998Y-74360233D01*
X81979417Y-74128219D01*
X82105357Y-73824923D01*
X82105643Y-73496518D01*
X81980233Y-73193002D01*
X81748219Y-72960583D01*
X81444923Y-72834643D01*
X81116518Y-72834357D01*
X80813002Y-72959767D01*
X80580583Y-73191781D01*
X80454643Y-73495077D01*
X80454357Y-73823482D01*
X74485358Y-73823482D01*
X74485643Y-73496518D01*
X74360233Y-73193002D01*
X74128219Y-72960583D01*
X73824923Y-72834643D01*
X73496518Y-72834357D01*
X73193002Y-72959767D01*
X72960583Y-73191781D01*
X72834643Y-73495077D01*
X72834357Y-73823482D01*
X64642857Y-73823482D01*
X64643198Y-73433641D01*
X64469554Y-73013388D01*
X64148303Y-72691577D01*
X63728354Y-72517199D01*
X63273641Y-72516802D01*
X62853388Y-72690446D01*
X62531577Y-73011697D01*
X62357199Y-73431646D01*
X62356802Y-73886359D01*
X60452000Y-73886359D01*
X60452000Y-71346359D01*
X62356802Y-71346359D01*
X62530446Y-71766612D01*
X62851697Y-72088423D01*
X63271646Y-72262801D01*
X63726359Y-72263198D01*
X64146612Y-72089554D01*
X64182746Y-72053482D01*
X85534357Y-72053482D01*
X85659767Y-72356998D01*
X85891781Y-72589417D01*
X86195077Y-72715357D01*
X86523482Y-72715643D01*
X86826998Y-72590233D01*
X87059417Y-72358219D01*
X87185357Y-72054923D01*
X87185393Y-72013482D01*
X88074357Y-72013482D01*
X88199767Y-72316998D01*
X88431781Y-72549417D01*
X88735077Y-72675357D01*
X89063482Y-72675643D01*
X89366998Y-72550233D01*
X89599417Y-72318219D01*
X89705193Y-72063482D01*
X90624357Y-72063482D01*
X90749767Y-72366998D01*
X90981781Y-72599417D01*
X91285077Y-72725357D01*
X91613482Y-72725643D01*
X91916998Y-72600233D01*
X92149417Y-72368219D01*
X92275357Y-72064923D01*
X92275643Y-71736518D01*
X92150233Y-71433002D01*
X91918219Y-71200583D01*
X91614923Y-71074643D01*
X91286518Y-71074357D01*
X90983002Y-71199767D01*
X90750583Y-71431781D01*
X90624643Y-71735077D01*
X90624357Y-72063482D01*
X89705193Y-72063482D01*
X89725357Y-72014923D01*
X89725643Y-71686518D01*
X89600233Y-71383002D01*
X89368219Y-71150583D01*
X89064923Y-71024643D01*
X88736518Y-71024357D01*
X88433002Y-71149767D01*
X88200583Y-71381781D01*
X88074643Y-71685077D01*
X88074357Y-72013482D01*
X87185393Y-72013482D01*
X87185643Y-71726518D01*
X87060233Y-71423002D01*
X86828219Y-71190583D01*
X86524923Y-71064643D01*
X86196518Y-71064357D01*
X85893002Y-71189767D01*
X85660583Y-71421781D01*
X85534643Y-71725077D01*
X85534357Y-72053482D01*
X64182746Y-72053482D01*
X64468423Y-71768303D01*
X64642801Y-71348354D01*
X64642857Y-71283482D01*
X72834357Y-71283482D01*
X72959767Y-71586998D01*
X73191781Y-71819417D01*
X73495077Y-71945357D01*
X73823482Y-71945643D01*
X74126998Y-71820233D01*
X74359417Y-71588219D01*
X74485357Y-71284923D01*
X74485358Y-71283482D01*
X80454357Y-71283482D01*
X80579767Y-71586998D01*
X80811781Y-71819417D01*
X81115077Y-71945357D01*
X81443482Y-71945643D01*
X81746998Y-71820233D01*
X81979417Y-71588219D01*
X82105357Y-71284923D01*
X82105643Y-70956518D01*
X81980233Y-70653002D01*
X81748219Y-70420583D01*
X81444923Y-70294643D01*
X81116518Y-70294357D01*
X80813002Y-70419767D01*
X80580583Y-70651781D01*
X80454643Y-70955077D01*
X80454357Y-71283482D01*
X74485358Y-71283482D01*
X74485643Y-70956518D01*
X74360233Y-70653002D01*
X74128219Y-70420583D01*
X73824923Y-70294643D01*
X73496518Y-70294357D01*
X73193002Y-70419767D01*
X72960583Y-70651781D01*
X72834643Y-70955077D01*
X72834357Y-71283482D01*
X64642857Y-71283482D01*
X64643198Y-70893641D01*
X64469554Y-70473388D01*
X64148303Y-70151577D01*
X63728354Y-69977199D01*
X63273641Y-69976802D01*
X62853388Y-70150446D01*
X62531577Y-70471697D01*
X62357199Y-70891646D01*
X62356802Y-71346359D01*
X60452000Y-71346359D01*
X60452000Y-68806359D01*
X62356802Y-68806359D01*
X62530446Y-69226612D01*
X62851697Y-69548423D01*
X63271646Y-69722801D01*
X63726359Y-69723198D01*
X64146612Y-69549554D01*
X64468423Y-69228303D01*
X64642801Y-68808354D01*
X64642857Y-68743482D01*
X72834357Y-68743482D01*
X72959767Y-69046998D01*
X73191781Y-69279417D01*
X73495077Y-69405357D01*
X73823482Y-69405643D01*
X74126998Y-69280233D01*
X74359417Y-69048219D01*
X74485357Y-68744923D01*
X74485358Y-68743482D01*
X80454357Y-68743482D01*
X80579767Y-69046998D01*
X80811781Y-69279417D01*
X81115077Y-69405357D01*
X81443482Y-69405643D01*
X81746998Y-69280233D01*
X81979417Y-69048219D01*
X82105357Y-68744923D01*
X82105643Y-68416518D01*
X81980233Y-68113002D01*
X81748219Y-67880583D01*
X81444923Y-67754643D01*
X81116518Y-67754357D01*
X80813002Y-67879767D01*
X80580583Y-68111781D01*
X80454643Y-68415077D01*
X80454357Y-68743482D01*
X74485358Y-68743482D01*
X74485643Y-68416518D01*
X74360233Y-68113002D01*
X74128219Y-67880583D01*
X73824923Y-67754643D01*
X73496518Y-67754357D01*
X73193002Y-67879767D01*
X72960583Y-68111781D01*
X72834643Y-68415077D01*
X72834357Y-68743482D01*
X64642857Y-68743482D01*
X64643198Y-68353641D01*
X64469554Y-67933388D01*
X64148303Y-67611577D01*
X63728354Y-67437199D01*
X63273641Y-67436802D01*
X62853388Y-67610446D01*
X62531577Y-67931697D01*
X62357199Y-68351646D01*
X62356802Y-68806359D01*
X60452000Y-68806359D01*
X60452000Y-66266359D01*
X62356802Y-66266359D01*
X62530446Y-66686612D01*
X62851697Y-67008423D01*
X63271646Y-67182801D01*
X63726359Y-67183198D01*
X64146612Y-67009554D01*
X64468423Y-66688303D01*
X64642801Y-66268354D01*
X64642857Y-66203482D01*
X72834357Y-66203482D01*
X72959767Y-66506998D01*
X73191781Y-66739417D01*
X73495077Y-66865357D01*
X73823482Y-66865643D01*
X74126998Y-66740233D01*
X74359417Y-66508219D01*
X74485357Y-66204923D01*
X74485358Y-66203482D01*
X80454357Y-66203482D01*
X80579767Y-66506998D01*
X80811781Y-66739417D01*
X81115077Y-66865357D01*
X81443482Y-66865643D01*
X81746998Y-66740233D01*
X81979417Y-66508219D01*
X82105357Y-66204923D01*
X82105643Y-65876518D01*
X81980233Y-65573002D01*
X81748219Y-65340583D01*
X81444923Y-65214643D01*
X81116518Y-65214357D01*
X80813002Y-65339767D01*
X80580583Y-65571781D01*
X80454643Y-65875077D01*
X80454357Y-66203482D01*
X74485358Y-66203482D01*
X74485643Y-65876518D01*
X74360233Y-65573002D01*
X74128219Y-65340583D01*
X73824923Y-65214643D01*
X73496518Y-65214357D01*
X73193002Y-65339767D01*
X72960583Y-65571781D01*
X72834643Y-65875077D01*
X72834357Y-66203482D01*
X64642857Y-66203482D01*
X64643198Y-65813641D01*
X64469554Y-65393388D01*
X64148303Y-65071577D01*
X63728354Y-64897199D01*
X63273641Y-64896802D01*
X62853388Y-65070446D01*
X62531577Y-65391697D01*
X62357199Y-65811646D01*
X62356802Y-66266359D01*
X60452000Y-66266359D01*
X60452000Y-63726359D01*
X62356802Y-63726359D01*
X62530446Y-64146612D01*
X62851697Y-64468423D01*
X63271646Y-64642801D01*
X63726359Y-64643198D01*
X64146612Y-64469554D01*
X64468423Y-64148303D01*
X64642801Y-63728354D01*
X64642857Y-63663482D01*
X72834357Y-63663482D01*
X72959767Y-63966998D01*
X73191781Y-64199417D01*
X73495077Y-64325357D01*
X73823482Y-64325643D01*
X74126998Y-64200233D01*
X74359417Y-63968219D01*
X74485357Y-63664923D01*
X74485358Y-63663482D01*
X80454357Y-63663482D01*
X80579767Y-63966998D01*
X80811781Y-64199417D01*
X81115077Y-64325357D01*
X81443482Y-64325643D01*
X81746998Y-64200233D01*
X81979417Y-63968219D01*
X82105357Y-63664923D01*
X82105643Y-63336518D01*
X81980233Y-63033002D01*
X81748219Y-62800583D01*
X81444923Y-62674643D01*
X81116518Y-62674357D01*
X80813002Y-62799767D01*
X80580583Y-63031781D01*
X80454643Y-63335077D01*
X80454357Y-63663482D01*
X74485358Y-63663482D01*
X74485643Y-63336518D01*
X74360233Y-63033002D01*
X74128219Y-62800583D01*
X73824923Y-62674643D01*
X73496518Y-62674357D01*
X73193002Y-62799767D01*
X72960583Y-63031781D01*
X72834643Y-63335077D01*
X72834357Y-63663482D01*
X64642857Y-63663482D01*
X64643198Y-63273641D01*
X64469554Y-62853388D01*
X64148303Y-62531577D01*
X63728354Y-62357199D01*
X63273641Y-62356802D01*
X62853388Y-62530446D01*
X62531577Y-62851697D01*
X62357199Y-63271646D01*
X62356802Y-63726359D01*
X60452000Y-63726359D01*
X60452000Y-61186359D01*
X62356802Y-61186359D01*
X62530446Y-61606612D01*
X62851697Y-61928423D01*
X63271646Y-62102801D01*
X63726359Y-62103198D01*
X64146612Y-61929554D01*
X64468423Y-61608303D01*
X64642801Y-61188354D01*
X64642857Y-61123482D01*
X72834357Y-61123482D01*
X72959767Y-61426998D01*
X73191781Y-61659417D01*
X73495077Y-61785357D01*
X73823482Y-61785643D01*
X74126998Y-61660233D01*
X74359417Y-61428219D01*
X74485357Y-61124923D01*
X74485358Y-61123482D01*
X80454357Y-61123482D01*
X80579767Y-61426998D01*
X80811781Y-61659417D01*
X81115077Y-61785357D01*
X81443482Y-61785643D01*
X81746998Y-61660233D01*
X81979417Y-61428219D01*
X82105357Y-61124923D01*
X82105643Y-60796518D01*
X81980233Y-60493002D01*
X81748219Y-60260583D01*
X81444923Y-60134643D01*
X81116518Y-60134357D01*
X80813002Y-60259767D01*
X80580583Y-60491781D01*
X80454643Y-60795077D01*
X80454357Y-61123482D01*
X74485358Y-61123482D01*
X74485643Y-60796518D01*
X74360233Y-60493002D01*
X74128219Y-60260583D01*
X73824923Y-60134643D01*
X73496518Y-60134357D01*
X73193002Y-60259767D01*
X72960583Y-60491781D01*
X72834643Y-60795077D01*
X72834357Y-61123482D01*
X64642857Y-61123482D01*
X64643198Y-60733641D01*
X64469554Y-60313388D01*
X64148303Y-59991577D01*
X63728354Y-59817199D01*
X63273641Y-59816802D01*
X62853388Y-59990446D01*
X62531577Y-60311697D01*
X62357199Y-60731646D01*
X62356802Y-61186359D01*
X60452000Y-61186359D01*
X60452000Y-58646359D01*
X62356802Y-58646359D01*
X62530446Y-59066612D01*
X62851697Y-59388423D01*
X63271646Y-59562801D01*
X63726359Y-59563198D01*
X64146612Y-59389554D01*
X64468423Y-59068303D01*
X64642801Y-58648354D01*
X64642857Y-58583482D01*
X72834357Y-58583482D01*
X72959767Y-58886998D01*
X73191781Y-59119417D01*
X73495077Y-59245357D01*
X73823482Y-59245643D01*
X73889216Y-59218482D01*
X80454357Y-59218482D01*
X80579767Y-59521998D01*
X80811781Y-59754417D01*
X81115077Y-59880357D01*
X81443482Y-59880643D01*
X81746998Y-59755233D01*
X81979417Y-59523219D01*
X82105357Y-59219923D01*
X82105643Y-58891518D01*
X81980233Y-58588002D01*
X81748219Y-58355583D01*
X81444923Y-58229643D01*
X81116518Y-58229357D01*
X80813002Y-58354767D01*
X80580583Y-58586781D01*
X80454643Y-58890077D01*
X80454357Y-59218482D01*
X73889216Y-59218482D01*
X74126998Y-59120233D01*
X74359417Y-58888219D01*
X74485357Y-58584923D01*
X74485643Y-58256518D01*
X74360233Y-57953002D01*
X74128219Y-57720583D01*
X73824923Y-57594643D01*
X73496518Y-57594357D01*
X73193002Y-57719767D01*
X72960583Y-57951781D01*
X72834643Y-58255077D01*
X72834357Y-58583482D01*
X64642857Y-58583482D01*
X64643198Y-58193641D01*
X64469554Y-57773388D01*
X64148303Y-57451577D01*
X63728354Y-57277199D01*
X63273641Y-57276802D01*
X62853388Y-57450446D01*
X62531577Y-57771697D01*
X62357199Y-58191646D01*
X62356802Y-58646359D01*
X60452000Y-58646359D01*
X60452000Y-56106359D01*
X62356802Y-56106359D01*
X62530446Y-56526612D01*
X62851697Y-56848423D01*
X63271646Y-57022801D01*
X63726359Y-57023198D01*
X64146612Y-56849554D01*
X64468423Y-56528303D01*
X64642801Y-56108354D01*
X64642857Y-56043482D01*
X72834357Y-56043482D01*
X72959767Y-56346998D01*
X73191781Y-56579417D01*
X73495077Y-56705357D01*
X73823482Y-56705643D01*
X74126998Y-56580233D01*
X74359417Y-56348219D01*
X74485357Y-56044923D01*
X74485358Y-56043482D01*
X80454357Y-56043482D01*
X80579767Y-56346998D01*
X80811781Y-56579417D01*
X81115077Y-56705357D01*
X81443482Y-56705643D01*
X81746998Y-56580233D01*
X81979417Y-56348219D01*
X82105357Y-56044923D01*
X82105643Y-55716518D01*
X81980233Y-55413002D01*
X81748219Y-55180583D01*
X81444923Y-55054643D01*
X81116518Y-55054357D01*
X80813002Y-55179767D01*
X80580583Y-55411781D01*
X80454643Y-55715077D01*
X80454357Y-56043482D01*
X74485358Y-56043482D01*
X74485643Y-55716518D01*
X74360233Y-55413002D01*
X74128219Y-55180583D01*
X73824923Y-55054643D01*
X73496518Y-55054357D01*
X73193002Y-55179767D01*
X72960583Y-55411781D01*
X72834643Y-55715077D01*
X72834357Y-56043482D01*
X64642857Y-56043482D01*
X64643198Y-55653641D01*
X64469554Y-55233388D01*
X64148303Y-54911577D01*
X63728354Y-54737199D01*
X63273641Y-54736802D01*
X62853388Y-54910446D01*
X62531577Y-55231697D01*
X62357199Y-55651646D01*
X62356802Y-56106359D01*
X60452000Y-56106359D01*
X60452000Y-53566359D01*
X62356802Y-53566359D01*
X62530446Y-53986612D01*
X62851697Y-54308423D01*
X63271646Y-54482801D01*
X63726359Y-54483198D01*
X64146612Y-54309554D01*
X64468423Y-53988303D01*
X64642801Y-53568354D01*
X64642857Y-53503482D01*
X72834357Y-53503482D01*
X72959767Y-53806998D01*
X73191781Y-54039417D01*
X73495077Y-54165357D01*
X73823482Y-54165643D01*
X74126998Y-54040233D01*
X74359417Y-53808219D01*
X74485357Y-53504923D01*
X74485358Y-53503482D01*
X80454357Y-53503482D01*
X80579767Y-53806998D01*
X80811781Y-54039417D01*
X81115077Y-54165357D01*
X81443482Y-54165643D01*
X81746998Y-54040233D01*
X81979417Y-53808219D01*
X82105357Y-53504923D01*
X82105643Y-53176518D01*
X81980233Y-52873002D01*
X81748219Y-52640583D01*
X81444923Y-52514643D01*
X81116518Y-52514357D01*
X80813002Y-52639767D01*
X80580583Y-52871781D01*
X80454643Y-53175077D01*
X80454357Y-53503482D01*
X74485358Y-53503482D01*
X74485643Y-53176518D01*
X74360233Y-52873002D01*
X74128219Y-52640583D01*
X73824923Y-52514643D01*
X73496518Y-52514357D01*
X73193002Y-52639767D01*
X72960583Y-52871781D01*
X72834643Y-53175077D01*
X72834357Y-53503482D01*
X64642857Y-53503482D01*
X64643198Y-53113641D01*
X64469554Y-52693388D01*
X64148303Y-52371577D01*
X63728354Y-52197199D01*
X63273641Y-52196802D01*
X62853388Y-52370446D01*
X62531577Y-52691697D01*
X62357199Y-53111646D01*
X62356802Y-53566359D01*
X60452000Y-53566359D01*
X60452000Y-51026359D01*
X62356802Y-51026359D01*
X62530446Y-51446612D01*
X62851697Y-51768423D01*
X63271646Y-51942801D01*
X63726359Y-51943198D01*
X64146612Y-51769554D01*
X64468423Y-51448303D01*
X64642801Y-51028354D01*
X64642857Y-50963482D01*
X72834357Y-50963482D01*
X72959767Y-51266998D01*
X73191781Y-51499417D01*
X73495077Y-51625357D01*
X73823482Y-51625643D01*
X74126998Y-51500233D01*
X74359417Y-51268219D01*
X74485357Y-50964923D01*
X74485358Y-50963482D01*
X80454357Y-50963482D01*
X80579767Y-51266998D01*
X80811781Y-51499417D01*
X81115077Y-51625357D01*
X81443482Y-51625643D01*
X81746998Y-51500233D01*
X81979417Y-51268219D01*
X82105357Y-50964923D01*
X82105643Y-50636518D01*
X81980233Y-50333002D01*
X81748219Y-50100583D01*
X81444923Y-49974643D01*
X81116518Y-49974357D01*
X80813002Y-50099767D01*
X80580583Y-50331781D01*
X80454643Y-50635077D01*
X80454357Y-50963482D01*
X74485358Y-50963482D01*
X74485643Y-50636518D01*
X74360233Y-50333002D01*
X74128219Y-50100583D01*
X73824923Y-49974643D01*
X73496518Y-49974357D01*
X73193002Y-50099767D01*
X72960583Y-50331781D01*
X72834643Y-50635077D01*
X72834357Y-50963482D01*
X64642857Y-50963482D01*
X64643198Y-50573641D01*
X64469554Y-50153388D01*
X64148303Y-49831577D01*
X63728354Y-49657199D01*
X63273641Y-49656802D01*
X62853388Y-49830446D01*
X62531577Y-50151697D01*
X62357199Y-50571646D01*
X62356802Y-51026359D01*
X60452000Y-51026359D01*
X60452000Y-48486359D01*
X62356802Y-48486359D01*
X62530446Y-48906612D01*
X62851697Y-49228423D01*
X63271646Y-49402801D01*
X63726359Y-49403198D01*
X64146612Y-49229554D01*
X64468423Y-48908303D01*
X64642801Y-48488354D01*
X64642857Y-48423482D01*
X72834357Y-48423482D01*
X72959767Y-48726998D01*
X73191781Y-48959417D01*
X73495077Y-49085357D01*
X73823482Y-49085643D01*
X74126998Y-48960233D01*
X74359417Y-48728219D01*
X74485357Y-48424923D01*
X74485358Y-48423482D01*
X80454357Y-48423482D01*
X80579767Y-48726998D01*
X80811781Y-48959417D01*
X81115077Y-49085357D01*
X81443482Y-49085643D01*
X81746998Y-48960233D01*
X81773795Y-48933482D01*
X90614357Y-48933482D01*
X90739767Y-49236998D01*
X90971781Y-49469417D01*
X91275077Y-49595357D01*
X91603482Y-49595643D01*
X91906998Y-49470233D01*
X92139417Y-49238219D01*
X92265357Y-48934923D01*
X92265643Y-48606518D01*
X92140233Y-48303002D01*
X91908219Y-48070583D01*
X91604923Y-47944643D01*
X91276518Y-47944357D01*
X90973002Y-48069767D01*
X90740583Y-48301781D01*
X90614643Y-48605077D01*
X90614357Y-48933482D01*
X81773795Y-48933482D01*
X81979417Y-48728219D01*
X82105357Y-48424923D01*
X82105643Y-48096518D01*
X81980233Y-47793002D01*
X81748219Y-47560583D01*
X81444923Y-47434643D01*
X81116518Y-47434357D01*
X80813002Y-47559767D01*
X80580583Y-47791781D01*
X80454643Y-48095077D01*
X80454357Y-48423482D01*
X74485358Y-48423482D01*
X74485643Y-48096518D01*
X74360233Y-47793002D01*
X74128219Y-47560583D01*
X73824923Y-47434643D01*
X73496518Y-47434357D01*
X73193002Y-47559767D01*
X72960583Y-47791781D01*
X72834643Y-48095077D01*
X72834357Y-48423482D01*
X64642857Y-48423482D01*
X64643198Y-48033641D01*
X64469554Y-47613388D01*
X64148303Y-47291577D01*
X63728354Y-47117199D01*
X63273641Y-47116802D01*
X62853388Y-47290446D01*
X62531577Y-47611697D01*
X62357199Y-48031646D01*
X62356802Y-48486359D01*
X60452000Y-48486359D01*
X60452000Y-45946359D01*
X62356802Y-45946359D01*
X62530446Y-46366612D01*
X62851697Y-46688423D01*
X63271646Y-46862801D01*
X63726359Y-46863198D01*
X64146612Y-46689554D01*
X64468423Y-46368303D01*
X64642801Y-45948354D01*
X64642857Y-45883482D01*
X72834357Y-45883482D01*
X72959767Y-46186998D01*
X73191781Y-46419417D01*
X73495077Y-46545357D01*
X73823482Y-46545643D01*
X74126998Y-46420233D01*
X74359417Y-46188219D01*
X74485357Y-45884923D01*
X74485358Y-45883482D01*
X80454357Y-45883482D01*
X80579767Y-46186998D01*
X80811781Y-46419417D01*
X81115077Y-46545357D01*
X81443482Y-46545643D01*
X81746998Y-46420233D01*
X81979417Y-46188219D01*
X82105357Y-45884923D01*
X82105643Y-45556518D01*
X81980233Y-45253002D01*
X81748219Y-45020583D01*
X81444923Y-44894643D01*
X81116518Y-44894357D01*
X80813002Y-45019767D01*
X80580583Y-45251781D01*
X80454643Y-45555077D01*
X80454357Y-45883482D01*
X74485358Y-45883482D01*
X74485643Y-45556518D01*
X74360233Y-45253002D01*
X74128219Y-45020583D01*
X73824923Y-44894643D01*
X73496518Y-44894357D01*
X73193002Y-45019767D01*
X72960583Y-45251781D01*
X72834643Y-45555077D01*
X72834357Y-45883482D01*
X64642857Y-45883482D01*
X64643198Y-45493641D01*
X64469554Y-45073388D01*
X64148303Y-44751577D01*
X63728354Y-44577199D01*
X63273641Y-44576802D01*
X62853388Y-44750446D01*
X62531577Y-45071697D01*
X62357199Y-45491646D01*
X62356802Y-45946359D01*
X60452000Y-45946359D01*
X60452000Y-43406359D01*
X62356802Y-43406359D01*
X62530446Y-43826612D01*
X62851697Y-44148423D01*
X63271646Y-44322801D01*
X63726359Y-44323198D01*
X64146612Y-44149554D01*
X64468423Y-43828303D01*
X64642801Y-43408354D01*
X64642857Y-43343482D01*
X72834357Y-43343482D01*
X72959767Y-43646998D01*
X73191781Y-43879417D01*
X73495077Y-44005357D01*
X73823482Y-44005643D01*
X74126998Y-43880233D01*
X74359417Y-43648219D01*
X74485357Y-43344923D01*
X74485358Y-43343482D01*
X80454357Y-43343482D01*
X80579767Y-43646998D01*
X80811781Y-43879417D01*
X81115077Y-44005357D01*
X81443482Y-44005643D01*
X81746998Y-43880233D01*
X81979417Y-43648219D01*
X82105357Y-43344923D01*
X82105643Y-43016518D01*
X81980233Y-42713002D01*
X81748219Y-42480583D01*
X81444923Y-42354643D01*
X81116518Y-42354357D01*
X80813002Y-42479767D01*
X80580583Y-42711781D01*
X80454643Y-43015077D01*
X80454357Y-43343482D01*
X74485358Y-43343482D01*
X74485643Y-43016518D01*
X74360233Y-42713002D01*
X74128219Y-42480583D01*
X73824923Y-42354643D01*
X73496518Y-42354357D01*
X73193002Y-42479767D01*
X72960583Y-42711781D01*
X72834643Y-43015077D01*
X72834357Y-43343482D01*
X64642857Y-43343482D01*
X64643198Y-42953641D01*
X64469554Y-42533388D01*
X64148303Y-42211577D01*
X63728354Y-42037199D01*
X63273641Y-42036802D01*
X62853388Y-42210446D01*
X62531577Y-42531697D01*
X62357199Y-42951646D01*
X62356802Y-43406359D01*
X60452000Y-43406359D01*
X60452000Y-40866359D01*
X62356802Y-40866359D01*
X62530446Y-41286612D01*
X62851697Y-41608423D01*
X63271646Y-41782801D01*
X63726359Y-41783198D01*
X64146612Y-41609554D01*
X64468423Y-41288303D01*
X64642801Y-40868354D01*
X64642857Y-40803482D01*
X72834357Y-40803482D01*
X72959767Y-41106998D01*
X73191781Y-41339417D01*
X73495077Y-41465357D01*
X73823482Y-41465643D01*
X74126998Y-41340233D01*
X74359417Y-41108219D01*
X74485357Y-40804923D01*
X74485358Y-40803482D01*
X80454357Y-40803482D01*
X80579767Y-41106998D01*
X80811781Y-41339417D01*
X81115077Y-41465357D01*
X81443482Y-41465643D01*
X81746998Y-41340233D01*
X81979417Y-41108219D01*
X82105357Y-40804923D01*
X82105643Y-40476518D01*
X81980233Y-40173002D01*
X81748219Y-39940583D01*
X81444923Y-39814643D01*
X81116518Y-39814357D01*
X80813002Y-39939767D01*
X80580583Y-40171781D01*
X80454643Y-40475077D01*
X80454357Y-40803482D01*
X74485358Y-40803482D01*
X74485643Y-40476518D01*
X74360233Y-40173002D01*
X74128219Y-39940583D01*
X73824923Y-39814643D01*
X73496518Y-39814357D01*
X73193002Y-39939767D01*
X72960583Y-40171781D01*
X72834643Y-40475077D01*
X72834357Y-40803482D01*
X64642857Y-40803482D01*
X64643198Y-40413641D01*
X64469554Y-39993388D01*
X64148303Y-39671577D01*
X63728354Y-39497199D01*
X63273641Y-39496802D01*
X62853388Y-39670446D01*
X62531577Y-39991697D01*
X62357199Y-40411646D01*
X62356802Y-40866359D01*
X60452000Y-40866359D01*
X60452000Y-38326359D01*
X62356802Y-38326359D01*
X62530446Y-38746612D01*
X62851697Y-39068423D01*
X63271646Y-39242801D01*
X63726359Y-39243198D01*
X64146612Y-39069554D01*
X64468423Y-38748303D01*
X64642801Y-38328354D01*
X64642857Y-38263482D01*
X72834357Y-38263482D01*
X72959767Y-38566998D01*
X73191781Y-38799417D01*
X73495077Y-38925357D01*
X73823482Y-38925643D01*
X74126998Y-38800233D01*
X74359417Y-38568219D01*
X74485357Y-38264923D01*
X74485358Y-38263482D01*
X80454357Y-38263482D01*
X80579767Y-38566998D01*
X80811781Y-38799417D01*
X81115077Y-38925357D01*
X81443482Y-38925643D01*
X81746998Y-38800233D01*
X81979417Y-38568219D01*
X82105357Y-38264923D01*
X82105643Y-37936518D01*
X81980233Y-37633002D01*
X81748219Y-37400583D01*
X81444923Y-37274643D01*
X81116518Y-37274357D01*
X80813002Y-37399767D01*
X80580583Y-37631781D01*
X80454643Y-37935077D01*
X80454357Y-38263482D01*
X74485358Y-38263482D01*
X74485643Y-37936518D01*
X74360233Y-37633002D01*
X74128219Y-37400583D01*
X73824923Y-37274643D01*
X73496518Y-37274357D01*
X73193002Y-37399767D01*
X72960583Y-37631781D01*
X72834643Y-37935077D01*
X72834357Y-38263482D01*
X64642857Y-38263482D01*
X64643198Y-37873641D01*
X64469554Y-37453388D01*
X64148303Y-37131577D01*
X63728354Y-36957199D01*
X63273641Y-36956802D01*
X62853388Y-37130446D01*
X62531577Y-37451697D01*
X62357199Y-37871646D01*
X62356802Y-38326359D01*
X60452000Y-38326359D01*
X60452000Y-33471461D01*
X66299955Y-33471461D01*
X66646280Y-34309631D01*
X67286996Y-34951466D01*
X68124560Y-35299253D01*
X69031461Y-35300045D01*
X69869631Y-34953720D01*
X70511466Y-34313004D01*
X70859253Y-33475440D01*
X70859507Y-33183482D01*
X74739357Y-33183482D01*
X74864767Y-33486998D01*
X75096781Y-33719417D01*
X75400077Y-33845357D01*
X75728482Y-33845643D01*
X76031998Y-33720233D01*
X76264417Y-33488219D01*
X76390357Y-33184923D01*
X76390643Y-32856518D01*
X76265233Y-32553002D01*
X76033219Y-32320583D01*
X75729923Y-32194643D01*
X75401518Y-32194357D01*
X75098002Y-32319767D01*
X74865583Y-32551781D01*
X74739643Y-32855077D01*
X74739357Y-33183482D01*
X70859507Y-33183482D01*
X70860045Y-32568539D01*
X70513720Y-31730369D01*
X69873004Y-31088534D01*
X69035440Y-30740747D01*
X68128539Y-30739955D01*
X67290369Y-31086280D01*
X66648534Y-31726996D01*
X66300747Y-32564560D01*
X66299955Y-33471461D01*
X60452000Y-33471461D01*
X60452000Y-30607000D01*
X86868000Y-30607000D01*
X86868000Y-37334384D01*
G36*
X115443000Y-41783000D02*
X110617000Y-41783000D01*
X110617000Y-36993482D01*
X110934357Y-36993482D01*
X111059767Y-37296998D01*
X111291781Y-37529417D01*
X111595077Y-37655357D01*
X111923482Y-37655643D01*
X112226998Y-37530233D01*
X112459417Y-37298219D01*
X112585357Y-36994923D01*
X112585358Y-36993482D01*
X113474357Y-36993482D01*
X113599767Y-37296998D01*
X113831781Y-37529417D01*
X114135077Y-37655357D01*
X114463482Y-37655643D01*
X114766998Y-37530233D01*
X114999417Y-37298219D01*
X115125357Y-36994923D01*
X115125643Y-36666518D01*
X115000233Y-36363002D01*
X114768219Y-36130583D01*
X114464923Y-36004643D01*
X114136518Y-36004357D01*
X113833002Y-36129767D01*
X113600583Y-36361781D01*
X113474643Y-36665077D01*
X113474357Y-36993482D01*
X112585358Y-36993482D01*
X112585643Y-36666518D01*
X112460233Y-36363002D01*
X112228219Y-36130583D01*
X111924923Y-36004643D01*
X111596518Y-36004357D01*
X111293002Y-36129767D01*
X111060583Y-36361781D01*
X110934643Y-36665077D01*
X110934357Y-36993482D01*
X110617000Y-36993482D01*
X110617000Y-36195000D01*
X110606994Y-36145590D01*
X110578553Y-36103965D01*
X110536159Y-36076685D01*
X110490000Y-36068000D01*
X90170000Y-36068000D01*
X90120590Y-36078006D01*
X90078965Y-36106447D01*
X90051685Y-36148841D01*
X90043000Y-36195000D01*
X90043000Y-37524155D01*
X90022821Y-37515994D01*
X89438815Y-38100000D01*
X90022821Y-38684006D01*
X90043000Y-38675845D01*
X90043000Y-40640000D01*
X90053006Y-40689410D01*
X90080197Y-40729803D01*
X91350197Y-41999803D01*
X91392211Y-42027666D01*
X91440000Y-42037000D01*
X99695000Y-42037000D01*
X99744410Y-42026994D01*
X99784803Y-41999803D01*
X100382606Y-41402000D01*
X103378000Y-41402000D01*
X103378000Y-46937394D01*
X102817394Y-47498000D01*
X102735433Y-47498000D01*
X102735643Y-47256518D01*
X102610233Y-46953002D01*
X102378219Y-46720583D01*
X102074923Y-46594643D01*
X101746518Y-46594357D01*
X101443002Y-46719767D01*
X101210583Y-46951781D01*
X101084643Y-47255077D01*
X101084431Y-47498000D01*
X100330000Y-47498000D01*
X100280590Y-47508006D01*
X100240197Y-47535197D01*
X97700197Y-50075197D01*
X97672334Y-50117211D01*
X97663000Y-50165000D01*
X97663000Y-51382394D01*
X97415188Y-51630206D01*
X97350233Y-51473002D01*
X97118219Y-51240583D01*
X96814923Y-51114643D01*
X96486518Y-51114357D01*
X96183002Y-51239767D01*
X95950583Y-51471781D01*
X95824643Y-51775077D01*
X95824357Y-52103482D01*
X95949767Y-52406998D01*
X96181781Y-52639417D01*
X96340197Y-52705197D01*
X95795197Y-53250197D01*
X95767334Y-53292211D01*
X95758000Y-53340000D01*
X95758000Y-56515000D01*
X95768006Y-56564410D01*
X95796447Y-56606035D01*
X95838841Y-56633315D01*
X95885000Y-56642000D01*
X97028000Y-56642000D01*
X97028000Y-63500000D01*
X97038006Y-63549410D01*
X97065197Y-63589803D01*
X98410206Y-64934812D01*
X98253002Y-64999767D01*
X98020583Y-65231781D01*
X97894643Y-65535077D01*
X97894357Y-65863482D01*
X98019767Y-66166998D01*
X98251781Y-66399417D01*
X98555077Y-66525357D01*
X98883482Y-66525643D01*
X99186998Y-66400233D01*
X99419417Y-66168219D01*
X99485197Y-66009803D01*
X103415197Y-69939803D01*
X103457211Y-69967666D01*
X103505000Y-69977000D01*
X110437394Y-69977000D01*
X112305197Y-71844803D01*
X112347211Y-71872666D01*
X112395000Y-71882000D01*
X115443000Y-71882000D01*
X115443000Y-87503000D01*
X78232000Y-87503000D01*
X78232000Y-82113482D01*
X81814357Y-82113482D01*
X81939767Y-82416998D01*
X82171781Y-82649417D01*
X82475077Y-82775357D01*
X82803482Y-82775643D01*
X83106998Y-82650233D01*
X83339417Y-82418219D01*
X83465357Y-82114923D01*
X83465643Y-81786518D01*
X83414806Y-81663482D01*
X94884357Y-81663482D01*
X95009767Y-81966998D01*
X95241781Y-82199417D01*
X95545077Y-82325357D01*
X95873482Y-82325643D01*
X96176998Y-82200233D01*
X96409417Y-81968219D01*
X96515193Y-81713482D01*
X109444357Y-81713482D01*
X109569767Y-82016998D01*
X109801781Y-82249417D01*
X110105077Y-82375357D01*
X110433482Y-82375643D01*
X110736998Y-82250233D01*
X110969417Y-82018219D01*
X111095357Y-81714923D01*
X111095643Y-81386518D01*
X110970233Y-81083002D01*
X110738219Y-80850583D01*
X110434923Y-80724643D01*
X110106518Y-80724357D01*
X109803002Y-80849767D01*
X109570583Y-81081781D01*
X109444643Y-81385077D01*
X109444357Y-81713482D01*
X96515193Y-81713482D01*
X96535357Y-81664923D01*
X96535643Y-81336518D01*
X96410233Y-81033002D01*
X96178219Y-80800583D01*
X95874923Y-80674643D01*
X95546518Y-80674357D01*
X95243002Y-80799767D01*
X95010583Y-81031781D01*
X94884643Y-81335077D01*
X94884357Y-81663482D01*
X83414806Y-81663482D01*
X83340233Y-81483002D01*
X83108219Y-81250583D01*
X82804923Y-81124643D01*
X82476518Y-81124357D01*
X82173002Y-81249767D01*
X81940583Y-81481781D01*
X81814643Y-81785077D01*
X81814357Y-82113482D01*
X78232000Y-82113482D01*
X78232000Y-80137000D01*
X91440000Y-80137000D01*
X91489410Y-80126994D01*
X91531035Y-80098553D01*
X91558315Y-80056159D01*
X91567000Y-80010000D01*
X91567000Y-79133482D01*
X112304357Y-79133482D01*
X112429767Y-79436998D01*
X112661781Y-79669417D01*
X112965077Y-79795357D01*
X113293482Y-79795643D01*
X113596998Y-79670233D01*
X113829417Y-79438219D01*
X113955357Y-79134923D01*
X113955643Y-78806518D01*
X113830233Y-78503002D01*
X113598219Y-78270583D01*
X113294923Y-78144643D01*
X112966518Y-78144357D01*
X112663002Y-78269767D01*
X112430583Y-78501781D01*
X112304643Y-78805077D01*
X112304357Y-79133482D01*
X91567000Y-79133482D01*
X91567000Y-77597000D01*
X93980000Y-77597000D01*
X94029410Y-77586994D01*
X94071035Y-77558553D01*
X94098315Y-77516159D01*
X94107000Y-77470000D01*
X94107000Y-73863482D01*
X109374357Y-73863482D01*
X109499767Y-74166998D01*
X109731781Y-74399417D01*
X110035077Y-74525357D01*
X110363482Y-74525643D01*
X110666998Y-74400233D01*
X110899417Y-74168219D01*
X111025357Y-73864923D01*
X111025643Y-73536518D01*
X110900233Y-73233002D01*
X110668219Y-73000583D01*
X110364923Y-72874643D01*
X110036518Y-72874357D01*
X109733002Y-72999767D01*
X109500583Y-73231781D01*
X109374643Y-73535077D01*
X109374357Y-73863482D01*
X94107000Y-73863482D01*
X94107000Y-72793482D01*
X99004357Y-72793482D01*
X99129767Y-73096998D01*
X99361781Y-73329417D01*
X99665077Y-73455357D01*
X99993482Y-73455643D01*
X100296998Y-73330233D01*
X100529417Y-73098219D01*
X100655357Y-72794923D01*
X100655643Y-72466518D01*
X100530233Y-72163002D01*
X100298219Y-71930583D01*
X100184788Y-71883482D01*
X109034357Y-71883482D01*
X109159767Y-72186998D01*
X109391781Y-72419417D01*
X109695077Y-72545357D01*
X110023482Y-72545643D01*
X110326998Y-72420233D01*
X110559417Y-72188219D01*
X110685357Y-71884923D01*
X110685643Y-71556518D01*
X110560233Y-71253002D01*
X110328219Y-71020583D01*
X110024923Y-70894643D01*
X109696518Y-70894357D01*
X109393002Y-71019767D01*
X109160583Y-71251781D01*
X109034643Y-71555077D01*
X109034357Y-71883482D01*
X100184788Y-71883482D01*
X99994923Y-71804643D01*
X99666518Y-71804357D01*
X99363002Y-71929767D01*
X99130583Y-72161781D01*
X99004643Y-72465077D01*
X99004357Y-72793482D01*
X94107000Y-72793482D01*
X94107000Y-72765594D01*
X94163482Y-72765643D01*
X94466998Y-72640233D01*
X94699417Y-72408219D01*
X94825357Y-72104923D01*
X94825643Y-71776518D01*
X94700233Y-71473002D01*
X94468219Y-71240583D01*
X94164923Y-71114643D01*
X94107000Y-71114593D01*
X94107000Y-47752000D01*
X94987042Y-47752000D01*
X95009767Y-47806998D01*
X95241781Y-48039417D01*
X95545077Y-48165357D01*
X95873482Y-48165643D01*
X96176998Y-48040233D01*
X96409417Y-47808219D01*
X96535357Y-47504923D01*
X96535643Y-47176518D01*
X96410233Y-46873002D01*
X96178219Y-46640583D01*
X96012000Y-46571563D01*
X96012000Y-45603482D01*
X97264357Y-45603482D01*
X97389767Y-45906998D01*
X97621781Y-46139417D01*
X97925077Y-46265357D01*
X98253482Y-46265643D01*
X98556998Y-46140233D01*
X98789417Y-45908219D01*
X98915357Y-45604923D01*
X98915643Y-45276518D01*
X98790233Y-44973002D01*
X98558219Y-44740583D01*
X98254923Y-44614643D01*
X97926518Y-44614357D01*
X97623002Y-44739767D01*
X97390583Y-44971781D01*
X97264643Y-45275077D01*
X97264357Y-45603482D01*
X96012000Y-45603482D01*
X96012000Y-43180000D01*
X96001994Y-43130590D01*
X95973553Y-43088965D01*
X95931159Y-43061685D01*
X95885000Y-43053000D01*
X90297000Y-43053000D01*
X90297000Y-41910000D01*
X90286994Y-41860590D01*
X90259803Y-41820197D01*
X89624803Y-41185197D01*
X89582789Y-41157334D01*
X89535000Y-41148000D01*
X87757000Y-41148000D01*
X87757000Y-39222821D01*
X88315994Y-39222821D01*
X88401519Y-39434295D01*
X88950077Y-39523489D01*
X89398481Y-39434295D01*
X89484006Y-39222821D01*
X88900000Y-38638815D01*
X88315994Y-39222821D01*
X87757000Y-39222821D01*
X87757000Y-38675845D01*
X87777179Y-38684006D01*
X88361185Y-38100000D01*
X87777179Y-37515994D01*
X87757000Y-37524155D01*
X87757000Y-36977179D01*
X88315994Y-36977179D01*
X88900000Y-37561185D01*
X89484006Y-36977179D01*
X89398481Y-36765705D01*
X88849923Y-36676511D01*
X88401519Y-36765705D01*
X88315994Y-36977179D01*
X87757000Y-36977179D01*
X87757000Y-30607000D01*
X115443000Y-30607000D01*
X115443000Y-41783000D01*
X115443000Y-41783000D01*
G37*
X115443000Y-41783000D02*
X110617000Y-41783000D01*
X110617000Y-36993482D01*
X110934357Y-36993482D01*
X111059767Y-37296998D01*
X111291781Y-37529417D01*
X111595077Y-37655357D01*
X111923482Y-37655643D01*
X112226998Y-37530233D01*
X112459417Y-37298219D01*
X112585357Y-36994923D01*
X112585358Y-36993482D01*
X113474357Y-36993482D01*
X113599767Y-37296998D01*
X113831781Y-37529417D01*
X114135077Y-37655357D01*
X114463482Y-37655643D01*
X114766998Y-37530233D01*
X114999417Y-37298219D01*
X115125357Y-36994923D01*
X115125643Y-36666518D01*
X115000233Y-36363002D01*
X114768219Y-36130583D01*
X114464923Y-36004643D01*
X114136518Y-36004357D01*
X113833002Y-36129767D01*
X113600583Y-36361781D01*
X113474643Y-36665077D01*
X113474357Y-36993482D01*
X112585358Y-36993482D01*
X112585643Y-36666518D01*
X112460233Y-36363002D01*
X112228219Y-36130583D01*
X111924923Y-36004643D01*
X111596518Y-36004357D01*
X111293002Y-36129767D01*
X111060583Y-36361781D01*
X110934643Y-36665077D01*
X110934357Y-36993482D01*
X110617000Y-36993482D01*
X110617000Y-36195000D01*
X110606994Y-36145590D01*
X110578553Y-36103965D01*
X110536159Y-36076685D01*
X110490000Y-36068000D01*
X90170000Y-36068000D01*
X90120590Y-36078006D01*
X90078965Y-36106447D01*
X90051685Y-36148841D01*
X90043000Y-36195000D01*
X90043000Y-37524155D01*
X90022821Y-37515994D01*
X89438815Y-38100000D01*
X90022821Y-38684006D01*
X90043000Y-38675845D01*
X90043000Y-40640000D01*
X90053006Y-40689410D01*
X90080197Y-40729803D01*
X91350197Y-41999803D01*
X91392211Y-42027666D01*
X91440000Y-42037000D01*
X99695000Y-42037000D01*
X99744410Y-42026994D01*
X99784803Y-41999803D01*
X100382606Y-41402000D01*
X103378000Y-41402000D01*
X103378000Y-46937394D01*
X102817394Y-47498000D01*
X102735433Y-47498000D01*
X102735643Y-47256518D01*
X102610233Y-46953002D01*
X102378219Y-46720583D01*
X102074923Y-46594643D01*
X101746518Y-46594357D01*
X101443002Y-46719767D01*
X101210583Y-46951781D01*
X101084643Y-47255077D01*
X101084431Y-47498000D01*
X100330000Y-47498000D01*
X100280590Y-47508006D01*
X100240197Y-47535197D01*
X97700197Y-50075197D01*
X97672334Y-50117211D01*
X97663000Y-50165000D01*
X97663000Y-51382394D01*
X97415188Y-51630206D01*
X97350233Y-51473002D01*
X97118219Y-51240583D01*
X96814923Y-51114643D01*
X96486518Y-51114357D01*
X96183002Y-51239767D01*
X95950583Y-51471781D01*
X95824643Y-51775077D01*
X95824357Y-52103482D01*
X95949767Y-52406998D01*
X96181781Y-52639417D01*
X96340197Y-52705197D01*
X95795197Y-53250197D01*
X95767334Y-53292211D01*
X95758000Y-53340000D01*
X95758000Y-56515000D01*
X95768006Y-56564410D01*
X95796447Y-56606035D01*
X95838841Y-56633315D01*
X95885000Y-56642000D01*
X97028000Y-56642000D01*
X97028000Y-63500000D01*
X97038006Y-63549410D01*
X97065197Y-63589803D01*
X98410206Y-64934812D01*
X98253002Y-64999767D01*
X98020583Y-65231781D01*
X97894643Y-65535077D01*
X97894357Y-65863482D01*
X98019767Y-66166998D01*
X98251781Y-66399417D01*
X98555077Y-66525357D01*
X98883482Y-66525643D01*
X99186998Y-66400233D01*
X99419417Y-66168219D01*
X99485197Y-66009803D01*
X103415197Y-69939803D01*
X103457211Y-69967666D01*
X103505000Y-69977000D01*
X110437394Y-69977000D01*
X112305197Y-71844803D01*
X112347211Y-71872666D01*
X112395000Y-71882000D01*
X115443000Y-71882000D01*
X115443000Y-87503000D01*
X78232000Y-87503000D01*
X78232000Y-82113482D01*
X81814357Y-82113482D01*
X81939767Y-82416998D01*
X82171781Y-82649417D01*
X82475077Y-82775357D01*
X82803482Y-82775643D01*
X83106998Y-82650233D01*
X83339417Y-82418219D01*
X83465357Y-82114923D01*
X83465643Y-81786518D01*
X83414806Y-81663482D01*
X94884357Y-81663482D01*
X95009767Y-81966998D01*
X95241781Y-82199417D01*
X95545077Y-82325357D01*
X95873482Y-82325643D01*
X96176998Y-82200233D01*
X96409417Y-81968219D01*
X96515193Y-81713482D01*
X109444357Y-81713482D01*
X109569767Y-82016998D01*
X109801781Y-82249417D01*
X110105077Y-82375357D01*
X110433482Y-82375643D01*
X110736998Y-82250233D01*
X110969417Y-82018219D01*
X111095357Y-81714923D01*
X111095643Y-81386518D01*
X110970233Y-81083002D01*
X110738219Y-80850583D01*
X110434923Y-80724643D01*
X110106518Y-80724357D01*
X109803002Y-80849767D01*
X109570583Y-81081781D01*
X109444643Y-81385077D01*
X109444357Y-81713482D01*
X96515193Y-81713482D01*
X96535357Y-81664923D01*
X96535643Y-81336518D01*
X96410233Y-81033002D01*
X96178219Y-80800583D01*
X95874923Y-80674643D01*
X95546518Y-80674357D01*
X95243002Y-80799767D01*
X95010583Y-81031781D01*
X94884643Y-81335077D01*
X94884357Y-81663482D01*
X83414806Y-81663482D01*
X83340233Y-81483002D01*
X83108219Y-81250583D01*
X82804923Y-81124643D01*
X82476518Y-81124357D01*
X82173002Y-81249767D01*
X81940583Y-81481781D01*
X81814643Y-81785077D01*
X81814357Y-82113482D01*
X78232000Y-82113482D01*
X78232000Y-80137000D01*
X91440000Y-80137000D01*
X91489410Y-80126994D01*
X91531035Y-80098553D01*
X91558315Y-80056159D01*
X91567000Y-80010000D01*
X91567000Y-79133482D01*
X112304357Y-79133482D01*
X112429767Y-79436998D01*
X112661781Y-79669417D01*
X112965077Y-79795357D01*
X113293482Y-79795643D01*
X113596998Y-79670233D01*
X113829417Y-79438219D01*
X113955357Y-79134923D01*
X113955643Y-78806518D01*
X113830233Y-78503002D01*
X113598219Y-78270583D01*
X113294923Y-78144643D01*
X112966518Y-78144357D01*
X112663002Y-78269767D01*
X112430583Y-78501781D01*
X112304643Y-78805077D01*
X112304357Y-79133482D01*
X91567000Y-79133482D01*
X91567000Y-77597000D01*
X93980000Y-77597000D01*
X94029410Y-77586994D01*
X94071035Y-77558553D01*
X94098315Y-77516159D01*
X94107000Y-77470000D01*
X94107000Y-73863482D01*
X109374357Y-73863482D01*
X109499767Y-74166998D01*
X109731781Y-74399417D01*
X110035077Y-74525357D01*
X110363482Y-74525643D01*
X110666998Y-74400233D01*
X110899417Y-74168219D01*
X111025357Y-73864923D01*
X111025643Y-73536518D01*
X110900233Y-73233002D01*
X110668219Y-73000583D01*
X110364923Y-72874643D01*
X110036518Y-72874357D01*
X109733002Y-72999767D01*
X109500583Y-73231781D01*
X109374643Y-73535077D01*
X109374357Y-73863482D01*
X94107000Y-73863482D01*
X94107000Y-72793482D01*
X99004357Y-72793482D01*
X99129767Y-73096998D01*
X99361781Y-73329417D01*
X99665077Y-73455357D01*
X99993482Y-73455643D01*
X100296998Y-73330233D01*
X100529417Y-73098219D01*
X100655357Y-72794923D01*
X100655643Y-72466518D01*
X100530233Y-72163002D01*
X100298219Y-71930583D01*
X100184788Y-71883482D01*
X109034357Y-71883482D01*
X109159767Y-72186998D01*
X109391781Y-72419417D01*
X109695077Y-72545357D01*
X110023482Y-72545643D01*
X110326998Y-72420233D01*
X110559417Y-72188219D01*
X110685357Y-71884923D01*
X110685643Y-71556518D01*
X110560233Y-71253002D01*
X110328219Y-71020583D01*
X110024923Y-70894643D01*
X109696518Y-70894357D01*
X109393002Y-71019767D01*
X109160583Y-71251781D01*
X109034643Y-71555077D01*
X109034357Y-71883482D01*
X100184788Y-71883482D01*
X99994923Y-71804643D01*
X99666518Y-71804357D01*
X99363002Y-71929767D01*
X99130583Y-72161781D01*
X99004643Y-72465077D01*
X99004357Y-72793482D01*
X94107000Y-72793482D01*
X94107000Y-72765594D01*
X94163482Y-72765643D01*
X94466998Y-72640233D01*
X94699417Y-72408219D01*
X94825357Y-72104923D01*
X94825643Y-71776518D01*
X94700233Y-71473002D01*
X94468219Y-71240583D01*
X94164923Y-71114643D01*
X94107000Y-71114593D01*
X94107000Y-47752000D01*
X94987042Y-47752000D01*
X95009767Y-47806998D01*
X95241781Y-48039417D01*
X95545077Y-48165357D01*
X95873482Y-48165643D01*
X96176998Y-48040233D01*
X96409417Y-47808219D01*
X96535357Y-47504923D01*
X96535643Y-47176518D01*
X96410233Y-46873002D01*
X96178219Y-46640583D01*
X96012000Y-46571563D01*
X96012000Y-45603482D01*
X97264357Y-45603482D01*
X97389767Y-45906998D01*
X97621781Y-46139417D01*
X97925077Y-46265357D01*
X98253482Y-46265643D01*
X98556998Y-46140233D01*
X98789417Y-45908219D01*
X98915357Y-45604923D01*
X98915643Y-45276518D01*
X98790233Y-44973002D01*
X98558219Y-44740583D01*
X98254923Y-44614643D01*
X97926518Y-44614357D01*
X97623002Y-44739767D01*
X97390583Y-44971781D01*
X97264643Y-45275077D01*
X97264357Y-45603482D01*
X96012000Y-45603482D01*
X96012000Y-43180000D01*
X96001994Y-43130590D01*
X95973553Y-43088965D01*
X95931159Y-43061685D01*
X95885000Y-43053000D01*
X90297000Y-43053000D01*
X90297000Y-41910000D01*
X90286994Y-41860590D01*
X90259803Y-41820197D01*
X89624803Y-41185197D01*
X89582789Y-41157334D01*
X89535000Y-41148000D01*
X87757000Y-41148000D01*
X87757000Y-39222821D01*
X88315994Y-39222821D01*
X88401519Y-39434295D01*
X88950077Y-39523489D01*
X89398481Y-39434295D01*
X89484006Y-39222821D01*
X88900000Y-38638815D01*
X88315994Y-39222821D01*
X87757000Y-39222821D01*
X87757000Y-38675845D01*
X87777179Y-38684006D01*
X88361185Y-38100000D01*
X87777179Y-37515994D01*
X87757000Y-37524155D01*
X87757000Y-36977179D01*
X88315994Y-36977179D01*
X88900000Y-37561185D01*
X89484006Y-36977179D01*
X89398481Y-36765705D01*
X88849923Y-36676511D01*
X88401519Y-36765705D01*
X88315994Y-36977179D01*
X87757000Y-36977179D01*
X87757000Y-30607000D01*
X115443000Y-30607000D01*
X115443000Y-41783000D01*
G36*
X93333388Y-37130446D02*
X93011577Y-37451697D01*
X92837199Y-37871646D01*
X92837159Y-37917554D01*
X92774295Y-37601519D01*
X92562821Y-37515994D01*
X91978815Y-38100000D01*
X92562821Y-38684006D01*
X92774295Y-38598481D01*
X92836901Y-38213446D01*
X92836802Y-38326359D01*
X93010446Y-38746612D01*
X93331697Y-39068423D01*
X93751646Y-39242801D01*
X94206359Y-39243198D01*
X94626612Y-39069554D01*
X94948423Y-38748303D01*
X95122801Y-38328354D01*
X95123198Y-37873641D01*
X94949554Y-37453388D01*
X94628303Y-37131577D01*
X94208354Y-36957199D01*
X93980425Y-36957000D01*
X96293162Y-36957000D01*
X95873388Y-37130446D01*
X95551577Y-37451697D01*
X95377199Y-37871646D01*
X95376802Y-38326359D01*
X95550446Y-38746612D01*
X95871697Y-39068423D01*
X96291646Y-39242801D01*
X96746359Y-39243198D01*
X97166612Y-39069554D01*
X97488423Y-38748303D01*
X97662801Y-38328354D01*
X97663198Y-37873641D01*
X97489554Y-37453388D01*
X97168303Y-37131577D01*
X96748354Y-36957199D01*
X96520425Y-36957000D01*
X98833162Y-36957000D01*
X98413388Y-37130446D01*
X98091577Y-37451697D01*
X97917199Y-37871646D01*
X97916802Y-38326359D01*
X98090446Y-38746612D01*
X98411697Y-39068423D01*
X98831646Y-39242801D01*
X99286359Y-39243198D01*
X99706612Y-39069554D01*
X100028423Y-38748303D01*
X100202801Y-38328354D01*
X100203198Y-37873641D01*
X100029554Y-37453388D01*
X99708303Y-37131577D01*
X99288354Y-36957199D01*
X99060425Y-36957000D01*
X101373162Y-36957000D01*
X100953388Y-37130446D01*
X100631577Y-37451697D01*
X100457199Y-37871646D01*
X100456802Y-38326359D01*
X100630446Y-38746612D01*
X100951697Y-39068423D01*
X101371646Y-39242801D01*
X101826359Y-39243198D01*
X102246612Y-39069554D01*
X102568423Y-38748303D01*
X102742801Y-38328354D01*
X102743198Y-37873641D01*
X102569554Y-37453388D01*
X102248303Y-37131577D01*
X101828354Y-36957199D01*
X101600425Y-36957000D01*
X103338333Y-36957000D01*
X103236810Y-36976103D01*
X103107135Y-37059546D01*
X103020141Y-37186866D01*
X102989536Y-37338000D01*
X102989536Y-38862000D01*
X103016103Y-39003190D01*
X103099546Y-39132865D01*
X103226866Y-39219859D01*
X103378000Y-39250464D01*
X104902000Y-39250464D01*
X105043190Y-39223897D01*
X105172865Y-39140454D01*
X105259859Y-39013134D01*
X105290464Y-38862000D01*
X105290464Y-37338000D01*
X105263897Y-37196810D01*
X105180454Y-37067135D01*
X105053134Y-36980141D01*
X104938859Y-36957000D01*
X109728000Y-36957000D01*
X109728000Y-41250433D01*
X109688219Y-41210583D01*
X109384923Y-41084643D01*
X109056518Y-41084357D01*
X108753002Y-41209767D01*
X108520583Y-41441781D01*
X108394643Y-41745077D01*
X108394357Y-42073482D01*
X108519767Y-42376998D01*
X108751781Y-42609417D01*
X109055077Y-42735357D01*
X109383482Y-42735643D01*
X109686998Y-42610233D01*
X109732094Y-42565216D01*
X109738006Y-42594410D01*
X109766447Y-42636035D01*
X109808841Y-42663315D01*
X109855000Y-42672000D01*
X115443000Y-42672000D01*
X115443000Y-70993000D01*
X114324567Y-70993000D01*
X114364417Y-70953219D01*
X114490357Y-70649923D01*
X114490643Y-70321518D01*
X114365233Y-70018002D01*
X114133219Y-69785583D01*
X113829923Y-69659643D01*
X113501518Y-69659357D01*
X113198002Y-69784767D01*
X112965583Y-70016781D01*
X112839643Y-70320077D01*
X112839357Y-70648482D01*
X112964767Y-70951998D01*
X113005698Y-70993000D01*
X112447606Y-70993000D01*
X110579803Y-69125197D01*
X110537789Y-69097334D01*
X110490000Y-69088000D01*
X103557606Y-69088000D01*
X102463088Y-67993482D01*
X108684357Y-67993482D01*
X108809767Y-68296998D01*
X109041781Y-68529417D01*
X109345077Y-68655357D01*
X109673482Y-68655643D01*
X109976998Y-68530233D01*
X110209417Y-68298219D01*
X110335357Y-67994923D01*
X110335643Y-67666518D01*
X110210233Y-67363002D01*
X109978219Y-67130583D01*
X109674923Y-67004643D01*
X109346518Y-67004357D01*
X109043002Y-67129767D01*
X108810583Y-67361781D01*
X108684643Y-67665077D01*
X108684357Y-67993482D01*
X102463088Y-67993482D01*
X99739872Y-65270266D01*
X99911077Y-65341357D01*
X100239482Y-65341643D01*
X100542998Y-65216233D01*
X100775417Y-64984219D01*
X100901357Y-64680923D01*
X100901643Y-64352518D01*
X100776233Y-64049002D01*
X100544219Y-63816583D01*
X100240923Y-63690643D01*
X99912518Y-63690357D01*
X99609002Y-63815767D01*
X99376583Y-64047781D01*
X99250643Y-64351077D01*
X99250357Y-64679482D01*
X99321664Y-64852058D01*
X98133088Y-63663482D01*
X100774357Y-63663482D01*
X100899767Y-63966998D01*
X101131781Y-64199417D01*
X101435077Y-64325357D01*
X101763482Y-64325643D01*
X102066998Y-64200233D01*
X102113830Y-64153482D01*
X105534357Y-64153482D01*
X105659767Y-64456998D01*
X105891781Y-64689417D01*
X106195077Y-64815357D01*
X106523482Y-64815643D01*
X106826998Y-64690233D01*
X107059417Y-64458219D01*
X107185357Y-64154923D01*
X107185643Y-63826518D01*
X107060233Y-63523002D01*
X106828219Y-63290583D01*
X106524923Y-63164643D01*
X106196518Y-63164357D01*
X105893002Y-63289767D01*
X105660583Y-63521781D01*
X105534643Y-63825077D01*
X105534357Y-64153482D01*
X102113830Y-64153482D01*
X102299417Y-63968219D01*
X102425357Y-63664923D01*
X102425643Y-63336518D01*
X102300233Y-63033002D01*
X102068219Y-62800583D01*
X101764923Y-62674643D01*
X101436518Y-62674357D01*
X101133002Y-62799767D01*
X100900583Y-63031781D01*
X100774643Y-63335077D01*
X100774357Y-63663482D01*
X98133088Y-63663482D01*
X97917000Y-63447394D01*
X97917000Y-61568634D01*
X98133077Y-61658357D01*
X98461482Y-61658643D01*
X98527216Y-61631482D01*
X102806357Y-61631482D01*
X102931767Y-61934998D01*
X103163781Y-62167417D01*
X103467077Y-62293357D01*
X103795482Y-62293643D01*
X104098998Y-62168233D01*
X104127799Y-62139482D01*
X105346357Y-62139482D01*
X105471767Y-62442998D01*
X105703781Y-62675417D01*
X106007077Y-62801357D01*
X106335482Y-62801643D01*
X106638998Y-62676233D01*
X106641753Y-62673482D01*
X110174357Y-62673482D01*
X110299767Y-62976998D01*
X110531781Y-63209417D01*
X110835077Y-63335357D01*
X111163482Y-63335643D01*
X111466998Y-63210233D01*
X111699417Y-62978219D01*
X111825357Y-62674923D01*
X111825643Y-62346518D01*
X111700233Y-62043002D01*
X111468219Y-61810583D01*
X111164923Y-61684643D01*
X110836518Y-61684357D01*
X110533002Y-61809767D01*
X110300583Y-62041781D01*
X110174643Y-62345077D01*
X110174357Y-62673482D01*
X106641753Y-62673482D01*
X106871417Y-62444219D01*
X106997357Y-62140923D01*
X106997643Y-61812518D01*
X106872233Y-61509002D01*
X106640219Y-61276583D01*
X106336923Y-61150643D01*
X106008518Y-61150357D01*
X105705002Y-61275767D01*
X105472583Y-61507781D01*
X105346643Y-61811077D01*
X105346357Y-62139482D01*
X104127799Y-62139482D01*
X104331417Y-61936219D01*
X104457357Y-61632923D01*
X104457643Y-61304518D01*
X104332233Y-61001002D01*
X104100219Y-60768583D01*
X103796923Y-60642643D01*
X103468518Y-60642357D01*
X103165002Y-60767767D01*
X102932583Y-60999781D01*
X102806643Y-61303077D01*
X102806357Y-61631482D01*
X98527216Y-61631482D01*
X98764998Y-61533233D01*
X98997417Y-61301219D01*
X99123357Y-60997923D01*
X99123643Y-60669518D01*
X98998233Y-60366002D01*
X98766219Y-60133583D01*
X98462923Y-60007643D01*
X98134518Y-60007357D01*
X97917000Y-60097233D01*
X97917000Y-59573482D01*
X108444357Y-59573482D01*
X108569767Y-59876998D01*
X108801781Y-60109417D01*
X109105077Y-60235357D01*
X109433482Y-60235643D01*
X109736998Y-60110233D01*
X109969417Y-59878219D01*
X110095357Y-59574923D01*
X110095643Y-59246518D01*
X109970233Y-58943002D01*
X109738219Y-58710583D01*
X109434923Y-58584643D01*
X109106518Y-58584357D01*
X108803002Y-58709767D01*
X108570583Y-58941781D01*
X108444643Y-59245077D01*
X108444357Y-59573482D01*
X97917000Y-59573482D01*
X97917000Y-58743482D01*
X106704357Y-58743482D01*
X106829767Y-59046998D01*
X107061781Y-59279417D01*
X107365077Y-59405357D01*
X107693482Y-59405643D01*
X107996998Y-59280233D01*
X108229417Y-59048219D01*
X108355357Y-58744923D01*
X108355643Y-58416518D01*
X108230233Y-58113002D01*
X107998219Y-57880583D01*
X107981118Y-57873482D01*
X112564357Y-57873482D01*
X112689767Y-58176998D01*
X112921781Y-58409417D01*
X113225077Y-58535357D01*
X113553482Y-58535643D01*
X113856998Y-58410233D01*
X114089417Y-58178219D01*
X114215357Y-57874923D01*
X114215643Y-57546518D01*
X114090233Y-57243002D01*
X113858219Y-57010583D01*
X113554923Y-56884643D01*
X113226518Y-56884357D01*
X112923002Y-57009767D01*
X112690583Y-57241781D01*
X112564643Y-57545077D01*
X112564357Y-57873482D01*
X107981118Y-57873482D01*
X107694923Y-57754643D01*
X107366518Y-57754357D01*
X107063002Y-57879767D01*
X106830583Y-58111781D01*
X106704643Y-58415077D01*
X106704357Y-58743482D01*
X97917000Y-58743482D01*
X97917000Y-56623482D01*
X102374357Y-56623482D01*
X102499767Y-56926998D01*
X102731781Y-57159417D01*
X103035077Y-57285357D01*
X103363482Y-57285643D01*
X103666998Y-57160233D01*
X103854074Y-56973482D01*
X106194357Y-56973482D01*
X106319767Y-57276998D01*
X106551781Y-57509417D01*
X106855077Y-57635357D01*
X107183482Y-57635643D01*
X107486998Y-57510233D01*
X107719417Y-57278219D01*
X107845357Y-56974923D01*
X107845643Y-56646518D01*
X107720233Y-56343002D01*
X107488219Y-56110583D01*
X107184923Y-55984643D01*
X106856518Y-55984357D01*
X106553002Y-56109767D01*
X106320583Y-56341781D01*
X106194643Y-56645077D01*
X106194357Y-56973482D01*
X103854074Y-56973482D01*
X103899417Y-56928219D01*
X104025357Y-56624923D01*
X104025643Y-56296518D01*
X103958279Y-56133482D01*
X104054357Y-56133482D01*
X104179767Y-56436998D01*
X104411781Y-56669417D01*
X104715077Y-56795357D01*
X105043482Y-56795643D01*
X105346998Y-56670233D01*
X105579417Y-56438219D01*
X105705357Y-56134923D01*
X105705643Y-55806518D01*
X105580233Y-55503002D01*
X105348219Y-55270583D01*
X105044923Y-55144643D01*
X104716518Y-55144357D01*
X104413002Y-55269767D01*
X104180583Y-55501781D01*
X104054643Y-55805077D01*
X104054357Y-56133482D01*
X103958279Y-56133482D01*
X103900233Y-55993002D01*
X103668219Y-55760583D01*
X103364923Y-55634643D01*
X103036518Y-55634357D01*
X102733002Y-55759767D01*
X102500583Y-55991781D01*
X102374643Y-56295077D01*
X102374357Y-56623482D01*
X97917000Y-56623482D01*
X97917000Y-55880000D01*
X97906994Y-55830590D01*
X97878553Y-55788965D01*
X97836159Y-55761685D01*
X97790000Y-55753000D01*
X96647000Y-55753000D01*
X96647000Y-54923482D01*
X99184357Y-54923482D01*
X99309767Y-55226998D01*
X99541781Y-55459417D01*
X99845077Y-55585357D01*
X100173482Y-55585643D01*
X100476998Y-55460233D01*
X100709417Y-55228219D01*
X100835357Y-54924923D01*
X100835643Y-54596518D01*
X100710233Y-54293002D01*
X100478219Y-54060583D01*
X100174923Y-53934643D01*
X99846518Y-53934357D01*
X99543002Y-54059767D01*
X99310583Y-54291781D01*
X99184643Y-54595077D01*
X99184357Y-54923482D01*
X96647000Y-54923482D01*
X96647000Y-53392606D01*
X97001124Y-53038482D01*
X98674357Y-53038482D01*
X98799767Y-53341998D01*
X99031781Y-53574417D01*
X99335077Y-53700357D01*
X99663482Y-53700643D01*
X99966998Y-53575233D01*
X100038874Y-53503482D01*
X109664357Y-53503482D01*
X109789767Y-53806998D01*
X110021781Y-54039417D01*
X110325077Y-54165357D01*
X110653482Y-54165643D01*
X110956998Y-54040233D01*
X111189417Y-53808219D01*
X111315357Y-53504923D01*
X111315513Y-53325682D01*
X112582817Y-53325682D01*
X112708227Y-53629198D01*
X112940241Y-53861617D01*
X113243537Y-53987557D01*
X113571942Y-53987843D01*
X113875458Y-53862433D01*
X114107877Y-53630419D01*
X114233817Y-53327123D01*
X114234103Y-52998718D01*
X114108693Y-52695202D01*
X113876679Y-52462783D01*
X113573383Y-52336843D01*
X113244978Y-52336557D01*
X112941462Y-52461967D01*
X112709043Y-52693981D01*
X112583103Y-52997277D01*
X112582817Y-53325682D01*
X111315513Y-53325682D01*
X111315643Y-53176518D01*
X111190233Y-52873002D01*
X110958219Y-52640583D01*
X110654923Y-52514643D01*
X110326518Y-52514357D01*
X110023002Y-52639767D01*
X109790583Y-52871781D01*
X109664643Y-53175077D01*
X109664357Y-53503482D01*
X100038874Y-53503482D01*
X100199417Y-53343219D01*
X100325357Y-53039923D01*
X100325643Y-52711518D01*
X100200233Y-52408002D01*
X99968219Y-52175583D01*
X99664923Y-52049643D01*
X99336518Y-52049357D01*
X99033002Y-52174767D01*
X98800583Y-52406781D01*
X98674643Y-52710077D01*
X98674357Y-53038482D01*
X97001124Y-53038482D01*
X98441124Y-51598482D01*
X100139357Y-51598482D01*
X100264767Y-51901998D01*
X100496781Y-52134417D01*
X100800077Y-52260357D01*
X101128482Y-52260643D01*
X101431998Y-52135233D01*
X101664417Y-51903219D01*
X101701679Y-51813482D01*
X109244357Y-51813482D01*
X109369767Y-52116998D01*
X109601781Y-52349417D01*
X109905077Y-52475357D01*
X110233482Y-52475643D01*
X110536998Y-52350233D01*
X110769417Y-52118219D01*
X110873432Y-51867722D01*
X111721757Y-51867722D01*
X111847167Y-52171238D01*
X112079181Y-52403657D01*
X112382477Y-52529597D01*
X112710882Y-52529883D01*
X113014398Y-52404473D01*
X113246817Y-52172459D01*
X113372757Y-51869163D01*
X113373043Y-51540758D01*
X113247633Y-51237242D01*
X113015619Y-51004823D01*
X112712323Y-50878883D01*
X112383918Y-50878597D01*
X112080402Y-51004007D01*
X111847983Y-51236021D01*
X111722043Y-51539317D01*
X111721757Y-51867722D01*
X110873432Y-51867722D01*
X110895357Y-51814923D01*
X110895643Y-51486518D01*
X110770233Y-51183002D01*
X110538219Y-50950583D01*
X110234923Y-50824643D01*
X109906518Y-50824357D01*
X109603002Y-50949767D01*
X109370583Y-51181781D01*
X109244643Y-51485077D01*
X109244357Y-51813482D01*
X101701679Y-51813482D01*
X101790357Y-51599923D01*
X101790643Y-51271518D01*
X101665233Y-50968002D01*
X101433219Y-50735583D01*
X101129923Y-50609643D01*
X100801518Y-50609357D01*
X100498002Y-50734767D01*
X100265583Y-50966781D01*
X100139643Y-51270077D01*
X100139357Y-51598482D01*
X98441124Y-51598482D01*
X98514803Y-51524803D01*
X98542666Y-51482789D01*
X98552000Y-51435000D01*
X98552000Y-50217606D01*
X98721655Y-50047951D01*
X98799767Y-50236998D01*
X99031781Y-50469417D01*
X99335077Y-50595357D01*
X99663482Y-50595643D01*
X99966998Y-50470233D01*
X100199417Y-50238219D01*
X100325357Y-49934923D01*
X100325643Y-49606518D01*
X100200233Y-49303002D01*
X99968219Y-49070583D01*
X99778006Y-48991600D01*
X100376124Y-48393482D01*
X110924357Y-48393482D01*
X111049767Y-48696998D01*
X111281781Y-48929417D01*
X111585077Y-49055357D01*
X111913482Y-49055643D01*
X112216998Y-48930233D01*
X112449417Y-48698219D01*
X112534584Y-48493116D01*
X112534357Y-48753482D01*
X112659767Y-49056998D01*
X112891781Y-49289417D01*
X113195077Y-49415357D01*
X113523482Y-49415643D01*
X113826998Y-49290233D01*
X114059417Y-49058219D01*
X114185357Y-48754923D01*
X114185643Y-48426518D01*
X114060233Y-48123002D01*
X113828219Y-47890583D01*
X113524923Y-47764643D01*
X113196518Y-47764357D01*
X112893002Y-47889767D01*
X112660583Y-48121781D01*
X112575416Y-48326884D01*
X112575643Y-48066518D01*
X112450233Y-47763002D01*
X112218219Y-47530583D01*
X111914923Y-47404643D01*
X111586518Y-47404357D01*
X111283002Y-47529767D01*
X111050583Y-47761781D01*
X110924643Y-48065077D01*
X110924357Y-48393482D01*
X100376124Y-48393482D01*
X100382606Y-48387000D01*
X102870000Y-48387000D01*
X102919410Y-48376994D01*
X102959803Y-48349803D01*
X104229803Y-47079803D01*
X104257666Y-47037789D01*
X104267000Y-46990000D01*
X104267000Y-40640000D01*
X104256994Y-40590590D01*
X104228553Y-40548965D01*
X104186159Y-40521685D01*
X104140000Y-40513000D01*
X100330000Y-40513000D01*
X100280590Y-40523006D01*
X100240197Y-40550197D01*
X99642394Y-41148000D01*
X91492606Y-41148000D01*
X90932000Y-40587394D01*
X90932000Y-39602844D01*
X92140828Y-40811672D01*
X92607435Y-40345065D01*
X91736785Y-39474415D01*
X91938481Y-39434295D01*
X92024006Y-39222821D01*
X91440000Y-38638815D01*
X91170593Y-38908223D01*
X90932000Y-38669630D01*
X90932000Y-37530370D01*
X91170593Y-37291778D01*
X91440000Y-37561185D01*
X92024006Y-36977179D01*
X92015845Y-36957000D01*
X93753162Y-36957000D01*
X93333388Y-37130446D01*
X93333388Y-37130446D01*
G37*
X93333388Y-37130446D02*
X93011577Y-37451697D01*
X92837199Y-37871646D01*
X92837159Y-37917554D01*
X92774295Y-37601519D01*
X92562821Y-37515994D01*
X91978815Y-38100000D01*
X92562821Y-38684006D01*
X92774295Y-38598481D01*
X92836901Y-38213446D01*
X92836802Y-38326359D01*
X93010446Y-38746612D01*
X93331697Y-39068423D01*
X93751646Y-39242801D01*
X94206359Y-39243198D01*
X94626612Y-39069554D01*
X94948423Y-38748303D01*
X95122801Y-38328354D01*
X95123198Y-37873641D01*
X94949554Y-37453388D01*
X94628303Y-37131577D01*
X94208354Y-36957199D01*
X93980425Y-36957000D01*
X96293162Y-36957000D01*
X95873388Y-37130446D01*
X95551577Y-37451697D01*
X95377199Y-37871646D01*
X95376802Y-38326359D01*
X95550446Y-38746612D01*
X95871697Y-39068423D01*
X96291646Y-39242801D01*
X96746359Y-39243198D01*
X97166612Y-39069554D01*
X97488423Y-38748303D01*
X97662801Y-38328354D01*
X97663198Y-37873641D01*
X97489554Y-37453388D01*
X97168303Y-37131577D01*
X96748354Y-36957199D01*
X96520425Y-36957000D01*
X98833162Y-36957000D01*
X98413388Y-37130446D01*
X98091577Y-37451697D01*
X97917199Y-37871646D01*
X97916802Y-38326359D01*
X98090446Y-38746612D01*
X98411697Y-39068423D01*
X98831646Y-39242801D01*
X99286359Y-39243198D01*
X99706612Y-39069554D01*
X100028423Y-38748303D01*
X100202801Y-38328354D01*
X100203198Y-37873641D01*
X100029554Y-37453388D01*
X99708303Y-37131577D01*
X99288354Y-36957199D01*
X99060425Y-36957000D01*
X101373162Y-36957000D01*
X100953388Y-37130446D01*
X100631577Y-37451697D01*
X100457199Y-37871646D01*
X100456802Y-38326359D01*
X100630446Y-38746612D01*
X100951697Y-39068423D01*
X101371646Y-39242801D01*
X101826359Y-39243198D01*
X102246612Y-39069554D01*
X102568423Y-38748303D01*
X102742801Y-38328354D01*
X102743198Y-37873641D01*
X102569554Y-37453388D01*
X102248303Y-37131577D01*
X101828354Y-36957199D01*
X101600425Y-36957000D01*
X103338333Y-36957000D01*
X103236810Y-36976103D01*
X103107135Y-37059546D01*
X103020141Y-37186866D01*
X102989536Y-37338000D01*
X102989536Y-38862000D01*
X103016103Y-39003190D01*
X103099546Y-39132865D01*
X103226866Y-39219859D01*
X103378000Y-39250464D01*
X104902000Y-39250464D01*
X105043190Y-39223897D01*
X105172865Y-39140454D01*
X105259859Y-39013134D01*
X105290464Y-38862000D01*
X105290464Y-37338000D01*
X105263897Y-37196810D01*
X105180454Y-37067135D01*
X105053134Y-36980141D01*
X104938859Y-36957000D01*
X109728000Y-36957000D01*
X109728000Y-41250433D01*
X109688219Y-41210583D01*
X109384923Y-41084643D01*
X109056518Y-41084357D01*
X108753002Y-41209767D01*
X108520583Y-41441781D01*
X108394643Y-41745077D01*
X108394357Y-42073482D01*
X108519767Y-42376998D01*
X108751781Y-42609417D01*
X109055077Y-42735357D01*
X109383482Y-42735643D01*
X109686998Y-42610233D01*
X109732094Y-42565216D01*
X109738006Y-42594410D01*
X109766447Y-42636035D01*
X109808841Y-42663315D01*
X109855000Y-42672000D01*
X115443000Y-42672000D01*
X115443000Y-70993000D01*
X114324567Y-70993000D01*
X114364417Y-70953219D01*
X114490357Y-70649923D01*
X114490643Y-70321518D01*
X114365233Y-70018002D01*
X114133219Y-69785583D01*
X113829923Y-69659643D01*
X113501518Y-69659357D01*
X113198002Y-69784767D01*
X112965583Y-70016781D01*
X112839643Y-70320077D01*
X112839357Y-70648482D01*
X112964767Y-70951998D01*
X113005698Y-70993000D01*
X112447606Y-70993000D01*
X110579803Y-69125197D01*
X110537789Y-69097334D01*
X110490000Y-69088000D01*
X103557606Y-69088000D01*
X102463088Y-67993482D01*
X108684357Y-67993482D01*
X108809767Y-68296998D01*
X109041781Y-68529417D01*
X109345077Y-68655357D01*
X109673482Y-68655643D01*
X109976998Y-68530233D01*
X110209417Y-68298219D01*
X110335357Y-67994923D01*
X110335643Y-67666518D01*
X110210233Y-67363002D01*
X109978219Y-67130583D01*
X109674923Y-67004643D01*
X109346518Y-67004357D01*
X109043002Y-67129767D01*
X108810583Y-67361781D01*
X108684643Y-67665077D01*
X108684357Y-67993482D01*
X102463088Y-67993482D01*
X99739872Y-65270266D01*
X99911077Y-65341357D01*
X100239482Y-65341643D01*
X100542998Y-65216233D01*
X100775417Y-64984219D01*
X100901357Y-64680923D01*
X100901643Y-64352518D01*
X100776233Y-64049002D01*
X100544219Y-63816583D01*
X100240923Y-63690643D01*
X99912518Y-63690357D01*
X99609002Y-63815767D01*
X99376583Y-64047781D01*
X99250643Y-64351077D01*
X99250357Y-64679482D01*
X99321664Y-64852058D01*
X98133088Y-63663482D01*
X100774357Y-63663482D01*
X100899767Y-63966998D01*
X101131781Y-64199417D01*
X101435077Y-64325357D01*
X101763482Y-64325643D01*
X102066998Y-64200233D01*
X102113830Y-64153482D01*
X105534357Y-64153482D01*
X105659767Y-64456998D01*
X105891781Y-64689417D01*
X106195077Y-64815357D01*
X106523482Y-64815643D01*
X106826998Y-64690233D01*
X107059417Y-64458219D01*
X107185357Y-64154923D01*
X107185643Y-63826518D01*
X107060233Y-63523002D01*
X106828219Y-63290583D01*
X106524923Y-63164643D01*
X106196518Y-63164357D01*
X105893002Y-63289767D01*
X105660583Y-63521781D01*
X105534643Y-63825077D01*
X105534357Y-64153482D01*
X102113830Y-64153482D01*
X102299417Y-63968219D01*
X102425357Y-63664923D01*
X102425643Y-63336518D01*
X102300233Y-63033002D01*
X102068219Y-62800583D01*
X101764923Y-62674643D01*
X101436518Y-62674357D01*
X101133002Y-62799767D01*
X100900583Y-63031781D01*
X100774643Y-63335077D01*
X100774357Y-63663482D01*
X98133088Y-63663482D01*
X97917000Y-63447394D01*
X97917000Y-61568634D01*
X98133077Y-61658357D01*
X98461482Y-61658643D01*
X98527216Y-61631482D01*
X102806357Y-61631482D01*
X102931767Y-61934998D01*
X103163781Y-62167417D01*
X103467077Y-62293357D01*
X103795482Y-62293643D01*
X104098998Y-62168233D01*
X104127799Y-62139482D01*
X105346357Y-62139482D01*
X105471767Y-62442998D01*
X105703781Y-62675417D01*
X106007077Y-62801357D01*
X106335482Y-62801643D01*
X106638998Y-62676233D01*
X106641753Y-62673482D01*
X110174357Y-62673482D01*
X110299767Y-62976998D01*
X110531781Y-63209417D01*
X110835077Y-63335357D01*
X111163482Y-63335643D01*
X111466998Y-63210233D01*
X111699417Y-62978219D01*
X111825357Y-62674923D01*
X111825643Y-62346518D01*
X111700233Y-62043002D01*
X111468219Y-61810583D01*
X111164923Y-61684643D01*
X110836518Y-61684357D01*
X110533002Y-61809767D01*
X110300583Y-62041781D01*
X110174643Y-62345077D01*
X110174357Y-62673482D01*
X106641753Y-62673482D01*
X106871417Y-62444219D01*
X106997357Y-62140923D01*
X106997643Y-61812518D01*
X106872233Y-61509002D01*
X106640219Y-61276583D01*
X106336923Y-61150643D01*
X106008518Y-61150357D01*
X105705002Y-61275767D01*
X105472583Y-61507781D01*
X105346643Y-61811077D01*
X105346357Y-62139482D01*
X104127799Y-62139482D01*
X104331417Y-61936219D01*
X104457357Y-61632923D01*
X104457643Y-61304518D01*
X104332233Y-61001002D01*
X104100219Y-60768583D01*
X103796923Y-60642643D01*
X103468518Y-60642357D01*
X103165002Y-60767767D01*
X102932583Y-60999781D01*
X102806643Y-61303077D01*
X102806357Y-61631482D01*
X98527216Y-61631482D01*
X98764998Y-61533233D01*
X98997417Y-61301219D01*
X99123357Y-60997923D01*
X99123643Y-60669518D01*
X98998233Y-60366002D01*
X98766219Y-60133583D01*
X98462923Y-60007643D01*
X98134518Y-60007357D01*
X97917000Y-60097233D01*
X97917000Y-59573482D01*
X108444357Y-59573482D01*
X108569767Y-59876998D01*
X108801781Y-60109417D01*
X109105077Y-60235357D01*
X109433482Y-60235643D01*
X109736998Y-60110233D01*
X109969417Y-59878219D01*
X110095357Y-59574923D01*
X110095643Y-59246518D01*
X109970233Y-58943002D01*
X109738219Y-58710583D01*
X109434923Y-58584643D01*
X109106518Y-58584357D01*
X108803002Y-58709767D01*
X108570583Y-58941781D01*
X108444643Y-59245077D01*
X108444357Y-59573482D01*
X97917000Y-59573482D01*
X97917000Y-58743482D01*
X106704357Y-58743482D01*
X106829767Y-59046998D01*
X107061781Y-59279417D01*
X107365077Y-59405357D01*
X107693482Y-59405643D01*
X107996998Y-59280233D01*
X108229417Y-59048219D01*
X108355357Y-58744923D01*
X108355643Y-58416518D01*
X108230233Y-58113002D01*
X107998219Y-57880583D01*
X107981118Y-57873482D01*
X112564357Y-57873482D01*
X112689767Y-58176998D01*
X112921781Y-58409417D01*
X113225077Y-58535357D01*
X113553482Y-58535643D01*
X113856998Y-58410233D01*
X114089417Y-58178219D01*
X114215357Y-57874923D01*
X114215643Y-57546518D01*
X114090233Y-57243002D01*
X113858219Y-57010583D01*
X113554923Y-56884643D01*
X113226518Y-56884357D01*
X112923002Y-57009767D01*
X112690583Y-57241781D01*
X112564643Y-57545077D01*
X112564357Y-57873482D01*
X107981118Y-57873482D01*
X107694923Y-57754643D01*
X107366518Y-57754357D01*
X107063002Y-57879767D01*
X106830583Y-58111781D01*
X106704643Y-58415077D01*
X106704357Y-58743482D01*
X97917000Y-58743482D01*
X97917000Y-56623482D01*
X102374357Y-56623482D01*
X102499767Y-56926998D01*
X102731781Y-57159417D01*
X103035077Y-57285357D01*
X103363482Y-57285643D01*
X103666998Y-57160233D01*
X103854074Y-56973482D01*
X106194357Y-56973482D01*
X106319767Y-57276998D01*
X106551781Y-57509417D01*
X106855077Y-57635357D01*
X107183482Y-57635643D01*
X107486998Y-57510233D01*
X107719417Y-57278219D01*
X107845357Y-56974923D01*
X107845643Y-56646518D01*
X107720233Y-56343002D01*
X107488219Y-56110583D01*
X107184923Y-55984643D01*
X106856518Y-55984357D01*
X106553002Y-56109767D01*
X106320583Y-56341781D01*
X106194643Y-56645077D01*
X106194357Y-56973482D01*
X103854074Y-56973482D01*
X103899417Y-56928219D01*
X104025357Y-56624923D01*
X104025643Y-56296518D01*
X103958279Y-56133482D01*
X104054357Y-56133482D01*
X104179767Y-56436998D01*
X104411781Y-56669417D01*
X104715077Y-56795357D01*
X105043482Y-56795643D01*
X105346998Y-56670233D01*
X105579417Y-56438219D01*
X105705357Y-56134923D01*
X105705643Y-55806518D01*
X105580233Y-55503002D01*
X105348219Y-55270583D01*
X105044923Y-55144643D01*
X104716518Y-55144357D01*
X104413002Y-55269767D01*
X104180583Y-55501781D01*
X104054643Y-55805077D01*
X104054357Y-56133482D01*
X103958279Y-56133482D01*
X103900233Y-55993002D01*
X103668219Y-55760583D01*
X103364923Y-55634643D01*
X103036518Y-55634357D01*
X102733002Y-55759767D01*
X102500583Y-55991781D01*
X102374643Y-56295077D01*
X102374357Y-56623482D01*
X97917000Y-56623482D01*
X97917000Y-55880000D01*
X97906994Y-55830590D01*
X97878553Y-55788965D01*
X97836159Y-55761685D01*
X97790000Y-55753000D01*
X96647000Y-55753000D01*
X96647000Y-54923482D01*
X99184357Y-54923482D01*
X99309767Y-55226998D01*
X99541781Y-55459417D01*
X99845077Y-55585357D01*
X100173482Y-55585643D01*
X100476998Y-55460233D01*
X100709417Y-55228219D01*
X100835357Y-54924923D01*
X100835643Y-54596518D01*
X100710233Y-54293002D01*
X100478219Y-54060583D01*
X100174923Y-53934643D01*
X99846518Y-53934357D01*
X99543002Y-54059767D01*
X99310583Y-54291781D01*
X99184643Y-54595077D01*
X99184357Y-54923482D01*
X96647000Y-54923482D01*
X96647000Y-53392606D01*
X97001124Y-53038482D01*
X98674357Y-53038482D01*
X98799767Y-53341998D01*
X99031781Y-53574417D01*
X99335077Y-53700357D01*
X99663482Y-53700643D01*
X99966998Y-53575233D01*
X100038874Y-53503482D01*
X109664357Y-53503482D01*
X109789767Y-53806998D01*
X110021781Y-54039417D01*
X110325077Y-54165357D01*
X110653482Y-54165643D01*
X110956998Y-54040233D01*
X111189417Y-53808219D01*
X111315357Y-53504923D01*
X111315513Y-53325682D01*
X112582817Y-53325682D01*
X112708227Y-53629198D01*
X112940241Y-53861617D01*
X113243537Y-53987557D01*
X113571942Y-53987843D01*
X113875458Y-53862433D01*
X114107877Y-53630419D01*
X114233817Y-53327123D01*
X114234103Y-52998718D01*
X114108693Y-52695202D01*
X113876679Y-52462783D01*
X113573383Y-52336843D01*
X113244978Y-52336557D01*
X112941462Y-52461967D01*
X112709043Y-52693981D01*
X112583103Y-52997277D01*
X112582817Y-53325682D01*
X111315513Y-53325682D01*
X111315643Y-53176518D01*
X111190233Y-52873002D01*
X110958219Y-52640583D01*
X110654923Y-52514643D01*
X110326518Y-52514357D01*
X110023002Y-52639767D01*
X109790583Y-52871781D01*
X109664643Y-53175077D01*
X109664357Y-53503482D01*
X100038874Y-53503482D01*
X100199417Y-53343219D01*
X100325357Y-53039923D01*
X100325643Y-52711518D01*
X100200233Y-52408002D01*
X99968219Y-52175583D01*
X99664923Y-52049643D01*
X99336518Y-52049357D01*
X99033002Y-52174767D01*
X98800583Y-52406781D01*
X98674643Y-52710077D01*
X98674357Y-53038482D01*
X97001124Y-53038482D01*
X98441124Y-51598482D01*
X100139357Y-51598482D01*
X100264767Y-51901998D01*
X100496781Y-52134417D01*
X100800077Y-52260357D01*
X101128482Y-52260643D01*
X101431998Y-52135233D01*
X101664417Y-51903219D01*
X101701679Y-51813482D01*
X109244357Y-51813482D01*
X109369767Y-52116998D01*
X109601781Y-52349417D01*
X109905077Y-52475357D01*
X110233482Y-52475643D01*
X110536998Y-52350233D01*
X110769417Y-52118219D01*
X110873432Y-51867722D01*
X111721757Y-51867722D01*
X111847167Y-52171238D01*
X112079181Y-52403657D01*
X112382477Y-52529597D01*
X112710882Y-52529883D01*
X113014398Y-52404473D01*
X113246817Y-52172459D01*
X113372757Y-51869163D01*
X113373043Y-51540758D01*
X113247633Y-51237242D01*
X113015619Y-51004823D01*
X112712323Y-50878883D01*
X112383918Y-50878597D01*
X112080402Y-51004007D01*
X111847983Y-51236021D01*
X111722043Y-51539317D01*
X111721757Y-51867722D01*
X110873432Y-51867722D01*
X110895357Y-51814923D01*
X110895643Y-51486518D01*
X110770233Y-51183002D01*
X110538219Y-50950583D01*
X110234923Y-50824643D01*
X109906518Y-50824357D01*
X109603002Y-50949767D01*
X109370583Y-51181781D01*
X109244643Y-51485077D01*
X109244357Y-51813482D01*
X101701679Y-51813482D01*
X101790357Y-51599923D01*
X101790643Y-51271518D01*
X101665233Y-50968002D01*
X101433219Y-50735583D01*
X101129923Y-50609643D01*
X100801518Y-50609357D01*
X100498002Y-50734767D01*
X100265583Y-50966781D01*
X100139643Y-51270077D01*
X100139357Y-51598482D01*
X98441124Y-51598482D01*
X98514803Y-51524803D01*
X98542666Y-51482789D01*
X98552000Y-51435000D01*
X98552000Y-50217606D01*
X98721655Y-50047951D01*
X98799767Y-50236998D01*
X99031781Y-50469417D01*
X99335077Y-50595357D01*
X99663482Y-50595643D01*
X99966998Y-50470233D01*
X100199417Y-50238219D01*
X100325357Y-49934923D01*
X100325643Y-49606518D01*
X100200233Y-49303002D01*
X99968219Y-49070583D01*
X99778006Y-48991600D01*
X100376124Y-48393482D01*
X110924357Y-48393482D01*
X111049767Y-48696998D01*
X111281781Y-48929417D01*
X111585077Y-49055357D01*
X111913482Y-49055643D01*
X112216998Y-48930233D01*
X112449417Y-48698219D01*
X112534584Y-48493116D01*
X112534357Y-48753482D01*
X112659767Y-49056998D01*
X112891781Y-49289417D01*
X113195077Y-49415357D01*
X113523482Y-49415643D01*
X113826998Y-49290233D01*
X114059417Y-49058219D01*
X114185357Y-48754923D01*
X114185643Y-48426518D01*
X114060233Y-48123002D01*
X113828219Y-47890583D01*
X113524923Y-47764643D01*
X113196518Y-47764357D01*
X112893002Y-47889767D01*
X112660583Y-48121781D01*
X112575416Y-48326884D01*
X112575643Y-48066518D01*
X112450233Y-47763002D01*
X112218219Y-47530583D01*
X111914923Y-47404643D01*
X111586518Y-47404357D01*
X111283002Y-47529767D01*
X111050583Y-47761781D01*
X110924643Y-48065077D01*
X110924357Y-48393482D01*
X100376124Y-48393482D01*
X100382606Y-48387000D01*
X102870000Y-48387000D01*
X102919410Y-48376994D01*
X102959803Y-48349803D01*
X104229803Y-47079803D01*
X104257666Y-47037789D01*
X104267000Y-46990000D01*
X104267000Y-40640000D01*
X104256994Y-40590590D01*
X104228553Y-40548965D01*
X104186159Y-40521685D01*
X104140000Y-40513000D01*
X100330000Y-40513000D01*
X100280590Y-40523006D01*
X100240197Y-40550197D01*
X99642394Y-41148000D01*
X91492606Y-41148000D01*
X90932000Y-40587394D01*
X90932000Y-39602844D01*
X92140828Y-40811672D01*
X92607435Y-40345065D01*
X91736785Y-39474415D01*
X91938481Y-39434295D01*
X92024006Y-39222821D01*
X91440000Y-38638815D01*
X91170593Y-38908223D01*
X90932000Y-38669630D01*
X90932000Y-37530370D01*
X91170593Y-37291778D01*
X91440000Y-37561185D01*
X92024006Y-36977179D01*
X92015845Y-36957000D01*
X93753162Y-36957000D01*
X93333388Y-37130446D01*
G36*
X182753000Y-87503000D02*
X124587000Y-87503000D01*
X124587000Y-84209841D01*
X130111159Y-84209841D01*
X130410214Y-84933609D01*
X130963479Y-85487840D01*
X131686723Y-85788157D01*
X132469841Y-85788841D01*
X133193609Y-85489786D01*
X133203571Y-85479841D01*
X178371159Y-85479841D01*
X178670214Y-86203609D01*
X179223479Y-86757840D01*
X179946723Y-87058157D01*
X180729841Y-87058841D01*
X181453609Y-86759786D01*
X182007840Y-86206521D01*
X182308157Y-85483277D01*
X182308841Y-84700159D01*
X182009786Y-83976391D01*
X181456521Y-83422160D01*
X180733277Y-83121843D01*
X179950159Y-83121159D01*
X179226391Y-83420214D01*
X178672160Y-83973479D01*
X178371843Y-84696723D01*
X178371159Y-85479841D01*
X133203571Y-85479841D01*
X133747840Y-84936521D01*
X134048157Y-84213277D01*
X134048841Y-83430159D01*
X133749786Y-82706391D01*
X133196521Y-82152160D01*
X132473277Y-81851843D01*
X131690159Y-81851159D01*
X130966391Y-82150214D01*
X130412160Y-82703479D01*
X130111843Y-83426723D01*
X130111159Y-84209841D01*
X124587000Y-84209841D01*
X124587000Y-80490359D01*
X130936802Y-80490359D01*
X131110446Y-80910612D01*
X131431697Y-81232423D01*
X131851646Y-81406801D01*
X132306359Y-81407198D01*
X132726612Y-81233554D01*
X133048423Y-80912303D01*
X133222801Y-80492354D01*
X133223198Y-80037641D01*
X133049554Y-79617388D01*
X132728303Y-79295577D01*
X132308354Y-79121199D01*
X131853641Y-79120802D01*
X131433388Y-79294446D01*
X131111577Y-79615697D01*
X130937199Y-80035646D01*
X130936802Y-80490359D01*
X124587000Y-80490359D01*
X124587000Y-78623482D01*
X127534357Y-78623482D01*
X127659767Y-78926998D01*
X127891781Y-79159417D01*
X128195077Y-79285357D01*
X128523482Y-79285643D01*
X128826998Y-79160233D01*
X129054144Y-78933482D01*
X173504357Y-78933482D01*
X173629767Y-79236998D01*
X173861781Y-79469417D01*
X174165077Y-79595357D01*
X174493482Y-79595643D01*
X174796998Y-79470233D01*
X175029417Y-79238219D01*
X175155357Y-78934923D01*
X175155643Y-78606518D01*
X175030233Y-78303002D01*
X174798219Y-78070583D01*
X174494923Y-77944643D01*
X174166518Y-77944357D01*
X173863002Y-78069767D01*
X173630583Y-78301781D01*
X173504643Y-78605077D01*
X173504357Y-78933482D01*
X129054144Y-78933482D01*
X129059417Y-78928219D01*
X129185357Y-78624923D01*
X129185643Y-78296518D01*
X129060233Y-77993002D01*
X129017665Y-77950359D01*
X130936802Y-77950359D01*
X131110446Y-78370612D01*
X131431697Y-78692423D01*
X131851646Y-78866801D01*
X132306359Y-78867198D01*
X132726612Y-78693554D01*
X133048423Y-78372303D01*
X133205723Y-77993482D01*
X134504357Y-77993482D01*
X134629767Y-78296998D01*
X134861781Y-78529417D01*
X135165077Y-78655357D01*
X135493482Y-78655643D01*
X135796998Y-78530233D01*
X136029417Y-78298219D01*
X136155357Y-77994923D01*
X136155643Y-77666518D01*
X136030233Y-77363002D01*
X135798219Y-77130583D01*
X135494923Y-77004643D01*
X135166518Y-77004357D01*
X134863002Y-77129767D01*
X134630583Y-77361781D01*
X134504643Y-77665077D01*
X134504357Y-77993482D01*
X133205723Y-77993482D01*
X133222801Y-77952354D01*
X133223198Y-77497641D01*
X133049554Y-77077388D01*
X132728303Y-76755577D01*
X132308354Y-76581199D01*
X131853641Y-76580802D01*
X131433388Y-76754446D01*
X131111577Y-77075697D01*
X130937199Y-77495646D01*
X130936802Y-77950359D01*
X129017665Y-77950359D01*
X128828219Y-77760583D01*
X128524923Y-77634643D01*
X128196518Y-77634357D01*
X127893002Y-77759767D01*
X127660583Y-77991781D01*
X127534643Y-78295077D01*
X127534357Y-78623482D01*
X124587000Y-78623482D01*
X124587000Y-75410359D01*
X130936802Y-75410359D01*
X131110446Y-75830612D01*
X131431697Y-76152423D01*
X131851646Y-76326801D01*
X132306359Y-76327198D01*
X132726612Y-76153554D01*
X133048423Y-75832303D01*
X133222801Y-75412354D01*
X133223198Y-74957641D01*
X133049554Y-74537388D01*
X132728303Y-74215577D01*
X132308354Y-74041199D01*
X131853641Y-74040802D01*
X131433388Y-74214446D01*
X131111577Y-74535697D01*
X130937199Y-74955646D01*
X130936802Y-75410359D01*
X124587000Y-75410359D01*
X124587000Y-72870359D01*
X130936802Y-72870359D01*
X131110446Y-73290612D01*
X131431697Y-73612423D01*
X131851646Y-73786801D01*
X132306359Y-73787198D01*
X132726612Y-73613554D01*
X133048423Y-73292303D01*
X133091533Y-73188482D01*
X155384357Y-73188482D01*
X155509767Y-73491998D01*
X155741781Y-73724417D01*
X156045077Y-73850357D01*
X156373482Y-73850643D01*
X156676998Y-73725233D01*
X156909417Y-73493219D01*
X157035357Y-73189923D01*
X157035358Y-73188482D01*
X175704357Y-73188482D01*
X175829767Y-73491998D01*
X176061781Y-73724417D01*
X176365077Y-73850357D01*
X176693482Y-73850643D01*
X176996998Y-73725233D01*
X177229417Y-73493219D01*
X177355357Y-73189923D01*
X177355643Y-72861518D01*
X177230233Y-72558002D01*
X176998219Y-72325583D01*
X176694923Y-72199643D01*
X176366518Y-72199357D01*
X176063002Y-72324767D01*
X175830583Y-72556781D01*
X175704643Y-72860077D01*
X175704357Y-73188482D01*
X157035358Y-73188482D01*
X157035643Y-72861518D01*
X156910233Y-72558002D01*
X156678219Y-72325583D01*
X156374923Y-72199643D01*
X156046518Y-72199357D01*
X155743002Y-72324767D01*
X155510583Y-72556781D01*
X155384643Y-72860077D01*
X155384357Y-73188482D01*
X133091533Y-73188482D01*
X133222801Y-72872354D01*
X133223198Y-72417641D01*
X133049554Y-71997388D01*
X132728303Y-71675577D01*
X132308354Y-71501199D01*
X131853641Y-71500802D01*
X131433388Y-71674446D01*
X131111577Y-71995697D01*
X130937199Y-72415646D01*
X130936802Y-72870359D01*
X124587000Y-72870359D01*
X124587000Y-71346359D01*
X179196802Y-71346359D01*
X179370446Y-71766612D01*
X179691697Y-72088423D01*
X180111646Y-72262801D01*
X180566359Y-72263198D01*
X180986612Y-72089554D01*
X181308423Y-71768303D01*
X181482801Y-71348354D01*
X181483198Y-70893641D01*
X181309554Y-70473388D01*
X180988303Y-70151577D01*
X180568354Y-69977199D01*
X180113641Y-69976802D01*
X179693388Y-70150446D01*
X179371577Y-70471697D01*
X179197199Y-70891646D01*
X179196802Y-71346359D01*
X124587000Y-71346359D01*
X124587000Y-70330359D01*
X130936802Y-70330359D01*
X131110446Y-70750612D01*
X131431697Y-71072423D01*
X131851646Y-71246801D01*
X132306359Y-71247198D01*
X132726612Y-71073554D01*
X133048423Y-70752303D01*
X133222801Y-70332354D01*
X133223198Y-69877641D01*
X133049554Y-69457388D01*
X132945829Y-69353482D01*
X168914357Y-69353482D01*
X169039767Y-69656998D01*
X169271781Y-69889417D01*
X169575077Y-70015357D01*
X169903482Y-70015643D01*
X170206998Y-69890233D01*
X170439417Y-69658219D01*
X170565357Y-69354923D01*
X170565643Y-69026518D01*
X170474676Y-68806359D01*
X179196802Y-68806359D01*
X179370446Y-69226612D01*
X179691697Y-69548423D01*
X180111646Y-69722801D01*
X180566359Y-69723198D01*
X180986612Y-69549554D01*
X181308423Y-69228303D01*
X181482801Y-68808354D01*
X181483198Y-68353641D01*
X181309554Y-67933388D01*
X180988303Y-67611577D01*
X180568354Y-67437199D01*
X180113641Y-67436802D01*
X179693388Y-67610446D01*
X179371577Y-67931697D01*
X179197199Y-68351646D01*
X179196802Y-68806359D01*
X170474676Y-68806359D01*
X170440233Y-68723002D01*
X170208219Y-68490583D01*
X169904923Y-68364643D01*
X169576518Y-68364357D01*
X169273002Y-68489767D01*
X169040583Y-68721781D01*
X168914643Y-69025077D01*
X168914357Y-69353482D01*
X132945829Y-69353482D01*
X132728303Y-69135577D01*
X132308354Y-68961199D01*
X131853641Y-68960802D01*
X131433388Y-69134446D01*
X131111577Y-69455697D01*
X130937199Y-69875646D01*
X130936802Y-70330359D01*
X124587000Y-70330359D01*
X124587000Y-67790359D01*
X130936802Y-67790359D01*
X131110446Y-68210612D01*
X131431697Y-68532423D01*
X131851646Y-68706801D01*
X132306359Y-68707198D01*
X132726612Y-68533554D01*
X133048423Y-68212303D01*
X133081152Y-68133482D01*
X155004357Y-68133482D01*
X155129767Y-68436998D01*
X155361781Y-68669417D01*
X155665077Y-68795357D01*
X155993482Y-68795643D01*
X156296998Y-68670233D01*
X156529417Y-68438219D01*
X156655357Y-68134923D01*
X156655643Y-67806518D01*
X156530233Y-67503002D01*
X156311096Y-67283482D01*
X159874357Y-67283482D01*
X159999767Y-67586998D01*
X160231781Y-67819417D01*
X160535077Y-67945357D01*
X160863482Y-67945643D01*
X161166998Y-67820233D01*
X161399417Y-67588219D01*
X161525357Y-67284923D01*
X161525643Y-66956518D01*
X161400233Y-66653002D01*
X161168219Y-66420583D01*
X160864923Y-66294643D01*
X160536518Y-66294357D01*
X160233002Y-66419767D01*
X160000583Y-66651781D01*
X159874643Y-66955077D01*
X159874357Y-67283482D01*
X156311096Y-67283482D01*
X156298219Y-67270583D01*
X155994923Y-67144643D01*
X155666518Y-67144357D01*
X155363002Y-67269767D01*
X155130583Y-67501781D01*
X155004643Y-67805077D01*
X155004357Y-68133482D01*
X133081152Y-68133482D01*
X133222801Y-67792354D01*
X133223198Y-67337641D01*
X133049554Y-66917388D01*
X132728303Y-66595577D01*
X132308354Y-66421199D01*
X131853641Y-66420802D01*
X131433388Y-66594446D01*
X131111577Y-66915697D01*
X130937199Y-67335646D01*
X130936802Y-67790359D01*
X124587000Y-67790359D01*
X124587000Y-66453482D01*
X127534357Y-66453482D01*
X127659767Y-66756998D01*
X127891781Y-66989417D01*
X128195077Y-67115357D01*
X128523482Y-67115643D01*
X128826998Y-66990233D01*
X129059417Y-66758219D01*
X129185357Y-66454923D01*
X129185521Y-66266359D01*
X179196802Y-66266359D01*
X179370446Y-66686612D01*
X179691697Y-67008423D01*
X180111646Y-67182801D01*
X180566359Y-67183198D01*
X180986612Y-67009554D01*
X181308423Y-66688303D01*
X181482801Y-66268354D01*
X181483198Y-65813641D01*
X181309554Y-65393388D01*
X180988303Y-65071577D01*
X180568354Y-64897199D01*
X180113641Y-64896802D01*
X179693388Y-65070446D01*
X179371577Y-65391697D01*
X179197199Y-65811646D01*
X179196802Y-66266359D01*
X129185521Y-66266359D01*
X129185643Y-66126518D01*
X129060233Y-65823002D01*
X128828219Y-65590583D01*
X128524923Y-65464643D01*
X128196518Y-65464357D01*
X127893002Y-65589767D01*
X127660583Y-65821781D01*
X127534643Y-66125077D01*
X127534357Y-66453482D01*
X124587000Y-66453482D01*
X124587000Y-65250359D01*
X130936802Y-65250359D01*
X131110446Y-65670612D01*
X131431697Y-65992423D01*
X131851646Y-66166801D01*
X132306359Y-66167198D01*
X132726612Y-65993554D01*
X133048423Y-65672303D01*
X133091533Y-65568482D01*
X146484357Y-65568482D01*
X146609767Y-65871998D01*
X146841781Y-66104417D01*
X147145077Y-66230357D01*
X147473482Y-66230643D01*
X147776998Y-66105233D01*
X148009417Y-65873219D01*
X148135357Y-65569923D01*
X148135358Y-65568482D01*
X163639357Y-65568482D01*
X163764767Y-65871998D01*
X163996781Y-66104417D01*
X164300077Y-66230357D01*
X164628482Y-66230643D01*
X164931998Y-66105233D01*
X165164417Y-65873219D01*
X165290357Y-65569923D01*
X165290643Y-65241518D01*
X165165233Y-64938002D01*
X164933219Y-64705583D01*
X164629923Y-64579643D01*
X164301518Y-64579357D01*
X163998002Y-64704767D01*
X163765583Y-64936781D01*
X163639643Y-65240077D01*
X163639357Y-65568482D01*
X148135358Y-65568482D01*
X148135643Y-65241518D01*
X148010233Y-64938002D01*
X147778219Y-64705583D01*
X147474923Y-64579643D01*
X147146518Y-64579357D01*
X146843002Y-64704767D01*
X146610583Y-64936781D01*
X146484643Y-65240077D01*
X146484357Y-65568482D01*
X133091533Y-65568482D01*
X133222801Y-65252354D01*
X133223198Y-64797641D01*
X133049554Y-64377388D01*
X132970786Y-64298482D01*
X159829357Y-64298482D01*
X159954767Y-64601998D01*
X160186781Y-64834417D01*
X160490077Y-64960357D01*
X160818482Y-64960643D01*
X161121998Y-64835233D01*
X161354417Y-64603219D01*
X161480357Y-64299923D01*
X161480643Y-63971518D01*
X161379346Y-63726359D01*
X179196802Y-63726359D01*
X179370446Y-64146612D01*
X179691697Y-64468423D01*
X180111646Y-64642801D01*
X180566359Y-64643198D01*
X180986612Y-64469554D01*
X181308423Y-64148303D01*
X181482801Y-63728354D01*
X181483198Y-63273641D01*
X181309554Y-62853388D01*
X180988303Y-62531577D01*
X180568354Y-62357199D01*
X180113641Y-62356802D01*
X179693388Y-62530446D01*
X179371577Y-62851697D01*
X179197199Y-63271646D01*
X179196802Y-63726359D01*
X161379346Y-63726359D01*
X161355233Y-63668002D01*
X161123219Y-63435583D01*
X160819923Y-63309643D01*
X160491518Y-63309357D01*
X160188002Y-63434767D01*
X159955583Y-63666781D01*
X159829643Y-63970077D01*
X159829357Y-64298482D01*
X132970786Y-64298482D01*
X132728303Y-64055577D01*
X132308354Y-63881199D01*
X131853641Y-63880802D01*
X131433388Y-64054446D01*
X131111577Y-64375697D01*
X130937199Y-64795646D01*
X130936802Y-65250359D01*
X124587000Y-65250359D01*
X124587000Y-62710359D01*
X130936802Y-62710359D01*
X131110446Y-63130612D01*
X131431697Y-63452423D01*
X131851646Y-63626801D01*
X132306359Y-63627198D01*
X132726612Y-63453554D01*
X132796806Y-63383482D01*
X150764357Y-63383482D01*
X150889767Y-63686998D01*
X151121781Y-63919417D01*
X151425077Y-64045357D01*
X151753482Y-64045643D01*
X152056998Y-63920233D01*
X152289417Y-63688219D01*
X152415357Y-63384923D01*
X152415643Y-63056518D01*
X152404059Y-63028482D01*
X156019357Y-63028482D01*
X156144767Y-63331998D01*
X156376781Y-63564417D01*
X156680077Y-63690357D01*
X157008482Y-63690643D01*
X157311998Y-63565233D01*
X157544417Y-63333219D01*
X157670357Y-63029923D01*
X157670643Y-62701518D01*
X157545233Y-62398002D01*
X157313219Y-62165583D01*
X157009923Y-62039643D01*
X156681518Y-62039357D01*
X156378002Y-62164767D01*
X156145583Y-62396781D01*
X156019643Y-62700077D01*
X156019357Y-63028482D01*
X152404059Y-63028482D01*
X152290233Y-62753002D01*
X152058219Y-62520583D01*
X151754923Y-62394643D01*
X151426518Y-62394357D01*
X151123002Y-62519767D01*
X150890583Y-62751781D01*
X150764643Y-63055077D01*
X150764357Y-63383482D01*
X132796806Y-63383482D01*
X133048423Y-63132303D01*
X133222801Y-62712354D01*
X133223198Y-62257641D01*
X133049554Y-61837388D01*
X132895916Y-61683482D01*
X134934357Y-61683482D01*
X135059767Y-61986998D01*
X135291781Y-62219417D01*
X135595077Y-62345357D01*
X135923482Y-62345643D01*
X136226998Y-62220233D01*
X136459417Y-61988219D01*
X136585357Y-61684923D01*
X136585643Y-61356518D01*
X136515335Y-61186359D01*
X179196802Y-61186359D01*
X179370446Y-61606612D01*
X179691697Y-61928423D01*
X180111646Y-62102801D01*
X180566359Y-62103198D01*
X180986612Y-61929554D01*
X181308423Y-61608303D01*
X181482801Y-61188354D01*
X181483198Y-60733641D01*
X181309554Y-60313388D01*
X180988303Y-59991577D01*
X180568354Y-59817199D01*
X180113641Y-59816802D01*
X179693388Y-59990446D01*
X179371577Y-60311697D01*
X179197199Y-60731646D01*
X179196802Y-61186359D01*
X136515335Y-61186359D01*
X136460233Y-61053002D01*
X136228219Y-60820583D01*
X135924923Y-60694643D01*
X135596518Y-60694357D01*
X135293002Y-60819767D01*
X135060583Y-61051781D01*
X134934643Y-61355077D01*
X134934357Y-61683482D01*
X132895916Y-61683482D01*
X132728303Y-61515577D01*
X132308354Y-61341199D01*
X131853641Y-61340802D01*
X131433388Y-61514446D01*
X131111577Y-61835697D01*
X130937199Y-62255646D01*
X130936802Y-62710359D01*
X124587000Y-62710359D01*
X124587000Y-61653482D01*
X127684357Y-61653482D01*
X127809767Y-61956998D01*
X128041781Y-62189417D01*
X128345077Y-62315357D01*
X128673482Y-62315643D01*
X128976998Y-62190233D01*
X129209417Y-61958219D01*
X129335357Y-61654923D01*
X129335643Y-61326518D01*
X129210233Y-61023002D01*
X128978219Y-60790583D01*
X128674923Y-60664643D01*
X128346518Y-60664357D01*
X128043002Y-60789767D01*
X127810583Y-61021781D01*
X127684643Y-61325077D01*
X127684357Y-61653482D01*
X124587000Y-61653482D01*
X124587000Y-60170359D01*
X130936802Y-60170359D01*
X131110446Y-60590612D01*
X131431697Y-60912423D01*
X131851646Y-61086801D01*
X132306359Y-61087198D01*
X132726612Y-60913554D01*
X133048423Y-60592303D01*
X133222801Y-60172354D01*
X133223198Y-59717641D01*
X133049554Y-59297388D01*
X132728303Y-58975577D01*
X132308354Y-58801199D01*
X131853641Y-58800802D01*
X131433388Y-58974446D01*
X131111577Y-59295697D01*
X130937199Y-59715646D01*
X130936802Y-60170359D01*
X124587000Y-60170359D01*
X124587000Y-58583482D01*
X126174357Y-58583482D01*
X126299767Y-58886998D01*
X126531781Y-59119417D01*
X126835077Y-59245357D01*
X127163482Y-59245643D01*
X127466998Y-59120233D01*
X127699417Y-58888219D01*
X127825357Y-58584923D01*
X127825358Y-58583482D01*
X137604357Y-58583482D01*
X137729767Y-58886998D01*
X137961781Y-59119417D01*
X138265077Y-59245357D01*
X138593482Y-59245643D01*
X138896998Y-59120233D01*
X139129417Y-58888219D01*
X139229846Y-58646359D01*
X179196802Y-58646359D01*
X179370446Y-59066612D01*
X179691697Y-59388423D01*
X180111646Y-59562801D01*
X180566359Y-59563198D01*
X180986612Y-59389554D01*
X181308423Y-59068303D01*
X181482801Y-58648354D01*
X181483198Y-58193641D01*
X181309554Y-57773388D01*
X180988303Y-57451577D01*
X180568354Y-57277199D01*
X180113641Y-57276802D01*
X179693388Y-57450446D01*
X179371577Y-57771697D01*
X179197199Y-58191646D01*
X179196802Y-58646359D01*
X139229846Y-58646359D01*
X139255357Y-58584923D01*
X139255643Y-58256518D01*
X139130233Y-57953002D01*
X138898219Y-57720583D01*
X138594923Y-57594643D01*
X138266518Y-57594357D01*
X137963002Y-57719767D01*
X137730583Y-57951781D01*
X137604643Y-58255077D01*
X137604357Y-58583482D01*
X127825358Y-58583482D01*
X127825643Y-58256518D01*
X127700233Y-57953002D01*
X127468219Y-57720583D01*
X127250937Y-57630359D01*
X130936802Y-57630359D01*
X131110446Y-58050612D01*
X131431697Y-58372423D01*
X131851646Y-58546801D01*
X132306359Y-58547198D01*
X132726612Y-58373554D01*
X133048423Y-58052303D01*
X133222801Y-57632354D01*
X133223079Y-57313482D01*
X142684357Y-57313482D01*
X142809767Y-57616998D01*
X143041781Y-57849417D01*
X143345077Y-57975357D01*
X143673482Y-57975643D01*
X143739216Y-57948482D01*
X146494357Y-57948482D01*
X146619767Y-58251998D01*
X146851781Y-58484417D01*
X147155077Y-58610357D01*
X147483482Y-58610643D01*
X147786998Y-58485233D01*
X148019417Y-58253219D01*
X148145357Y-57949923D01*
X148145358Y-57948482D01*
X166814357Y-57948482D01*
X166939767Y-58251998D01*
X167171781Y-58484417D01*
X167475077Y-58610357D01*
X167803482Y-58610643D01*
X168106998Y-58485233D01*
X168339417Y-58253219D01*
X168465357Y-57949923D01*
X168465643Y-57621518D01*
X168340233Y-57318002D01*
X168185983Y-57163482D01*
X169174357Y-57163482D01*
X169299767Y-57466998D01*
X169531781Y-57699417D01*
X169835077Y-57825357D01*
X170163482Y-57825643D01*
X170466998Y-57700233D01*
X170699417Y-57468219D01*
X170825357Y-57164923D01*
X170825643Y-56836518D01*
X170700233Y-56533002D01*
X170468219Y-56300583D01*
X170164923Y-56174643D01*
X169836518Y-56174357D01*
X169533002Y-56299767D01*
X169300583Y-56531781D01*
X169174643Y-56835077D01*
X169174357Y-57163482D01*
X168185983Y-57163482D01*
X168108219Y-57085583D01*
X167804923Y-56959643D01*
X167476518Y-56959357D01*
X167173002Y-57084767D01*
X166940583Y-57316781D01*
X166814643Y-57620077D01*
X166814357Y-57948482D01*
X148145358Y-57948482D01*
X148145643Y-57621518D01*
X148020233Y-57318002D01*
X147788219Y-57085583D01*
X147484923Y-56959643D01*
X147156518Y-56959357D01*
X146853002Y-57084767D01*
X146620583Y-57316781D01*
X146494643Y-57620077D01*
X146494357Y-57948482D01*
X143739216Y-57948482D01*
X143976998Y-57850233D01*
X144209417Y-57618219D01*
X144335357Y-57314923D01*
X144335643Y-56986518D01*
X144210233Y-56683002D01*
X143978219Y-56450583D01*
X143674923Y-56324643D01*
X143346518Y-56324357D01*
X143043002Y-56449767D01*
X142810583Y-56681781D01*
X142684643Y-56985077D01*
X142684357Y-57313482D01*
X133223079Y-57313482D01*
X133223198Y-57177641D01*
X133049554Y-56757388D01*
X132728303Y-56435577D01*
X132308354Y-56261199D01*
X131853641Y-56260802D01*
X131433388Y-56434446D01*
X131111577Y-56755697D01*
X130937199Y-57175646D01*
X130936802Y-57630359D01*
X127250937Y-57630359D01*
X127164923Y-57594643D01*
X126836518Y-57594357D01*
X126533002Y-57719767D01*
X126300583Y-57951781D01*
X126174643Y-58255077D01*
X126174357Y-58583482D01*
X124587000Y-58583482D01*
X124587000Y-56043482D01*
X141414357Y-56043482D01*
X141539767Y-56346998D01*
X141771781Y-56579417D01*
X142075077Y-56705357D01*
X142403482Y-56705643D01*
X142706998Y-56580233D01*
X142939417Y-56348219D01*
X143065357Y-56044923D01*
X143065643Y-55716518D01*
X143027202Y-55623482D01*
X155404357Y-55623482D01*
X155529767Y-55926998D01*
X155761781Y-56159417D01*
X156065077Y-56285357D01*
X156393482Y-56285643D01*
X156696998Y-56160233D01*
X156750966Y-56106359D01*
X179196802Y-56106359D01*
X179370446Y-56526612D01*
X179691697Y-56848423D01*
X180111646Y-57022801D01*
X180566359Y-57023198D01*
X180986612Y-56849554D01*
X181308423Y-56528303D01*
X181482801Y-56108354D01*
X181483198Y-55653641D01*
X181309554Y-55233388D01*
X180988303Y-54911577D01*
X180568354Y-54737199D01*
X180113641Y-54736802D01*
X179693388Y-54910446D01*
X179371577Y-55231697D01*
X179197199Y-55651646D01*
X179196802Y-56106359D01*
X156750966Y-56106359D01*
X156929417Y-55928219D01*
X157055357Y-55624923D01*
X157055643Y-55296518D01*
X156930233Y-54993002D01*
X156698219Y-54760583D01*
X156394923Y-54634643D01*
X156066518Y-54634357D01*
X155763002Y-54759767D01*
X155530583Y-54991781D01*
X155404643Y-55295077D01*
X155404357Y-55623482D01*
X143027202Y-55623482D01*
X142940233Y-55413002D01*
X142708219Y-55180583D01*
X142404923Y-55054643D01*
X142076518Y-55054357D01*
X141773002Y-55179767D01*
X141540583Y-55411781D01*
X141414643Y-55715077D01*
X141414357Y-56043482D01*
X124587000Y-56043482D01*
X124587000Y-54138482D01*
X126174357Y-54138482D01*
X126299767Y-54441998D01*
X126531781Y-54674417D01*
X126835077Y-54800357D01*
X127163482Y-54800643D01*
X127466998Y-54675233D01*
X127699417Y-54443219D01*
X127825357Y-54139923D01*
X127825643Y-53811518D01*
X127724346Y-53566359D01*
X130936802Y-53566359D01*
X131110446Y-53986612D01*
X131431697Y-54308423D01*
X131851646Y-54482801D01*
X132306359Y-54483198D01*
X132726612Y-54309554D01*
X133048423Y-53988303D01*
X133222801Y-53568354D01*
X133222866Y-53493482D01*
X137614357Y-53493482D01*
X137739767Y-53796998D01*
X137971781Y-54029417D01*
X138275077Y-54155357D01*
X138603482Y-54155643D01*
X138906998Y-54030233D01*
X139139417Y-53798219D01*
X139261802Y-53503482D01*
X146494357Y-53503482D01*
X146619767Y-53806998D01*
X146851781Y-54039417D01*
X147155077Y-54165357D01*
X147483482Y-54165643D01*
X147786998Y-54040233D01*
X148019417Y-53808219D01*
X148119846Y-53566359D01*
X179196802Y-53566359D01*
X179370446Y-53986612D01*
X179691697Y-54308423D01*
X180111646Y-54482801D01*
X180566359Y-54483198D01*
X180986612Y-54309554D01*
X181308423Y-53988303D01*
X181482801Y-53568354D01*
X181483198Y-53113641D01*
X181309554Y-52693388D01*
X180988303Y-52371577D01*
X180568354Y-52197199D01*
X180113641Y-52196802D01*
X179693388Y-52370446D01*
X179371577Y-52691697D01*
X179197199Y-53111646D01*
X179196802Y-53566359D01*
X148119846Y-53566359D01*
X148145357Y-53504923D01*
X148145643Y-53176518D01*
X148020233Y-52873002D01*
X147788219Y-52640583D01*
X147484923Y-52514643D01*
X147156518Y-52514357D01*
X146853002Y-52639767D01*
X146620583Y-52871781D01*
X146494643Y-53175077D01*
X146494357Y-53503482D01*
X139261802Y-53503482D01*
X139265357Y-53494923D01*
X139265643Y-53166518D01*
X139140233Y-52863002D01*
X138908219Y-52630583D01*
X138604923Y-52504643D01*
X138276518Y-52504357D01*
X137973002Y-52629767D01*
X137740583Y-52861781D01*
X137614643Y-53165077D01*
X137614357Y-53493482D01*
X133222866Y-53493482D01*
X133223198Y-53113641D01*
X133049554Y-52693388D01*
X132728303Y-52371577D01*
X132308354Y-52197199D01*
X131853641Y-52196802D01*
X131433388Y-52370446D01*
X131111577Y-52691697D01*
X130937199Y-53111646D01*
X130936802Y-53566359D01*
X127724346Y-53566359D01*
X127700233Y-53508002D01*
X127468219Y-53275583D01*
X127164923Y-53149643D01*
X126836518Y-53149357D01*
X126533002Y-53274767D01*
X126300583Y-53506781D01*
X126174643Y-53810077D01*
X126174357Y-54138482D01*
X124587000Y-54138482D01*
X124587000Y-52323482D01*
X125014357Y-52323482D01*
X125139767Y-52626998D01*
X125371781Y-52859417D01*
X125675077Y-52985357D01*
X126003482Y-52985643D01*
X126306998Y-52860233D01*
X126539417Y-52628219D01*
X126665357Y-52324923D01*
X126665643Y-51996518D01*
X126540233Y-51693002D01*
X126308219Y-51460583D01*
X126004923Y-51334643D01*
X125676518Y-51334357D01*
X125373002Y-51459767D01*
X125140583Y-51691781D01*
X125014643Y-51995077D01*
X125014357Y-52323482D01*
X124587000Y-52323482D01*
X124587000Y-51026359D01*
X130936802Y-51026359D01*
X131110446Y-51446612D01*
X131431697Y-51768423D01*
X131851646Y-51942801D01*
X132306359Y-51943198D01*
X132726612Y-51769554D01*
X132897982Y-51598482D01*
X155384357Y-51598482D01*
X155509767Y-51901998D01*
X155741781Y-52134417D01*
X156045077Y-52260357D01*
X156373482Y-52260643D01*
X156676998Y-52135233D01*
X156909417Y-51903219D01*
X157035357Y-51599923D01*
X157035643Y-51271518D01*
X156910233Y-50968002D01*
X156678219Y-50735583D01*
X156374923Y-50609643D01*
X156046518Y-50609357D01*
X155743002Y-50734767D01*
X155510583Y-50966781D01*
X155384643Y-51270077D01*
X155384357Y-51598482D01*
X132897982Y-51598482D01*
X133048423Y-51448303D01*
X133222801Y-51028354D01*
X133223198Y-50573641D01*
X133119836Y-50323482D01*
X141574357Y-50323482D01*
X141699767Y-50626998D01*
X141931781Y-50859417D01*
X142235077Y-50985357D01*
X142563482Y-50985643D01*
X142866998Y-50860233D01*
X143099417Y-50628219D01*
X143223879Y-50328482D01*
X147129357Y-50328482D01*
X147254767Y-50631998D01*
X147486781Y-50864417D01*
X147790077Y-50990357D01*
X148118482Y-50990643D01*
X148421998Y-50865233D01*
X148654417Y-50633219D01*
X148780357Y-50329923D01*
X148780643Y-50001518D01*
X148655233Y-49698002D01*
X148423219Y-49465583D01*
X148119923Y-49339643D01*
X147791518Y-49339357D01*
X147488002Y-49464767D01*
X147255583Y-49696781D01*
X147129643Y-50000077D01*
X147129357Y-50328482D01*
X143223879Y-50328482D01*
X143225357Y-50324923D01*
X143225643Y-49996518D01*
X143100233Y-49693002D01*
X142868219Y-49460583D01*
X142564923Y-49334643D01*
X142236518Y-49334357D01*
X141933002Y-49459767D01*
X141700583Y-49691781D01*
X141574643Y-49995077D01*
X141574357Y-50323482D01*
X133119836Y-50323482D01*
X133049554Y-50153388D01*
X132728303Y-49831577D01*
X132308354Y-49657199D01*
X131853641Y-49656802D01*
X131433388Y-49830446D01*
X131111577Y-50151697D01*
X130937199Y-50571646D01*
X130936802Y-51026359D01*
X124587000Y-51026359D01*
X124587000Y-48486359D01*
X130936802Y-48486359D01*
X131110446Y-48906612D01*
X131431697Y-49228423D01*
X131851646Y-49402801D01*
X132306359Y-49403198D01*
X132717105Y-49233482D01*
X150164357Y-49233482D01*
X150289767Y-49536998D01*
X150521781Y-49769417D01*
X150825077Y-49895357D01*
X151153482Y-49895643D01*
X151456998Y-49770233D01*
X151689417Y-49538219D01*
X151815357Y-49234923D01*
X151815510Y-49058482D01*
X159829357Y-49058482D01*
X159954767Y-49361998D01*
X160186781Y-49594417D01*
X160490077Y-49720357D01*
X160818482Y-49720643D01*
X161121998Y-49595233D01*
X161354417Y-49363219D01*
X161480357Y-49059923D01*
X161480643Y-48731518D01*
X161379346Y-48486359D01*
X179196802Y-48486359D01*
X179370446Y-48906612D01*
X179691697Y-49228423D01*
X180111646Y-49402801D01*
X180566359Y-49403198D01*
X180986612Y-49229554D01*
X181308423Y-48908303D01*
X181482801Y-48488354D01*
X181483198Y-48033641D01*
X181309554Y-47613388D01*
X180988303Y-47291577D01*
X180568354Y-47117199D01*
X180113641Y-47116802D01*
X179693388Y-47290446D01*
X179371577Y-47611697D01*
X179197199Y-48031646D01*
X179196802Y-48486359D01*
X161379346Y-48486359D01*
X161355233Y-48428002D01*
X161123219Y-48195583D01*
X160819923Y-48069643D01*
X160491518Y-48069357D01*
X160188002Y-48194767D01*
X159955583Y-48426781D01*
X159829643Y-48730077D01*
X159829357Y-49058482D01*
X151815510Y-49058482D01*
X151815643Y-48906518D01*
X151690233Y-48603002D01*
X151458219Y-48370583D01*
X151154923Y-48244643D01*
X150826518Y-48244357D01*
X150523002Y-48369767D01*
X150290583Y-48601781D01*
X150164643Y-48905077D01*
X150164357Y-49233482D01*
X132717105Y-49233482D01*
X132726612Y-49229554D01*
X133048423Y-48908303D01*
X133222801Y-48488354D01*
X133223198Y-48033641D01*
X133049554Y-47613388D01*
X132969788Y-47533482D01*
X145254357Y-47533482D01*
X145379767Y-47836998D01*
X145611781Y-48069417D01*
X145915077Y-48195357D01*
X146243482Y-48195643D01*
X146546998Y-48070233D01*
X146779417Y-47838219D01*
X146800069Y-47788482D01*
X147129357Y-47788482D01*
X147254767Y-48091998D01*
X147486781Y-48324417D01*
X147790077Y-48450357D01*
X148118482Y-48450643D01*
X148421998Y-48325233D01*
X148654417Y-48093219D01*
X148780357Y-47789923D01*
X148780358Y-47788482D01*
X167449357Y-47788482D01*
X167574767Y-48091998D01*
X167806781Y-48324417D01*
X168110077Y-48450357D01*
X168438482Y-48450643D01*
X168741998Y-48325233D01*
X168974417Y-48093219D01*
X169100357Y-47789923D01*
X169100643Y-47461518D01*
X168975233Y-47158002D01*
X168743219Y-46925583D01*
X168439923Y-46799643D01*
X168111518Y-46799357D01*
X167808002Y-46924767D01*
X167575583Y-47156781D01*
X167449643Y-47460077D01*
X167449357Y-47788482D01*
X148780358Y-47788482D01*
X148780643Y-47461518D01*
X148655233Y-47158002D01*
X148423219Y-46925583D01*
X148119923Y-46799643D01*
X147791518Y-46799357D01*
X147488002Y-46924767D01*
X147255583Y-47156781D01*
X147129643Y-47460077D01*
X147129357Y-47788482D01*
X146800069Y-47788482D01*
X146905357Y-47534923D01*
X146905643Y-47206518D01*
X146780233Y-46903002D01*
X146548219Y-46670583D01*
X146244923Y-46544643D01*
X145916518Y-46544357D01*
X145613002Y-46669767D01*
X145380583Y-46901781D01*
X145254643Y-47205077D01*
X145254357Y-47533482D01*
X132969788Y-47533482D01*
X132728303Y-47291577D01*
X132308354Y-47117199D01*
X131853641Y-47116802D01*
X131433388Y-47290446D01*
X131111577Y-47611697D01*
X130937199Y-48031646D01*
X130936802Y-48486359D01*
X124587000Y-48486359D01*
X124587000Y-45946359D01*
X130936802Y-45946359D01*
X131110446Y-46366612D01*
X131431697Y-46688423D01*
X131851646Y-46862801D01*
X132306359Y-46863198D01*
X132726612Y-46689554D01*
X133048423Y-46368303D01*
X133112710Y-46213482D01*
X141534357Y-46213482D01*
X141659767Y-46516998D01*
X141891781Y-46749417D01*
X142195077Y-46875357D01*
X142523482Y-46875643D01*
X142826998Y-46750233D01*
X143059417Y-46518219D01*
X143185357Y-46214923D01*
X143185590Y-45946359D01*
X179196802Y-45946359D01*
X179370446Y-46366612D01*
X179691697Y-46688423D01*
X180111646Y-46862801D01*
X180566359Y-46863198D01*
X180986612Y-46689554D01*
X181308423Y-46368303D01*
X181482801Y-45948354D01*
X181483198Y-45493641D01*
X181309554Y-45073388D01*
X180988303Y-44751577D01*
X180568354Y-44577199D01*
X180113641Y-44576802D01*
X179693388Y-44750446D01*
X179371577Y-45071697D01*
X179197199Y-45491646D01*
X179196802Y-45946359D01*
X143185590Y-45946359D01*
X143185643Y-45886518D01*
X143060233Y-45583002D01*
X142828219Y-45350583D01*
X142524923Y-45224643D01*
X142196518Y-45224357D01*
X141893002Y-45349767D01*
X141660583Y-45581781D01*
X141534643Y-45885077D01*
X141534357Y-46213482D01*
X133112710Y-46213482D01*
X133222801Y-45948354D01*
X133223198Y-45493641D01*
X133049554Y-45073388D01*
X132728303Y-44751577D01*
X132308354Y-44577199D01*
X131853641Y-44576802D01*
X131433388Y-44750446D01*
X131111577Y-45071697D01*
X130937199Y-45491646D01*
X130936802Y-45946359D01*
X124587000Y-45946359D01*
X124587000Y-43406359D01*
X130936802Y-43406359D01*
X131110446Y-43826612D01*
X131431697Y-44148423D01*
X131851646Y-44322801D01*
X132306359Y-44323198D01*
X132726612Y-44149554D01*
X133048423Y-43828303D01*
X133222801Y-43408354D01*
X133222802Y-43406359D01*
X179196802Y-43406359D01*
X179370446Y-43826612D01*
X179691697Y-44148423D01*
X180111646Y-44322801D01*
X180566359Y-44323198D01*
X180986612Y-44149554D01*
X181308423Y-43828303D01*
X181482801Y-43408354D01*
X181483198Y-42953641D01*
X181309554Y-42533388D01*
X180988303Y-42211577D01*
X180568354Y-42037199D01*
X180113641Y-42036802D01*
X179693388Y-42210446D01*
X179371577Y-42531697D01*
X179197199Y-42951646D01*
X179196802Y-43406359D01*
X133222802Y-43406359D01*
X133223198Y-42953641D01*
X133049554Y-42533388D01*
X132728303Y-42211577D01*
X132308354Y-42037199D01*
X131853641Y-42036802D01*
X131433388Y-42210446D01*
X131111577Y-42531697D01*
X130937199Y-42951646D01*
X130936802Y-43406359D01*
X124587000Y-43406359D01*
X124587000Y-40866359D01*
X130936802Y-40866359D01*
X131110446Y-41286612D01*
X131431697Y-41608423D01*
X131851646Y-41782801D01*
X132306359Y-41783198D01*
X132726612Y-41609554D01*
X133048423Y-41288303D01*
X133222801Y-40868354D01*
X133222802Y-40866359D01*
X179196802Y-40866359D01*
X179370446Y-41286612D01*
X179691697Y-41608423D01*
X180111646Y-41782801D01*
X180566359Y-41783198D01*
X180986612Y-41609554D01*
X181308423Y-41288303D01*
X181482801Y-40868354D01*
X181483198Y-40413641D01*
X181309554Y-39993388D01*
X180988303Y-39671577D01*
X180568354Y-39497199D01*
X180113641Y-39496802D01*
X179693388Y-39670446D01*
X179371577Y-39991697D01*
X179197199Y-40411646D01*
X179196802Y-40866359D01*
X133222802Y-40866359D01*
X133223198Y-40413641D01*
X133049554Y-39993388D01*
X132728303Y-39671577D01*
X132308354Y-39497199D01*
X131853641Y-39496802D01*
X131433388Y-39670446D01*
X131111577Y-39991697D01*
X130937199Y-40411646D01*
X130936802Y-40866359D01*
X124587000Y-40866359D01*
X124587000Y-38303482D01*
X127864357Y-38303482D01*
X127989767Y-38606998D01*
X128221781Y-38839417D01*
X128525077Y-38965357D01*
X128853482Y-38965643D01*
X129156998Y-38840233D01*
X129389417Y-38608219D01*
X129506455Y-38326359D01*
X130936802Y-38326359D01*
X131110446Y-38746612D01*
X131431697Y-39068423D01*
X131851646Y-39242801D01*
X132306359Y-39243198D01*
X132726612Y-39069554D01*
X133048423Y-38748303D01*
X133222801Y-38328354D01*
X133222802Y-38326359D01*
X179196802Y-38326359D01*
X179370446Y-38746612D01*
X179691697Y-39068423D01*
X180111646Y-39242801D01*
X180566359Y-39243198D01*
X180986612Y-39069554D01*
X181308423Y-38748303D01*
X181482801Y-38328354D01*
X181483198Y-37873641D01*
X181309554Y-37453388D01*
X180988303Y-37131577D01*
X180568354Y-36957199D01*
X180113641Y-36956802D01*
X179693388Y-37130446D01*
X179371577Y-37451697D01*
X179197199Y-37871646D01*
X179196802Y-38326359D01*
X133222802Y-38326359D01*
X133223198Y-37873641D01*
X133049554Y-37453388D01*
X132728303Y-37131577D01*
X132308354Y-36957199D01*
X131853641Y-36956802D01*
X131433388Y-37130446D01*
X131111577Y-37451697D01*
X130937199Y-37871646D01*
X130936802Y-38326359D01*
X129506455Y-38326359D01*
X129515357Y-38304923D01*
X129515643Y-37976518D01*
X129390233Y-37673002D01*
X129158219Y-37440583D01*
X128854923Y-37314643D01*
X128526518Y-37314357D01*
X128223002Y-37439767D01*
X127990583Y-37671781D01*
X127864643Y-37975077D01*
X127864357Y-38303482D01*
X124587000Y-38303482D01*
X124587000Y-35786359D01*
X130936802Y-35786359D01*
X131110446Y-36206612D01*
X131431697Y-36528423D01*
X131851646Y-36702801D01*
X132306359Y-36703198D01*
X132726612Y-36529554D01*
X133048423Y-36208303D01*
X133222801Y-35788354D01*
X133222913Y-35659359D01*
X151256802Y-35659359D01*
X151430446Y-36079612D01*
X151751697Y-36401423D01*
X152171646Y-36575801D01*
X152626359Y-36576198D01*
X153046612Y-36402554D01*
X153368423Y-36081303D01*
X153542801Y-35661354D01*
X153542802Y-35659359D01*
X153796802Y-35659359D01*
X153970446Y-36079612D01*
X154291697Y-36401423D01*
X154711646Y-36575801D01*
X155166359Y-36576198D01*
X155586612Y-36402554D01*
X155908423Y-36081303D01*
X156082801Y-35661354D01*
X156082802Y-35659359D01*
X156336802Y-35659359D01*
X156510446Y-36079612D01*
X156831697Y-36401423D01*
X157251646Y-36575801D01*
X157706359Y-36576198D01*
X158126612Y-36402554D01*
X158448423Y-36081303D01*
X158570894Y-35786359D01*
X179196802Y-35786359D01*
X179370446Y-36206612D01*
X179691697Y-36528423D01*
X180111646Y-36702801D01*
X180566359Y-36703198D01*
X180986612Y-36529554D01*
X181308423Y-36208303D01*
X181482801Y-35788354D01*
X181483198Y-35333641D01*
X181309554Y-34913388D01*
X180988303Y-34591577D01*
X180568354Y-34417199D01*
X180113641Y-34416802D01*
X179693388Y-34590446D01*
X179371577Y-34911697D01*
X179197199Y-35331646D01*
X179196802Y-35786359D01*
X158570894Y-35786359D01*
X158622801Y-35661354D01*
X158623198Y-35206641D01*
X158449554Y-34786388D01*
X158128303Y-34464577D01*
X157708354Y-34290199D01*
X157253641Y-34289802D01*
X156833388Y-34463446D01*
X156511577Y-34784697D01*
X156337199Y-35204646D01*
X156336802Y-35659359D01*
X156082802Y-35659359D01*
X156083198Y-35206641D01*
X155909554Y-34786388D01*
X155588303Y-34464577D01*
X155168354Y-34290199D01*
X154713641Y-34289802D01*
X154293388Y-34463446D01*
X153971577Y-34784697D01*
X153797199Y-35204646D01*
X153796802Y-35659359D01*
X153542802Y-35659359D01*
X153543198Y-35206641D01*
X153369554Y-34786388D01*
X153048303Y-34464577D01*
X152628354Y-34290199D01*
X152173641Y-34289802D01*
X151753388Y-34463446D01*
X151431577Y-34784697D01*
X151257199Y-35204646D01*
X151256802Y-35659359D01*
X133222913Y-35659359D01*
X133223198Y-35333641D01*
X133049554Y-34913388D01*
X132728303Y-34591577D01*
X132308354Y-34417199D01*
X131853641Y-34416802D01*
X131433388Y-34590446D01*
X131111577Y-34911697D01*
X130937199Y-35331646D01*
X130936802Y-35786359D01*
X124587000Y-35786359D01*
X124587000Y-33409841D01*
X145351159Y-33409841D01*
X145650214Y-34133609D01*
X146203479Y-34687840D01*
X146926723Y-34988157D01*
X147709841Y-34988841D01*
X148433609Y-34689786D01*
X148987840Y-34136521D01*
X149288157Y-33413277D01*
X149288413Y-33119359D01*
X151256802Y-33119359D01*
X151430446Y-33539612D01*
X151751697Y-33861423D01*
X152171646Y-34035801D01*
X152626359Y-34036198D01*
X153046612Y-33862554D01*
X153368423Y-33541303D01*
X153542801Y-33121354D01*
X153542802Y-33119359D01*
X153796802Y-33119359D01*
X153970446Y-33539612D01*
X154291697Y-33861423D01*
X154711646Y-34035801D01*
X155166359Y-34036198D01*
X155586612Y-33862554D01*
X155908423Y-33541303D01*
X156082801Y-33121354D01*
X156082802Y-33119359D01*
X156336802Y-33119359D01*
X156510446Y-33539612D01*
X156831697Y-33861423D01*
X157251646Y-34035801D01*
X157706359Y-34036198D01*
X158126612Y-33862554D01*
X158448423Y-33541303D01*
X158503010Y-33409841D01*
X173291159Y-33409841D01*
X173590214Y-34133609D01*
X174143479Y-34687840D01*
X174866723Y-34988157D01*
X175649841Y-34988841D01*
X176373609Y-34689786D01*
X176927840Y-34136521D01*
X177228157Y-33413277D01*
X177228841Y-32630159D01*
X176929786Y-31906391D01*
X176376521Y-31352160D01*
X175653277Y-31051843D01*
X174870159Y-31051159D01*
X174146391Y-31350214D01*
X173592160Y-31903479D01*
X173291843Y-32626723D01*
X173291159Y-33409841D01*
X158503010Y-33409841D01*
X158622801Y-33121354D01*
X158623198Y-32666641D01*
X158449554Y-32246388D01*
X158128303Y-31924577D01*
X157708354Y-31750199D01*
X157253641Y-31749802D01*
X156833388Y-31923446D01*
X156511577Y-32244697D01*
X156337199Y-32664646D01*
X156336802Y-33119359D01*
X156082802Y-33119359D01*
X156083198Y-32666641D01*
X155909554Y-32246388D01*
X155588303Y-31924577D01*
X155168354Y-31750199D01*
X154713641Y-31749802D01*
X154293388Y-31923446D01*
X153971577Y-32244697D01*
X153797199Y-32664646D01*
X153796802Y-33119359D01*
X153542802Y-33119359D01*
X153543198Y-32666641D01*
X153369554Y-32246388D01*
X153048303Y-31924577D01*
X152628354Y-31750199D01*
X152173641Y-31749802D01*
X151753388Y-31923446D01*
X151431577Y-32244697D01*
X151257199Y-32664646D01*
X151256802Y-33119359D01*
X149288413Y-33119359D01*
X149288841Y-32630159D01*
X148989786Y-31906391D01*
X148436521Y-31352160D01*
X147713277Y-31051843D01*
X146930159Y-31051159D01*
X146206391Y-31350214D01*
X145652160Y-31903479D01*
X145351843Y-32626723D01*
X145351159Y-33409841D01*
X124587000Y-33409841D01*
X124587000Y-30607000D01*
X182753000Y-30607000D01*
X182753000Y-87503000D01*
X182753000Y-87503000D01*
G37*
X182753000Y-87503000D02*
X124587000Y-87503000D01*
X124587000Y-84209841D01*
X130111159Y-84209841D01*
X130410214Y-84933609D01*
X130963479Y-85487840D01*
X131686723Y-85788157D01*
X132469841Y-85788841D01*
X133193609Y-85489786D01*
X133203571Y-85479841D01*
X178371159Y-85479841D01*
X178670214Y-86203609D01*
X179223479Y-86757840D01*
X179946723Y-87058157D01*
X180729841Y-87058841D01*
X181453609Y-86759786D01*
X182007840Y-86206521D01*
X182308157Y-85483277D01*
X182308841Y-84700159D01*
X182009786Y-83976391D01*
X181456521Y-83422160D01*
X180733277Y-83121843D01*
X179950159Y-83121159D01*
X179226391Y-83420214D01*
X178672160Y-83973479D01*
X178371843Y-84696723D01*
X178371159Y-85479841D01*
X133203571Y-85479841D01*
X133747840Y-84936521D01*
X134048157Y-84213277D01*
X134048841Y-83430159D01*
X133749786Y-82706391D01*
X133196521Y-82152160D01*
X132473277Y-81851843D01*
X131690159Y-81851159D01*
X130966391Y-82150214D01*
X130412160Y-82703479D01*
X130111843Y-83426723D01*
X130111159Y-84209841D01*
X124587000Y-84209841D01*
X124587000Y-80490359D01*
X130936802Y-80490359D01*
X131110446Y-80910612D01*
X131431697Y-81232423D01*
X131851646Y-81406801D01*
X132306359Y-81407198D01*
X132726612Y-81233554D01*
X133048423Y-80912303D01*
X133222801Y-80492354D01*
X133223198Y-80037641D01*
X133049554Y-79617388D01*
X132728303Y-79295577D01*
X132308354Y-79121199D01*
X131853641Y-79120802D01*
X131433388Y-79294446D01*
X131111577Y-79615697D01*
X130937199Y-80035646D01*
X130936802Y-80490359D01*
X124587000Y-80490359D01*
X124587000Y-78623482D01*
X127534357Y-78623482D01*
X127659767Y-78926998D01*
X127891781Y-79159417D01*
X128195077Y-79285357D01*
X128523482Y-79285643D01*
X128826998Y-79160233D01*
X129054144Y-78933482D01*
X173504357Y-78933482D01*
X173629767Y-79236998D01*
X173861781Y-79469417D01*
X174165077Y-79595357D01*
X174493482Y-79595643D01*
X174796998Y-79470233D01*
X175029417Y-79238219D01*
X175155357Y-78934923D01*
X175155643Y-78606518D01*
X175030233Y-78303002D01*
X174798219Y-78070583D01*
X174494923Y-77944643D01*
X174166518Y-77944357D01*
X173863002Y-78069767D01*
X173630583Y-78301781D01*
X173504643Y-78605077D01*
X173504357Y-78933482D01*
X129054144Y-78933482D01*
X129059417Y-78928219D01*
X129185357Y-78624923D01*
X129185643Y-78296518D01*
X129060233Y-77993002D01*
X129017665Y-77950359D01*
X130936802Y-77950359D01*
X131110446Y-78370612D01*
X131431697Y-78692423D01*
X131851646Y-78866801D01*
X132306359Y-78867198D01*
X132726612Y-78693554D01*
X133048423Y-78372303D01*
X133205723Y-77993482D01*
X134504357Y-77993482D01*
X134629767Y-78296998D01*
X134861781Y-78529417D01*
X135165077Y-78655357D01*
X135493482Y-78655643D01*
X135796998Y-78530233D01*
X136029417Y-78298219D01*
X136155357Y-77994923D01*
X136155643Y-77666518D01*
X136030233Y-77363002D01*
X135798219Y-77130583D01*
X135494923Y-77004643D01*
X135166518Y-77004357D01*
X134863002Y-77129767D01*
X134630583Y-77361781D01*
X134504643Y-77665077D01*
X134504357Y-77993482D01*
X133205723Y-77993482D01*
X133222801Y-77952354D01*
X133223198Y-77497641D01*
X133049554Y-77077388D01*
X132728303Y-76755577D01*
X132308354Y-76581199D01*
X131853641Y-76580802D01*
X131433388Y-76754446D01*
X131111577Y-77075697D01*
X130937199Y-77495646D01*
X130936802Y-77950359D01*
X129017665Y-77950359D01*
X128828219Y-77760583D01*
X128524923Y-77634643D01*
X128196518Y-77634357D01*
X127893002Y-77759767D01*
X127660583Y-77991781D01*
X127534643Y-78295077D01*
X127534357Y-78623482D01*
X124587000Y-78623482D01*
X124587000Y-75410359D01*
X130936802Y-75410359D01*
X131110446Y-75830612D01*
X131431697Y-76152423D01*
X131851646Y-76326801D01*
X132306359Y-76327198D01*
X132726612Y-76153554D01*
X133048423Y-75832303D01*
X133222801Y-75412354D01*
X133223198Y-74957641D01*
X133049554Y-74537388D01*
X132728303Y-74215577D01*
X132308354Y-74041199D01*
X131853641Y-74040802D01*
X131433388Y-74214446D01*
X131111577Y-74535697D01*
X130937199Y-74955646D01*
X130936802Y-75410359D01*
X124587000Y-75410359D01*
X124587000Y-72870359D01*
X130936802Y-72870359D01*
X131110446Y-73290612D01*
X131431697Y-73612423D01*
X131851646Y-73786801D01*
X132306359Y-73787198D01*
X132726612Y-73613554D01*
X133048423Y-73292303D01*
X133091533Y-73188482D01*
X155384357Y-73188482D01*
X155509767Y-73491998D01*
X155741781Y-73724417D01*
X156045077Y-73850357D01*
X156373482Y-73850643D01*
X156676998Y-73725233D01*
X156909417Y-73493219D01*
X157035357Y-73189923D01*
X157035358Y-73188482D01*
X175704357Y-73188482D01*
X175829767Y-73491998D01*
X176061781Y-73724417D01*
X176365077Y-73850357D01*
X176693482Y-73850643D01*
X176996998Y-73725233D01*
X177229417Y-73493219D01*
X177355357Y-73189923D01*
X177355643Y-72861518D01*
X177230233Y-72558002D01*
X176998219Y-72325583D01*
X176694923Y-72199643D01*
X176366518Y-72199357D01*
X176063002Y-72324767D01*
X175830583Y-72556781D01*
X175704643Y-72860077D01*
X175704357Y-73188482D01*
X157035358Y-73188482D01*
X157035643Y-72861518D01*
X156910233Y-72558002D01*
X156678219Y-72325583D01*
X156374923Y-72199643D01*
X156046518Y-72199357D01*
X155743002Y-72324767D01*
X155510583Y-72556781D01*
X155384643Y-72860077D01*
X155384357Y-73188482D01*
X133091533Y-73188482D01*
X133222801Y-72872354D01*
X133223198Y-72417641D01*
X133049554Y-71997388D01*
X132728303Y-71675577D01*
X132308354Y-71501199D01*
X131853641Y-71500802D01*
X131433388Y-71674446D01*
X131111577Y-71995697D01*
X130937199Y-72415646D01*
X130936802Y-72870359D01*
X124587000Y-72870359D01*
X124587000Y-71346359D01*
X179196802Y-71346359D01*
X179370446Y-71766612D01*
X179691697Y-72088423D01*
X180111646Y-72262801D01*
X180566359Y-72263198D01*
X180986612Y-72089554D01*
X181308423Y-71768303D01*
X181482801Y-71348354D01*
X181483198Y-70893641D01*
X181309554Y-70473388D01*
X180988303Y-70151577D01*
X180568354Y-69977199D01*
X180113641Y-69976802D01*
X179693388Y-70150446D01*
X179371577Y-70471697D01*
X179197199Y-70891646D01*
X179196802Y-71346359D01*
X124587000Y-71346359D01*
X124587000Y-70330359D01*
X130936802Y-70330359D01*
X131110446Y-70750612D01*
X131431697Y-71072423D01*
X131851646Y-71246801D01*
X132306359Y-71247198D01*
X132726612Y-71073554D01*
X133048423Y-70752303D01*
X133222801Y-70332354D01*
X133223198Y-69877641D01*
X133049554Y-69457388D01*
X132945829Y-69353482D01*
X168914357Y-69353482D01*
X169039767Y-69656998D01*
X169271781Y-69889417D01*
X169575077Y-70015357D01*
X169903482Y-70015643D01*
X170206998Y-69890233D01*
X170439417Y-69658219D01*
X170565357Y-69354923D01*
X170565643Y-69026518D01*
X170474676Y-68806359D01*
X179196802Y-68806359D01*
X179370446Y-69226612D01*
X179691697Y-69548423D01*
X180111646Y-69722801D01*
X180566359Y-69723198D01*
X180986612Y-69549554D01*
X181308423Y-69228303D01*
X181482801Y-68808354D01*
X181483198Y-68353641D01*
X181309554Y-67933388D01*
X180988303Y-67611577D01*
X180568354Y-67437199D01*
X180113641Y-67436802D01*
X179693388Y-67610446D01*
X179371577Y-67931697D01*
X179197199Y-68351646D01*
X179196802Y-68806359D01*
X170474676Y-68806359D01*
X170440233Y-68723002D01*
X170208219Y-68490583D01*
X169904923Y-68364643D01*
X169576518Y-68364357D01*
X169273002Y-68489767D01*
X169040583Y-68721781D01*
X168914643Y-69025077D01*
X168914357Y-69353482D01*
X132945829Y-69353482D01*
X132728303Y-69135577D01*
X132308354Y-68961199D01*
X131853641Y-68960802D01*
X131433388Y-69134446D01*
X131111577Y-69455697D01*
X130937199Y-69875646D01*
X130936802Y-70330359D01*
X124587000Y-70330359D01*
X124587000Y-67790359D01*
X130936802Y-67790359D01*
X131110446Y-68210612D01*
X131431697Y-68532423D01*
X131851646Y-68706801D01*
X132306359Y-68707198D01*
X132726612Y-68533554D01*
X133048423Y-68212303D01*
X133081152Y-68133482D01*
X155004357Y-68133482D01*
X155129767Y-68436998D01*
X155361781Y-68669417D01*
X155665077Y-68795357D01*
X155993482Y-68795643D01*
X156296998Y-68670233D01*
X156529417Y-68438219D01*
X156655357Y-68134923D01*
X156655643Y-67806518D01*
X156530233Y-67503002D01*
X156311096Y-67283482D01*
X159874357Y-67283482D01*
X159999767Y-67586998D01*
X160231781Y-67819417D01*
X160535077Y-67945357D01*
X160863482Y-67945643D01*
X161166998Y-67820233D01*
X161399417Y-67588219D01*
X161525357Y-67284923D01*
X161525643Y-66956518D01*
X161400233Y-66653002D01*
X161168219Y-66420583D01*
X160864923Y-66294643D01*
X160536518Y-66294357D01*
X160233002Y-66419767D01*
X160000583Y-66651781D01*
X159874643Y-66955077D01*
X159874357Y-67283482D01*
X156311096Y-67283482D01*
X156298219Y-67270583D01*
X155994923Y-67144643D01*
X155666518Y-67144357D01*
X155363002Y-67269767D01*
X155130583Y-67501781D01*
X155004643Y-67805077D01*
X155004357Y-68133482D01*
X133081152Y-68133482D01*
X133222801Y-67792354D01*
X133223198Y-67337641D01*
X133049554Y-66917388D01*
X132728303Y-66595577D01*
X132308354Y-66421199D01*
X131853641Y-66420802D01*
X131433388Y-66594446D01*
X131111577Y-66915697D01*
X130937199Y-67335646D01*
X130936802Y-67790359D01*
X124587000Y-67790359D01*
X124587000Y-66453482D01*
X127534357Y-66453482D01*
X127659767Y-66756998D01*
X127891781Y-66989417D01*
X128195077Y-67115357D01*
X128523482Y-67115643D01*
X128826998Y-66990233D01*
X129059417Y-66758219D01*
X129185357Y-66454923D01*
X129185521Y-66266359D01*
X179196802Y-66266359D01*
X179370446Y-66686612D01*
X179691697Y-67008423D01*
X180111646Y-67182801D01*
X180566359Y-67183198D01*
X180986612Y-67009554D01*
X181308423Y-66688303D01*
X181482801Y-66268354D01*
X181483198Y-65813641D01*
X181309554Y-65393388D01*
X180988303Y-65071577D01*
X180568354Y-64897199D01*
X180113641Y-64896802D01*
X179693388Y-65070446D01*
X179371577Y-65391697D01*
X179197199Y-65811646D01*
X179196802Y-66266359D01*
X129185521Y-66266359D01*
X129185643Y-66126518D01*
X129060233Y-65823002D01*
X128828219Y-65590583D01*
X128524923Y-65464643D01*
X128196518Y-65464357D01*
X127893002Y-65589767D01*
X127660583Y-65821781D01*
X127534643Y-66125077D01*
X127534357Y-66453482D01*
X124587000Y-66453482D01*
X124587000Y-65250359D01*
X130936802Y-65250359D01*
X131110446Y-65670612D01*
X131431697Y-65992423D01*
X131851646Y-66166801D01*
X132306359Y-66167198D01*
X132726612Y-65993554D01*
X133048423Y-65672303D01*
X133091533Y-65568482D01*
X146484357Y-65568482D01*
X146609767Y-65871998D01*
X146841781Y-66104417D01*
X147145077Y-66230357D01*
X147473482Y-66230643D01*
X147776998Y-66105233D01*
X148009417Y-65873219D01*
X148135357Y-65569923D01*
X148135358Y-65568482D01*
X163639357Y-65568482D01*
X163764767Y-65871998D01*
X163996781Y-66104417D01*
X164300077Y-66230357D01*
X164628482Y-66230643D01*
X164931998Y-66105233D01*
X165164417Y-65873219D01*
X165290357Y-65569923D01*
X165290643Y-65241518D01*
X165165233Y-64938002D01*
X164933219Y-64705583D01*
X164629923Y-64579643D01*
X164301518Y-64579357D01*
X163998002Y-64704767D01*
X163765583Y-64936781D01*
X163639643Y-65240077D01*
X163639357Y-65568482D01*
X148135358Y-65568482D01*
X148135643Y-65241518D01*
X148010233Y-64938002D01*
X147778219Y-64705583D01*
X147474923Y-64579643D01*
X147146518Y-64579357D01*
X146843002Y-64704767D01*
X146610583Y-64936781D01*
X146484643Y-65240077D01*
X146484357Y-65568482D01*
X133091533Y-65568482D01*
X133222801Y-65252354D01*
X133223198Y-64797641D01*
X133049554Y-64377388D01*
X132970786Y-64298482D01*
X159829357Y-64298482D01*
X159954767Y-64601998D01*
X160186781Y-64834417D01*
X160490077Y-64960357D01*
X160818482Y-64960643D01*
X161121998Y-64835233D01*
X161354417Y-64603219D01*
X161480357Y-64299923D01*
X161480643Y-63971518D01*
X161379346Y-63726359D01*
X179196802Y-63726359D01*
X179370446Y-64146612D01*
X179691697Y-64468423D01*
X180111646Y-64642801D01*
X180566359Y-64643198D01*
X180986612Y-64469554D01*
X181308423Y-64148303D01*
X181482801Y-63728354D01*
X181483198Y-63273641D01*
X181309554Y-62853388D01*
X180988303Y-62531577D01*
X180568354Y-62357199D01*
X180113641Y-62356802D01*
X179693388Y-62530446D01*
X179371577Y-62851697D01*
X179197199Y-63271646D01*
X179196802Y-63726359D01*
X161379346Y-63726359D01*
X161355233Y-63668002D01*
X161123219Y-63435583D01*
X160819923Y-63309643D01*
X160491518Y-63309357D01*
X160188002Y-63434767D01*
X159955583Y-63666781D01*
X159829643Y-63970077D01*
X159829357Y-64298482D01*
X132970786Y-64298482D01*
X132728303Y-64055577D01*
X132308354Y-63881199D01*
X131853641Y-63880802D01*
X131433388Y-64054446D01*
X131111577Y-64375697D01*
X130937199Y-64795646D01*
X130936802Y-65250359D01*
X124587000Y-65250359D01*
X124587000Y-62710359D01*
X130936802Y-62710359D01*
X131110446Y-63130612D01*
X131431697Y-63452423D01*
X131851646Y-63626801D01*
X132306359Y-63627198D01*
X132726612Y-63453554D01*
X132796806Y-63383482D01*
X150764357Y-63383482D01*
X150889767Y-63686998D01*
X151121781Y-63919417D01*
X151425077Y-64045357D01*
X151753482Y-64045643D01*
X152056998Y-63920233D01*
X152289417Y-63688219D01*
X152415357Y-63384923D01*
X152415643Y-63056518D01*
X152404059Y-63028482D01*
X156019357Y-63028482D01*
X156144767Y-63331998D01*
X156376781Y-63564417D01*
X156680077Y-63690357D01*
X157008482Y-63690643D01*
X157311998Y-63565233D01*
X157544417Y-63333219D01*
X157670357Y-63029923D01*
X157670643Y-62701518D01*
X157545233Y-62398002D01*
X157313219Y-62165583D01*
X157009923Y-62039643D01*
X156681518Y-62039357D01*
X156378002Y-62164767D01*
X156145583Y-62396781D01*
X156019643Y-62700077D01*
X156019357Y-63028482D01*
X152404059Y-63028482D01*
X152290233Y-62753002D01*
X152058219Y-62520583D01*
X151754923Y-62394643D01*
X151426518Y-62394357D01*
X151123002Y-62519767D01*
X150890583Y-62751781D01*
X150764643Y-63055077D01*
X150764357Y-63383482D01*
X132796806Y-63383482D01*
X133048423Y-63132303D01*
X133222801Y-62712354D01*
X133223198Y-62257641D01*
X133049554Y-61837388D01*
X132895916Y-61683482D01*
X134934357Y-61683482D01*
X135059767Y-61986998D01*
X135291781Y-62219417D01*
X135595077Y-62345357D01*
X135923482Y-62345643D01*
X136226998Y-62220233D01*
X136459417Y-61988219D01*
X136585357Y-61684923D01*
X136585643Y-61356518D01*
X136515335Y-61186359D01*
X179196802Y-61186359D01*
X179370446Y-61606612D01*
X179691697Y-61928423D01*
X180111646Y-62102801D01*
X180566359Y-62103198D01*
X180986612Y-61929554D01*
X181308423Y-61608303D01*
X181482801Y-61188354D01*
X181483198Y-60733641D01*
X181309554Y-60313388D01*
X180988303Y-59991577D01*
X180568354Y-59817199D01*
X180113641Y-59816802D01*
X179693388Y-59990446D01*
X179371577Y-60311697D01*
X179197199Y-60731646D01*
X179196802Y-61186359D01*
X136515335Y-61186359D01*
X136460233Y-61053002D01*
X136228219Y-60820583D01*
X135924923Y-60694643D01*
X135596518Y-60694357D01*
X135293002Y-60819767D01*
X135060583Y-61051781D01*
X134934643Y-61355077D01*
X134934357Y-61683482D01*
X132895916Y-61683482D01*
X132728303Y-61515577D01*
X132308354Y-61341199D01*
X131853641Y-61340802D01*
X131433388Y-61514446D01*
X131111577Y-61835697D01*
X130937199Y-62255646D01*
X130936802Y-62710359D01*
X124587000Y-62710359D01*
X124587000Y-61653482D01*
X127684357Y-61653482D01*
X127809767Y-61956998D01*
X128041781Y-62189417D01*
X128345077Y-62315357D01*
X128673482Y-62315643D01*
X128976998Y-62190233D01*
X129209417Y-61958219D01*
X129335357Y-61654923D01*
X129335643Y-61326518D01*
X129210233Y-61023002D01*
X128978219Y-60790583D01*
X128674923Y-60664643D01*
X128346518Y-60664357D01*
X128043002Y-60789767D01*
X127810583Y-61021781D01*
X127684643Y-61325077D01*
X127684357Y-61653482D01*
X124587000Y-61653482D01*
X124587000Y-60170359D01*
X130936802Y-60170359D01*
X131110446Y-60590612D01*
X131431697Y-60912423D01*
X131851646Y-61086801D01*
X132306359Y-61087198D01*
X132726612Y-60913554D01*
X133048423Y-60592303D01*
X133222801Y-60172354D01*
X133223198Y-59717641D01*
X133049554Y-59297388D01*
X132728303Y-58975577D01*
X132308354Y-58801199D01*
X131853641Y-58800802D01*
X131433388Y-58974446D01*
X131111577Y-59295697D01*
X130937199Y-59715646D01*
X130936802Y-60170359D01*
X124587000Y-60170359D01*
X124587000Y-58583482D01*
X126174357Y-58583482D01*
X126299767Y-58886998D01*
X126531781Y-59119417D01*
X126835077Y-59245357D01*
X127163482Y-59245643D01*
X127466998Y-59120233D01*
X127699417Y-58888219D01*
X127825357Y-58584923D01*
X127825358Y-58583482D01*
X137604357Y-58583482D01*
X137729767Y-58886998D01*
X137961781Y-59119417D01*
X138265077Y-59245357D01*
X138593482Y-59245643D01*
X138896998Y-59120233D01*
X139129417Y-58888219D01*
X139229846Y-58646359D01*
X179196802Y-58646359D01*
X179370446Y-59066612D01*
X179691697Y-59388423D01*
X180111646Y-59562801D01*
X180566359Y-59563198D01*
X180986612Y-59389554D01*
X181308423Y-59068303D01*
X181482801Y-58648354D01*
X181483198Y-58193641D01*
X181309554Y-57773388D01*
X180988303Y-57451577D01*
X180568354Y-57277199D01*
X180113641Y-57276802D01*
X179693388Y-57450446D01*
X179371577Y-57771697D01*
X179197199Y-58191646D01*
X179196802Y-58646359D01*
X139229846Y-58646359D01*
X139255357Y-58584923D01*
X139255643Y-58256518D01*
X139130233Y-57953002D01*
X138898219Y-57720583D01*
X138594923Y-57594643D01*
X138266518Y-57594357D01*
X137963002Y-57719767D01*
X137730583Y-57951781D01*
X137604643Y-58255077D01*
X137604357Y-58583482D01*
X127825358Y-58583482D01*
X127825643Y-58256518D01*
X127700233Y-57953002D01*
X127468219Y-57720583D01*
X127250937Y-57630359D01*
X130936802Y-57630359D01*
X131110446Y-58050612D01*
X131431697Y-58372423D01*
X131851646Y-58546801D01*
X132306359Y-58547198D01*
X132726612Y-58373554D01*
X133048423Y-58052303D01*
X133222801Y-57632354D01*
X133223079Y-57313482D01*
X142684357Y-57313482D01*
X142809767Y-57616998D01*
X143041781Y-57849417D01*
X143345077Y-57975357D01*
X143673482Y-57975643D01*
X143739216Y-57948482D01*
X146494357Y-57948482D01*
X146619767Y-58251998D01*
X146851781Y-58484417D01*
X147155077Y-58610357D01*
X147483482Y-58610643D01*
X147786998Y-58485233D01*
X148019417Y-58253219D01*
X148145357Y-57949923D01*
X148145358Y-57948482D01*
X166814357Y-57948482D01*
X166939767Y-58251998D01*
X167171781Y-58484417D01*
X167475077Y-58610357D01*
X167803482Y-58610643D01*
X168106998Y-58485233D01*
X168339417Y-58253219D01*
X168465357Y-57949923D01*
X168465643Y-57621518D01*
X168340233Y-57318002D01*
X168185983Y-57163482D01*
X169174357Y-57163482D01*
X169299767Y-57466998D01*
X169531781Y-57699417D01*
X169835077Y-57825357D01*
X170163482Y-57825643D01*
X170466998Y-57700233D01*
X170699417Y-57468219D01*
X170825357Y-57164923D01*
X170825643Y-56836518D01*
X170700233Y-56533002D01*
X170468219Y-56300583D01*
X170164923Y-56174643D01*
X169836518Y-56174357D01*
X169533002Y-56299767D01*
X169300583Y-56531781D01*
X169174643Y-56835077D01*
X169174357Y-57163482D01*
X168185983Y-57163482D01*
X168108219Y-57085583D01*
X167804923Y-56959643D01*
X167476518Y-56959357D01*
X167173002Y-57084767D01*
X166940583Y-57316781D01*
X166814643Y-57620077D01*
X166814357Y-57948482D01*
X148145358Y-57948482D01*
X148145643Y-57621518D01*
X148020233Y-57318002D01*
X147788219Y-57085583D01*
X147484923Y-56959643D01*
X147156518Y-56959357D01*
X146853002Y-57084767D01*
X146620583Y-57316781D01*
X146494643Y-57620077D01*
X146494357Y-57948482D01*
X143739216Y-57948482D01*
X143976998Y-57850233D01*
X144209417Y-57618219D01*
X144335357Y-57314923D01*
X144335643Y-56986518D01*
X144210233Y-56683002D01*
X143978219Y-56450583D01*
X143674923Y-56324643D01*
X143346518Y-56324357D01*
X143043002Y-56449767D01*
X142810583Y-56681781D01*
X142684643Y-56985077D01*
X142684357Y-57313482D01*
X133223079Y-57313482D01*
X133223198Y-57177641D01*
X133049554Y-56757388D01*
X132728303Y-56435577D01*
X132308354Y-56261199D01*
X131853641Y-56260802D01*
X131433388Y-56434446D01*
X131111577Y-56755697D01*
X130937199Y-57175646D01*
X130936802Y-57630359D01*
X127250937Y-57630359D01*
X127164923Y-57594643D01*
X126836518Y-57594357D01*
X126533002Y-57719767D01*
X126300583Y-57951781D01*
X126174643Y-58255077D01*
X126174357Y-58583482D01*
X124587000Y-58583482D01*
X124587000Y-56043482D01*
X141414357Y-56043482D01*
X141539767Y-56346998D01*
X141771781Y-56579417D01*
X142075077Y-56705357D01*
X142403482Y-56705643D01*
X142706998Y-56580233D01*
X142939417Y-56348219D01*
X143065357Y-56044923D01*
X143065643Y-55716518D01*
X143027202Y-55623482D01*
X155404357Y-55623482D01*
X155529767Y-55926998D01*
X155761781Y-56159417D01*
X156065077Y-56285357D01*
X156393482Y-56285643D01*
X156696998Y-56160233D01*
X156750966Y-56106359D01*
X179196802Y-56106359D01*
X179370446Y-56526612D01*
X179691697Y-56848423D01*
X180111646Y-57022801D01*
X180566359Y-57023198D01*
X180986612Y-56849554D01*
X181308423Y-56528303D01*
X181482801Y-56108354D01*
X181483198Y-55653641D01*
X181309554Y-55233388D01*
X180988303Y-54911577D01*
X180568354Y-54737199D01*
X180113641Y-54736802D01*
X179693388Y-54910446D01*
X179371577Y-55231697D01*
X179197199Y-55651646D01*
X179196802Y-56106359D01*
X156750966Y-56106359D01*
X156929417Y-55928219D01*
X157055357Y-55624923D01*
X157055643Y-55296518D01*
X156930233Y-54993002D01*
X156698219Y-54760583D01*
X156394923Y-54634643D01*
X156066518Y-54634357D01*
X155763002Y-54759767D01*
X155530583Y-54991781D01*
X155404643Y-55295077D01*
X155404357Y-55623482D01*
X143027202Y-55623482D01*
X142940233Y-55413002D01*
X142708219Y-55180583D01*
X142404923Y-55054643D01*
X142076518Y-55054357D01*
X141773002Y-55179767D01*
X141540583Y-55411781D01*
X141414643Y-55715077D01*
X141414357Y-56043482D01*
X124587000Y-56043482D01*
X124587000Y-54138482D01*
X126174357Y-54138482D01*
X126299767Y-54441998D01*
X126531781Y-54674417D01*
X126835077Y-54800357D01*
X127163482Y-54800643D01*
X127466998Y-54675233D01*
X127699417Y-54443219D01*
X127825357Y-54139923D01*
X127825643Y-53811518D01*
X127724346Y-53566359D01*
X130936802Y-53566359D01*
X131110446Y-53986612D01*
X131431697Y-54308423D01*
X131851646Y-54482801D01*
X132306359Y-54483198D01*
X132726612Y-54309554D01*
X133048423Y-53988303D01*
X133222801Y-53568354D01*
X133222866Y-53493482D01*
X137614357Y-53493482D01*
X137739767Y-53796998D01*
X137971781Y-54029417D01*
X138275077Y-54155357D01*
X138603482Y-54155643D01*
X138906998Y-54030233D01*
X139139417Y-53798219D01*
X139261802Y-53503482D01*
X146494357Y-53503482D01*
X146619767Y-53806998D01*
X146851781Y-54039417D01*
X147155077Y-54165357D01*
X147483482Y-54165643D01*
X147786998Y-54040233D01*
X148019417Y-53808219D01*
X148119846Y-53566359D01*
X179196802Y-53566359D01*
X179370446Y-53986612D01*
X179691697Y-54308423D01*
X180111646Y-54482801D01*
X180566359Y-54483198D01*
X180986612Y-54309554D01*
X181308423Y-53988303D01*
X181482801Y-53568354D01*
X181483198Y-53113641D01*
X181309554Y-52693388D01*
X180988303Y-52371577D01*
X180568354Y-52197199D01*
X180113641Y-52196802D01*
X179693388Y-52370446D01*
X179371577Y-52691697D01*
X179197199Y-53111646D01*
X179196802Y-53566359D01*
X148119846Y-53566359D01*
X148145357Y-53504923D01*
X148145643Y-53176518D01*
X148020233Y-52873002D01*
X147788219Y-52640583D01*
X147484923Y-52514643D01*
X147156518Y-52514357D01*
X146853002Y-52639767D01*
X146620583Y-52871781D01*
X146494643Y-53175077D01*
X146494357Y-53503482D01*
X139261802Y-53503482D01*
X139265357Y-53494923D01*
X139265643Y-53166518D01*
X139140233Y-52863002D01*
X138908219Y-52630583D01*
X138604923Y-52504643D01*
X138276518Y-52504357D01*
X137973002Y-52629767D01*
X137740583Y-52861781D01*
X137614643Y-53165077D01*
X137614357Y-53493482D01*
X133222866Y-53493482D01*
X133223198Y-53113641D01*
X133049554Y-52693388D01*
X132728303Y-52371577D01*
X132308354Y-52197199D01*
X131853641Y-52196802D01*
X131433388Y-52370446D01*
X131111577Y-52691697D01*
X130937199Y-53111646D01*
X130936802Y-53566359D01*
X127724346Y-53566359D01*
X127700233Y-53508002D01*
X127468219Y-53275583D01*
X127164923Y-53149643D01*
X126836518Y-53149357D01*
X126533002Y-53274767D01*
X126300583Y-53506781D01*
X126174643Y-53810077D01*
X126174357Y-54138482D01*
X124587000Y-54138482D01*
X124587000Y-52323482D01*
X125014357Y-52323482D01*
X125139767Y-52626998D01*
X125371781Y-52859417D01*
X125675077Y-52985357D01*
X126003482Y-52985643D01*
X126306998Y-52860233D01*
X126539417Y-52628219D01*
X126665357Y-52324923D01*
X126665643Y-51996518D01*
X126540233Y-51693002D01*
X126308219Y-51460583D01*
X126004923Y-51334643D01*
X125676518Y-51334357D01*
X125373002Y-51459767D01*
X125140583Y-51691781D01*
X125014643Y-51995077D01*
X125014357Y-52323482D01*
X124587000Y-52323482D01*
X124587000Y-51026359D01*
X130936802Y-51026359D01*
X131110446Y-51446612D01*
X131431697Y-51768423D01*
X131851646Y-51942801D01*
X132306359Y-51943198D01*
X132726612Y-51769554D01*
X132897982Y-51598482D01*
X155384357Y-51598482D01*
X155509767Y-51901998D01*
X155741781Y-52134417D01*
X156045077Y-52260357D01*
X156373482Y-52260643D01*
X156676998Y-52135233D01*
X156909417Y-51903219D01*
X157035357Y-51599923D01*
X157035643Y-51271518D01*
X156910233Y-50968002D01*
X156678219Y-50735583D01*
X156374923Y-50609643D01*
X156046518Y-50609357D01*
X155743002Y-50734767D01*
X155510583Y-50966781D01*
X155384643Y-51270077D01*
X155384357Y-51598482D01*
X132897982Y-51598482D01*
X133048423Y-51448303D01*
X133222801Y-51028354D01*
X133223198Y-50573641D01*
X133119836Y-50323482D01*
X141574357Y-50323482D01*
X141699767Y-50626998D01*
X141931781Y-50859417D01*
X142235077Y-50985357D01*
X142563482Y-50985643D01*
X142866998Y-50860233D01*
X143099417Y-50628219D01*
X143223879Y-50328482D01*
X147129357Y-50328482D01*
X147254767Y-50631998D01*
X147486781Y-50864417D01*
X147790077Y-50990357D01*
X148118482Y-50990643D01*
X148421998Y-50865233D01*
X148654417Y-50633219D01*
X148780357Y-50329923D01*
X148780643Y-50001518D01*
X148655233Y-49698002D01*
X148423219Y-49465583D01*
X148119923Y-49339643D01*
X147791518Y-49339357D01*
X147488002Y-49464767D01*
X147255583Y-49696781D01*
X147129643Y-50000077D01*
X147129357Y-50328482D01*
X143223879Y-50328482D01*
X143225357Y-50324923D01*
X143225643Y-49996518D01*
X143100233Y-49693002D01*
X142868219Y-49460583D01*
X142564923Y-49334643D01*
X142236518Y-49334357D01*
X141933002Y-49459767D01*
X141700583Y-49691781D01*
X141574643Y-49995077D01*
X141574357Y-50323482D01*
X133119836Y-50323482D01*
X133049554Y-50153388D01*
X132728303Y-49831577D01*
X132308354Y-49657199D01*
X131853641Y-49656802D01*
X131433388Y-49830446D01*
X131111577Y-50151697D01*
X130937199Y-50571646D01*
X130936802Y-51026359D01*
X124587000Y-51026359D01*
X124587000Y-48486359D01*
X130936802Y-48486359D01*
X131110446Y-48906612D01*
X131431697Y-49228423D01*
X131851646Y-49402801D01*
X132306359Y-49403198D01*
X132717105Y-49233482D01*
X150164357Y-49233482D01*
X150289767Y-49536998D01*
X150521781Y-49769417D01*
X150825077Y-49895357D01*
X151153482Y-49895643D01*
X151456998Y-49770233D01*
X151689417Y-49538219D01*
X151815357Y-49234923D01*
X151815510Y-49058482D01*
X159829357Y-49058482D01*
X159954767Y-49361998D01*
X160186781Y-49594417D01*
X160490077Y-49720357D01*
X160818482Y-49720643D01*
X161121998Y-49595233D01*
X161354417Y-49363219D01*
X161480357Y-49059923D01*
X161480643Y-48731518D01*
X161379346Y-48486359D01*
X179196802Y-48486359D01*
X179370446Y-48906612D01*
X179691697Y-49228423D01*
X180111646Y-49402801D01*
X180566359Y-49403198D01*
X180986612Y-49229554D01*
X181308423Y-48908303D01*
X181482801Y-48488354D01*
X181483198Y-48033641D01*
X181309554Y-47613388D01*
X180988303Y-47291577D01*
X180568354Y-47117199D01*
X180113641Y-47116802D01*
X179693388Y-47290446D01*
X179371577Y-47611697D01*
X179197199Y-48031646D01*
X179196802Y-48486359D01*
X161379346Y-48486359D01*
X161355233Y-48428002D01*
X161123219Y-48195583D01*
X160819923Y-48069643D01*
X160491518Y-48069357D01*
X160188002Y-48194767D01*
X159955583Y-48426781D01*
X159829643Y-48730077D01*
X159829357Y-49058482D01*
X151815510Y-49058482D01*
X151815643Y-48906518D01*
X151690233Y-48603002D01*
X151458219Y-48370583D01*
X151154923Y-48244643D01*
X150826518Y-48244357D01*
X150523002Y-48369767D01*
X150290583Y-48601781D01*
X150164643Y-48905077D01*
X150164357Y-49233482D01*
X132717105Y-49233482D01*
X132726612Y-49229554D01*
X133048423Y-48908303D01*
X133222801Y-48488354D01*
X133223198Y-48033641D01*
X133049554Y-47613388D01*
X132969788Y-47533482D01*
X145254357Y-47533482D01*
X145379767Y-47836998D01*
X145611781Y-48069417D01*
X145915077Y-48195357D01*
X146243482Y-48195643D01*
X146546998Y-48070233D01*
X146779417Y-47838219D01*
X146800069Y-47788482D01*
X147129357Y-47788482D01*
X147254767Y-48091998D01*
X147486781Y-48324417D01*
X147790077Y-48450357D01*
X148118482Y-48450643D01*
X148421998Y-48325233D01*
X148654417Y-48093219D01*
X148780357Y-47789923D01*
X148780358Y-47788482D01*
X167449357Y-47788482D01*
X167574767Y-48091998D01*
X167806781Y-48324417D01*
X168110077Y-48450357D01*
X168438482Y-48450643D01*
X168741998Y-48325233D01*
X168974417Y-48093219D01*
X169100357Y-47789923D01*
X169100643Y-47461518D01*
X168975233Y-47158002D01*
X168743219Y-46925583D01*
X168439923Y-46799643D01*
X168111518Y-46799357D01*
X167808002Y-46924767D01*
X167575583Y-47156781D01*
X167449643Y-47460077D01*
X167449357Y-47788482D01*
X148780358Y-47788482D01*
X148780643Y-47461518D01*
X148655233Y-47158002D01*
X148423219Y-46925583D01*
X148119923Y-46799643D01*
X147791518Y-46799357D01*
X147488002Y-46924767D01*
X147255583Y-47156781D01*
X147129643Y-47460077D01*
X147129357Y-47788482D01*
X146800069Y-47788482D01*
X146905357Y-47534923D01*
X146905643Y-47206518D01*
X146780233Y-46903002D01*
X146548219Y-46670583D01*
X146244923Y-46544643D01*
X145916518Y-46544357D01*
X145613002Y-46669767D01*
X145380583Y-46901781D01*
X145254643Y-47205077D01*
X145254357Y-47533482D01*
X132969788Y-47533482D01*
X132728303Y-47291577D01*
X132308354Y-47117199D01*
X131853641Y-47116802D01*
X131433388Y-47290446D01*
X131111577Y-47611697D01*
X130937199Y-48031646D01*
X130936802Y-48486359D01*
X124587000Y-48486359D01*
X124587000Y-45946359D01*
X130936802Y-45946359D01*
X131110446Y-46366612D01*
X131431697Y-46688423D01*
X131851646Y-46862801D01*
X132306359Y-46863198D01*
X132726612Y-46689554D01*
X133048423Y-46368303D01*
X133112710Y-46213482D01*
X141534357Y-46213482D01*
X141659767Y-46516998D01*
X141891781Y-46749417D01*
X142195077Y-46875357D01*
X142523482Y-46875643D01*
X142826998Y-46750233D01*
X143059417Y-46518219D01*
X143185357Y-46214923D01*
X143185590Y-45946359D01*
X179196802Y-45946359D01*
X179370446Y-46366612D01*
X179691697Y-46688423D01*
X180111646Y-46862801D01*
X180566359Y-46863198D01*
X180986612Y-46689554D01*
X181308423Y-46368303D01*
X181482801Y-45948354D01*
X181483198Y-45493641D01*
X181309554Y-45073388D01*
X180988303Y-44751577D01*
X180568354Y-44577199D01*
X180113641Y-44576802D01*
X179693388Y-44750446D01*
X179371577Y-45071697D01*
X179197199Y-45491646D01*
X179196802Y-45946359D01*
X143185590Y-45946359D01*
X143185643Y-45886518D01*
X143060233Y-45583002D01*
X142828219Y-45350583D01*
X142524923Y-45224643D01*
X142196518Y-45224357D01*
X141893002Y-45349767D01*
X141660583Y-45581781D01*
X141534643Y-45885077D01*
X141534357Y-46213482D01*
X133112710Y-46213482D01*
X133222801Y-45948354D01*
X133223198Y-45493641D01*
X133049554Y-45073388D01*
X132728303Y-44751577D01*
X132308354Y-44577199D01*
X131853641Y-44576802D01*
X131433388Y-44750446D01*
X131111577Y-45071697D01*
X130937199Y-45491646D01*
X130936802Y-45946359D01*
X124587000Y-45946359D01*
X124587000Y-43406359D01*
X130936802Y-43406359D01*
X131110446Y-43826612D01*
X131431697Y-44148423D01*
X131851646Y-44322801D01*
X132306359Y-44323198D01*
X132726612Y-44149554D01*
X133048423Y-43828303D01*
X133222801Y-43408354D01*
X133222802Y-43406359D01*
X179196802Y-43406359D01*
X179370446Y-43826612D01*
X179691697Y-44148423D01*
X180111646Y-44322801D01*
X180566359Y-44323198D01*
X180986612Y-44149554D01*
X181308423Y-43828303D01*
X181482801Y-43408354D01*
X181483198Y-42953641D01*
X181309554Y-42533388D01*
X180988303Y-42211577D01*
X180568354Y-42037199D01*
X180113641Y-42036802D01*
X179693388Y-42210446D01*
X179371577Y-42531697D01*
X179197199Y-42951646D01*
X179196802Y-43406359D01*
X133222802Y-43406359D01*
X133223198Y-42953641D01*
X133049554Y-42533388D01*
X132728303Y-42211577D01*
X132308354Y-42037199D01*
X131853641Y-42036802D01*
X131433388Y-42210446D01*
X131111577Y-42531697D01*
X130937199Y-42951646D01*
X130936802Y-43406359D01*
X124587000Y-43406359D01*
X124587000Y-40866359D01*
X130936802Y-40866359D01*
X131110446Y-41286612D01*
X131431697Y-41608423D01*
X131851646Y-41782801D01*
X132306359Y-41783198D01*
X132726612Y-41609554D01*
X133048423Y-41288303D01*
X133222801Y-40868354D01*
X133222802Y-40866359D01*
X179196802Y-40866359D01*
X179370446Y-41286612D01*
X179691697Y-41608423D01*
X180111646Y-41782801D01*
X180566359Y-41783198D01*
X180986612Y-41609554D01*
X181308423Y-41288303D01*
X181482801Y-40868354D01*
X181483198Y-40413641D01*
X181309554Y-39993388D01*
X180988303Y-39671577D01*
X180568354Y-39497199D01*
X180113641Y-39496802D01*
X179693388Y-39670446D01*
X179371577Y-39991697D01*
X179197199Y-40411646D01*
X179196802Y-40866359D01*
X133222802Y-40866359D01*
X133223198Y-40413641D01*
X133049554Y-39993388D01*
X132728303Y-39671577D01*
X132308354Y-39497199D01*
X131853641Y-39496802D01*
X131433388Y-39670446D01*
X131111577Y-39991697D01*
X130937199Y-40411646D01*
X130936802Y-40866359D01*
X124587000Y-40866359D01*
X124587000Y-38303482D01*
X127864357Y-38303482D01*
X127989767Y-38606998D01*
X128221781Y-38839417D01*
X128525077Y-38965357D01*
X128853482Y-38965643D01*
X129156998Y-38840233D01*
X129389417Y-38608219D01*
X129506455Y-38326359D01*
X130936802Y-38326359D01*
X131110446Y-38746612D01*
X131431697Y-39068423D01*
X131851646Y-39242801D01*
X132306359Y-39243198D01*
X132726612Y-39069554D01*
X133048423Y-38748303D01*
X133222801Y-38328354D01*
X133222802Y-38326359D01*
X179196802Y-38326359D01*
X179370446Y-38746612D01*
X179691697Y-39068423D01*
X180111646Y-39242801D01*
X180566359Y-39243198D01*
X180986612Y-39069554D01*
X181308423Y-38748303D01*
X181482801Y-38328354D01*
X181483198Y-37873641D01*
X181309554Y-37453388D01*
X180988303Y-37131577D01*
X180568354Y-36957199D01*
X180113641Y-36956802D01*
X179693388Y-37130446D01*
X179371577Y-37451697D01*
X179197199Y-37871646D01*
X179196802Y-38326359D01*
X133222802Y-38326359D01*
X133223198Y-37873641D01*
X133049554Y-37453388D01*
X132728303Y-37131577D01*
X132308354Y-36957199D01*
X131853641Y-36956802D01*
X131433388Y-37130446D01*
X131111577Y-37451697D01*
X130937199Y-37871646D01*
X130936802Y-38326359D01*
X129506455Y-38326359D01*
X129515357Y-38304923D01*
X129515643Y-37976518D01*
X129390233Y-37673002D01*
X129158219Y-37440583D01*
X128854923Y-37314643D01*
X128526518Y-37314357D01*
X128223002Y-37439767D01*
X127990583Y-37671781D01*
X127864643Y-37975077D01*
X127864357Y-38303482D01*
X124587000Y-38303482D01*
X124587000Y-35786359D01*
X130936802Y-35786359D01*
X131110446Y-36206612D01*
X131431697Y-36528423D01*
X131851646Y-36702801D01*
X132306359Y-36703198D01*
X132726612Y-36529554D01*
X133048423Y-36208303D01*
X133222801Y-35788354D01*
X133222913Y-35659359D01*
X151256802Y-35659359D01*
X151430446Y-36079612D01*
X151751697Y-36401423D01*
X152171646Y-36575801D01*
X152626359Y-36576198D01*
X153046612Y-36402554D01*
X153368423Y-36081303D01*
X153542801Y-35661354D01*
X153542802Y-35659359D01*
X153796802Y-35659359D01*
X153970446Y-36079612D01*
X154291697Y-36401423D01*
X154711646Y-36575801D01*
X155166359Y-36576198D01*
X155586612Y-36402554D01*
X155908423Y-36081303D01*
X156082801Y-35661354D01*
X156082802Y-35659359D01*
X156336802Y-35659359D01*
X156510446Y-36079612D01*
X156831697Y-36401423D01*
X157251646Y-36575801D01*
X157706359Y-36576198D01*
X158126612Y-36402554D01*
X158448423Y-36081303D01*
X158570894Y-35786359D01*
X179196802Y-35786359D01*
X179370446Y-36206612D01*
X179691697Y-36528423D01*
X180111646Y-36702801D01*
X180566359Y-36703198D01*
X180986612Y-36529554D01*
X181308423Y-36208303D01*
X181482801Y-35788354D01*
X181483198Y-35333641D01*
X181309554Y-34913388D01*
X180988303Y-34591577D01*
X180568354Y-34417199D01*
X180113641Y-34416802D01*
X179693388Y-34590446D01*
X179371577Y-34911697D01*
X179197199Y-35331646D01*
X179196802Y-35786359D01*
X158570894Y-35786359D01*
X158622801Y-35661354D01*
X158623198Y-35206641D01*
X158449554Y-34786388D01*
X158128303Y-34464577D01*
X157708354Y-34290199D01*
X157253641Y-34289802D01*
X156833388Y-34463446D01*
X156511577Y-34784697D01*
X156337199Y-35204646D01*
X156336802Y-35659359D01*
X156082802Y-35659359D01*
X156083198Y-35206641D01*
X155909554Y-34786388D01*
X155588303Y-34464577D01*
X155168354Y-34290199D01*
X154713641Y-34289802D01*
X154293388Y-34463446D01*
X153971577Y-34784697D01*
X153797199Y-35204646D01*
X153796802Y-35659359D01*
X153542802Y-35659359D01*
X153543198Y-35206641D01*
X153369554Y-34786388D01*
X153048303Y-34464577D01*
X152628354Y-34290199D01*
X152173641Y-34289802D01*
X151753388Y-34463446D01*
X151431577Y-34784697D01*
X151257199Y-35204646D01*
X151256802Y-35659359D01*
X133222913Y-35659359D01*
X133223198Y-35333641D01*
X133049554Y-34913388D01*
X132728303Y-34591577D01*
X132308354Y-34417199D01*
X131853641Y-34416802D01*
X131433388Y-34590446D01*
X131111577Y-34911697D01*
X130937199Y-35331646D01*
X130936802Y-35786359D01*
X124587000Y-35786359D01*
X124587000Y-33409841D01*
X145351159Y-33409841D01*
X145650214Y-34133609D01*
X146203479Y-34687840D01*
X146926723Y-34988157D01*
X147709841Y-34988841D01*
X148433609Y-34689786D01*
X148987840Y-34136521D01*
X149288157Y-33413277D01*
X149288413Y-33119359D01*
X151256802Y-33119359D01*
X151430446Y-33539612D01*
X151751697Y-33861423D01*
X152171646Y-34035801D01*
X152626359Y-34036198D01*
X153046612Y-33862554D01*
X153368423Y-33541303D01*
X153542801Y-33121354D01*
X153542802Y-33119359D01*
X153796802Y-33119359D01*
X153970446Y-33539612D01*
X154291697Y-33861423D01*
X154711646Y-34035801D01*
X155166359Y-34036198D01*
X155586612Y-33862554D01*
X155908423Y-33541303D01*
X156082801Y-33121354D01*
X156082802Y-33119359D01*
X156336802Y-33119359D01*
X156510446Y-33539612D01*
X156831697Y-33861423D01*
X157251646Y-34035801D01*
X157706359Y-34036198D01*
X158126612Y-33862554D01*
X158448423Y-33541303D01*
X158503010Y-33409841D01*
X173291159Y-33409841D01*
X173590214Y-34133609D01*
X174143479Y-34687840D01*
X174866723Y-34988157D01*
X175649841Y-34988841D01*
X176373609Y-34689786D01*
X176927840Y-34136521D01*
X177228157Y-33413277D01*
X177228841Y-32630159D01*
X176929786Y-31906391D01*
X176376521Y-31352160D01*
X175653277Y-31051843D01*
X174870159Y-31051159D01*
X174146391Y-31350214D01*
X173592160Y-31903479D01*
X173291843Y-32626723D01*
X173291159Y-33409841D01*
X158503010Y-33409841D01*
X158622801Y-33121354D01*
X158623198Y-32666641D01*
X158449554Y-32246388D01*
X158128303Y-31924577D01*
X157708354Y-31750199D01*
X157253641Y-31749802D01*
X156833388Y-31923446D01*
X156511577Y-32244697D01*
X156337199Y-32664646D01*
X156336802Y-33119359D01*
X156082802Y-33119359D01*
X156083198Y-32666641D01*
X155909554Y-32246388D01*
X155588303Y-31924577D01*
X155168354Y-31750199D01*
X154713641Y-31749802D01*
X154293388Y-31923446D01*
X153971577Y-32244697D01*
X153797199Y-32664646D01*
X153796802Y-33119359D01*
X153542802Y-33119359D01*
X153543198Y-32666641D01*
X153369554Y-32246388D01*
X153048303Y-31924577D01*
X152628354Y-31750199D01*
X152173641Y-31749802D01*
X151753388Y-31923446D01*
X151431577Y-32244697D01*
X151257199Y-32664646D01*
X151256802Y-33119359D01*
X149288413Y-33119359D01*
X149288841Y-32630159D01*
X148989786Y-31906391D01*
X148436521Y-31352160D01*
X147713277Y-31051843D01*
X146930159Y-31051159D01*
X146206391Y-31350214D01*
X145652160Y-31903479D01*
X145351843Y-32626723D01*
X145351159Y-33409841D01*
X124587000Y-33409841D01*
X124587000Y-30607000D01*
X182753000Y-30607000D01*
X182753000Y-87503000D01*
M02*
