G04 #@! TF.FileFunction,Other,User*
%FSLAX46Y46*%
G04 Gerber Fmt 4.6, Leading zero omitted, Abs format (unit mm)*
G04 Created by KiCad (PCBNEW 4.0.6-e0-6349~53~ubuntu14.04.1) date Sat Jun 24 15:03:27 2017*
%MOMM*%
%LPD*%
G01*
G04 APERTURE LIST*
%ADD10C,0.150000*%
%ADD11C,0.050000*%
G04 APERTURE END LIST*
D10*
D11*
X171730000Y-83820000D02*
G75*
G03X171730000Y-83820000I-1550000J0D01*
G01*
X171730000Y-35560000D02*
G75*
G03X171730000Y-35560000I-1550000J0D01*
G01*
X75210000Y-83820000D02*
G75*
G03X75210000Y-83820000I-1550000J0D01*
G01*
X89561000Y-53784500D02*
G75*
G03X89561000Y-53784500I-1550000J0D01*
G01*
X108420000Y-58958000D02*
X108420000Y-56358000D01*
X110020000Y-58958000D02*
X110020000Y-56358000D01*
X108420000Y-58958000D02*
X110020000Y-58958000D01*
X108420000Y-56358000D02*
X110020000Y-56358000D01*
X112560000Y-54961000D02*
X112560000Y-57561000D01*
X110960000Y-54961000D02*
X110960000Y-57561000D01*
X112560000Y-54961000D02*
X110960000Y-54961000D01*
X112560000Y-57561000D02*
X110960000Y-57561000D01*
X108420000Y-54640000D02*
X108420000Y-52040000D01*
X110020000Y-54640000D02*
X110020000Y-52040000D01*
X108420000Y-54640000D02*
X110020000Y-54640000D01*
X108420000Y-52040000D02*
X110020000Y-52040000D01*
X106972000Y-53564000D02*
X106972000Y-56164000D01*
X105372000Y-53564000D02*
X105372000Y-56164000D01*
X106972000Y-53564000D02*
X105372000Y-53564000D01*
X106972000Y-56164000D02*
X105372000Y-56164000D01*
M02*
