G04 (created by PCBNEW (2013-jul-07)-stable) date Sat Oct  3 18:01:44 2015*
%MOIN*%
G04 Gerber Fmt 3.4, Leading zero omitted, Abs format*
%FSLAX34Y34*%
G01*
G70*
G90*
G04 APERTURE LIST*
%ADD10C,0.00590551*%
%ADD11C,0.005*%
%ADD12C,0.008*%
%ADD13C,0.011811*%
%ADD14C,0.00787402*%
%ADD15C,0.01*%
%ADD16C,0.015*%
%ADD17C,0.0001*%
%ADD18C,0.0031*%
%ADD19C,0.0059*%
%ADD20C,0.0039*%
%ADD21C,0.0026*%
%ADD22C,0.004*%
%ADD23C,0.0047*%
%ADD24C,0.0045*%
%ADD25C,0.1495*%
%ADD26R,0.06X0.0098*%
%ADD27O,0.06X0.0098*%
%ADD28O,0.0098X0.06*%
%ADD29R,0.0394X0.0315*%
%ADD30R,0.144X0.08*%
%ADD31R,0.04X0.08*%
%ADD32R,0.045X0.02*%
%ADD33R,0.1181X0.0787*%
%ADD34R,0.055X0.035*%
%ADD35R,0.035X0.055*%
%ADD36R,0.025X0.045*%
%ADD37R,0.045X0.025*%
%ADD38R,0.0314X0.0314*%
%ADD39R,0.05X0.125197*%
%ADD40R,0.06X0.06*%
%ADD41C,0.06*%
%ADD42C,0.0788*%
%ADD43C,0.125*%
%ADD44R,0.1004X0.1063*%
%ADD45R,0.1004X0.1496*%
G04 APERTURE END LIST*
G54D10*
G54D11*
X40770Y-15624D02*
X40748Y-15613D01*
X40715Y-15613D01*
X40682Y-15624D01*
X40660Y-15645D01*
X40649Y-15667D01*
X40638Y-15711D01*
X40638Y-15744D01*
X40649Y-15788D01*
X40660Y-15810D01*
X40682Y-15832D01*
X40715Y-15843D01*
X40737Y-15843D01*
X40770Y-15832D01*
X40780Y-15821D01*
X40780Y-15744D01*
X40737Y-15744D01*
X40879Y-15843D02*
X40879Y-15613D01*
X40967Y-15613D01*
X40989Y-15624D01*
X41000Y-15635D01*
X41010Y-15656D01*
X41010Y-15689D01*
X41000Y-15711D01*
X40989Y-15722D01*
X40967Y-15733D01*
X40879Y-15733D01*
X41109Y-15843D02*
X41109Y-15613D01*
X41262Y-15613D02*
X41306Y-15613D01*
X41328Y-15624D01*
X41350Y-15645D01*
X41361Y-15689D01*
X41361Y-15766D01*
X41350Y-15810D01*
X41328Y-15832D01*
X41306Y-15843D01*
X41262Y-15843D01*
X41240Y-15832D01*
X41219Y-15810D01*
X41208Y-15766D01*
X41208Y-15689D01*
X41219Y-15645D01*
X41240Y-15624D01*
X41262Y-15613D01*
X41065Y-16215D02*
X40934Y-16215D01*
X41000Y-16215D02*
X41000Y-15985D01*
X40978Y-16017D01*
X40956Y-16039D01*
X40934Y-16050D01*
X39770Y-15624D02*
X39748Y-15613D01*
X39715Y-15613D01*
X39682Y-15624D01*
X39660Y-15645D01*
X39649Y-15667D01*
X39638Y-15711D01*
X39638Y-15744D01*
X39649Y-15788D01*
X39660Y-15810D01*
X39682Y-15832D01*
X39715Y-15843D01*
X39737Y-15843D01*
X39770Y-15832D01*
X39780Y-15821D01*
X39780Y-15744D01*
X39737Y-15744D01*
X39879Y-15843D02*
X39879Y-15613D01*
X39967Y-15613D01*
X39989Y-15624D01*
X40000Y-15635D01*
X40010Y-15656D01*
X40010Y-15689D01*
X40000Y-15711D01*
X39989Y-15722D01*
X39967Y-15733D01*
X39879Y-15733D01*
X40109Y-15843D02*
X40109Y-15613D01*
X40262Y-15613D02*
X40306Y-15613D01*
X40328Y-15624D01*
X40350Y-15645D01*
X40361Y-15689D01*
X40361Y-15766D01*
X40350Y-15810D01*
X40328Y-15832D01*
X40306Y-15843D01*
X40262Y-15843D01*
X40240Y-15832D01*
X40219Y-15810D01*
X40208Y-15766D01*
X40208Y-15689D01*
X40219Y-15645D01*
X40240Y-15624D01*
X40262Y-15613D01*
X39934Y-16007D02*
X39945Y-15996D01*
X39967Y-15985D01*
X40021Y-15985D01*
X40043Y-15996D01*
X40054Y-16007D01*
X40065Y-16028D01*
X40065Y-16050D01*
X40054Y-16083D01*
X39923Y-16215D01*
X40065Y-16215D01*
X38770Y-15624D02*
X38748Y-15613D01*
X38715Y-15613D01*
X38682Y-15624D01*
X38660Y-15645D01*
X38649Y-15667D01*
X38638Y-15711D01*
X38638Y-15744D01*
X38649Y-15788D01*
X38660Y-15810D01*
X38682Y-15832D01*
X38715Y-15843D01*
X38737Y-15843D01*
X38770Y-15832D01*
X38780Y-15821D01*
X38780Y-15744D01*
X38737Y-15744D01*
X38879Y-15843D02*
X38879Y-15613D01*
X38967Y-15613D01*
X38989Y-15624D01*
X39000Y-15635D01*
X39010Y-15656D01*
X39010Y-15689D01*
X39000Y-15711D01*
X38989Y-15722D01*
X38967Y-15733D01*
X38879Y-15733D01*
X39109Y-15843D02*
X39109Y-15613D01*
X39262Y-15613D02*
X39306Y-15613D01*
X39328Y-15624D01*
X39350Y-15645D01*
X39361Y-15689D01*
X39361Y-15766D01*
X39350Y-15810D01*
X39328Y-15832D01*
X39306Y-15843D01*
X39262Y-15843D01*
X39240Y-15832D01*
X39219Y-15810D01*
X39208Y-15766D01*
X39208Y-15689D01*
X39219Y-15645D01*
X39240Y-15624D01*
X39262Y-15613D01*
X38923Y-15985D02*
X39065Y-15985D01*
X38989Y-16072D01*
X39021Y-16072D01*
X39043Y-16083D01*
X39054Y-16094D01*
X39065Y-16116D01*
X39065Y-16171D01*
X39054Y-16193D01*
X39043Y-16204D01*
X39021Y-16215D01*
X38956Y-16215D01*
X38934Y-16204D01*
X38923Y-16193D01*
X37770Y-15624D02*
X37748Y-15613D01*
X37715Y-15613D01*
X37682Y-15624D01*
X37660Y-15645D01*
X37649Y-15667D01*
X37638Y-15711D01*
X37638Y-15744D01*
X37649Y-15788D01*
X37660Y-15810D01*
X37682Y-15832D01*
X37715Y-15843D01*
X37737Y-15843D01*
X37770Y-15832D01*
X37780Y-15821D01*
X37780Y-15744D01*
X37737Y-15744D01*
X37879Y-15843D02*
X37879Y-15613D01*
X37967Y-15613D01*
X37989Y-15624D01*
X38000Y-15635D01*
X38010Y-15656D01*
X38010Y-15689D01*
X38000Y-15711D01*
X37989Y-15722D01*
X37967Y-15733D01*
X37879Y-15733D01*
X38109Y-15843D02*
X38109Y-15613D01*
X38262Y-15613D02*
X38306Y-15613D01*
X38328Y-15624D01*
X38350Y-15645D01*
X38361Y-15689D01*
X38361Y-15766D01*
X38350Y-15810D01*
X38328Y-15832D01*
X38306Y-15843D01*
X38262Y-15843D01*
X38240Y-15832D01*
X38219Y-15810D01*
X38208Y-15766D01*
X38208Y-15689D01*
X38219Y-15645D01*
X38240Y-15624D01*
X38262Y-15613D01*
X38043Y-16061D02*
X38043Y-16215D01*
X37989Y-15974D02*
X37934Y-16138D01*
X38076Y-16138D01*
X36824Y-15624D02*
X36802Y-15613D01*
X36770Y-15613D01*
X36737Y-15624D01*
X36715Y-15645D01*
X36704Y-15667D01*
X36693Y-15711D01*
X36693Y-15744D01*
X36704Y-15788D01*
X36715Y-15810D01*
X36737Y-15832D01*
X36770Y-15843D01*
X36791Y-15843D01*
X36824Y-15832D01*
X36835Y-15821D01*
X36835Y-15744D01*
X36791Y-15744D01*
X36934Y-15843D02*
X36934Y-15613D01*
X37065Y-15843D01*
X37065Y-15613D01*
X37175Y-15843D02*
X37175Y-15613D01*
X37230Y-15613D01*
X37262Y-15624D01*
X37284Y-15645D01*
X37295Y-15667D01*
X37306Y-15711D01*
X37306Y-15744D01*
X37295Y-15788D01*
X37284Y-15810D01*
X37262Y-15832D01*
X37230Y-15843D01*
X37175Y-15843D01*
X35660Y-15613D02*
X35802Y-15613D01*
X35726Y-15700D01*
X35759Y-15700D01*
X35780Y-15711D01*
X35791Y-15722D01*
X35802Y-15744D01*
X35802Y-15799D01*
X35791Y-15821D01*
X35780Y-15832D01*
X35759Y-15843D01*
X35693Y-15843D01*
X35671Y-15832D01*
X35660Y-15821D01*
X35901Y-15821D02*
X35912Y-15832D01*
X35901Y-15843D01*
X35890Y-15832D01*
X35901Y-15821D01*
X35901Y-15843D01*
X35989Y-15613D02*
X36131Y-15613D01*
X36054Y-15700D01*
X36087Y-15700D01*
X36109Y-15711D01*
X36120Y-15722D01*
X36131Y-15744D01*
X36131Y-15799D01*
X36120Y-15821D01*
X36109Y-15832D01*
X36087Y-15843D01*
X36021Y-15843D01*
X36000Y-15832D01*
X35989Y-15821D01*
X36197Y-15613D02*
X36273Y-15843D01*
X36350Y-15613D01*
X34616Y-15777D02*
X34726Y-15777D01*
X34594Y-15843D02*
X34671Y-15613D01*
X34748Y-15843D01*
X34791Y-15613D02*
X34868Y-15843D01*
X34945Y-15613D01*
X35153Y-15821D02*
X35142Y-15832D01*
X35109Y-15843D01*
X35087Y-15843D01*
X35054Y-15832D01*
X35032Y-15810D01*
X35021Y-15788D01*
X35010Y-15744D01*
X35010Y-15711D01*
X35021Y-15667D01*
X35032Y-15645D01*
X35054Y-15624D01*
X35087Y-15613D01*
X35109Y-15613D01*
X35142Y-15624D01*
X35153Y-15635D01*
X35383Y-15821D02*
X35372Y-15832D01*
X35339Y-15843D01*
X35317Y-15843D01*
X35284Y-15832D01*
X35262Y-15810D01*
X35251Y-15788D01*
X35240Y-15744D01*
X35240Y-15711D01*
X35251Y-15667D01*
X35262Y-15645D01*
X35284Y-15624D01*
X35317Y-15613D01*
X35339Y-15613D01*
X35372Y-15624D01*
X35383Y-15635D01*
G54D12*
X35761Y-13890D02*
X35761Y-13642D01*
X35914Y-13776D01*
X35914Y-13719D01*
X35933Y-13680D01*
X35952Y-13661D01*
X35990Y-13642D01*
X36085Y-13642D01*
X36123Y-13661D01*
X36142Y-13680D01*
X36161Y-13719D01*
X36161Y-13833D01*
X36142Y-13871D01*
X36123Y-13890D01*
X36123Y-13471D02*
X36142Y-13452D01*
X36161Y-13471D01*
X36142Y-13490D01*
X36123Y-13471D01*
X36161Y-13471D01*
X35761Y-13319D02*
X35761Y-13071D01*
X35914Y-13204D01*
X35914Y-13147D01*
X35933Y-13109D01*
X35952Y-13090D01*
X35990Y-13071D01*
X36085Y-13071D01*
X36123Y-13090D01*
X36142Y-13109D01*
X36161Y-13147D01*
X36161Y-13261D01*
X36142Y-13299D01*
X36123Y-13319D01*
X35761Y-12957D02*
X36161Y-12823D01*
X35761Y-12690D01*
X59923Y-31161D02*
X59923Y-30895D01*
X59923Y-30971D02*
X59942Y-30933D01*
X59961Y-30914D01*
X60000Y-30895D01*
X60038Y-30895D01*
X60323Y-31142D02*
X60285Y-31161D01*
X60209Y-31161D01*
X60171Y-31142D01*
X60152Y-31104D01*
X60152Y-30952D01*
X60171Y-30914D01*
X60209Y-30895D01*
X60285Y-30895D01*
X60323Y-30914D01*
X60342Y-30952D01*
X60342Y-30990D01*
X60152Y-31028D01*
X60476Y-30895D02*
X60571Y-31161D01*
X60666Y-30895D01*
X60819Y-31123D02*
X60838Y-31142D01*
X60819Y-31161D01*
X60800Y-31142D01*
X60819Y-31123D01*
X60819Y-31161D01*
X61390Y-30761D02*
X61428Y-30761D01*
X61466Y-30780D01*
X61485Y-30800D01*
X61504Y-30838D01*
X61523Y-30914D01*
X61523Y-31009D01*
X61504Y-31085D01*
X61485Y-31123D01*
X61466Y-31142D01*
X61428Y-31161D01*
X61390Y-31161D01*
X61352Y-31142D01*
X61333Y-31123D01*
X61314Y-31085D01*
X61295Y-31009D01*
X61295Y-30914D01*
X61314Y-30838D01*
X61333Y-30800D01*
X61352Y-30780D01*
X61390Y-30761D01*
X61695Y-31123D02*
X61714Y-31142D01*
X61695Y-31161D01*
X61676Y-31142D01*
X61695Y-31123D01*
X61695Y-31161D01*
X62095Y-31161D02*
X61866Y-31161D01*
X61980Y-31161D02*
X61980Y-30761D01*
X61942Y-30819D01*
X61904Y-30857D01*
X61866Y-30876D01*
X33242Y-33961D02*
X33052Y-33961D01*
X33052Y-33561D01*
X33376Y-33961D02*
X33376Y-33695D01*
X33376Y-33561D02*
X33357Y-33580D01*
X33376Y-33600D01*
X33395Y-33580D01*
X33376Y-33561D01*
X33376Y-33600D01*
X33738Y-33942D02*
X33700Y-33961D01*
X33623Y-33961D01*
X33585Y-33942D01*
X33566Y-33923D01*
X33547Y-33885D01*
X33547Y-33771D01*
X33566Y-33733D01*
X33585Y-33714D01*
X33623Y-33695D01*
X33700Y-33695D01*
X33738Y-33714D01*
X34061Y-33942D02*
X34023Y-33961D01*
X33947Y-33961D01*
X33909Y-33942D01*
X33890Y-33904D01*
X33890Y-33752D01*
X33909Y-33714D01*
X33947Y-33695D01*
X34023Y-33695D01*
X34061Y-33714D01*
X34080Y-33752D01*
X34080Y-33790D01*
X33890Y-33828D01*
X34252Y-33695D02*
X34252Y-33961D01*
X34252Y-33733D02*
X34271Y-33714D01*
X34309Y-33695D01*
X34366Y-33695D01*
X34404Y-33714D01*
X34423Y-33752D01*
X34423Y-33961D01*
X34595Y-33942D02*
X34633Y-33961D01*
X34709Y-33961D01*
X34747Y-33942D01*
X34766Y-33904D01*
X34766Y-33885D01*
X34747Y-33847D01*
X34709Y-33828D01*
X34652Y-33828D01*
X34614Y-33809D01*
X34595Y-33771D01*
X34595Y-33752D01*
X34614Y-33714D01*
X34652Y-33695D01*
X34709Y-33695D01*
X34747Y-33714D01*
X35090Y-33942D02*
X35052Y-33961D01*
X34976Y-33961D01*
X34938Y-33942D01*
X34919Y-33904D01*
X34919Y-33752D01*
X34938Y-33714D01*
X34976Y-33695D01*
X35052Y-33695D01*
X35090Y-33714D01*
X35109Y-33752D01*
X35109Y-33790D01*
X34919Y-33828D01*
X35452Y-33961D02*
X35452Y-33561D01*
X35452Y-33942D02*
X35414Y-33961D01*
X35338Y-33961D01*
X35300Y-33942D01*
X35280Y-33923D01*
X35261Y-33885D01*
X35261Y-33771D01*
X35280Y-33733D01*
X35300Y-33714D01*
X35338Y-33695D01*
X35414Y-33695D01*
X35452Y-33714D01*
X36119Y-33695D02*
X36119Y-33961D01*
X35947Y-33695D02*
X35947Y-33904D01*
X35966Y-33942D01*
X36004Y-33961D01*
X36061Y-33961D01*
X36100Y-33942D01*
X36119Y-33923D01*
X36309Y-33695D02*
X36309Y-33961D01*
X36309Y-33733D02*
X36328Y-33714D01*
X36366Y-33695D01*
X36423Y-33695D01*
X36461Y-33714D01*
X36480Y-33752D01*
X36480Y-33961D01*
X36842Y-33961D02*
X36842Y-33561D01*
X36842Y-33942D02*
X36804Y-33961D01*
X36728Y-33961D01*
X36690Y-33942D01*
X36671Y-33923D01*
X36652Y-33885D01*
X36652Y-33771D01*
X36671Y-33733D01*
X36690Y-33714D01*
X36728Y-33695D01*
X36804Y-33695D01*
X36842Y-33714D01*
X37185Y-33942D02*
X37147Y-33961D01*
X37071Y-33961D01*
X37033Y-33942D01*
X37014Y-33904D01*
X37014Y-33752D01*
X37033Y-33714D01*
X37071Y-33695D01*
X37147Y-33695D01*
X37185Y-33714D01*
X37204Y-33752D01*
X37204Y-33790D01*
X37014Y-33828D01*
X37376Y-33961D02*
X37376Y-33695D01*
X37376Y-33771D02*
X37395Y-33733D01*
X37414Y-33714D01*
X37452Y-33695D01*
X37490Y-33695D01*
X38157Y-33923D02*
X38138Y-33942D01*
X38080Y-33961D01*
X38042Y-33961D01*
X37985Y-33942D01*
X37947Y-33904D01*
X37928Y-33866D01*
X37909Y-33790D01*
X37909Y-33733D01*
X37928Y-33657D01*
X37947Y-33619D01*
X37985Y-33580D01*
X38042Y-33561D01*
X38080Y-33561D01*
X38138Y-33580D01*
X38157Y-33600D01*
X38328Y-33752D02*
X38461Y-33752D01*
X38519Y-33961D02*
X38328Y-33961D01*
X38328Y-33561D01*
X38519Y-33561D01*
X38919Y-33961D02*
X38785Y-33771D01*
X38690Y-33961D02*
X38690Y-33561D01*
X38842Y-33561D01*
X38880Y-33580D01*
X38900Y-33600D01*
X38919Y-33638D01*
X38919Y-33695D01*
X38900Y-33733D01*
X38880Y-33752D01*
X38842Y-33771D01*
X38690Y-33771D01*
X39090Y-33961D02*
X39090Y-33561D01*
X39319Y-33961D01*
X39319Y-33561D01*
X39890Y-33561D02*
X39966Y-33561D01*
X40004Y-33580D01*
X40042Y-33619D01*
X40061Y-33695D01*
X40061Y-33828D01*
X40042Y-33904D01*
X40004Y-33942D01*
X39966Y-33961D01*
X39890Y-33961D01*
X39852Y-33942D01*
X39814Y-33904D01*
X39795Y-33828D01*
X39795Y-33695D01*
X39814Y-33619D01*
X39852Y-33580D01*
X39890Y-33561D01*
X40233Y-33961D02*
X40233Y-33561D01*
X40233Y-33752D02*
X40461Y-33752D01*
X40461Y-33961D02*
X40461Y-33561D01*
X40842Y-33961D02*
X40652Y-33961D01*
X40652Y-33561D01*
X41242Y-33695D02*
X41338Y-33961D01*
X41433Y-33695D01*
X41585Y-33923D02*
X41604Y-33942D01*
X41585Y-33961D01*
X41566Y-33942D01*
X41585Y-33923D01*
X41585Y-33961D01*
X41985Y-33961D02*
X41757Y-33961D01*
X41871Y-33961D02*
X41871Y-33561D01*
X41833Y-33619D01*
X41795Y-33657D01*
X41757Y-33676D01*
X42157Y-33923D02*
X42176Y-33942D01*
X42157Y-33961D01*
X42138Y-33942D01*
X42157Y-33923D01*
X42157Y-33961D01*
X42328Y-33600D02*
X42347Y-33580D01*
X42385Y-33561D01*
X42480Y-33561D01*
X42519Y-33580D01*
X42538Y-33600D01*
X42557Y-33638D01*
X42557Y-33676D01*
X42538Y-33733D01*
X42309Y-33961D01*
X42557Y-33961D01*
X43090Y-33961D02*
X43052Y-33942D01*
X43033Y-33923D01*
X43014Y-33885D01*
X43014Y-33771D01*
X43033Y-33733D01*
X43052Y-33714D01*
X43090Y-33695D01*
X43147Y-33695D01*
X43185Y-33714D01*
X43204Y-33733D01*
X43223Y-33771D01*
X43223Y-33885D01*
X43204Y-33923D01*
X43185Y-33942D01*
X43147Y-33961D01*
X43090Y-33961D01*
X43395Y-33961D02*
X43395Y-33695D01*
X43395Y-33771D02*
X43414Y-33733D01*
X43433Y-33714D01*
X43471Y-33695D01*
X43509Y-33695D01*
X44004Y-33961D02*
X43966Y-33942D01*
X43947Y-33904D01*
X43947Y-33561D01*
X44328Y-33961D02*
X44328Y-33752D01*
X44309Y-33714D01*
X44271Y-33695D01*
X44195Y-33695D01*
X44157Y-33714D01*
X44328Y-33942D02*
X44290Y-33961D01*
X44195Y-33961D01*
X44157Y-33942D01*
X44138Y-33904D01*
X44138Y-33866D01*
X44157Y-33828D01*
X44195Y-33809D01*
X44290Y-33809D01*
X44328Y-33790D01*
X44461Y-33695D02*
X44614Y-33695D01*
X44519Y-33561D02*
X44519Y-33904D01*
X44538Y-33942D01*
X44576Y-33961D01*
X44614Y-33961D01*
X44899Y-33942D02*
X44861Y-33961D01*
X44785Y-33961D01*
X44747Y-33942D01*
X44728Y-33904D01*
X44728Y-33752D01*
X44747Y-33714D01*
X44785Y-33695D01*
X44861Y-33695D01*
X44899Y-33714D01*
X44919Y-33752D01*
X44919Y-33790D01*
X44728Y-33828D01*
X45090Y-33961D02*
X45090Y-33695D01*
X45090Y-33771D02*
X45109Y-33733D01*
X45128Y-33714D01*
X45166Y-33695D01*
X45204Y-33695D01*
X35490Y-34601D02*
X35490Y-34201D01*
X35661Y-34601D02*
X35661Y-34392D01*
X35642Y-34354D01*
X35604Y-34335D01*
X35547Y-34335D01*
X35509Y-34354D01*
X35490Y-34373D01*
X35795Y-34335D02*
X35947Y-34335D01*
X35852Y-34201D02*
X35852Y-34544D01*
X35871Y-34582D01*
X35909Y-34601D01*
X35947Y-34601D01*
X36023Y-34335D02*
X36176Y-34335D01*
X36080Y-34201D02*
X36080Y-34544D01*
X36100Y-34582D01*
X36138Y-34601D01*
X36176Y-34601D01*
X36309Y-34335D02*
X36309Y-34735D01*
X36309Y-34354D02*
X36347Y-34335D01*
X36423Y-34335D01*
X36461Y-34354D01*
X36480Y-34373D01*
X36500Y-34411D01*
X36500Y-34525D01*
X36480Y-34563D01*
X36461Y-34582D01*
X36423Y-34601D01*
X36347Y-34601D01*
X36309Y-34582D01*
X36671Y-34563D02*
X36690Y-34582D01*
X36671Y-34601D01*
X36652Y-34582D01*
X36671Y-34563D01*
X36671Y-34601D01*
X36671Y-34354D02*
X36690Y-34373D01*
X36671Y-34392D01*
X36652Y-34373D01*
X36671Y-34354D01*
X36671Y-34392D01*
X37147Y-34182D02*
X36804Y-34697D01*
X37566Y-34182D02*
X37223Y-34697D01*
X37757Y-34601D02*
X37719Y-34582D01*
X37700Y-34563D01*
X37680Y-34525D01*
X37680Y-34411D01*
X37700Y-34373D01*
X37719Y-34354D01*
X37757Y-34335D01*
X37814Y-34335D01*
X37852Y-34354D01*
X37871Y-34373D01*
X37890Y-34411D01*
X37890Y-34525D01*
X37871Y-34563D01*
X37852Y-34582D01*
X37814Y-34601D01*
X37757Y-34601D01*
X38061Y-34601D02*
X38061Y-34201D01*
X38233Y-34601D02*
X38233Y-34392D01*
X38214Y-34354D01*
X38176Y-34335D01*
X38119Y-34335D01*
X38080Y-34354D01*
X38061Y-34373D01*
X38385Y-34335D02*
X38461Y-34601D01*
X38538Y-34411D01*
X38614Y-34601D01*
X38690Y-34335D01*
X38842Y-34601D02*
X38842Y-34335D01*
X38842Y-34411D02*
X38861Y-34373D01*
X38880Y-34354D01*
X38919Y-34335D01*
X38957Y-34335D01*
X39090Y-34563D02*
X39109Y-34582D01*
X39090Y-34601D01*
X39071Y-34582D01*
X39090Y-34563D01*
X39090Y-34601D01*
X39338Y-34601D02*
X39300Y-34582D01*
X39280Y-34563D01*
X39261Y-34525D01*
X39261Y-34411D01*
X39280Y-34373D01*
X39300Y-34354D01*
X39338Y-34335D01*
X39395Y-34335D01*
X39433Y-34354D01*
X39452Y-34373D01*
X39471Y-34411D01*
X39471Y-34525D01*
X39452Y-34563D01*
X39433Y-34582D01*
X39395Y-34601D01*
X39338Y-34601D01*
X39642Y-34601D02*
X39642Y-34335D01*
X39642Y-34411D02*
X39661Y-34373D01*
X39680Y-34354D01*
X39719Y-34335D01*
X39757Y-34335D01*
X40061Y-34335D02*
X40061Y-34659D01*
X40042Y-34697D01*
X40023Y-34716D01*
X39985Y-34735D01*
X39928Y-34735D01*
X39890Y-34716D01*
X40061Y-34582D02*
X40023Y-34601D01*
X39947Y-34601D01*
X39909Y-34582D01*
X39890Y-34563D01*
X39871Y-34525D01*
X39871Y-34411D01*
X39890Y-34373D01*
X39909Y-34354D01*
X39947Y-34335D01*
X40023Y-34335D01*
X40061Y-34354D01*
X40538Y-34182D02*
X40195Y-34697D01*
X40842Y-34582D02*
X40804Y-34601D01*
X40728Y-34601D01*
X40690Y-34582D01*
X40671Y-34563D01*
X40652Y-34525D01*
X40652Y-34411D01*
X40671Y-34373D01*
X40690Y-34354D01*
X40728Y-34335D01*
X40804Y-34335D01*
X40842Y-34354D01*
X41166Y-34582D02*
X41128Y-34601D01*
X41052Y-34601D01*
X41014Y-34582D01*
X40995Y-34544D01*
X40995Y-34392D01*
X41014Y-34354D01*
X41052Y-34335D01*
X41128Y-34335D01*
X41166Y-34354D01*
X41185Y-34392D01*
X41185Y-34430D01*
X40995Y-34468D01*
X41357Y-34601D02*
X41357Y-34335D01*
X41357Y-34411D02*
X41376Y-34373D01*
X41395Y-34354D01*
X41433Y-34335D01*
X41471Y-34335D01*
X41604Y-34335D02*
X41604Y-34601D01*
X41604Y-34373D02*
X41623Y-34354D01*
X41661Y-34335D01*
X41719Y-34335D01*
X41757Y-34354D01*
X41776Y-34392D01*
X41776Y-34601D01*
X42023Y-34601D02*
X41985Y-34582D01*
X41966Y-34563D01*
X41947Y-34525D01*
X41947Y-34411D01*
X41966Y-34373D01*
X41985Y-34354D01*
X42023Y-34335D01*
X42080Y-34335D01*
X42119Y-34354D01*
X42138Y-34373D01*
X42157Y-34411D01*
X42157Y-34525D01*
X42138Y-34563D01*
X42119Y-34582D01*
X42080Y-34601D01*
X42023Y-34601D01*
X42328Y-34601D02*
X42328Y-34201D01*
X42499Y-34601D02*
X42499Y-34392D01*
X42480Y-34354D01*
X42442Y-34335D01*
X42385Y-34335D01*
X42347Y-34354D01*
X42328Y-34373D01*
X42747Y-34601D02*
X42709Y-34582D01*
X42690Y-34544D01*
X42690Y-34201D01*
X59359Y-32047D02*
X59550Y-32047D01*
X59321Y-32161D02*
X59454Y-31761D01*
X59588Y-32161D01*
X59892Y-32142D02*
X59854Y-32161D01*
X59778Y-32161D01*
X59740Y-32142D01*
X59721Y-32123D01*
X59702Y-32085D01*
X59702Y-31971D01*
X59721Y-31933D01*
X59740Y-31914D01*
X59778Y-31895D01*
X59854Y-31895D01*
X59892Y-31914D01*
X60216Y-32142D02*
X60178Y-32161D01*
X60102Y-32161D01*
X60064Y-32142D01*
X60045Y-32104D01*
X60045Y-31952D01*
X60064Y-31914D01*
X60102Y-31895D01*
X60178Y-31895D01*
X60216Y-31914D01*
X60235Y-31952D01*
X60235Y-31990D01*
X60045Y-32028D01*
X60711Y-32161D02*
X60711Y-31761D01*
X60845Y-32047D01*
X60978Y-31761D01*
X60978Y-32161D01*
X61321Y-32142D02*
X61283Y-32161D01*
X61207Y-32161D01*
X61169Y-32142D01*
X61150Y-32104D01*
X61150Y-31952D01*
X61169Y-31914D01*
X61207Y-31895D01*
X61283Y-31895D01*
X61321Y-31914D01*
X61340Y-31952D01*
X61340Y-31990D01*
X61150Y-32028D01*
X61683Y-32161D02*
X61683Y-31761D01*
X61683Y-32142D02*
X61645Y-32161D01*
X61569Y-32161D01*
X61530Y-32142D01*
X61511Y-32123D01*
X61492Y-32085D01*
X61492Y-31971D01*
X61511Y-31933D01*
X61530Y-31914D01*
X61569Y-31895D01*
X61645Y-31895D01*
X61683Y-31914D01*
X61930Y-32161D02*
X61892Y-32142D01*
X61873Y-32104D01*
X61873Y-31761D01*
X62140Y-32161D02*
X62102Y-32142D01*
X62083Y-32123D01*
X62064Y-32085D01*
X62064Y-31971D01*
X62083Y-31933D01*
X62102Y-31914D01*
X62140Y-31895D01*
X62197Y-31895D01*
X62235Y-31914D01*
X62254Y-31933D01*
X62273Y-31971D01*
X62273Y-32085D01*
X62254Y-32123D01*
X62235Y-32142D01*
X62197Y-32161D01*
X62140Y-32161D01*
X62616Y-32142D02*
X62578Y-32161D01*
X62502Y-32161D01*
X62464Y-32142D01*
X62445Y-32123D01*
X62426Y-32085D01*
X62426Y-31971D01*
X62445Y-31933D01*
X62464Y-31914D01*
X62502Y-31895D01*
X62578Y-31895D01*
X62616Y-31914D01*
X62788Y-32161D02*
X62788Y-31761D01*
X62826Y-32009D02*
X62940Y-32161D01*
X62940Y-31895D02*
X62788Y-32047D01*
X59388Y-32592D02*
X59521Y-32592D01*
X59578Y-32801D02*
X59388Y-32801D01*
X59388Y-32401D01*
X59578Y-32401D01*
X59750Y-32801D02*
X59750Y-32535D01*
X59750Y-32611D02*
X59769Y-32573D01*
X59788Y-32554D01*
X59826Y-32535D01*
X59864Y-32535D01*
X59997Y-32801D02*
X59997Y-32535D01*
X59997Y-32401D02*
X59978Y-32420D01*
X59997Y-32440D01*
X60016Y-32420D01*
X59997Y-32401D01*
X59997Y-32440D01*
X60359Y-32782D02*
X60321Y-32801D01*
X60245Y-32801D01*
X60207Y-32782D01*
X60188Y-32763D01*
X60169Y-32725D01*
X60169Y-32611D01*
X60188Y-32573D01*
X60207Y-32554D01*
X60245Y-32535D01*
X60321Y-32535D01*
X60359Y-32554D01*
X60835Y-32801D02*
X60835Y-32401D01*
X60835Y-32592D02*
X61064Y-32592D01*
X61064Y-32801D02*
X61064Y-32401D01*
X61407Y-32782D02*
X61369Y-32801D01*
X61292Y-32801D01*
X61254Y-32782D01*
X61235Y-32744D01*
X61235Y-32592D01*
X61254Y-32554D01*
X61292Y-32535D01*
X61369Y-32535D01*
X61407Y-32554D01*
X61426Y-32592D01*
X61426Y-32630D01*
X61235Y-32668D01*
X61597Y-32801D02*
X61597Y-32535D01*
X61597Y-32611D02*
X61616Y-32573D01*
X61635Y-32554D01*
X61673Y-32535D01*
X61711Y-32535D01*
X61845Y-32801D02*
X61845Y-32535D01*
X61845Y-32573D02*
X61864Y-32554D01*
X61902Y-32535D01*
X61959Y-32535D01*
X61997Y-32554D01*
X62016Y-32592D01*
X62016Y-32801D01*
X62016Y-32592D02*
X62035Y-32554D01*
X62073Y-32535D01*
X62130Y-32535D01*
X62169Y-32554D01*
X62188Y-32592D01*
X62188Y-32801D01*
X62550Y-32801D02*
X62550Y-32592D01*
X62530Y-32554D01*
X62492Y-32535D01*
X62416Y-32535D01*
X62378Y-32554D01*
X62550Y-32782D02*
X62511Y-32801D01*
X62416Y-32801D01*
X62378Y-32782D01*
X62359Y-32744D01*
X62359Y-32706D01*
X62378Y-32668D01*
X62416Y-32649D01*
X62511Y-32649D01*
X62550Y-32630D01*
X62740Y-32535D02*
X62740Y-32801D01*
X62740Y-32573D02*
X62759Y-32554D01*
X62797Y-32535D01*
X62854Y-32535D01*
X62892Y-32554D01*
X62911Y-32592D01*
X62911Y-32801D01*
X59045Y-33441D02*
X59045Y-33041D01*
X59273Y-33441D02*
X59102Y-33213D01*
X59273Y-33041D02*
X59045Y-33270D01*
X59597Y-33422D02*
X59559Y-33441D01*
X59483Y-33441D01*
X59445Y-33422D01*
X59426Y-33384D01*
X59426Y-33232D01*
X59445Y-33194D01*
X59483Y-33175D01*
X59559Y-33175D01*
X59597Y-33194D01*
X59616Y-33232D01*
X59616Y-33270D01*
X59426Y-33308D01*
X59788Y-33175D02*
X59788Y-33441D01*
X59788Y-33213D02*
X59807Y-33194D01*
X59845Y-33175D01*
X59902Y-33175D01*
X59940Y-33194D01*
X59959Y-33232D01*
X59959Y-33441D01*
X60321Y-33441D02*
X60321Y-33041D01*
X60321Y-33422D02*
X60283Y-33441D01*
X60207Y-33441D01*
X60169Y-33422D01*
X60150Y-33403D01*
X60130Y-33365D01*
X60130Y-33251D01*
X60150Y-33213D01*
X60169Y-33194D01*
X60207Y-33175D01*
X60283Y-33175D01*
X60321Y-33194D01*
X60511Y-33441D02*
X60511Y-33175D01*
X60511Y-33251D02*
X60530Y-33213D01*
X60550Y-33194D01*
X60588Y-33175D01*
X60626Y-33175D01*
X60759Y-33441D02*
X60759Y-33175D01*
X60759Y-33041D02*
X60740Y-33060D01*
X60759Y-33080D01*
X60778Y-33060D01*
X60759Y-33041D01*
X60759Y-33080D01*
X61121Y-33422D02*
X61083Y-33441D01*
X61007Y-33441D01*
X60969Y-33422D01*
X60950Y-33403D01*
X60930Y-33365D01*
X60930Y-33251D01*
X60950Y-33213D01*
X60969Y-33194D01*
X61007Y-33175D01*
X61083Y-33175D01*
X61121Y-33194D01*
X61292Y-33441D02*
X61292Y-33041D01*
X61330Y-33289D02*
X61445Y-33441D01*
X61445Y-33175D02*
X61292Y-33327D01*
X61902Y-33422D02*
X61959Y-33441D01*
X62054Y-33441D01*
X62092Y-33422D01*
X62111Y-33403D01*
X62130Y-33365D01*
X62130Y-33327D01*
X62111Y-33289D01*
X62092Y-33270D01*
X62054Y-33251D01*
X61978Y-33232D01*
X61940Y-33213D01*
X61921Y-33194D01*
X61902Y-33156D01*
X61902Y-33118D01*
X61921Y-33080D01*
X61940Y-33060D01*
X61978Y-33041D01*
X62073Y-33041D01*
X62130Y-33060D01*
X62302Y-33441D02*
X62302Y-33041D01*
X62473Y-33441D02*
X62473Y-33232D01*
X62454Y-33194D01*
X62416Y-33175D01*
X62359Y-33175D01*
X62321Y-33194D01*
X62302Y-33213D01*
X62835Y-33441D02*
X62835Y-33232D01*
X62816Y-33194D01*
X62778Y-33175D01*
X62702Y-33175D01*
X62664Y-33194D01*
X62835Y-33422D02*
X62797Y-33441D01*
X62702Y-33441D01*
X62664Y-33422D01*
X62645Y-33384D01*
X62645Y-33346D01*
X62664Y-33308D01*
X62702Y-33289D01*
X62797Y-33289D01*
X62835Y-33270D01*
X62988Y-33175D02*
X63064Y-33441D01*
X63140Y-33251D01*
X63216Y-33441D01*
X63292Y-33175D01*
G54D13*
X55927Y-29898D02*
X56039Y-29898D01*
X56095Y-29926D01*
X56152Y-29982D01*
X56180Y-30095D01*
X56180Y-30292D01*
X56152Y-30404D01*
X56095Y-30460D01*
X56039Y-30489D01*
X55927Y-30489D01*
X55870Y-30460D01*
X55814Y-30404D01*
X55786Y-30292D01*
X55786Y-30095D01*
X55814Y-29982D01*
X55870Y-29926D01*
X55927Y-29898D01*
X56433Y-30095D02*
X56433Y-30685D01*
X56433Y-30123D02*
X56489Y-30095D01*
X56602Y-30095D01*
X56658Y-30123D01*
X56686Y-30151D01*
X56714Y-30207D01*
X56714Y-30376D01*
X56686Y-30432D01*
X56658Y-30460D01*
X56602Y-30489D01*
X56489Y-30489D01*
X56433Y-30460D01*
X57192Y-30460D02*
X57136Y-30489D01*
X57023Y-30489D01*
X56967Y-30460D01*
X56939Y-30404D01*
X56939Y-30179D01*
X56967Y-30123D01*
X57023Y-30095D01*
X57136Y-30095D01*
X57192Y-30123D01*
X57220Y-30179D01*
X57220Y-30235D01*
X56939Y-30292D01*
X57473Y-30095D02*
X57473Y-30489D01*
X57473Y-30151D02*
X57502Y-30123D01*
X57558Y-30095D01*
X57642Y-30095D01*
X57698Y-30123D01*
X57726Y-30179D01*
X57726Y-30489D01*
X58008Y-30489D02*
X58008Y-29898D01*
X58008Y-30179D02*
X58345Y-30179D01*
X58345Y-30489D02*
X58345Y-29898D01*
X58879Y-30489D02*
X58879Y-30179D01*
X58851Y-30123D01*
X58795Y-30095D01*
X58683Y-30095D01*
X58626Y-30123D01*
X58879Y-30460D02*
X58823Y-30489D01*
X58683Y-30489D01*
X58626Y-30460D01*
X58598Y-30404D01*
X58598Y-30348D01*
X58626Y-30292D01*
X58683Y-30264D01*
X58823Y-30264D01*
X58879Y-30235D01*
X59161Y-30489D02*
X59161Y-30095D01*
X59161Y-30207D02*
X59189Y-30151D01*
X59217Y-30123D01*
X59273Y-30095D01*
X59329Y-30095D01*
X59779Y-30489D02*
X59779Y-29898D01*
X59779Y-30460D02*
X59723Y-30489D01*
X59611Y-30489D01*
X59554Y-30460D01*
X59526Y-30432D01*
X59498Y-30376D01*
X59498Y-30207D01*
X59526Y-30151D01*
X59554Y-30123D01*
X59611Y-30095D01*
X59723Y-30095D01*
X59779Y-30123D01*
X60004Y-30095D02*
X60117Y-30489D01*
X60229Y-30207D01*
X60342Y-30489D01*
X60454Y-30095D01*
X60932Y-30489D02*
X60932Y-30179D01*
X60904Y-30123D01*
X60848Y-30095D01*
X60735Y-30095D01*
X60679Y-30123D01*
X60932Y-30460D02*
X60876Y-30489D01*
X60735Y-30489D01*
X60679Y-30460D01*
X60651Y-30404D01*
X60651Y-30348D01*
X60679Y-30292D01*
X60735Y-30264D01*
X60876Y-30264D01*
X60932Y-30235D01*
X61214Y-30489D02*
X61214Y-30095D01*
X61214Y-30207D02*
X61242Y-30151D01*
X61270Y-30123D01*
X61326Y-30095D01*
X61382Y-30095D01*
X61804Y-30460D02*
X61748Y-30489D01*
X61635Y-30489D01*
X61579Y-30460D01*
X61551Y-30404D01*
X61551Y-30179D01*
X61579Y-30123D01*
X61635Y-30095D01*
X61748Y-30095D01*
X61804Y-30123D01*
X61832Y-30179D01*
X61832Y-30235D01*
X61551Y-30292D01*
X62085Y-30179D02*
X62282Y-30179D01*
X62367Y-30489D02*
X62085Y-30489D01*
X62085Y-29898D01*
X62367Y-29898D01*
X62563Y-30489D02*
X62873Y-30095D01*
X62563Y-30095D02*
X62873Y-30489D01*
X63407Y-29926D02*
X63351Y-29898D01*
X63266Y-29898D01*
X63182Y-29926D01*
X63126Y-29982D01*
X63098Y-30039D01*
X63070Y-30151D01*
X63070Y-30235D01*
X63098Y-30348D01*
X63126Y-30404D01*
X63182Y-30460D01*
X63266Y-30489D01*
X63323Y-30489D01*
X63407Y-30460D01*
X63435Y-30432D01*
X63435Y-30235D01*
X63323Y-30235D01*
X63548Y-30545D02*
X63998Y-30545D01*
X64110Y-30460D02*
X64194Y-30489D01*
X64335Y-30489D01*
X64391Y-30460D01*
X64419Y-30432D01*
X64448Y-30376D01*
X64448Y-30320D01*
X64419Y-30264D01*
X64391Y-30235D01*
X64335Y-30207D01*
X64223Y-30179D01*
X64166Y-30151D01*
X64138Y-30123D01*
X64110Y-30067D01*
X64110Y-30010D01*
X64138Y-29954D01*
X64166Y-29926D01*
X64223Y-29898D01*
X64363Y-29898D01*
X64448Y-29926D01*
X64701Y-30489D02*
X64701Y-29898D01*
X64954Y-30489D02*
X64954Y-30179D01*
X64926Y-30123D01*
X64869Y-30095D01*
X64785Y-30095D01*
X64729Y-30123D01*
X64701Y-30151D01*
X65235Y-30489D02*
X65235Y-30095D01*
X65235Y-29898D02*
X65207Y-29926D01*
X65235Y-29954D01*
X65263Y-29926D01*
X65235Y-29898D01*
X65235Y-29954D01*
X65741Y-30460D02*
X65685Y-30489D01*
X65572Y-30489D01*
X65516Y-30460D01*
X65488Y-30404D01*
X65488Y-30179D01*
X65516Y-30123D01*
X65572Y-30095D01*
X65685Y-30095D01*
X65741Y-30123D01*
X65769Y-30179D01*
X65769Y-30235D01*
X65488Y-30292D01*
X66107Y-30489D02*
X66050Y-30460D01*
X66022Y-30404D01*
X66022Y-29898D01*
X66585Y-30489D02*
X66585Y-29898D01*
X66585Y-30460D02*
X66529Y-30489D01*
X66416Y-30489D01*
X66360Y-30460D01*
X66332Y-30432D01*
X66304Y-30376D01*
X66304Y-30207D01*
X66332Y-30151D01*
X66360Y-30123D01*
X66416Y-30095D01*
X66529Y-30095D01*
X66585Y-30123D01*
G54D12*
X50850Y-34761D02*
X50850Y-34361D01*
X51021Y-34761D02*
X51021Y-34552D01*
X51002Y-34514D01*
X50964Y-34495D01*
X50907Y-34495D01*
X50869Y-34514D01*
X50850Y-34533D01*
X51154Y-34495D02*
X51307Y-34495D01*
X51211Y-34361D02*
X51211Y-34704D01*
X51230Y-34742D01*
X51269Y-34761D01*
X51307Y-34761D01*
X51383Y-34495D02*
X51535Y-34495D01*
X51440Y-34361D02*
X51440Y-34704D01*
X51459Y-34742D01*
X51497Y-34761D01*
X51535Y-34761D01*
X51669Y-34495D02*
X51669Y-34895D01*
X51669Y-34514D02*
X51707Y-34495D01*
X51783Y-34495D01*
X51821Y-34514D01*
X51840Y-34533D01*
X51859Y-34571D01*
X51859Y-34685D01*
X51840Y-34723D01*
X51821Y-34742D01*
X51783Y-34761D01*
X51707Y-34761D01*
X51669Y-34742D01*
X52030Y-34723D02*
X52050Y-34742D01*
X52030Y-34761D01*
X52011Y-34742D01*
X52030Y-34723D01*
X52030Y-34761D01*
X52030Y-34514D02*
X52050Y-34533D01*
X52030Y-34552D01*
X52011Y-34533D01*
X52030Y-34514D01*
X52030Y-34552D01*
X52507Y-34342D02*
X52164Y-34857D01*
X52926Y-34342D02*
X52583Y-34857D01*
X53116Y-34761D02*
X53078Y-34742D01*
X53059Y-34723D01*
X53040Y-34685D01*
X53040Y-34571D01*
X53059Y-34533D01*
X53078Y-34514D01*
X53116Y-34495D01*
X53173Y-34495D01*
X53211Y-34514D01*
X53230Y-34533D01*
X53250Y-34571D01*
X53250Y-34685D01*
X53230Y-34723D01*
X53211Y-34742D01*
X53173Y-34761D01*
X53116Y-34761D01*
X53421Y-34495D02*
X53421Y-34895D01*
X53421Y-34514D02*
X53459Y-34495D01*
X53535Y-34495D01*
X53573Y-34514D01*
X53592Y-34533D01*
X53611Y-34571D01*
X53611Y-34685D01*
X53592Y-34723D01*
X53573Y-34742D01*
X53535Y-34761D01*
X53459Y-34761D01*
X53421Y-34742D01*
X53935Y-34742D02*
X53897Y-34761D01*
X53821Y-34761D01*
X53783Y-34742D01*
X53764Y-34704D01*
X53764Y-34552D01*
X53783Y-34514D01*
X53821Y-34495D01*
X53897Y-34495D01*
X53935Y-34514D01*
X53954Y-34552D01*
X53954Y-34590D01*
X53764Y-34628D01*
X54126Y-34495D02*
X54126Y-34761D01*
X54126Y-34533D02*
X54145Y-34514D01*
X54183Y-34495D01*
X54240Y-34495D01*
X54278Y-34514D01*
X54297Y-34552D01*
X54297Y-34761D01*
X54640Y-34742D02*
X54602Y-34761D01*
X54526Y-34761D01*
X54488Y-34742D01*
X54469Y-34704D01*
X54469Y-34552D01*
X54488Y-34514D01*
X54526Y-34495D01*
X54602Y-34495D01*
X54640Y-34514D01*
X54659Y-34552D01*
X54659Y-34590D01*
X54469Y-34628D01*
X54888Y-34761D02*
X54850Y-34742D01*
X54830Y-34704D01*
X54830Y-34361D01*
X55192Y-34742D02*
X55154Y-34761D01*
X55078Y-34761D01*
X55040Y-34742D01*
X55021Y-34704D01*
X55021Y-34552D01*
X55040Y-34514D01*
X55078Y-34495D01*
X55154Y-34495D01*
X55192Y-34514D01*
X55211Y-34552D01*
X55211Y-34590D01*
X55021Y-34628D01*
X55554Y-34742D02*
X55516Y-34761D01*
X55440Y-34761D01*
X55402Y-34742D01*
X55383Y-34723D01*
X55364Y-34685D01*
X55364Y-34571D01*
X55383Y-34533D01*
X55402Y-34514D01*
X55440Y-34495D01*
X55516Y-34495D01*
X55554Y-34514D01*
X55669Y-34495D02*
X55821Y-34495D01*
X55726Y-34361D02*
X55726Y-34704D01*
X55745Y-34742D01*
X55783Y-34761D01*
X55821Y-34761D01*
X55954Y-34761D02*
X55954Y-34495D01*
X55954Y-34571D02*
X55973Y-34533D01*
X55992Y-34514D01*
X56030Y-34495D01*
X56069Y-34495D01*
X56259Y-34761D02*
X56221Y-34742D01*
X56202Y-34723D01*
X56183Y-34685D01*
X56183Y-34571D01*
X56202Y-34533D01*
X56221Y-34514D01*
X56259Y-34495D01*
X56316Y-34495D01*
X56354Y-34514D01*
X56373Y-34533D01*
X56392Y-34571D01*
X56392Y-34685D01*
X56373Y-34723D01*
X56354Y-34742D01*
X56316Y-34761D01*
X56259Y-34761D01*
X56564Y-34495D02*
X56564Y-34761D01*
X56564Y-34533D02*
X56583Y-34514D01*
X56621Y-34495D01*
X56678Y-34495D01*
X56716Y-34514D01*
X56735Y-34552D01*
X56735Y-34761D01*
X56926Y-34761D02*
X56926Y-34495D01*
X56926Y-34361D02*
X56907Y-34380D01*
X56926Y-34400D01*
X56945Y-34380D01*
X56926Y-34361D01*
X56926Y-34400D01*
X57288Y-34742D02*
X57250Y-34761D01*
X57173Y-34761D01*
X57135Y-34742D01*
X57116Y-34723D01*
X57097Y-34685D01*
X57097Y-34571D01*
X57116Y-34533D01*
X57135Y-34514D01*
X57173Y-34495D01*
X57250Y-34495D01*
X57288Y-34514D01*
X57440Y-34742D02*
X57478Y-34761D01*
X57554Y-34761D01*
X57592Y-34742D01*
X57611Y-34704D01*
X57611Y-34685D01*
X57592Y-34647D01*
X57554Y-34628D01*
X57497Y-34628D01*
X57459Y-34609D01*
X57440Y-34571D01*
X57440Y-34552D01*
X57459Y-34514D01*
X57497Y-34495D01*
X57554Y-34495D01*
X57592Y-34514D01*
X57840Y-34761D02*
X57802Y-34742D01*
X57783Y-34704D01*
X57783Y-34361D01*
X58164Y-34761D02*
X58164Y-34552D01*
X58145Y-34514D01*
X58107Y-34495D01*
X58030Y-34495D01*
X57992Y-34514D01*
X58164Y-34742D02*
X58126Y-34761D01*
X58030Y-34761D01*
X57992Y-34742D01*
X57973Y-34704D01*
X57973Y-34666D01*
X57992Y-34628D01*
X58030Y-34609D01*
X58126Y-34609D01*
X58164Y-34590D01*
X58354Y-34761D02*
X58354Y-34361D01*
X58354Y-34514D02*
X58392Y-34495D01*
X58469Y-34495D01*
X58507Y-34514D01*
X58526Y-34533D01*
X58545Y-34571D01*
X58545Y-34685D01*
X58526Y-34723D01*
X58507Y-34742D01*
X58469Y-34761D01*
X58392Y-34761D01*
X58354Y-34742D01*
X58716Y-34723D02*
X58735Y-34742D01*
X58716Y-34761D01*
X58697Y-34742D01*
X58716Y-34723D01*
X58716Y-34761D01*
X59078Y-34495D02*
X59078Y-34819D01*
X59059Y-34857D01*
X59040Y-34876D01*
X59002Y-34895D01*
X58945Y-34895D01*
X58907Y-34876D01*
X59078Y-34742D02*
X59040Y-34761D01*
X58964Y-34761D01*
X58926Y-34742D01*
X58907Y-34723D01*
X58888Y-34685D01*
X58888Y-34571D01*
X58907Y-34533D01*
X58926Y-34514D01*
X58964Y-34495D01*
X59040Y-34495D01*
X59078Y-34514D01*
X59269Y-34761D02*
X59269Y-34495D01*
X59269Y-34361D02*
X59250Y-34380D01*
X59269Y-34400D01*
X59288Y-34380D01*
X59269Y-34361D01*
X59269Y-34400D01*
X59402Y-34495D02*
X59554Y-34495D01*
X59459Y-34361D02*
X59459Y-34704D01*
X59478Y-34742D01*
X59516Y-34761D01*
X59554Y-34761D01*
X59688Y-34761D02*
X59688Y-34361D01*
X59859Y-34761D02*
X59859Y-34552D01*
X59840Y-34514D01*
X59802Y-34495D01*
X59745Y-34495D01*
X59707Y-34514D01*
X59688Y-34533D01*
X60221Y-34495D02*
X60221Y-34761D01*
X60050Y-34495D02*
X60050Y-34704D01*
X60069Y-34742D01*
X60107Y-34761D01*
X60164Y-34761D01*
X60202Y-34742D01*
X60221Y-34723D01*
X60411Y-34761D02*
X60411Y-34361D01*
X60411Y-34514D02*
X60450Y-34495D01*
X60526Y-34495D01*
X60564Y-34514D01*
X60583Y-34533D01*
X60602Y-34571D01*
X60602Y-34685D01*
X60583Y-34723D01*
X60564Y-34742D01*
X60526Y-34761D01*
X60450Y-34761D01*
X60411Y-34742D01*
X60773Y-34723D02*
X60792Y-34742D01*
X60773Y-34761D01*
X60754Y-34742D01*
X60773Y-34723D01*
X60773Y-34761D01*
X60964Y-34761D02*
X60964Y-34495D01*
X60964Y-34361D02*
X60945Y-34380D01*
X60964Y-34400D01*
X60983Y-34380D01*
X60964Y-34361D01*
X60964Y-34400D01*
X61211Y-34761D02*
X61173Y-34742D01*
X61154Y-34723D01*
X61135Y-34685D01*
X61135Y-34571D01*
X61154Y-34533D01*
X61173Y-34514D01*
X61211Y-34495D01*
X61269Y-34495D01*
X61307Y-34514D01*
X61326Y-34533D01*
X61345Y-34571D01*
X61345Y-34685D01*
X61326Y-34723D01*
X61307Y-34742D01*
X61269Y-34761D01*
X61211Y-34761D01*
X61802Y-34342D02*
X61459Y-34857D01*
X62011Y-34361D02*
X62088Y-34361D01*
X62126Y-34380D01*
X62164Y-34419D01*
X62183Y-34495D01*
X62183Y-34628D01*
X62164Y-34704D01*
X62126Y-34742D01*
X62088Y-34761D01*
X62011Y-34761D01*
X61973Y-34742D01*
X61935Y-34704D01*
X61916Y-34628D01*
X61916Y-34495D01*
X61935Y-34419D01*
X61973Y-34380D01*
X62011Y-34361D01*
X62354Y-34495D02*
X62354Y-34895D01*
X62354Y-34514D02*
X62392Y-34495D01*
X62469Y-34495D01*
X62507Y-34514D01*
X62526Y-34533D01*
X62545Y-34571D01*
X62545Y-34685D01*
X62526Y-34723D01*
X62507Y-34742D01*
X62469Y-34761D01*
X62392Y-34761D01*
X62354Y-34742D01*
X62869Y-34742D02*
X62830Y-34761D01*
X62754Y-34761D01*
X62716Y-34742D01*
X62697Y-34704D01*
X62697Y-34552D01*
X62716Y-34514D01*
X62754Y-34495D01*
X62830Y-34495D01*
X62869Y-34514D01*
X62888Y-34552D01*
X62888Y-34590D01*
X62697Y-34628D01*
X63059Y-34495D02*
X63059Y-34761D01*
X63059Y-34533D02*
X63078Y-34514D01*
X63116Y-34495D01*
X63173Y-34495D01*
X63211Y-34514D01*
X63230Y-34552D01*
X63230Y-34761D01*
X63421Y-34761D02*
X63421Y-34361D01*
X63421Y-34552D02*
X63650Y-34552D01*
X63650Y-34761D02*
X63650Y-34361D01*
X64011Y-34761D02*
X64011Y-34552D01*
X63992Y-34514D01*
X63954Y-34495D01*
X63878Y-34495D01*
X63840Y-34514D01*
X64011Y-34742D02*
X63973Y-34761D01*
X63878Y-34761D01*
X63840Y-34742D01*
X63821Y-34704D01*
X63821Y-34666D01*
X63840Y-34628D01*
X63878Y-34609D01*
X63973Y-34609D01*
X64011Y-34590D01*
X64202Y-34761D02*
X64202Y-34495D01*
X64202Y-34571D02*
X64221Y-34533D01*
X64240Y-34514D01*
X64278Y-34495D01*
X64316Y-34495D01*
X64621Y-34761D02*
X64621Y-34361D01*
X64621Y-34742D02*
X64583Y-34761D01*
X64507Y-34761D01*
X64469Y-34742D01*
X64450Y-34723D01*
X64430Y-34685D01*
X64430Y-34571D01*
X64450Y-34533D01*
X64469Y-34514D01*
X64507Y-34495D01*
X64583Y-34495D01*
X64621Y-34514D01*
X64773Y-34495D02*
X64850Y-34761D01*
X64926Y-34571D01*
X65002Y-34761D01*
X65078Y-34495D01*
X65402Y-34761D02*
X65402Y-34552D01*
X65383Y-34514D01*
X65345Y-34495D01*
X65269Y-34495D01*
X65230Y-34514D01*
X65402Y-34742D02*
X65364Y-34761D01*
X65269Y-34761D01*
X65230Y-34742D01*
X65211Y-34704D01*
X65211Y-34666D01*
X65230Y-34628D01*
X65269Y-34609D01*
X65364Y-34609D01*
X65402Y-34590D01*
X65592Y-34761D02*
X65592Y-34495D01*
X65592Y-34571D02*
X65611Y-34533D01*
X65630Y-34514D01*
X65669Y-34495D01*
X65707Y-34495D01*
X65992Y-34742D02*
X65954Y-34761D01*
X65878Y-34761D01*
X65840Y-34742D01*
X65821Y-34704D01*
X65821Y-34552D01*
X65840Y-34514D01*
X65878Y-34495D01*
X65954Y-34495D01*
X65992Y-34514D01*
X66011Y-34552D01*
X66011Y-34590D01*
X65821Y-34628D01*
X66183Y-34552D02*
X66316Y-34552D01*
X66373Y-34761D02*
X66183Y-34761D01*
X66183Y-34361D01*
X66373Y-34361D01*
X66507Y-34761D02*
X66716Y-34495D01*
X66507Y-34495D02*
X66716Y-34761D01*
X67078Y-34380D02*
X67040Y-34361D01*
X66983Y-34361D01*
X66926Y-34380D01*
X66888Y-34419D01*
X66869Y-34457D01*
X66849Y-34533D01*
X66849Y-34590D01*
X66869Y-34666D01*
X66888Y-34704D01*
X66926Y-34742D01*
X66983Y-34761D01*
X67021Y-34761D01*
X67078Y-34742D01*
X67097Y-34723D01*
X67097Y-34590D01*
X67021Y-34590D01*
X67173Y-34800D02*
X67478Y-34800D01*
X67554Y-34742D02*
X67611Y-34761D01*
X67707Y-34761D01*
X67745Y-34742D01*
X67764Y-34723D01*
X67783Y-34685D01*
X67783Y-34647D01*
X67764Y-34609D01*
X67745Y-34590D01*
X67707Y-34571D01*
X67630Y-34552D01*
X67592Y-34533D01*
X67573Y-34514D01*
X67554Y-34476D01*
X67554Y-34438D01*
X67573Y-34400D01*
X67592Y-34380D01*
X67630Y-34361D01*
X67726Y-34361D01*
X67783Y-34380D01*
X67954Y-34761D02*
X67954Y-34361D01*
X68126Y-34761D02*
X68126Y-34552D01*
X68107Y-34514D01*
X68069Y-34495D01*
X68011Y-34495D01*
X67973Y-34514D01*
X67954Y-34533D01*
X68316Y-34761D02*
X68316Y-34495D01*
X68316Y-34361D02*
X68297Y-34380D01*
X68316Y-34400D01*
X68335Y-34380D01*
X68316Y-34361D01*
X68316Y-34400D01*
X68659Y-34742D02*
X68621Y-34761D01*
X68545Y-34761D01*
X68507Y-34742D01*
X68488Y-34704D01*
X68488Y-34552D01*
X68507Y-34514D01*
X68545Y-34495D01*
X68621Y-34495D01*
X68659Y-34514D01*
X68678Y-34552D01*
X68678Y-34590D01*
X68488Y-34628D01*
X68907Y-34761D02*
X68869Y-34742D01*
X68849Y-34704D01*
X68849Y-34361D01*
X69230Y-34761D02*
X69230Y-34361D01*
X69230Y-34742D02*
X69192Y-34761D01*
X69116Y-34761D01*
X69078Y-34742D01*
X69059Y-34723D01*
X69040Y-34685D01*
X69040Y-34571D01*
X69059Y-34533D01*
X69078Y-34514D01*
X69116Y-34495D01*
X69192Y-34495D01*
X69230Y-34514D01*
X69707Y-34342D02*
X69364Y-34857D01*
G54D13*
X47489Y-17776D02*
X46898Y-17776D01*
X47460Y-17523D02*
X47489Y-17466D01*
X47489Y-17354D01*
X47460Y-17298D01*
X47404Y-17270D01*
X47376Y-17270D01*
X47320Y-17298D01*
X47292Y-17354D01*
X47292Y-17438D01*
X47264Y-17494D01*
X47207Y-17523D01*
X47179Y-17523D01*
X47123Y-17494D01*
X47095Y-17438D01*
X47095Y-17354D01*
X47123Y-17298D01*
X47489Y-16932D02*
X47460Y-16988D01*
X47432Y-17016D01*
X47376Y-17045D01*
X47207Y-17045D01*
X47151Y-17016D01*
X47123Y-16988D01*
X47095Y-16932D01*
X47095Y-16848D01*
X47123Y-16791D01*
X47151Y-16763D01*
X47207Y-16735D01*
X47376Y-16735D01*
X47432Y-16763D01*
X47460Y-16791D01*
X47489Y-16848D01*
X47489Y-16932D01*
X47489Y-16398D02*
X47460Y-16454D01*
X47404Y-16482D01*
X46898Y-16482D01*
X47489Y-15920D02*
X47179Y-15920D01*
X47123Y-15948D01*
X47095Y-16004D01*
X47095Y-16117D01*
X47123Y-16173D01*
X47460Y-15920D02*
X47489Y-15976D01*
X47489Y-16117D01*
X47460Y-16173D01*
X47404Y-16201D01*
X47348Y-16201D01*
X47292Y-16173D01*
X47264Y-16117D01*
X47264Y-15976D01*
X47235Y-15920D01*
X47095Y-15723D02*
X47095Y-15498D01*
X46898Y-15638D02*
X47404Y-15638D01*
X47460Y-15610D01*
X47489Y-15554D01*
X47489Y-15498D01*
X47489Y-15301D02*
X47095Y-15301D01*
X46898Y-15301D02*
X46926Y-15329D01*
X46954Y-15301D01*
X46926Y-15273D01*
X46898Y-15301D01*
X46954Y-15301D01*
X47489Y-14935D02*
X47460Y-14992D01*
X47432Y-15020D01*
X47376Y-15048D01*
X47207Y-15048D01*
X47151Y-15020D01*
X47123Y-14992D01*
X47095Y-14935D01*
X47095Y-14851D01*
X47123Y-14795D01*
X47151Y-14767D01*
X47207Y-14739D01*
X47376Y-14739D01*
X47432Y-14767D01*
X47460Y-14795D01*
X47489Y-14851D01*
X47489Y-14935D01*
X47095Y-14485D02*
X47489Y-14485D01*
X47151Y-14485D02*
X47123Y-14457D01*
X47095Y-14401D01*
X47095Y-14317D01*
X47123Y-14261D01*
X47179Y-14232D01*
X47489Y-14232D01*
X46926Y-13192D02*
X46898Y-13248D01*
X46898Y-13333D01*
X46926Y-13417D01*
X46982Y-13473D01*
X47039Y-13501D01*
X47151Y-13529D01*
X47235Y-13529D01*
X47348Y-13501D01*
X47404Y-13473D01*
X47460Y-13417D01*
X47489Y-13333D01*
X47489Y-13276D01*
X47460Y-13192D01*
X47432Y-13164D01*
X47235Y-13164D01*
X47235Y-13276D01*
X47489Y-12658D02*
X47179Y-12658D01*
X47123Y-12686D01*
X47095Y-12742D01*
X47095Y-12854D01*
X47123Y-12911D01*
X47460Y-12658D02*
X47489Y-12714D01*
X47489Y-12854D01*
X47460Y-12911D01*
X47404Y-12939D01*
X47348Y-12939D01*
X47292Y-12911D01*
X47264Y-12854D01*
X47264Y-12714D01*
X47235Y-12658D01*
X47095Y-12376D02*
X47685Y-12376D01*
X47123Y-12376D02*
X47095Y-12320D01*
X47095Y-12208D01*
X47123Y-12151D01*
X47151Y-12123D01*
X47207Y-12095D01*
X47376Y-12095D01*
X47432Y-12123D01*
X47460Y-12151D01*
X47489Y-12208D01*
X47489Y-12320D01*
X47460Y-12376D01*
G54D14*
X49000Y-11500D02*
X49000Y-35000D01*
G54D12*
X40880Y-13740D02*
X40861Y-13778D01*
X40861Y-13835D01*
X40880Y-13892D01*
X40919Y-13930D01*
X40957Y-13950D01*
X41033Y-13969D01*
X41090Y-13969D01*
X41166Y-13950D01*
X41204Y-13930D01*
X41242Y-13892D01*
X41261Y-13835D01*
X41261Y-13797D01*
X41242Y-13740D01*
X41223Y-13721D01*
X41090Y-13721D01*
X41090Y-13797D01*
X41261Y-13550D02*
X40861Y-13550D01*
X40861Y-13397D01*
X40880Y-13359D01*
X40900Y-13340D01*
X40938Y-13321D01*
X40995Y-13321D01*
X41033Y-13340D01*
X41052Y-13359D01*
X41071Y-13397D01*
X41071Y-13550D01*
X41261Y-13150D02*
X40861Y-13150D01*
X40861Y-12883D02*
X40861Y-12807D01*
X40880Y-12769D01*
X40919Y-12730D01*
X40995Y-12711D01*
X41128Y-12711D01*
X41204Y-12730D01*
X41242Y-12769D01*
X41261Y-12807D01*
X41261Y-12883D01*
X41242Y-12921D01*
X41204Y-12959D01*
X41128Y-12978D01*
X40995Y-12978D01*
X40919Y-12959D01*
X40880Y-12921D01*
X40861Y-12883D01*
X41261Y-12330D02*
X41261Y-12559D01*
X41261Y-12445D02*
X40861Y-12445D01*
X40919Y-12483D01*
X40957Y-12521D01*
X40976Y-12559D01*
X39780Y-13740D02*
X39761Y-13778D01*
X39761Y-13835D01*
X39780Y-13892D01*
X39819Y-13930D01*
X39857Y-13950D01*
X39933Y-13969D01*
X39990Y-13969D01*
X40066Y-13950D01*
X40104Y-13930D01*
X40142Y-13892D01*
X40161Y-13835D01*
X40161Y-13797D01*
X40142Y-13740D01*
X40123Y-13721D01*
X39990Y-13721D01*
X39990Y-13797D01*
X40161Y-13550D02*
X39761Y-13550D01*
X39761Y-13397D01*
X39780Y-13359D01*
X39800Y-13340D01*
X39838Y-13321D01*
X39895Y-13321D01*
X39933Y-13340D01*
X39952Y-13359D01*
X39971Y-13397D01*
X39971Y-13550D01*
X40161Y-13150D02*
X39761Y-13150D01*
X39761Y-12883D02*
X39761Y-12807D01*
X39780Y-12769D01*
X39819Y-12730D01*
X39895Y-12711D01*
X40028Y-12711D01*
X40104Y-12730D01*
X40142Y-12769D01*
X40161Y-12807D01*
X40161Y-12883D01*
X40142Y-12921D01*
X40104Y-12959D01*
X40028Y-12978D01*
X39895Y-12978D01*
X39819Y-12959D01*
X39780Y-12921D01*
X39761Y-12883D01*
X39800Y-12559D02*
X39780Y-12540D01*
X39761Y-12502D01*
X39761Y-12407D01*
X39780Y-12369D01*
X39800Y-12350D01*
X39838Y-12330D01*
X39876Y-12330D01*
X39933Y-12350D01*
X40161Y-12578D01*
X40161Y-12330D01*
X38780Y-13740D02*
X38761Y-13778D01*
X38761Y-13835D01*
X38780Y-13892D01*
X38819Y-13930D01*
X38857Y-13950D01*
X38933Y-13969D01*
X38990Y-13969D01*
X39066Y-13950D01*
X39104Y-13930D01*
X39142Y-13892D01*
X39161Y-13835D01*
X39161Y-13797D01*
X39142Y-13740D01*
X39123Y-13721D01*
X38990Y-13721D01*
X38990Y-13797D01*
X39161Y-13550D02*
X38761Y-13550D01*
X38761Y-13397D01*
X38780Y-13359D01*
X38800Y-13340D01*
X38838Y-13321D01*
X38895Y-13321D01*
X38933Y-13340D01*
X38952Y-13359D01*
X38971Y-13397D01*
X38971Y-13550D01*
X39161Y-13150D02*
X38761Y-13150D01*
X38761Y-12883D02*
X38761Y-12807D01*
X38780Y-12769D01*
X38819Y-12730D01*
X38895Y-12711D01*
X39028Y-12711D01*
X39104Y-12730D01*
X39142Y-12769D01*
X39161Y-12807D01*
X39161Y-12883D01*
X39142Y-12921D01*
X39104Y-12959D01*
X39028Y-12978D01*
X38895Y-12978D01*
X38819Y-12959D01*
X38780Y-12921D01*
X38761Y-12883D01*
X38761Y-12578D02*
X38761Y-12330D01*
X38914Y-12464D01*
X38914Y-12407D01*
X38933Y-12369D01*
X38952Y-12350D01*
X38990Y-12330D01*
X39085Y-12330D01*
X39123Y-12350D01*
X39142Y-12369D01*
X39161Y-12407D01*
X39161Y-12521D01*
X39142Y-12559D01*
X39123Y-12578D01*
X37780Y-13740D02*
X37761Y-13778D01*
X37761Y-13835D01*
X37780Y-13892D01*
X37819Y-13930D01*
X37857Y-13950D01*
X37933Y-13969D01*
X37990Y-13969D01*
X38066Y-13950D01*
X38104Y-13930D01*
X38142Y-13892D01*
X38161Y-13835D01*
X38161Y-13797D01*
X38142Y-13740D01*
X38123Y-13721D01*
X37990Y-13721D01*
X37990Y-13797D01*
X38161Y-13550D02*
X37761Y-13550D01*
X37761Y-13397D01*
X37780Y-13359D01*
X37800Y-13340D01*
X37838Y-13321D01*
X37895Y-13321D01*
X37933Y-13340D01*
X37952Y-13359D01*
X37971Y-13397D01*
X37971Y-13550D01*
X38161Y-13150D02*
X37761Y-13150D01*
X37761Y-12883D02*
X37761Y-12807D01*
X37780Y-12769D01*
X37819Y-12730D01*
X37895Y-12711D01*
X38028Y-12711D01*
X38104Y-12730D01*
X38142Y-12769D01*
X38161Y-12807D01*
X38161Y-12883D01*
X38142Y-12921D01*
X38104Y-12959D01*
X38028Y-12978D01*
X37895Y-12978D01*
X37819Y-12959D01*
X37780Y-12921D01*
X37761Y-12883D01*
X37895Y-12369D02*
X38161Y-12369D01*
X37742Y-12464D02*
X38028Y-12559D01*
X38028Y-12311D01*
X36780Y-13704D02*
X36761Y-13742D01*
X36761Y-13800D01*
X36780Y-13857D01*
X36819Y-13895D01*
X36857Y-13914D01*
X36933Y-13933D01*
X36990Y-13933D01*
X37066Y-13914D01*
X37104Y-13895D01*
X37142Y-13857D01*
X37161Y-13800D01*
X37161Y-13761D01*
X37142Y-13704D01*
X37123Y-13685D01*
X36990Y-13685D01*
X36990Y-13761D01*
X37161Y-13514D02*
X36761Y-13514D01*
X37161Y-13285D01*
X36761Y-13285D01*
X37161Y-13095D02*
X36761Y-13095D01*
X36761Y-12999D01*
X36780Y-12942D01*
X36819Y-12904D01*
X36857Y-12885D01*
X36933Y-12866D01*
X36990Y-12866D01*
X37066Y-12885D01*
X37104Y-12904D01*
X37142Y-12942D01*
X37161Y-12999D01*
X37161Y-13095D01*
X35047Y-13916D02*
X35047Y-13726D01*
X35161Y-13954D02*
X34761Y-13821D01*
X35161Y-13688D01*
X34761Y-13611D02*
X35161Y-13478D01*
X34761Y-13345D01*
X35123Y-12983D02*
X35142Y-13002D01*
X35161Y-13059D01*
X35161Y-13097D01*
X35142Y-13154D01*
X35104Y-13192D01*
X35066Y-13211D01*
X34990Y-13230D01*
X34933Y-13230D01*
X34857Y-13211D01*
X34819Y-13192D01*
X34780Y-13154D01*
X34761Y-13097D01*
X34761Y-13059D01*
X34780Y-13002D01*
X34800Y-12983D01*
X35123Y-12583D02*
X35142Y-12602D01*
X35161Y-12659D01*
X35161Y-12697D01*
X35142Y-12754D01*
X35104Y-12792D01*
X35066Y-12811D01*
X34990Y-12830D01*
X34933Y-12830D01*
X34857Y-12811D01*
X34819Y-12792D01*
X34780Y-12754D01*
X34761Y-12697D01*
X34761Y-12659D01*
X34780Y-12602D01*
X34800Y-12583D01*
G54D15*
X25675Y-28000D02*
X26124Y-28000D01*
X25675Y-29129D02*
X26124Y-29129D01*
X25900Y-29281D02*
X25900Y-28977D01*
X25675Y-30000D02*
X26124Y-30000D01*
X25675Y-31129D02*
X26124Y-31129D01*
X25900Y-31281D02*
X25900Y-30977D01*
X25675Y-24000D02*
X26124Y-24000D01*
X25675Y-25129D02*
X26124Y-25129D01*
X25900Y-25281D02*
X25900Y-24977D01*
X25675Y-22000D02*
X26124Y-22000D01*
X25675Y-23129D02*
X26124Y-23129D01*
X25900Y-23281D02*
X25900Y-22977D01*
X25675Y-20000D02*
X26124Y-20000D01*
X25675Y-21129D02*
X26124Y-21129D01*
X25900Y-21281D02*
X25900Y-20977D01*
X25675Y-18000D02*
X26124Y-18000D01*
X25675Y-19129D02*
X26124Y-19129D01*
X25900Y-19281D02*
X25900Y-18977D01*
X25675Y-26000D02*
X26124Y-26000D01*
X25675Y-27129D02*
X26124Y-27129D01*
X25900Y-27281D02*
X25900Y-26977D01*
X25675Y-17209D02*
X26124Y-17209D01*
X25900Y-17361D02*
X25900Y-17057D01*
X25675Y-16009D02*
X26124Y-16009D01*
G54D12*
X24902Y-32745D02*
X24902Y-32935D01*
X24788Y-32707D02*
X25188Y-32840D01*
X24788Y-32973D01*
X25169Y-33316D02*
X25188Y-33278D01*
X25188Y-33221D01*
X25169Y-33164D01*
X25130Y-33126D01*
X25092Y-33107D01*
X25016Y-33088D01*
X24959Y-33088D01*
X24883Y-33107D01*
X24845Y-33126D01*
X24807Y-33164D01*
X24788Y-33221D01*
X24788Y-33259D01*
X24807Y-33316D01*
X24826Y-33335D01*
X24959Y-33335D01*
X24959Y-33259D01*
X24788Y-33507D02*
X25188Y-33507D01*
X24788Y-33735D01*
X25188Y-33735D01*
X24788Y-33926D02*
X25188Y-33926D01*
X25188Y-34021D01*
X25169Y-34078D01*
X25130Y-34116D01*
X25092Y-34135D01*
X25016Y-34154D01*
X24959Y-34154D01*
X24883Y-34135D01*
X24845Y-34116D01*
X24807Y-34078D01*
X24788Y-34021D01*
X24788Y-33926D01*
G54D13*
X26068Y-30739D02*
X25731Y-30739D01*
X25900Y-30739D02*
X25900Y-30148D01*
X25843Y-30232D01*
X25787Y-30289D01*
X25731Y-30317D01*
X25731Y-28250D02*
X25759Y-28226D01*
X25815Y-28202D01*
X25956Y-28202D01*
X26012Y-28226D01*
X26040Y-28250D01*
X26068Y-28297D01*
X26068Y-28345D01*
X26040Y-28416D01*
X25703Y-28702D01*
X26068Y-28702D01*
X25703Y-26202D02*
X26068Y-26202D01*
X25871Y-26392D01*
X25956Y-26392D01*
X26012Y-26416D01*
X26040Y-26440D01*
X26068Y-26488D01*
X26068Y-26607D01*
X26040Y-26654D01*
X26012Y-26678D01*
X25956Y-26702D01*
X25787Y-26702D01*
X25731Y-26678D01*
X25703Y-26654D01*
X26012Y-24445D02*
X26012Y-24839D01*
X25871Y-24220D02*
X25731Y-24642D01*
X26096Y-24642D01*
X26040Y-22202D02*
X25759Y-22202D01*
X25731Y-22440D01*
X25759Y-22416D01*
X25815Y-22392D01*
X25956Y-22392D01*
X26012Y-22416D01*
X26040Y-22440D01*
X26068Y-22488D01*
X26068Y-22607D01*
X26040Y-22654D01*
X26012Y-22678D01*
X25956Y-22702D01*
X25815Y-22702D01*
X25759Y-22678D01*
X25731Y-22654D01*
X26012Y-20302D02*
X25900Y-20302D01*
X25843Y-20326D01*
X25815Y-20350D01*
X25759Y-20421D01*
X25731Y-20516D01*
X25731Y-20707D01*
X25759Y-20754D01*
X25787Y-20778D01*
X25843Y-20802D01*
X25956Y-20802D01*
X26012Y-20778D01*
X26040Y-20754D01*
X26068Y-20707D01*
X26068Y-20588D01*
X26040Y-20540D01*
X26012Y-20516D01*
X25956Y-20492D01*
X25843Y-20492D01*
X25787Y-20516D01*
X25759Y-20540D01*
X25731Y-20588D01*
X25703Y-18202D02*
X26096Y-18202D01*
X25843Y-18702D01*
X25843Y-16516D02*
X25787Y-16492D01*
X25759Y-16469D01*
X25731Y-16421D01*
X25731Y-16397D01*
X25759Y-16350D01*
X25787Y-16326D01*
X25843Y-16302D01*
X25956Y-16302D01*
X26012Y-16326D01*
X26040Y-16350D01*
X26068Y-16397D01*
X26068Y-16421D01*
X26040Y-16469D01*
X26012Y-16492D01*
X25956Y-16516D01*
X25843Y-16516D01*
X25787Y-16540D01*
X25759Y-16564D01*
X25731Y-16611D01*
X25731Y-16707D01*
X25759Y-16754D01*
X25787Y-16778D01*
X25843Y-16802D01*
X25956Y-16802D01*
X26012Y-16778D01*
X26040Y-16754D01*
X26068Y-16707D01*
X26068Y-16611D01*
X26040Y-16564D01*
X26012Y-16540D01*
X25956Y-16516D01*
X24648Y-14239D02*
X24451Y-13957D01*
X24311Y-14239D02*
X24311Y-13648D01*
X24535Y-13648D01*
X24592Y-13676D01*
X24620Y-13704D01*
X24648Y-13760D01*
X24648Y-13845D01*
X24620Y-13901D01*
X24592Y-13929D01*
X24535Y-13957D01*
X24311Y-13957D01*
X25182Y-14239D02*
X24901Y-14239D01*
X24901Y-13648D01*
X25379Y-14239D02*
X25379Y-13648D01*
X25520Y-13648D01*
X25604Y-13676D01*
X25660Y-13732D01*
X25688Y-13789D01*
X25717Y-13901D01*
X25717Y-13985D01*
X25688Y-14098D01*
X25660Y-14154D01*
X25604Y-14210D01*
X25520Y-14239D01*
X25379Y-14239D01*
G54D16*
X59250Y-13000D02*
G75*
G03X59250Y-13000I-1250J0D01*
G74*
G01*
X70250Y-13000D02*
G75*
G03X70250Y-13000I-1250J0D01*
G74*
G01*
X72250Y-33500D02*
G75*
G03X72250Y-33500I-1250J0D01*
G74*
G01*
X53250Y-33000D02*
G75*
G03X53250Y-33000I-1250J0D01*
G74*
G01*
G54D14*
X45500Y-11500D02*
X45500Y-35000D01*
G54D17*
G36*
X30834Y-34761D02*
X30847Y-34754D01*
X30874Y-34737D01*
X30914Y-34711D01*
X30960Y-34680D01*
X31007Y-34648D01*
X31046Y-34622D01*
X31073Y-34605D01*
X31084Y-34599D01*
X31090Y-34601D01*
X31112Y-34612D01*
X31144Y-34629D01*
X31163Y-34638D01*
X31193Y-34651D01*
X31207Y-34654D01*
X31210Y-34650D01*
X31221Y-34627D01*
X31238Y-34588D01*
X31260Y-34537D01*
X31286Y-34477D01*
X31313Y-34412D01*
X31340Y-34346D01*
X31366Y-34284D01*
X31390Y-34227D01*
X31408Y-34181D01*
X31420Y-34149D01*
X31425Y-34135D01*
X31423Y-34132D01*
X31409Y-34118D01*
X31383Y-34099D01*
X31327Y-34053D01*
X31272Y-33984D01*
X31238Y-33906D01*
X31227Y-33819D01*
X31236Y-33739D01*
X31268Y-33662D01*
X31322Y-33592D01*
X31388Y-33540D01*
X31464Y-33508D01*
X31550Y-33497D01*
X31632Y-33506D01*
X31711Y-33537D01*
X31781Y-33590D01*
X31810Y-33624D01*
X31851Y-33695D01*
X31874Y-33770D01*
X31876Y-33789D01*
X31873Y-33872D01*
X31848Y-33952D01*
X31805Y-34023D01*
X31744Y-34081D01*
X31736Y-34087D01*
X31708Y-34108D01*
X31689Y-34122D01*
X31674Y-34134D01*
X31780Y-34389D01*
X31797Y-34429D01*
X31826Y-34498D01*
X31851Y-34558D01*
X31872Y-34606D01*
X31886Y-34638D01*
X31892Y-34651D01*
X31893Y-34651D01*
X31902Y-34653D01*
X31921Y-34646D01*
X31957Y-34629D01*
X31980Y-34617D01*
X32007Y-34604D01*
X32019Y-34599D01*
X32030Y-34604D01*
X32056Y-34621D01*
X32093Y-34647D01*
X32139Y-34677D01*
X32182Y-34707D01*
X32222Y-34733D01*
X32251Y-34752D01*
X32265Y-34759D01*
X32267Y-34759D01*
X32280Y-34752D01*
X32303Y-34733D01*
X32337Y-34700D01*
X32386Y-34652D01*
X32394Y-34645D01*
X32434Y-34604D01*
X32467Y-34569D01*
X32489Y-34545D01*
X32497Y-34534D01*
X32497Y-34534D01*
X32489Y-34520D01*
X32471Y-34491D01*
X32445Y-34451D01*
X32413Y-34403D01*
X32328Y-34281D01*
X32375Y-34166D01*
X32389Y-34130D01*
X32407Y-34087D01*
X32420Y-34057D01*
X32427Y-34043D01*
X32440Y-34039D01*
X32471Y-34031D01*
X32517Y-34022D01*
X32572Y-34012D01*
X32624Y-34002D01*
X32671Y-33993D01*
X32705Y-33987D01*
X32720Y-33984D01*
X32724Y-33981D01*
X32727Y-33974D01*
X32729Y-33958D01*
X32730Y-33929D01*
X32731Y-33884D01*
X32731Y-33819D01*
X32731Y-33812D01*
X32730Y-33750D01*
X32729Y-33701D01*
X32727Y-33669D01*
X32725Y-33656D01*
X32725Y-33656D01*
X32710Y-33652D01*
X32677Y-33645D01*
X32630Y-33636D01*
X32574Y-33625D01*
X32570Y-33625D01*
X32514Y-33614D01*
X32468Y-33604D01*
X32435Y-33597D01*
X32421Y-33592D01*
X32418Y-33588D01*
X32407Y-33566D01*
X32391Y-33532D01*
X32372Y-33490D01*
X32354Y-33446D01*
X32338Y-33406D01*
X32328Y-33377D01*
X32325Y-33363D01*
X32325Y-33363D01*
X32333Y-33350D01*
X32352Y-33321D01*
X32380Y-33281D01*
X32412Y-33233D01*
X32415Y-33229D01*
X32447Y-33182D01*
X32473Y-33142D01*
X32490Y-33114D01*
X32497Y-33101D01*
X32497Y-33100D01*
X32486Y-33086D01*
X32462Y-33059D01*
X32427Y-33023D01*
X32386Y-32982D01*
X32373Y-32969D01*
X32327Y-32924D01*
X32295Y-32895D01*
X32275Y-32879D01*
X32266Y-32875D01*
X32265Y-32876D01*
X32251Y-32884D01*
X32221Y-32904D01*
X32181Y-32931D01*
X32133Y-32964D01*
X32130Y-32966D01*
X32082Y-32998D01*
X32043Y-33025D01*
X32015Y-33043D01*
X32003Y-33050D01*
X32001Y-33050D01*
X31982Y-33045D01*
X31948Y-33033D01*
X31907Y-33017D01*
X31863Y-33000D01*
X31823Y-32983D01*
X31794Y-32969D01*
X31780Y-32961D01*
X31779Y-32961D01*
X31774Y-32944D01*
X31766Y-32908D01*
X31756Y-32860D01*
X31745Y-32802D01*
X31743Y-32793D01*
X31733Y-32736D01*
X31724Y-32690D01*
X31717Y-32658D01*
X31714Y-32644D01*
X31706Y-32643D01*
X31678Y-32641D01*
X31636Y-32639D01*
X31585Y-32639D01*
X31532Y-32639D01*
X31480Y-32640D01*
X31436Y-32642D01*
X31404Y-32644D01*
X31390Y-32647D01*
X31390Y-32648D01*
X31385Y-32665D01*
X31377Y-32700D01*
X31367Y-32749D01*
X31356Y-32807D01*
X31354Y-32818D01*
X31344Y-32874D01*
X31334Y-32920D01*
X31327Y-32951D01*
X31324Y-32964D01*
X31319Y-32966D01*
X31296Y-32977D01*
X31258Y-32992D01*
X31211Y-33011D01*
X31103Y-33055D01*
X30971Y-32964D01*
X30959Y-32956D01*
X30911Y-32923D01*
X30872Y-32897D01*
X30844Y-32880D01*
X30833Y-32873D01*
X30832Y-32874D01*
X30819Y-32885D01*
X30793Y-32910D01*
X30757Y-32945D01*
X30715Y-32986D01*
X30684Y-33017D01*
X30648Y-33054D01*
X30625Y-33079D01*
X30612Y-33095D01*
X30607Y-33105D01*
X30609Y-33112D01*
X30617Y-33125D01*
X30637Y-33154D01*
X30664Y-33195D01*
X30696Y-33241D01*
X30723Y-33281D01*
X30752Y-33325D01*
X30770Y-33357D01*
X30777Y-33372D01*
X30775Y-33379D01*
X30766Y-33405D01*
X30750Y-33444D01*
X30730Y-33491D01*
X30684Y-33596D01*
X30615Y-33609D01*
X30574Y-33617D01*
X30515Y-33628D01*
X30459Y-33639D01*
X30372Y-33656D01*
X30369Y-33975D01*
X30383Y-33981D01*
X30396Y-33985D01*
X30428Y-33992D01*
X30474Y-34001D01*
X30528Y-34011D01*
X30575Y-34020D01*
X30621Y-34029D01*
X30655Y-34035D01*
X30670Y-34038D01*
X30673Y-34043D01*
X30685Y-34066D01*
X30702Y-34102D01*
X30720Y-34145D01*
X30739Y-34190D01*
X30755Y-34231D01*
X30767Y-34263D01*
X30771Y-34279D01*
X30765Y-34291D01*
X30747Y-34319D01*
X30721Y-34358D01*
X30690Y-34404D01*
X30658Y-34451D01*
X30631Y-34490D01*
X30612Y-34519D01*
X30605Y-34532D01*
X30609Y-34541D01*
X30627Y-34563D01*
X30662Y-34599D01*
X30714Y-34651D01*
X30723Y-34659D01*
X30764Y-34699D01*
X30799Y-34731D01*
X30823Y-34753D01*
X30834Y-34761D01*
X30834Y-34761D01*
G37*
G54D16*
X28250Y-33500D02*
G75*
G03X28250Y-33500I-1250J0D01*
G74*
G01*
X28250Y-13000D02*
G75*
G03X28250Y-13000I-1250J0D01*
G74*
G01*
G54D12*
X35582Y-21932D02*
G75*
G03X35582Y-21932I-150J0D01*
G74*
G01*
X39032Y-25532D02*
X39032Y-21532D01*
X39032Y-21532D02*
X35282Y-21532D01*
X35282Y-21532D02*
X35032Y-21782D01*
X35032Y-21782D02*
X35032Y-25532D01*
X35032Y-25532D02*
X39032Y-25532D01*
G54D18*
X41200Y-26963D02*
G75*
G03X41200Y-26963I-62J0D01*
G74*
G01*
X40800Y-26000D02*
X41200Y-26000D01*
X40800Y-27025D02*
X41200Y-27025D01*
X41200Y-26000D02*
X41200Y-27025D01*
X40800Y-27025D02*
X40800Y-26000D01*
X32950Y-32213D02*
G75*
G03X32950Y-32213I-62J0D01*
G74*
G01*
X32550Y-31250D02*
X32950Y-31250D01*
X32550Y-32275D02*
X32950Y-32275D01*
X32950Y-31250D02*
X32950Y-32275D01*
X32550Y-32275D02*
X32550Y-31250D01*
G54D12*
X40650Y-30150D02*
X40650Y-28950D01*
X40650Y-28950D02*
X37850Y-28950D01*
X37850Y-28950D02*
X37850Y-30150D01*
X40650Y-31350D02*
X40650Y-31650D01*
X40650Y-31650D02*
X40050Y-32550D01*
X40050Y-32550D02*
X38450Y-32550D01*
X38450Y-32550D02*
X37850Y-31650D01*
X37850Y-31650D02*
X37850Y-31350D01*
X48800Y-32400D02*
X45650Y-32400D01*
X45650Y-28100D02*
X48800Y-28100D01*
X45650Y-32400D02*
X45650Y-28100D01*
X48800Y-28100D02*
X48800Y-32400D01*
X47050Y-32400D02*
X47050Y-32100D01*
X47050Y-32100D02*
X47450Y-32100D01*
X47450Y-32100D02*
X47450Y-32400D01*
X48800Y-25150D02*
X45650Y-25150D01*
X45650Y-20850D02*
X48800Y-20850D01*
X45650Y-25150D02*
X45650Y-20850D01*
X48800Y-20850D02*
X48800Y-25150D01*
X47050Y-25150D02*
X47050Y-24850D01*
X47050Y-24850D02*
X47450Y-24850D01*
X47450Y-24850D02*
X47450Y-25150D01*
X60550Y-28150D02*
X60550Y-24350D01*
X60550Y-24350D02*
X62050Y-24350D01*
X62050Y-24350D02*
X62050Y-28150D01*
X62050Y-28150D02*
X60550Y-28150D01*
X61050Y-28150D02*
X61050Y-27850D01*
X61050Y-27850D02*
X61450Y-27850D01*
X61450Y-27850D02*
X61450Y-28150D01*
X65050Y-22150D02*
X65050Y-18350D01*
X65050Y-18350D02*
X66550Y-18350D01*
X66550Y-18350D02*
X66550Y-22150D01*
X66550Y-22150D02*
X65050Y-22150D01*
X65550Y-22150D02*
X65550Y-21850D01*
X65550Y-21850D02*
X65950Y-21850D01*
X65950Y-21850D02*
X65950Y-22150D01*
X57050Y-22150D02*
X57050Y-18350D01*
X57050Y-18350D02*
X58550Y-18350D01*
X58550Y-18350D02*
X58550Y-22150D01*
X58550Y-22150D02*
X57050Y-22150D01*
X57550Y-22150D02*
X57550Y-21850D01*
X57550Y-21850D02*
X57950Y-21850D01*
X57950Y-21850D02*
X57950Y-22150D01*
G54D19*
X35577Y-28925D02*
X33923Y-28925D01*
X35577Y-28807D02*
X33923Y-28807D01*
X35577Y-32193D02*
X33923Y-32193D01*
X33921Y-31286D02*
X33921Y-32186D01*
X35579Y-32186D02*
X35579Y-31286D01*
X35579Y-29713D02*
X35579Y-28813D01*
X33921Y-28814D02*
X33921Y-29714D01*
G54D20*
X54350Y-31650D02*
G75*
G03X54350Y-31650I-50J0D01*
G74*
G01*
X54300Y-31200D02*
X54300Y-31600D01*
X54300Y-31600D02*
X53700Y-31600D01*
X53700Y-31600D02*
X53700Y-31200D01*
X53700Y-30800D02*
X53700Y-30400D01*
X53700Y-30400D02*
X54300Y-30400D01*
X54300Y-30400D02*
X54300Y-30800D01*
X54350Y-29650D02*
G75*
G03X54350Y-29650I-50J0D01*
G74*
G01*
X54300Y-29200D02*
X54300Y-29600D01*
X54300Y-29600D02*
X53700Y-29600D01*
X53700Y-29600D02*
X53700Y-29200D01*
X53700Y-28800D02*
X53700Y-28400D01*
X53700Y-28400D02*
X54300Y-28400D01*
X54300Y-28400D02*
X54300Y-28800D01*
X55650Y-31550D02*
G75*
G03X55650Y-31550I-50J0D01*
G74*
G01*
X56050Y-31550D02*
X55650Y-31550D01*
X55650Y-31550D02*
X55650Y-30950D01*
X55650Y-30950D02*
X56050Y-30950D01*
X56450Y-30950D02*
X56850Y-30950D01*
X56850Y-30950D02*
X56850Y-31550D01*
X56850Y-31550D02*
X56450Y-31550D01*
X42850Y-28900D02*
G75*
G03X42850Y-28900I-50J0D01*
G74*
G01*
X42800Y-28450D02*
X42800Y-28850D01*
X42800Y-28850D02*
X42200Y-28850D01*
X42200Y-28850D02*
X42200Y-28450D01*
X42200Y-28050D02*
X42200Y-27650D01*
X42200Y-27650D02*
X42800Y-27650D01*
X42800Y-27650D02*
X42800Y-28050D01*
X43100Y-32400D02*
G75*
G03X43100Y-32400I-50J0D01*
G74*
G01*
X43050Y-31950D02*
X43050Y-32350D01*
X43050Y-32350D02*
X42450Y-32350D01*
X42450Y-32350D02*
X42450Y-31950D01*
X42450Y-31550D02*
X42450Y-31150D01*
X42450Y-31150D02*
X43050Y-31150D01*
X43050Y-31150D02*
X43050Y-31550D01*
X41250Y-29350D02*
G75*
G03X41250Y-29350I-50J0D01*
G74*
G01*
X41200Y-29800D02*
X41200Y-29400D01*
X41200Y-29400D02*
X41800Y-29400D01*
X41800Y-29400D02*
X41800Y-29800D01*
X41800Y-30200D02*
X41800Y-30600D01*
X41800Y-30600D02*
X41200Y-30600D01*
X41200Y-30600D02*
X41200Y-30200D01*
X67900Y-29050D02*
G75*
G03X67900Y-29050I-50J0D01*
G74*
G01*
X68300Y-29050D02*
X67900Y-29050D01*
X67900Y-29050D02*
X67900Y-28450D01*
X67900Y-28450D02*
X68300Y-28450D01*
X68700Y-28450D02*
X69100Y-28450D01*
X69100Y-28450D02*
X69100Y-29050D01*
X69100Y-29050D02*
X68700Y-29050D01*
X67900Y-27800D02*
G75*
G03X67900Y-27800I-50J0D01*
G74*
G01*
X68300Y-27800D02*
X67900Y-27800D01*
X67900Y-27800D02*
X67900Y-27200D01*
X67900Y-27200D02*
X68300Y-27200D01*
X68700Y-27200D02*
X69100Y-27200D01*
X69100Y-27200D02*
X69100Y-27800D01*
X69100Y-27800D02*
X68700Y-27800D01*
X42250Y-25850D02*
G75*
G03X42250Y-25850I-50J0D01*
G74*
G01*
X42200Y-26300D02*
X42200Y-25900D01*
X42200Y-25900D02*
X42800Y-25900D01*
X42800Y-25900D02*
X42800Y-26300D01*
X42800Y-26700D02*
X42800Y-27100D01*
X42800Y-27100D02*
X42200Y-27100D01*
X42200Y-27100D02*
X42200Y-26700D01*
X41850Y-32400D02*
G75*
G03X41850Y-32400I-50J0D01*
G74*
G01*
X41800Y-31950D02*
X41800Y-32350D01*
X41800Y-32350D02*
X41200Y-32350D01*
X41200Y-32350D02*
X41200Y-31950D01*
X41200Y-31550D02*
X41200Y-31150D01*
X41200Y-31150D02*
X41800Y-31150D01*
X41800Y-31150D02*
X41800Y-31550D01*
X39650Y-17050D02*
G75*
G03X39650Y-17050I-50J0D01*
G74*
G01*
X40050Y-17050D02*
X39650Y-17050D01*
X39650Y-17050D02*
X39650Y-16450D01*
X39650Y-16450D02*
X40050Y-16450D01*
X40450Y-16450D02*
X40850Y-16450D01*
X40850Y-16450D02*
X40850Y-17050D01*
X40850Y-17050D02*
X40450Y-17050D01*
X36850Y-29900D02*
G75*
G03X36850Y-29900I-50J0D01*
G74*
G01*
X36800Y-29450D02*
X36800Y-29850D01*
X36800Y-29850D02*
X36200Y-29850D01*
X36200Y-29850D02*
X36200Y-29450D01*
X36200Y-29050D02*
X36200Y-28650D01*
X36200Y-28650D02*
X36800Y-28650D01*
X36800Y-28650D02*
X36800Y-29050D01*
X39250Y-27100D02*
G75*
G03X39250Y-27100I-50J0D01*
G74*
G01*
X39200Y-27550D02*
X39200Y-27150D01*
X39200Y-27150D02*
X39800Y-27150D01*
X39800Y-27150D02*
X39800Y-27550D01*
X39800Y-27950D02*
X39800Y-28350D01*
X39800Y-28350D02*
X39200Y-28350D01*
X39200Y-28350D02*
X39200Y-27950D01*
X39200Y-16700D02*
G75*
G03X39200Y-16700I-50J0D01*
G74*
G01*
X38700Y-16700D02*
X39100Y-16700D01*
X39100Y-16700D02*
X39100Y-17300D01*
X39100Y-17300D02*
X38700Y-17300D01*
X38300Y-17300D02*
X37900Y-17300D01*
X37900Y-17300D02*
X37900Y-16700D01*
X37900Y-16700D02*
X38300Y-16700D01*
X38000Y-27100D02*
G75*
G03X38000Y-27100I-50J0D01*
G74*
G01*
X37950Y-27550D02*
X37950Y-27150D01*
X37950Y-27150D02*
X38550Y-27150D01*
X38550Y-27150D02*
X38550Y-27550D01*
X38550Y-27950D02*
X38550Y-28350D01*
X38550Y-28350D02*
X37950Y-28350D01*
X37950Y-28350D02*
X37950Y-27950D01*
X34150Y-17050D02*
G75*
G03X34150Y-17050I-50J0D01*
G74*
G01*
X34550Y-17050D02*
X34150Y-17050D01*
X34150Y-17050D02*
X34150Y-16450D01*
X34150Y-16450D02*
X34550Y-16450D01*
X34950Y-16450D02*
X35350Y-16450D01*
X35350Y-16450D02*
X35350Y-17050D01*
X35350Y-17050D02*
X34950Y-17050D01*
X39650Y-18300D02*
G75*
G03X39650Y-18300I-50J0D01*
G74*
G01*
X40050Y-18300D02*
X39650Y-18300D01*
X39650Y-18300D02*
X39650Y-17700D01*
X39650Y-17700D02*
X40050Y-17700D01*
X40450Y-17700D02*
X40850Y-17700D01*
X40850Y-17700D02*
X40850Y-18300D01*
X40850Y-18300D02*
X40450Y-18300D01*
X37200Y-16450D02*
G75*
G03X37200Y-16450I-50J0D01*
G74*
G01*
X36700Y-16450D02*
X37100Y-16450D01*
X37100Y-16450D02*
X37100Y-17050D01*
X37100Y-17050D02*
X36700Y-17050D01*
X36300Y-17050D02*
X35900Y-17050D01*
X35900Y-17050D02*
X35900Y-16450D01*
X35900Y-16450D02*
X36300Y-16450D01*
X54350Y-27650D02*
G75*
G03X54350Y-27650I-50J0D01*
G74*
G01*
X54300Y-27200D02*
X54300Y-27600D01*
X54300Y-27600D02*
X53700Y-27600D01*
X53700Y-27600D02*
X53700Y-27200D01*
X53700Y-26800D02*
X53700Y-26400D01*
X53700Y-26400D02*
X54300Y-26400D01*
X54300Y-26400D02*
X54300Y-26800D01*
X50850Y-27650D02*
G75*
G03X50850Y-27650I-50J0D01*
G74*
G01*
X50800Y-27200D02*
X50800Y-27600D01*
X50800Y-27600D02*
X50200Y-27600D01*
X50200Y-27600D02*
X50200Y-27200D01*
X50200Y-26800D02*
X50200Y-26400D01*
X50200Y-26400D02*
X50800Y-26400D01*
X50800Y-26400D02*
X50800Y-26800D01*
X44750Y-26100D02*
G75*
G03X44750Y-26100I-50J0D01*
G74*
G01*
X44700Y-26550D02*
X44700Y-26150D01*
X44700Y-26150D02*
X45300Y-26150D01*
X45300Y-26150D02*
X45300Y-26550D01*
X45300Y-26950D02*
X45300Y-27350D01*
X45300Y-27350D02*
X44700Y-27350D01*
X44700Y-27350D02*
X44700Y-26950D01*
X44100Y-27400D02*
G75*
G03X44100Y-27400I-50J0D01*
G74*
G01*
X44050Y-26950D02*
X44050Y-27350D01*
X44050Y-27350D02*
X43450Y-27350D01*
X43450Y-27350D02*
X43450Y-26950D01*
X43450Y-26550D02*
X43450Y-26150D01*
X43450Y-26150D02*
X44050Y-26150D01*
X44050Y-26150D02*
X44050Y-26550D01*
X42350Y-20150D02*
G75*
G03X42350Y-20150I-50J0D01*
G74*
G01*
X42300Y-19700D02*
X42300Y-20100D01*
X42300Y-20100D02*
X41700Y-20100D01*
X41700Y-20100D02*
X41700Y-19700D01*
X41700Y-19300D02*
X41700Y-18900D01*
X41700Y-18900D02*
X42300Y-18900D01*
X42300Y-18900D02*
X42300Y-19300D01*
X41100Y-20150D02*
G75*
G03X41100Y-20150I-50J0D01*
G74*
G01*
X41050Y-19700D02*
X41050Y-20100D01*
X41050Y-20100D02*
X40450Y-20100D01*
X40450Y-20100D02*
X40450Y-19700D01*
X40450Y-19300D02*
X40450Y-18900D01*
X40450Y-18900D02*
X41050Y-18900D01*
X41050Y-18900D02*
X41050Y-19300D01*
X37450Y-17950D02*
G75*
G03X37450Y-17950I-50J0D01*
G74*
G01*
X36950Y-17950D02*
X37350Y-17950D01*
X37350Y-17950D02*
X37350Y-18550D01*
X37350Y-18550D02*
X36950Y-18550D01*
X36550Y-18550D02*
X36150Y-18550D01*
X36150Y-18550D02*
X36150Y-17950D01*
X36150Y-17950D02*
X36550Y-17950D01*
G54D11*
X65300Y-23000D02*
X66200Y-23000D01*
X66200Y-23000D02*
X66200Y-23500D01*
X66200Y-23500D02*
X65300Y-23500D01*
X65300Y-23500D02*
X65300Y-23000D01*
X57300Y-23000D02*
X58200Y-23000D01*
X58200Y-23000D02*
X58200Y-23500D01*
X58200Y-23500D02*
X57300Y-23500D01*
X57300Y-23500D02*
X57300Y-23000D01*
X31450Y-32250D02*
X30550Y-32250D01*
X30550Y-32250D02*
X30550Y-31750D01*
X30550Y-31750D02*
X31450Y-31750D01*
X31450Y-31750D02*
X31450Y-32250D01*
X29950Y-32250D02*
X29050Y-32250D01*
X29050Y-32250D02*
X29050Y-31750D01*
X29050Y-31750D02*
X29950Y-31750D01*
X29950Y-31750D02*
X29950Y-32250D01*
X43750Y-30700D02*
X43750Y-29800D01*
X43750Y-29800D02*
X44250Y-29800D01*
X44250Y-29800D02*
X44250Y-30700D01*
X44250Y-30700D02*
X43750Y-30700D01*
X41500Y-18200D02*
X41500Y-17300D01*
X41500Y-17300D02*
X42000Y-17300D01*
X42000Y-17300D02*
X42000Y-18200D01*
X42000Y-18200D02*
X41500Y-18200D01*
X60800Y-29000D02*
X61700Y-29000D01*
X61700Y-29000D02*
X61700Y-29500D01*
X61700Y-29500D02*
X60800Y-29500D01*
X60800Y-29500D02*
X60800Y-29000D01*
X43750Y-32200D02*
X43750Y-31300D01*
X43750Y-31300D02*
X44250Y-31300D01*
X44250Y-31300D02*
X44250Y-32200D01*
X44250Y-32200D02*
X43750Y-32200D01*
X43750Y-29200D02*
X43750Y-28300D01*
X43750Y-28300D02*
X44250Y-28300D01*
X44250Y-28300D02*
X44250Y-29200D01*
X44250Y-29200D02*
X43750Y-29200D01*
X50250Y-29200D02*
X50250Y-28300D01*
X50250Y-28300D02*
X50750Y-28300D01*
X50750Y-28300D02*
X50750Y-29200D01*
X50750Y-29200D02*
X50250Y-29200D01*
X42500Y-30450D02*
X42500Y-29550D01*
X42500Y-29550D02*
X43000Y-29550D01*
X43000Y-29550D02*
X43000Y-30450D01*
X43000Y-30450D02*
X42500Y-30450D01*
X50250Y-32200D02*
X50250Y-31300D01*
X50250Y-31300D02*
X50750Y-31300D01*
X50750Y-31300D02*
X50750Y-32200D01*
X50750Y-32200D02*
X50250Y-32200D01*
X44450Y-25500D02*
X43550Y-25500D01*
X43550Y-25500D02*
X43550Y-25000D01*
X43550Y-25000D02*
X44450Y-25000D01*
X44450Y-25000D02*
X44450Y-25500D01*
X36250Y-27050D02*
X36250Y-27950D01*
X36250Y-27950D02*
X35750Y-27950D01*
X35750Y-27950D02*
X35750Y-27050D01*
X35750Y-27050D02*
X36250Y-27050D01*
X36250Y-19950D02*
X36250Y-19050D01*
X36250Y-19050D02*
X36750Y-19050D01*
X36750Y-19050D02*
X36750Y-19950D01*
X36750Y-19950D02*
X36250Y-19950D01*
X36750Y-27950D02*
X36750Y-27050D01*
X36750Y-27050D02*
X37250Y-27050D01*
X37250Y-27050D02*
X37250Y-27950D01*
X37250Y-27950D02*
X36750Y-27950D01*
X37750Y-19050D02*
X37750Y-19950D01*
X37750Y-19950D02*
X37250Y-19950D01*
X37250Y-19950D02*
X37250Y-19050D01*
X37250Y-19050D02*
X37750Y-19050D01*
X34300Y-17750D02*
X35200Y-17750D01*
X35200Y-17750D02*
X35200Y-18250D01*
X35200Y-18250D02*
X34300Y-18250D01*
X34300Y-18250D02*
X34300Y-17750D01*
X38250Y-19450D02*
X38250Y-18550D01*
X38250Y-18550D02*
X38750Y-18550D01*
X38750Y-18550D02*
X38750Y-19450D01*
X38750Y-19450D02*
X38250Y-19450D01*
X35250Y-19950D02*
X35250Y-19050D01*
X35250Y-19050D02*
X35750Y-19050D01*
X35750Y-19050D02*
X35750Y-19950D01*
X35750Y-19950D02*
X35250Y-19950D01*
X69950Y-31250D02*
X69050Y-31250D01*
X69050Y-31250D02*
X69050Y-30750D01*
X69050Y-30750D02*
X69950Y-30750D01*
X69950Y-30750D02*
X69950Y-31250D01*
X50750Y-24800D02*
X50750Y-25700D01*
X50750Y-25700D02*
X50250Y-25700D01*
X50250Y-25700D02*
X50250Y-24800D01*
X50250Y-24800D02*
X50750Y-24800D01*
X43550Y-19500D02*
X44450Y-19500D01*
X44450Y-19500D02*
X44450Y-20000D01*
X44450Y-20000D02*
X43550Y-20000D01*
X43550Y-20000D02*
X43550Y-19500D01*
X39500Y-19950D02*
X39500Y-19050D01*
X39500Y-19050D02*
X40000Y-19050D01*
X40000Y-19050D02*
X40000Y-19950D01*
X40000Y-19950D02*
X39500Y-19950D01*
X35250Y-27050D02*
X35250Y-27950D01*
X35250Y-27950D02*
X34750Y-27950D01*
X34750Y-27950D02*
X34750Y-27050D01*
X34750Y-27050D02*
X35250Y-27050D01*
X40000Y-21450D02*
X40000Y-20550D01*
X40000Y-20550D02*
X40500Y-20550D01*
X40500Y-20550D02*
X40500Y-21450D01*
X40500Y-21450D02*
X40000Y-21450D01*
X34250Y-27050D02*
X34250Y-27950D01*
X34250Y-27950D02*
X33750Y-27950D01*
X33750Y-27950D02*
X33750Y-27050D01*
X33750Y-27050D02*
X34250Y-27050D01*
X40550Y-27750D02*
X41450Y-27750D01*
X41450Y-27750D02*
X41450Y-28250D01*
X41450Y-28250D02*
X40550Y-28250D01*
X40550Y-28250D02*
X40550Y-27750D01*
X37200Y-31000D02*
X36300Y-31000D01*
X36300Y-31000D02*
X36300Y-30500D01*
X36300Y-30500D02*
X37200Y-30500D01*
X37200Y-30500D02*
X37200Y-31000D01*
G54D21*
X70823Y-31177D02*
X70823Y-30823D01*
X70823Y-30823D02*
X70666Y-30823D01*
X70666Y-31177D02*
X70666Y-30823D01*
X70823Y-31177D02*
X70666Y-31177D01*
X71334Y-31177D02*
X71334Y-30823D01*
X71334Y-30823D02*
X71177Y-30823D01*
X71177Y-31177D02*
X71177Y-30823D01*
X71334Y-31177D02*
X71177Y-31177D01*
X71000Y-31177D02*
X71000Y-31118D01*
X71000Y-31118D02*
X70882Y-31118D01*
X70882Y-31177D02*
X70882Y-31118D01*
X71000Y-31177D02*
X70882Y-31177D01*
X71000Y-30882D02*
X71000Y-30823D01*
X71000Y-30823D02*
X70882Y-30823D01*
X70882Y-30882D02*
X70882Y-30823D01*
X71000Y-30882D02*
X70882Y-30882D01*
X71000Y-31059D02*
X71000Y-30941D01*
X71000Y-30941D02*
X70882Y-30941D01*
X70882Y-31059D02*
X70882Y-30941D01*
X71000Y-31059D02*
X70882Y-31059D01*
G54D22*
X70823Y-31157D02*
X71177Y-31157D01*
X70823Y-30843D02*
X71177Y-30843D01*
G54D11*
X26300Y-20750D02*
X27200Y-20750D01*
X27200Y-20750D02*
X27200Y-21250D01*
X27200Y-21250D02*
X26300Y-21250D01*
X26300Y-21250D02*
X26300Y-20750D01*
X26300Y-22750D02*
X27200Y-22750D01*
X27200Y-22750D02*
X27200Y-23250D01*
X27200Y-23250D02*
X26300Y-23250D01*
X26300Y-23250D02*
X26300Y-22750D01*
X26300Y-21750D02*
X27200Y-21750D01*
X27200Y-21750D02*
X27200Y-22250D01*
X27200Y-22250D02*
X26300Y-22250D01*
X26300Y-22250D02*
X26300Y-21750D01*
X26300Y-19750D02*
X27200Y-19750D01*
X27200Y-19750D02*
X27200Y-20250D01*
X27200Y-20250D02*
X26300Y-20250D01*
X26300Y-20250D02*
X26300Y-19750D01*
X26300Y-30750D02*
X27200Y-30750D01*
X27200Y-30750D02*
X27200Y-31250D01*
X27200Y-31250D02*
X26300Y-31250D01*
X26300Y-31250D02*
X26300Y-30750D01*
X26300Y-29750D02*
X27200Y-29750D01*
X27200Y-29750D02*
X27200Y-30250D01*
X27200Y-30250D02*
X26300Y-30250D01*
X26300Y-30250D02*
X26300Y-29750D01*
X26300Y-27750D02*
X27200Y-27750D01*
X27200Y-27750D02*
X27200Y-28250D01*
X27200Y-28250D02*
X26300Y-28250D01*
X26300Y-28250D02*
X26300Y-27750D01*
X26300Y-28750D02*
X27200Y-28750D01*
X27200Y-28750D02*
X27200Y-29250D01*
X27200Y-29250D02*
X26300Y-29250D01*
X26300Y-29250D02*
X26300Y-28750D01*
X26300Y-17750D02*
X27200Y-17750D01*
X27200Y-17750D02*
X27200Y-18250D01*
X27200Y-18250D02*
X26300Y-18250D01*
X26300Y-18250D02*
X26300Y-17750D01*
X26300Y-18750D02*
X27200Y-18750D01*
X27200Y-18750D02*
X27200Y-19250D01*
X27200Y-19250D02*
X26300Y-19250D01*
X26300Y-19250D02*
X26300Y-18750D01*
X26300Y-15750D02*
X27200Y-15750D01*
X27200Y-15750D02*
X27200Y-16250D01*
X27200Y-16250D02*
X26300Y-16250D01*
X26300Y-16250D02*
X26300Y-15750D01*
X26300Y-16750D02*
X27200Y-16750D01*
X27200Y-16750D02*
X27200Y-17250D01*
X27200Y-17250D02*
X26300Y-17250D01*
X26300Y-17250D02*
X26300Y-16750D01*
X26300Y-14750D02*
X27200Y-14750D01*
X27200Y-14750D02*
X27200Y-15250D01*
X27200Y-15250D02*
X26300Y-15250D01*
X26300Y-15250D02*
X26300Y-14750D01*
X26300Y-24750D02*
X27200Y-24750D01*
X27200Y-24750D02*
X27200Y-25250D01*
X27200Y-25250D02*
X26300Y-25250D01*
X26300Y-25250D02*
X26300Y-24750D01*
X26300Y-23750D02*
X27200Y-23750D01*
X27200Y-23750D02*
X27200Y-24250D01*
X27200Y-24250D02*
X26300Y-24250D01*
X26300Y-24250D02*
X26300Y-23750D01*
X26300Y-25750D02*
X27200Y-25750D01*
X27200Y-25750D02*
X27200Y-26250D01*
X27200Y-26250D02*
X26300Y-26250D01*
X26300Y-26250D02*
X26300Y-25750D01*
X26300Y-26750D02*
X27200Y-26750D01*
X27200Y-26750D02*
X27200Y-27250D01*
X27200Y-27250D02*
X26300Y-27250D01*
X26300Y-27250D02*
X26300Y-26750D01*
X30800Y-22750D02*
X31700Y-22750D01*
X31700Y-22750D02*
X31700Y-23250D01*
X31700Y-23250D02*
X30800Y-23250D01*
X30800Y-23250D02*
X30800Y-22750D01*
X27800Y-22750D02*
X28700Y-22750D01*
X28700Y-22750D02*
X28700Y-23250D01*
X28700Y-23250D02*
X27800Y-23250D01*
X27800Y-23250D02*
X27800Y-22750D01*
X29300Y-22250D02*
X30200Y-22250D01*
X30200Y-22250D02*
X30200Y-22750D01*
X30200Y-22750D02*
X29300Y-22750D01*
X29300Y-22750D02*
X29300Y-22250D01*
X29300Y-21250D02*
X30200Y-21250D01*
X30200Y-21250D02*
X30200Y-21750D01*
X30200Y-21750D02*
X29300Y-21750D01*
X29300Y-21750D02*
X29300Y-21250D01*
X27800Y-21750D02*
X28700Y-21750D01*
X28700Y-21750D02*
X28700Y-22250D01*
X28700Y-22250D02*
X27800Y-22250D01*
X27800Y-22250D02*
X27800Y-21750D01*
X30800Y-21750D02*
X31700Y-21750D01*
X31700Y-21750D02*
X31700Y-22250D01*
X31700Y-22250D02*
X30800Y-22250D01*
X30800Y-22250D02*
X30800Y-21750D01*
X30800Y-19750D02*
X31700Y-19750D01*
X31700Y-19750D02*
X31700Y-20250D01*
X31700Y-20250D02*
X30800Y-20250D01*
X30800Y-20250D02*
X30800Y-19750D01*
X27800Y-19750D02*
X28700Y-19750D01*
X28700Y-19750D02*
X28700Y-20250D01*
X28700Y-20250D02*
X27800Y-20250D01*
X27800Y-20250D02*
X27800Y-19750D01*
X29300Y-19250D02*
X30200Y-19250D01*
X30200Y-19250D02*
X30200Y-19750D01*
X30200Y-19750D02*
X29300Y-19750D01*
X29300Y-19750D02*
X29300Y-19250D01*
X29300Y-16250D02*
X30200Y-16250D01*
X30200Y-16250D02*
X30200Y-16750D01*
X30200Y-16750D02*
X29300Y-16750D01*
X29300Y-16750D02*
X29300Y-16250D01*
X30800Y-30750D02*
X31700Y-30750D01*
X31700Y-30750D02*
X31700Y-31250D01*
X31700Y-31250D02*
X30800Y-31250D01*
X30800Y-31250D02*
X30800Y-30750D01*
X27800Y-30750D02*
X28700Y-30750D01*
X28700Y-30750D02*
X28700Y-31250D01*
X28700Y-31250D02*
X27800Y-31250D01*
X27800Y-31250D02*
X27800Y-30750D01*
X29300Y-30250D02*
X30200Y-30250D01*
X30200Y-30250D02*
X30200Y-30750D01*
X30200Y-30750D02*
X29300Y-30750D01*
X29300Y-30750D02*
X29300Y-30250D01*
X29300Y-29250D02*
X30200Y-29250D01*
X30200Y-29250D02*
X30200Y-29750D01*
X30200Y-29750D02*
X29300Y-29750D01*
X29300Y-29750D02*
X29300Y-29250D01*
X27800Y-29750D02*
X28700Y-29750D01*
X28700Y-29750D02*
X28700Y-30250D01*
X28700Y-30250D02*
X27800Y-30250D01*
X27800Y-30250D02*
X27800Y-29750D01*
X30800Y-29750D02*
X31700Y-29750D01*
X31700Y-29750D02*
X31700Y-30250D01*
X31700Y-30250D02*
X30800Y-30250D01*
X30800Y-30250D02*
X30800Y-29750D01*
X30800Y-27750D02*
X31700Y-27750D01*
X31700Y-27750D02*
X31700Y-28250D01*
X31700Y-28250D02*
X30800Y-28250D01*
X30800Y-28250D02*
X30800Y-27750D01*
X27800Y-27750D02*
X28700Y-27750D01*
X28700Y-27750D02*
X28700Y-28250D01*
X28700Y-28250D02*
X27800Y-28250D01*
X27800Y-28250D02*
X27800Y-27750D01*
X29300Y-27250D02*
X30200Y-27250D01*
X30200Y-27250D02*
X30200Y-27750D01*
X30200Y-27750D02*
X29300Y-27750D01*
X29300Y-27750D02*
X29300Y-27250D01*
X29300Y-28250D02*
X30200Y-28250D01*
X30200Y-28250D02*
X30200Y-28750D01*
X30200Y-28750D02*
X29300Y-28750D01*
X29300Y-28750D02*
X29300Y-28250D01*
X30800Y-18750D02*
X31700Y-18750D01*
X31700Y-18750D02*
X31700Y-19250D01*
X31700Y-19250D02*
X30800Y-19250D01*
X30800Y-19250D02*
X30800Y-18750D01*
X27800Y-18750D02*
X28700Y-18750D01*
X28700Y-18750D02*
X28700Y-19250D01*
X28700Y-19250D02*
X27800Y-19250D01*
X27800Y-19250D02*
X27800Y-18750D01*
X29300Y-18250D02*
X30200Y-18250D01*
X30200Y-18250D02*
X30200Y-18750D01*
X30200Y-18750D02*
X29300Y-18750D01*
X29300Y-18750D02*
X29300Y-18250D01*
X29300Y-20250D02*
X30200Y-20250D01*
X30200Y-20250D02*
X30200Y-20750D01*
X30200Y-20750D02*
X29300Y-20750D01*
X29300Y-20750D02*
X29300Y-20250D01*
X29300Y-17250D02*
X30200Y-17250D01*
X30200Y-17250D02*
X30200Y-17750D01*
X30200Y-17750D02*
X29300Y-17750D01*
X29300Y-17750D02*
X29300Y-17250D01*
X27800Y-17750D02*
X28700Y-17750D01*
X28700Y-17750D02*
X28700Y-18250D01*
X28700Y-18250D02*
X27800Y-18250D01*
X27800Y-18250D02*
X27800Y-17750D01*
X30800Y-17750D02*
X31700Y-17750D01*
X31700Y-17750D02*
X31700Y-18250D01*
X31700Y-18250D02*
X30800Y-18250D01*
X30800Y-18250D02*
X30800Y-17750D01*
X30800Y-15750D02*
X31700Y-15750D01*
X31700Y-15750D02*
X31700Y-16250D01*
X31700Y-16250D02*
X30800Y-16250D01*
X30800Y-16250D02*
X30800Y-15750D01*
X27800Y-15750D02*
X28700Y-15750D01*
X28700Y-15750D02*
X28700Y-16250D01*
X28700Y-16250D02*
X27800Y-16250D01*
X27800Y-16250D02*
X27800Y-15750D01*
X29300Y-15250D02*
X30200Y-15250D01*
X30200Y-15250D02*
X30200Y-15750D01*
X30200Y-15750D02*
X29300Y-15750D01*
X29300Y-15750D02*
X29300Y-15250D01*
X27800Y-14750D02*
X28700Y-14750D01*
X28700Y-14750D02*
X28700Y-15250D01*
X28700Y-15250D02*
X27800Y-15250D01*
X27800Y-15250D02*
X27800Y-14750D01*
X27800Y-16750D02*
X28700Y-16750D01*
X28700Y-16750D02*
X28700Y-17250D01*
X28700Y-17250D02*
X27800Y-17250D01*
X27800Y-17250D02*
X27800Y-16750D01*
X30800Y-16750D02*
X31700Y-16750D01*
X31700Y-16750D02*
X31700Y-17250D01*
X31700Y-17250D02*
X30800Y-17250D01*
X30800Y-17250D02*
X30800Y-16750D01*
X30800Y-20750D02*
X31700Y-20750D01*
X31700Y-20750D02*
X31700Y-21250D01*
X31700Y-21250D02*
X30800Y-21250D01*
X30800Y-21250D02*
X30800Y-20750D01*
X27800Y-20750D02*
X28700Y-20750D01*
X28700Y-20750D02*
X28700Y-21250D01*
X28700Y-21250D02*
X27800Y-21250D01*
X27800Y-21250D02*
X27800Y-20750D01*
X30800Y-14750D02*
X31700Y-14750D01*
X31700Y-14750D02*
X31700Y-15250D01*
X31700Y-15250D02*
X30800Y-15250D01*
X30800Y-15250D02*
X30800Y-14750D01*
X29300Y-14250D02*
X30200Y-14250D01*
X30200Y-14250D02*
X30200Y-14750D01*
X30200Y-14750D02*
X29300Y-14750D01*
X29300Y-14750D02*
X29300Y-14250D01*
X30800Y-28750D02*
X31700Y-28750D01*
X31700Y-28750D02*
X31700Y-29250D01*
X31700Y-29250D02*
X30800Y-29250D01*
X30800Y-29250D02*
X30800Y-28750D01*
X27800Y-28750D02*
X28700Y-28750D01*
X28700Y-28750D02*
X28700Y-29250D01*
X28700Y-29250D02*
X27800Y-29250D01*
X27800Y-29250D02*
X27800Y-28750D01*
X27800Y-24750D02*
X28700Y-24750D01*
X28700Y-24750D02*
X28700Y-25250D01*
X28700Y-25250D02*
X27800Y-25250D01*
X27800Y-25250D02*
X27800Y-24750D01*
X29300Y-24250D02*
X30200Y-24250D01*
X30200Y-24250D02*
X30200Y-24750D01*
X30200Y-24750D02*
X29300Y-24750D01*
X29300Y-24750D02*
X29300Y-24250D01*
X29300Y-23250D02*
X30200Y-23250D01*
X30200Y-23250D02*
X30200Y-23750D01*
X30200Y-23750D02*
X29300Y-23750D01*
X29300Y-23750D02*
X29300Y-23250D01*
X27800Y-23750D02*
X28700Y-23750D01*
X28700Y-23750D02*
X28700Y-24250D01*
X28700Y-24250D02*
X27800Y-24250D01*
X27800Y-24250D02*
X27800Y-23750D01*
X30800Y-24750D02*
X31700Y-24750D01*
X31700Y-24750D02*
X31700Y-25250D01*
X31700Y-25250D02*
X30800Y-25250D01*
X30800Y-25250D02*
X30800Y-24750D01*
X30800Y-23750D02*
X31700Y-23750D01*
X31700Y-23750D02*
X31700Y-24250D01*
X31700Y-24250D02*
X30800Y-24250D01*
X30800Y-24250D02*
X30800Y-23750D01*
X30800Y-25750D02*
X31700Y-25750D01*
X31700Y-25750D02*
X31700Y-26250D01*
X31700Y-26250D02*
X30800Y-26250D01*
X30800Y-26250D02*
X30800Y-25750D01*
X27800Y-25750D02*
X28700Y-25750D01*
X28700Y-25750D02*
X28700Y-26250D01*
X28700Y-26250D02*
X27800Y-26250D01*
X27800Y-26250D02*
X27800Y-25750D01*
X29300Y-25250D02*
X30200Y-25250D01*
X30200Y-25250D02*
X30200Y-25750D01*
X30200Y-25750D02*
X29300Y-25750D01*
X29300Y-25750D02*
X29300Y-25250D01*
X29300Y-26250D02*
X30200Y-26250D01*
X30200Y-26250D02*
X30200Y-26750D01*
X30200Y-26750D02*
X29300Y-26750D01*
X29300Y-26750D02*
X29300Y-26250D01*
X27800Y-26750D02*
X28700Y-26750D01*
X28700Y-26750D02*
X28700Y-27250D01*
X28700Y-27250D02*
X27800Y-27250D01*
X27800Y-27250D02*
X27800Y-26750D01*
X30800Y-26750D02*
X31700Y-26750D01*
X31700Y-26750D02*
X31700Y-27250D01*
X31700Y-27250D02*
X30800Y-27250D01*
X30800Y-27250D02*
X30800Y-26750D01*
G54D10*
X41500Y-15500D02*
X34500Y-15500D01*
X34500Y-15500D02*
X34500Y-14500D01*
X34500Y-14500D02*
X41500Y-14500D01*
X41500Y-14500D02*
X41500Y-15500D01*
X24500Y-31500D02*
X25500Y-31500D01*
X24500Y-32500D02*
X24500Y-14500D01*
X24500Y-14500D02*
X25500Y-14500D01*
X25500Y-14500D02*
X25500Y-32500D01*
X25500Y-32500D02*
X24500Y-32500D01*
G54D15*
X59500Y-14450D02*
X59500Y-12450D01*
X59500Y-12450D02*
X62500Y-12450D01*
X62500Y-12450D02*
X62500Y-14450D01*
X62500Y-14450D02*
X59500Y-14450D01*
X71500Y-19500D02*
X71500Y-13500D01*
X71500Y-13500D02*
X70500Y-13500D01*
X70500Y-13500D02*
X70500Y-19500D01*
X70500Y-19500D02*
X71500Y-19500D01*
X70500Y-20500D02*
X71500Y-20500D01*
X71500Y-20500D02*
X71500Y-28500D01*
X71500Y-28500D02*
X70500Y-28500D01*
X70500Y-28500D02*
X70500Y-20500D01*
X52500Y-22100D02*
X52500Y-32100D01*
X52500Y-32100D02*
X51500Y-32100D01*
X51500Y-32100D02*
X51500Y-22100D01*
X51500Y-22100D02*
X52500Y-22100D01*
X52500Y-13500D02*
X52500Y-21500D01*
X52500Y-21500D02*
X51500Y-21500D01*
X51500Y-21500D02*
X51500Y-13500D01*
X51500Y-13500D02*
X52500Y-13500D01*
G54D11*
X33000Y-12150D02*
X33000Y-13850D01*
X30550Y-12150D02*
X30550Y-13850D01*
X30550Y-13850D02*
X33450Y-13850D01*
X33450Y-13850D02*
X33450Y-12150D01*
X33450Y-12150D02*
X30550Y-12150D01*
X36300Y-31500D02*
X37200Y-31500D01*
X37200Y-31500D02*
X37200Y-32000D01*
X37200Y-32000D02*
X36300Y-32000D01*
X36300Y-32000D02*
X36300Y-31500D01*
X39570Y-25609D02*
X39570Y-25800D01*
X39581Y-25823D01*
X39592Y-25834D01*
X39615Y-25845D01*
X39660Y-25845D01*
X39682Y-25834D01*
X39693Y-25823D01*
X39705Y-25800D01*
X39705Y-25609D01*
X39941Y-25845D02*
X39806Y-25845D01*
X39873Y-25845D02*
X39873Y-25609D01*
X39851Y-25643D01*
X39828Y-25665D01*
X39806Y-25676D01*
X40820Y-27159D02*
X40820Y-27350D01*
X40831Y-27373D01*
X40842Y-27384D01*
X40865Y-27395D01*
X40910Y-27395D01*
X40932Y-27384D01*
X40943Y-27373D01*
X40955Y-27350D01*
X40955Y-27159D01*
X41168Y-27238D02*
X41168Y-27395D01*
X41112Y-27148D02*
X41056Y-27316D01*
X41202Y-27316D01*
X33070Y-32359D02*
X33070Y-32550D01*
X33081Y-32573D01*
X33092Y-32584D01*
X33115Y-32595D01*
X33160Y-32595D01*
X33182Y-32584D01*
X33193Y-32573D01*
X33205Y-32550D01*
X33205Y-32359D01*
X33294Y-32359D02*
X33441Y-32359D01*
X33362Y-32449D01*
X33396Y-32449D01*
X33418Y-32460D01*
X33429Y-32471D01*
X33441Y-32494D01*
X33441Y-32550D01*
X33429Y-32573D01*
X33418Y-32584D01*
X33396Y-32595D01*
X33328Y-32595D01*
X33306Y-32584D01*
X33294Y-32573D01*
X40320Y-32359D02*
X40320Y-32550D01*
X40331Y-32573D01*
X40342Y-32584D01*
X40365Y-32595D01*
X40410Y-32595D01*
X40432Y-32584D01*
X40443Y-32573D01*
X40455Y-32550D01*
X40455Y-32359D01*
X40556Y-32381D02*
X40567Y-32370D01*
X40589Y-32359D01*
X40646Y-32359D01*
X40668Y-32370D01*
X40679Y-32381D01*
X40691Y-32404D01*
X40691Y-32426D01*
X40679Y-32460D01*
X40544Y-32595D01*
X40691Y-32595D01*
X48445Y-32609D02*
X48445Y-32800D01*
X48456Y-32823D01*
X48467Y-32834D01*
X48490Y-32845D01*
X48535Y-32845D01*
X48557Y-32834D01*
X48568Y-32823D01*
X48580Y-32800D01*
X48580Y-32609D01*
X48804Y-32609D02*
X48692Y-32609D01*
X48681Y-32721D01*
X48692Y-32710D01*
X48714Y-32699D01*
X48771Y-32699D01*
X48793Y-32710D01*
X48804Y-32721D01*
X48816Y-32744D01*
X48816Y-32800D01*
X48804Y-32823D01*
X48793Y-32834D01*
X48771Y-32845D01*
X48714Y-32845D01*
X48692Y-32834D01*
X48681Y-32823D01*
X48445Y-25359D02*
X48445Y-25550D01*
X48456Y-25573D01*
X48467Y-25584D01*
X48490Y-25595D01*
X48535Y-25595D01*
X48557Y-25584D01*
X48568Y-25573D01*
X48580Y-25550D01*
X48580Y-25359D01*
X48793Y-25359D02*
X48748Y-25359D01*
X48726Y-25370D01*
X48714Y-25381D01*
X48692Y-25415D01*
X48681Y-25460D01*
X48681Y-25550D01*
X48692Y-25573D01*
X48703Y-25584D01*
X48726Y-25595D01*
X48771Y-25595D01*
X48793Y-25584D01*
X48804Y-25573D01*
X48816Y-25550D01*
X48816Y-25494D01*
X48804Y-25471D01*
X48793Y-25460D01*
X48771Y-25449D01*
X48726Y-25449D01*
X48703Y-25460D01*
X48692Y-25471D01*
X48681Y-25494D01*
X62195Y-28109D02*
X62195Y-28300D01*
X62206Y-28323D01*
X62217Y-28334D01*
X62240Y-28345D01*
X62285Y-28345D01*
X62307Y-28334D01*
X62318Y-28323D01*
X62330Y-28300D01*
X62330Y-28109D01*
X62419Y-28109D02*
X62577Y-28109D01*
X62476Y-28345D01*
X66320Y-22359D02*
X66320Y-22550D01*
X66331Y-22573D01*
X66342Y-22584D01*
X66365Y-22595D01*
X66410Y-22595D01*
X66432Y-22584D01*
X66443Y-22573D01*
X66455Y-22550D01*
X66455Y-22359D01*
X66601Y-22460D02*
X66578Y-22449D01*
X66567Y-22438D01*
X66556Y-22415D01*
X66556Y-22404D01*
X66567Y-22381D01*
X66578Y-22370D01*
X66601Y-22359D01*
X66646Y-22359D01*
X66668Y-22370D01*
X66679Y-22381D01*
X66691Y-22404D01*
X66691Y-22415D01*
X66679Y-22438D01*
X66668Y-22449D01*
X66646Y-22460D01*
X66601Y-22460D01*
X66578Y-22471D01*
X66567Y-22483D01*
X66556Y-22505D01*
X66556Y-22550D01*
X66567Y-22573D01*
X66578Y-22584D01*
X66601Y-22595D01*
X66646Y-22595D01*
X66668Y-22584D01*
X66679Y-22573D01*
X66691Y-22550D01*
X66691Y-22505D01*
X66679Y-22483D01*
X66668Y-22471D01*
X66646Y-22460D01*
X58695Y-22109D02*
X58695Y-22300D01*
X58706Y-22323D01*
X58717Y-22334D01*
X58740Y-22345D01*
X58785Y-22345D01*
X58807Y-22334D01*
X58818Y-22323D01*
X58830Y-22300D01*
X58830Y-22109D01*
X58953Y-22345D02*
X58998Y-22345D01*
X59021Y-22334D01*
X59032Y-22323D01*
X59054Y-22289D01*
X59066Y-22244D01*
X59066Y-22154D01*
X59054Y-22131D01*
X59043Y-22120D01*
X59021Y-22109D01*
X58976Y-22109D01*
X58953Y-22120D01*
X58942Y-22131D01*
X58931Y-22154D01*
X58931Y-22210D01*
X58942Y-22233D01*
X58953Y-22244D01*
X58976Y-22255D01*
X59021Y-22255D01*
X59043Y-22244D01*
X59054Y-22233D01*
X59066Y-22210D01*
X35823Y-30651D02*
X35834Y-30663D01*
X35845Y-30696D01*
X35845Y-30719D01*
X35834Y-30753D01*
X35811Y-30775D01*
X35789Y-30786D01*
X35744Y-30798D01*
X35710Y-30798D01*
X35665Y-30786D01*
X35643Y-30775D01*
X35620Y-30753D01*
X35609Y-30719D01*
X35609Y-30696D01*
X35620Y-30663D01*
X35631Y-30651D01*
X35688Y-30449D02*
X35845Y-30449D01*
X35598Y-30505D02*
X35766Y-30561D01*
X35766Y-30415D01*
X35845Y-30201D02*
X35845Y-30336D01*
X35845Y-30269D02*
X35609Y-30269D01*
X35643Y-30291D01*
X35665Y-30314D01*
X35676Y-30336D01*
G54D10*
X33850Y-28793D02*
X33850Y-28584D01*
X33955Y-28689D02*
X33745Y-28689D01*
G54D11*
X54573Y-31151D02*
X54584Y-31163D01*
X54595Y-31196D01*
X54595Y-31219D01*
X54584Y-31253D01*
X54561Y-31275D01*
X54539Y-31286D01*
X54494Y-31298D01*
X54460Y-31298D01*
X54415Y-31286D01*
X54393Y-31275D01*
X54370Y-31253D01*
X54359Y-31219D01*
X54359Y-31196D01*
X54370Y-31163D01*
X54381Y-31151D01*
X54359Y-30949D02*
X54359Y-30994D01*
X54370Y-31016D01*
X54381Y-31028D01*
X54415Y-31050D01*
X54460Y-31061D01*
X54550Y-31061D01*
X54573Y-31050D01*
X54584Y-31039D01*
X54595Y-31016D01*
X54595Y-30971D01*
X54584Y-30949D01*
X54573Y-30938D01*
X54550Y-30926D01*
X54494Y-30926D01*
X54471Y-30938D01*
X54460Y-30949D01*
X54449Y-30971D01*
X54449Y-31016D01*
X54460Y-31039D01*
X54471Y-31050D01*
X54494Y-31061D01*
X54460Y-30791D02*
X54449Y-30814D01*
X54438Y-30825D01*
X54415Y-30836D01*
X54404Y-30836D01*
X54381Y-30825D01*
X54370Y-30814D01*
X54359Y-30791D01*
X54359Y-30746D01*
X54370Y-30724D01*
X54381Y-30713D01*
X54404Y-30701D01*
X54415Y-30701D01*
X54438Y-30713D01*
X54449Y-30724D01*
X54460Y-30746D01*
X54460Y-30791D01*
X54471Y-30814D01*
X54483Y-30825D01*
X54505Y-30836D01*
X54550Y-30836D01*
X54573Y-30825D01*
X54584Y-30814D01*
X54595Y-30791D01*
X54595Y-30746D01*
X54584Y-30724D01*
X54573Y-30713D01*
X54550Y-30701D01*
X54505Y-30701D01*
X54483Y-30713D01*
X54471Y-30724D01*
X54460Y-30746D01*
X54573Y-29151D02*
X54584Y-29163D01*
X54595Y-29196D01*
X54595Y-29219D01*
X54584Y-29253D01*
X54561Y-29275D01*
X54539Y-29286D01*
X54494Y-29298D01*
X54460Y-29298D01*
X54415Y-29286D01*
X54393Y-29275D01*
X54370Y-29253D01*
X54359Y-29219D01*
X54359Y-29196D01*
X54370Y-29163D01*
X54381Y-29151D01*
X54359Y-28949D02*
X54359Y-28994D01*
X54370Y-29016D01*
X54381Y-29028D01*
X54415Y-29050D01*
X54460Y-29061D01*
X54550Y-29061D01*
X54573Y-29050D01*
X54584Y-29039D01*
X54595Y-29016D01*
X54595Y-28971D01*
X54584Y-28949D01*
X54573Y-28938D01*
X54550Y-28926D01*
X54494Y-28926D01*
X54471Y-28938D01*
X54460Y-28949D01*
X54449Y-28971D01*
X54449Y-29016D01*
X54460Y-29039D01*
X54471Y-29050D01*
X54494Y-29061D01*
X54359Y-28848D02*
X54359Y-28690D01*
X54595Y-28791D01*
X56210Y-31845D02*
X56098Y-31845D01*
X56098Y-31609D01*
X56323Y-31710D02*
X56300Y-31699D01*
X56289Y-31688D01*
X56278Y-31665D01*
X56278Y-31654D01*
X56289Y-31631D01*
X56300Y-31620D01*
X56323Y-31609D01*
X56368Y-31609D01*
X56390Y-31620D01*
X56401Y-31631D01*
X56413Y-31654D01*
X56413Y-31665D01*
X56401Y-31688D01*
X56390Y-31699D01*
X56368Y-31710D01*
X56323Y-31710D01*
X56300Y-31721D01*
X56289Y-31733D01*
X56278Y-31755D01*
X56278Y-31800D01*
X56289Y-31823D01*
X56300Y-31834D01*
X56323Y-31845D01*
X56368Y-31845D01*
X56390Y-31834D01*
X56401Y-31823D01*
X56413Y-31800D01*
X56413Y-31755D01*
X56401Y-31733D01*
X56390Y-31721D01*
X56368Y-31710D01*
X43123Y-28851D02*
X43134Y-28863D01*
X43145Y-28896D01*
X43145Y-28919D01*
X43134Y-28953D01*
X43111Y-28975D01*
X43089Y-28986D01*
X43044Y-28998D01*
X43010Y-28998D01*
X42965Y-28986D01*
X42943Y-28975D01*
X42920Y-28953D01*
X42909Y-28919D01*
X42909Y-28896D01*
X42920Y-28863D01*
X42931Y-28851D01*
X42909Y-28638D02*
X42909Y-28750D01*
X43021Y-28761D01*
X43010Y-28750D01*
X42999Y-28728D01*
X42999Y-28671D01*
X43010Y-28649D01*
X43021Y-28638D01*
X43044Y-28626D01*
X43100Y-28626D01*
X43123Y-28638D01*
X43134Y-28649D01*
X43145Y-28671D01*
X43145Y-28728D01*
X43134Y-28750D01*
X43123Y-28761D01*
X43010Y-28491D02*
X42999Y-28514D01*
X42988Y-28525D01*
X42965Y-28536D01*
X42954Y-28536D01*
X42931Y-28525D01*
X42920Y-28514D01*
X42909Y-28491D01*
X42909Y-28446D01*
X42920Y-28424D01*
X42931Y-28413D01*
X42954Y-28401D01*
X42965Y-28401D01*
X42988Y-28413D01*
X42999Y-28424D01*
X43010Y-28446D01*
X43010Y-28491D01*
X43021Y-28514D01*
X43033Y-28525D01*
X43055Y-28536D01*
X43100Y-28536D01*
X43123Y-28525D01*
X43134Y-28514D01*
X43145Y-28491D01*
X43145Y-28446D01*
X43134Y-28424D01*
X43123Y-28413D01*
X43100Y-28401D01*
X43055Y-28401D01*
X43033Y-28413D01*
X43021Y-28424D01*
X43010Y-28446D01*
X43323Y-31851D02*
X43334Y-31863D01*
X43345Y-31896D01*
X43345Y-31919D01*
X43334Y-31953D01*
X43311Y-31975D01*
X43289Y-31986D01*
X43244Y-31998D01*
X43210Y-31998D01*
X43165Y-31986D01*
X43143Y-31975D01*
X43120Y-31953D01*
X43109Y-31919D01*
X43109Y-31896D01*
X43120Y-31863D01*
X43131Y-31851D01*
X43109Y-31638D02*
X43109Y-31750D01*
X43221Y-31761D01*
X43210Y-31750D01*
X43199Y-31728D01*
X43199Y-31671D01*
X43210Y-31649D01*
X43221Y-31638D01*
X43244Y-31626D01*
X43300Y-31626D01*
X43323Y-31638D01*
X43334Y-31649D01*
X43345Y-31671D01*
X43345Y-31728D01*
X43334Y-31750D01*
X43323Y-31761D01*
X43109Y-31548D02*
X43109Y-31390D01*
X43345Y-31491D01*
X42095Y-30039D02*
X42095Y-30151D01*
X41859Y-30151D01*
X41938Y-29859D02*
X42095Y-29859D01*
X41848Y-29915D02*
X42016Y-29971D01*
X42016Y-29825D01*
X68598Y-29448D02*
X68586Y-29459D01*
X68553Y-29470D01*
X68530Y-29470D01*
X68496Y-29459D01*
X68474Y-29436D01*
X68463Y-29414D01*
X68451Y-29369D01*
X68451Y-29335D01*
X68463Y-29290D01*
X68474Y-29268D01*
X68496Y-29245D01*
X68530Y-29234D01*
X68553Y-29234D01*
X68586Y-29245D01*
X68598Y-29256D01*
X68800Y-29234D02*
X68755Y-29234D01*
X68733Y-29245D01*
X68721Y-29256D01*
X68699Y-29290D01*
X68688Y-29335D01*
X68688Y-29425D01*
X68699Y-29448D01*
X68710Y-29459D01*
X68733Y-29470D01*
X68778Y-29470D01*
X68800Y-29459D01*
X68811Y-29448D01*
X68823Y-29425D01*
X68823Y-29369D01*
X68811Y-29346D01*
X68800Y-29335D01*
X68778Y-29324D01*
X68733Y-29324D01*
X68710Y-29335D01*
X68699Y-29346D01*
X68688Y-29369D01*
X68935Y-29470D02*
X68980Y-29470D01*
X69003Y-29459D01*
X69014Y-29448D01*
X69036Y-29414D01*
X69048Y-29369D01*
X69048Y-29279D01*
X69036Y-29256D01*
X69025Y-29245D01*
X69003Y-29234D01*
X68958Y-29234D01*
X68935Y-29245D01*
X68924Y-29256D01*
X68913Y-29279D01*
X68913Y-29335D01*
X68924Y-29358D01*
X68935Y-29369D01*
X68958Y-29380D01*
X69003Y-29380D01*
X69025Y-29369D01*
X69036Y-29358D01*
X69048Y-29335D01*
X69460Y-27595D02*
X69348Y-27595D01*
X69348Y-27359D01*
X69516Y-27359D02*
X69674Y-27359D01*
X69573Y-27595D01*
X43123Y-26351D02*
X43134Y-26363D01*
X43145Y-26396D01*
X43145Y-26419D01*
X43134Y-26453D01*
X43111Y-26475D01*
X43089Y-26486D01*
X43044Y-26498D01*
X43010Y-26498D01*
X42965Y-26486D01*
X42943Y-26475D01*
X42920Y-26453D01*
X42909Y-26419D01*
X42909Y-26396D01*
X42920Y-26363D01*
X42931Y-26351D01*
X42909Y-26138D02*
X42909Y-26250D01*
X43021Y-26261D01*
X43010Y-26250D01*
X42999Y-26228D01*
X42999Y-26171D01*
X43010Y-26149D01*
X43021Y-26138D01*
X43044Y-26126D01*
X43100Y-26126D01*
X43123Y-26138D01*
X43134Y-26149D01*
X43145Y-26171D01*
X43145Y-26228D01*
X43134Y-26250D01*
X43123Y-26261D01*
X42909Y-25924D02*
X42909Y-25969D01*
X42920Y-25991D01*
X42931Y-26003D01*
X42965Y-26025D01*
X43010Y-26036D01*
X43100Y-26036D01*
X43123Y-26025D01*
X43134Y-26014D01*
X43145Y-25991D01*
X43145Y-25946D01*
X43134Y-25924D01*
X43123Y-25913D01*
X43100Y-25901D01*
X43044Y-25901D01*
X43021Y-25913D01*
X43010Y-25924D01*
X42999Y-25946D01*
X42999Y-25991D01*
X43010Y-26014D01*
X43021Y-26025D01*
X43044Y-26036D01*
X42073Y-31901D02*
X42084Y-31913D01*
X42095Y-31946D01*
X42095Y-31969D01*
X42084Y-32003D01*
X42061Y-32025D01*
X42039Y-32036D01*
X41994Y-32048D01*
X41960Y-32048D01*
X41915Y-32036D01*
X41893Y-32025D01*
X41870Y-32003D01*
X41859Y-31969D01*
X41859Y-31946D01*
X41870Y-31913D01*
X41881Y-31901D01*
X41859Y-31688D02*
X41859Y-31800D01*
X41971Y-31811D01*
X41960Y-31800D01*
X41949Y-31778D01*
X41949Y-31721D01*
X41960Y-31699D01*
X41971Y-31688D01*
X41994Y-31676D01*
X42050Y-31676D01*
X42073Y-31688D01*
X42084Y-31699D01*
X42095Y-31721D01*
X42095Y-31778D01*
X42084Y-31800D01*
X42073Y-31811D01*
X41881Y-31586D02*
X41870Y-31575D01*
X41859Y-31553D01*
X41859Y-31496D01*
X41870Y-31474D01*
X41881Y-31463D01*
X41904Y-31451D01*
X41926Y-31451D01*
X41960Y-31463D01*
X42095Y-31598D01*
X42095Y-31451D01*
X40710Y-17345D02*
X40598Y-17345D01*
X40598Y-17109D01*
X40778Y-17131D02*
X40789Y-17120D01*
X40811Y-17109D01*
X40868Y-17109D01*
X40890Y-17120D01*
X40901Y-17131D01*
X40913Y-17154D01*
X40913Y-17176D01*
X40901Y-17210D01*
X40766Y-17345D01*
X40913Y-17345D01*
X37073Y-29401D02*
X37084Y-29413D01*
X37095Y-29446D01*
X37095Y-29469D01*
X37084Y-29503D01*
X37061Y-29525D01*
X37039Y-29536D01*
X36994Y-29548D01*
X36960Y-29548D01*
X36915Y-29536D01*
X36893Y-29525D01*
X36870Y-29503D01*
X36859Y-29469D01*
X36859Y-29446D01*
X36870Y-29413D01*
X36881Y-29401D01*
X36859Y-29323D02*
X36859Y-29176D01*
X36949Y-29255D01*
X36949Y-29221D01*
X36960Y-29199D01*
X36971Y-29188D01*
X36994Y-29176D01*
X37050Y-29176D01*
X37073Y-29188D01*
X37084Y-29199D01*
X37095Y-29221D01*
X37095Y-29289D01*
X37084Y-29311D01*
X37073Y-29323D01*
X36859Y-29098D02*
X36859Y-28940D01*
X37095Y-29041D01*
X40073Y-27901D02*
X40084Y-27913D01*
X40095Y-27946D01*
X40095Y-27969D01*
X40084Y-28003D01*
X40061Y-28025D01*
X40039Y-28036D01*
X39994Y-28048D01*
X39960Y-28048D01*
X39915Y-28036D01*
X39893Y-28025D01*
X39870Y-28003D01*
X39859Y-27969D01*
X39859Y-27946D01*
X39870Y-27913D01*
X39881Y-27901D01*
X39938Y-27699D02*
X40095Y-27699D01*
X39848Y-27755D02*
X40016Y-27811D01*
X40016Y-27665D01*
X39881Y-27586D02*
X39870Y-27575D01*
X39859Y-27553D01*
X39859Y-27496D01*
X39870Y-27474D01*
X39881Y-27463D01*
X39904Y-27451D01*
X39926Y-27451D01*
X39960Y-27463D01*
X40095Y-27598D01*
X40095Y-27451D01*
X38348Y-17573D02*
X38336Y-17584D01*
X38303Y-17595D01*
X38280Y-17595D01*
X38246Y-17584D01*
X38224Y-17561D01*
X38213Y-17539D01*
X38201Y-17494D01*
X38201Y-17460D01*
X38213Y-17415D01*
X38224Y-17393D01*
X38246Y-17370D01*
X38280Y-17359D01*
X38303Y-17359D01*
X38336Y-17370D01*
X38348Y-17381D01*
X38426Y-17359D02*
X38573Y-17359D01*
X38494Y-17449D01*
X38528Y-17449D01*
X38550Y-17460D01*
X38561Y-17471D01*
X38573Y-17494D01*
X38573Y-17550D01*
X38561Y-17573D01*
X38550Y-17584D01*
X38528Y-17595D01*
X38460Y-17595D01*
X38438Y-17584D01*
X38426Y-17573D01*
X38708Y-17460D02*
X38685Y-17449D01*
X38674Y-17438D01*
X38663Y-17415D01*
X38663Y-17404D01*
X38674Y-17381D01*
X38685Y-17370D01*
X38708Y-17359D01*
X38753Y-17359D01*
X38775Y-17370D01*
X38786Y-17381D01*
X38798Y-17404D01*
X38798Y-17415D01*
X38786Y-17438D01*
X38775Y-17449D01*
X38753Y-17460D01*
X38708Y-17460D01*
X38685Y-17471D01*
X38674Y-17483D01*
X38663Y-17505D01*
X38663Y-17550D01*
X38674Y-17573D01*
X38685Y-17584D01*
X38708Y-17595D01*
X38753Y-17595D01*
X38775Y-17584D01*
X38786Y-17573D01*
X38798Y-17550D01*
X38798Y-17505D01*
X38786Y-17483D01*
X38775Y-17471D01*
X38753Y-17460D01*
X38823Y-27901D02*
X38834Y-27913D01*
X38845Y-27946D01*
X38845Y-27969D01*
X38834Y-28003D01*
X38811Y-28025D01*
X38789Y-28036D01*
X38744Y-28048D01*
X38710Y-28048D01*
X38665Y-28036D01*
X38643Y-28025D01*
X38620Y-28003D01*
X38609Y-27969D01*
X38609Y-27946D01*
X38620Y-27913D01*
X38631Y-27901D01*
X38609Y-27823D02*
X38609Y-27676D01*
X38699Y-27755D01*
X38699Y-27721D01*
X38710Y-27699D01*
X38721Y-27688D01*
X38744Y-27676D01*
X38800Y-27676D01*
X38823Y-27688D01*
X38834Y-27699D01*
X38845Y-27721D01*
X38845Y-27789D01*
X38834Y-27811D01*
X38823Y-27823D01*
X38845Y-27564D02*
X38845Y-27519D01*
X38834Y-27496D01*
X38823Y-27485D01*
X38789Y-27463D01*
X38744Y-27451D01*
X38654Y-27451D01*
X38631Y-27463D01*
X38620Y-27474D01*
X38609Y-27496D01*
X38609Y-27541D01*
X38620Y-27564D01*
X38631Y-27575D01*
X38654Y-27586D01*
X38710Y-27586D01*
X38733Y-27575D01*
X38744Y-27564D01*
X38755Y-27541D01*
X38755Y-27496D01*
X38744Y-27474D01*
X38733Y-27463D01*
X38710Y-27451D01*
X34598Y-17345D02*
X34519Y-17233D01*
X34463Y-17345D02*
X34463Y-17109D01*
X34553Y-17109D01*
X34575Y-17120D01*
X34586Y-17131D01*
X34598Y-17154D01*
X34598Y-17188D01*
X34586Y-17210D01*
X34575Y-17221D01*
X34553Y-17233D01*
X34463Y-17233D01*
X34676Y-17109D02*
X34823Y-17109D01*
X34744Y-17199D01*
X34778Y-17199D01*
X34800Y-17210D01*
X34811Y-17221D01*
X34823Y-17244D01*
X34823Y-17300D01*
X34811Y-17323D01*
X34800Y-17334D01*
X34778Y-17345D01*
X34710Y-17345D01*
X34688Y-17334D01*
X34676Y-17323D01*
X35025Y-17109D02*
X34980Y-17109D01*
X34958Y-17120D01*
X34946Y-17131D01*
X34924Y-17165D01*
X34913Y-17210D01*
X34913Y-17300D01*
X34924Y-17323D01*
X34935Y-17334D01*
X34958Y-17345D01*
X35003Y-17345D01*
X35025Y-17334D01*
X35036Y-17323D01*
X35048Y-17300D01*
X35048Y-17244D01*
X35036Y-17221D01*
X35025Y-17210D01*
X35003Y-17199D01*
X34958Y-17199D01*
X34935Y-17210D01*
X34924Y-17221D01*
X34913Y-17244D01*
X40598Y-18573D02*
X40586Y-18584D01*
X40553Y-18595D01*
X40530Y-18595D01*
X40496Y-18584D01*
X40474Y-18561D01*
X40463Y-18539D01*
X40451Y-18494D01*
X40451Y-18460D01*
X40463Y-18415D01*
X40474Y-18393D01*
X40496Y-18370D01*
X40530Y-18359D01*
X40553Y-18359D01*
X40586Y-18370D01*
X40598Y-18381D01*
X40800Y-18438D02*
X40800Y-18595D01*
X40744Y-18348D02*
X40688Y-18516D01*
X40834Y-18516D01*
X40901Y-18359D02*
X41059Y-18359D01*
X40958Y-18595D01*
X36460Y-17345D02*
X36348Y-17345D01*
X36348Y-17109D01*
X36663Y-17345D02*
X36528Y-17345D01*
X36595Y-17345D02*
X36595Y-17109D01*
X36573Y-17143D01*
X36550Y-17165D01*
X36528Y-17176D01*
X54595Y-27039D02*
X54595Y-27151D01*
X54359Y-27151D01*
X54359Y-26859D02*
X54359Y-26904D01*
X54370Y-26926D01*
X54381Y-26938D01*
X54415Y-26960D01*
X54460Y-26971D01*
X54550Y-26971D01*
X54573Y-26960D01*
X54584Y-26949D01*
X54595Y-26926D01*
X54595Y-26881D01*
X54584Y-26859D01*
X54573Y-26848D01*
X54550Y-26836D01*
X54494Y-26836D01*
X54471Y-26848D01*
X54460Y-26859D01*
X54449Y-26881D01*
X54449Y-26926D01*
X54460Y-26949D01*
X54471Y-26960D01*
X54494Y-26971D01*
X51073Y-27151D02*
X51084Y-27163D01*
X51095Y-27196D01*
X51095Y-27219D01*
X51084Y-27253D01*
X51061Y-27275D01*
X51039Y-27286D01*
X50994Y-27298D01*
X50960Y-27298D01*
X50915Y-27286D01*
X50893Y-27275D01*
X50870Y-27253D01*
X50859Y-27219D01*
X50859Y-27196D01*
X50870Y-27163D01*
X50881Y-27151D01*
X50859Y-26949D02*
X50859Y-26994D01*
X50870Y-27016D01*
X50881Y-27028D01*
X50915Y-27050D01*
X50960Y-27061D01*
X51050Y-27061D01*
X51073Y-27050D01*
X51084Y-27039D01*
X51095Y-27016D01*
X51095Y-26971D01*
X51084Y-26949D01*
X51073Y-26938D01*
X51050Y-26926D01*
X50994Y-26926D01*
X50971Y-26938D01*
X50960Y-26949D01*
X50949Y-26971D01*
X50949Y-27016D01*
X50960Y-27039D01*
X50971Y-27050D01*
X50994Y-27061D01*
X50859Y-26848D02*
X50859Y-26701D01*
X50949Y-26780D01*
X50949Y-26746D01*
X50960Y-26724D01*
X50971Y-26713D01*
X50994Y-26701D01*
X51050Y-26701D01*
X51073Y-26713D01*
X51084Y-26724D01*
X51095Y-26746D01*
X51095Y-26814D01*
X51084Y-26836D01*
X51073Y-26848D01*
X44998Y-27623D02*
X44986Y-27634D01*
X44953Y-27645D01*
X44930Y-27645D01*
X44896Y-27634D01*
X44874Y-27611D01*
X44863Y-27589D01*
X44851Y-27544D01*
X44851Y-27510D01*
X44863Y-27465D01*
X44874Y-27443D01*
X44896Y-27420D01*
X44930Y-27409D01*
X44953Y-27409D01*
X44986Y-27420D01*
X44998Y-27431D01*
X45200Y-27409D02*
X45155Y-27409D01*
X45133Y-27420D01*
X45121Y-27431D01*
X45099Y-27465D01*
X45088Y-27510D01*
X45088Y-27600D01*
X45099Y-27623D01*
X45110Y-27634D01*
X45133Y-27645D01*
X45178Y-27645D01*
X45200Y-27634D01*
X45211Y-27623D01*
X45223Y-27600D01*
X45223Y-27544D01*
X45211Y-27521D01*
X45200Y-27510D01*
X45178Y-27499D01*
X45133Y-27499D01*
X45110Y-27510D01*
X45099Y-27521D01*
X45088Y-27544D01*
X45313Y-27431D02*
X45324Y-27420D01*
X45346Y-27409D01*
X45403Y-27409D01*
X45425Y-27420D01*
X45436Y-27431D01*
X45448Y-27454D01*
X45448Y-27476D01*
X45436Y-27510D01*
X45301Y-27645D01*
X45448Y-27645D01*
X44395Y-26789D02*
X44395Y-26901D01*
X44159Y-26901D01*
X44159Y-26598D02*
X44159Y-26710D01*
X44271Y-26721D01*
X44260Y-26710D01*
X44249Y-26688D01*
X44249Y-26631D01*
X44260Y-26609D01*
X44271Y-26598D01*
X44294Y-26586D01*
X44350Y-26586D01*
X44373Y-26598D01*
X44384Y-26609D01*
X44395Y-26631D01*
X44395Y-26688D01*
X44384Y-26710D01*
X44373Y-26721D01*
X42720Y-19539D02*
X42720Y-19651D01*
X42484Y-19651D01*
X42484Y-19483D02*
X42484Y-19336D01*
X42574Y-19415D01*
X42574Y-19381D01*
X42585Y-19359D01*
X42596Y-19348D01*
X42619Y-19336D01*
X42675Y-19336D01*
X42698Y-19348D01*
X42709Y-19359D01*
X42720Y-19381D01*
X42720Y-19449D01*
X42709Y-19471D01*
X42698Y-19483D01*
X41323Y-19651D02*
X41334Y-19663D01*
X41345Y-19696D01*
X41345Y-19719D01*
X41334Y-19753D01*
X41311Y-19775D01*
X41289Y-19786D01*
X41244Y-19798D01*
X41210Y-19798D01*
X41165Y-19786D01*
X41143Y-19775D01*
X41120Y-19753D01*
X41109Y-19719D01*
X41109Y-19696D01*
X41120Y-19663D01*
X41131Y-19651D01*
X41109Y-19438D02*
X41109Y-19550D01*
X41221Y-19561D01*
X41210Y-19550D01*
X41199Y-19528D01*
X41199Y-19471D01*
X41210Y-19449D01*
X41221Y-19438D01*
X41244Y-19426D01*
X41300Y-19426D01*
X41323Y-19438D01*
X41334Y-19449D01*
X41345Y-19471D01*
X41345Y-19528D01*
X41334Y-19550D01*
X41323Y-19561D01*
X41109Y-19348D02*
X41109Y-19201D01*
X41199Y-19280D01*
X41199Y-19246D01*
X41210Y-19224D01*
X41221Y-19213D01*
X41244Y-19201D01*
X41300Y-19201D01*
X41323Y-19213D01*
X41334Y-19224D01*
X41345Y-19246D01*
X41345Y-19314D01*
X41334Y-19336D01*
X41323Y-19348D01*
X36598Y-18823D02*
X36586Y-18834D01*
X36553Y-18845D01*
X36530Y-18845D01*
X36496Y-18834D01*
X36474Y-18811D01*
X36463Y-18789D01*
X36451Y-18744D01*
X36451Y-18710D01*
X36463Y-18665D01*
X36474Y-18643D01*
X36496Y-18620D01*
X36530Y-18609D01*
X36553Y-18609D01*
X36586Y-18620D01*
X36598Y-18631D01*
X36800Y-18688D02*
X36800Y-18845D01*
X36744Y-18598D02*
X36688Y-18766D01*
X36834Y-18766D01*
X37025Y-18688D02*
X37025Y-18845D01*
X36969Y-18598D02*
X36913Y-18766D01*
X37059Y-18766D01*
X65598Y-23823D02*
X65586Y-23834D01*
X65553Y-23845D01*
X65530Y-23845D01*
X65496Y-23834D01*
X65474Y-23811D01*
X65463Y-23789D01*
X65451Y-23744D01*
X65451Y-23710D01*
X65463Y-23665D01*
X65474Y-23643D01*
X65496Y-23620D01*
X65530Y-23609D01*
X65553Y-23609D01*
X65586Y-23620D01*
X65598Y-23631D01*
X65676Y-23609D02*
X65834Y-23609D01*
X65733Y-23845D01*
X65913Y-23631D02*
X65924Y-23620D01*
X65946Y-23609D01*
X66003Y-23609D01*
X66025Y-23620D01*
X66036Y-23631D01*
X66048Y-23654D01*
X66048Y-23676D01*
X66036Y-23710D01*
X65901Y-23845D01*
X66048Y-23845D01*
X57598Y-23823D02*
X57586Y-23834D01*
X57553Y-23845D01*
X57530Y-23845D01*
X57496Y-23834D01*
X57474Y-23811D01*
X57463Y-23789D01*
X57451Y-23744D01*
X57451Y-23710D01*
X57463Y-23665D01*
X57474Y-23643D01*
X57496Y-23620D01*
X57530Y-23609D01*
X57553Y-23609D01*
X57586Y-23620D01*
X57598Y-23631D01*
X57676Y-23609D02*
X57834Y-23609D01*
X57733Y-23845D01*
X58048Y-23845D02*
X57913Y-23845D01*
X57980Y-23845D02*
X57980Y-23609D01*
X57958Y-23643D01*
X57935Y-23665D01*
X57913Y-23676D01*
X30848Y-32595D02*
X30769Y-32483D01*
X30713Y-32595D02*
X30713Y-32359D01*
X30803Y-32359D01*
X30825Y-32370D01*
X30836Y-32381D01*
X30848Y-32404D01*
X30848Y-32438D01*
X30836Y-32460D01*
X30825Y-32471D01*
X30803Y-32483D01*
X30713Y-32483D01*
X31050Y-32438D02*
X31050Y-32595D01*
X30994Y-32348D02*
X30938Y-32516D01*
X31084Y-32516D01*
X31298Y-32595D02*
X31163Y-32595D01*
X31230Y-32595D02*
X31230Y-32359D01*
X31208Y-32393D01*
X31185Y-32415D01*
X31163Y-32426D01*
X29348Y-32595D02*
X29269Y-32483D01*
X29213Y-32595D02*
X29213Y-32359D01*
X29303Y-32359D01*
X29325Y-32370D01*
X29336Y-32381D01*
X29348Y-32404D01*
X29348Y-32438D01*
X29336Y-32460D01*
X29325Y-32471D01*
X29303Y-32483D01*
X29213Y-32483D01*
X29550Y-32438D02*
X29550Y-32595D01*
X29494Y-32348D02*
X29438Y-32516D01*
X29584Y-32516D01*
X29663Y-32381D02*
X29674Y-32370D01*
X29696Y-32359D01*
X29753Y-32359D01*
X29775Y-32370D01*
X29786Y-32381D01*
X29798Y-32404D01*
X29798Y-32426D01*
X29786Y-32460D01*
X29651Y-32595D01*
X29798Y-32595D01*
X44595Y-30401D02*
X44483Y-30480D01*
X44595Y-30536D02*
X44359Y-30536D01*
X44359Y-30446D01*
X44370Y-30424D01*
X44381Y-30413D01*
X44404Y-30401D01*
X44438Y-30401D01*
X44460Y-30413D01*
X44471Y-30424D01*
X44483Y-30446D01*
X44483Y-30536D01*
X44438Y-30199D02*
X44595Y-30199D01*
X44348Y-30255D02*
X44516Y-30311D01*
X44516Y-30165D01*
X44438Y-29974D02*
X44595Y-29974D01*
X44348Y-30030D02*
X44516Y-30086D01*
X44516Y-29940D01*
X42345Y-17901D02*
X42233Y-17980D01*
X42345Y-18036D02*
X42109Y-18036D01*
X42109Y-17946D01*
X42120Y-17924D01*
X42131Y-17913D01*
X42154Y-17901D01*
X42188Y-17901D01*
X42210Y-17913D01*
X42221Y-17924D01*
X42233Y-17946D01*
X42233Y-18036D01*
X42188Y-17699D02*
X42345Y-17699D01*
X42098Y-17755D02*
X42266Y-17811D01*
X42266Y-17665D01*
X42109Y-17530D02*
X42109Y-17508D01*
X42120Y-17485D01*
X42131Y-17474D01*
X42154Y-17463D01*
X42199Y-17451D01*
X42255Y-17451D01*
X42300Y-17463D01*
X42323Y-17474D01*
X42334Y-17485D01*
X42345Y-17508D01*
X42345Y-17530D01*
X42334Y-17553D01*
X42323Y-17564D01*
X42300Y-17575D01*
X42255Y-17586D01*
X42199Y-17586D01*
X42154Y-17575D01*
X42131Y-17564D01*
X42120Y-17553D01*
X42109Y-17530D01*
X61098Y-29823D02*
X61086Y-29834D01*
X61053Y-29845D01*
X61030Y-29845D01*
X60996Y-29834D01*
X60974Y-29811D01*
X60963Y-29789D01*
X60951Y-29744D01*
X60951Y-29710D01*
X60963Y-29665D01*
X60974Y-29643D01*
X60996Y-29620D01*
X61030Y-29609D01*
X61053Y-29609D01*
X61086Y-29620D01*
X61098Y-29631D01*
X61176Y-29609D02*
X61334Y-29609D01*
X61233Y-29845D01*
X61469Y-29609D02*
X61491Y-29609D01*
X61514Y-29620D01*
X61525Y-29631D01*
X61536Y-29654D01*
X61548Y-29699D01*
X61548Y-29755D01*
X61536Y-29800D01*
X61525Y-29823D01*
X61514Y-29834D01*
X61491Y-29845D01*
X61469Y-29845D01*
X61446Y-29834D01*
X61435Y-29823D01*
X61424Y-29800D01*
X61413Y-29755D01*
X61413Y-29699D01*
X61424Y-29654D01*
X61435Y-29631D01*
X61446Y-29620D01*
X61469Y-29609D01*
X44573Y-31901D02*
X44584Y-31913D01*
X44595Y-31946D01*
X44595Y-31969D01*
X44584Y-32003D01*
X44561Y-32025D01*
X44539Y-32036D01*
X44494Y-32048D01*
X44460Y-32048D01*
X44415Y-32036D01*
X44393Y-32025D01*
X44370Y-32003D01*
X44359Y-31969D01*
X44359Y-31946D01*
X44370Y-31913D01*
X44381Y-31901D01*
X44359Y-31688D02*
X44359Y-31800D01*
X44471Y-31811D01*
X44460Y-31800D01*
X44449Y-31778D01*
X44449Y-31721D01*
X44460Y-31699D01*
X44471Y-31688D01*
X44494Y-31676D01*
X44550Y-31676D01*
X44573Y-31688D01*
X44584Y-31699D01*
X44595Y-31721D01*
X44595Y-31778D01*
X44584Y-31800D01*
X44573Y-31811D01*
X44595Y-31564D02*
X44595Y-31519D01*
X44584Y-31496D01*
X44573Y-31485D01*
X44539Y-31463D01*
X44494Y-31451D01*
X44404Y-31451D01*
X44381Y-31463D01*
X44370Y-31474D01*
X44359Y-31496D01*
X44359Y-31541D01*
X44370Y-31564D01*
X44381Y-31575D01*
X44404Y-31586D01*
X44460Y-31586D01*
X44483Y-31575D01*
X44494Y-31564D01*
X44505Y-31541D01*
X44505Y-31496D01*
X44494Y-31474D01*
X44483Y-31463D01*
X44460Y-31451D01*
X44573Y-28901D02*
X44584Y-28913D01*
X44595Y-28946D01*
X44595Y-28969D01*
X44584Y-29003D01*
X44561Y-29025D01*
X44539Y-29036D01*
X44494Y-29048D01*
X44460Y-29048D01*
X44415Y-29036D01*
X44393Y-29025D01*
X44370Y-29003D01*
X44359Y-28969D01*
X44359Y-28946D01*
X44370Y-28913D01*
X44381Y-28901D01*
X44359Y-28699D02*
X44359Y-28744D01*
X44370Y-28766D01*
X44381Y-28778D01*
X44415Y-28800D01*
X44460Y-28811D01*
X44550Y-28811D01*
X44573Y-28800D01*
X44584Y-28789D01*
X44595Y-28766D01*
X44595Y-28721D01*
X44584Y-28699D01*
X44573Y-28688D01*
X44550Y-28676D01*
X44494Y-28676D01*
X44471Y-28688D01*
X44460Y-28699D01*
X44449Y-28721D01*
X44449Y-28766D01*
X44460Y-28789D01*
X44471Y-28800D01*
X44494Y-28811D01*
X44359Y-28530D02*
X44359Y-28508D01*
X44370Y-28485D01*
X44381Y-28474D01*
X44404Y-28463D01*
X44449Y-28451D01*
X44505Y-28451D01*
X44550Y-28463D01*
X44573Y-28474D01*
X44584Y-28485D01*
X44595Y-28508D01*
X44595Y-28530D01*
X44584Y-28553D01*
X44573Y-28564D01*
X44550Y-28575D01*
X44505Y-28586D01*
X44449Y-28586D01*
X44404Y-28575D01*
X44381Y-28564D01*
X44370Y-28553D01*
X44359Y-28530D01*
X51073Y-28901D02*
X51084Y-28913D01*
X51095Y-28946D01*
X51095Y-28969D01*
X51084Y-29003D01*
X51061Y-29025D01*
X51039Y-29036D01*
X50994Y-29048D01*
X50960Y-29048D01*
X50915Y-29036D01*
X50893Y-29025D01*
X50870Y-29003D01*
X50859Y-28969D01*
X50859Y-28946D01*
X50870Y-28913D01*
X50881Y-28901D01*
X50859Y-28699D02*
X50859Y-28744D01*
X50870Y-28766D01*
X50881Y-28778D01*
X50915Y-28800D01*
X50960Y-28811D01*
X51050Y-28811D01*
X51073Y-28800D01*
X51084Y-28789D01*
X51095Y-28766D01*
X51095Y-28721D01*
X51084Y-28699D01*
X51073Y-28688D01*
X51050Y-28676D01*
X50994Y-28676D01*
X50971Y-28688D01*
X50960Y-28699D01*
X50949Y-28721D01*
X50949Y-28766D01*
X50960Y-28789D01*
X50971Y-28800D01*
X50994Y-28811D01*
X50859Y-28463D02*
X50859Y-28575D01*
X50971Y-28586D01*
X50960Y-28575D01*
X50949Y-28553D01*
X50949Y-28496D01*
X50960Y-28474D01*
X50971Y-28463D01*
X50994Y-28451D01*
X51050Y-28451D01*
X51073Y-28463D01*
X51084Y-28474D01*
X51095Y-28496D01*
X51095Y-28553D01*
X51084Y-28575D01*
X51073Y-28586D01*
X43345Y-30151D02*
X43233Y-30230D01*
X43345Y-30286D02*
X43109Y-30286D01*
X43109Y-30196D01*
X43120Y-30174D01*
X43131Y-30163D01*
X43154Y-30151D01*
X43188Y-30151D01*
X43210Y-30163D01*
X43221Y-30174D01*
X43233Y-30196D01*
X43233Y-30286D01*
X43188Y-29949D02*
X43345Y-29949D01*
X43098Y-30005D02*
X43266Y-30061D01*
X43266Y-29915D01*
X43109Y-29848D02*
X43109Y-29701D01*
X43199Y-29780D01*
X43199Y-29746D01*
X43210Y-29724D01*
X43221Y-29713D01*
X43244Y-29701D01*
X43300Y-29701D01*
X43323Y-29713D01*
X43334Y-29724D01*
X43345Y-29746D01*
X43345Y-29814D01*
X43334Y-29836D01*
X43323Y-29848D01*
X51073Y-31901D02*
X51084Y-31913D01*
X51095Y-31946D01*
X51095Y-31969D01*
X51084Y-32003D01*
X51061Y-32025D01*
X51039Y-32036D01*
X50994Y-32048D01*
X50960Y-32048D01*
X50915Y-32036D01*
X50893Y-32025D01*
X50870Y-32003D01*
X50859Y-31969D01*
X50859Y-31946D01*
X50870Y-31913D01*
X50881Y-31901D01*
X50859Y-31699D02*
X50859Y-31744D01*
X50870Y-31766D01*
X50881Y-31778D01*
X50915Y-31800D01*
X50960Y-31811D01*
X51050Y-31811D01*
X51073Y-31800D01*
X51084Y-31789D01*
X51095Y-31766D01*
X51095Y-31721D01*
X51084Y-31699D01*
X51073Y-31688D01*
X51050Y-31676D01*
X50994Y-31676D01*
X50971Y-31688D01*
X50960Y-31699D01*
X50949Y-31721D01*
X50949Y-31766D01*
X50960Y-31789D01*
X50971Y-31800D01*
X50994Y-31811D01*
X50859Y-31474D02*
X50859Y-31519D01*
X50870Y-31541D01*
X50881Y-31553D01*
X50915Y-31575D01*
X50960Y-31586D01*
X51050Y-31586D01*
X51073Y-31575D01*
X51084Y-31564D01*
X51095Y-31541D01*
X51095Y-31496D01*
X51084Y-31474D01*
X51073Y-31463D01*
X51050Y-31451D01*
X50994Y-31451D01*
X50971Y-31463D01*
X50960Y-31474D01*
X50949Y-31496D01*
X50949Y-31541D01*
X50960Y-31564D01*
X50971Y-31575D01*
X50994Y-31586D01*
X43848Y-25823D02*
X43836Y-25834D01*
X43803Y-25845D01*
X43780Y-25845D01*
X43746Y-25834D01*
X43724Y-25811D01*
X43713Y-25789D01*
X43701Y-25744D01*
X43701Y-25710D01*
X43713Y-25665D01*
X43724Y-25643D01*
X43746Y-25620D01*
X43780Y-25609D01*
X43803Y-25609D01*
X43836Y-25620D01*
X43848Y-25631D01*
X44050Y-25609D02*
X44005Y-25609D01*
X43983Y-25620D01*
X43971Y-25631D01*
X43949Y-25665D01*
X43938Y-25710D01*
X43938Y-25800D01*
X43949Y-25823D01*
X43960Y-25834D01*
X43983Y-25845D01*
X44028Y-25845D01*
X44050Y-25834D01*
X44061Y-25823D01*
X44073Y-25800D01*
X44073Y-25744D01*
X44061Y-25721D01*
X44050Y-25710D01*
X44028Y-25699D01*
X43983Y-25699D01*
X43960Y-25710D01*
X43949Y-25721D01*
X43938Y-25744D01*
X44298Y-25845D02*
X44163Y-25845D01*
X44230Y-25845D02*
X44230Y-25609D01*
X44208Y-25643D01*
X44185Y-25665D01*
X44163Y-25676D01*
X36573Y-27651D02*
X36584Y-27663D01*
X36595Y-27696D01*
X36595Y-27719D01*
X36584Y-27753D01*
X36561Y-27775D01*
X36539Y-27786D01*
X36494Y-27798D01*
X36460Y-27798D01*
X36415Y-27786D01*
X36393Y-27775D01*
X36370Y-27753D01*
X36359Y-27719D01*
X36359Y-27696D01*
X36370Y-27663D01*
X36381Y-27651D01*
X36438Y-27449D02*
X36595Y-27449D01*
X36348Y-27505D02*
X36516Y-27561D01*
X36516Y-27415D01*
X36460Y-27291D02*
X36449Y-27314D01*
X36438Y-27325D01*
X36415Y-27336D01*
X36404Y-27336D01*
X36381Y-27325D01*
X36370Y-27314D01*
X36359Y-27291D01*
X36359Y-27246D01*
X36370Y-27224D01*
X36381Y-27213D01*
X36404Y-27201D01*
X36415Y-27201D01*
X36438Y-27213D01*
X36449Y-27224D01*
X36460Y-27246D01*
X36460Y-27291D01*
X36471Y-27314D01*
X36483Y-27325D01*
X36505Y-27336D01*
X36550Y-27336D01*
X36573Y-27325D01*
X36584Y-27314D01*
X36595Y-27291D01*
X36595Y-27246D01*
X36584Y-27224D01*
X36573Y-27213D01*
X36550Y-27201D01*
X36505Y-27201D01*
X36483Y-27213D01*
X36471Y-27224D01*
X36460Y-27246D01*
X37073Y-19651D02*
X37084Y-19663D01*
X37095Y-19696D01*
X37095Y-19719D01*
X37084Y-19753D01*
X37061Y-19775D01*
X37039Y-19786D01*
X36994Y-19798D01*
X36960Y-19798D01*
X36915Y-19786D01*
X36893Y-19775D01*
X36870Y-19753D01*
X36859Y-19719D01*
X36859Y-19696D01*
X36870Y-19663D01*
X36881Y-19651D01*
X36859Y-19438D02*
X36859Y-19550D01*
X36971Y-19561D01*
X36960Y-19550D01*
X36949Y-19528D01*
X36949Y-19471D01*
X36960Y-19449D01*
X36971Y-19438D01*
X36994Y-19426D01*
X37050Y-19426D01*
X37073Y-19438D01*
X37084Y-19449D01*
X37095Y-19471D01*
X37095Y-19528D01*
X37084Y-19550D01*
X37073Y-19561D01*
X37095Y-19201D02*
X37095Y-19336D01*
X37095Y-19269D02*
X36859Y-19269D01*
X36893Y-19291D01*
X36915Y-19314D01*
X36926Y-19336D01*
X37573Y-27651D02*
X37584Y-27663D01*
X37595Y-27696D01*
X37595Y-27719D01*
X37584Y-27753D01*
X37561Y-27775D01*
X37539Y-27786D01*
X37494Y-27798D01*
X37460Y-27798D01*
X37415Y-27786D01*
X37393Y-27775D01*
X37370Y-27753D01*
X37359Y-27719D01*
X37359Y-27696D01*
X37370Y-27663D01*
X37381Y-27651D01*
X37359Y-27573D02*
X37359Y-27426D01*
X37449Y-27505D01*
X37449Y-27471D01*
X37460Y-27449D01*
X37471Y-27438D01*
X37494Y-27426D01*
X37550Y-27426D01*
X37573Y-27438D01*
X37584Y-27449D01*
X37595Y-27471D01*
X37595Y-27539D01*
X37584Y-27561D01*
X37573Y-27573D01*
X37359Y-27224D02*
X37359Y-27269D01*
X37370Y-27291D01*
X37381Y-27303D01*
X37415Y-27325D01*
X37460Y-27336D01*
X37550Y-27336D01*
X37573Y-27325D01*
X37584Y-27314D01*
X37595Y-27291D01*
X37595Y-27246D01*
X37584Y-27224D01*
X37573Y-27213D01*
X37550Y-27201D01*
X37494Y-27201D01*
X37471Y-27213D01*
X37460Y-27224D01*
X37449Y-27246D01*
X37449Y-27291D01*
X37460Y-27314D01*
X37471Y-27325D01*
X37494Y-27336D01*
X38073Y-19651D02*
X38084Y-19663D01*
X38095Y-19696D01*
X38095Y-19719D01*
X38084Y-19753D01*
X38061Y-19775D01*
X38039Y-19786D01*
X37994Y-19798D01*
X37960Y-19798D01*
X37915Y-19786D01*
X37893Y-19775D01*
X37870Y-19753D01*
X37859Y-19719D01*
X37859Y-19696D01*
X37870Y-19663D01*
X37881Y-19651D01*
X37938Y-19449D02*
X38095Y-19449D01*
X37848Y-19505D02*
X38016Y-19561D01*
X38016Y-19415D01*
X37859Y-19280D02*
X37859Y-19258D01*
X37870Y-19235D01*
X37881Y-19224D01*
X37904Y-19213D01*
X37949Y-19201D01*
X38005Y-19201D01*
X38050Y-19213D01*
X38073Y-19224D01*
X38084Y-19235D01*
X38095Y-19258D01*
X38095Y-19280D01*
X38084Y-19303D01*
X38073Y-19314D01*
X38050Y-19325D01*
X38005Y-19336D01*
X37949Y-19336D01*
X37904Y-19325D01*
X37881Y-19314D01*
X37870Y-19303D01*
X37859Y-19280D01*
X34598Y-18573D02*
X34586Y-18584D01*
X34553Y-18595D01*
X34530Y-18595D01*
X34496Y-18584D01*
X34474Y-18561D01*
X34463Y-18539D01*
X34451Y-18494D01*
X34451Y-18460D01*
X34463Y-18415D01*
X34474Y-18393D01*
X34496Y-18370D01*
X34530Y-18359D01*
X34553Y-18359D01*
X34586Y-18370D01*
X34598Y-18381D01*
X34676Y-18359D02*
X34823Y-18359D01*
X34744Y-18449D01*
X34778Y-18449D01*
X34800Y-18460D01*
X34811Y-18471D01*
X34823Y-18494D01*
X34823Y-18550D01*
X34811Y-18573D01*
X34800Y-18584D01*
X34778Y-18595D01*
X34710Y-18595D01*
X34688Y-18584D01*
X34676Y-18573D01*
X35036Y-18359D02*
X34924Y-18359D01*
X34913Y-18471D01*
X34924Y-18460D01*
X34946Y-18449D01*
X35003Y-18449D01*
X35025Y-18460D01*
X35036Y-18471D01*
X35048Y-18494D01*
X35048Y-18550D01*
X35036Y-18573D01*
X35025Y-18584D01*
X35003Y-18595D01*
X34946Y-18595D01*
X34924Y-18584D01*
X34913Y-18573D01*
X39073Y-19151D02*
X39084Y-19163D01*
X39095Y-19196D01*
X39095Y-19219D01*
X39084Y-19253D01*
X39061Y-19275D01*
X39039Y-19286D01*
X38994Y-19298D01*
X38960Y-19298D01*
X38915Y-19286D01*
X38893Y-19275D01*
X38870Y-19253D01*
X38859Y-19219D01*
X38859Y-19196D01*
X38870Y-19163D01*
X38881Y-19151D01*
X38938Y-18949D02*
X39095Y-18949D01*
X38848Y-19005D02*
X39016Y-19061D01*
X39016Y-18915D01*
X39095Y-18814D02*
X39095Y-18769D01*
X39084Y-18746D01*
X39073Y-18735D01*
X39039Y-18713D01*
X38994Y-18701D01*
X38904Y-18701D01*
X38881Y-18713D01*
X38870Y-18724D01*
X38859Y-18746D01*
X38859Y-18791D01*
X38870Y-18814D01*
X38881Y-18825D01*
X38904Y-18836D01*
X38960Y-18836D01*
X38983Y-18825D01*
X38994Y-18814D01*
X39005Y-18791D01*
X39005Y-18746D01*
X38994Y-18724D01*
X38983Y-18713D01*
X38960Y-18701D01*
X35348Y-20323D02*
X35336Y-20334D01*
X35303Y-20345D01*
X35280Y-20345D01*
X35246Y-20334D01*
X35224Y-20311D01*
X35213Y-20289D01*
X35201Y-20244D01*
X35201Y-20210D01*
X35213Y-20165D01*
X35224Y-20143D01*
X35246Y-20120D01*
X35280Y-20109D01*
X35303Y-20109D01*
X35336Y-20120D01*
X35348Y-20131D01*
X35561Y-20109D02*
X35449Y-20109D01*
X35438Y-20221D01*
X35449Y-20210D01*
X35471Y-20199D01*
X35528Y-20199D01*
X35550Y-20210D01*
X35561Y-20221D01*
X35573Y-20244D01*
X35573Y-20300D01*
X35561Y-20323D01*
X35550Y-20334D01*
X35528Y-20345D01*
X35471Y-20345D01*
X35449Y-20334D01*
X35438Y-20323D01*
X35719Y-20109D02*
X35741Y-20109D01*
X35764Y-20120D01*
X35775Y-20131D01*
X35786Y-20154D01*
X35798Y-20199D01*
X35798Y-20255D01*
X35786Y-20300D01*
X35775Y-20323D01*
X35764Y-20334D01*
X35741Y-20345D01*
X35719Y-20345D01*
X35696Y-20334D01*
X35685Y-20323D01*
X35674Y-20300D01*
X35663Y-20255D01*
X35663Y-20199D01*
X35674Y-20154D01*
X35685Y-20131D01*
X35696Y-20120D01*
X35719Y-20109D01*
X69348Y-31595D02*
X69269Y-31483D01*
X69213Y-31595D02*
X69213Y-31359D01*
X69303Y-31359D01*
X69325Y-31370D01*
X69336Y-31381D01*
X69348Y-31404D01*
X69348Y-31438D01*
X69336Y-31460D01*
X69325Y-31471D01*
X69303Y-31483D01*
X69213Y-31483D01*
X69426Y-31359D02*
X69573Y-31359D01*
X69494Y-31449D01*
X69528Y-31449D01*
X69550Y-31460D01*
X69561Y-31471D01*
X69573Y-31494D01*
X69573Y-31550D01*
X69561Y-31573D01*
X69550Y-31584D01*
X69528Y-31595D01*
X69460Y-31595D01*
X69438Y-31584D01*
X69426Y-31573D01*
X69786Y-31359D02*
X69674Y-31359D01*
X69663Y-31471D01*
X69674Y-31460D01*
X69696Y-31449D01*
X69753Y-31449D01*
X69775Y-31460D01*
X69786Y-31471D01*
X69798Y-31494D01*
X69798Y-31550D01*
X69786Y-31573D01*
X69775Y-31584D01*
X69753Y-31595D01*
X69696Y-31595D01*
X69674Y-31584D01*
X69663Y-31573D01*
X51073Y-25401D02*
X51084Y-25413D01*
X51095Y-25446D01*
X51095Y-25469D01*
X51084Y-25503D01*
X51061Y-25525D01*
X51039Y-25536D01*
X50994Y-25548D01*
X50960Y-25548D01*
X50915Y-25536D01*
X50893Y-25525D01*
X50870Y-25503D01*
X50859Y-25469D01*
X50859Y-25446D01*
X50870Y-25413D01*
X50881Y-25401D01*
X50859Y-25199D02*
X50859Y-25244D01*
X50870Y-25266D01*
X50881Y-25278D01*
X50915Y-25300D01*
X50960Y-25311D01*
X51050Y-25311D01*
X51073Y-25300D01*
X51084Y-25289D01*
X51095Y-25266D01*
X51095Y-25221D01*
X51084Y-25199D01*
X51073Y-25188D01*
X51050Y-25176D01*
X50994Y-25176D01*
X50971Y-25188D01*
X50960Y-25199D01*
X50949Y-25221D01*
X50949Y-25266D01*
X50960Y-25289D01*
X50971Y-25300D01*
X50994Y-25311D01*
X50938Y-24974D02*
X51095Y-24974D01*
X50848Y-25030D02*
X51016Y-25086D01*
X51016Y-24940D01*
X43648Y-20345D02*
X43569Y-20233D01*
X43513Y-20345D02*
X43513Y-20109D01*
X43603Y-20109D01*
X43625Y-20120D01*
X43636Y-20131D01*
X43648Y-20154D01*
X43648Y-20188D01*
X43636Y-20210D01*
X43625Y-20221D01*
X43603Y-20233D01*
X43513Y-20233D01*
X43850Y-20188D02*
X43850Y-20345D01*
X43794Y-20098D02*
X43738Y-20266D01*
X43884Y-20266D01*
X44075Y-20109D02*
X44030Y-20109D01*
X44008Y-20120D01*
X43996Y-20131D01*
X43974Y-20165D01*
X43963Y-20210D01*
X43963Y-20300D01*
X43974Y-20323D01*
X43985Y-20334D01*
X44008Y-20345D01*
X44053Y-20345D01*
X44075Y-20334D01*
X44086Y-20323D01*
X44098Y-20300D01*
X44098Y-20244D01*
X44086Y-20221D01*
X44075Y-20210D01*
X44053Y-20199D01*
X44008Y-20199D01*
X43985Y-20210D01*
X43974Y-20221D01*
X43963Y-20244D01*
X40323Y-19651D02*
X40334Y-19663D01*
X40345Y-19696D01*
X40345Y-19719D01*
X40334Y-19753D01*
X40311Y-19775D01*
X40289Y-19786D01*
X40244Y-19798D01*
X40210Y-19798D01*
X40165Y-19786D01*
X40143Y-19775D01*
X40120Y-19753D01*
X40109Y-19719D01*
X40109Y-19696D01*
X40120Y-19663D01*
X40131Y-19651D01*
X40109Y-19438D02*
X40109Y-19550D01*
X40221Y-19561D01*
X40210Y-19550D01*
X40199Y-19528D01*
X40199Y-19471D01*
X40210Y-19449D01*
X40221Y-19438D01*
X40244Y-19426D01*
X40300Y-19426D01*
X40323Y-19438D01*
X40334Y-19449D01*
X40345Y-19471D01*
X40345Y-19528D01*
X40334Y-19550D01*
X40323Y-19561D01*
X40109Y-19213D02*
X40109Y-19325D01*
X40221Y-19336D01*
X40210Y-19325D01*
X40199Y-19303D01*
X40199Y-19246D01*
X40210Y-19224D01*
X40221Y-19213D01*
X40244Y-19201D01*
X40300Y-19201D01*
X40323Y-19213D01*
X40334Y-19224D01*
X40345Y-19246D01*
X40345Y-19303D01*
X40334Y-19325D01*
X40323Y-19336D01*
X35573Y-27651D02*
X35584Y-27663D01*
X35595Y-27696D01*
X35595Y-27719D01*
X35584Y-27753D01*
X35561Y-27775D01*
X35539Y-27786D01*
X35494Y-27798D01*
X35460Y-27798D01*
X35415Y-27786D01*
X35393Y-27775D01*
X35370Y-27753D01*
X35359Y-27719D01*
X35359Y-27696D01*
X35370Y-27663D01*
X35381Y-27651D01*
X35438Y-27449D02*
X35595Y-27449D01*
X35348Y-27505D02*
X35516Y-27561D01*
X35516Y-27415D01*
X35359Y-27224D02*
X35359Y-27269D01*
X35370Y-27291D01*
X35381Y-27303D01*
X35415Y-27325D01*
X35460Y-27336D01*
X35550Y-27336D01*
X35573Y-27325D01*
X35584Y-27314D01*
X35595Y-27291D01*
X35595Y-27246D01*
X35584Y-27224D01*
X35573Y-27213D01*
X35550Y-27201D01*
X35494Y-27201D01*
X35471Y-27213D01*
X35460Y-27224D01*
X35449Y-27246D01*
X35449Y-27291D01*
X35460Y-27314D01*
X35471Y-27325D01*
X35494Y-27336D01*
X40823Y-21151D02*
X40834Y-21163D01*
X40845Y-21196D01*
X40845Y-21219D01*
X40834Y-21253D01*
X40811Y-21275D01*
X40789Y-21286D01*
X40744Y-21298D01*
X40710Y-21298D01*
X40665Y-21286D01*
X40643Y-21275D01*
X40620Y-21253D01*
X40609Y-21219D01*
X40609Y-21196D01*
X40620Y-21163D01*
X40631Y-21151D01*
X40609Y-20938D02*
X40609Y-21050D01*
X40721Y-21061D01*
X40710Y-21050D01*
X40699Y-21028D01*
X40699Y-20971D01*
X40710Y-20949D01*
X40721Y-20938D01*
X40744Y-20926D01*
X40800Y-20926D01*
X40823Y-20938D01*
X40834Y-20949D01*
X40845Y-20971D01*
X40845Y-21028D01*
X40834Y-21050D01*
X40823Y-21061D01*
X40688Y-20724D02*
X40845Y-20724D01*
X40598Y-20780D02*
X40766Y-20836D01*
X40766Y-20690D01*
X34573Y-27651D02*
X34584Y-27663D01*
X34595Y-27696D01*
X34595Y-27719D01*
X34584Y-27753D01*
X34561Y-27775D01*
X34539Y-27786D01*
X34494Y-27798D01*
X34460Y-27798D01*
X34415Y-27786D01*
X34393Y-27775D01*
X34370Y-27753D01*
X34359Y-27719D01*
X34359Y-27696D01*
X34370Y-27663D01*
X34381Y-27651D01*
X34438Y-27449D02*
X34595Y-27449D01*
X34348Y-27505D02*
X34516Y-27561D01*
X34516Y-27415D01*
X34359Y-27213D02*
X34359Y-27325D01*
X34471Y-27336D01*
X34460Y-27325D01*
X34449Y-27303D01*
X34449Y-27246D01*
X34460Y-27224D01*
X34471Y-27213D01*
X34494Y-27201D01*
X34550Y-27201D01*
X34573Y-27213D01*
X34584Y-27224D01*
X34595Y-27246D01*
X34595Y-27303D01*
X34584Y-27325D01*
X34573Y-27336D01*
X40848Y-28595D02*
X40769Y-28483D01*
X40713Y-28595D02*
X40713Y-28359D01*
X40803Y-28359D01*
X40825Y-28370D01*
X40836Y-28381D01*
X40848Y-28404D01*
X40848Y-28438D01*
X40836Y-28460D01*
X40825Y-28471D01*
X40803Y-28483D01*
X40713Y-28483D01*
X41050Y-28438D02*
X41050Y-28595D01*
X40994Y-28348D02*
X40938Y-28516D01*
X41084Y-28516D01*
X41286Y-28359D02*
X41174Y-28359D01*
X41163Y-28471D01*
X41174Y-28460D01*
X41196Y-28449D01*
X41253Y-28449D01*
X41275Y-28460D01*
X41286Y-28471D01*
X41298Y-28494D01*
X41298Y-28550D01*
X41286Y-28573D01*
X41275Y-28584D01*
X41253Y-28595D01*
X41196Y-28595D01*
X41174Y-28584D01*
X41163Y-28573D01*
X36598Y-31345D02*
X36519Y-31233D01*
X36463Y-31345D02*
X36463Y-31109D01*
X36553Y-31109D01*
X36575Y-31120D01*
X36586Y-31131D01*
X36598Y-31154D01*
X36598Y-31188D01*
X36586Y-31210D01*
X36575Y-31221D01*
X36553Y-31233D01*
X36463Y-31233D01*
X36676Y-31109D02*
X36823Y-31109D01*
X36744Y-31199D01*
X36778Y-31199D01*
X36800Y-31210D01*
X36811Y-31221D01*
X36823Y-31244D01*
X36823Y-31300D01*
X36811Y-31323D01*
X36800Y-31334D01*
X36778Y-31345D01*
X36710Y-31345D01*
X36688Y-31334D01*
X36676Y-31323D01*
X36935Y-31345D02*
X36980Y-31345D01*
X37003Y-31334D01*
X37014Y-31323D01*
X37036Y-31289D01*
X37048Y-31244D01*
X37048Y-31154D01*
X37036Y-31131D01*
X37025Y-31120D01*
X37003Y-31109D01*
X36958Y-31109D01*
X36935Y-31120D01*
X36924Y-31131D01*
X36913Y-31154D01*
X36913Y-31210D01*
X36924Y-31233D01*
X36935Y-31244D01*
X36958Y-31255D01*
X37003Y-31255D01*
X37025Y-31244D01*
X37036Y-31233D01*
X37048Y-31210D01*
X70825Y-31595D02*
X70825Y-31359D01*
X70881Y-31359D01*
X70915Y-31370D01*
X70938Y-31393D01*
X70949Y-31415D01*
X70960Y-31460D01*
X70960Y-31494D01*
X70949Y-31539D01*
X70938Y-31561D01*
X70915Y-31584D01*
X70881Y-31595D01*
X70825Y-31595D01*
X71185Y-31595D02*
X71050Y-31595D01*
X71118Y-31595D02*
X71118Y-31359D01*
X71095Y-31393D01*
X71073Y-31415D01*
X71050Y-31426D01*
X44463Y-18845D02*
X44463Y-18609D01*
X44553Y-18609D01*
X44575Y-18620D01*
X44586Y-18631D01*
X44598Y-18654D01*
X44598Y-18688D01*
X44586Y-18710D01*
X44575Y-18721D01*
X44553Y-18733D01*
X44463Y-18733D01*
X44688Y-18631D02*
X44699Y-18620D01*
X44721Y-18609D01*
X44778Y-18609D01*
X44800Y-18620D01*
X44811Y-18631D01*
X44823Y-18654D01*
X44823Y-18676D01*
X44811Y-18710D01*
X44676Y-18845D01*
X44823Y-18845D01*
X44969Y-18609D02*
X44991Y-18609D01*
X45014Y-18620D01*
X45025Y-18631D01*
X45036Y-18654D01*
X45048Y-18699D01*
X45048Y-18755D01*
X45036Y-18800D01*
X45025Y-18823D01*
X45014Y-18834D01*
X44991Y-18845D01*
X44969Y-18845D01*
X44946Y-18834D01*
X44935Y-18823D01*
X44924Y-18800D01*
X44913Y-18755D01*
X44913Y-18699D01*
X44924Y-18654D01*
X44935Y-18631D01*
X44946Y-18620D01*
X44969Y-18609D01*
X26710Y-21595D02*
X26631Y-21483D01*
X26575Y-21595D02*
X26575Y-21359D01*
X26665Y-21359D01*
X26688Y-21370D01*
X26699Y-21381D01*
X26710Y-21404D01*
X26710Y-21438D01*
X26699Y-21460D01*
X26688Y-21471D01*
X26665Y-21483D01*
X26575Y-21483D01*
X26913Y-21359D02*
X26868Y-21359D01*
X26845Y-21370D01*
X26834Y-21381D01*
X26811Y-21415D01*
X26800Y-21460D01*
X26800Y-21550D01*
X26811Y-21573D01*
X26823Y-21584D01*
X26845Y-21595D01*
X26890Y-21595D01*
X26913Y-21584D01*
X26924Y-21573D01*
X26935Y-21550D01*
X26935Y-21494D01*
X26924Y-21471D01*
X26913Y-21460D01*
X26890Y-21449D01*
X26845Y-21449D01*
X26823Y-21460D01*
X26811Y-21471D01*
X26800Y-21494D01*
X26710Y-23595D02*
X26631Y-23483D01*
X26575Y-23595D02*
X26575Y-23359D01*
X26665Y-23359D01*
X26688Y-23370D01*
X26699Y-23381D01*
X26710Y-23404D01*
X26710Y-23438D01*
X26699Y-23460D01*
X26688Y-23471D01*
X26665Y-23483D01*
X26575Y-23483D01*
X26845Y-23460D02*
X26823Y-23449D01*
X26811Y-23438D01*
X26800Y-23415D01*
X26800Y-23404D01*
X26811Y-23381D01*
X26823Y-23370D01*
X26845Y-23359D01*
X26890Y-23359D01*
X26913Y-23370D01*
X26924Y-23381D01*
X26935Y-23404D01*
X26935Y-23415D01*
X26924Y-23438D01*
X26913Y-23449D01*
X26890Y-23460D01*
X26845Y-23460D01*
X26823Y-23471D01*
X26811Y-23483D01*
X26800Y-23505D01*
X26800Y-23550D01*
X26811Y-23573D01*
X26823Y-23584D01*
X26845Y-23595D01*
X26890Y-23595D01*
X26913Y-23584D01*
X26924Y-23573D01*
X26935Y-23550D01*
X26935Y-23505D01*
X26924Y-23483D01*
X26913Y-23471D01*
X26890Y-23460D01*
X26710Y-22595D02*
X26631Y-22483D01*
X26575Y-22595D02*
X26575Y-22359D01*
X26665Y-22359D01*
X26688Y-22370D01*
X26699Y-22381D01*
X26710Y-22404D01*
X26710Y-22438D01*
X26699Y-22460D01*
X26688Y-22471D01*
X26665Y-22483D01*
X26575Y-22483D01*
X26789Y-22359D02*
X26946Y-22359D01*
X26845Y-22595D01*
X26710Y-20595D02*
X26631Y-20483D01*
X26575Y-20595D02*
X26575Y-20359D01*
X26665Y-20359D01*
X26688Y-20370D01*
X26699Y-20381D01*
X26710Y-20404D01*
X26710Y-20438D01*
X26699Y-20460D01*
X26688Y-20471D01*
X26665Y-20483D01*
X26575Y-20483D01*
X26924Y-20359D02*
X26811Y-20359D01*
X26800Y-20471D01*
X26811Y-20460D01*
X26834Y-20449D01*
X26890Y-20449D01*
X26913Y-20460D01*
X26924Y-20471D01*
X26935Y-20494D01*
X26935Y-20550D01*
X26924Y-20573D01*
X26913Y-20584D01*
X26890Y-20595D01*
X26834Y-20595D01*
X26811Y-20584D01*
X26800Y-20573D01*
X26598Y-31595D02*
X26519Y-31483D01*
X26463Y-31595D02*
X26463Y-31359D01*
X26553Y-31359D01*
X26575Y-31370D01*
X26586Y-31381D01*
X26598Y-31404D01*
X26598Y-31438D01*
X26586Y-31460D01*
X26575Y-31471D01*
X26553Y-31483D01*
X26463Y-31483D01*
X26823Y-31595D02*
X26688Y-31595D01*
X26755Y-31595D02*
X26755Y-31359D01*
X26733Y-31393D01*
X26710Y-31415D01*
X26688Y-31426D01*
X27025Y-31359D02*
X26980Y-31359D01*
X26958Y-31370D01*
X26946Y-31381D01*
X26924Y-31415D01*
X26913Y-31460D01*
X26913Y-31550D01*
X26924Y-31573D01*
X26935Y-31584D01*
X26958Y-31595D01*
X27003Y-31595D01*
X27025Y-31584D01*
X27036Y-31573D01*
X27048Y-31550D01*
X27048Y-31494D01*
X27036Y-31471D01*
X27025Y-31460D01*
X27003Y-31449D01*
X26958Y-31449D01*
X26935Y-31460D01*
X26924Y-31471D01*
X26913Y-31494D01*
X26598Y-30595D02*
X26519Y-30483D01*
X26463Y-30595D02*
X26463Y-30359D01*
X26553Y-30359D01*
X26575Y-30370D01*
X26586Y-30381D01*
X26598Y-30404D01*
X26598Y-30438D01*
X26586Y-30460D01*
X26575Y-30471D01*
X26553Y-30483D01*
X26463Y-30483D01*
X26823Y-30595D02*
X26688Y-30595D01*
X26755Y-30595D02*
X26755Y-30359D01*
X26733Y-30393D01*
X26710Y-30415D01*
X26688Y-30426D01*
X27036Y-30359D02*
X26924Y-30359D01*
X26913Y-30471D01*
X26924Y-30460D01*
X26946Y-30449D01*
X27003Y-30449D01*
X27025Y-30460D01*
X27036Y-30471D01*
X27048Y-30494D01*
X27048Y-30550D01*
X27036Y-30573D01*
X27025Y-30584D01*
X27003Y-30595D01*
X26946Y-30595D01*
X26924Y-30584D01*
X26913Y-30573D01*
X26598Y-28595D02*
X26519Y-28483D01*
X26463Y-28595D02*
X26463Y-28359D01*
X26553Y-28359D01*
X26575Y-28370D01*
X26586Y-28381D01*
X26598Y-28404D01*
X26598Y-28438D01*
X26586Y-28460D01*
X26575Y-28471D01*
X26553Y-28483D01*
X26463Y-28483D01*
X26823Y-28595D02*
X26688Y-28595D01*
X26755Y-28595D02*
X26755Y-28359D01*
X26733Y-28393D01*
X26710Y-28415D01*
X26688Y-28426D01*
X26901Y-28359D02*
X27048Y-28359D01*
X26969Y-28449D01*
X27003Y-28449D01*
X27025Y-28460D01*
X27036Y-28471D01*
X27048Y-28494D01*
X27048Y-28550D01*
X27036Y-28573D01*
X27025Y-28584D01*
X27003Y-28595D01*
X26935Y-28595D01*
X26913Y-28584D01*
X26901Y-28573D01*
X26598Y-29595D02*
X26519Y-29483D01*
X26463Y-29595D02*
X26463Y-29359D01*
X26553Y-29359D01*
X26575Y-29370D01*
X26586Y-29381D01*
X26598Y-29404D01*
X26598Y-29438D01*
X26586Y-29460D01*
X26575Y-29471D01*
X26553Y-29483D01*
X26463Y-29483D01*
X26823Y-29595D02*
X26688Y-29595D01*
X26755Y-29595D02*
X26755Y-29359D01*
X26733Y-29393D01*
X26710Y-29415D01*
X26688Y-29426D01*
X27025Y-29438D02*
X27025Y-29595D01*
X26969Y-29348D02*
X26913Y-29516D01*
X27059Y-29516D01*
X26710Y-18595D02*
X26631Y-18483D01*
X26575Y-18595D02*
X26575Y-18359D01*
X26665Y-18359D01*
X26688Y-18370D01*
X26699Y-18381D01*
X26710Y-18404D01*
X26710Y-18438D01*
X26699Y-18460D01*
X26688Y-18471D01*
X26665Y-18483D01*
X26575Y-18483D01*
X26789Y-18359D02*
X26935Y-18359D01*
X26856Y-18449D01*
X26890Y-18449D01*
X26913Y-18460D01*
X26924Y-18471D01*
X26935Y-18494D01*
X26935Y-18550D01*
X26924Y-18573D01*
X26913Y-18584D01*
X26890Y-18595D01*
X26823Y-18595D01*
X26800Y-18584D01*
X26789Y-18573D01*
X26710Y-19595D02*
X26631Y-19483D01*
X26575Y-19595D02*
X26575Y-19359D01*
X26665Y-19359D01*
X26688Y-19370D01*
X26699Y-19381D01*
X26710Y-19404D01*
X26710Y-19438D01*
X26699Y-19460D01*
X26688Y-19471D01*
X26665Y-19483D01*
X26575Y-19483D01*
X26913Y-19438D02*
X26913Y-19595D01*
X26856Y-19348D02*
X26800Y-19516D01*
X26946Y-19516D01*
X26710Y-16595D02*
X26631Y-16483D01*
X26575Y-16595D02*
X26575Y-16359D01*
X26665Y-16359D01*
X26688Y-16370D01*
X26699Y-16381D01*
X26710Y-16404D01*
X26710Y-16438D01*
X26699Y-16460D01*
X26688Y-16471D01*
X26665Y-16483D01*
X26575Y-16483D01*
X26935Y-16595D02*
X26800Y-16595D01*
X26868Y-16595D02*
X26868Y-16359D01*
X26845Y-16393D01*
X26823Y-16415D01*
X26800Y-16426D01*
X26710Y-17595D02*
X26631Y-17483D01*
X26575Y-17595D02*
X26575Y-17359D01*
X26665Y-17359D01*
X26688Y-17370D01*
X26699Y-17381D01*
X26710Y-17404D01*
X26710Y-17438D01*
X26699Y-17460D01*
X26688Y-17471D01*
X26665Y-17483D01*
X26575Y-17483D01*
X26800Y-17381D02*
X26811Y-17370D01*
X26834Y-17359D01*
X26890Y-17359D01*
X26913Y-17370D01*
X26924Y-17381D01*
X26935Y-17404D01*
X26935Y-17426D01*
X26924Y-17460D01*
X26789Y-17595D01*
X26935Y-17595D01*
X26598Y-15595D02*
X26519Y-15483D01*
X26463Y-15595D02*
X26463Y-15359D01*
X26553Y-15359D01*
X26575Y-15370D01*
X26586Y-15381D01*
X26598Y-15404D01*
X26598Y-15438D01*
X26586Y-15460D01*
X26575Y-15471D01*
X26553Y-15483D01*
X26463Y-15483D01*
X26823Y-15595D02*
X26688Y-15595D01*
X26755Y-15595D02*
X26755Y-15359D01*
X26733Y-15393D01*
X26710Y-15415D01*
X26688Y-15426D01*
X26901Y-15359D02*
X27059Y-15359D01*
X26958Y-15595D01*
X26598Y-25595D02*
X26519Y-25483D01*
X26463Y-25595D02*
X26463Y-25359D01*
X26553Y-25359D01*
X26575Y-25370D01*
X26586Y-25381D01*
X26598Y-25404D01*
X26598Y-25438D01*
X26586Y-25460D01*
X26575Y-25471D01*
X26553Y-25483D01*
X26463Y-25483D01*
X26823Y-25595D02*
X26688Y-25595D01*
X26755Y-25595D02*
X26755Y-25359D01*
X26733Y-25393D01*
X26710Y-25415D01*
X26688Y-25426D01*
X26969Y-25359D02*
X26991Y-25359D01*
X27014Y-25370D01*
X27025Y-25381D01*
X27036Y-25404D01*
X27048Y-25449D01*
X27048Y-25505D01*
X27036Y-25550D01*
X27025Y-25573D01*
X27014Y-25584D01*
X26991Y-25595D01*
X26969Y-25595D01*
X26946Y-25584D01*
X26935Y-25573D01*
X26924Y-25550D01*
X26913Y-25505D01*
X26913Y-25449D01*
X26924Y-25404D01*
X26935Y-25381D01*
X26946Y-25370D01*
X26969Y-25359D01*
X26710Y-24595D02*
X26631Y-24483D01*
X26575Y-24595D02*
X26575Y-24359D01*
X26665Y-24359D01*
X26688Y-24370D01*
X26699Y-24381D01*
X26710Y-24404D01*
X26710Y-24438D01*
X26699Y-24460D01*
X26688Y-24471D01*
X26665Y-24483D01*
X26575Y-24483D01*
X26823Y-24595D02*
X26868Y-24595D01*
X26890Y-24584D01*
X26901Y-24573D01*
X26924Y-24539D01*
X26935Y-24494D01*
X26935Y-24404D01*
X26924Y-24381D01*
X26913Y-24370D01*
X26890Y-24359D01*
X26845Y-24359D01*
X26823Y-24370D01*
X26811Y-24381D01*
X26800Y-24404D01*
X26800Y-24460D01*
X26811Y-24483D01*
X26823Y-24494D01*
X26845Y-24505D01*
X26890Y-24505D01*
X26913Y-24494D01*
X26924Y-24483D01*
X26935Y-24460D01*
X26598Y-26595D02*
X26519Y-26483D01*
X26463Y-26595D02*
X26463Y-26359D01*
X26553Y-26359D01*
X26575Y-26370D01*
X26586Y-26381D01*
X26598Y-26404D01*
X26598Y-26438D01*
X26586Y-26460D01*
X26575Y-26471D01*
X26553Y-26483D01*
X26463Y-26483D01*
X26823Y-26595D02*
X26688Y-26595D01*
X26755Y-26595D02*
X26755Y-26359D01*
X26733Y-26393D01*
X26710Y-26415D01*
X26688Y-26426D01*
X27048Y-26595D02*
X26913Y-26595D01*
X26980Y-26595D02*
X26980Y-26359D01*
X26958Y-26393D01*
X26935Y-26415D01*
X26913Y-26426D01*
X26598Y-27595D02*
X26519Y-27483D01*
X26463Y-27595D02*
X26463Y-27359D01*
X26553Y-27359D01*
X26575Y-27370D01*
X26586Y-27381D01*
X26598Y-27404D01*
X26598Y-27438D01*
X26586Y-27460D01*
X26575Y-27471D01*
X26553Y-27483D01*
X26463Y-27483D01*
X26823Y-27595D02*
X26688Y-27595D01*
X26755Y-27595D02*
X26755Y-27359D01*
X26733Y-27393D01*
X26710Y-27415D01*
X26688Y-27426D01*
X26913Y-27381D02*
X26924Y-27370D01*
X26946Y-27359D01*
X27003Y-27359D01*
X27025Y-27370D01*
X27036Y-27381D01*
X27048Y-27404D01*
X27048Y-27426D01*
X27036Y-27460D01*
X26901Y-27595D01*
X27048Y-27595D01*
X31098Y-23573D02*
X31086Y-23584D01*
X31053Y-23595D01*
X31030Y-23595D01*
X30996Y-23584D01*
X30974Y-23561D01*
X30963Y-23539D01*
X30951Y-23494D01*
X30951Y-23460D01*
X30963Y-23415D01*
X30974Y-23393D01*
X30996Y-23370D01*
X31030Y-23359D01*
X31053Y-23359D01*
X31086Y-23370D01*
X31098Y-23381D01*
X31188Y-23381D02*
X31199Y-23370D01*
X31221Y-23359D01*
X31278Y-23359D01*
X31300Y-23370D01*
X31311Y-23381D01*
X31323Y-23404D01*
X31323Y-23426D01*
X31311Y-23460D01*
X31176Y-23595D01*
X31323Y-23595D01*
X31536Y-23359D02*
X31424Y-23359D01*
X31413Y-23471D01*
X31424Y-23460D01*
X31446Y-23449D01*
X31503Y-23449D01*
X31525Y-23460D01*
X31536Y-23471D01*
X31548Y-23494D01*
X31548Y-23550D01*
X31536Y-23573D01*
X31525Y-23584D01*
X31503Y-23595D01*
X31446Y-23595D01*
X31424Y-23584D01*
X31413Y-23573D01*
X28210Y-23573D02*
X28199Y-23584D01*
X28165Y-23595D01*
X28143Y-23595D01*
X28109Y-23584D01*
X28086Y-23561D01*
X28075Y-23539D01*
X28064Y-23494D01*
X28064Y-23460D01*
X28075Y-23415D01*
X28086Y-23393D01*
X28109Y-23370D01*
X28143Y-23359D01*
X28165Y-23359D01*
X28199Y-23370D01*
X28210Y-23381D01*
X28345Y-23460D02*
X28323Y-23449D01*
X28311Y-23438D01*
X28300Y-23415D01*
X28300Y-23404D01*
X28311Y-23381D01*
X28323Y-23370D01*
X28345Y-23359D01*
X28390Y-23359D01*
X28413Y-23370D01*
X28424Y-23381D01*
X28435Y-23404D01*
X28435Y-23415D01*
X28424Y-23438D01*
X28413Y-23449D01*
X28390Y-23460D01*
X28345Y-23460D01*
X28323Y-23471D01*
X28311Y-23483D01*
X28300Y-23505D01*
X28300Y-23550D01*
X28311Y-23573D01*
X28323Y-23584D01*
X28345Y-23595D01*
X28390Y-23595D01*
X28413Y-23584D01*
X28424Y-23573D01*
X28435Y-23550D01*
X28435Y-23505D01*
X28424Y-23483D01*
X28413Y-23471D01*
X28390Y-23460D01*
X29598Y-23095D02*
X29519Y-22983D01*
X29463Y-23095D02*
X29463Y-22859D01*
X29553Y-22859D01*
X29575Y-22870D01*
X29586Y-22881D01*
X29598Y-22904D01*
X29598Y-22938D01*
X29586Y-22960D01*
X29575Y-22971D01*
X29553Y-22983D01*
X29463Y-22983D01*
X29688Y-22881D02*
X29699Y-22870D01*
X29721Y-22859D01*
X29778Y-22859D01*
X29800Y-22870D01*
X29811Y-22881D01*
X29823Y-22904D01*
X29823Y-22926D01*
X29811Y-22960D01*
X29676Y-23095D01*
X29823Y-23095D01*
X30036Y-22859D02*
X29924Y-22859D01*
X29913Y-22971D01*
X29924Y-22960D01*
X29946Y-22949D01*
X30003Y-22949D01*
X30025Y-22960D01*
X30036Y-22971D01*
X30048Y-22994D01*
X30048Y-23050D01*
X30036Y-23073D01*
X30025Y-23084D01*
X30003Y-23095D01*
X29946Y-23095D01*
X29924Y-23084D01*
X29913Y-23073D01*
X29598Y-22095D02*
X29519Y-21983D01*
X29463Y-22095D02*
X29463Y-21859D01*
X29553Y-21859D01*
X29575Y-21870D01*
X29586Y-21881D01*
X29598Y-21904D01*
X29598Y-21938D01*
X29586Y-21960D01*
X29575Y-21971D01*
X29553Y-21983D01*
X29463Y-21983D01*
X29688Y-21881D02*
X29699Y-21870D01*
X29721Y-21859D01*
X29778Y-21859D01*
X29800Y-21870D01*
X29811Y-21881D01*
X29823Y-21904D01*
X29823Y-21926D01*
X29811Y-21960D01*
X29676Y-22095D01*
X29823Y-22095D01*
X30025Y-21938D02*
X30025Y-22095D01*
X29969Y-21848D02*
X29913Y-22016D01*
X30059Y-22016D01*
X28210Y-22573D02*
X28199Y-22584D01*
X28165Y-22595D01*
X28143Y-22595D01*
X28109Y-22584D01*
X28086Y-22561D01*
X28075Y-22539D01*
X28064Y-22494D01*
X28064Y-22460D01*
X28075Y-22415D01*
X28086Y-22393D01*
X28109Y-22370D01*
X28143Y-22359D01*
X28165Y-22359D01*
X28199Y-22370D01*
X28210Y-22381D01*
X28289Y-22359D02*
X28446Y-22359D01*
X28345Y-22595D01*
X31098Y-22573D02*
X31086Y-22584D01*
X31053Y-22595D01*
X31030Y-22595D01*
X30996Y-22584D01*
X30974Y-22561D01*
X30963Y-22539D01*
X30951Y-22494D01*
X30951Y-22460D01*
X30963Y-22415D01*
X30974Y-22393D01*
X30996Y-22370D01*
X31030Y-22359D01*
X31053Y-22359D01*
X31086Y-22370D01*
X31098Y-22381D01*
X31188Y-22381D02*
X31199Y-22370D01*
X31221Y-22359D01*
X31278Y-22359D01*
X31300Y-22370D01*
X31311Y-22381D01*
X31323Y-22404D01*
X31323Y-22426D01*
X31311Y-22460D01*
X31176Y-22595D01*
X31323Y-22595D01*
X31525Y-22438D02*
X31525Y-22595D01*
X31469Y-22348D02*
X31413Y-22516D01*
X31559Y-22516D01*
X31098Y-20573D02*
X31086Y-20584D01*
X31053Y-20595D01*
X31030Y-20595D01*
X30996Y-20584D01*
X30974Y-20561D01*
X30963Y-20539D01*
X30951Y-20494D01*
X30951Y-20460D01*
X30963Y-20415D01*
X30974Y-20393D01*
X30996Y-20370D01*
X31030Y-20359D01*
X31053Y-20359D01*
X31086Y-20370D01*
X31098Y-20381D01*
X31188Y-20381D02*
X31199Y-20370D01*
X31221Y-20359D01*
X31278Y-20359D01*
X31300Y-20370D01*
X31311Y-20381D01*
X31323Y-20404D01*
X31323Y-20426D01*
X31311Y-20460D01*
X31176Y-20595D01*
X31323Y-20595D01*
X31413Y-20381D02*
X31424Y-20370D01*
X31446Y-20359D01*
X31503Y-20359D01*
X31525Y-20370D01*
X31536Y-20381D01*
X31548Y-20404D01*
X31548Y-20426D01*
X31536Y-20460D01*
X31401Y-20595D01*
X31548Y-20595D01*
X28210Y-20573D02*
X28199Y-20584D01*
X28165Y-20595D01*
X28143Y-20595D01*
X28109Y-20584D01*
X28086Y-20561D01*
X28075Y-20539D01*
X28064Y-20494D01*
X28064Y-20460D01*
X28075Y-20415D01*
X28086Y-20393D01*
X28109Y-20370D01*
X28143Y-20359D01*
X28165Y-20359D01*
X28199Y-20370D01*
X28210Y-20381D01*
X28424Y-20359D02*
X28311Y-20359D01*
X28300Y-20471D01*
X28311Y-20460D01*
X28334Y-20449D01*
X28390Y-20449D01*
X28413Y-20460D01*
X28424Y-20471D01*
X28435Y-20494D01*
X28435Y-20550D01*
X28424Y-20573D01*
X28413Y-20584D01*
X28390Y-20595D01*
X28334Y-20595D01*
X28311Y-20584D01*
X28300Y-20573D01*
X29598Y-20095D02*
X29519Y-19983D01*
X29463Y-20095D02*
X29463Y-19859D01*
X29553Y-19859D01*
X29575Y-19870D01*
X29586Y-19881D01*
X29598Y-19904D01*
X29598Y-19938D01*
X29586Y-19960D01*
X29575Y-19971D01*
X29553Y-19983D01*
X29463Y-19983D01*
X29688Y-19881D02*
X29699Y-19870D01*
X29721Y-19859D01*
X29778Y-19859D01*
X29800Y-19870D01*
X29811Y-19881D01*
X29823Y-19904D01*
X29823Y-19926D01*
X29811Y-19960D01*
X29676Y-20095D01*
X29823Y-20095D01*
X29913Y-19881D02*
X29924Y-19870D01*
X29946Y-19859D01*
X30003Y-19859D01*
X30025Y-19870D01*
X30036Y-19881D01*
X30048Y-19904D01*
X30048Y-19926D01*
X30036Y-19960D01*
X29901Y-20095D01*
X30048Y-20095D01*
X29598Y-17095D02*
X29519Y-16983D01*
X29463Y-17095D02*
X29463Y-16859D01*
X29553Y-16859D01*
X29575Y-16870D01*
X29586Y-16881D01*
X29598Y-16904D01*
X29598Y-16938D01*
X29586Y-16960D01*
X29575Y-16971D01*
X29553Y-16983D01*
X29463Y-16983D01*
X29823Y-17095D02*
X29688Y-17095D01*
X29755Y-17095D02*
X29755Y-16859D01*
X29733Y-16893D01*
X29710Y-16915D01*
X29688Y-16926D01*
X29935Y-17095D02*
X29980Y-17095D01*
X30003Y-17084D01*
X30014Y-17073D01*
X30036Y-17039D01*
X30048Y-16994D01*
X30048Y-16904D01*
X30036Y-16881D01*
X30025Y-16870D01*
X30003Y-16859D01*
X29958Y-16859D01*
X29935Y-16870D01*
X29924Y-16881D01*
X29913Y-16904D01*
X29913Y-16960D01*
X29924Y-16983D01*
X29935Y-16994D01*
X29958Y-17005D01*
X30003Y-17005D01*
X30025Y-16994D01*
X30036Y-16983D01*
X30048Y-16960D01*
X31098Y-31573D02*
X31086Y-31584D01*
X31053Y-31595D01*
X31030Y-31595D01*
X30996Y-31584D01*
X30974Y-31561D01*
X30963Y-31539D01*
X30951Y-31494D01*
X30951Y-31460D01*
X30963Y-31415D01*
X30974Y-31393D01*
X30996Y-31370D01*
X31030Y-31359D01*
X31053Y-31359D01*
X31086Y-31370D01*
X31098Y-31381D01*
X31176Y-31359D02*
X31323Y-31359D01*
X31244Y-31449D01*
X31278Y-31449D01*
X31300Y-31460D01*
X31311Y-31471D01*
X31323Y-31494D01*
X31323Y-31550D01*
X31311Y-31573D01*
X31300Y-31584D01*
X31278Y-31595D01*
X31210Y-31595D01*
X31188Y-31584D01*
X31176Y-31573D01*
X31401Y-31359D02*
X31548Y-31359D01*
X31469Y-31449D01*
X31503Y-31449D01*
X31525Y-31460D01*
X31536Y-31471D01*
X31548Y-31494D01*
X31548Y-31550D01*
X31536Y-31573D01*
X31525Y-31584D01*
X31503Y-31595D01*
X31435Y-31595D01*
X31413Y-31584D01*
X31401Y-31573D01*
X28098Y-31573D02*
X28086Y-31584D01*
X28053Y-31595D01*
X28030Y-31595D01*
X27996Y-31584D01*
X27974Y-31561D01*
X27963Y-31539D01*
X27951Y-31494D01*
X27951Y-31460D01*
X27963Y-31415D01*
X27974Y-31393D01*
X27996Y-31370D01*
X28030Y-31359D01*
X28053Y-31359D01*
X28086Y-31370D01*
X28098Y-31381D01*
X28323Y-31595D02*
X28188Y-31595D01*
X28255Y-31595D02*
X28255Y-31359D01*
X28233Y-31393D01*
X28210Y-31415D01*
X28188Y-31426D01*
X28525Y-31359D02*
X28480Y-31359D01*
X28458Y-31370D01*
X28446Y-31381D01*
X28424Y-31415D01*
X28413Y-31460D01*
X28413Y-31550D01*
X28424Y-31573D01*
X28435Y-31584D01*
X28458Y-31595D01*
X28503Y-31595D01*
X28525Y-31584D01*
X28536Y-31573D01*
X28548Y-31550D01*
X28548Y-31494D01*
X28536Y-31471D01*
X28525Y-31460D01*
X28503Y-31449D01*
X28458Y-31449D01*
X28435Y-31460D01*
X28424Y-31471D01*
X28413Y-31494D01*
X29598Y-31095D02*
X29519Y-30983D01*
X29463Y-31095D02*
X29463Y-30859D01*
X29553Y-30859D01*
X29575Y-30870D01*
X29586Y-30881D01*
X29598Y-30904D01*
X29598Y-30938D01*
X29586Y-30960D01*
X29575Y-30971D01*
X29553Y-30983D01*
X29463Y-30983D01*
X29676Y-30859D02*
X29823Y-30859D01*
X29744Y-30949D01*
X29778Y-30949D01*
X29800Y-30960D01*
X29811Y-30971D01*
X29823Y-30994D01*
X29823Y-31050D01*
X29811Y-31073D01*
X29800Y-31084D01*
X29778Y-31095D01*
X29710Y-31095D01*
X29688Y-31084D01*
X29676Y-31073D01*
X29901Y-30859D02*
X30048Y-30859D01*
X29969Y-30949D01*
X30003Y-30949D01*
X30025Y-30960D01*
X30036Y-30971D01*
X30048Y-30994D01*
X30048Y-31050D01*
X30036Y-31073D01*
X30025Y-31084D01*
X30003Y-31095D01*
X29935Y-31095D01*
X29913Y-31084D01*
X29901Y-31073D01*
X29598Y-30095D02*
X29519Y-29983D01*
X29463Y-30095D02*
X29463Y-29859D01*
X29553Y-29859D01*
X29575Y-29870D01*
X29586Y-29881D01*
X29598Y-29904D01*
X29598Y-29938D01*
X29586Y-29960D01*
X29575Y-29971D01*
X29553Y-29983D01*
X29463Y-29983D01*
X29676Y-29859D02*
X29823Y-29859D01*
X29744Y-29949D01*
X29778Y-29949D01*
X29800Y-29960D01*
X29811Y-29971D01*
X29823Y-29994D01*
X29823Y-30050D01*
X29811Y-30073D01*
X29800Y-30084D01*
X29778Y-30095D01*
X29710Y-30095D01*
X29688Y-30084D01*
X29676Y-30073D01*
X29913Y-29881D02*
X29924Y-29870D01*
X29946Y-29859D01*
X30003Y-29859D01*
X30025Y-29870D01*
X30036Y-29881D01*
X30048Y-29904D01*
X30048Y-29926D01*
X30036Y-29960D01*
X29901Y-30095D01*
X30048Y-30095D01*
X28098Y-30573D02*
X28086Y-30584D01*
X28053Y-30595D01*
X28030Y-30595D01*
X27996Y-30584D01*
X27974Y-30561D01*
X27963Y-30539D01*
X27951Y-30494D01*
X27951Y-30460D01*
X27963Y-30415D01*
X27974Y-30393D01*
X27996Y-30370D01*
X28030Y-30359D01*
X28053Y-30359D01*
X28086Y-30370D01*
X28098Y-30381D01*
X28323Y-30595D02*
X28188Y-30595D01*
X28255Y-30595D02*
X28255Y-30359D01*
X28233Y-30393D01*
X28210Y-30415D01*
X28188Y-30426D01*
X28536Y-30359D02*
X28424Y-30359D01*
X28413Y-30471D01*
X28424Y-30460D01*
X28446Y-30449D01*
X28503Y-30449D01*
X28525Y-30460D01*
X28536Y-30471D01*
X28548Y-30494D01*
X28548Y-30550D01*
X28536Y-30573D01*
X28525Y-30584D01*
X28503Y-30595D01*
X28446Y-30595D01*
X28424Y-30584D01*
X28413Y-30573D01*
X31098Y-30573D02*
X31086Y-30584D01*
X31053Y-30595D01*
X31030Y-30595D01*
X30996Y-30584D01*
X30974Y-30561D01*
X30963Y-30539D01*
X30951Y-30494D01*
X30951Y-30460D01*
X30963Y-30415D01*
X30974Y-30393D01*
X30996Y-30370D01*
X31030Y-30359D01*
X31053Y-30359D01*
X31086Y-30370D01*
X31098Y-30381D01*
X31176Y-30359D02*
X31323Y-30359D01*
X31244Y-30449D01*
X31278Y-30449D01*
X31300Y-30460D01*
X31311Y-30471D01*
X31323Y-30494D01*
X31323Y-30550D01*
X31311Y-30573D01*
X31300Y-30584D01*
X31278Y-30595D01*
X31210Y-30595D01*
X31188Y-30584D01*
X31176Y-30573D01*
X31413Y-30381D02*
X31424Y-30370D01*
X31446Y-30359D01*
X31503Y-30359D01*
X31525Y-30370D01*
X31536Y-30381D01*
X31548Y-30404D01*
X31548Y-30426D01*
X31536Y-30460D01*
X31401Y-30595D01*
X31548Y-30595D01*
X31098Y-28573D02*
X31086Y-28584D01*
X31053Y-28595D01*
X31030Y-28595D01*
X30996Y-28584D01*
X30974Y-28561D01*
X30963Y-28539D01*
X30951Y-28494D01*
X30951Y-28460D01*
X30963Y-28415D01*
X30974Y-28393D01*
X30996Y-28370D01*
X31030Y-28359D01*
X31053Y-28359D01*
X31086Y-28370D01*
X31098Y-28381D01*
X31176Y-28359D02*
X31323Y-28359D01*
X31244Y-28449D01*
X31278Y-28449D01*
X31300Y-28460D01*
X31311Y-28471D01*
X31323Y-28494D01*
X31323Y-28550D01*
X31311Y-28573D01*
X31300Y-28584D01*
X31278Y-28595D01*
X31210Y-28595D01*
X31188Y-28584D01*
X31176Y-28573D01*
X31469Y-28359D02*
X31491Y-28359D01*
X31514Y-28370D01*
X31525Y-28381D01*
X31536Y-28404D01*
X31548Y-28449D01*
X31548Y-28505D01*
X31536Y-28550D01*
X31525Y-28573D01*
X31514Y-28584D01*
X31491Y-28595D01*
X31469Y-28595D01*
X31446Y-28584D01*
X31435Y-28573D01*
X31424Y-28550D01*
X31413Y-28505D01*
X31413Y-28449D01*
X31424Y-28404D01*
X31435Y-28381D01*
X31446Y-28370D01*
X31469Y-28359D01*
X28098Y-28573D02*
X28086Y-28584D01*
X28053Y-28595D01*
X28030Y-28595D01*
X27996Y-28584D01*
X27974Y-28561D01*
X27963Y-28539D01*
X27951Y-28494D01*
X27951Y-28460D01*
X27963Y-28415D01*
X27974Y-28393D01*
X27996Y-28370D01*
X28030Y-28359D01*
X28053Y-28359D01*
X28086Y-28370D01*
X28098Y-28381D01*
X28323Y-28595D02*
X28188Y-28595D01*
X28255Y-28595D02*
X28255Y-28359D01*
X28233Y-28393D01*
X28210Y-28415D01*
X28188Y-28426D01*
X28401Y-28359D02*
X28548Y-28359D01*
X28469Y-28449D01*
X28503Y-28449D01*
X28525Y-28460D01*
X28536Y-28471D01*
X28548Y-28494D01*
X28548Y-28550D01*
X28536Y-28573D01*
X28525Y-28584D01*
X28503Y-28595D01*
X28435Y-28595D01*
X28413Y-28584D01*
X28401Y-28573D01*
X29598Y-28095D02*
X29519Y-27983D01*
X29463Y-28095D02*
X29463Y-27859D01*
X29553Y-27859D01*
X29575Y-27870D01*
X29586Y-27881D01*
X29598Y-27904D01*
X29598Y-27938D01*
X29586Y-27960D01*
X29575Y-27971D01*
X29553Y-27983D01*
X29463Y-27983D01*
X29676Y-27859D02*
X29823Y-27859D01*
X29744Y-27949D01*
X29778Y-27949D01*
X29800Y-27960D01*
X29811Y-27971D01*
X29823Y-27994D01*
X29823Y-28050D01*
X29811Y-28073D01*
X29800Y-28084D01*
X29778Y-28095D01*
X29710Y-28095D01*
X29688Y-28084D01*
X29676Y-28073D01*
X29969Y-27859D02*
X29991Y-27859D01*
X30014Y-27870D01*
X30025Y-27881D01*
X30036Y-27904D01*
X30048Y-27949D01*
X30048Y-28005D01*
X30036Y-28050D01*
X30025Y-28073D01*
X30014Y-28084D01*
X29991Y-28095D01*
X29969Y-28095D01*
X29946Y-28084D01*
X29935Y-28073D01*
X29924Y-28050D01*
X29913Y-28005D01*
X29913Y-27949D01*
X29924Y-27904D01*
X29935Y-27881D01*
X29946Y-27870D01*
X29969Y-27859D01*
X29598Y-29095D02*
X29519Y-28983D01*
X29463Y-29095D02*
X29463Y-28859D01*
X29553Y-28859D01*
X29575Y-28870D01*
X29586Y-28881D01*
X29598Y-28904D01*
X29598Y-28938D01*
X29586Y-28960D01*
X29575Y-28971D01*
X29553Y-28983D01*
X29463Y-28983D01*
X29676Y-28859D02*
X29823Y-28859D01*
X29744Y-28949D01*
X29778Y-28949D01*
X29800Y-28960D01*
X29811Y-28971D01*
X29823Y-28994D01*
X29823Y-29050D01*
X29811Y-29073D01*
X29800Y-29084D01*
X29778Y-29095D01*
X29710Y-29095D01*
X29688Y-29084D01*
X29676Y-29073D01*
X30048Y-29095D02*
X29913Y-29095D01*
X29980Y-29095D02*
X29980Y-28859D01*
X29958Y-28893D01*
X29935Y-28915D01*
X29913Y-28926D01*
X31098Y-19573D02*
X31086Y-19584D01*
X31053Y-19595D01*
X31030Y-19595D01*
X30996Y-19584D01*
X30974Y-19561D01*
X30963Y-19539D01*
X30951Y-19494D01*
X30951Y-19460D01*
X30963Y-19415D01*
X30974Y-19393D01*
X30996Y-19370D01*
X31030Y-19359D01*
X31053Y-19359D01*
X31086Y-19370D01*
X31098Y-19381D01*
X31188Y-19381D02*
X31199Y-19370D01*
X31221Y-19359D01*
X31278Y-19359D01*
X31300Y-19370D01*
X31311Y-19381D01*
X31323Y-19404D01*
X31323Y-19426D01*
X31311Y-19460D01*
X31176Y-19595D01*
X31323Y-19595D01*
X31548Y-19595D02*
X31413Y-19595D01*
X31480Y-19595D02*
X31480Y-19359D01*
X31458Y-19393D01*
X31435Y-19415D01*
X31413Y-19426D01*
X28210Y-19573D02*
X28199Y-19584D01*
X28165Y-19595D01*
X28143Y-19595D01*
X28109Y-19584D01*
X28086Y-19561D01*
X28075Y-19539D01*
X28064Y-19494D01*
X28064Y-19460D01*
X28075Y-19415D01*
X28086Y-19393D01*
X28109Y-19370D01*
X28143Y-19359D01*
X28165Y-19359D01*
X28199Y-19370D01*
X28210Y-19381D01*
X28413Y-19438D02*
X28413Y-19595D01*
X28356Y-19348D02*
X28300Y-19516D01*
X28446Y-19516D01*
X29598Y-19095D02*
X29519Y-18983D01*
X29463Y-19095D02*
X29463Y-18859D01*
X29553Y-18859D01*
X29575Y-18870D01*
X29586Y-18881D01*
X29598Y-18904D01*
X29598Y-18938D01*
X29586Y-18960D01*
X29575Y-18971D01*
X29553Y-18983D01*
X29463Y-18983D01*
X29688Y-18881D02*
X29699Y-18870D01*
X29721Y-18859D01*
X29778Y-18859D01*
X29800Y-18870D01*
X29811Y-18881D01*
X29823Y-18904D01*
X29823Y-18926D01*
X29811Y-18960D01*
X29676Y-19095D01*
X29823Y-19095D01*
X30048Y-19095D02*
X29913Y-19095D01*
X29980Y-19095D02*
X29980Y-18859D01*
X29958Y-18893D01*
X29935Y-18915D01*
X29913Y-18926D01*
X29598Y-21095D02*
X29519Y-20983D01*
X29463Y-21095D02*
X29463Y-20859D01*
X29553Y-20859D01*
X29575Y-20870D01*
X29586Y-20881D01*
X29598Y-20904D01*
X29598Y-20938D01*
X29586Y-20960D01*
X29575Y-20971D01*
X29553Y-20983D01*
X29463Y-20983D01*
X29688Y-20881D02*
X29699Y-20870D01*
X29721Y-20859D01*
X29778Y-20859D01*
X29800Y-20870D01*
X29811Y-20881D01*
X29823Y-20904D01*
X29823Y-20926D01*
X29811Y-20960D01*
X29676Y-21095D01*
X29823Y-21095D01*
X29901Y-20859D02*
X30048Y-20859D01*
X29969Y-20949D01*
X30003Y-20949D01*
X30025Y-20960D01*
X30036Y-20971D01*
X30048Y-20994D01*
X30048Y-21050D01*
X30036Y-21073D01*
X30025Y-21084D01*
X30003Y-21095D01*
X29935Y-21095D01*
X29913Y-21084D01*
X29901Y-21073D01*
X29598Y-18095D02*
X29519Y-17983D01*
X29463Y-18095D02*
X29463Y-17859D01*
X29553Y-17859D01*
X29575Y-17870D01*
X29586Y-17881D01*
X29598Y-17904D01*
X29598Y-17938D01*
X29586Y-17960D01*
X29575Y-17971D01*
X29553Y-17983D01*
X29463Y-17983D01*
X29688Y-17881D02*
X29699Y-17870D01*
X29721Y-17859D01*
X29778Y-17859D01*
X29800Y-17870D01*
X29811Y-17881D01*
X29823Y-17904D01*
X29823Y-17926D01*
X29811Y-17960D01*
X29676Y-18095D01*
X29823Y-18095D01*
X29969Y-17859D02*
X29991Y-17859D01*
X30014Y-17870D01*
X30025Y-17881D01*
X30036Y-17904D01*
X30048Y-17949D01*
X30048Y-18005D01*
X30036Y-18050D01*
X30025Y-18073D01*
X30014Y-18084D01*
X29991Y-18095D01*
X29969Y-18095D01*
X29946Y-18084D01*
X29935Y-18073D01*
X29924Y-18050D01*
X29913Y-18005D01*
X29913Y-17949D01*
X29924Y-17904D01*
X29935Y-17881D01*
X29946Y-17870D01*
X29969Y-17859D01*
X28210Y-18573D02*
X28199Y-18584D01*
X28165Y-18595D01*
X28143Y-18595D01*
X28109Y-18584D01*
X28086Y-18561D01*
X28075Y-18539D01*
X28064Y-18494D01*
X28064Y-18460D01*
X28075Y-18415D01*
X28086Y-18393D01*
X28109Y-18370D01*
X28143Y-18359D01*
X28165Y-18359D01*
X28199Y-18370D01*
X28210Y-18381D01*
X28289Y-18359D02*
X28435Y-18359D01*
X28356Y-18449D01*
X28390Y-18449D01*
X28413Y-18460D01*
X28424Y-18471D01*
X28435Y-18494D01*
X28435Y-18550D01*
X28424Y-18573D01*
X28413Y-18584D01*
X28390Y-18595D01*
X28323Y-18595D01*
X28300Y-18584D01*
X28289Y-18573D01*
X31098Y-18573D02*
X31086Y-18584D01*
X31053Y-18595D01*
X31030Y-18595D01*
X30996Y-18584D01*
X30974Y-18561D01*
X30963Y-18539D01*
X30951Y-18494D01*
X30951Y-18460D01*
X30963Y-18415D01*
X30974Y-18393D01*
X30996Y-18370D01*
X31030Y-18359D01*
X31053Y-18359D01*
X31086Y-18370D01*
X31098Y-18381D01*
X31188Y-18381D02*
X31199Y-18370D01*
X31221Y-18359D01*
X31278Y-18359D01*
X31300Y-18370D01*
X31311Y-18381D01*
X31323Y-18404D01*
X31323Y-18426D01*
X31311Y-18460D01*
X31176Y-18595D01*
X31323Y-18595D01*
X31469Y-18359D02*
X31491Y-18359D01*
X31514Y-18370D01*
X31525Y-18381D01*
X31536Y-18404D01*
X31548Y-18449D01*
X31548Y-18505D01*
X31536Y-18550D01*
X31525Y-18573D01*
X31514Y-18584D01*
X31491Y-18595D01*
X31469Y-18595D01*
X31446Y-18584D01*
X31435Y-18573D01*
X31424Y-18550D01*
X31413Y-18505D01*
X31413Y-18449D01*
X31424Y-18404D01*
X31435Y-18381D01*
X31446Y-18370D01*
X31469Y-18359D01*
X31098Y-16573D02*
X31086Y-16584D01*
X31053Y-16595D01*
X31030Y-16595D01*
X30996Y-16584D01*
X30974Y-16561D01*
X30963Y-16539D01*
X30951Y-16494D01*
X30951Y-16460D01*
X30963Y-16415D01*
X30974Y-16393D01*
X30996Y-16370D01*
X31030Y-16359D01*
X31053Y-16359D01*
X31086Y-16370D01*
X31098Y-16381D01*
X31323Y-16595D02*
X31188Y-16595D01*
X31255Y-16595D02*
X31255Y-16359D01*
X31233Y-16393D01*
X31210Y-16415D01*
X31188Y-16426D01*
X31458Y-16460D02*
X31435Y-16449D01*
X31424Y-16438D01*
X31413Y-16415D01*
X31413Y-16404D01*
X31424Y-16381D01*
X31435Y-16370D01*
X31458Y-16359D01*
X31503Y-16359D01*
X31525Y-16370D01*
X31536Y-16381D01*
X31548Y-16404D01*
X31548Y-16415D01*
X31536Y-16438D01*
X31525Y-16449D01*
X31503Y-16460D01*
X31458Y-16460D01*
X31435Y-16471D01*
X31424Y-16483D01*
X31413Y-16505D01*
X31413Y-16550D01*
X31424Y-16573D01*
X31435Y-16584D01*
X31458Y-16595D01*
X31503Y-16595D01*
X31525Y-16584D01*
X31536Y-16573D01*
X31548Y-16550D01*
X31548Y-16505D01*
X31536Y-16483D01*
X31525Y-16471D01*
X31503Y-16460D01*
X28210Y-16573D02*
X28199Y-16584D01*
X28165Y-16595D01*
X28143Y-16595D01*
X28109Y-16584D01*
X28086Y-16561D01*
X28075Y-16539D01*
X28064Y-16494D01*
X28064Y-16460D01*
X28075Y-16415D01*
X28086Y-16393D01*
X28109Y-16370D01*
X28143Y-16359D01*
X28165Y-16359D01*
X28199Y-16370D01*
X28210Y-16381D01*
X28435Y-16595D02*
X28300Y-16595D01*
X28368Y-16595D02*
X28368Y-16359D01*
X28345Y-16393D01*
X28323Y-16415D01*
X28300Y-16426D01*
X29598Y-16095D02*
X29519Y-15983D01*
X29463Y-16095D02*
X29463Y-15859D01*
X29553Y-15859D01*
X29575Y-15870D01*
X29586Y-15881D01*
X29598Y-15904D01*
X29598Y-15938D01*
X29586Y-15960D01*
X29575Y-15971D01*
X29553Y-15983D01*
X29463Y-15983D01*
X29823Y-16095D02*
X29688Y-16095D01*
X29755Y-16095D02*
X29755Y-15859D01*
X29733Y-15893D01*
X29710Y-15915D01*
X29688Y-15926D01*
X29958Y-15960D02*
X29935Y-15949D01*
X29924Y-15938D01*
X29913Y-15915D01*
X29913Y-15904D01*
X29924Y-15881D01*
X29935Y-15870D01*
X29958Y-15859D01*
X30003Y-15859D01*
X30025Y-15870D01*
X30036Y-15881D01*
X30048Y-15904D01*
X30048Y-15915D01*
X30036Y-15938D01*
X30025Y-15949D01*
X30003Y-15960D01*
X29958Y-15960D01*
X29935Y-15971D01*
X29924Y-15983D01*
X29913Y-16005D01*
X29913Y-16050D01*
X29924Y-16073D01*
X29935Y-16084D01*
X29958Y-16095D01*
X30003Y-16095D01*
X30025Y-16084D01*
X30036Y-16073D01*
X30048Y-16050D01*
X30048Y-16005D01*
X30036Y-15983D01*
X30025Y-15971D01*
X30003Y-15960D01*
X28098Y-15573D02*
X28086Y-15584D01*
X28053Y-15595D01*
X28030Y-15595D01*
X27996Y-15584D01*
X27974Y-15561D01*
X27963Y-15539D01*
X27951Y-15494D01*
X27951Y-15460D01*
X27963Y-15415D01*
X27974Y-15393D01*
X27996Y-15370D01*
X28030Y-15359D01*
X28053Y-15359D01*
X28086Y-15370D01*
X28098Y-15381D01*
X28323Y-15595D02*
X28188Y-15595D01*
X28255Y-15595D02*
X28255Y-15359D01*
X28233Y-15393D01*
X28210Y-15415D01*
X28188Y-15426D01*
X28401Y-15359D02*
X28559Y-15359D01*
X28458Y-15595D01*
X28210Y-17573D02*
X28199Y-17584D01*
X28165Y-17595D01*
X28143Y-17595D01*
X28109Y-17584D01*
X28086Y-17561D01*
X28075Y-17539D01*
X28064Y-17494D01*
X28064Y-17460D01*
X28075Y-17415D01*
X28086Y-17393D01*
X28109Y-17370D01*
X28143Y-17359D01*
X28165Y-17359D01*
X28199Y-17370D01*
X28210Y-17381D01*
X28300Y-17381D02*
X28311Y-17370D01*
X28334Y-17359D01*
X28390Y-17359D01*
X28413Y-17370D01*
X28424Y-17381D01*
X28435Y-17404D01*
X28435Y-17426D01*
X28424Y-17460D01*
X28289Y-17595D01*
X28435Y-17595D01*
X31098Y-17573D02*
X31086Y-17584D01*
X31053Y-17595D01*
X31030Y-17595D01*
X30996Y-17584D01*
X30974Y-17561D01*
X30963Y-17539D01*
X30951Y-17494D01*
X30951Y-17460D01*
X30963Y-17415D01*
X30974Y-17393D01*
X30996Y-17370D01*
X31030Y-17359D01*
X31053Y-17359D01*
X31086Y-17370D01*
X31098Y-17381D01*
X31323Y-17595D02*
X31188Y-17595D01*
X31255Y-17595D02*
X31255Y-17359D01*
X31233Y-17393D01*
X31210Y-17415D01*
X31188Y-17426D01*
X31435Y-17595D02*
X31480Y-17595D01*
X31503Y-17584D01*
X31514Y-17573D01*
X31536Y-17539D01*
X31548Y-17494D01*
X31548Y-17404D01*
X31536Y-17381D01*
X31525Y-17370D01*
X31503Y-17359D01*
X31458Y-17359D01*
X31435Y-17370D01*
X31424Y-17381D01*
X31413Y-17404D01*
X31413Y-17460D01*
X31424Y-17483D01*
X31435Y-17494D01*
X31458Y-17505D01*
X31503Y-17505D01*
X31525Y-17494D01*
X31536Y-17483D01*
X31548Y-17460D01*
X31098Y-21573D02*
X31086Y-21584D01*
X31053Y-21595D01*
X31030Y-21595D01*
X30996Y-21584D01*
X30974Y-21561D01*
X30963Y-21539D01*
X30951Y-21494D01*
X30951Y-21460D01*
X30963Y-21415D01*
X30974Y-21393D01*
X30996Y-21370D01*
X31030Y-21359D01*
X31053Y-21359D01*
X31086Y-21370D01*
X31098Y-21381D01*
X31188Y-21381D02*
X31199Y-21370D01*
X31221Y-21359D01*
X31278Y-21359D01*
X31300Y-21370D01*
X31311Y-21381D01*
X31323Y-21404D01*
X31323Y-21426D01*
X31311Y-21460D01*
X31176Y-21595D01*
X31323Y-21595D01*
X31401Y-21359D02*
X31548Y-21359D01*
X31469Y-21449D01*
X31503Y-21449D01*
X31525Y-21460D01*
X31536Y-21471D01*
X31548Y-21494D01*
X31548Y-21550D01*
X31536Y-21573D01*
X31525Y-21584D01*
X31503Y-21595D01*
X31435Y-21595D01*
X31413Y-21584D01*
X31401Y-21573D01*
X28210Y-21573D02*
X28199Y-21584D01*
X28165Y-21595D01*
X28143Y-21595D01*
X28109Y-21584D01*
X28086Y-21561D01*
X28075Y-21539D01*
X28064Y-21494D01*
X28064Y-21460D01*
X28075Y-21415D01*
X28086Y-21393D01*
X28109Y-21370D01*
X28143Y-21359D01*
X28165Y-21359D01*
X28199Y-21370D01*
X28210Y-21381D01*
X28413Y-21359D02*
X28368Y-21359D01*
X28345Y-21370D01*
X28334Y-21381D01*
X28311Y-21415D01*
X28300Y-21460D01*
X28300Y-21550D01*
X28311Y-21573D01*
X28323Y-21584D01*
X28345Y-21595D01*
X28390Y-21595D01*
X28413Y-21584D01*
X28424Y-21573D01*
X28435Y-21550D01*
X28435Y-21494D01*
X28424Y-21471D01*
X28413Y-21460D01*
X28390Y-21449D01*
X28345Y-21449D01*
X28323Y-21460D01*
X28311Y-21471D01*
X28300Y-21494D01*
X31098Y-15573D02*
X31086Y-15584D01*
X31053Y-15595D01*
X31030Y-15595D01*
X30996Y-15584D01*
X30974Y-15561D01*
X30963Y-15539D01*
X30951Y-15494D01*
X30951Y-15460D01*
X30963Y-15415D01*
X30974Y-15393D01*
X30996Y-15370D01*
X31030Y-15359D01*
X31053Y-15359D01*
X31086Y-15370D01*
X31098Y-15381D01*
X31176Y-15359D02*
X31323Y-15359D01*
X31244Y-15449D01*
X31278Y-15449D01*
X31300Y-15460D01*
X31311Y-15471D01*
X31323Y-15494D01*
X31323Y-15550D01*
X31311Y-15573D01*
X31300Y-15584D01*
X31278Y-15595D01*
X31210Y-15595D01*
X31188Y-15584D01*
X31176Y-15573D01*
X31525Y-15438D02*
X31525Y-15595D01*
X31469Y-15348D02*
X31413Y-15516D01*
X31559Y-15516D01*
X29598Y-15095D02*
X29519Y-14983D01*
X29463Y-15095D02*
X29463Y-14859D01*
X29553Y-14859D01*
X29575Y-14870D01*
X29586Y-14881D01*
X29598Y-14904D01*
X29598Y-14938D01*
X29586Y-14960D01*
X29575Y-14971D01*
X29553Y-14983D01*
X29463Y-14983D01*
X29676Y-14859D02*
X29823Y-14859D01*
X29744Y-14949D01*
X29778Y-14949D01*
X29800Y-14960D01*
X29811Y-14971D01*
X29823Y-14994D01*
X29823Y-15050D01*
X29811Y-15073D01*
X29800Y-15084D01*
X29778Y-15095D01*
X29710Y-15095D01*
X29688Y-15084D01*
X29676Y-15073D01*
X30025Y-14938D02*
X30025Y-15095D01*
X29969Y-14848D02*
X29913Y-15016D01*
X30059Y-15016D01*
X31098Y-29573D02*
X31086Y-29584D01*
X31053Y-29595D01*
X31030Y-29595D01*
X30996Y-29584D01*
X30974Y-29561D01*
X30963Y-29539D01*
X30951Y-29494D01*
X30951Y-29460D01*
X30963Y-29415D01*
X30974Y-29393D01*
X30996Y-29370D01*
X31030Y-29359D01*
X31053Y-29359D01*
X31086Y-29370D01*
X31098Y-29381D01*
X31176Y-29359D02*
X31323Y-29359D01*
X31244Y-29449D01*
X31278Y-29449D01*
X31300Y-29460D01*
X31311Y-29471D01*
X31323Y-29494D01*
X31323Y-29550D01*
X31311Y-29573D01*
X31300Y-29584D01*
X31278Y-29595D01*
X31210Y-29595D01*
X31188Y-29584D01*
X31176Y-29573D01*
X31548Y-29595D02*
X31413Y-29595D01*
X31480Y-29595D02*
X31480Y-29359D01*
X31458Y-29393D01*
X31435Y-29415D01*
X31413Y-29426D01*
X28098Y-29573D02*
X28086Y-29584D01*
X28053Y-29595D01*
X28030Y-29595D01*
X27996Y-29584D01*
X27974Y-29561D01*
X27963Y-29539D01*
X27951Y-29494D01*
X27951Y-29460D01*
X27963Y-29415D01*
X27974Y-29393D01*
X27996Y-29370D01*
X28030Y-29359D01*
X28053Y-29359D01*
X28086Y-29370D01*
X28098Y-29381D01*
X28323Y-29595D02*
X28188Y-29595D01*
X28255Y-29595D02*
X28255Y-29359D01*
X28233Y-29393D01*
X28210Y-29415D01*
X28188Y-29426D01*
X28525Y-29438D02*
X28525Y-29595D01*
X28469Y-29348D02*
X28413Y-29516D01*
X28559Y-29516D01*
X28098Y-25573D02*
X28086Y-25584D01*
X28053Y-25595D01*
X28030Y-25595D01*
X27996Y-25584D01*
X27974Y-25561D01*
X27963Y-25539D01*
X27951Y-25494D01*
X27951Y-25460D01*
X27963Y-25415D01*
X27974Y-25393D01*
X27996Y-25370D01*
X28030Y-25359D01*
X28053Y-25359D01*
X28086Y-25370D01*
X28098Y-25381D01*
X28323Y-25595D02*
X28188Y-25595D01*
X28255Y-25595D02*
X28255Y-25359D01*
X28233Y-25393D01*
X28210Y-25415D01*
X28188Y-25426D01*
X28469Y-25359D02*
X28491Y-25359D01*
X28514Y-25370D01*
X28525Y-25381D01*
X28536Y-25404D01*
X28548Y-25449D01*
X28548Y-25505D01*
X28536Y-25550D01*
X28525Y-25573D01*
X28514Y-25584D01*
X28491Y-25595D01*
X28469Y-25595D01*
X28446Y-25584D01*
X28435Y-25573D01*
X28424Y-25550D01*
X28413Y-25505D01*
X28413Y-25449D01*
X28424Y-25404D01*
X28435Y-25381D01*
X28446Y-25370D01*
X28469Y-25359D01*
X29598Y-25095D02*
X29519Y-24983D01*
X29463Y-25095D02*
X29463Y-24859D01*
X29553Y-24859D01*
X29575Y-24870D01*
X29586Y-24881D01*
X29598Y-24904D01*
X29598Y-24938D01*
X29586Y-24960D01*
X29575Y-24971D01*
X29553Y-24983D01*
X29463Y-24983D01*
X29688Y-24881D02*
X29699Y-24870D01*
X29721Y-24859D01*
X29778Y-24859D01*
X29800Y-24870D01*
X29811Y-24881D01*
X29823Y-24904D01*
X29823Y-24926D01*
X29811Y-24960D01*
X29676Y-25095D01*
X29823Y-25095D01*
X29901Y-24859D02*
X30059Y-24859D01*
X29958Y-25095D01*
X29598Y-24095D02*
X29519Y-23983D01*
X29463Y-24095D02*
X29463Y-23859D01*
X29553Y-23859D01*
X29575Y-23870D01*
X29586Y-23881D01*
X29598Y-23904D01*
X29598Y-23938D01*
X29586Y-23960D01*
X29575Y-23971D01*
X29553Y-23983D01*
X29463Y-23983D01*
X29688Y-23881D02*
X29699Y-23870D01*
X29721Y-23859D01*
X29778Y-23859D01*
X29800Y-23870D01*
X29811Y-23881D01*
X29823Y-23904D01*
X29823Y-23926D01*
X29811Y-23960D01*
X29676Y-24095D01*
X29823Y-24095D01*
X30025Y-23859D02*
X29980Y-23859D01*
X29958Y-23870D01*
X29946Y-23881D01*
X29924Y-23915D01*
X29913Y-23960D01*
X29913Y-24050D01*
X29924Y-24073D01*
X29935Y-24084D01*
X29958Y-24095D01*
X30003Y-24095D01*
X30025Y-24084D01*
X30036Y-24073D01*
X30048Y-24050D01*
X30048Y-23994D01*
X30036Y-23971D01*
X30025Y-23960D01*
X30003Y-23949D01*
X29958Y-23949D01*
X29935Y-23960D01*
X29924Y-23971D01*
X29913Y-23994D01*
X28210Y-24573D02*
X28199Y-24584D01*
X28165Y-24595D01*
X28143Y-24595D01*
X28109Y-24584D01*
X28086Y-24561D01*
X28075Y-24539D01*
X28064Y-24494D01*
X28064Y-24460D01*
X28075Y-24415D01*
X28086Y-24393D01*
X28109Y-24370D01*
X28143Y-24359D01*
X28165Y-24359D01*
X28199Y-24370D01*
X28210Y-24381D01*
X28323Y-24595D02*
X28368Y-24595D01*
X28390Y-24584D01*
X28401Y-24573D01*
X28424Y-24539D01*
X28435Y-24494D01*
X28435Y-24404D01*
X28424Y-24381D01*
X28413Y-24370D01*
X28390Y-24359D01*
X28345Y-24359D01*
X28323Y-24370D01*
X28311Y-24381D01*
X28300Y-24404D01*
X28300Y-24460D01*
X28311Y-24483D01*
X28323Y-24494D01*
X28345Y-24505D01*
X28390Y-24505D01*
X28413Y-24494D01*
X28424Y-24483D01*
X28435Y-24460D01*
X31098Y-25573D02*
X31086Y-25584D01*
X31053Y-25595D01*
X31030Y-25595D01*
X30996Y-25584D01*
X30974Y-25561D01*
X30963Y-25539D01*
X30951Y-25494D01*
X30951Y-25460D01*
X30963Y-25415D01*
X30974Y-25393D01*
X30996Y-25370D01*
X31030Y-25359D01*
X31053Y-25359D01*
X31086Y-25370D01*
X31098Y-25381D01*
X31188Y-25381D02*
X31199Y-25370D01*
X31221Y-25359D01*
X31278Y-25359D01*
X31300Y-25370D01*
X31311Y-25381D01*
X31323Y-25404D01*
X31323Y-25426D01*
X31311Y-25460D01*
X31176Y-25595D01*
X31323Y-25595D01*
X31401Y-25359D02*
X31559Y-25359D01*
X31458Y-25595D01*
X31098Y-24573D02*
X31086Y-24584D01*
X31053Y-24595D01*
X31030Y-24595D01*
X30996Y-24584D01*
X30974Y-24561D01*
X30963Y-24539D01*
X30951Y-24494D01*
X30951Y-24460D01*
X30963Y-24415D01*
X30974Y-24393D01*
X30996Y-24370D01*
X31030Y-24359D01*
X31053Y-24359D01*
X31086Y-24370D01*
X31098Y-24381D01*
X31188Y-24381D02*
X31199Y-24370D01*
X31221Y-24359D01*
X31278Y-24359D01*
X31300Y-24370D01*
X31311Y-24381D01*
X31323Y-24404D01*
X31323Y-24426D01*
X31311Y-24460D01*
X31176Y-24595D01*
X31323Y-24595D01*
X31525Y-24359D02*
X31480Y-24359D01*
X31458Y-24370D01*
X31446Y-24381D01*
X31424Y-24415D01*
X31413Y-24460D01*
X31413Y-24550D01*
X31424Y-24573D01*
X31435Y-24584D01*
X31458Y-24595D01*
X31503Y-24595D01*
X31525Y-24584D01*
X31536Y-24573D01*
X31548Y-24550D01*
X31548Y-24494D01*
X31536Y-24471D01*
X31525Y-24460D01*
X31503Y-24449D01*
X31458Y-24449D01*
X31435Y-24460D01*
X31424Y-24471D01*
X31413Y-24494D01*
X31098Y-26573D02*
X31086Y-26584D01*
X31053Y-26595D01*
X31030Y-26595D01*
X30996Y-26584D01*
X30974Y-26561D01*
X30963Y-26539D01*
X30951Y-26494D01*
X30951Y-26460D01*
X30963Y-26415D01*
X30974Y-26393D01*
X30996Y-26370D01*
X31030Y-26359D01*
X31053Y-26359D01*
X31086Y-26370D01*
X31098Y-26381D01*
X31188Y-26381D02*
X31199Y-26370D01*
X31221Y-26359D01*
X31278Y-26359D01*
X31300Y-26370D01*
X31311Y-26381D01*
X31323Y-26404D01*
X31323Y-26426D01*
X31311Y-26460D01*
X31176Y-26595D01*
X31323Y-26595D01*
X31458Y-26460D02*
X31435Y-26449D01*
X31424Y-26438D01*
X31413Y-26415D01*
X31413Y-26404D01*
X31424Y-26381D01*
X31435Y-26370D01*
X31458Y-26359D01*
X31503Y-26359D01*
X31525Y-26370D01*
X31536Y-26381D01*
X31548Y-26404D01*
X31548Y-26415D01*
X31536Y-26438D01*
X31525Y-26449D01*
X31503Y-26460D01*
X31458Y-26460D01*
X31435Y-26471D01*
X31424Y-26483D01*
X31413Y-26505D01*
X31413Y-26550D01*
X31424Y-26573D01*
X31435Y-26584D01*
X31458Y-26595D01*
X31503Y-26595D01*
X31525Y-26584D01*
X31536Y-26573D01*
X31548Y-26550D01*
X31548Y-26505D01*
X31536Y-26483D01*
X31525Y-26471D01*
X31503Y-26460D01*
X28098Y-26573D02*
X28086Y-26584D01*
X28053Y-26595D01*
X28030Y-26595D01*
X27996Y-26584D01*
X27974Y-26561D01*
X27963Y-26539D01*
X27951Y-26494D01*
X27951Y-26460D01*
X27963Y-26415D01*
X27974Y-26393D01*
X27996Y-26370D01*
X28030Y-26359D01*
X28053Y-26359D01*
X28086Y-26370D01*
X28098Y-26381D01*
X28323Y-26595D02*
X28188Y-26595D01*
X28255Y-26595D02*
X28255Y-26359D01*
X28233Y-26393D01*
X28210Y-26415D01*
X28188Y-26426D01*
X28548Y-26595D02*
X28413Y-26595D01*
X28480Y-26595D02*
X28480Y-26359D01*
X28458Y-26393D01*
X28435Y-26415D01*
X28413Y-26426D01*
X29598Y-26095D02*
X29519Y-25983D01*
X29463Y-26095D02*
X29463Y-25859D01*
X29553Y-25859D01*
X29575Y-25870D01*
X29586Y-25881D01*
X29598Y-25904D01*
X29598Y-25938D01*
X29586Y-25960D01*
X29575Y-25971D01*
X29553Y-25983D01*
X29463Y-25983D01*
X29688Y-25881D02*
X29699Y-25870D01*
X29721Y-25859D01*
X29778Y-25859D01*
X29800Y-25870D01*
X29811Y-25881D01*
X29823Y-25904D01*
X29823Y-25926D01*
X29811Y-25960D01*
X29676Y-26095D01*
X29823Y-26095D01*
X29958Y-25960D02*
X29935Y-25949D01*
X29924Y-25938D01*
X29913Y-25915D01*
X29913Y-25904D01*
X29924Y-25881D01*
X29935Y-25870D01*
X29958Y-25859D01*
X30003Y-25859D01*
X30025Y-25870D01*
X30036Y-25881D01*
X30048Y-25904D01*
X30048Y-25915D01*
X30036Y-25938D01*
X30025Y-25949D01*
X30003Y-25960D01*
X29958Y-25960D01*
X29935Y-25971D01*
X29924Y-25983D01*
X29913Y-26005D01*
X29913Y-26050D01*
X29924Y-26073D01*
X29935Y-26084D01*
X29958Y-26095D01*
X30003Y-26095D01*
X30025Y-26084D01*
X30036Y-26073D01*
X30048Y-26050D01*
X30048Y-26005D01*
X30036Y-25983D01*
X30025Y-25971D01*
X30003Y-25960D01*
X29598Y-27095D02*
X29519Y-26983D01*
X29463Y-27095D02*
X29463Y-26859D01*
X29553Y-26859D01*
X29575Y-26870D01*
X29586Y-26881D01*
X29598Y-26904D01*
X29598Y-26938D01*
X29586Y-26960D01*
X29575Y-26971D01*
X29553Y-26983D01*
X29463Y-26983D01*
X29688Y-26881D02*
X29699Y-26870D01*
X29721Y-26859D01*
X29778Y-26859D01*
X29800Y-26870D01*
X29811Y-26881D01*
X29823Y-26904D01*
X29823Y-26926D01*
X29811Y-26960D01*
X29676Y-27095D01*
X29823Y-27095D01*
X29935Y-27095D02*
X29980Y-27095D01*
X30003Y-27084D01*
X30014Y-27073D01*
X30036Y-27039D01*
X30048Y-26994D01*
X30048Y-26904D01*
X30036Y-26881D01*
X30025Y-26870D01*
X30003Y-26859D01*
X29958Y-26859D01*
X29935Y-26870D01*
X29924Y-26881D01*
X29913Y-26904D01*
X29913Y-26960D01*
X29924Y-26983D01*
X29935Y-26994D01*
X29958Y-27005D01*
X30003Y-27005D01*
X30025Y-26994D01*
X30036Y-26983D01*
X30048Y-26960D01*
X28098Y-27573D02*
X28086Y-27584D01*
X28053Y-27595D01*
X28030Y-27595D01*
X27996Y-27584D01*
X27974Y-27561D01*
X27963Y-27539D01*
X27951Y-27494D01*
X27951Y-27460D01*
X27963Y-27415D01*
X27974Y-27393D01*
X27996Y-27370D01*
X28030Y-27359D01*
X28053Y-27359D01*
X28086Y-27370D01*
X28098Y-27381D01*
X28323Y-27595D02*
X28188Y-27595D01*
X28255Y-27595D02*
X28255Y-27359D01*
X28233Y-27393D01*
X28210Y-27415D01*
X28188Y-27426D01*
X28413Y-27381D02*
X28424Y-27370D01*
X28446Y-27359D01*
X28503Y-27359D01*
X28525Y-27370D01*
X28536Y-27381D01*
X28548Y-27404D01*
X28548Y-27426D01*
X28536Y-27460D01*
X28401Y-27595D01*
X28548Y-27595D01*
X31098Y-27573D02*
X31086Y-27584D01*
X31053Y-27595D01*
X31030Y-27595D01*
X30996Y-27584D01*
X30974Y-27561D01*
X30963Y-27539D01*
X30951Y-27494D01*
X30951Y-27460D01*
X30963Y-27415D01*
X30974Y-27393D01*
X30996Y-27370D01*
X31030Y-27359D01*
X31053Y-27359D01*
X31086Y-27370D01*
X31098Y-27381D01*
X31188Y-27381D02*
X31199Y-27370D01*
X31221Y-27359D01*
X31278Y-27359D01*
X31300Y-27370D01*
X31311Y-27381D01*
X31323Y-27404D01*
X31323Y-27426D01*
X31311Y-27460D01*
X31176Y-27595D01*
X31323Y-27595D01*
X31435Y-27595D02*
X31480Y-27595D01*
X31503Y-27584D01*
X31514Y-27573D01*
X31536Y-27539D01*
X31548Y-27494D01*
X31548Y-27404D01*
X31536Y-27381D01*
X31525Y-27370D01*
X31503Y-27359D01*
X31458Y-27359D01*
X31435Y-27370D01*
X31424Y-27381D01*
X31413Y-27404D01*
X31413Y-27460D01*
X31424Y-27483D01*
X31435Y-27494D01*
X31458Y-27505D01*
X31503Y-27505D01*
X31525Y-27494D01*
X31536Y-27483D01*
X31548Y-27460D01*
X41713Y-15095D02*
X41713Y-14859D01*
X41803Y-14859D01*
X41825Y-14870D01*
X41836Y-14881D01*
X41848Y-14904D01*
X41848Y-14938D01*
X41836Y-14960D01*
X41825Y-14971D01*
X41803Y-14983D01*
X41713Y-14983D01*
X41938Y-14881D02*
X41949Y-14870D01*
X41971Y-14859D01*
X42028Y-14859D01*
X42050Y-14870D01*
X42061Y-14881D01*
X42073Y-14904D01*
X42073Y-14926D01*
X42061Y-14960D01*
X41926Y-15095D01*
X42073Y-15095D01*
X42163Y-14881D02*
X42174Y-14870D01*
X42196Y-14859D01*
X42253Y-14859D01*
X42275Y-14870D01*
X42286Y-14881D01*
X42298Y-14904D01*
X42298Y-14926D01*
X42286Y-14960D01*
X42151Y-15095D01*
X42298Y-15095D01*
G54D12*
X68561Y-28361D02*
X68428Y-28171D01*
X68333Y-28361D02*
X68333Y-27961D01*
X68485Y-27961D01*
X68523Y-27980D01*
X68542Y-28000D01*
X68561Y-28038D01*
X68561Y-28095D01*
X68542Y-28133D01*
X68523Y-28152D01*
X68485Y-28171D01*
X68333Y-28171D01*
X68714Y-28342D02*
X68771Y-28361D01*
X68866Y-28361D01*
X68904Y-28342D01*
X68923Y-28323D01*
X68942Y-28285D01*
X68942Y-28247D01*
X68923Y-28209D01*
X68904Y-28190D01*
X68866Y-28171D01*
X68790Y-28152D01*
X68752Y-28133D01*
X68733Y-28114D01*
X68714Y-28076D01*
X68714Y-28038D01*
X68733Y-28000D01*
X68752Y-27980D01*
X68790Y-27961D01*
X68885Y-27961D01*
X68942Y-27980D01*
X69057Y-27961D02*
X69190Y-28361D01*
X69323Y-27961D01*
X69457Y-28361D02*
X69457Y-27961D01*
X69552Y-27961D01*
X69609Y-27980D01*
X69647Y-28019D01*
X69666Y-28057D01*
X69685Y-28133D01*
X69685Y-28190D01*
X69666Y-28266D01*
X69647Y-28304D01*
X69609Y-28342D01*
X69552Y-28361D01*
X69457Y-28361D01*
X68070Y-27132D02*
X68070Y-26732D01*
X68337Y-26732D02*
X68413Y-26732D01*
X68451Y-26751D01*
X68489Y-26789D01*
X68508Y-26866D01*
X68508Y-26999D01*
X68489Y-27075D01*
X68451Y-27113D01*
X68413Y-27132D01*
X68337Y-27132D01*
X68299Y-27113D01*
X68261Y-27075D01*
X68242Y-26999D01*
X68242Y-26866D01*
X68261Y-26789D01*
X68299Y-26751D01*
X68337Y-26732D01*
X68908Y-27132D02*
X68775Y-26942D01*
X68680Y-27132D02*
X68680Y-26732D01*
X68832Y-26732D01*
X68870Y-26751D01*
X68889Y-26770D01*
X68908Y-26809D01*
X68908Y-26866D01*
X68889Y-26904D01*
X68870Y-26923D01*
X68832Y-26942D01*
X68680Y-26942D01*
X69080Y-26923D02*
X69213Y-26923D01*
X69270Y-27132D02*
X69080Y-27132D01*
X69080Y-26732D01*
X69270Y-26732D01*
X69575Y-26923D02*
X69442Y-26923D01*
X69442Y-27132D02*
X69442Y-26732D01*
X69632Y-26732D01*
X68251Y-26132D02*
X68118Y-25942D01*
X68023Y-26132D02*
X68023Y-25732D01*
X68175Y-25732D01*
X68213Y-25751D01*
X68232Y-25770D01*
X68251Y-25809D01*
X68251Y-25866D01*
X68232Y-25904D01*
X68213Y-25923D01*
X68175Y-25942D01*
X68023Y-25942D01*
X68423Y-25923D02*
X68556Y-25923D01*
X68613Y-26132D02*
X68423Y-26132D01*
X68423Y-25732D01*
X68613Y-25732D01*
X68766Y-26113D02*
X68823Y-26132D01*
X68918Y-26132D01*
X68956Y-26113D01*
X68975Y-26094D01*
X68994Y-26056D01*
X68994Y-26018D01*
X68975Y-25980D01*
X68956Y-25961D01*
X68918Y-25942D01*
X68842Y-25923D01*
X68804Y-25904D01*
X68785Y-25885D01*
X68766Y-25847D01*
X68766Y-25809D01*
X68785Y-25770D01*
X68804Y-25751D01*
X68842Y-25732D01*
X68937Y-25732D01*
X68994Y-25751D01*
X69166Y-25923D02*
X69299Y-25923D01*
X69356Y-26132D02*
X69166Y-26132D01*
X69166Y-25732D01*
X69356Y-25732D01*
X69470Y-25732D02*
X69699Y-25732D01*
X69585Y-26132D02*
X69585Y-25732D01*
X68442Y-24732D02*
X68689Y-24732D01*
X68556Y-24885D01*
X68613Y-24885D01*
X68651Y-24904D01*
X68670Y-24923D01*
X68689Y-24961D01*
X68689Y-25056D01*
X68670Y-25094D01*
X68651Y-25113D01*
X68613Y-25132D01*
X68499Y-25132D01*
X68461Y-25113D01*
X68442Y-25094D01*
X68861Y-25094D02*
X68880Y-25113D01*
X68861Y-25132D01*
X68842Y-25113D01*
X68861Y-25094D01*
X68861Y-25132D01*
X69013Y-24732D02*
X69261Y-24732D01*
X69127Y-24885D01*
X69185Y-24885D01*
X69223Y-24904D01*
X69242Y-24923D01*
X69261Y-24961D01*
X69261Y-25056D01*
X69242Y-25094D01*
X69223Y-25113D01*
X69185Y-25132D01*
X69070Y-25132D01*
X69032Y-25113D01*
X69013Y-25094D01*
X69375Y-24732D02*
X69508Y-25132D01*
X69642Y-24732D01*
X69356Y-23732D02*
X69166Y-23732D01*
X69147Y-23923D01*
X69166Y-23904D01*
X69204Y-23885D01*
X69299Y-23885D01*
X69337Y-23904D01*
X69356Y-23923D01*
X69375Y-23961D01*
X69375Y-24056D01*
X69356Y-24094D01*
X69337Y-24113D01*
X69299Y-24132D01*
X69204Y-24132D01*
X69166Y-24113D01*
X69147Y-24094D01*
X69489Y-23732D02*
X69623Y-24132D01*
X69756Y-23732D01*
X68927Y-22751D02*
X68889Y-22732D01*
X68832Y-22732D01*
X68775Y-22751D01*
X68737Y-22789D01*
X68718Y-22828D01*
X68699Y-22904D01*
X68699Y-22961D01*
X68718Y-23037D01*
X68737Y-23075D01*
X68775Y-23113D01*
X68832Y-23132D01*
X68870Y-23132D01*
X68927Y-23113D01*
X68947Y-23094D01*
X68947Y-22961D01*
X68870Y-22961D01*
X69118Y-23132D02*
X69118Y-22732D01*
X69347Y-23132D01*
X69347Y-22732D01*
X69537Y-23132D02*
X69537Y-22732D01*
X69632Y-22732D01*
X69689Y-22751D01*
X69727Y-22789D01*
X69747Y-22828D01*
X69766Y-22904D01*
X69766Y-22961D01*
X69747Y-23037D01*
X69727Y-23075D01*
X69689Y-23113D01*
X69632Y-23132D01*
X69537Y-23132D01*
X68927Y-21751D02*
X68889Y-21732D01*
X68832Y-21732D01*
X68775Y-21751D01*
X68737Y-21789D01*
X68718Y-21828D01*
X68699Y-21904D01*
X68699Y-21961D01*
X68718Y-22037D01*
X68737Y-22075D01*
X68775Y-22113D01*
X68832Y-22132D01*
X68870Y-22132D01*
X68927Y-22113D01*
X68947Y-22094D01*
X68947Y-21961D01*
X68870Y-21961D01*
X69118Y-22132D02*
X69118Y-21732D01*
X69347Y-22132D01*
X69347Y-21732D01*
X69537Y-22132D02*
X69537Y-21732D01*
X69632Y-21732D01*
X69689Y-21751D01*
X69727Y-21789D01*
X69747Y-21828D01*
X69766Y-21904D01*
X69766Y-21961D01*
X69747Y-22037D01*
X69727Y-22075D01*
X69689Y-22113D01*
X69632Y-22132D01*
X69537Y-22132D01*
X68794Y-20732D02*
X68927Y-21132D01*
X69061Y-20732D01*
X69194Y-21132D02*
X69194Y-20732D01*
X69385Y-21132D02*
X69385Y-20732D01*
X69613Y-21132D01*
X69613Y-20732D01*
X69143Y-19040D02*
X69333Y-19040D01*
X69105Y-19154D02*
X69238Y-18754D01*
X69371Y-19154D01*
X69581Y-18754D02*
X69619Y-18754D01*
X69657Y-18773D01*
X69676Y-18792D01*
X69695Y-18830D01*
X69714Y-18907D01*
X69714Y-19002D01*
X69695Y-19078D01*
X69676Y-19116D01*
X69657Y-19135D01*
X69619Y-19154D01*
X69581Y-19154D01*
X69543Y-19135D01*
X69524Y-19116D01*
X69505Y-19078D01*
X69485Y-19002D01*
X69485Y-18907D01*
X69505Y-18830D01*
X69524Y-18792D01*
X69543Y-18773D01*
X69581Y-18754D01*
X69143Y-18040D02*
X69333Y-18040D01*
X69105Y-18154D02*
X69238Y-17754D01*
X69371Y-18154D01*
X69714Y-18154D02*
X69485Y-18154D01*
X69600Y-18154D02*
X69600Y-17754D01*
X69562Y-17811D01*
X69524Y-17849D01*
X69485Y-17868D01*
X69143Y-17040D02*
X69333Y-17040D01*
X69105Y-17154D02*
X69238Y-16754D01*
X69371Y-17154D01*
X69485Y-16792D02*
X69505Y-16773D01*
X69543Y-16754D01*
X69638Y-16754D01*
X69676Y-16773D01*
X69695Y-16792D01*
X69714Y-16830D01*
X69714Y-16868D01*
X69695Y-16926D01*
X69466Y-17154D01*
X69714Y-17154D01*
X69143Y-16040D02*
X69333Y-16040D01*
X69105Y-16154D02*
X69238Y-15754D01*
X69371Y-16154D01*
X69466Y-15754D02*
X69714Y-15754D01*
X69581Y-15907D01*
X69638Y-15907D01*
X69676Y-15926D01*
X69695Y-15945D01*
X69714Y-15983D01*
X69714Y-16078D01*
X69695Y-16116D01*
X69676Y-16135D01*
X69638Y-16154D01*
X69524Y-16154D01*
X69485Y-16135D01*
X69466Y-16116D01*
X69143Y-15040D02*
X69333Y-15040D01*
X69105Y-15154D02*
X69238Y-14754D01*
X69371Y-15154D01*
X69676Y-14887D02*
X69676Y-15154D01*
X69581Y-14735D02*
X69485Y-15021D01*
X69733Y-15021D01*
X70714Y-13047D02*
X70904Y-13047D01*
X70676Y-13161D02*
X70809Y-12761D01*
X70942Y-13161D01*
X71266Y-12761D02*
X71076Y-12761D01*
X71057Y-12952D01*
X71076Y-12933D01*
X71114Y-12914D01*
X71209Y-12914D01*
X71247Y-12933D01*
X71266Y-12952D01*
X71285Y-12990D01*
X71285Y-13085D01*
X71266Y-13123D01*
X71247Y-13142D01*
X71209Y-13161D01*
X71114Y-13161D01*
X71076Y-13142D01*
X71057Y-13123D01*
X60173Y-15912D02*
X59773Y-15912D01*
X60059Y-15778D01*
X59773Y-15645D01*
X60173Y-15645D01*
X60173Y-15454D02*
X59773Y-15454D01*
X60154Y-15283D02*
X60173Y-15226D01*
X60173Y-15131D01*
X60154Y-15092D01*
X60135Y-15073D01*
X60097Y-15054D01*
X60059Y-15054D01*
X60021Y-15073D01*
X60002Y-15092D01*
X59983Y-15131D01*
X59964Y-15207D01*
X59945Y-15245D01*
X59926Y-15264D01*
X59888Y-15283D01*
X59849Y-15283D01*
X59811Y-15264D01*
X59792Y-15245D01*
X59773Y-15207D01*
X59773Y-15112D01*
X59792Y-15054D01*
X59773Y-14807D02*
X59773Y-14731D01*
X59792Y-14692D01*
X59830Y-14654D01*
X59907Y-14635D01*
X60040Y-14635D01*
X60116Y-14654D01*
X60154Y-14692D01*
X60173Y-14731D01*
X60173Y-14807D01*
X60154Y-14845D01*
X60116Y-14883D01*
X60040Y-14902D01*
X59907Y-14902D01*
X59830Y-14883D01*
X59792Y-14845D01*
X59773Y-14807D01*
X61158Y-16006D02*
X61177Y-15949D01*
X61177Y-15854D01*
X61158Y-15816D01*
X61139Y-15797D01*
X61101Y-15778D01*
X61063Y-15778D01*
X61025Y-15797D01*
X61006Y-15816D01*
X60987Y-15854D01*
X60968Y-15930D01*
X60949Y-15968D01*
X60930Y-15987D01*
X60891Y-16006D01*
X60853Y-16006D01*
X60815Y-15987D01*
X60796Y-15968D01*
X60777Y-15930D01*
X60777Y-15835D01*
X60796Y-15778D01*
X61139Y-15378D02*
X61158Y-15397D01*
X61177Y-15454D01*
X61177Y-15492D01*
X61158Y-15549D01*
X61120Y-15587D01*
X61082Y-15606D01*
X61006Y-15625D01*
X60949Y-15625D01*
X60872Y-15606D01*
X60834Y-15587D01*
X60796Y-15549D01*
X60777Y-15492D01*
X60777Y-15454D01*
X60796Y-15397D01*
X60815Y-15378D01*
X61177Y-15016D02*
X61177Y-15206D01*
X60777Y-15206D01*
X61177Y-14883D02*
X60777Y-14883D01*
X61177Y-14654D02*
X60949Y-14825D01*
X60777Y-14654D02*
X61006Y-14883D01*
X62165Y-16029D02*
X61975Y-16163D01*
X62165Y-16258D02*
X61765Y-16258D01*
X61765Y-16105D01*
X61784Y-16067D01*
X61803Y-16048D01*
X61842Y-16029D01*
X61899Y-16029D01*
X61937Y-16048D01*
X61956Y-16067D01*
X61975Y-16105D01*
X61975Y-16258D01*
X61956Y-15858D02*
X61956Y-15725D01*
X62165Y-15667D02*
X62165Y-15858D01*
X61765Y-15858D01*
X61765Y-15667D01*
X62146Y-15515D02*
X62165Y-15458D01*
X62165Y-15363D01*
X62146Y-15325D01*
X62127Y-15305D01*
X62089Y-15286D01*
X62051Y-15286D01*
X62013Y-15305D01*
X61994Y-15325D01*
X61975Y-15363D01*
X61956Y-15439D01*
X61937Y-15477D01*
X61918Y-15496D01*
X61880Y-15515D01*
X61842Y-15515D01*
X61803Y-15496D01*
X61784Y-15477D01*
X61765Y-15439D01*
X61765Y-15344D01*
X61784Y-15286D01*
X61956Y-15115D02*
X61956Y-14982D01*
X62165Y-14925D02*
X62165Y-15115D01*
X61765Y-15115D01*
X61765Y-14925D01*
X61765Y-14810D02*
X61765Y-14582D01*
X62165Y-14696D02*
X61765Y-14696D01*
X59557Y-11911D02*
X59367Y-11911D01*
X59348Y-12102D01*
X59367Y-12083D01*
X59405Y-12064D01*
X59500Y-12064D01*
X59538Y-12083D01*
X59557Y-12102D01*
X59576Y-12140D01*
X59576Y-12235D01*
X59557Y-12273D01*
X59538Y-12292D01*
X59500Y-12311D01*
X59405Y-12311D01*
X59367Y-12292D01*
X59348Y-12273D01*
X59691Y-11911D02*
X59824Y-12311D01*
X59957Y-11911D01*
X60383Y-12311D02*
X60383Y-11911D01*
X60516Y-12197D01*
X60649Y-11911D01*
X60649Y-12311D01*
X60916Y-11911D02*
X60992Y-11911D01*
X61030Y-11930D01*
X61068Y-11969D01*
X61088Y-12045D01*
X61088Y-12178D01*
X61068Y-12254D01*
X61030Y-12292D01*
X60992Y-12311D01*
X60916Y-12311D01*
X60878Y-12292D01*
X60840Y-12254D01*
X60821Y-12178D01*
X60821Y-12045D01*
X60840Y-11969D01*
X60878Y-11930D01*
X60916Y-11911D01*
X61240Y-12292D02*
X61297Y-12311D01*
X61392Y-12311D01*
X61430Y-12292D01*
X61449Y-12273D01*
X61468Y-12235D01*
X61468Y-12197D01*
X61449Y-12159D01*
X61430Y-12140D01*
X61392Y-12121D01*
X61316Y-12102D01*
X61278Y-12083D01*
X61259Y-12064D01*
X61240Y-12026D01*
X61240Y-11988D01*
X61259Y-11950D01*
X61278Y-11930D01*
X61316Y-11911D01*
X61411Y-11911D01*
X61468Y-11930D01*
X61640Y-12311D02*
X61640Y-11911D01*
X62242Y-11930D02*
X62204Y-11911D01*
X62147Y-11911D01*
X62090Y-11930D01*
X62052Y-11969D01*
X62032Y-12007D01*
X62013Y-12083D01*
X62013Y-12140D01*
X62032Y-12216D01*
X62052Y-12254D01*
X62090Y-12292D01*
X62147Y-12311D01*
X62185Y-12311D01*
X62242Y-12292D01*
X62261Y-12273D01*
X62261Y-12140D01*
X62185Y-12140D01*
X62432Y-12311D02*
X62432Y-11911D01*
X62661Y-12311D01*
X62661Y-11911D01*
X62852Y-12311D02*
X62852Y-11911D01*
X62947Y-11911D01*
X63004Y-11930D01*
X63042Y-11969D01*
X63061Y-12007D01*
X63080Y-12083D01*
X63080Y-12140D01*
X63061Y-12216D01*
X63042Y-12254D01*
X63004Y-12292D01*
X62947Y-12311D01*
X62852Y-12311D01*
X53180Y-13761D02*
X53219Y-13761D01*
X53257Y-13780D01*
X53276Y-13800D01*
X53295Y-13838D01*
X53314Y-13914D01*
X53314Y-14009D01*
X53295Y-14085D01*
X53276Y-14123D01*
X53257Y-14142D01*
X53219Y-14161D01*
X53180Y-14161D01*
X53142Y-14142D01*
X53123Y-14123D01*
X53104Y-14085D01*
X53085Y-14009D01*
X53085Y-13914D01*
X53104Y-13838D01*
X53123Y-13800D01*
X53142Y-13780D01*
X53180Y-13761D01*
X53314Y-15161D02*
X53085Y-15161D01*
X53200Y-15161D02*
X53200Y-14761D01*
X53161Y-14819D01*
X53123Y-14857D01*
X53085Y-14876D01*
X53085Y-15800D02*
X53104Y-15780D01*
X53142Y-15761D01*
X53238Y-15761D01*
X53276Y-15780D01*
X53295Y-15800D01*
X53314Y-15838D01*
X53314Y-15876D01*
X53295Y-15933D01*
X53066Y-16161D01*
X53314Y-16161D01*
X53066Y-16761D02*
X53314Y-16761D01*
X53180Y-16914D01*
X53238Y-16914D01*
X53276Y-16933D01*
X53295Y-16952D01*
X53314Y-16990D01*
X53314Y-17085D01*
X53295Y-17123D01*
X53276Y-17142D01*
X53238Y-17161D01*
X53123Y-17161D01*
X53085Y-17142D01*
X53066Y-17123D01*
X53276Y-17895D02*
X53276Y-18161D01*
X53180Y-17742D02*
X53085Y-18028D01*
X53333Y-18028D01*
X53295Y-18761D02*
X53104Y-18761D01*
X53085Y-18952D01*
X53104Y-18933D01*
X53142Y-18914D01*
X53238Y-18914D01*
X53276Y-18933D01*
X53295Y-18952D01*
X53314Y-18990D01*
X53314Y-19085D01*
X53295Y-19123D01*
X53276Y-19142D01*
X53238Y-19161D01*
X53142Y-19161D01*
X53104Y-19142D01*
X53085Y-19123D01*
X53276Y-19761D02*
X53200Y-19761D01*
X53161Y-19780D01*
X53142Y-19800D01*
X53104Y-19857D01*
X53085Y-19933D01*
X53085Y-20085D01*
X53104Y-20123D01*
X53123Y-20142D01*
X53161Y-20161D01*
X53238Y-20161D01*
X53276Y-20142D01*
X53295Y-20123D01*
X53314Y-20085D01*
X53314Y-19990D01*
X53295Y-19952D01*
X53276Y-19933D01*
X53238Y-19914D01*
X53161Y-19914D01*
X53123Y-19933D01*
X53104Y-19952D01*
X53085Y-19990D01*
X53066Y-20761D02*
X53333Y-20761D01*
X53161Y-21161D01*
X53161Y-22533D02*
X53123Y-22514D01*
X53104Y-22495D01*
X53085Y-22457D01*
X53085Y-22438D01*
X53104Y-22400D01*
X53123Y-22380D01*
X53161Y-22361D01*
X53238Y-22361D01*
X53276Y-22380D01*
X53295Y-22400D01*
X53314Y-22438D01*
X53314Y-22457D01*
X53295Y-22495D01*
X53276Y-22514D01*
X53238Y-22533D01*
X53161Y-22533D01*
X53123Y-22552D01*
X53104Y-22571D01*
X53085Y-22609D01*
X53085Y-22685D01*
X53104Y-22723D01*
X53123Y-22742D01*
X53161Y-22761D01*
X53238Y-22761D01*
X53276Y-22742D01*
X53295Y-22723D01*
X53314Y-22685D01*
X53314Y-22609D01*
X53295Y-22571D01*
X53276Y-22552D01*
X53238Y-22533D01*
X53123Y-23761D02*
X53200Y-23761D01*
X53238Y-23742D01*
X53257Y-23723D01*
X53295Y-23666D01*
X53314Y-23590D01*
X53314Y-23438D01*
X53295Y-23400D01*
X53276Y-23380D01*
X53238Y-23361D01*
X53161Y-23361D01*
X53123Y-23380D01*
X53104Y-23400D01*
X53085Y-23438D01*
X53085Y-23533D01*
X53104Y-23571D01*
X53123Y-23590D01*
X53161Y-23609D01*
X53238Y-23609D01*
X53276Y-23590D01*
X53295Y-23571D01*
X53314Y-23533D01*
X52923Y-24761D02*
X52695Y-24761D01*
X52809Y-24761D02*
X52809Y-24361D01*
X52771Y-24419D01*
X52733Y-24457D01*
X52695Y-24476D01*
X53171Y-24361D02*
X53209Y-24361D01*
X53247Y-24380D01*
X53266Y-24400D01*
X53285Y-24438D01*
X53304Y-24514D01*
X53304Y-24609D01*
X53285Y-24685D01*
X53266Y-24723D01*
X53247Y-24742D01*
X53209Y-24761D01*
X53171Y-24761D01*
X53133Y-24742D01*
X53114Y-24723D01*
X53095Y-24685D01*
X53076Y-24609D01*
X53076Y-24514D01*
X53095Y-24438D01*
X53114Y-24400D01*
X53133Y-24380D01*
X53171Y-24361D01*
X52923Y-25761D02*
X52695Y-25761D01*
X52809Y-25761D02*
X52809Y-25361D01*
X52771Y-25419D01*
X52733Y-25457D01*
X52695Y-25476D01*
X53304Y-25761D02*
X53076Y-25761D01*
X53190Y-25761D02*
X53190Y-25361D01*
X53152Y-25419D01*
X53114Y-25457D01*
X53076Y-25476D01*
X52923Y-26761D02*
X52695Y-26761D01*
X52809Y-26761D02*
X52809Y-26361D01*
X52771Y-26419D01*
X52733Y-26457D01*
X52695Y-26476D01*
X53076Y-26400D02*
X53095Y-26380D01*
X53133Y-26361D01*
X53228Y-26361D01*
X53266Y-26380D01*
X53285Y-26400D01*
X53304Y-26438D01*
X53304Y-26476D01*
X53285Y-26533D01*
X53057Y-26761D01*
X53304Y-26761D01*
X52923Y-27761D02*
X52695Y-27761D01*
X52809Y-27761D02*
X52809Y-27361D01*
X52771Y-27419D01*
X52733Y-27457D01*
X52695Y-27476D01*
X53057Y-27361D02*
X53304Y-27361D01*
X53171Y-27514D01*
X53228Y-27514D01*
X53266Y-27533D01*
X53285Y-27552D01*
X53304Y-27590D01*
X53304Y-27685D01*
X53285Y-27723D01*
X53266Y-27742D01*
X53228Y-27761D01*
X53114Y-27761D01*
X53076Y-27742D01*
X53057Y-27723D01*
X52910Y-28934D02*
X52891Y-28972D01*
X52891Y-29029D01*
X52910Y-29087D01*
X52948Y-29125D01*
X52987Y-29144D01*
X53063Y-29163D01*
X53120Y-29163D01*
X53196Y-29144D01*
X53234Y-29125D01*
X53272Y-29087D01*
X53291Y-29029D01*
X53291Y-28991D01*
X53272Y-28934D01*
X53253Y-28915D01*
X53120Y-28915D01*
X53120Y-28991D01*
X53291Y-28744D02*
X52891Y-28744D01*
X53291Y-28515D01*
X52891Y-28515D01*
X53291Y-28325D02*
X52891Y-28325D01*
X52891Y-28229D01*
X52910Y-28172D01*
X52948Y-28134D01*
X52987Y-28115D01*
X53063Y-28096D01*
X53120Y-28096D01*
X53196Y-28115D01*
X53234Y-28134D01*
X53272Y-28172D01*
X53291Y-28229D01*
X53291Y-28325D01*
X49852Y-29797D02*
X50042Y-29797D01*
X49814Y-29911D02*
X49947Y-29511D01*
X50080Y-29911D01*
X50442Y-29911D02*
X50309Y-29721D01*
X50214Y-29911D02*
X50214Y-29511D01*
X50366Y-29511D01*
X50404Y-29530D01*
X50423Y-29550D01*
X50442Y-29588D01*
X50442Y-29645D01*
X50423Y-29683D01*
X50404Y-29702D01*
X50366Y-29721D01*
X50214Y-29721D01*
X50614Y-29702D02*
X50747Y-29702D01*
X50804Y-29911D02*
X50614Y-29911D01*
X50614Y-29511D01*
X50804Y-29511D01*
X51109Y-29702D02*
X50976Y-29702D01*
X50976Y-29911D02*
X50976Y-29511D01*
X51166Y-29511D01*
X49823Y-30642D02*
X49880Y-30661D01*
X49976Y-30661D01*
X50014Y-30642D01*
X50033Y-30623D01*
X50052Y-30585D01*
X50052Y-30547D01*
X50033Y-30509D01*
X50014Y-30490D01*
X49976Y-30471D01*
X49900Y-30452D01*
X49861Y-30433D01*
X49842Y-30414D01*
X49823Y-30376D01*
X49823Y-30338D01*
X49842Y-30300D01*
X49861Y-30280D01*
X49900Y-30261D01*
X49995Y-30261D01*
X50052Y-30280D01*
X50223Y-30661D02*
X50223Y-30261D01*
X50319Y-30261D01*
X50376Y-30280D01*
X50414Y-30319D01*
X50433Y-30357D01*
X50452Y-30433D01*
X50452Y-30490D01*
X50433Y-30566D01*
X50414Y-30604D01*
X50376Y-30642D01*
X50319Y-30661D01*
X50223Y-30661D01*
X50604Y-30547D02*
X50795Y-30547D01*
X50566Y-30661D02*
X50700Y-30261D01*
X50833Y-30661D01*
X51176Y-30661D02*
X50947Y-30661D01*
X51061Y-30661D02*
X51061Y-30261D01*
X51023Y-30319D01*
X50985Y-30357D01*
X50947Y-30376D01*
X53083Y-32142D02*
X53140Y-32161D01*
X53235Y-32161D01*
X53273Y-32142D01*
X53292Y-32123D01*
X53311Y-32085D01*
X53311Y-32047D01*
X53292Y-32009D01*
X53273Y-31990D01*
X53235Y-31971D01*
X53159Y-31952D01*
X53121Y-31933D01*
X53102Y-31914D01*
X53083Y-31876D01*
X53083Y-31838D01*
X53102Y-31800D01*
X53121Y-31780D01*
X53159Y-31761D01*
X53254Y-31761D01*
X53311Y-31780D01*
X53711Y-32123D02*
X53692Y-32142D01*
X53635Y-32161D01*
X53597Y-32161D01*
X53540Y-32142D01*
X53502Y-32104D01*
X53483Y-32066D01*
X53464Y-31990D01*
X53464Y-31933D01*
X53483Y-31857D01*
X53502Y-31819D01*
X53540Y-31780D01*
X53597Y-31761D01*
X53635Y-31761D01*
X53692Y-31780D01*
X53711Y-31800D01*
X54073Y-32161D02*
X53883Y-32161D01*
X53883Y-31761D01*
X54416Y-32161D02*
X54188Y-32161D01*
X54302Y-32161D02*
X54302Y-31761D01*
X54264Y-31819D01*
X54226Y-31857D01*
X54188Y-31876D01*
G54D23*
X31873Y-11985D02*
X31863Y-11995D01*
X31835Y-12004D01*
X31817Y-12004D01*
X31788Y-11995D01*
X31770Y-11976D01*
X31760Y-11957D01*
X31751Y-11920D01*
X31751Y-11892D01*
X31760Y-11854D01*
X31770Y-11835D01*
X31788Y-11817D01*
X31817Y-11807D01*
X31835Y-11807D01*
X31863Y-11817D01*
X31873Y-11826D01*
X31939Y-11807D02*
X32070Y-11807D01*
X31985Y-12004D01*
X32126Y-11807D02*
X32248Y-11807D01*
X32182Y-11882D01*
X32211Y-11882D01*
X32229Y-11892D01*
X32239Y-11901D01*
X32248Y-11920D01*
X32248Y-11967D01*
X32239Y-11985D01*
X32229Y-11995D01*
X32211Y-12004D01*
X32154Y-12004D01*
X32136Y-11995D01*
X32126Y-11985D01*
G54D24*
X36634Y-31811D02*
X36625Y-31821D01*
X36600Y-31830D01*
X36582Y-31830D01*
X36557Y-31821D01*
X36540Y-31802D01*
X36531Y-31783D01*
X36522Y-31745D01*
X36522Y-31716D01*
X36531Y-31678D01*
X36540Y-31659D01*
X36557Y-31640D01*
X36582Y-31630D01*
X36600Y-31630D01*
X36625Y-31640D01*
X36634Y-31650D01*
X36788Y-31697D02*
X36788Y-31830D01*
X36745Y-31621D02*
X36702Y-31764D01*
X36814Y-31764D01*
X36865Y-31630D02*
X36977Y-31630D01*
X36917Y-31707D01*
X36942Y-31707D01*
X36960Y-31716D01*
X36968Y-31726D01*
X36977Y-31745D01*
X36977Y-31792D01*
X36968Y-31811D01*
X36960Y-31821D01*
X36942Y-31830D01*
X36891Y-31830D01*
X36874Y-31821D01*
X36865Y-31811D01*
%LPC*%
G54D25*
X27000Y-33500D03*
X27000Y-13000D03*
G54D26*
X34689Y-22024D03*
G54D27*
X34689Y-22221D03*
X34689Y-22418D03*
X34689Y-22615D03*
X34689Y-22812D03*
X34689Y-23008D03*
X34689Y-23205D03*
X34689Y-23402D03*
X34689Y-23599D03*
X34689Y-23796D03*
X34689Y-23993D03*
X34689Y-24189D03*
X34689Y-24386D03*
X34689Y-24583D03*
X34689Y-24780D03*
X34689Y-24977D03*
G54D28*
X35524Y-25875D03*
X35721Y-25875D03*
X35918Y-25875D03*
X36115Y-25875D03*
X36312Y-25875D03*
X36508Y-25875D03*
X36705Y-25875D03*
X36902Y-25875D03*
X37099Y-25875D03*
X37296Y-25875D03*
X37493Y-25875D03*
X37689Y-25875D03*
X37886Y-25875D03*
X38083Y-25875D03*
X38280Y-25875D03*
X38477Y-25875D03*
G54D27*
X39375Y-24977D03*
X39375Y-24780D03*
X39375Y-24583D03*
X39375Y-24386D03*
X39375Y-24189D03*
X39375Y-23993D03*
X39375Y-23796D03*
X39375Y-23599D03*
X39375Y-23402D03*
X39375Y-23205D03*
X39375Y-23008D03*
X39375Y-22812D03*
X39375Y-22615D03*
X39375Y-22418D03*
X39375Y-22221D03*
X39375Y-22024D03*
G54D28*
X38477Y-21189D03*
X38280Y-21189D03*
X37886Y-21189D03*
X38083Y-21182D03*
X37689Y-21189D03*
X37493Y-21189D03*
X37296Y-21189D03*
X37099Y-21189D03*
X36902Y-21189D03*
X36705Y-21189D03*
X36511Y-21189D03*
X36314Y-21189D03*
X36117Y-21189D03*
X35920Y-21189D03*
X35724Y-21189D03*
X35527Y-21189D03*
G54D29*
X40567Y-26500D03*
X41433Y-26125D03*
X41433Y-26875D03*
X32317Y-31750D03*
X33183Y-31375D03*
X33183Y-32125D03*
G54D30*
X39250Y-32050D03*
G54D31*
X39250Y-29450D03*
X38350Y-29450D03*
X40150Y-29450D03*
G54D32*
X49250Y-32000D03*
X49250Y-31500D03*
X49250Y-31000D03*
X49250Y-30500D03*
X49250Y-30000D03*
X49250Y-29500D03*
X49250Y-29000D03*
X49250Y-28500D03*
X45250Y-28500D03*
X45250Y-29000D03*
X45250Y-29500D03*
X45250Y-30000D03*
X45250Y-30500D03*
X45250Y-31000D03*
X45250Y-31500D03*
X45250Y-32000D03*
X49250Y-24750D03*
X49250Y-24250D03*
X49250Y-23750D03*
X49250Y-23250D03*
X49250Y-22750D03*
X49250Y-22250D03*
X49250Y-21750D03*
X49250Y-21250D03*
X45250Y-21250D03*
X45250Y-21750D03*
X45250Y-22250D03*
X45250Y-22750D03*
X45250Y-23250D03*
X45250Y-23750D03*
X45250Y-24250D03*
X45250Y-24750D03*
X62350Y-27750D03*
X62350Y-27250D03*
X62350Y-26750D03*
X62350Y-26250D03*
X62350Y-25750D03*
X62350Y-25250D03*
X62350Y-24750D03*
X60250Y-24750D03*
X60250Y-25250D03*
X60250Y-25750D03*
X60250Y-26250D03*
X60250Y-26750D03*
X60250Y-27250D03*
X60250Y-27750D03*
X66850Y-21750D03*
X66850Y-21250D03*
X66850Y-20750D03*
X66850Y-20250D03*
X66850Y-19750D03*
X66850Y-19250D03*
X66850Y-18750D03*
X64750Y-18750D03*
X64750Y-19250D03*
X64750Y-19750D03*
X64750Y-20250D03*
X64750Y-20750D03*
X64750Y-21250D03*
X64750Y-21750D03*
X58850Y-21750D03*
X58850Y-21250D03*
X58850Y-20750D03*
X58850Y-20250D03*
X58850Y-19750D03*
X58850Y-19250D03*
X58850Y-18750D03*
X56750Y-18750D03*
X56750Y-19250D03*
X56750Y-19750D03*
X56750Y-20250D03*
X56750Y-20750D03*
X56750Y-21250D03*
X56750Y-21750D03*
G54D33*
X34750Y-29319D03*
X34750Y-31681D03*
G54D34*
X54000Y-31375D03*
X54000Y-30625D03*
X54000Y-29375D03*
X54000Y-28625D03*
G54D35*
X55875Y-31250D03*
X56625Y-31250D03*
G54D34*
X42500Y-28625D03*
X42500Y-27875D03*
X42750Y-32125D03*
X42750Y-31375D03*
X41500Y-29625D03*
X41500Y-30375D03*
G54D35*
X68125Y-28750D03*
X68875Y-28750D03*
X68125Y-27500D03*
X68875Y-27500D03*
G54D34*
X42500Y-26125D03*
X42500Y-26875D03*
X41500Y-32125D03*
X41500Y-31375D03*
G54D35*
X39875Y-16750D03*
X40625Y-16750D03*
G54D34*
X36500Y-29625D03*
X36500Y-28875D03*
X39500Y-27375D03*
X39500Y-28125D03*
G54D35*
X38875Y-17000D03*
X38125Y-17000D03*
G54D34*
X38250Y-27375D03*
X38250Y-28125D03*
G54D35*
X34375Y-16750D03*
X35125Y-16750D03*
X39875Y-18000D03*
X40625Y-18000D03*
X36875Y-16750D03*
X36125Y-16750D03*
G54D34*
X54000Y-27375D03*
X54000Y-26625D03*
X50500Y-27375D03*
X50500Y-26625D03*
X45000Y-26375D03*
X45000Y-27125D03*
X43750Y-27125D03*
X43750Y-26375D03*
X42000Y-19875D03*
X42000Y-19125D03*
X40750Y-19875D03*
X40750Y-19125D03*
G54D35*
X37125Y-18250D03*
X36375Y-18250D03*
G54D36*
X65450Y-23250D03*
X66050Y-23250D03*
X57450Y-23250D03*
X58050Y-23250D03*
X31300Y-32000D03*
X30700Y-32000D03*
X29800Y-32000D03*
X29200Y-32000D03*
G54D37*
X44000Y-30550D03*
X44000Y-29950D03*
X41750Y-18050D03*
X41750Y-17450D03*
G54D36*
X60950Y-29250D03*
X61550Y-29250D03*
G54D37*
X44000Y-32050D03*
X44000Y-31450D03*
X44000Y-29050D03*
X44000Y-28450D03*
X50500Y-29050D03*
X50500Y-28450D03*
X42750Y-30300D03*
X42750Y-29700D03*
X50500Y-32050D03*
X50500Y-31450D03*
G54D36*
X44300Y-25250D03*
X43700Y-25250D03*
G54D37*
X36000Y-27200D03*
X36000Y-27800D03*
X36500Y-19800D03*
X36500Y-19200D03*
X37000Y-27800D03*
X37000Y-27200D03*
X37500Y-19200D03*
X37500Y-19800D03*
G54D36*
X34450Y-18000D03*
X35050Y-18000D03*
G54D37*
X38500Y-19300D03*
X38500Y-18700D03*
X35500Y-19800D03*
X35500Y-19200D03*
G54D36*
X69800Y-31000D03*
X69200Y-31000D03*
G54D37*
X50500Y-24950D03*
X50500Y-25550D03*
G54D36*
X43700Y-19750D03*
X44300Y-19750D03*
G54D37*
X39750Y-19800D03*
X39750Y-19200D03*
X35000Y-27200D03*
X35000Y-27800D03*
X40250Y-21300D03*
X40250Y-20700D03*
X34000Y-27200D03*
X34000Y-27800D03*
G54D36*
X40700Y-28000D03*
X41300Y-28000D03*
X37050Y-30750D03*
X36450Y-30750D03*
G54D38*
X71295Y-31000D03*
X70705Y-31000D03*
G54D39*
X44000Y-17570D03*
X45000Y-17570D03*
X43000Y-17570D03*
X44000Y-15429D03*
X43000Y-15429D03*
X45000Y-15429D03*
G54D36*
X26450Y-21000D03*
X27050Y-21000D03*
X26450Y-23000D03*
X27050Y-23000D03*
X26450Y-22000D03*
X27050Y-22000D03*
X26450Y-20000D03*
X27050Y-20000D03*
X26450Y-31000D03*
X27050Y-31000D03*
X26450Y-30000D03*
X27050Y-30000D03*
X26450Y-28000D03*
X27050Y-28000D03*
X26450Y-29000D03*
X27050Y-29000D03*
X26450Y-18000D03*
X27050Y-18000D03*
X26450Y-19000D03*
X27050Y-19000D03*
X26450Y-16000D03*
X27050Y-16000D03*
X26450Y-17000D03*
X27050Y-17000D03*
X26450Y-15000D03*
X27050Y-15000D03*
X26450Y-25000D03*
X27050Y-25000D03*
X26450Y-24000D03*
X27050Y-24000D03*
X26450Y-26000D03*
X27050Y-26000D03*
X26450Y-27000D03*
X27050Y-27000D03*
X30950Y-23000D03*
X31550Y-23000D03*
X27950Y-23000D03*
X28550Y-23000D03*
X29450Y-22500D03*
X30050Y-22500D03*
X29450Y-21500D03*
X30050Y-21500D03*
X27950Y-22000D03*
X28550Y-22000D03*
X30950Y-22000D03*
X31550Y-22000D03*
X30950Y-20000D03*
X31550Y-20000D03*
X27950Y-20000D03*
X28550Y-20000D03*
X29450Y-19500D03*
X30050Y-19500D03*
X29450Y-16500D03*
X30050Y-16500D03*
X30950Y-31000D03*
X31550Y-31000D03*
X27950Y-31000D03*
X28550Y-31000D03*
X29450Y-30500D03*
X30050Y-30500D03*
X29450Y-29500D03*
X30050Y-29500D03*
X27950Y-30000D03*
X28550Y-30000D03*
X30950Y-30000D03*
X31550Y-30000D03*
X30950Y-28000D03*
X31550Y-28000D03*
X27950Y-28000D03*
X28550Y-28000D03*
X29450Y-27500D03*
X30050Y-27500D03*
X29450Y-28500D03*
X30050Y-28500D03*
X30950Y-19000D03*
X31550Y-19000D03*
X27950Y-19000D03*
X28550Y-19000D03*
X29450Y-18500D03*
X30050Y-18500D03*
X29450Y-20500D03*
X30050Y-20500D03*
X29450Y-17500D03*
X30050Y-17500D03*
X27950Y-18000D03*
X28550Y-18000D03*
X30950Y-18000D03*
X31550Y-18000D03*
X30950Y-16000D03*
X31550Y-16000D03*
X27950Y-16000D03*
X28550Y-16000D03*
X29450Y-15500D03*
X30050Y-15500D03*
X27950Y-15000D03*
X28550Y-15000D03*
X27950Y-17000D03*
X28550Y-17000D03*
X30950Y-17000D03*
X31550Y-17000D03*
X30950Y-21000D03*
X31550Y-21000D03*
X27950Y-21000D03*
X28550Y-21000D03*
X30950Y-15000D03*
X31550Y-15000D03*
X29450Y-14500D03*
X30050Y-14500D03*
X30950Y-29000D03*
X31550Y-29000D03*
X27950Y-29000D03*
X28550Y-29000D03*
X27950Y-25000D03*
X28550Y-25000D03*
X29450Y-24500D03*
X30050Y-24500D03*
X29450Y-23500D03*
X30050Y-23500D03*
X27950Y-24000D03*
X28550Y-24000D03*
X30950Y-25000D03*
X31550Y-25000D03*
X30950Y-24000D03*
X31550Y-24000D03*
X30950Y-26000D03*
X31550Y-26000D03*
X27950Y-26000D03*
X28550Y-26000D03*
X29450Y-25500D03*
X30050Y-25500D03*
X29450Y-26500D03*
X30050Y-26500D03*
X27950Y-27000D03*
X28550Y-27000D03*
X30950Y-27000D03*
X31550Y-27000D03*
G54D40*
X41000Y-15000D03*
G54D41*
X40000Y-15000D03*
X39000Y-15000D03*
X38000Y-15000D03*
X37000Y-15000D03*
X36000Y-15000D03*
X35000Y-15000D03*
G54D40*
X25000Y-32000D03*
G54D41*
X25000Y-31000D03*
X25000Y-30000D03*
X25000Y-29000D03*
X25000Y-28000D03*
X25000Y-27000D03*
X25000Y-26000D03*
X25000Y-25000D03*
X25000Y-24000D03*
X25000Y-23000D03*
X25000Y-22000D03*
X25000Y-21000D03*
X25000Y-20000D03*
X25000Y-19000D03*
X25000Y-18000D03*
X25000Y-17000D03*
X25000Y-16000D03*
X25000Y-15000D03*
G54D42*
X29000Y-33000D03*
X67000Y-33000D03*
X67000Y-14000D03*
G54D41*
X71000Y-28000D03*
X71000Y-27000D03*
X71000Y-26000D03*
X71000Y-25000D03*
X71000Y-24000D03*
X71000Y-23000D03*
X71000Y-22000D03*
X71000Y-21000D03*
X71000Y-19000D03*
X71000Y-18000D03*
X71000Y-17000D03*
X71000Y-16000D03*
X71000Y-15000D03*
X71000Y-14000D03*
X60000Y-13950D03*
X61000Y-13950D03*
X62000Y-13950D03*
X62000Y-12950D03*
X61000Y-12950D03*
X60000Y-12950D03*
X52000Y-14000D03*
X52000Y-15000D03*
X52000Y-16000D03*
X52000Y-17000D03*
X52000Y-18000D03*
X52000Y-19000D03*
X52000Y-20000D03*
X52000Y-21000D03*
X52000Y-22600D03*
X52000Y-23600D03*
X52000Y-24600D03*
X52000Y-25600D03*
X52000Y-26600D03*
X52000Y-27600D03*
X52000Y-28600D03*
X52000Y-29600D03*
X52000Y-30600D03*
X52000Y-31600D03*
G54D43*
X52000Y-33000D03*
X58000Y-13000D03*
X71000Y-33500D03*
X69000Y-13000D03*
G54D44*
X33181Y-13000D03*
G54D45*
X30819Y-13000D03*
G54D36*
X36450Y-31750D03*
X37050Y-31750D03*
M02*
