G04 (created by PCBNEW (2013-jul-07)-stable) date Sun Aug 30 14:00:53 2015*
%MOIN*%
G04 Gerber Fmt 3.4, Leading zero omitted, Abs format*
%FSLAX34Y34*%
G01*
G70*
G90*
G04 APERTURE LIST*
%ADD10C,0.00590551*%
%ADD11C,0.1495*%
%ADD12C,0.0590551*%
%ADD13R,0.05X0.061811*%
%ADD14R,0.06X0.06*%
%ADD15C,0.06*%
%ADD16C,0.035*%
%ADD17C,0.02*%
%ADD18C,0.01*%
G04 APERTURE END LIST*
G54D10*
G54D11*
X27000Y-33500D03*
X27000Y-13000D03*
G54D12*
X27000Y-28000D03*
X27000Y-30000D03*
X27000Y-25000D03*
X27000Y-17000D03*
X27000Y-19000D03*
X27000Y-21000D03*
X27000Y-23000D03*
X67000Y-23000D03*
X27000Y-26000D03*
X27000Y-24000D03*
X27000Y-22000D03*
X27000Y-20000D03*
X27000Y-18000D03*
X27000Y-16000D03*
X43000Y-25000D03*
X27000Y-27000D03*
X27000Y-29000D03*
X27000Y-31000D03*
X27000Y-15000D03*
X69000Y-27000D03*
X69000Y-26000D03*
X69000Y-25000D03*
X69000Y-23000D03*
X35000Y-16000D03*
X64000Y-25000D03*
X60000Y-19000D03*
X60000Y-16000D03*
X50000Y-15000D03*
X61000Y-16000D03*
X44000Y-24000D03*
X64000Y-26000D03*
X59000Y-24000D03*
X62000Y-21000D03*
X59000Y-26000D03*
X63000Y-18000D03*
X60000Y-21000D03*
X57000Y-19000D03*
X40000Y-26000D03*
X42000Y-24000D03*
X41000Y-25000D03*
X43000Y-20000D03*
X45000Y-20000D03*
X43000Y-21000D03*
X36000Y-16000D03*
X37000Y-16000D03*
X42000Y-15000D03*
X42000Y-16000D03*
X41000Y-23000D03*
X38000Y-16000D03*
X34000Y-16000D03*
G54D13*
X44000Y-17608D03*
X43000Y-17608D03*
X45000Y-17608D03*
X45000Y-15391D03*
X44000Y-15391D03*
X43000Y-15391D03*
G54D14*
X41000Y-15000D03*
G54D15*
X40000Y-15000D03*
X39000Y-15000D03*
X38000Y-15000D03*
X37000Y-15000D03*
X36000Y-15000D03*
X35000Y-15000D03*
G54D14*
X25000Y-32000D03*
G54D15*
X25000Y-31000D03*
X25000Y-30000D03*
X25000Y-29000D03*
X25000Y-28000D03*
X25000Y-27000D03*
X25000Y-26000D03*
X25000Y-25000D03*
X25000Y-24000D03*
X25000Y-23000D03*
X25000Y-22000D03*
X25000Y-21000D03*
X25000Y-20000D03*
X25000Y-19000D03*
X25000Y-18000D03*
X25000Y-17000D03*
X25000Y-16000D03*
X25000Y-15000D03*
X71000Y-28000D03*
X71000Y-27000D03*
X71000Y-26000D03*
X71000Y-25000D03*
X71000Y-24000D03*
X71000Y-23000D03*
X71000Y-22000D03*
X71000Y-21000D03*
X71000Y-19000D03*
X71000Y-18000D03*
X71000Y-17000D03*
X71000Y-16000D03*
X71000Y-15000D03*
X71000Y-14000D03*
X60000Y-13950D03*
X61000Y-13950D03*
X62000Y-13950D03*
X62000Y-12950D03*
X61000Y-12950D03*
X60000Y-12950D03*
X52000Y-14000D03*
X52000Y-15000D03*
X52000Y-16000D03*
X52000Y-17000D03*
X52000Y-18000D03*
X52000Y-19000D03*
X52000Y-20000D03*
X52000Y-21000D03*
X52000Y-22600D03*
X52000Y-23600D03*
X52000Y-24600D03*
X52000Y-25600D03*
X52000Y-26600D03*
X52000Y-27600D03*
X52000Y-28600D03*
X52000Y-29600D03*
X52000Y-30600D03*
X52000Y-31600D03*
G54D16*
X39374Y-21559D03*
X39750Y-20250D03*
X38750Y-24500D03*
X41748Y-18543D03*
X43330Y-19342D03*
X40885Y-25968D03*
X41874Y-25192D03*
X43996Y-18988D03*
X44310Y-20356D03*
X43019Y-23389D03*
X56500Y-22500D03*
X58000Y-21000D03*
X44629Y-19129D03*
X44641Y-22720D03*
X42334Y-23062D03*
X42133Y-22366D03*
X41291Y-22035D03*
X40629Y-22228D03*
X40000Y-25000D03*
X41800Y-24400D03*
X57996Y-25750D03*
X40800Y-24200D03*
X56000Y-22000D03*
X58250Y-19750D03*
X43500Y-21000D03*
X34000Y-26500D03*
X36000Y-19750D03*
X37141Y-17559D03*
X44000Y-14500D03*
X34251Y-15023D03*
X63250Y-19250D03*
X63250Y-25250D03*
X54500Y-23000D03*
X54503Y-20996D03*
X59681Y-24889D03*
X43334Y-20334D03*
X66929Y-22440D03*
X66826Y-27240D03*
X59444Y-19318D03*
X57511Y-18649D03*
X50594Y-24208D03*
X50665Y-15015D03*
X50000Y-23000D03*
X50000Y-21250D03*
X63267Y-26425D03*
X53448Y-24220D03*
X64750Y-25750D03*
X35500Y-13000D03*
X35685Y-16744D03*
X40150Y-30228D03*
X40150Y-28728D03*
X40150Y-30881D03*
X37460Y-30271D03*
X40307Y-17370D03*
X31751Y-32031D03*
X56062Y-19748D03*
X56047Y-18129D03*
X61350Y-26759D03*
X61500Y-20250D03*
X61507Y-21834D03*
X29750Y-13000D03*
X38700Y-23950D03*
X39400Y-25400D03*
X45000Y-14500D03*
X43000Y-16500D03*
X43114Y-26704D03*
X43251Y-28236D03*
X44750Y-27750D03*
X44649Y-20930D03*
X37681Y-18637D03*
X36000Y-19200D03*
X28500Y-32000D03*
X29000Y-31000D03*
X29000Y-30000D03*
X29000Y-29000D03*
X29000Y-28000D03*
X29000Y-27000D03*
X29000Y-26000D03*
X29000Y-25000D03*
X29000Y-24000D03*
X29000Y-23000D03*
X29000Y-22000D03*
X29000Y-21000D03*
X29000Y-20000D03*
X29000Y-19000D03*
X29000Y-18000D03*
X29000Y-17000D03*
X29000Y-16000D03*
X29000Y-15000D03*
X32000Y-16000D03*
X32000Y-31000D03*
X32000Y-30000D03*
X32000Y-29000D03*
X32000Y-28000D03*
X32000Y-27000D03*
X32000Y-26000D03*
X32000Y-25000D03*
X32000Y-15000D03*
X32000Y-17000D03*
X32000Y-18000D03*
X32000Y-19000D03*
X32000Y-20000D03*
X32000Y-21000D03*
X32000Y-22000D03*
X32000Y-24000D03*
X32000Y-23250D03*
X39303Y-28594D03*
X40122Y-18669D03*
X37681Y-32086D03*
X32535Y-32263D03*
X34748Y-30877D03*
X35842Y-29629D03*
X38051Y-20448D03*
X38866Y-25866D03*
X36003Y-28307D03*
X35000Y-28287D03*
X34000Y-28303D03*
X37007Y-28322D03*
X36704Y-25090D03*
X38618Y-17889D03*
X36716Y-20397D03*
X43700Y-24610D03*
X44539Y-31090D03*
X39173Y-19594D03*
X39173Y-20816D03*
X53279Y-30641D03*
X50535Y-30889D03*
X68633Y-31011D03*
X61750Y-24750D03*
X61500Y-28750D03*
X58000Y-22750D03*
X66000Y-22750D03*
X66250Y-18750D03*
X58250Y-18750D03*
X49543Y-20535D03*
X50535Y-26098D03*
X69500Y-28750D03*
X43413Y-32106D03*
X43385Y-29015D03*
X54750Y-26600D03*
X60500Y-29250D03*
X65000Y-23250D03*
X57000Y-23250D03*
X68250Y-29500D03*
G54D17*
X69000Y-26000D02*
X70000Y-25000D01*
X70000Y-25000D02*
X71000Y-25000D01*
X39750Y-21183D02*
X39374Y-21559D01*
X39750Y-20250D02*
X39750Y-21183D01*
X69000Y-25000D02*
X70000Y-24000D01*
X70000Y-24000D02*
X71000Y-24000D01*
X36000Y-16000D02*
X36000Y-15000D01*
G54D18*
X43996Y-18988D02*
X44000Y-18984D01*
X44000Y-18984D02*
X44000Y-17608D01*
X41874Y-25192D02*
X42807Y-25192D01*
X42807Y-25192D02*
X43000Y-25000D01*
X44000Y-19401D02*
X44000Y-21830D01*
X41874Y-25192D02*
X42688Y-24377D01*
X42688Y-23141D02*
X42688Y-24377D01*
X44000Y-21830D02*
X42688Y-23141D01*
X43996Y-18988D02*
X44000Y-18988D01*
X44000Y-19448D02*
X44000Y-19401D01*
X44000Y-19401D02*
X44000Y-18988D01*
X44310Y-22099D02*
X44310Y-20356D01*
X44310Y-22099D02*
X43019Y-23389D01*
X43019Y-23389D02*
X43629Y-24000D01*
X43629Y-24000D02*
X44000Y-24000D01*
X58000Y-21000D02*
X56500Y-22500D01*
X58000Y-21000D02*
X60000Y-21000D01*
X44629Y-19129D02*
X45000Y-19500D01*
X45000Y-19500D02*
X45000Y-20000D01*
X45000Y-17608D02*
X45000Y-20000D01*
X45000Y-18759D02*
X44629Y-19129D01*
X45000Y-22362D02*
X45000Y-21858D01*
X44641Y-22720D02*
X45000Y-22362D01*
X45000Y-22000D02*
X45000Y-21858D01*
X45000Y-21858D02*
X45000Y-20000D01*
X42000Y-15000D02*
X41000Y-15000D01*
X42464Y-15338D02*
X42125Y-15000D01*
X42464Y-15531D02*
X42464Y-15338D01*
X42125Y-15000D02*
X42000Y-15000D01*
X42334Y-23062D02*
X42464Y-22933D01*
X42464Y-22933D02*
X42464Y-15531D01*
X42464Y-15531D02*
X42464Y-15523D01*
X40743Y-15493D02*
X40493Y-15493D01*
X41493Y-15493D02*
X40743Y-15493D01*
X42000Y-16000D02*
X41493Y-15493D01*
X40493Y-15493D02*
X40000Y-15000D01*
X42212Y-16346D02*
X42212Y-16212D01*
X42212Y-16468D02*
X42212Y-16346D01*
X42133Y-22366D02*
X42212Y-22287D01*
X42212Y-22287D02*
X42212Y-16468D01*
X42212Y-16212D02*
X42000Y-16000D01*
X39925Y-15673D02*
X39673Y-15673D01*
X39673Y-15673D02*
X39000Y-15000D01*
X41291Y-22035D02*
X41291Y-22708D01*
X41291Y-22708D02*
X41000Y-23000D01*
X41405Y-16574D02*
X41405Y-15870D01*
X41405Y-21921D02*
X41405Y-16574D01*
X41291Y-22035D02*
X41405Y-21921D01*
X41208Y-15673D02*
X39925Y-15673D01*
X39925Y-15673D02*
X39923Y-15673D01*
X41405Y-15870D02*
X41208Y-15673D01*
X41291Y-22035D02*
X41271Y-22015D01*
X38000Y-16000D02*
X38000Y-15000D01*
X39114Y-15862D02*
X38862Y-15862D01*
X38862Y-15862D02*
X38000Y-15000D01*
X40629Y-22228D02*
X40629Y-21531D01*
X41000Y-15862D02*
X39114Y-15862D01*
X39114Y-15862D02*
X39112Y-15862D01*
X41224Y-16086D02*
X41000Y-15862D01*
X41224Y-20937D02*
X41224Y-16086D01*
X40629Y-21531D02*
X41224Y-20937D01*
X40000Y-25000D02*
X40000Y-26000D01*
X42000Y-24000D02*
X42000Y-24200D01*
X42000Y-24200D02*
X41800Y-24400D01*
X59000Y-26000D02*
X58750Y-25750D01*
X58750Y-25750D02*
X57996Y-25750D01*
X40800Y-24200D02*
X41000Y-24400D01*
X41000Y-24400D02*
X41000Y-25000D01*
X58250Y-19750D02*
X56000Y-22000D01*
X58250Y-19750D02*
X57750Y-19750D01*
X57750Y-19750D02*
X57000Y-19000D01*
X43500Y-21000D02*
X43000Y-21000D01*
G54D17*
X69000Y-27000D02*
X71000Y-27000D01*
G54D18*
X44000Y-15391D02*
X44000Y-14500D01*
X34000Y-16000D02*
X34000Y-15275D01*
X34000Y-15275D02*
X34251Y-15023D01*
X25000Y-15000D02*
X27000Y-15000D01*
G54D17*
X37000Y-16000D02*
X37000Y-15000D01*
G54D18*
X25000Y-30000D02*
X27000Y-30000D01*
X25000Y-31000D02*
X27000Y-31000D01*
X25000Y-28000D02*
X27000Y-28000D01*
X25000Y-29000D02*
X27000Y-29000D01*
X25000Y-26000D02*
X27000Y-26000D01*
X25000Y-27000D02*
X27000Y-27000D01*
X25000Y-24000D02*
X27000Y-24000D01*
X25000Y-25000D02*
X27000Y-25000D01*
X25000Y-22000D02*
X27000Y-22000D01*
X25000Y-23000D02*
X27000Y-23000D01*
X25000Y-20000D02*
X27000Y-20000D01*
X25000Y-21000D02*
X27000Y-21000D01*
X25000Y-18000D02*
X27000Y-18000D01*
X25000Y-19000D02*
X27000Y-19000D01*
X25000Y-16000D02*
X27000Y-16000D01*
X25000Y-17000D02*
X27000Y-17000D01*
X63000Y-18000D02*
X63000Y-19000D01*
X63000Y-19000D02*
X63250Y-19250D01*
X63250Y-25250D02*
X63250Y-19250D01*
X54500Y-23000D02*
X54500Y-21000D01*
X54500Y-21000D02*
X54503Y-20996D01*
X59000Y-24000D02*
X59000Y-24208D01*
X59000Y-24208D02*
X59681Y-24889D01*
X43000Y-17608D02*
X43000Y-20000D01*
X43334Y-20334D02*
X43000Y-20000D01*
X67000Y-23000D02*
X66929Y-22929D01*
X66929Y-22929D02*
X66929Y-22440D01*
X66929Y-27137D02*
X66929Y-22440D01*
X66826Y-27240D02*
X66929Y-27137D01*
X59763Y-19000D02*
X60000Y-19000D01*
X59444Y-19318D02*
X59763Y-19000D01*
X60000Y-13950D02*
X60000Y-16000D01*
X60000Y-16000D02*
X60000Y-16161D01*
X60000Y-16161D02*
X57511Y-18649D01*
X50000Y-15000D02*
X50649Y-15000D01*
X50649Y-15000D02*
X50665Y-15015D01*
X50594Y-24208D02*
X50594Y-15086D01*
X50594Y-15086D02*
X50665Y-15015D01*
X50000Y-23000D02*
X50000Y-21250D01*
X61000Y-16000D02*
X61000Y-13950D01*
X63574Y-26425D02*
X64000Y-26000D01*
X63267Y-26425D02*
X63574Y-26425D01*
X53289Y-20490D02*
X52799Y-20000D01*
X53299Y-20500D02*
X53468Y-20669D01*
X53289Y-20490D02*
X53299Y-20500D01*
X53468Y-20669D02*
X53468Y-24200D01*
X53448Y-24220D02*
X53468Y-24200D01*
X52799Y-20000D02*
X52000Y-20000D01*
X64750Y-25750D02*
X64000Y-25000D01*
G54D17*
X35000Y-16000D02*
X35000Y-15000D01*
X40150Y-30228D02*
X40149Y-30228D01*
X40150Y-28728D02*
X40149Y-28728D01*
X40150Y-30881D02*
X40149Y-30881D01*
G54D18*
X56062Y-18145D02*
X56062Y-19748D01*
X56047Y-18129D02*
X56062Y-18145D01*
X62000Y-21000D02*
X62000Y-20750D01*
X62000Y-20750D02*
X61500Y-20250D01*
X61350Y-21992D02*
X61507Y-21834D01*
X61350Y-26759D02*
X61350Y-21992D01*
X61507Y-20257D02*
X61507Y-21834D01*
X61507Y-20257D02*
X61500Y-20250D01*
G54D17*
X45000Y-15391D02*
X45000Y-14500D01*
X43000Y-15391D02*
X43000Y-16500D01*
X71000Y-23000D02*
X71000Y-22000D01*
X69000Y-23000D02*
X71000Y-23000D01*
X43385Y-32078D02*
X43413Y-32106D01*
X43385Y-29015D02*
X43385Y-32078D01*
G54D10*
G36*
X45450Y-34450D02*
X43738Y-34450D01*
X43738Y-32041D01*
X43689Y-31922D01*
X43635Y-31869D01*
X43635Y-29225D01*
X43661Y-29200D01*
X43710Y-29080D01*
X43710Y-28951D01*
X43661Y-28831D01*
X43570Y-28740D01*
X43450Y-28690D01*
X43321Y-28690D01*
X43201Y-28740D01*
X43110Y-28831D01*
X43060Y-28950D01*
X43060Y-29080D01*
X43110Y-29199D01*
X43135Y-29225D01*
X43135Y-31927D01*
X43088Y-32041D01*
X43088Y-32170D01*
X43137Y-32290D01*
X43229Y-32381D01*
X43348Y-32431D01*
X43477Y-32431D01*
X43597Y-32381D01*
X43688Y-32290D01*
X43738Y-32171D01*
X43738Y-32041D01*
X43738Y-34450D01*
X40475Y-34450D01*
X40475Y-30817D01*
X40475Y-30163D01*
X40475Y-28663D01*
X40425Y-28544D01*
X40334Y-28452D01*
X40214Y-28403D01*
X40085Y-28403D01*
X39966Y-28452D01*
X39874Y-28544D01*
X39825Y-28663D01*
X39824Y-28792D01*
X39874Y-28912D01*
X39965Y-29003D01*
X40085Y-29053D01*
X40214Y-29053D01*
X40333Y-29004D01*
X40425Y-28912D01*
X40474Y-28793D01*
X40475Y-28663D01*
X40475Y-30163D01*
X40425Y-30044D01*
X40334Y-29952D01*
X40214Y-29903D01*
X40085Y-29903D01*
X39966Y-29952D01*
X39874Y-30044D01*
X39825Y-30163D01*
X39824Y-30292D01*
X39874Y-30412D01*
X39965Y-30503D01*
X40085Y-30553D01*
X40214Y-30553D01*
X40333Y-30504D01*
X40425Y-30412D01*
X40474Y-30293D01*
X40475Y-30163D01*
X40475Y-30817D01*
X40425Y-30698D01*
X40334Y-30606D01*
X40214Y-30556D01*
X40085Y-30556D01*
X39966Y-30606D01*
X39874Y-30697D01*
X39825Y-30816D01*
X39824Y-30946D01*
X39874Y-31065D01*
X39965Y-31157D01*
X40085Y-31206D01*
X40214Y-31206D01*
X40333Y-31157D01*
X40425Y-31066D01*
X40474Y-30946D01*
X40475Y-30817D01*
X40475Y-34450D01*
X37785Y-34450D01*
X37785Y-30207D01*
X37736Y-30087D01*
X37644Y-29996D01*
X37525Y-29946D01*
X37466Y-29946D01*
X37466Y-17494D01*
X37417Y-17375D01*
X37326Y-17283D01*
X37206Y-17234D01*
X37077Y-17233D01*
X36957Y-17283D01*
X36866Y-17374D01*
X36816Y-17494D01*
X36816Y-17623D01*
X36866Y-17742D01*
X36957Y-17834D01*
X37076Y-17883D01*
X37206Y-17884D01*
X37325Y-17834D01*
X37417Y-17743D01*
X37466Y-17623D01*
X37466Y-17494D01*
X37466Y-29946D01*
X37396Y-29946D01*
X37276Y-29995D01*
X37185Y-30087D01*
X37135Y-30206D01*
X37135Y-30336D01*
X37184Y-30455D01*
X37276Y-30547D01*
X37395Y-30596D01*
X37524Y-30596D01*
X37644Y-30547D01*
X37735Y-30455D01*
X37785Y-30336D01*
X37785Y-30207D01*
X37785Y-34450D01*
X36325Y-34450D01*
X36325Y-19685D01*
X36275Y-19566D01*
X36184Y-19474D01*
X36064Y-19425D01*
X36010Y-19425D01*
X36010Y-16679D01*
X35960Y-16560D01*
X35869Y-16468D01*
X35749Y-16419D01*
X35620Y-16419D01*
X35501Y-16468D01*
X35409Y-16559D01*
X35360Y-16679D01*
X35359Y-16808D01*
X35409Y-16927D01*
X35500Y-17019D01*
X35620Y-17069D01*
X35749Y-17069D01*
X35868Y-17019D01*
X35960Y-16928D01*
X36009Y-16809D01*
X36010Y-16679D01*
X36010Y-19425D01*
X35935Y-19424D01*
X35816Y-19474D01*
X35724Y-19565D01*
X35675Y-19685D01*
X35674Y-19814D01*
X35724Y-19933D01*
X35815Y-20025D01*
X35935Y-20074D01*
X36064Y-20075D01*
X36183Y-20025D01*
X36275Y-19934D01*
X36324Y-19814D01*
X36325Y-19685D01*
X36325Y-34450D01*
X34325Y-34450D01*
X34325Y-26435D01*
X34275Y-26316D01*
X34184Y-26224D01*
X34064Y-26175D01*
X33935Y-26174D01*
X33816Y-26224D01*
X33724Y-26315D01*
X33675Y-26435D01*
X33674Y-26564D01*
X33724Y-26683D01*
X33815Y-26775D01*
X33935Y-26824D01*
X34064Y-26825D01*
X34183Y-26775D01*
X34275Y-26684D01*
X34324Y-26564D01*
X34325Y-26435D01*
X34325Y-34450D01*
X32077Y-34450D01*
X32077Y-31967D01*
X32027Y-31847D01*
X31936Y-31756D01*
X31816Y-31706D01*
X31687Y-31706D01*
X31568Y-31755D01*
X31476Y-31847D01*
X31427Y-31966D01*
X31426Y-32095D01*
X31476Y-32215D01*
X31567Y-32306D01*
X31687Y-32356D01*
X31816Y-32356D01*
X31935Y-32307D01*
X32027Y-32215D01*
X32076Y-32096D01*
X32077Y-31967D01*
X32077Y-34450D01*
X27897Y-34450D01*
X27897Y-33322D01*
X27897Y-12822D01*
X27761Y-12492D01*
X27509Y-12239D01*
X27179Y-12102D01*
X26822Y-12102D01*
X26492Y-12238D01*
X26239Y-12490D01*
X26102Y-12820D01*
X26102Y-13177D01*
X26238Y-13507D01*
X26490Y-13760D01*
X26820Y-13897D01*
X27177Y-13897D01*
X27507Y-13761D01*
X27760Y-13509D01*
X27897Y-13179D01*
X27897Y-12822D01*
X27897Y-33322D01*
X27761Y-32992D01*
X27509Y-32739D01*
X27445Y-32713D01*
X27445Y-30911D01*
X27445Y-29911D01*
X27445Y-28911D01*
X27445Y-27911D01*
X27445Y-26911D01*
X27445Y-25911D01*
X27445Y-24911D01*
X27445Y-23911D01*
X27445Y-22911D01*
X27445Y-21911D01*
X27445Y-20911D01*
X27445Y-19911D01*
X27445Y-18911D01*
X27445Y-17911D01*
X27445Y-16911D01*
X27445Y-15911D01*
X27445Y-14911D01*
X27377Y-14748D01*
X27252Y-14622D01*
X27088Y-14554D01*
X26911Y-14554D01*
X26748Y-14622D01*
X26622Y-14747D01*
X26600Y-14800D01*
X25404Y-14800D01*
X25381Y-14745D01*
X25255Y-14618D01*
X25089Y-14550D01*
X24910Y-14549D01*
X24745Y-14618D01*
X24618Y-14744D01*
X24550Y-14910D01*
X24549Y-15089D01*
X24618Y-15254D01*
X24744Y-15381D01*
X24910Y-15449D01*
X25089Y-15450D01*
X25254Y-15381D01*
X25381Y-15255D01*
X25404Y-15200D01*
X26600Y-15200D01*
X26622Y-15251D01*
X26747Y-15377D01*
X26911Y-15445D01*
X27088Y-15445D01*
X27251Y-15377D01*
X27377Y-15252D01*
X27445Y-15088D01*
X27445Y-14911D01*
X27445Y-15911D01*
X27377Y-15748D01*
X27252Y-15622D01*
X27088Y-15554D01*
X26911Y-15554D01*
X26748Y-15622D01*
X26622Y-15747D01*
X26600Y-15800D01*
X25404Y-15800D01*
X25381Y-15745D01*
X25255Y-15618D01*
X25089Y-15550D01*
X24910Y-15549D01*
X24745Y-15618D01*
X24618Y-15744D01*
X24550Y-15910D01*
X24549Y-16089D01*
X24618Y-16254D01*
X24744Y-16381D01*
X24910Y-16449D01*
X25089Y-16450D01*
X25254Y-16381D01*
X25381Y-16255D01*
X25404Y-16200D01*
X26600Y-16200D01*
X26622Y-16251D01*
X26747Y-16377D01*
X26911Y-16445D01*
X27088Y-16445D01*
X27251Y-16377D01*
X27377Y-16252D01*
X27445Y-16088D01*
X27445Y-15911D01*
X27445Y-16911D01*
X27377Y-16748D01*
X27252Y-16622D01*
X27088Y-16554D01*
X26911Y-16554D01*
X26748Y-16622D01*
X26622Y-16747D01*
X26600Y-16800D01*
X25404Y-16800D01*
X25381Y-16745D01*
X25255Y-16618D01*
X25089Y-16550D01*
X24910Y-16549D01*
X24745Y-16618D01*
X24618Y-16744D01*
X24550Y-16910D01*
X24549Y-17089D01*
X24618Y-17254D01*
X24744Y-17381D01*
X24910Y-17449D01*
X25089Y-17450D01*
X25254Y-17381D01*
X25381Y-17255D01*
X25404Y-17200D01*
X26600Y-17200D01*
X26622Y-17251D01*
X26747Y-17377D01*
X26911Y-17445D01*
X27088Y-17445D01*
X27251Y-17377D01*
X27377Y-17252D01*
X27445Y-17088D01*
X27445Y-16911D01*
X27445Y-17911D01*
X27377Y-17748D01*
X27252Y-17622D01*
X27088Y-17554D01*
X26911Y-17554D01*
X26748Y-17622D01*
X26622Y-17747D01*
X26600Y-17800D01*
X25404Y-17800D01*
X25381Y-17745D01*
X25255Y-17618D01*
X25089Y-17550D01*
X24910Y-17549D01*
X24745Y-17618D01*
X24618Y-17744D01*
X24550Y-17910D01*
X24549Y-18089D01*
X24618Y-18254D01*
X24744Y-18381D01*
X24910Y-18449D01*
X25089Y-18450D01*
X25254Y-18381D01*
X25381Y-18255D01*
X25404Y-18200D01*
X26600Y-18200D01*
X26622Y-18251D01*
X26747Y-18377D01*
X26911Y-18445D01*
X27088Y-18445D01*
X27251Y-18377D01*
X27377Y-18252D01*
X27445Y-18088D01*
X27445Y-17911D01*
X27445Y-18911D01*
X27377Y-18748D01*
X27252Y-18622D01*
X27088Y-18554D01*
X26911Y-18554D01*
X26748Y-18622D01*
X26622Y-18747D01*
X26600Y-18800D01*
X25404Y-18800D01*
X25381Y-18745D01*
X25255Y-18618D01*
X25089Y-18550D01*
X24910Y-18549D01*
X24745Y-18618D01*
X24618Y-18744D01*
X24550Y-18910D01*
X24549Y-19089D01*
X24618Y-19254D01*
X24744Y-19381D01*
X24910Y-19449D01*
X25089Y-19450D01*
X25254Y-19381D01*
X25381Y-19255D01*
X25404Y-19200D01*
X26600Y-19200D01*
X26622Y-19251D01*
X26747Y-19377D01*
X26911Y-19445D01*
X27088Y-19445D01*
X27251Y-19377D01*
X27377Y-19252D01*
X27445Y-19088D01*
X27445Y-18911D01*
X27445Y-19911D01*
X27377Y-19748D01*
X27252Y-19622D01*
X27088Y-19554D01*
X26911Y-19554D01*
X26748Y-19622D01*
X26622Y-19747D01*
X26600Y-19800D01*
X25404Y-19800D01*
X25381Y-19745D01*
X25255Y-19618D01*
X25089Y-19550D01*
X24910Y-19549D01*
X24745Y-19618D01*
X24618Y-19744D01*
X24550Y-19910D01*
X24549Y-20089D01*
X24618Y-20254D01*
X24744Y-20381D01*
X24910Y-20449D01*
X25089Y-20450D01*
X25254Y-20381D01*
X25381Y-20255D01*
X25404Y-20200D01*
X26600Y-20200D01*
X26622Y-20251D01*
X26747Y-20377D01*
X26911Y-20445D01*
X27088Y-20445D01*
X27251Y-20377D01*
X27377Y-20252D01*
X27445Y-20088D01*
X27445Y-19911D01*
X27445Y-20911D01*
X27377Y-20748D01*
X27252Y-20622D01*
X27088Y-20554D01*
X26911Y-20554D01*
X26748Y-20622D01*
X26622Y-20747D01*
X26600Y-20800D01*
X25404Y-20800D01*
X25381Y-20745D01*
X25255Y-20618D01*
X25089Y-20550D01*
X24910Y-20549D01*
X24745Y-20618D01*
X24618Y-20744D01*
X24550Y-20910D01*
X24549Y-21089D01*
X24618Y-21254D01*
X24744Y-21381D01*
X24910Y-21449D01*
X25089Y-21450D01*
X25254Y-21381D01*
X25381Y-21255D01*
X25404Y-21200D01*
X26600Y-21200D01*
X26622Y-21251D01*
X26747Y-21377D01*
X26911Y-21445D01*
X27088Y-21445D01*
X27251Y-21377D01*
X27377Y-21252D01*
X27445Y-21088D01*
X27445Y-20911D01*
X27445Y-21911D01*
X27377Y-21748D01*
X27252Y-21622D01*
X27088Y-21554D01*
X26911Y-21554D01*
X26748Y-21622D01*
X26622Y-21747D01*
X26600Y-21800D01*
X25404Y-21800D01*
X25381Y-21745D01*
X25255Y-21618D01*
X25089Y-21550D01*
X24910Y-21549D01*
X24745Y-21618D01*
X24618Y-21744D01*
X24550Y-21910D01*
X24549Y-22089D01*
X24618Y-22254D01*
X24744Y-22381D01*
X24910Y-22449D01*
X25089Y-22450D01*
X25254Y-22381D01*
X25381Y-22255D01*
X25404Y-22200D01*
X26600Y-22200D01*
X26622Y-22251D01*
X26747Y-22377D01*
X26911Y-22445D01*
X27088Y-22445D01*
X27251Y-22377D01*
X27377Y-22252D01*
X27445Y-22088D01*
X27445Y-21911D01*
X27445Y-22911D01*
X27377Y-22748D01*
X27252Y-22622D01*
X27088Y-22554D01*
X26911Y-22554D01*
X26748Y-22622D01*
X26622Y-22747D01*
X26600Y-22800D01*
X25404Y-22800D01*
X25381Y-22745D01*
X25255Y-22618D01*
X25089Y-22550D01*
X24910Y-22549D01*
X24745Y-22618D01*
X24618Y-22744D01*
X24550Y-22910D01*
X24549Y-23089D01*
X24618Y-23254D01*
X24744Y-23381D01*
X24910Y-23449D01*
X25089Y-23450D01*
X25254Y-23381D01*
X25381Y-23255D01*
X25404Y-23200D01*
X26600Y-23200D01*
X26622Y-23251D01*
X26747Y-23377D01*
X26911Y-23445D01*
X27088Y-23445D01*
X27251Y-23377D01*
X27377Y-23252D01*
X27445Y-23088D01*
X27445Y-22911D01*
X27445Y-23911D01*
X27377Y-23748D01*
X27252Y-23622D01*
X27088Y-23554D01*
X26911Y-23554D01*
X26748Y-23622D01*
X26622Y-23747D01*
X26600Y-23800D01*
X25404Y-23800D01*
X25381Y-23745D01*
X25255Y-23618D01*
X25089Y-23550D01*
X24910Y-23549D01*
X24745Y-23618D01*
X24618Y-23744D01*
X24550Y-23910D01*
X24549Y-24089D01*
X24618Y-24254D01*
X24744Y-24381D01*
X24910Y-24449D01*
X25089Y-24450D01*
X25254Y-24381D01*
X25381Y-24255D01*
X25404Y-24200D01*
X26600Y-24200D01*
X26622Y-24251D01*
X26747Y-24377D01*
X26911Y-24445D01*
X27088Y-24445D01*
X27251Y-24377D01*
X27377Y-24252D01*
X27445Y-24088D01*
X27445Y-23911D01*
X27445Y-24911D01*
X27377Y-24748D01*
X27252Y-24622D01*
X27088Y-24554D01*
X26911Y-24554D01*
X26748Y-24622D01*
X26622Y-24747D01*
X26600Y-24800D01*
X25404Y-24800D01*
X25381Y-24745D01*
X25255Y-24618D01*
X25089Y-24550D01*
X24910Y-24549D01*
X24745Y-24618D01*
X24618Y-24744D01*
X24550Y-24910D01*
X24549Y-25089D01*
X24618Y-25254D01*
X24744Y-25381D01*
X24910Y-25449D01*
X25089Y-25450D01*
X25254Y-25381D01*
X25381Y-25255D01*
X25404Y-25200D01*
X26600Y-25200D01*
X26622Y-25251D01*
X26747Y-25377D01*
X26911Y-25445D01*
X27088Y-25445D01*
X27251Y-25377D01*
X27377Y-25252D01*
X27445Y-25088D01*
X27445Y-24911D01*
X27445Y-25911D01*
X27377Y-25748D01*
X27252Y-25622D01*
X27088Y-25554D01*
X26911Y-25554D01*
X26748Y-25622D01*
X26622Y-25747D01*
X26600Y-25800D01*
X25404Y-25800D01*
X25381Y-25745D01*
X25255Y-25618D01*
X25089Y-25550D01*
X24910Y-25549D01*
X24745Y-25618D01*
X24618Y-25744D01*
X24550Y-25910D01*
X24549Y-26089D01*
X24618Y-26254D01*
X24744Y-26381D01*
X24910Y-26449D01*
X25089Y-26450D01*
X25254Y-26381D01*
X25381Y-26255D01*
X25404Y-26200D01*
X26600Y-26200D01*
X26622Y-26251D01*
X26747Y-26377D01*
X26911Y-26445D01*
X27088Y-26445D01*
X27251Y-26377D01*
X27377Y-26252D01*
X27445Y-26088D01*
X27445Y-25911D01*
X27445Y-26911D01*
X27377Y-26748D01*
X27252Y-26622D01*
X27088Y-26554D01*
X26911Y-26554D01*
X26748Y-26622D01*
X26622Y-26747D01*
X26600Y-26800D01*
X25404Y-26800D01*
X25381Y-26745D01*
X25255Y-26618D01*
X25089Y-26550D01*
X24910Y-26549D01*
X24745Y-26618D01*
X24618Y-26744D01*
X24550Y-26910D01*
X24549Y-27089D01*
X24618Y-27254D01*
X24744Y-27381D01*
X24910Y-27449D01*
X25089Y-27450D01*
X25254Y-27381D01*
X25381Y-27255D01*
X25404Y-27200D01*
X26600Y-27200D01*
X26622Y-27251D01*
X26747Y-27377D01*
X26911Y-27445D01*
X27088Y-27445D01*
X27251Y-27377D01*
X27377Y-27252D01*
X27445Y-27088D01*
X27445Y-26911D01*
X27445Y-27911D01*
X27377Y-27748D01*
X27252Y-27622D01*
X27088Y-27554D01*
X26911Y-27554D01*
X26748Y-27622D01*
X26622Y-27747D01*
X26600Y-27800D01*
X25404Y-27800D01*
X25381Y-27745D01*
X25255Y-27618D01*
X25089Y-27550D01*
X24910Y-27549D01*
X24745Y-27618D01*
X24618Y-27744D01*
X24550Y-27910D01*
X24549Y-28089D01*
X24618Y-28254D01*
X24744Y-28381D01*
X24910Y-28449D01*
X25089Y-28450D01*
X25254Y-28381D01*
X25381Y-28255D01*
X25404Y-28200D01*
X26600Y-28200D01*
X26622Y-28251D01*
X26747Y-28377D01*
X26911Y-28445D01*
X27088Y-28445D01*
X27251Y-28377D01*
X27377Y-28252D01*
X27445Y-28088D01*
X27445Y-27911D01*
X27445Y-28911D01*
X27377Y-28748D01*
X27252Y-28622D01*
X27088Y-28554D01*
X26911Y-28554D01*
X26748Y-28622D01*
X26622Y-28747D01*
X26600Y-28800D01*
X25404Y-28800D01*
X25381Y-28745D01*
X25255Y-28618D01*
X25089Y-28550D01*
X24910Y-28549D01*
X24745Y-28618D01*
X24618Y-28744D01*
X24550Y-28910D01*
X24549Y-29089D01*
X24618Y-29254D01*
X24744Y-29381D01*
X24910Y-29449D01*
X25089Y-29450D01*
X25254Y-29381D01*
X25381Y-29255D01*
X25404Y-29200D01*
X26600Y-29200D01*
X26622Y-29251D01*
X26747Y-29377D01*
X26911Y-29445D01*
X27088Y-29445D01*
X27251Y-29377D01*
X27377Y-29252D01*
X27445Y-29088D01*
X27445Y-28911D01*
X27445Y-29911D01*
X27377Y-29748D01*
X27252Y-29622D01*
X27088Y-29554D01*
X26911Y-29554D01*
X26748Y-29622D01*
X26622Y-29747D01*
X26600Y-29800D01*
X25404Y-29800D01*
X25381Y-29745D01*
X25255Y-29618D01*
X25089Y-29550D01*
X24910Y-29549D01*
X24745Y-29618D01*
X24618Y-29744D01*
X24550Y-29910D01*
X24549Y-30089D01*
X24618Y-30254D01*
X24744Y-30381D01*
X24910Y-30449D01*
X25089Y-30450D01*
X25254Y-30381D01*
X25381Y-30255D01*
X25404Y-30200D01*
X26600Y-30200D01*
X26622Y-30251D01*
X26747Y-30377D01*
X26911Y-30445D01*
X27088Y-30445D01*
X27251Y-30377D01*
X27377Y-30252D01*
X27445Y-30088D01*
X27445Y-29911D01*
X27445Y-30911D01*
X27377Y-30748D01*
X27252Y-30622D01*
X27088Y-30554D01*
X26911Y-30554D01*
X26748Y-30622D01*
X26622Y-30747D01*
X26600Y-30800D01*
X25404Y-30800D01*
X25381Y-30745D01*
X25255Y-30618D01*
X25089Y-30550D01*
X24910Y-30549D01*
X24745Y-30618D01*
X24618Y-30744D01*
X24550Y-30910D01*
X24549Y-31089D01*
X24618Y-31254D01*
X24744Y-31381D01*
X24910Y-31449D01*
X25089Y-31450D01*
X25254Y-31381D01*
X25381Y-31255D01*
X25404Y-31200D01*
X26600Y-31200D01*
X26622Y-31251D01*
X26747Y-31377D01*
X26911Y-31445D01*
X27088Y-31445D01*
X27251Y-31377D01*
X27377Y-31252D01*
X27445Y-31088D01*
X27445Y-30911D01*
X27445Y-32713D01*
X27179Y-32602D01*
X26822Y-32602D01*
X26492Y-32738D01*
X26239Y-32990D01*
X26102Y-33320D01*
X26102Y-33677D01*
X26238Y-34007D01*
X26490Y-34260D01*
X26820Y-34397D01*
X27177Y-34397D01*
X27507Y-34261D01*
X27760Y-34009D01*
X27897Y-33679D01*
X27897Y-33322D01*
X27897Y-34450D01*
X25550Y-34450D01*
X25550Y-32349D01*
X25550Y-31650D01*
X25512Y-31558D01*
X25441Y-31488D01*
X25349Y-31450D01*
X25250Y-31449D01*
X25212Y-31450D01*
X25150Y-31512D01*
X25150Y-31850D01*
X25487Y-31850D01*
X25550Y-31787D01*
X25550Y-31650D01*
X25550Y-32349D01*
X25550Y-32212D01*
X25487Y-32150D01*
X25150Y-32150D01*
X25150Y-32487D01*
X25212Y-32550D01*
X25250Y-32550D01*
X25349Y-32549D01*
X25441Y-32511D01*
X25512Y-32441D01*
X25550Y-32349D01*
X25550Y-34450D01*
X24850Y-34450D01*
X24850Y-32487D01*
X24850Y-32150D01*
X24850Y-31850D01*
X24850Y-31512D01*
X24787Y-31450D01*
X24749Y-31449D01*
X24650Y-31450D01*
X24558Y-31488D01*
X24487Y-31558D01*
X24449Y-31650D01*
X24450Y-31787D01*
X24512Y-31850D01*
X24850Y-31850D01*
X24850Y-32150D01*
X24512Y-32150D01*
X24450Y-32212D01*
X24449Y-32349D01*
X24487Y-32441D01*
X24558Y-32511D01*
X24650Y-32549D01*
X24749Y-32550D01*
X24787Y-32550D01*
X24850Y-32487D01*
X24850Y-34450D01*
X23800Y-34450D01*
X23800Y-12050D01*
X45450Y-12050D01*
X45450Y-14441D01*
X45250Y-14441D01*
X45250Y-14832D01*
X45187Y-14832D01*
X45125Y-14895D01*
X45125Y-15237D01*
X45250Y-15237D01*
X45250Y-15546D01*
X45125Y-15546D01*
X45125Y-15888D01*
X45187Y-15950D01*
X45250Y-15950D01*
X45250Y-16341D01*
X45450Y-16341D01*
X45450Y-16450D01*
X44875Y-16450D01*
X44875Y-15888D01*
X44875Y-15546D01*
X44875Y-15237D01*
X44875Y-14895D01*
X44812Y-14832D01*
X44700Y-14832D01*
X44608Y-14870D01*
X44538Y-14940D01*
X44500Y-15032D01*
X44499Y-15132D01*
X44500Y-15174D01*
X44562Y-15237D01*
X44875Y-15237D01*
X44875Y-15546D01*
X44562Y-15546D01*
X44500Y-15608D01*
X44499Y-15651D01*
X44500Y-15750D01*
X44538Y-15842D01*
X44608Y-15912D01*
X44700Y-15950D01*
X44812Y-15950D01*
X44875Y-15888D01*
X44875Y-16450D01*
X44400Y-16450D01*
X44400Y-15671D01*
X44400Y-15052D01*
X44377Y-14997D01*
X44335Y-14955D01*
X44279Y-14932D01*
X44220Y-14932D01*
X44200Y-14932D01*
X44200Y-14759D01*
X44275Y-14684D01*
X44324Y-14564D01*
X44325Y-14435D01*
X44275Y-14316D01*
X44184Y-14224D01*
X44064Y-14175D01*
X43935Y-14174D01*
X43816Y-14224D01*
X43724Y-14315D01*
X43675Y-14435D01*
X43674Y-14564D01*
X43724Y-14683D01*
X43800Y-14759D01*
X43800Y-14932D01*
X43720Y-14932D01*
X43665Y-14955D01*
X43622Y-14997D01*
X43600Y-15052D01*
X43599Y-15112D01*
X43599Y-15730D01*
X43622Y-15785D01*
X43664Y-15827D01*
X43720Y-15850D01*
X43779Y-15850D01*
X44279Y-15850D01*
X44334Y-15828D01*
X44377Y-15785D01*
X44399Y-15730D01*
X44400Y-15671D01*
X44400Y-16450D01*
X43550Y-16450D01*
X43550Y-14200D01*
X35825Y-14200D01*
X35825Y-12935D01*
X35775Y-12816D01*
X35684Y-12724D01*
X35564Y-12675D01*
X35435Y-12674D01*
X35316Y-12724D01*
X35224Y-12815D01*
X35175Y-12935D01*
X35174Y-13064D01*
X35224Y-13183D01*
X35315Y-13275D01*
X35435Y-13324D01*
X35564Y-13325D01*
X35683Y-13275D01*
X35775Y-13184D01*
X35824Y-13064D01*
X35825Y-12935D01*
X35825Y-14200D01*
X35450Y-14200D01*
X35450Y-14910D01*
X35381Y-14745D01*
X35255Y-14618D01*
X35089Y-14550D01*
X34910Y-14549D01*
X34745Y-14618D01*
X34618Y-14744D01*
X34553Y-14902D01*
X34527Y-14839D01*
X34436Y-14748D01*
X34316Y-14698D01*
X34187Y-14698D01*
X34068Y-14747D01*
X33976Y-14839D01*
X33927Y-14958D01*
X33926Y-15065D01*
X33858Y-15134D01*
X33815Y-15199D01*
X33800Y-15275D01*
X33800Y-15600D01*
X33748Y-15622D01*
X33622Y-15747D01*
X33554Y-15911D01*
X33554Y-16088D01*
X33622Y-16251D01*
X33747Y-16377D01*
X33911Y-16445D01*
X34088Y-16445D01*
X34251Y-16377D01*
X34377Y-16252D01*
X34445Y-16088D01*
X34445Y-15911D01*
X34377Y-15748D01*
X34252Y-15622D01*
X34200Y-15600D01*
X34200Y-15358D01*
X34209Y-15348D01*
X34316Y-15348D01*
X34435Y-15299D01*
X34527Y-15207D01*
X34563Y-15121D01*
X34618Y-15254D01*
X34744Y-15381D01*
X34750Y-15383D01*
X34750Y-15621D01*
X34748Y-15622D01*
X34622Y-15747D01*
X34554Y-15911D01*
X34554Y-16088D01*
X34622Y-16251D01*
X34747Y-16377D01*
X34911Y-16445D01*
X35088Y-16445D01*
X35251Y-16377D01*
X35377Y-16252D01*
X35445Y-16088D01*
X35445Y-15911D01*
X35377Y-15748D01*
X35252Y-15622D01*
X35250Y-15621D01*
X35250Y-15383D01*
X35254Y-15381D01*
X35381Y-15255D01*
X35449Y-15089D01*
X35450Y-14999D01*
X35450Y-16020D01*
X35580Y-16151D01*
X35622Y-16251D01*
X35747Y-16377D01*
X35848Y-16419D01*
X35979Y-16550D01*
X39270Y-16550D01*
X39520Y-16300D01*
X40700Y-16300D01*
X40700Y-18479D01*
X40632Y-18547D01*
X40632Y-17305D01*
X40582Y-17186D01*
X40491Y-17094D01*
X40372Y-17045D01*
X40242Y-17045D01*
X40123Y-17094D01*
X40031Y-17185D01*
X39982Y-17305D01*
X39982Y-17434D01*
X40031Y-17553D01*
X40122Y-17645D01*
X40242Y-17695D01*
X40371Y-17695D01*
X40490Y-17645D01*
X40582Y-17554D01*
X40632Y-17435D01*
X40632Y-17305D01*
X40632Y-18547D01*
X40479Y-18700D01*
X39479Y-18700D01*
X38450Y-19729D01*
X38450Y-20229D01*
X37700Y-20979D01*
X37700Y-22300D01*
X38200Y-22300D01*
X38200Y-25020D01*
X40729Y-27550D01*
X43479Y-27550D01*
X44229Y-28300D01*
X44620Y-28300D01*
X43520Y-27200D01*
X41445Y-27200D01*
X41445Y-24911D01*
X41377Y-24748D01*
X41252Y-24622D01*
X41200Y-24600D01*
X41200Y-24400D01*
X41184Y-24323D01*
X41184Y-24323D01*
X41170Y-24301D01*
X41141Y-24258D01*
X41141Y-24258D01*
X41124Y-24242D01*
X41125Y-24135D01*
X41075Y-24016D01*
X40984Y-23924D01*
X40864Y-23875D01*
X40735Y-23874D01*
X40616Y-23924D01*
X40524Y-24015D01*
X40475Y-24135D01*
X40474Y-24264D01*
X40524Y-24383D01*
X40615Y-24475D01*
X40735Y-24524D01*
X40800Y-24525D01*
X40800Y-24600D01*
X40748Y-24622D01*
X40622Y-24747D01*
X40554Y-24911D01*
X40554Y-25088D01*
X40622Y-25251D01*
X40747Y-25377D01*
X40911Y-25445D01*
X41088Y-25445D01*
X41251Y-25377D01*
X41377Y-25252D01*
X41445Y-25088D01*
X41445Y-24911D01*
X41445Y-27200D01*
X41210Y-27200D01*
X41210Y-25904D01*
X41161Y-25784D01*
X41070Y-25693D01*
X40950Y-25643D01*
X40821Y-25643D01*
X40701Y-25692D01*
X40610Y-25784D01*
X40560Y-25903D01*
X40560Y-26032D01*
X40610Y-26152D01*
X40701Y-26243D01*
X40820Y-26293D01*
X40950Y-26293D01*
X41069Y-26244D01*
X41161Y-26152D01*
X41210Y-26033D01*
X41210Y-25904D01*
X41210Y-27200D01*
X40770Y-27200D01*
X40016Y-26445D01*
X40088Y-26445D01*
X40251Y-26377D01*
X40377Y-26252D01*
X40445Y-26088D01*
X40445Y-25911D01*
X40377Y-25748D01*
X40252Y-25622D01*
X40200Y-25600D01*
X40200Y-25259D01*
X40275Y-25184D01*
X40324Y-25064D01*
X40325Y-24935D01*
X40275Y-24816D01*
X40184Y-24724D01*
X40075Y-24679D01*
X40075Y-20185D01*
X40025Y-20066D01*
X39934Y-19974D01*
X39814Y-19925D01*
X39685Y-19924D01*
X39566Y-19974D01*
X39474Y-20065D01*
X39425Y-20185D01*
X39424Y-20314D01*
X39474Y-20433D01*
X39500Y-20459D01*
X39500Y-21079D01*
X39345Y-21234D01*
X39309Y-21233D01*
X39190Y-21283D01*
X39098Y-21374D01*
X39049Y-21494D01*
X39048Y-21623D01*
X39098Y-21742D01*
X39189Y-21834D01*
X39309Y-21883D01*
X39438Y-21884D01*
X39557Y-21834D01*
X39649Y-21743D01*
X39698Y-21623D01*
X39698Y-21587D01*
X39926Y-21359D01*
X39926Y-21359D01*
X39926Y-21359D01*
X39980Y-21278D01*
X39980Y-21278D01*
X39996Y-21202D01*
X40000Y-21183D01*
X39999Y-21183D01*
X40000Y-21183D01*
X40000Y-20459D01*
X40025Y-20434D01*
X40074Y-20314D01*
X40075Y-20185D01*
X40075Y-24679D01*
X40064Y-24675D01*
X39935Y-24674D01*
X39816Y-24724D01*
X39724Y-24815D01*
X39675Y-24935D01*
X39674Y-25064D01*
X39724Y-25183D01*
X39800Y-25259D01*
X39800Y-25600D01*
X39748Y-25622D01*
X39622Y-25747D01*
X39554Y-25911D01*
X39554Y-25984D01*
X38550Y-24979D01*
X38550Y-24759D01*
X38565Y-24775D01*
X38685Y-24824D01*
X38814Y-24825D01*
X38933Y-24775D01*
X39025Y-24684D01*
X39074Y-24564D01*
X39075Y-24435D01*
X39025Y-24316D01*
X38934Y-24224D01*
X38814Y-24175D01*
X38685Y-24174D01*
X38566Y-24224D01*
X38550Y-24240D01*
X38550Y-21950D01*
X37950Y-21950D01*
X37950Y-21120D01*
X38800Y-20270D01*
X38800Y-19770D01*
X39520Y-19050D01*
X40520Y-19050D01*
X41024Y-18546D01*
X41024Y-20854D01*
X40488Y-21390D01*
X40445Y-21454D01*
X40429Y-21531D01*
X40429Y-21968D01*
X40354Y-22044D01*
X40304Y-22163D01*
X40304Y-22292D01*
X40354Y-22412D01*
X40445Y-22503D01*
X40564Y-22553D01*
X40694Y-22553D01*
X40813Y-22504D01*
X40905Y-22412D01*
X40954Y-22293D01*
X40954Y-22163D01*
X40905Y-22044D01*
X40829Y-21968D01*
X40829Y-21614D01*
X41205Y-21238D01*
X41205Y-21719D01*
X41107Y-21759D01*
X41015Y-21851D01*
X40966Y-21970D01*
X40966Y-22099D01*
X41015Y-22219D01*
X41091Y-22295D01*
X41091Y-22555D01*
X41088Y-22554D01*
X40911Y-22554D01*
X40748Y-22622D01*
X40622Y-22747D01*
X40554Y-22911D01*
X40554Y-23088D01*
X40622Y-23251D01*
X40747Y-23377D01*
X40911Y-23445D01*
X41088Y-23445D01*
X41251Y-23377D01*
X41377Y-23252D01*
X41445Y-23088D01*
X41445Y-22911D01*
X41423Y-22859D01*
X41432Y-22850D01*
X41476Y-22785D01*
X41491Y-22708D01*
X41491Y-22295D01*
X41566Y-22219D01*
X41616Y-22100D01*
X41616Y-21971D01*
X41602Y-21937D01*
X41605Y-21921D01*
X41605Y-21921D01*
X41605Y-18836D01*
X41683Y-18868D01*
X41812Y-18868D01*
X41931Y-18818D01*
X42012Y-18738D01*
X42012Y-22064D01*
X41950Y-22090D01*
X41858Y-22181D01*
X41808Y-22301D01*
X41808Y-22430D01*
X41858Y-22549D01*
X41949Y-22641D01*
X42068Y-22691D01*
X42198Y-22691D01*
X42264Y-22663D01*
X42264Y-22740D01*
X42150Y-22787D01*
X42059Y-22878D01*
X42009Y-22998D01*
X42009Y-23127D01*
X42058Y-23246D01*
X42150Y-23338D01*
X42269Y-23387D01*
X42399Y-23388D01*
X42488Y-23350D01*
X42488Y-24295D01*
X42445Y-24338D01*
X42445Y-23911D01*
X42377Y-23748D01*
X42252Y-23622D01*
X42088Y-23554D01*
X41911Y-23554D01*
X41748Y-23622D01*
X41622Y-23747D01*
X41554Y-23911D01*
X41554Y-24088D01*
X41583Y-24157D01*
X41524Y-24215D01*
X41475Y-24335D01*
X41474Y-24464D01*
X41524Y-24583D01*
X41615Y-24675D01*
X41735Y-24724D01*
X41864Y-24725D01*
X41983Y-24675D01*
X42075Y-24584D01*
X42124Y-24464D01*
X42124Y-24430D01*
X42251Y-24377D01*
X42377Y-24252D01*
X42445Y-24088D01*
X42445Y-23911D01*
X42445Y-24338D01*
X41916Y-24867D01*
X41809Y-24867D01*
X41690Y-24917D01*
X41598Y-25008D01*
X41549Y-25127D01*
X41548Y-25257D01*
X41598Y-25376D01*
X41689Y-25468D01*
X41809Y-25517D01*
X41938Y-25517D01*
X42057Y-25468D01*
X42133Y-25392D01*
X42785Y-25392D01*
X42911Y-25445D01*
X43088Y-25445D01*
X43251Y-25377D01*
X43377Y-25252D01*
X43445Y-25088D01*
X43445Y-24911D01*
X43377Y-24748D01*
X43252Y-24622D01*
X43088Y-24554D01*
X42911Y-24554D01*
X42748Y-24622D01*
X42622Y-24747D01*
X42554Y-24911D01*
X42554Y-24992D01*
X42356Y-24992D01*
X42830Y-24519D01*
X42873Y-24454D01*
X42873Y-24454D01*
X42888Y-24377D01*
X42888Y-23687D01*
X42954Y-23714D01*
X43061Y-23714D01*
X43488Y-24141D01*
X43553Y-24184D01*
X43598Y-24193D01*
X43622Y-24251D01*
X43747Y-24377D01*
X43911Y-24445D01*
X44088Y-24445D01*
X44251Y-24377D01*
X44377Y-24252D01*
X44445Y-24088D01*
X44445Y-23911D01*
X44377Y-23748D01*
X44252Y-23622D01*
X44088Y-23554D01*
X43911Y-23554D01*
X43748Y-23622D01*
X43641Y-23728D01*
X43344Y-23431D01*
X43344Y-23347D01*
X44451Y-22240D01*
X44451Y-22240D01*
X44480Y-22197D01*
X44494Y-22175D01*
X44494Y-22175D01*
X44509Y-22099D01*
X44510Y-22099D01*
X44510Y-20615D01*
X44585Y-20540D01*
X44634Y-20420D01*
X44635Y-20291D01*
X44585Y-20172D01*
X44494Y-20080D01*
X44374Y-20031D01*
X44245Y-20030D01*
X44200Y-20049D01*
X44200Y-19448D01*
X44200Y-19401D01*
X44200Y-19243D01*
X44271Y-19172D01*
X44304Y-19091D01*
X44304Y-19194D01*
X44354Y-19313D01*
X44445Y-19405D01*
X44564Y-19454D01*
X44672Y-19454D01*
X44800Y-19582D01*
X44800Y-19600D01*
X44748Y-19622D01*
X44622Y-19747D01*
X44554Y-19911D01*
X44554Y-20088D01*
X44622Y-20251D01*
X44747Y-20377D01*
X44800Y-20399D01*
X44800Y-21858D01*
X44800Y-22000D01*
X44800Y-22279D01*
X44683Y-22395D01*
X44577Y-22395D01*
X44457Y-22444D01*
X44366Y-22536D01*
X44316Y-22655D01*
X44316Y-22784D01*
X44366Y-22904D01*
X44457Y-22995D01*
X44576Y-23045D01*
X44706Y-23045D01*
X44825Y-22996D01*
X44917Y-22904D01*
X44966Y-22785D01*
X44966Y-22678D01*
X45141Y-22503D01*
X45184Y-22438D01*
X45184Y-22438D01*
X45187Y-22426D01*
X45199Y-22362D01*
X45200Y-22362D01*
X45200Y-22000D01*
X45200Y-21858D01*
X45200Y-20399D01*
X45251Y-20377D01*
X45377Y-20252D01*
X45445Y-20088D01*
X45445Y-19911D01*
X45377Y-19748D01*
X45252Y-19622D01*
X45200Y-19600D01*
X45200Y-19500D01*
X45200Y-18067D01*
X45279Y-18067D01*
X45334Y-18044D01*
X45377Y-18002D01*
X45399Y-17947D01*
X45400Y-17887D01*
X45400Y-17269D01*
X45377Y-17214D01*
X45335Y-17172D01*
X45279Y-17149D01*
X45220Y-17149D01*
X44720Y-17149D01*
X44665Y-17171D01*
X44622Y-17214D01*
X44600Y-17269D01*
X44599Y-17328D01*
X44599Y-17947D01*
X44622Y-18002D01*
X44664Y-18044D01*
X44720Y-18067D01*
X44779Y-18067D01*
X44800Y-18067D01*
X44800Y-18676D01*
X44672Y-18804D01*
X44565Y-18804D01*
X44446Y-18854D01*
X44354Y-18945D01*
X44321Y-19026D01*
X44321Y-18923D01*
X44271Y-18804D01*
X44200Y-18732D01*
X44200Y-18067D01*
X44279Y-18067D01*
X44334Y-18044D01*
X44377Y-18002D01*
X44399Y-17947D01*
X44400Y-17887D01*
X44400Y-17269D01*
X44377Y-17214D01*
X44335Y-17172D01*
X44279Y-17149D01*
X44220Y-17149D01*
X43720Y-17149D01*
X43665Y-17171D01*
X43622Y-17214D01*
X43600Y-17269D01*
X43599Y-17328D01*
X43599Y-17947D01*
X43622Y-18002D01*
X43664Y-18044D01*
X43720Y-18067D01*
X43779Y-18067D01*
X43800Y-18067D01*
X43800Y-18724D01*
X43720Y-18803D01*
X43671Y-18923D01*
X43671Y-19052D01*
X43720Y-19172D01*
X43800Y-19251D01*
X43800Y-19401D01*
X43800Y-19448D01*
X43800Y-20874D01*
X43775Y-20816D01*
X43684Y-20724D01*
X43564Y-20675D01*
X43435Y-20674D01*
X43342Y-20713D01*
X43289Y-20659D01*
X43399Y-20659D01*
X43518Y-20610D01*
X43610Y-20518D01*
X43659Y-20399D01*
X43659Y-20270D01*
X43610Y-20150D01*
X43518Y-20059D01*
X43445Y-20028D01*
X43445Y-19911D01*
X43377Y-19748D01*
X43297Y-19667D01*
X43395Y-19667D01*
X43514Y-19618D01*
X43606Y-19526D01*
X43655Y-19407D01*
X43655Y-19278D01*
X43606Y-19158D01*
X43515Y-19067D01*
X43395Y-19017D01*
X43266Y-19017D01*
X43200Y-19044D01*
X43200Y-18067D01*
X43279Y-18067D01*
X43334Y-18044D01*
X43377Y-18002D01*
X43399Y-17947D01*
X43400Y-17887D01*
X43400Y-17269D01*
X43377Y-17214D01*
X43335Y-17172D01*
X43279Y-17149D01*
X43220Y-17149D01*
X42720Y-17149D01*
X42665Y-17171D01*
X42664Y-17172D01*
X42664Y-16341D01*
X42750Y-16341D01*
X42750Y-15950D01*
X42812Y-15950D01*
X42875Y-15888D01*
X42875Y-15546D01*
X42750Y-15546D01*
X42750Y-15237D01*
X42875Y-15237D01*
X42875Y-14895D01*
X42812Y-14832D01*
X42750Y-14832D01*
X42750Y-14550D01*
X43200Y-14550D01*
X43200Y-14832D01*
X43187Y-14832D01*
X43125Y-14895D01*
X43125Y-15237D01*
X43200Y-15237D01*
X43200Y-15546D01*
X43125Y-15546D01*
X43125Y-15888D01*
X43187Y-15950D01*
X43200Y-15950D01*
X43200Y-16800D01*
X45450Y-16800D01*
X45450Y-34450D01*
X45450Y-34450D01*
G37*
G54D18*
X45450Y-34450D02*
X43738Y-34450D01*
X43738Y-32041D01*
X43689Y-31922D01*
X43635Y-31869D01*
X43635Y-29225D01*
X43661Y-29200D01*
X43710Y-29080D01*
X43710Y-28951D01*
X43661Y-28831D01*
X43570Y-28740D01*
X43450Y-28690D01*
X43321Y-28690D01*
X43201Y-28740D01*
X43110Y-28831D01*
X43060Y-28950D01*
X43060Y-29080D01*
X43110Y-29199D01*
X43135Y-29225D01*
X43135Y-31927D01*
X43088Y-32041D01*
X43088Y-32170D01*
X43137Y-32290D01*
X43229Y-32381D01*
X43348Y-32431D01*
X43477Y-32431D01*
X43597Y-32381D01*
X43688Y-32290D01*
X43738Y-32171D01*
X43738Y-32041D01*
X43738Y-34450D01*
X40475Y-34450D01*
X40475Y-30817D01*
X40475Y-30163D01*
X40475Y-28663D01*
X40425Y-28544D01*
X40334Y-28452D01*
X40214Y-28403D01*
X40085Y-28403D01*
X39966Y-28452D01*
X39874Y-28544D01*
X39825Y-28663D01*
X39824Y-28792D01*
X39874Y-28912D01*
X39965Y-29003D01*
X40085Y-29053D01*
X40214Y-29053D01*
X40333Y-29004D01*
X40425Y-28912D01*
X40474Y-28793D01*
X40475Y-28663D01*
X40475Y-30163D01*
X40425Y-30044D01*
X40334Y-29952D01*
X40214Y-29903D01*
X40085Y-29903D01*
X39966Y-29952D01*
X39874Y-30044D01*
X39825Y-30163D01*
X39824Y-30292D01*
X39874Y-30412D01*
X39965Y-30503D01*
X40085Y-30553D01*
X40214Y-30553D01*
X40333Y-30504D01*
X40425Y-30412D01*
X40474Y-30293D01*
X40475Y-30163D01*
X40475Y-30817D01*
X40425Y-30698D01*
X40334Y-30606D01*
X40214Y-30556D01*
X40085Y-30556D01*
X39966Y-30606D01*
X39874Y-30697D01*
X39825Y-30816D01*
X39824Y-30946D01*
X39874Y-31065D01*
X39965Y-31157D01*
X40085Y-31206D01*
X40214Y-31206D01*
X40333Y-31157D01*
X40425Y-31066D01*
X40474Y-30946D01*
X40475Y-30817D01*
X40475Y-34450D01*
X37785Y-34450D01*
X37785Y-30207D01*
X37736Y-30087D01*
X37644Y-29996D01*
X37525Y-29946D01*
X37466Y-29946D01*
X37466Y-17494D01*
X37417Y-17375D01*
X37326Y-17283D01*
X37206Y-17234D01*
X37077Y-17233D01*
X36957Y-17283D01*
X36866Y-17374D01*
X36816Y-17494D01*
X36816Y-17623D01*
X36866Y-17742D01*
X36957Y-17834D01*
X37076Y-17883D01*
X37206Y-17884D01*
X37325Y-17834D01*
X37417Y-17743D01*
X37466Y-17623D01*
X37466Y-17494D01*
X37466Y-29946D01*
X37396Y-29946D01*
X37276Y-29995D01*
X37185Y-30087D01*
X37135Y-30206D01*
X37135Y-30336D01*
X37184Y-30455D01*
X37276Y-30547D01*
X37395Y-30596D01*
X37524Y-30596D01*
X37644Y-30547D01*
X37735Y-30455D01*
X37785Y-30336D01*
X37785Y-30207D01*
X37785Y-34450D01*
X36325Y-34450D01*
X36325Y-19685D01*
X36275Y-19566D01*
X36184Y-19474D01*
X36064Y-19425D01*
X36010Y-19425D01*
X36010Y-16679D01*
X35960Y-16560D01*
X35869Y-16468D01*
X35749Y-16419D01*
X35620Y-16419D01*
X35501Y-16468D01*
X35409Y-16559D01*
X35360Y-16679D01*
X35359Y-16808D01*
X35409Y-16927D01*
X35500Y-17019D01*
X35620Y-17069D01*
X35749Y-17069D01*
X35868Y-17019D01*
X35960Y-16928D01*
X36009Y-16809D01*
X36010Y-16679D01*
X36010Y-19425D01*
X35935Y-19424D01*
X35816Y-19474D01*
X35724Y-19565D01*
X35675Y-19685D01*
X35674Y-19814D01*
X35724Y-19933D01*
X35815Y-20025D01*
X35935Y-20074D01*
X36064Y-20075D01*
X36183Y-20025D01*
X36275Y-19934D01*
X36324Y-19814D01*
X36325Y-19685D01*
X36325Y-34450D01*
X34325Y-34450D01*
X34325Y-26435D01*
X34275Y-26316D01*
X34184Y-26224D01*
X34064Y-26175D01*
X33935Y-26174D01*
X33816Y-26224D01*
X33724Y-26315D01*
X33675Y-26435D01*
X33674Y-26564D01*
X33724Y-26683D01*
X33815Y-26775D01*
X33935Y-26824D01*
X34064Y-26825D01*
X34183Y-26775D01*
X34275Y-26684D01*
X34324Y-26564D01*
X34325Y-26435D01*
X34325Y-34450D01*
X32077Y-34450D01*
X32077Y-31967D01*
X32027Y-31847D01*
X31936Y-31756D01*
X31816Y-31706D01*
X31687Y-31706D01*
X31568Y-31755D01*
X31476Y-31847D01*
X31427Y-31966D01*
X31426Y-32095D01*
X31476Y-32215D01*
X31567Y-32306D01*
X31687Y-32356D01*
X31816Y-32356D01*
X31935Y-32307D01*
X32027Y-32215D01*
X32076Y-32096D01*
X32077Y-31967D01*
X32077Y-34450D01*
X27897Y-34450D01*
X27897Y-33322D01*
X27897Y-12822D01*
X27761Y-12492D01*
X27509Y-12239D01*
X27179Y-12102D01*
X26822Y-12102D01*
X26492Y-12238D01*
X26239Y-12490D01*
X26102Y-12820D01*
X26102Y-13177D01*
X26238Y-13507D01*
X26490Y-13760D01*
X26820Y-13897D01*
X27177Y-13897D01*
X27507Y-13761D01*
X27760Y-13509D01*
X27897Y-13179D01*
X27897Y-12822D01*
X27897Y-33322D01*
X27761Y-32992D01*
X27509Y-32739D01*
X27445Y-32713D01*
X27445Y-30911D01*
X27445Y-29911D01*
X27445Y-28911D01*
X27445Y-27911D01*
X27445Y-26911D01*
X27445Y-25911D01*
X27445Y-24911D01*
X27445Y-23911D01*
X27445Y-22911D01*
X27445Y-21911D01*
X27445Y-20911D01*
X27445Y-19911D01*
X27445Y-18911D01*
X27445Y-17911D01*
X27445Y-16911D01*
X27445Y-15911D01*
X27445Y-14911D01*
X27377Y-14748D01*
X27252Y-14622D01*
X27088Y-14554D01*
X26911Y-14554D01*
X26748Y-14622D01*
X26622Y-14747D01*
X26600Y-14800D01*
X25404Y-14800D01*
X25381Y-14745D01*
X25255Y-14618D01*
X25089Y-14550D01*
X24910Y-14549D01*
X24745Y-14618D01*
X24618Y-14744D01*
X24550Y-14910D01*
X24549Y-15089D01*
X24618Y-15254D01*
X24744Y-15381D01*
X24910Y-15449D01*
X25089Y-15450D01*
X25254Y-15381D01*
X25381Y-15255D01*
X25404Y-15200D01*
X26600Y-15200D01*
X26622Y-15251D01*
X26747Y-15377D01*
X26911Y-15445D01*
X27088Y-15445D01*
X27251Y-15377D01*
X27377Y-15252D01*
X27445Y-15088D01*
X27445Y-14911D01*
X27445Y-15911D01*
X27377Y-15748D01*
X27252Y-15622D01*
X27088Y-15554D01*
X26911Y-15554D01*
X26748Y-15622D01*
X26622Y-15747D01*
X26600Y-15800D01*
X25404Y-15800D01*
X25381Y-15745D01*
X25255Y-15618D01*
X25089Y-15550D01*
X24910Y-15549D01*
X24745Y-15618D01*
X24618Y-15744D01*
X24550Y-15910D01*
X24549Y-16089D01*
X24618Y-16254D01*
X24744Y-16381D01*
X24910Y-16449D01*
X25089Y-16450D01*
X25254Y-16381D01*
X25381Y-16255D01*
X25404Y-16200D01*
X26600Y-16200D01*
X26622Y-16251D01*
X26747Y-16377D01*
X26911Y-16445D01*
X27088Y-16445D01*
X27251Y-16377D01*
X27377Y-16252D01*
X27445Y-16088D01*
X27445Y-15911D01*
X27445Y-16911D01*
X27377Y-16748D01*
X27252Y-16622D01*
X27088Y-16554D01*
X26911Y-16554D01*
X26748Y-16622D01*
X26622Y-16747D01*
X26600Y-16800D01*
X25404Y-16800D01*
X25381Y-16745D01*
X25255Y-16618D01*
X25089Y-16550D01*
X24910Y-16549D01*
X24745Y-16618D01*
X24618Y-16744D01*
X24550Y-16910D01*
X24549Y-17089D01*
X24618Y-17254D01*
X24744Y-17381D01*
X24910Y-17449D01*
X25089Y-17450D01*
X25254Y-17381D01*
X25381Y-17255D01*
X25404Y-17200D01*
X26600Y-17200D01*
X26622Y-17251D01*
X26747Y-17377D01*
X26911Y-17445D01*
X27088Y-17445D01*
X27251Y-17377D01*
X27377Y-17252D01*
X27445Y-17088D01*
X27445Y-16911D01*
X27445Y-17911D01*
X27377Y-17748D01*
X27252Y-17622D01*
X27088Y-17554D01*
X26911Y-17554D01*
X26748Y-17622D01*
X26622Y-17747D01*
X26600Y-17800D01*
X25404Y-17800D01*
X25381Y-17745D01*
X25255Y-17618D01*
X25089Y-17550D01*
X24910Y-17549D01*
X24745Y-17618D01*
X24618Y-17744D01*
X24550Y-17910D01*
X24549Y-18089D01*
X24618Y-18254D01*
X24744Y-18381D01*
X24910Y-18449D01*
X25089Y-18450D01*
X25254Y-18381D01*
X25381Y-18255D01*
X25404Y-18200D01*
X26600Y-18200D01*
X26622Y-18251D01*
X26747Y-18377D01*
X26911Y-18445D01*
X27088Y-18445D01*
X27251Y-18377D01*
X27377Y-18252D01*
X27445Y-18088D01*
X27445Y-17911D01*
X27445Y-18911D01*
X27377Y-18748D01*
X27252Y-18622D01*
X27088Y-18554D01*
X26911Y-18554D01*
X26748Y-18622D01*
X26622Y-18747D01*
X26600Y-18800D01*
X25404Y-18800D01*
X25381Y-18745D01*
X25255Y-18618D01*
X25089Y-18550D01*
X24910Y-18549D01*
X24745Y-18618D01*
X24618Y-18744D01*
X24550Y-18910D01*
X24549Y-19089D01*
X24618Y-19254D01*
X24744Y-19381D01*
X24910Y-19449D01*
X25089Y-19450D01*
X25254Y-19381D01*
X25381Y-19255D01*
X25404Y-19200D01*
X26600Y-19200D01*
X26622Y-19251D01*
X26747Y-19377D01*
X26911Y-19445D01*
X27088Y-19445D01*
X27251Y-19377D01*
X27377Y-19252D01*
X27445Y-19088D01*
X27445Y-18911D01*
X27445Y-19911D01*
X27377Y-19748D01*
X27252Y-19622D01*
X27088Y-19554D01*
X26911Y-19554D01*
X26748Y-19622D01*
X26622Y-19747D01*
X26600Y-19800D01*
X25404Y-19800D01*
X25381Y-19745D01*
X25255Y-19618D01*
X25089Y-19550D01*
X24910Y-19549D01*
X24745Y-19618D01*
X24618Y-19744D01*
X24550Y-19910D01*
X24549Y-20089D01*
X24618Y-20254D01*
X24744Y-20381D01*
X24910Y-20449D01*
X25089Y-20450D01*
X25254Y-20381D01*
X25381Y-20255D01*
X25404Y-20200D01*
X26600Y-20200D01*
X26622Y-20251D01*
X26747Y-20377D01*
X26911Y-20445D01*
X27088Y-20445D01*
X27251Y-20377D01*
X27377Y-20252D01*
X27445Y-20088D01*
X27445Y-19911D01*
X27445Y-20911D01*
X27377Y-20748D01*
X27252Y-20622D01*
X27088Y-20554D01*
X26911Y-20554D01*
X26748Y-20622D01*
X26622Y-20747D01*
X26600Y-20800D01*
X25404Y-20800D01*
X25381Y-20745D01*
X25255Y-20618D01*
X25089Y-20550D01*
X24910Y-20549D01*
X24745Y-20618D01*
X24618Y-20744D01*
X24550Y-20910D01*
X24549Y-21089D01*
X24618Y-21254D01*
X24744Y-21381D01*
X24910Y-21449D01*
X25089Y-21450D01*
X25254Y-21381D01*
X25381Y-21255D01*
X25404Y-21200D01*
X26600Y-21200D01*
X26622Y-21251D01*
X26747Y-21377D01*
X26911Y-21445D01*
X27088Y-21445D01*
X27251Y-21377D01*
X27377Y-21252D01*
X27445Y-21088D01*
X27445Y-20911D01*
X27445Y-21911D01*
X27377Y-21748D01*
X27252Y-21622D01*
X27088Y-21554D01*
X26911Y-21554D01*
X26748Y-21622D01*
X26622Y-21747D01*
X26600Y-21800D01*
X25404Y-21800D01*
X25381Y-21745D01*
X25255Y-21618D01*
X25089Y-21550D01*
X24910Y-21549D01*
X24745Y-21618D01*
X24618Y-21744D01*
X24550Y-21910D01*
X24549Y-22089D01*
X24618Y-22254D01*
X24744Y-22381D01*
X24910Y-22449D01*
X25089Y-22450D01*
X25254Y-22381D01*
X25381Y-22255D01*
X25404Y-22200D01*
X26600Y-22200D01*
X26622Y-22251D01*
X26747Y-22377D01*
X26911Y-22445D01*
X27088Y-22445D01*
X27251Y-22377D01*
X27377Y-22252D01*
X27445Y-22088D01*
X27445Y-21911D01*
X27445Y-22911D01*
X27377Y-22748D01*
X27252Y-22622D01*
X27088Y-22554D01*
X26911Y-22554D01*
X26748Y-22622D01*
X26622Y-22747D01*
X26600Y-22800D01*
X25404Y-22800D01*
X25381Y-22745D01*
X25255Y-22618D01*
X25089Y-22550D01*
X24910Y-22549D01*
X24745Y-22618D01*
X24618Y-22744D01*
X24550Y-22910D01*
X24549Y-23089D01*
X24618Y-23254D01*
X24744Y-23381D01*
X24910Y-23449D01*
X25089Y-23450D01*
X25254Y-23381D01*
X25381Y-23255D01*
X25404Y-23200D01*
X26600Y-23200D01*
X26622Y-23251D01*
X26747Y-23377D01*
X26911Y-23445D01*
X27088Y-23445D01*
X27251Y-23377D01*
X27377Y-23252D01*
X27445Y-23088D01*
X27445Y-22911D01*
X27445Y-23911D01*
X27377Y-23748D01*
X27252Y-23622D01*
X27088Y-23554D01*
X26911Y-23554D01*
X26748Y-23622D01*
X26622Y-23747D01*
X26600Y-23800D01*
X25404Y-23800D01*
X25381Y-23745D01*
X25255Y-23618D01*
X25089Y-23550D01*
X24910Y-23549D01*
X24745Y-23618D01*
X24618Y-23744D01*
X24550Y-23910D01*
X24549Y-24089D01*
X24618Y-24254D01*
X24744Y-24381D01*
X24910Y-24449D01*
X25089Y-24450D01*
X25254Y-24381D01*
X25381Y-24255D01*
X25404Y-24200D01*
X26600Y-24200D01*
X26622Y-24251D01*
X26747Y-24377D01*
X26911Y-24445D01*
X27088Y-24445D01*
X27251Y-24377D01*
X27377Y-24252D01*
X27445Y-24088D01*
X27445Y-23911D01*
X27445Y-24911D01*
X27377Y-24748D01*
X27252Y-24622D01*
X27088Y-24554D01*
X26911Y-24554D01*
X26748Y-24622D01*
X26622Y-24747D01*
X26600Y-24800D01*
X25404Y-24800D01*
X25381Y-24745D01*
X25255Y-24618D01*
X25089Y-24550D01*
X24910Y-24549D01*
X24745Y-24618D01*
X24618Y-24744D01*
X24550Y-24910D01*
X24549Y-25089D01*
X24618Y-25254D01*
X24744Y-25381D01*
X24910Y-25449D01*
X25089Y-25450D01*
X25254Y-25381D01*
X25381Y-25255D01*
X25404Y-25200D01*
X26600Y-25200D01*
X26622Y-25251D01*
X26747Y-25377D01*
X26911Y-25445D01*
X27088Y-25445D01*
X27251Y-25377D01*
X27377Y-25252D01*
X27445Y-25088D01*
X27445Y-24911D01*
X27445Y-25911D01*
X27377Y-25748D01*
X27252Y-25622D01*
X27088Y-25554D01*
X26911Y-25554D01*
X26748Y-25622D01*
X26622Y-25747D01*
X26600Y-25800D01*
X25404Y-25800D01*
X25381Y-25745D01*
X25255Y-25618D01*
X25089Y-25550D01*
X24910Y-25549D01*
X24745Y-25618D01*
X24618Y-25744D01*
X24550Y-25910D01*
X24549Y-26089D01*
X24618Y-26254D01*
X24744Y-26381D01*
X24910Y-26449D01*
X25089Y-26450D01*
X25254Y-26381D01*
X25381Y-26255D01*
X25404Y-26200D01*
X26600Y-26200D01*
X26622Y-26251D01*
X26747Y-26377D01*
X26911Y-26445D01*
X27088Y-26445D01*
X27251Y-26377D01*
X27377Y-26252D01*
X27445Y-26088D01*
X27445Y-25911D01*
X27445Y-26911D01*
X27377Y-26748D01*
X27252Y-26622D01*
X27088Y-26554D01*
X26911Y-26554D01*
X26748Y-26622D01*
X26622Y-26747D01*
X26600Y-26800D01*
X25404Y-26800D01*
X25381Y-26745D01*
X25255Y-26618D01*
X25089Y-26550D01*
X24910Y-26549D01*
X24745Y-26618D01*
X24618Y-26744D01*
X24550Y-26910D01*
X24549Y-27089D01*
X24618Y-27254D01*
X24744Y-27381D01*
X24910Y-27449D01*
X25089Y-27450D01*
X25254Y-27381D01*
X25381Y-27255D01*
X25404Y-27200D01*
X26600Y-27200D01*
X26622Y-27251D01*
X26747Y-27377D01*
X26911Y-27445D01*
X27088Y-27445D01*
X27251Y-27377D01*
X27377Y-27252D01*
X27445Y-27088D01*
X27445Y-26911D01*
X27445Y-27911D01*
X27377Y-27748D01*
X27252Y-27622D01*
X27088Y-27554D01*
X26911Y-27554D01*
X26748Y-27622D01*
X26622Y-27747D01*
X26600Y-27800D01*
X25404Y-27800D01*
X25381Y-27745D01*
X25255Y-27618D01*
X25089Y-27550D01*
X24910Y-27549D01*
X24745Y-27618D01*
X24618Y-27744D01*
X24550Y-27910D01*
X24549Y-28089D01*
X24618Y-28254D01*
X24744Y-28381D01*
X24910Y-28449D01*
X25089Y-28450D01*
X25254Y-28381D01*
X25381Y-28255D01*
X25404Y-28200D01*
X26600Y-28200D01*
X26622Y-28251D01*
X26747Y-28377D01*
X26911Y-28445D01*
X27088Y-28445D01*
X27251Y-28377D01*
X27377Y-28252D01*
X27445Y-28088D01*
X27445Y-27911D01*
X27445Y-28911D01*
X27377Y-28748D01*
X27252Y-28622D01*
X27088Y-28554D01*
X26911Y-28554D01*
X26748Y-28622D01*
X26622Y-28747D01*
X26600Y-28800D01*
X25404Y-28800D01*
X25381Y-28745D01*
X25255Y-28618D01*
X25089Y-28550D01*
X24910Y-28549D01*
X24745Y-28618D01*
X24618Y-28744D01*
X24550Y-28910D01*
X24549Y-29089D01*
X24618Y-29254D01*
X24744Y-29381D01*
X24910Y-29449D01*
X25089Y-29450D01*
X25254Y-29381D01*
X25381Y-29255D01*
X25404Y-29200D01*
X26600Y-29200D01*
X26622Y-29251D01*
X26747Y-29377D01*
X26911Y-29445D01*
X27088Y-29445D01*
X27251Y-29377D01*
X27377Y-29252D01*
X27445Y-29088D01*
X27445Y-28911D01*
X27445Y-29911D01*
X27377Y-29748D01*
X27252Y-29622D01*
X27088Y-29554D01*
X26911Y-29554D01*
X26748Y-29622D01*
X26622Y-29747D01*
X26600Y-29800D01*
X25404Y-29800D01*
X25381Y-29745D01*
X25255Y-29618D01*
X25089Y-29550D01*
X24910Y-29549D01*
X24745Y-29618D01*
X24618Y-29744D01*
X24550Y-29910D01*
X24549Y-30089D01*
X24618Y-30254D01*
X24744Y-30381D01*
X24910Y-30449D01*
X25089Y-30450D01*
X25254Y-30381D01*
X25381Y-30255D01*
X25404Y-30200D01*
X26600Y-30200D01*
X26622Y-30251D01*
X26747Y-30377D01*
X26911Y-30445D01*
X27088Y-30445D01*
X27251Y-30377D01*
X27377Y-30252D01*
X27445Y-30088D01*
X27445Y-29911D01*
X27445Y-30911D01*
X27377Y-30748D01*
X27252Y-30622D01*
X27088Y-30554D01*
X26911Y-30554D01*
X26748Y-30622D01*
X26622Y-30747D01*
X26600Y-30800D01*
X25404Y-30800D01*
X25381Y-30745D01*
X25255Y-30618D01*
X25089Y-30550D01*
X24910Y-30549D01*
X24745Y-30618D01*
X24618Y-30744D01*
X24550Y-30910D01*
X24549Y-31089D01*
X24618Y-31254D01*
X24744Y-31381D01*
X24910Y-31449D01*
X25089Y-31450D01*
X25254Y-31381D01*
X25381Y-31255D01*
X25404Y-31200D01*
X26600Y-31200D01*
X26622Y-31251D01*
X26747Y-31377D01*
X26911Y-31445D01*
X27088Y-31445D01*
X27251Y-31377D01*
X27377Y-31252D01*
X27445Y-31088D01*
X27445Y-30911D01*
X27445Y-32713D01*
X27179Y-32602D01*
X26822Y-32602D01*
X26492Y-32738D01*
X26239Y-32990D01*
X26102Y-33320D01*
X26102Y-33677D01*
X26238Y-34007D01*
X26490Y-34260D01*
X26820Y-34397D01*
X27177Y-34397D01*
X27507Y-34261D01*
X27760Y-34009D01*
X27897Y-33679D01*
X27897Y-33322D01*
X27897Y-34450D01*
X25550Y-34450D01*
X25550Y-32349D01*
X25550Y-31650D01*
X25512Y-31558D01*
X25441Y-31488D01*
X25349Y-31450D01*
X25250Y-31449D01*
X25212Y-31450D01*
X25150Y-31512D01*
X25150Y-31850D01*
X25487Y-31850D01*
X25550Y-31787D01*
X25550Y-31650D01*
X25550Y-32349D01*
X25550Y-32212D01*
X25487Y-32150D01*
X25150Y-32150D01*
X25150Y-32487D01*
X25212Y-32550D01*
X25250Y-32550D01*
X25349Y-32549D01*
X25441Y-32511D01*
X25512Y-32441D01*
X25550Y-32349D01*
X25550Y-34450D01*
X24850Y-34450D01*
X24850Y-32487D01*
X24850Y-32150D01*
X24850Y-31850D01*
X24850Y-31512D01*
X24787Y-31450D01*
X24749Y-31449D01*
X24650Y-31450D01*
X24558Y-31488D01*
X24487Y-31558D01*
X24449Y-31650D01*
X24450Y-31787D01*
X24512Y-31850D01*
X24850Y-31850D01*
X24850Y-32150D01*
X24512Y-32150D01*
X24450Y-32212D01*
X24449Y-32349D01*
X24487Y-32441D01*
X24558Y-32511D01*
X24650Y-32549D01*
X24749Y-32550D01*
X24787Y-32550D01*
X24850Y-32487D01*
X24850Y-34450D01*
X23800Y-34450D01*
X23800Y-12050D01*
X45450Y-12050D01*
X45450Y-14441D01*
X45250Y-14441D01*
X45250Y-14832D01*
X45187Y-14832D01*
X45125Y-14895D01*
X45125Y-15237D01*
X45250Y-15237D01*
X45250Y-15546D01*
X45125Y-15546D01*
X45125Y-15888D01*
X45187Y-15950D01*
X45250Y-15950D01*
X45250Y-16341D01*
X45450Y-16341D01*
X45450Y-16450D01*
X44875Y-16450D01*
X44875Y-15888D01*
X44875Y-15546D01*
X44875Y-15237D01*
X44875Y-14895D01*
X44812Y-14832D01*
X44700Y-14832D01*
X44608Y-14870D01*
X44538Y-14940D01*
X44500Y-15032D01*
X44499Y-15132D01*
X44500Y-15174D01*
X44562Y-15237D01*
X44875Y-15237D01*
X44875Y-15546D01*
X44562Y-15546D01*
X44500Y-15608D01*
X44499Y-15651D01*
X44500Y-15750D01*
X44538Y-15842D01*
X44608Y-15912D01*
X44700Y-15950D01*
X44812Y-15950D01*
X44875Y-15888D01*
X44875Y-16450D01*
X44400Y-16450D01*
X44400Y-15671D01*
X44400Y-15052D01*
X44377Y-14997D01*
X44335Y-14955D01*
X44279Y-14932D01*
X44220Y-14932D01*
X44200Y-14932D01*
X44200Y-14759D01*
X44275Y-14684D01*
X44324Y-14564D01*
X44325Y-14435D01*
X44275Y-14316D01*
X44184Y-14224D01*
X44064Y-14175D01*
X43935Y-14174D01*
X43816Y-14224D01*
X43724Y-14315D01*
X43675Y-14435D01*
X43674Y-14564D01*
X43724Y-14683D01*
X43800Y-14759D01*
X43800Y-14932D01*
X43720Y-14932D01*
X43665Y-14955D01*
X43622Y-14997D01*
X43600Y-15052D01*
X43599Y-15112D01*
X43599Y-15730D01*
X43622Y-15785D01*
X43664Y-15827D01*
X43720Y-15850D01*
X43779Y-15850D01*
X44279Y-15850D01*
X44334Y-15828D01*
X44377Y-15785D01*
X44399Y-15730D01*
X44400Y-15671D01*
X44400Y-16450D01*
X43550Y-16450D01*
X43550Y-14200D01*
X35825Y-14200D01*
X35825Y-12935D01*
X35775Y-12816D01*
X35684Y-12724D01*
X35564Y-12675D01*
X35435Y-12674D01*
X35316Y-12724D01*
X35224Y-12815D01*
X35175Y-12935D01*
X35174Y-13064D01*
X35224Y-13183D01*
X35315Y-13275D01*
X35435Y-13324D01*
X35564Y-13325D01*
X35683Y-13275D01*
X35775Y-13184D01*
X35824Y-13064D01*
X35825Y-12935D01*
X35825Y-14200D01*
X35450Y-14200D01*
X35450Y-14910D01*
X35381Y-14745D01*
X35255Y-14618D01*
X35089Y-14550D01*
X34910Y-14549D01*
X34745Y-14618D01*
X34618Y-14744D01*
X34553Y-14902D01*
X34527Y-14839D01*
X34436Y-14748D01*
X34316Y-14698D01*
X34187Y-14698D01*
X34068Y-14747D01*
X33976Y-14839D01*
X33927Y-14958D01*
X33926Y-15065D01*
X33858Y-15134D01*
X33815Y-15199D01*
X33800Y-15275D01*
X33800Y-15600D01*
X33748Y-15622D01*
X33622Y-15747D01*
X33554Y-15911D01*
X33554Y-16088D01*
X33622Y-16251D01*
X33747Y-16377D01*
X33911Y-16445D01*
X34088Y-16445D01*
X34251Y-16377D01*
X34377Y-16252D01*
X34445Y-16088D01*
X34445Y-15911D01*
X34377Y-15748D01*
X34252Y-15622D01*
X34200Y-15600D01*
X34200Y-15358D01*
X34209Y-15348D01*
X34316Y-15348D01*
X34435Y-15299D01*
X34527Y-15207D01*
X34563Y-15121D01*
X34618Y-15254D01*
X34744Y-15381D01*
X34750Y-15383D01*
X34750Y-15621D01*
X34748Y-15622D01*
X34622Y-15747D01*
X34554Y-15911D01*
X34554Y-16088D01*
X34622Y-16251D01*
X34747Y-16377D01*
X34911Y-16445D01*
X35088Y-16445D01*
X35251Y-16377D01*
X35377Y-16252D01*
X35445Y-16088D01*
X35445Y-15911D01*
X35377Y-15748D01*
X35252Y-15622D01*
X35250Y-15621D01*
X35250Y-15383D01*
X35254Y-15381D01*
X35381Y-15255D01*
X35449Y-15089D01*
X35450Y-14999D01*
X35450Y-16020D01*
X35580Y-16151D01*
X35622Y-16251D01*
X35747Y-16377D01*
X35848Y-16419D01*
X35979Y-16550D01*
X39270Y-16550D01*
X39520Y-16300D01*
X40700Y-16300D01*
X40700Y-18479D01*
X40632Y-18547D01*
X40632Y-17305D01*
X40582Y-17186D01*
X40491Y-17094D01*
X40372Y-17045D01*
X40242Y-17045D01*
X40123Y-17094D01*
X40031Y-17185D01*
X39982Y-17305D01*
X39982Y-17434D01*
X40031Y-17553D01*
X40122Y-17645D01*
X40242Y-17695D01*
X40371Y-17695D01*
X40490Y-17645D01*
X40582Y-17554D01*
X40632Y-17435D01*
X40632Y-17305D01*
X40632Y-18547D01*
X40479Y-18700D01*
X39479Y-18700D01*
X38450Y-19729D01*
X38450Y-20229D01*
X37700Y-20979D01*
X37700Y-22300D01*
X38200Y-22300D01*
X38200Y-25020D01*
X40729Y-27550D01*
X43479Y-27550D01*
X44229Y-28300D01*
X44620Y-28300D01*
X43520Y-27200D01*
X41445Y-27200D01*
X41445Y-24911D01*
X41377Y-24748D01*
X41252Y-24622D01*
X41200Y-24600D01*
X41200Y-24400D01*
X41184Y-24323D01*
X41184Y-24323D01*
X41170Y-24301D01*
X41141Y-24258D01*
X41141Y-24258D01*
X41124Y-24242D01*
X41125Y-24135D01*
X41075Y-24016D01*
X40984Y-23924D01*
X40864Y-23875D01*
X40735Y-23874D01*
X40616Y-23924D01*
X40524Y-24015D01*
X40475Y-24135D01*
X40474Y-24264D01*
X40524Y-24383D01*
X40615Y-24475D01*
X40735Y-24524D01*
X40800Y-24525D01*
X40800Y-24600D01*
X40748Y-24622D01*
X40622Y-24747D01*
X40554Y-24911D01*
X40554Y-25088D01*
X40622Y-25251D01*
X40747Y-25377D01*
X40911Y-25445D01*
X41088Y-25445D01*
X41251Y-25377D01*
X41377Y-25252D01*
X41445Y-25088D01*
X41445Y-24911D01*
X41445Y-27200D01*
X41210Y-27200D01*
X41210Y-25904D01*
X41161Y-25784D01*
X41070Y-25693D01*
X40950Y-25643D01*
X40821Y-25643D01*
X40701Y-25692D01*
X40610Y-25784D01*
X40560Y-25903D01*
X40560Y-26032D01*
X40610Y-26152D01*
X40701Y-26243D01*
X40820Y-26293D01*
X40950Y-26293D01*
X41069Y-26244D01*
X41161Y-26152D01*
X41210Y-26033D01*
X41210Y-25904D01*
X41210Y-27200D01*
X40770Y-27200D01*
X40016Y-26445D01*
X40088Y-26445D01*
X40251Y-26377D01*
X40377Y-26252D01*
X40445Y-26088D01*
X40445Y-25911D01*
X40377Y-25748D01*
X40252Y-25622D01*
X40200Y-25600D01*
X40200Y-25259D01*
X40275Y-25184D01*
X40324Y-25064D01*
X40325Y-24935D01*
X40275Y-24816D01*
X40184Y-24724D01*
X40075Y-24679D01*
X40075Y-20185D01*
X40025Y-20066D01*
X39934Y-19974D01*
X39814Y-19925D01*
X39685Y-19924D01*
X39566Y-19974D01*
X39474Y-20065D01*
X39425Y-20185D01*
X39424Y-20314D01*
X39474Y-20433D01*
X39500Y-20459D01*
X39500Y-21079D01*
X39345Y-21234D01*
X39309Y-21233D01*
X39190Y-21283D01*
X39098Y-21374D01*
X39049Y-21494D01*
X39048Y-21623D01*
X39098Y-21742D01*
X39189Y-21834D01*
X39309Y-21883D01*
X39438Y-21884D01*
X39557Y-21834D01*
X39649Y-21743D01*
X39698Y-21623D01*
X39698Y-21587D01*
X39926Y-21359D01*
X39926Y-21359D01*
X39926Y-21359D01*
X39980Y-21278D01*
X39980Y-21278D01*
X39996Y-21202D01*
X40000Y-21183D01*
X39999Y-21183D01*
X40000Y-21183D01*
X40000Y-20459D01*
X40025Y-20434D01*
X40074Y-20314D01*
X40075Y-20185D01*
X40075Y-24679D01*
X40064Y-24675D01*
X39935Y-24674D01*
X39816Y-24724D01*
X39724Y-24815D01*
X39675Y-24935D01*
X39674Y-25064D01*
X39724Y-25183D01*
X39800Y-25259D01*
X39800Y-25600D01*
X39748Y-25622D01*
X39622Y-25747D01*
X39554Y-25911D01*
X39554Y-25984D01*
X38550Y-24979D01*
X38550Y-24759D01*
X38565Y-24775D01*
X38685Y-24824D01*
X38814Y-24825D01*
X38933Y-24775D01*
X39025Y-24684D01*
X39074Y-24564D01*
X39075Y-24435D01*
X39025Y-24316D01*
X38934Y-24224D01*
X38814Y-24175D01*
X38685Y-24174D01*
X38566Y-24224D01*
X38550Y-24240D01*
X38550Y-21950D01*
X37950Y-21950D01*
X37950Y-21120D01*
X38800Y-20270D01*
X38800Y-19770D01*
X39520Y-19050D01*
X40520Y-19050D01*
X41024Y-18546D01*
X41024Y-20854D01*
X40488Y-21390D01*
X40445Y-21454D01*
X40429Y-21531D01*
X40429Y-21968D01*
X40354Y-22044D01*
X40304Y-22163D01*
X40304Y-22292D01*
X40354Y-22412D01*
X40445Y-22503D01*
X40564Y-22553D01*
X40694Y-22553D01*
X40813Y-22504D01*
X40905Y-22412D01*
X40954Y-22293D01*
X40954Y-22163D01*
X40905Y-22044D01*
X40829Y-21968D01*
X40829Y-21614D01*
X41205Y-21238D01*
X41205Y-21719D01*
X41107Y-21759D01*
X41015Y-21851D01*
X40966Y-21970D01*
X40966Y-22099D01*
X41015Y-22219D01*
X41091Y-22295D01*
X41091Y-22555D01*
X41088Y-22554D01*
X40911Y-22554D01*
X40748Y-22622D01*
X40622Y-22747D01*
X40554Y-22911D01*
X40554Y-23088D01*
X40622Y-23251D01*
X40747Y-23377D01*
X40911Y-23445D01*
X41088Y-23445D01*
X41251Y-23377D01*
X41377Y-23252D01*
X41445Y-23088D01*
X41445Y-22911D01*
X41423Y-22859D01*
X41432Y-22850D01*
X41476Y-22785D01*
X41491Y-22708D01*
X41491Y-22295D01*
X41566Y-22219D01*
X41616Y-22100D01*
X41616Y-21971D01*
X41602Y-21937D01*
X41605Y-21921D01*
X41605Y-21921D01*
X41605Y-18836D01*
X41683Y-18868D01*
X41812Y-18868D01*
X41931Y-18818D01*
X42012Y-18738D01*
X42012Y-22064D01*
X41950Y-22090D01*
X41858Y-22181D01*
X41808Y-22301D01*
X41808Y-22430D01*
X41858Y-22549D01*
X41949Y-22641D01*
X42068Y-22691D01*
X42198Y-22691D01*
X42264Y-22663D01*
X42264Y-22740D01*
X42150Y-22787D01*
X42059Y-22878D01*
X42009Y-22998D01*
X42009Y-23127D01*
X42058Y-23246D01*
X42150Y-23338D01*
X42269Y-23387D01*
X42399Y-23388D01*
X42488Y-23350D01*
X42488Y-24295D01*
X42445Y-24338D01*
X42445Y-23911D01*
X42377Y-23748D01*
X42252Y-23622D01*
X42088Y-23554D01*
X41911Y-23554D01*
X41748Y-23622D01*
X41622Y-23747D01*
X41554Y-23911D01*
X41554Y-24088D01*
X41583Y-24157D01*
X41524Y-24215D01*
X41475Y-24335D01*
X41474Y-24464D01*
X41524Y-24583D01*
X41615Y-24675D01*
X41735Y-24724D01*
X41864Y-24725D01*
X41983Y-24675D01*
X42075Y-24584D01*
X42124Y-24464D01*
X42124Y-24430D01*
X42251Y-24377D01*
X42377Y-24252D01*
X42445Y-24088D01*
X42445Y-23911D01*
X42445Y-24338D01*
X41916Y-24867D01*
X41809Y-24867D01*
X41690Y-24917D01*
X41598Y-25008D01*
X41549Y-25127D01*
X41548Y-25257D01*
X41598Y-25376D01*
X41689Y-25468D01*
X41809Y-25517D01*
X41938Y-25517D01*
X42057Y-25468D01*
X42133Y-25392D01*
X42785Y-25392D01*
X42911Y-25445D01*
X43088Y-25445D01*
X43251Y-25377D01*
X43377Y-25252D01*
X43445Y-25088D01*
X43445Y-24911D01*
X43377Y-24748D01*
X43252Y-24622D01*
X43088Y-24554D01*
X42911Y-24554D01*
X42748Y-24622D01*
X42622Y-24747D01*
X42554Y-24911D01*
X42554Y-24992D01*
X42356Y-24992D01*
X42830Y-24519D01*
X42873Y-24454D01*
X42873Y-24454D01*
X42888Y-24377D01*
X42888Y-23687D01*
X42954Y-23714D01*
X43061Y-23714D01*
X43488Y-24141D01*
X43553Y-24184D01*
X43598Y-24193D01*
X43622Y-24251D01*
X43747Y-24377D01*
X43911Y-24445D01*
X44088Y-24445D01*
X44251Y-24377D01*
X44377Y-24252D01*
X44445Y-24088D01*
X44445Y-23911D01*
X44377Y-23748D01*
X44252Y-23622D01*
X44088Y-23554D01*
X43911Y-23554D01*
X43748Y-23622D01*
X43641Y-23728D01*
X43344Y-23431D01*
X43344Y-23347D01*
X44451Y-22240D01*
X44451Y-22240D01*
X44480Y-22197D01*
X44494Y-22175D01*
X44494Y-22175D01*
X44509Y-22099D01*
X44510Y-22099D01*
X44510Y-20615D01*
X44585Y-20540D01*
X44634Y-20420D01*
X44635Y-20291D01*
X44585Y-20172D01*
X44494Y-20080D01*
X44374Y-20031D01*
X44245Y-20030D01*
X44200Y-20049D01*
X44200Y-19448D01*
X44200Y-19401D01*
X44200Y-19243D01*
X44271Y-19172D01*
X44304Y-19091D01*
X44304Y-19194D01*
X44354Y-19313D01*
X44445Y-19405D01*
X44564Y-19454D01*
X44672Y-19454D01*
X44800Y-19582D01*
X44800Y-19600D01*
X44748Y-19622D01*
X44622Y-19747D01*
X44554Y-19911D01*
X44554Y-20088D01*
X44622Y-20251D01*
X44747Y-20377D01*
X44800Y-20399D01*
X44800Y-21858D01*
X44800Y-22000D01*
X44800Y-22279D01*
X44683Y-22395D01*
X44577Y-22395D01*
X44457Y-22444D01*
X44366Y-22536D01*
X44316Y-22655D01*
X44316Y-22784D01*
X44366Y-22904D01*
X44457Y-22995D01*
X44576Y-23045D01*
X44706Y-23045D01*
X44825Y-22996D01*
X44917Y-22904D01*
X44966Y-22785D01*
X44966Y-22678D01*
X45141Y-22503D01*
X45184Y-22438D01*
X45184Y-22438D01*
X45187Y-22426D01*
X45199Y-22362D01*
X45200Y-22362D01*
X45200Y-22000D01*
X45200Y-21858D01*
X45200Y-20399D01*
X45251Y-20377D01*
X45377Y-20252D01*
X45445Y-20088D01*
X45445Y-19911D01*
X45377Y-19748D01*
X45252Y-19622D01*
X45200Y-19600D01*
X45200Y-19500D01*
X45200Y-18067D01*
X45279Y-18067D01*
X45334Y-18044D01*
X45377Y-18002D01*
X45399Y-17947D01*
X45400Y-17887D01*
X45400Y-17269D01*
X45377Y-17214D01*
X45335Y-17172D01*
X45279Y-17149D01*
X45220Y-17149D01*
X44720Y-17149D01*
X44665Y-17171D01*
X44622Y-17214D01*
X44600Y-17269D01*
X44599Y-17328D01*
X44599Y-17947D01*
X44622Y-18002D01*
X44664Y-18044D01*
X44720Y-18067D01*
X44779Y-18067D01*
X44800Y-18067D01*
X44800Y-18676D01*
X44672Y-18804D01*
X44565Y-18804D01*
X44446Y-18854D01*
X44354Y-18945D01*
X44321Y-19026D01*
X44321Y-18923D01*
X44271Y-18804D01*
X44200Y-18732D01*
X44200Y-18067D01*
X44279Y-18067D01*
X44334Y-18044D01*
X44377Y-18002D01*
X44399Y-17947D01*
X44400Y-17887D01*
X44400Y-17269D01*
X44377Y-17214D01*
X44335Y-17172D01*
X44279Y-17149D01*
X44220Y-17149D01*
X43720Y-17149D01*
X43665Y-17171D01*
X43622Y-17214D01*
X43600Y-17269D01*
X43599Y-17328D01*
X43599Y-17947D01*
X43622Y-18002D01*
X43664Y-18044D01*
X43720Y-18067D01*
X43779Y-18067D01*
X43800Y-18067D01*
X43800Y-18724D01*
X43720Y-18803D01*
X43671Y-18923D01*
X43671Y-19052D01*
X43720Y-19172D01*
X43800Y-19251D01*
X43800Y-19401D01*
X43800Y-19448D01*
X43800Y-20874D01*
X43775Y-20816D01*
X43684Y-20724D01*
X43564Y-20675D01*
X43435Y-20674D01*
X43342Y-20713D01*
X43289Y-20659D01*
X43399Y-20659D01*
X43518Y-20610D01*
X43610Y-20518D01*
X43659Y-20399D01*
X43659Y-20270D01*
X43610Y-20150D01*
X43518Y-20059D01*
X43445Y-20028D01*
X43445Y-19911D01*
X43377Y-19748D01*
X43297Y-19667D01*
X43395Y-19667D01*
X43514Y-19618D01*
X43606Y-19526D01*
X43655Y-19407D01*
X43655Y-19278D01*
X43606Y-19158D01*
X43515Y-19067D01*
X43395Y-19017D01*
X43266Y-19017D01*
X43200Y-19044D01*
X43200Y-18067D01*
X43279Y-18067D01*
X43334Y-18044D01*
X43377Y-18002D01*
X43399Y-17947D01*
X43400Y-17887D01*
X43400Y-17269D01*
X43377Y-17214D01*
X43335Y-17172D01*
X43279Y-17149D01*
X43220Y-17149D01*
X42720Y-17149D01*
X42665Y-17171D01*
X42664Y-17172D01*
X42664Y-16341D01*
X42750Y-16341D01*
X42750Y-15950D01*
X42812Y-15950D01*
X42875Y-15888D01*
X42875Y-15546D01*
X42750Y-15546D01*
X42750Y-15237D01*
X42875Y-15237D01*
X42875Y-14895D01*
X42812Y-14832D01*
X42750Y-14832D01*
X42750Y-14550D01*
X43200Y-14550D01*
X43200Y-14832D01*
X43187Y-14832D01*
X43125Y-14895D01*
X43125Y-15237D01*
X43200Y-15237D01*
X43200Y-15546D01*
X43125Y-15546D01*
X43125Y-15888D01*
X43187Y-15950D01*
X43200Y-15950D01*
X43200Y-16800D01*
X45450Y-16800D01*
X45450Y-34450D01*
G54D10*
G36*
X71950Y-34450D02*
X71775Y-34450D01*
X71775Y-33346D01*
X71657Y-33061D01*
X71560Y-32964D01*
X71560Y-22980D01*
X71560Y-21980D01*
X71525Y-21803D01*
X71450Y-21773D01*
X71450Y-20910D01*
X71450Y-18910D01*
X71450Y-17910D01*
X71450Y-16910D01*
X71450Y-15910D01*
X71450Y-14910D01*
X71450Y-13910D01*
X71381Y-13745D01*
X71255Y-13618D01*
X71089Y-13550D01*
X70910Y-13549D01*
X70745Y-13618D01*
X70618Y-13744D01*
X70550Y-13910D01*
X70549Y-14089D01*
X70618Y-14254D01*
X70744Y-14381D01*
X70910Y-14449D01*
X71089Y-14450D01*
X71254Y-14381D01*
X71381Y-14255D01*
X71449Y-14089D01*
X71450Y-13910D01*
X71450Y-14910D01*
X71381Y-14745D01*
X71255Y-14618D01*
X71089Y-14550D01*
X70910Y-14549D01*
X70745Y-14618D01*
X70618Y-14744D01*
X70550Y-14910D01*
X70549Y-15089D01*
X70618Y-15254D01*
X70744Y-15381D01*
X70910Y-15449D01*
X71089Y-15450D01*
X71254Y-15381D01*
X71381Y-15255D01*
X71449Y-15089D01*
X71450Y-14910D01*
X71450Y-15910D01*
X71381Y-15745D01*
X71255Y-15618D01*
X71089Y-15550D01*
X70910Y-15549D01*
X70745Y-15618D01*
X70618Y-15744D01*
X70550Y-15910D01*
X70549Y-16089D01*
X70618Y-16254D01*
X70744Y-16381D01*
X70910Y-16449D01*
X71089Y-16450D01*
X71254Y-16381D01*
X71381Y-16255D01*
X71449Y-16089D01*
X71450Y-15910D01*
X71450Y-16910D01*
X71381Y-16745D01*
X71255Y-16618D01*
X71089Y-16550D01*
X70910Y-16549D01*
X70745Y-16618D01*
X70618Y-16744D01*
X70550Y-16910D01*
X70549Y-17089D01*
X70618Y-17254D01*
X70744Y-17381D01*
X70910Y-17449D01*
X71089Y-17450D01*
X71254Y-17381D01*
X71381Y-17255D01*
X71449Y-17089D01*
X71450Y-16910D01*
X71450Y-17910D01*
X71381Y-17745D01*
X71255Y-17618D01*
X71089Y-17550D01*
X70910Y-17549D01*
X70745Y-17618D01*
X70618Y-17744D01*
X70550Y-17910D01*
X70549Y-18089D01*
X70618Y-18254D01*
X70744Y-18381D01*
X70910Y-18449D01*
X71089Y-18450D01*
X71254Y-18381D01*
X71381Y-18255D01*
X71449Y-18089D01*
X71450Y-17910D01*
X71450Y-18910D01*
X71381Y-18745D01*
X71255Y-18618D01*
X71089Y-18550D01*
X70910Y-18549D01*
X70745Y-18618D01*
X70618Y-18744D01*
X70550Y-18910D01*
X70549Y-19089D01*
X70618Y-19254D01*
X70744Y-19381D01*
X70910Y-19449D01*
X71089Y-19450D01*
X71254Y-19381D01*
X71381Y-19255D01*
X71449Y-19089D01*
X71450Y-18910D01*
X71450Y-20910D01*
X71381Y-20745D01*
X71255Y-20618D01*
X71089Y-20550D01*
X70910Y-20549D01*
X70745Y-20618D01*
X70618Y-20744D01*
X70550Y-20910D01*
X70549Y-21089D01*
X70618Y-21254D01*
X70744Y-21381D01*
X70910Y-21449D01*
X70928Y-21449D01*
X70803Y-21474D01*
X70770Y-21557D01*
X71000Y-21787D01*
X71229Y-21557D01*
X71196Y-21474D01*
X71044Y-21450D01*
X71089Y-21450D01*
X71254Y-21381D01*
X71381Y-21255D01*
X71449Y-21089D01*
X71450Y-20910D01*
X71450Y-21773D01*
X71442Y-21770D01*
X71212Y-22000D01*
X71442Y-22229D01*
X71525Y-22196D01*
X71560Y-21980D01*
X71560Y-22980D01*
X71525Y-22803D01*
X71442Y-22770D01*
X71229Y-22982D01*
X71229Y-22557D01*
X71206Y-22500D01*
X71229Y-22442D01*
X71000Y-22212D01*
X70787Y-22424D01*
X70787Y-22000D01*
X70557Y-21770D01*
X70474Y-21803D01*
X70439Y-22019D01*
X70474Y-22196D01*
X70557Y-22229D01*
X70787Y-22000D01*
X70787Y-22424D01*
X70770Y-22442D01*
X70793Y-22500D01*
X70770Y-22557D01*
X71000Y-22787D01*
X71229Y-22557D01*
X71229Y-22982D01*
X71212Y-23000D01*
X71442Y-23229D01*
X71525Y-23196D01*
X71560Y-22980D01*
X71560Y-32964D01*
X71450Y-32853D01*
X71450Y-27910D01*
X71450Y-26910D01*
X71450Y-25910D01*
X71450Y-24910D01*
X71450Y-23910D01*
X71381Y-23745D01*
X71255Y-23618D01*
X71089Y-23550D01*
X71071Y-23550D01*
X71196Y-23525D01*
X71229Y-23442D01*
X71000Y-23212D01*
X70787Y-23424D01*
X70787Y-23000D01*
X70557Y-22770D01*
X70474Y-22803D01*
X70439Y-23019D01*
X70474Y-23196D01*
X70557Y-23229D01*
X70787Y-23000D01*
X70787Y-23424D01*
X70770Y-23442D01*
X70803Y-23525D01*
X70955Y-23549D01*
X70910Y-23549D01*
X70745Y-23618D01*
X70618Y-23744D01*
X70616Y-23750D01*
X70000Y-23750D01*
X69904Y-23769D01*
X69871Y-23790D01*
X69823Y-23823D01*
X69823Y-23823D01*
X69775Y-23871D01*
X69775Y-12846D01*
X69657Y-12561D01*
X69439Y-12343D01*
X69154Y-12225D01*
X68846Y-12224D01*
X68561Y-12342D01*
X68343Y-12560D01*
X68225Y-12845D01*
X68224Y-13153D01*
X68342Y-13438D01*
X68560Y-13656D01*
X68845Y-13774D01*
X69153Y-13775D01*
X69438Y-13657D01*
X69656Y-13439D01*
X69774Y-13154D01*
X69775Y-12846D01*
X69775Y-23871D01*
X69555Y-24090D01*
X69555Y-22981D01*
X69520Y-22804D01*
X69437Y-22771D01*
X69228Y-22980D01*
X69228Y-22562D01*
X69195Y-22479D01*
X68981Y-22444D01*
X68804Y-22479D01*
X68771Y-22562D01*
X69000Y-22791D01*
X69228Y-22562D01*
X69228Y-22980D01*
X69208Y-23000D01*
X69437Y-23228D01*
X69520Y-23195D01*
X69555Y-22981D01*
X69555Y-24090D01*
X69228Y-24417D01*
X69228Y-23437D01*
X69000Y-23208D01*
X68791Y-23417D01*
X68791Y-23000D01*
X68562Y-22771D01*
X68479Y-22804D01*
X68444Y-23018D01*
X68479Y-23195D01*
X68562Y-23228D01*
X68791Y-23000D01*
X68791Y-23417D01*
X68771Y-23437D01*
X68804Y-23520D01*
X69018Y-23555D01*
X69195Y-23520D01*
X69228Y-23437D01*
X69228Y-24417D01*
X69090Y-24555D01*
X69088Y-24554D01*
X68911Y-24554D01*
X68748Y-24622D01*
X68622Y-24747D01*
X68554Y-24911D01*
X68554Y-25088D01*
X68622Y-25251D01*
X68747Y-25377D01*
X68911Y-25445D01*
X69088Y-25445D01*
X69251Y-25377D01*
X69377Y-25252D01*
X69445Y-25088D01*
X69445Y-24911D01*
X69444Y-24909D01*
X70103Y-24250D01*
X70616Y-24250D01*
X70618Y-24254D01*
X70744Y-24381D01*
X70910Y-24449D01*
X71089Y-24450D01*
X71254Y-24381D01*
X71381Y-24255D01*
X71449Y-24089D01*
X71450Y-23910D01*
X71450Y-24910D01*
X71381Y-24745D01*
X71255Y-24618D01*
X71089Y-24550D01*
X70910Y-24549D01*
X70745Y-24618D01*
X70618Y-24744D01*
X70616Y-24750D01*
X70000Y-24750D01*
X69904Y-24769D01*
X69871Y-24790D01*
X69823Y-24823D01*
X69823Y-24823D01*
X69090Y-25555D01*
X69088Y-25554D01*
X68911Y-25554D01*
X68748Y-25622D01*
X68622Y-25747D01*
X68554Y-25911D01*
X68554Y-26088D01*
X68622Y-26251D01*
X68747Y-26377D01*
X68911Y-26445D01*
X69088Y-26445D01*
X69251Y-26377D01*
X69377Y-26252D01*
X69445Y-26088D01*
X69445Y-25911D01*
X69444Y-25909D01*
X70103Y-25250D01*
X70616Y-25250D01*
X70618Y-25254D01*
X70744Y-25381D01*
X70910Y-25449D01*
X71089Y-25450D01*
X71254Y-25381D01*
X71381Y-25255D01*
X71449Y-25089D01*
X71450Y-24910D01*
X71450Y-25910D01*
X71381Y-25745D01*
X71255Y-25618D01*
X71089Y-25550D01*
X70910Y-25549D01*
X70745Y-25618D01*
X70618Y-25744D01*
X70550Y-25910D01*
X70549Y-26089D01*
X70618Y-26254D01*
X70744Y-26381D01*
X70910Y-26449D01*
X71089Y-26450D01*
X71254Y-26381D01*
X71381Y-26255D01*
X71449Y-26089D01*
X71450Y-25910D01*
X71450Y-26910D01*
X71381Y-26745D01*
X71255Y-26618D01*
X71089Y-26550D01*
X70910Y-26549D01*
X70745Y-26618D01*
X70618Y-26744D01*
X70616Y-26750D01*
X69378Y-26750D01*
X69377Y-26748D01*
X69252Y-26622D01*
X69088Y-26554D01*
X68911Y-26554D01*
X68748Y-26622D01*
X68622Y-26747D01*
X68554Y-26911D01*
X68554Y-27088D01*
X68622Y-27251D01*
X68747Y-27377D01*
X68911Y-27445D01*
X69088Y-27445D01*
X69251Y-27377D01*
X69377Y-27252D01*
X69378Y-27250D01*
X70616Y-27250D01*
X70618Y-27254D01*
X70744Y-27381D01*
X70910Y-27449D01*
X71089Y-27450D01*
X71254Y-27381D01*
X71381Y-27255D01*
X71449Y-27089D01*
X71450Y-26910D01*
X71450Y-27910D01*
X71381Y-27745D01*
X71255Y-27618D01*
X71089Y-27550D01*
X70910Y-27549D01*
X70745Y-27618D01*
X70618Y-27744D01*
X70550Y-27910D01*
X70549Y-28089D01*
X70618Y-28254D01*
X70744Y-28381D01*
X70910Y-28449D01*
X71089Y-28450D01*
X71254Y-28381D01*
X71381Y-28255D01*
X71449Y-28089D01*
X71450Y-27910D01*
X71450Y-32853D01*
X71439Y-32843D01*
X71154Y-32725D01*
X70846Y-32724D01*
X70561Y-32842D01*
X70343Y-33060D01*
X70225Y-33345D01*
X70224Y-33653D01*
X70342Y-33938D01*
X70560Y-34156D01*
X70845Y-34274D01*
X71153Y-34275D01*
X71438Y-34157D01*
X71656Y-33939D01*
X71774Y-33654D01*
X71775Y-33346D01*
X71775Y-34450D01*
X68575Y-34450D01*
X68575Y-29435D01*
X68525Y-29316D01*
X68434Y-29224D01*
X68314Y-29175D01*
X68185Y-29174D01*
X68066Y-29224D01*
X67974Y-29315D01*
X67925Y-29435D01*
X67924Y-29564D01*
X67974Y-29683D01*
X68065Y-29775D01*
X68185Y-29824D01*
X68314Y-29825D01*
X68433Y-29775D01*
X68525Y-29684D01*
X68574Y-29564D01*
X68575Y-29435D01*
X68575Y-34450D01*
X67445Y-34450D01*
X67445Y-22911D01*
X67377Y-22748D01*
X67252Y-22622D01*
X67212Y-22606D01*
X67254Y-22505D01*
X67254Y-22376D01*
X67204Y-22257D01*
X67113Y-22165D01*
X66994Y-22116D01*
X66864Y-22115D01*
X66745Y-22165D01*
X66653Y-22256D01*
X66604Y-22376D01*
X66604Y-22505D01*
X66653Y-22624D01*
X66699Y-22670D01*
X66622Y-22747D01*
X66554Y-22911D01*
X66554Y-23088D01*
X66622Y-23251D01*
X66729Y-23358D01*
X66729Y-26928D01*
X66642Y-26964D01*
X66551Y-27055D01*
X66501Y-27175D01*
X66501Y-27304D01*
X66551Y-27424D01*
X66642Y-27515D01*
X66761Y-27565D01*
X66891Y-27565D01*
X67010Y-27515D01*
X67102Y-27424D01*
X67151Y-27305D01*
X67151Y-27175D01*
X67129Y-27120D01*
X67129Y-23428D01*
X67251Y-23377D01*
X67377Y-23252D01*
X67445Y-23088D01*
X67445Y-22911D01*
X67445Y-34450D01*
X65325Y-34450D01*
X65325Y-23185D01*
X65275Y-23066D01*
X65184Y-22974D01*
X65064Y-22925D01*
X64935Y-22924D01*
X64816Y-22974D01*
X64724Y-23065D01*
X64675Y-23185D01*
X64674Y-23314D01*
X64724Y-23433D01*
X64815Y-23525D01*
X64935Y-23574D01*
X65064Y-23575D01*
X65183Y-23525D01*
X65275Y-23434D01*
X65324Y-23314D01*
X65325Y-23185D01*
X65325Y-34450D01*
X65075Y-34450D01*
X65075Y-25685D01*
X65025Y-25566D01*
X64934Y-25474D01*
X64814Y-25425D01*
X64707Y-25424D01*
X64423Y-25140D01*
X64445Y-25088D01*
X64445Y-24911D01*
X64377Y-24748D01*
X64252Y-24622D01*
X64088Y-24554D01*
X63911Y-24554D01*
X63748Y-24622D01*
X63622Y-24747D01*
X63554Y-24911D01*
X63554Y-25088D01*
X63622Y-25251D01*
X63747Y-25377D01*
X63911Y-25445D01*
X64088Y-25445D01*
X64140Y-25423D01*
X64425Y-25707D01*
X64424Y-25814D01*
X64474Y-25933D01*
X64565Y-26025D01*
X64685Y-26074D01*
X64814Y-26075D01*
X64933Y-26025D01*
X65025Y-25934D01*
X65074Y-25814D01*
X65075Y-25685D01*
X65075Y-34450D01*
X64445Y-34450D01*
X64445Y-25911D01*
X64377Y-25748D01*
X64252Y-25622D01*
X64088Y-25554D01*
X63911Y-25554D01*
X63748Y-25622D01*
X63622Y-25747D01*
X63575Y-25862D01*
X63575Y-25185D01*
X63525Y-25066D01*
X63450Y-24990D01*
X63450Y-19509D01*
X63525Y-19434D01*
X63574Y-19314D01*
X63575Y-19185D01*
X63525Y-19066D01*
X63434Y-18974D01*
X63314Y-18925D01*
X63207Y-18924D01*
X63200Y-18917D01*
X63200Y-18399D01*
X63251Y-18377D01*
X63377Y-18252D01*
X63445Y-18088D01*
X63445Y-17911D01*
X63377Y-17748D01*
X63252Y-17622D01*
X63088Y-17554D01*
X62911Y-17554D01*
X62748Y-17622D01*
X62622Y-17747D01*
X62560Y-17897D01*
X62560Y-12930D01*
X62525Y-12753D01*
X62442Y-12720D01*
X62229Y-12932D01*
X62229Y-12507D01*
X62196Y-12424D01*
X61980Y-12389D01*
X61803Y-12424D01*
X61770Y-12507D01*
X62000Y-12737D01*
X62229Y-12507D01*
X62229Y-12932D01*
X62212Y-12950D01*
X62442Y-13179D01*
X62525Y-13146D01*
X62560Y-12930D01*
X62560Y-17897D01*
X62554Y-17911D01*
X62554Y-18088D01*
X62622Y-18251D01*
X62747Y-18377D01*
X62800Y-18399D01*
X62800Y-19000D01*
X62815Y-19076D01*
X62858Y-19141D01*
X62925Y-19207D01*
X62924Y-19314D01*
X62974Y-19433D01*
X63050Y-19509D01*
X63050Y-24990D01*
X62974Y-25065D01*
X62925Y-25185D01*
X62924Y-25314D01*
X62974Y-25433D01*
X63065Y-25525D01*
X63185Y-25574D01*
X63314Y-25575D01*
X63433Y-25525D01*
X63525Y-25434D01*
X63574Y-25314D01*
X63575Y-25185D01*
X63575Y-25862D01*
X63554Y-25911D01*
X63554Y-26088D01*
X63576Y-26140D01*
X63509Y-26207D01*
X63452Y-26149D01*
X63332Y-26100D01*
X63203Y-26100D01*
X63083Y-26149D01*
X62992Y-26240D01*
X62942Y-26360D01*
X62942Y-26489D01*
X62992Y-26609D01*
X63083Y-26700D01*
X63202Y-26750D01*
X63332Y-26750D01*
X63451Y-26700D01*
X63527Y-26625D01*
X63574Y-26625D01*
X63651Y-26609D01*
X63716Y-26566D01*
X63859Y-26423D01*
X63911Y-26445D01*
X64088Y-26445D01*
X64251Y-26377D01*
X64377Y-26252D01*
X64445Y-26088D01*
X64445Y-25911D01*
X64445Y-34450D01*
X62450Y-34450D01*
X62450Y-13860D01*
X62381Y-13695D01*
X62255Y-13568D01*
X62089Y-13500D01*
X62071Y-13500D01*
X62196Y-13475D01*
X62229Y-13392D01*
X62000Y-13162D01*
X61787Y-13374D01*
X61787Y-12950D01*
X61557Y-12720D01*
X61474Y-12753D01*
X61450Y-12905D01*
X61450Y-12860D01*
X61381Y-12695D01*
X61255Y-12568D01*
X61089Y-12500D01*
X60910Y-12499D01*
X60745Y-12568D01*
X60618Y-12694D01*
X60550Y-12860D01*
X60549Y-13039D01*
X60618Y-13204D01*
X60744Y-13331D01*
X60910Y-13399D01*
X61089Y-13400D01*
X61254Y-13331D01*
X61381Y-13205D01*
X61449Y-13039D01*
X61449Y-13021D01*
X61474Y-13146D01*
X61557Y-13179D01*
X61787Y-12950D01*
X61787Y-13374D01*
X61770Y-13392D01*
X61803Y-13475D01*
X61955Y-13499D01*
X61910Y-13499D01*
X61745Y-13568D01*
X61618Y-13694D01*
X61550Y-13860D01*
X61549Y-14039D01*
X61618Y-14204D01*
X61744Y-14331D01*
X61910Y-14399D01*
X62089Y-14400D01*
X62254Y-14331D01*
X62381Y-14205D01*
X62449Y-14039D01*
X62450Y-13860D01*
X62450Y-34450D01*
X62445Y-34450D01*
X62445Y-20911D01*
X62377Y-20748D01*
X62252Y-20622D01*
X62088Y-20554D01*
X62087Y-20554D01*
X61824Y-20292D01*
X61825Y-20185D01*
X61775Y-20066D01*
X61684Y-19974D01*
X61564Y-19925D01*
X61450Y-19924D01*
X61450Y-13860D01*
X61381Y-13695D01*
X61255Y-13568D01*
X61089Y-13500D01*
X60910Y-13499D01*
X60745Y-13568D01*
X60618Y-13694D01*
X60550Y-13860D01*
X60549Y-14039D01*
X60618Y-14204D01*
X60744Y-14331D01*
X60800Y-14354D01*
X60800Y-15600D01*
X60748Y-15622D01*
X60622Y-15747D01*
X60554Y-15911D01*
X60554Y-16088D01*
X60622Y-16251D01*
X60747Y-16377D01*
X60911Y-16445D01*
X61088Y-16445D01*
X61251Y-16377D01*
X61377Y-16252D01*
X61445Y-16088D01*
X61445Y-15911D01*
X61377Y-15748D01*
X61252Y-15622D01*
X61200Y-15600D01*
X61200Y-14354D01*
X61254Y-14331D01*
X61381Y-14205D01*
X61449Y-14039D01*
X61450Y-13860D01*
X61450Y-19924D01*
X61435Y-19924D01*
X61316Y-19974D01*
X61224Y-20065D01*
X61175Y-20185D01*
X61174Y-20314D01*
X61224Y-20433D01*
X61307Y-20517D01*
X61307Y-21575D01*
X61232Y-21650D01*
X61182Y-21769D01*
X61182Y-21889D01*
X61165Y-21915D01*
X61150Y-21992D01*
X61150Y-26500D01*
X61075Y-26575D01*
X61025Y-26694D01*
X61025Y-26824D01*
X61074Y-26943D01*
X61166Y-27035D01*
X61285Y-27084D01*
X61414Y-27084D01*
X61534Y-27035D01*
X61625Y-26944D01*
X61675Y-26824D01*
X61675Y-26695D01*
X61626Y-26575D01*
X61550Y-26500D01*
X61550Y-22159D01*
X61572Y-22159D01*
X61691Y-22110D01*
X61783Y-22018D01*
X61832Y-21899D01*
X61832Y-21770D01*
X61783Y-21650D01*
X61707Y-21574D01*
X61707Y-21337D01*
X61747Y-21377D01*
X61911Y-21445D01*
X62088Y-21445D01*
X62251Y-21377D01*
X62377Y-21252D01*
X62445Y-21088D01*
X62445Y-20911D01*
X62445Y-34450D01*
X60825Y-34450D01*
X60825Y-29185D01*
X60775Y-29066D01*
X60684Y-28974D01*
X60564Y-28925D01*
X60450Y-28924D01*
X60450Y-13860D01*
X60450Y-12860D01*
X60381Y-12695D01*
X60255Y-12568D01*
X60089Y-12500D01*
X59910Y-12499D01*
X59745Y-12568D01*
X59618Y-12694D01*
X59550Y-12860D01*
X59549Y-13039D01*
X59618Y-13204D01*
X59744Y-13331D01*
X59910Y-13399D01*
X60089Y-13400D01*
X60254Y-13331D01*
X60381Y-13205D01*
X60449Y-13039D01*
X60450Y-12860D01*
X60450Y-13860D01*
X60381Y-13695D01*
X60255Y-13568D01*
X60089Y-13500D01*
X59910Y-13499D01*
X59745Y-13568D01*
X59618Y-13694D01*
X59550Y-13860D01*
X59549Y-14039D01*
X59618Y-14204D01*
X59744Y-14331D01*
X59800Y-14354D01*
X59800Y-15600D01*
X59748Y-15622D01*
X59622Y-15747D01*
X59554Y-15911D01*
X59554Y-16088D01*
X59622Y-16251D01*
X59624Y-16254D01*
X58775Y-17103D01*
X58775Y-12846D01*
X58657Y-12561D01*
X58439Y-12343D01*
X58154Y-12225D01*
X57846Y-12224D01*
X57561Y-12342D01*
X57343Y-12560D01*
X57225Y-12845D01*
X57224Y-13153D01*
X57342Y-13438D01*
X57560Y-13656D01*
X57845Y-13774D01*
X58153Y-13775D01*
X58438Y-13657D01*
X58656Y-13439D01*
X58774Y-13154D01*
X58775Y-12846D01*
X58775Y-17103D01*
X57553Y-18324D01*
X57447Y-18324D01*
X57327Y-18373D01*
X57236Y-18465D01*
X57186Y-18584D01*
X57186Y-18595D01*
X57088Y-18554D01*
X56911Y-18554D01*
X56748Y-18622D01*
X56622Y-18747D01*
X56554Y-18911D01*
X56554Y-19088D01*
X56622Y-19251D01*
X56747Y-19377D01*
X56911Y-19445D01*
X57088Y-19445D01*
X57140Y-19423D01*
X57608Y-19891D01*
X57608Y-19891D01*
X57651Y-19920D01*
X57673Y-19934D01*
X57673Y-19934D01*
X57749Y-19949D01*
X57750Y-19950D01*
X57767Y-19950D01*
X56388Y-21329D01*
X56388Y-19683D01*
X56338Y-19564D01*
X56262Y-19488D01*
X56262Y-18373D01*
X56322Y-18314D01*
X56372Y-18194D01*
X56372Y-18065D01*
X56322Y-17946D01*
X56231Y-17854D01*
X56112Y-17804D01*
X55982Y-17804D01*
X55863Y-17854D01*
X55771Y-17945D01*
X55722Y-18064D01*
X55722Y-18194D01*
X55771Y-18313D01*
X55862Y-18405D01*
X55862Y-18405D01*
X55862Y-19488D01*
X55787Y-19563D01*
X55738Y-19683D01*
X55737Y-19812D01*
X55787Y-19931D01*
X55878Y-20023D01*
X55998Y-20072D01*
X56127Y-20073D01*
X56246Y-20023D01*
X56338Y-19932D01*
X56387Y-19812D01*
X56388Y-19683D01*
X56388Y-21329D01*
X56042Y-21675D01*
X55935Y-21674D01*
X55816Y-21724D01*
X55724Y-21815D01*
X55675Y-21935D01*
X55674Y-22064D01*
X55724Y-22183D01*
X55815Y-22275D01*
X55935Y-22324D01*
X56064Y-22325D01*
X56183Y-22275D01*
X56275Y-22184D01*
X56324Y-22064D01*
X56325Y-21957D01*
X58207Y-20074D01*
X58314Y-20075D01*
X58433Y-20025D01*
X58525Y-19934D01*
X58574Y-19814D01*
X58575Y-19685D01*
X58525Y-19566D01*
X58434Y-19474D01*
X58314Y-19425D01*
X58185Y-19424D01*
X58066Y-19474D01*
X57990Y-19550D01*
X57832Y-19550D01*
X57423Y-19140D01*
X57445Y-19088D01*
X57445Y-18973D01*
X57446Y-18974D01*
X57576Y-18974D01*
X57695Y-18925D01*
X57787Y-18833D01*
X57836Y-18714D01*
X57836Y-18607D01*
X59998Y-16445D01*
X60088Y-16445D01*
X60251Y-16377D01*
X60377Y-16252D01*
X60445Y-16088D01*
X60445Y-15911D01*
X60377Y-15748D01*
X60252Y-15622D01*
X60200Y-15600D01*
X60200Y-14354D01*
X60254Y-14331D01*
X60381Y-14205D01*
X60449Y-14039D01*
X60450Y-13860D01*
X60450Y-28924D01*
X60445Y-28924D01*
X60445Y-20911D01*
X60445Y-18911D01*
X60377Y-18748D01*
X60252Y-18622D01*
X60088Y-18554D01*
X59911Y-18554D01*
X59748Y-18622D01*
X59622Y-18747D01*
X59554Y-18911D01*
X59554Y-18926D01*
X59487Y-18993D01*
X59380Y-18993D01*
X59261Y-19043D01*
X59169Y-19134D01*
X59119Y-19253D01*
X59119Y-19383D01*
X59169Y-19502D01*
X59260Y-19594D01*
X59379Y-19643D01*
X59509Y-19643D01*
X59628Y-19594D01*
X59720Y-19503D01*
X59768Y-19386D01*
X59911Y-19445D01*
X60088Y-19445D01*
X60251Y-19377D01*
X60377Y-19252D01*
X60445Y-19088D01*
X60445Y-18911D01*
X60445Y-20911D01*
X60377Y-20748D01*
X60252Y-20622D01*
X60088Y-20554D01*
X59911Y-20554D01*
X59748Y-20622D01*
X59622Y-20747D01*
X59600Y-20800D01*
X58259Y-20800D01*
X58184Y-20724D01*
X58064Y-20675D01*
X57935Y-20674D01*
X57816Y-20724D01*
X57724Y-20815D01*
X57675Y-20935D01*
X57674Y-21042D01*
X56542Y-22175D01*
X56435Y-22174D01*
X56316Y-22224D01*
X56224Y-22315D01*
X56175Y-22435D01*
X56174Y-22564D01*
X56224Y-22683D01*
X56315Y-22775D01*
X56435Y-22824D01*
X56564Y-22825D01*
X56683Y-22775D01*
X56775Y-22684D01*
X56824Y-22564D01*
X56825Y-22457D01*
X57957Y-21324D01*
X58064Y-21325D01*
X58183Y-21275D01*
X58259Y-21200D01*
X59600Y-21200D01*
X59622Y-21251D01*
X59747Y-21377D01*
X59911Y-21445D01*
X60088Y-21445D01*
X60251Y-21377D01*
X60377Y-21252D01*
X60445Y-21088D01*
X60445Y-20911D01*
X60445Y-28924D01*
X60435Y-28924D01*
X60316Y-28974D01*
X60224Y-29065D01*
X60175Y-29185D01*
X60174Y-29314D01*
X60224Y-29433D01*
X60315Y-29525D01*
X60435Y-29574D01*
X60564Y-29575D01*
X60683Y-29525D01*
X60775Y-29434D01*
X60824Y-29314D01*
X60825Y-29185D01*
X60825Y-34450D01*
X60006Y-34450D01*
X60006Y-24825D01*
X59956Y-24705D01*
X59865Y-24614D01*
X59746Y-24564D01*
X59638Y-24564D01*
X59351Y-24277D01*
X59377Y-24252D01*
X59445Y-24088D01*
X59445Y-23911D01*
X59377Y-23748D01*
X59252Y-23622D01*
X59088Y-23554D01*
X58911Y-23554D01*
X58748Y-23622D01*
X58622Y-23747D01*
X58554Y-23911D01*
X58554Y-24088D01*
X58622Y-24251D01*
X58747Y-24377D01*
X58911Y-24445D01*
X58953Y-24445D01*
X59356Y-24847D01*
X59356Y-24954D01*
X59405Y-25073D01*
X59496Y-25165D01*
X59616Y-25214D01*
X59745Y-25214D01*
X59864Y-25165D01*
X59956Y-25074D01*
X60006Y-24954D01*
X60006Y-24825D01*
X60006Y-34450D01*
X59445Y-34450D01*
X59445Y-25911D01*
X59377Y-25748D01*
X59252Y-25622D01*
X59088Y-25554D01*
X58911Y-25554D01*
X58849Y-25580D01*
X58826Y-25565D01*
X58750Y-25550D01*
X58255Y-25550D01*
X58180Y-25474D01*
X58060Y-25425D01*
X57931Y-25424D01*
X57812Y-25474D01*
X57720Y-25565D01*
X57671Y-25685D01*
X57671Y-25814D01*
X57720Y-25933D01*
X57811Y-26025D01*
X57931Y-26074D01*
X58060Y-26075D01*
X58179Y-26025D01*
X58255Y-25950D01*
X58554Y-25950D01*
X58554Y-26088D01*
X58622Y-26251D01*
X58747Y-26377D01*
X58911Y-26445D01*
X59088Y-26445D01*
X59251Y-26377D01*
X59377Y-26252D01*
X59445Y-26088D01*
X59445Y-25911D01*
X59445Y-34450D01*
X57325Y-34450D01*
X57325Y-23185D01*
X57275Y-23066D01*
X57184Y-22974D01*
X57064Y-22925D01*
X56935Y-22924D01*
X56816Y-22974D01*
X56724Y-23065D01*
X56675Y-23185D01*
X56674Y-23314D01*
X56724Y-23433D01*
X56815Y-23525D01*
X56935Y-23574D01*
X57064Y-23575D01*
X57183Y-23525D01*
X57275Y-23434D01*
X57324Y-23314D01*
X57325Y-23185D01*
X57325Y-34450D01*
X55075Y-34450D01*
X55075Y-26535D01*
X55025Y-26416D01*
X54934Y-26324D01*
X54828Y-26280D01*
X54828Y-20931D01*
X54779Y-20812D01*
X54688Y-20720D01*
X54568Y-20671D01*
X54439Y-20671D01*
X54320Y-20720D01*
X54228Y-20811D01*
X54178Y-20931D01*
X54178Y-21060D01*
X54228Y-21179D01*
X54300Y-21251D01*
X54300Y-22740D01*
X54224Y-22815D01*
X54175Y-22935D01*
X54174Y-23064D01*
X54224Y-23183D01*
X54315Y-23275D01*
X54435Y-23324D01*
X54564Y-23325D01*
X54683Y-23275D01*
X54775Y-23184D01*
X54824Y-23064D01*
X54825Y-22935D01*
X54775Y-22816D01*
X54700Y-22740D01*
X54700Y-21259D01*
X54779Y-21180D01*
X54828Y-21060D01*
X54828Y-20931D01*
X54828Y-26280D01*
X54814Y-26275D01*
X54685Y-26274D01*
X54566Y-26324D01*
X54474Y-26415D01*
X54425Y-26535D01*
X54424Y-26664D01*
X54474Y-26783D01*
X54565Y-26875D01*
X54685Y-26924D01*
X54814Y-26925D01*
X54933Y-26875D01*
X55025Y-26784D01*
X55074Y-26664D01*
X55075Y-26535D01*
X55075Y-34450D01*
X53773Y-34450D01*
X53773Y-24156D01*
X53724Y-24036D01*
X53668Y-23980D01*
X53668Y-20669D01*
X53668Y-20669D01*
X53653Y-20592D01*
X53653Y-20592D01*
X53638Y-20571D01*
X53609Y-20527D01*
X53609Y-20527D01*
X53440Y-20358D01*
X53430Y-20348D01*
X52940Y-19858D01*
X52875Y-19815D01*
X52799Y-19800D01*
X52450Y-19800D01*
X52450Y-18910D01*
X52450Y-17910D01*
X52450Y-16910D01*
X52450Y-15910D01*
X52450Y-14910D01*
X52450Y-13910D01*
X52381Y-13745D01*
X52255Y-13618D01*
X52089Y-13550D01*
X51910Y-13549D01*
X51745Y-13618D01*
X51618Y-13744D01*
X51550Y-13910D01*
X51549Y-14089D01*
X51618Y-14254D01*
X51744Y-14381D01*
X51910Y-14449D01*
X52089Y-14450D01*
X52254Y-14381D01*
X52381Y-14255D01*
X52449Y-14089D01*
X52450Y-13910D01*
X52450Y-14910D01*
X52381Y-14745D01*
X52255Y-14618D01*
X52089Y-14550D01*
X51910Y-14549D01*
X51745Y-14618D01*
X51618Y-14744D01*
X51550Y-14910D01*
X51549Y-15089D01*
X51618Y-15254D01*
X51744Y-15381D01*
X51910Y-15449D01*
X52089Y-15450D01*
X52254Y-15381D01*
X52381Y-15255D01*
X52449Y-15089D01*
X52450Y-14910D01*
X52450Y-15910D01*
X52381Y-15745D01*
X52255Y-15618D01*
X52089Y-15550D01*
X51910Y-15549D01*
X51745Y-15618D01*
X51618Y-15744D01*
X51550Y-15910D01*
X51549Y-16089D01*
X51618Y-16254D01*
X51744Y-16381D01*
X51910Y-16449D01*
X52089Y-16450D01*
X52254Y-16381D01*
X52381Y-16255D01*
X52449Y-16089D01*
X52450Y-15910D01*
X52450Y-16910D01*
X52381Y-16745D01*
X52255Y-16618D01*
X52089Y-16550D01*
X51910Y-16549D01*
X51745Y-16618D01*
X51618Y-16744D01*
X51550Y-16910D01*
X51549Y-17089D01*
X51618Y-17254D01*
X51744Y-17381D01*
X51910Y-17449D01*
X52089Y-17450D01*
X52254Y-17381D01*
X52381Y-17255D01*
X52449Y-17089D01*
X52450Y-16910D01*
X52450Y-17910D01*
X52381Y-17745D01*
X52255Y-17618D01*
X52089Y-17550D01*
X51910Y-17549D01*
X51745Y-17618D01*
X51618Y-17744D01*
X51550Y-17910D01*
X51549Y-18089D01*
X51618Y-18254D01*
X51744Y-18381D01*
X51910Y-18449D01*
X52089Y-18450D01*
X52254Y-18381D01*
X52381Y-18255D01*
X52449Y-18089D01*
X52450Y-17910D01*
X52450Y-18910D01*
X52381Y-18745D01*
X52255Y-18618D01*
X52089Y-18550D01*
X51910Y-18549D01*
X51745Y-18618D01*
X51618Y-18744D01*
X51550Y-18910D01*
X51549Y-19089D01*
X51618Y-19254D01*
X51744Y-19381D01*
X51910Y-19449D01*
X52089Y-19450D01*
X52254Y-19381D01*
X52381Y-19255D01*
X52449Y-19089D01*
X52450Y-18910D01*
X52450Y-19800D01*
X52404Y-19800D01*
X52381Y-19745D01*
X52255Y-19618D01*
X52089Y-19550D01*
X51910Y-19549D01*
X51745Y-19618D01*
X51618Y-19744D01*
X51550Y-19910D01*
X51549Y-20089D01*
X51618Y-20254D01*
X51744Y-20381D01*
X51910Y-20449D01*
X52089Y-20450D01*
X52254Y-20381D01*
X52381Y-20255D01*
X52404Y-20200D01*
X52716Y-20200D01*
X53147Y-20631D01*
X53157Y-20641D01*
X53268Y-20752D01*
X53268Y-23943D01*
X53264Y-23944D01*
X53173Y-24036D01*
X53123Y-24155D01*
X53123Y-24284D01*
X53173Y-24404D01*
X53264Y-24495D01*
X53383Y-24545D01*
X53513Y-24545D01*
X53632Y-24496D01*
X53724Y-24404D01*
X53773Y-24285D01*
X53773Y-24156D01*
X53773Y-34450D01*
X52775Y-34450D01*
X52775Y-32846D01*
X52657Y-32561D01*
X52560Y-32464D01*
X52560Y-28580D01*
X52525Y-28403D01*
X52450Y-28373D01*
X52450Y-27510D01*
X52450Y-26510D01*
X52450Y-25510D01*
X52450Y-24510D01*
X52450Y-23510D01*
X52450Y-22510D01*
X52450Y-20910D01*
X52381Y-20745D01*
X52255Y-20618D01*
X52089Y-20550D01*
X51910Y-20549D01*
X51745Y-20618D01*
X51618Y-20744D01*
X51550Y-20910D01*
X51549Y-21089D01*
X51618Y-21254D01*
X51744Y-21381D01*
X51910Y-21449D01*
X52089Y-21450D01*
X52254Y-21381D01*
X52381Y-21255D01*
X52449Y-21089D01*
X52450Y-20910D01*
X52450Y-22510D01*
X52381Y-22345D01*
X52255Y-22218D01*
X52089Y-22150D01*
X51910Y-22149D01*
X51745Y-22218D01*
X51618Y-22344D01*
X51550Y-22510D01*
X51549Y-22689D01*
X51618Y-22854D01*
X51744Y-22981D01*
X51910Y-23049D01*
X52089Y-23050D01*
X52254Y-22981D01*
X52381Y-22855D01*
X52449Y-22689D01*
X52450Y-22510D01*
X52450Y-23510D01*
X52381Y-23345D01*
X52255Y-23218D01*
X52089Y-23150D01*
X51910Y-23149D01*
X51745Y-23218D01*
X51618Y-23344D01*
X51550Y-23510D01*
X51549Y-23689D01*
X51618Y-23854D01*
X51744Y-23981D01*
X51910Y-24049D01*
X52089Y-24050D01*
X52254Y-23981D01*
X52381Y-23855D01*
X52449Y-23689D01*
X52450Y-23510D01*
X52450Y-24510D01*
X52381Y-24345D01*
X52255Y-24218D01*
X52089Y-24150D01*
X51910Y-24149D01*
X51745Y-24218D01*
X51618Y-24344D01*
X51550Y-24510D01*
X51549Y-24689D01*
X51618Y-24854D01*
X51744Y-24981D01*
X51910Y-25049D01*
X52089Y-25050D01*
X52254Y-24981D01*
X52381Y-24855D01*
X52449Y-24689D01*
X52450Y-24510D01*
X52450Y-25510D01*
X52381Y-25345D01*
X52255Y-25218D01*
X52089Y-25150D01*
X51910Y-25149D01*
X51745Y-25218D01*
X51618Y-25344D01*
X51550Y-25510D01*
X51549Y-25689D01*
X51618Y-25854D01*
X51744Y-25981D01*
X51910Y-26049D01*
X52089Y-26050D01*
X52254Y-25981D01*
X52381Y-25855D01*
X52449Y-25689D01*
X52450Y-25510D01*
X52450Y-26510D01*
X52381Y-26345D01*
X52255Y-26218D01*
X52089Y-26150D01*
X51910Y-26149D01*
X51745Y-26218D01*
X51618Y-26344D01*
X51550Y-26510D01*
X51549Y-26689D01*
X51618Y-26854D01*
X51744Y-26981D01*
X51910Y-27049D01*
X52089Y-27050D01*
X52254Y-26981D01*
X52381Y-26855D01*
X52449Y-26689D01*
X52450Y-26510D01*
X52450Y-27510D01*
X52381Y-27345D01*
X52255Y-27218D01*
X52089Y-27150D01*
X51910Y-27149D01*
X51745Y-27218D01*
X51618Y-27344D01*
X51550Y-27510D01*
X51549Y-27689D01*
X51618Y-27854D01*
X51744Y-27981D01*
X51910Y-28049D01*
X51928Y-28049D01*
X51803Y-28074D01*
X51770Y-28157D01*
X52000Y-28387D01*
X52229Y-28157D01*
X52196Y-28074D01*
X52044Y-28050D01*
X52089Y-28050D01*
X52254Y-27981D01*
X52381Y-27855D01*
X52449Y-27689D01*
X52450Y-27510D01*
X52450Y-28373D01*
X52442Y-28370D01*
X52212Y-28600D01*
X52442Y-28829D01*
X52525Y-28796D01*
X52560Y-28580D01*
X52560Y-32464D01*
X52450Y-32353D01*
X52450Y-31510D01*
X52450Y-30510D01*
X52450Y-29510D01*
X52381Y-29345D01*
X52255Y-29218D01*
X52089Y-29150D01*
X52071Y-29150D01*
X52196Y-29125D01*
X52229Y-29042D01*
X52000Y-28812D01*
X51787Y-29024D01*
X51787Y-28600D01*
X51557Y-28370D01*
X51474Y-28403D01*
X51439Y-28619D01*
X51474Y-28796D01*
X51557Y-28829D01*
X51787Y-28600D01*
X51787Y-29024D01*
X51770Y-29042D01*
X51803Y-29125D01*
X51955Y-29149D01*
X51910Y-29149D01*
X51745Y-29218D01*
X51618Y-29344D01*
X51550Y-29510D01*
X51549Y-29689D01*
X51618Y-29854D01*
X51744Y-29981D01*
X51910Y-30049D01*
X52089Y-30050D01*
X52254Y-29981D01*
X52381Y-29855D01*
X52449Y-29689D01*
X52450Y-29510D01*
X52450Y-30510D01*
X52381Y-30345D01*
X52255Y-30218D01*
X52089Y-30150D01*
X51910Y-30149D01*
X51745Y-30218D01*
X51618Y-30344D01*
X51550Y-30510D01*
X51549Y-30689D01*
X51618Y-30854D01*
X51744Y-30981D01*
X51910Y-31049D01*
X52089Y-31050D01*
X52254Y-30981D01*
X52381Y-30855D01*
X52449Y-30689D01*
X52450Y-30510D01*
X52450Y-31510D01*
X52381Y-31345D01*
X52255Y-31218D01*
X52089Y-31150D01*
X51910Y-31149D01*
X51745Y-31218D01*
X51618Y-31344D01*
X51550Y-31510D01*
X51549Y-31689D01*
X51618Y-31854D01*
X51744Y-31981D01*
X51910Y-32049D01*
X52089Y-32050D01*
X52254Y-31981D01*
X52381Y-31855D01*
X52449Y-31689D01*
X52450Y-31510D01*
X52450Y-32353D01*
X52439Y-32343D01*
X52154Y-32225D01*
X51846Y-32224D01*
X51561Y-32342D01*
X51343Y-32560D01*
X51225Y-32845D01*
X51224Y-33153D01*
X51342Y-33438D01*
X51560Y-33656D01*
X51845Y-33774D01*
X52153Y-33775D01*
X52438Y-33657D01*
X52656Y-33439D01*
X52774Y-33154D01*
X52775Y-32846D01*
X52775Y-34450D01*
X50990Y-34450D01*
X50990Y-14951D01*
X50941Y-14831D01*
X50849Y-14740D01*
X50730Y-14690D01*
X50600Y-14690D01*
X50481Y-14740D01*
X50421Y-14800D01*
X50399Y-14800D01*
X50377Y-14748D01*
X50252Y-14622D01*
X50088Y-14554D01*
X49911Y-14554D01*
X49748Y-14622D01*
X49622Y-14747D01*
X49554Y-14911D01*
X49554Y-15088D01*
X49622Y-15251D01*
X49747Y-15377D01*
X49911Y-15445D01*
X50088Y-15445D01*
X50251Y-15377D01*
X50377Y-15252D01*
X50394Y-15211D01*
X50394Y-23949D01*
X50325Y-24018D01*
X50325Y-22935D01*
X50275Y-22816D01*
X50200Y-22740D01*
X50200Y-21509D01*
X50275Y-21434D01*
X50324Y-21314D01*
X50325Y-21185D01*
X50275Y-21066D01*
X50184Y-20974D01*
X50064Y-20925D01*
X49935Y-20924D01*
X49816Y-20974D01*
X49724Y-21065D01*
X49675Y-21185D01*
X49674Y-21314D01*
X49724Y-21433D01*
X49800Y-21509D01*
X49800Y-22740D01*
X49724Y-22815D01*
X49675Y-22935D01*
X49674Y-23064D01*
X49724Y-23183D01*
X49815Y-23275D01*
X49935Y-23324D01*
X50064Y-23325D01*
X50183Y-23275D01*
X50275Y-23184D01*
X50324Y-23064D01*
X50325Y-22935D01*
X50325Y-24018D01*
X50319Y-24024D01*
X50269Y-24143D01*
X50269Y-24273D01*
X50318Y-24392D01*
X50410Y-24484D01*
X50529Y-24533D01*
X50658Y-24533D01*
X50778Y-24484D01*
X50869Y-24392D01*
X50919Y-24273D01*
X50919Y-24144D01*
X50870Y-24024D01*
X50794Y-23948D01*
X50794Y-15314D01*
X50849Y-15291D01*
X50940Y-15200D01*
X50990Y-15080D01*
X50990Y-14951D01*
X50990Y-34450D01*
X49050Y-34450D01*
X49050Y-12050D01*
X71950Y-12050D01*
X71950Y-34450D01*
X71950Y-34450D01*
G37*
G54D18*
X71950Y-34450D02*
X71775Y-34450D01*
X71775Y-33346D01*
X71657Y-33061D01*
X71560Y-32964D01*
X71560Y-22980D01*
X71560Y-21980D01*
X71525Y-21803D01*
X71450Y-21773D01*
X71450Y-20910D01*
X71450Y-18910D01*
X71450Y-17910D01*
X71450Y-16910D01*
X71450Y-15910D01*
X71450Y-14910D01*
X71450Y-13910D01*
X71381Y-13745D01*
X71255Y-13618D01*
X71089Y-13550D01*
X70910Y-13549D01*
X70745Y-13618D01*
X70618Y-13744D01*
X70550Y-13910D01*
X70549Y-14089D01*
X70618Y-14254D01*
X70744Y-14381D01*
X70910Y-14449D01*
X71089Y-14450D01*
X71254Y-14381D01*
X71381Y-14255D01*
X71449Y-14089D01*
X71450Y-13910D01*
X71450Y-14910D01*
X71381Y-14745D01*
X71255Y-14618D01*
X71089Y-14550D01*
X70910Y-14549D01*
X70745Y-14618D01*
X70618Y-14744D01*
X70550Y-14910D01*
X70549Y-15089D01*
X70618Y-15254D01*
X70744Y-15381D01*
X70910Y-15449D01*
X71089Y-15450D01*
X71254Y-15381D01*
X71381Y-15255D01*
X71449Y-15089D01*
X71450Y-14910D01*
X71450Y-15910D01*
X71381Y-15745D01*
X71255Y-15618D01*
X71089Y-15550D01*
X70910Y-15549D01*
X70745Y-15618D01*
X70618Y-15744D01*
X70550Y-15910D01*
X70549Y-16089D01*
X70618Y-16254D01*
X70744Y-16381D01*
X70910Y-16449D01*
X71089Y-16450D01*
X71254Y-16381D01*
X71381Y-16255D01*
X71449Y-16089D01*
X71450Y-15910D01*
X71450Y-16910D01*
X71381Y-16745D01*
X71255Y-16618D01*
X71089Y-16550D01*
X70910Y-16549D01*
X70745Y-16618D01*
X70618Y-16744D01*
X70550Y-16910D01*
X70549Y-17089D01*
X70618Y-17254D01*
X70744Y-17381D01*
X70910Y-17449D01*
X71089Y-17450D01*
X71254Y-17381D01*
X71381Y-17255D01*
X71449Y-17089D01*
X71450Y-16910D01*
X71450Y-17910D01*
X71381Y-17745D01*
X71255Y-17618D01*
X71089Y-17550D01*
X70910Y-17549D01*
X70745Y-17618D01*
X70618Y-17744D01*
X70550Y-17910D01*
X70549Y-18089D01*
X70618Y-18254D01*
X70744Y-18381D01*
X70910Y-18449D01*
X71089Y-18450D01*
X71254Y-18381D01*
X71381Y-18255D01*
X71449Y-18089D01*
X71450Y-17910D01*
X71450Y-18910D01*
X71381Y-18745D01*
X71255Y-18618D01*
X71089Y-18550D01*
X70910Y-18549D01*
X70745Y-18618D01*
X70618Y-18744D01*
X70550Y-18910D01*
X70549Y-19089D01*
X70618Y-19254D01*
X70744Y-19381D01*
X70910Y-19449D01*
X71089Y-19450D01*
X71254Y-19381D01*
X71381Y-19255D01*
X71449Y-19089D01*
X71450Y-18910D01*
X71450Y-20910D01*
X71381Y-20745D01*
X71255Y-20618D01*
X71089Y-20550D01*
X70910Y-20549D01*
X70745Y-20618D01*
X70618Y-20744D01*
X70550Y-20910D01*
X70549Y-21089D01*
X70618Y-21254D01*
X70744Y-21381D01*
X70910Y-21449D01*
X70928Y-21449D01*
X70803Y-21474D01*
X70770Y-21557D01*
X71000Y-21787D01*
X71229Y-21557D01*
X71196Y-21474D01*
X71044Y-21450D01*
X71089Y-21450D01*
X71254Y-21381D01*
X71381Y-21255D01*
X71449Y-21089D01*
X71450Y-20910D01*
X71450Y-21773D01*
X71442Y-21770D01*
X71212Y-22000D01*
X71442Y-22229D01*
X71525Y-22196D01*
X71560Y-21980D01*
X71560Y-22980D01*
X71525Y-22803D01*
X71442Y-22770D01*
X71229Y-22982D01*
X71229Y-22557D01*
X71206Y-22500D01*
X71229Y-22442D01*
X71000Y-22212D01*
X70787Y-22424D01*
X70787Y-22000D01*
X70557Y-21770D01*
X70474Y-21803D01*
X70439Y-22019D01*
X70474Y-22196D01*
X70557Y-22229D01*
X70787Y-22000D01*
X70787Y-22424D01*
X70770Y-22442D01*
X70793Y-22500D01*
X70770Y-22557D01*
X71000Y-22787D01*
X71229Y-22557D01*
X71229Y-22982D01*
X71212Y-23000D01*
X71442Y-23229D01*
X71525Y-23196D01*
X71560Y-22980D01*
X71560Y-32964D01*
X71450Y-32853D01*
X71450Y-27910D01*
X71450Y-26910D01*
X71450Y-25910D01*
X71450Y-24910D01*
X71450Y-23910D01*
X71381Y-23745D01*
X71255Y-23618D01*
X71089Y-23550D01*
X71071Y-23550D01*
X71196Y-23525D01*
X71229Y-23442D01*
X71000Y-23212D01*
X70787Y-23424D01*
X70787Y-23000D01*
X70557Y-22770D01*
X70474Y-22803D01*
X70439Y-23019D01*
X70474Y-23196D01*
X70557Y-23229D01*
X70787Y-23000D01*
X70787Y-23424D01*
X70770Y-23442D01*
X70803Y-23525D01*
X70955Y-23549D01*
X70910Y-23549D01*
X70745Y-23618D01*
X70618Y-23744D01*
X70616Y-23750D01*
X70000Y-23750D01*
X69904Y-23769D01*
X69871Y-23790D01*
X69823Y-23823D01*
X69823Y-23823D01*
X69775Y-23871D01*
X69775Y-12846D01*
X69657Y-12561D01*
X69439Y-12343D01*
X69154Y-12225D01*
X68846Y-12224D01*
X68561Y-12342D01*
X68343Y-12560D01*
X68225Y-12845D01*
X68224Y-13153D01*
X68342Y-13438D01*
X68560Y-13656D01*
X68845Y-13774D01*
X69153Y-13775D01*
X69438Y-13657D01*
X69656Y-13439D01*
X69774Y-13154D01*
X69775Y-12846D01*
X69775Y-23871D01*
X69555Y-24090D01*
X69555Y-22981D01*
X69520Y-22804D01*
X69437Y-22771D01*
X69228Y-22980D01*
X69228Y-22562D01*
X69195Y-22479D01*
X68981Y-22444D01*
X68804Y-22479D01*
X68771Y-22562D01*
X69000Y-22791D01*
X69228Y-22562D01*
X69228Y-22980D01*
X69208Y-23000D01*
X69437Y-23228D01*
X69520Y-23195D01*
X69555Y-22981D01*
X69555Y-24090D01*
X69228Y-24417D01*
X69228Y-23437D01*
X69000Y-23208D01*
X68791Y-23417D01*
X68791Y-23000D01*
X68562Y-22771D01*
X68479Y-22804D01*
X68444Y-23018D01*
X68479Y-23195D01*
X68562Y-23228D01*
X68791Y-23000D01*
X68791Y-23417D01*
X68771Y-23437D01*
X68804Y-23520D01*
X69018Y-23555D01*
X69195Y-23520D01*
X69228Y-23437D01*
X69228Y-24417D01*
X69090Y-24555D01*
X69088Y-24554D01*
X68911Y-24554D01*
X68748Y-24622D01*
X68622Y-24747D01*
X68554Y-24911D01*
X68554Y-25088D01*
X68622Y-25251D01*
X68747Y-25377D01*
X68911Y-25445D01*
X69088Y-25445D01*
X69251Y-25377D01*
X69377Y-25252D01*
X69445Y-25088D01*
X69445Y-24911D01*
X69444Y-24909D01*
X70103Y-24250D01*
X70616Y-24250D01*
X70618Y-24254D01*
X70744Y-24381D01*
X70910Y-24449D01*
X71089Y-24450D01*
X71254Y-24381D01*
X71381Y-24255D01*
X71449Y-24089D01*
X71450Y-23910D01*
X71450Y-24910D01*
X71381Y-24745D01*
X71255Y-24618D01*
X71089Y-24550D01*
X70910Y-24549D01*
X70745Y-24618D01*
X70618Y-24744D01*
X70616Y-24750D01*
X70000Y-24750D01*
X69904Y-24769D01*
X69871Y-24790D01*
X69823Y-24823D01*
X69823Y-24823D01*
X69090Y-25555D01*
X69088Y-25554D01*
X68911Y-25554D01*
X68748Y-25622D01*
X68622Y-25747D01*
X68554Y-25911D01*
X68554Y-26088D01*
X68622Y-26251D01*
X68747Y-26377D01*
X68911Y-26445D01*
X69088Y-26445D01*
X69251Y-26377D01*
X69377Y-26252D01*
X69445Y-26088D01*
X69445Y-25911D01*
X69444Y-25909D01*
X70103Y-25250D01*
X70616Y-25250D01*
X70618Y-25254D01*
X70744Y-25381D01*
X70910Y-25449D01*
X71089Y-25450D01*
X71254Y-25381D01*
X71381Y-25255D01*
X71449Y-25089D01*
X71450Y-24910D01*
X71450Y-25910D01*
X71381Y-25745D01*
X71255Y-25618D01*
X71089Y-25550D01*
X70910Y-25549D01*
X70745Y-25618D01*
X70618Y-25744D01*
X70550Y-25910D01*
X70549Y-26089D01*
X70618Y-26254D01*
X70744Y-26381D01*
X70910Y-26449D01*
X71089Y-26450D01*
X71254Y-26381D01*
X71381Y-26255D01*
X71449Y-26089D01*
X71450Y-25910D01*
X71450Y-26910D01*
X71381Y-26745D01*
X71255Y-26618D01*
X71089Y-26550D01*
X70910Y-26549D01*
X70745Y-26618D01*
X70618Y-26744D01*
X70616Y-26750D01*
X69378Y-26750D01*
X69377Y-26748D01*
X69252Y-26622D01*
X69088Y-26554D01*
X68911Y-26554D01*
X68748Y-26622D01*
X68622Y-26747D01*
X68554Y-26911D01*
X68554Y-27088D01*
X68622Y-27251D01*
X68747Y-27377D01*
X68911Y-27445D01*
X69088Y-27445D01*
X69251Y-27377D01*
X69377Y-27252D01*
X69378Y-27250D01*
X70616Y-27250D01*
X70618Y-27254D01*
X70744Y-27381D01*
X70910Y-27449D01*
X71089Y-27450D01*
X71254Y-27381D01*
X71381Y-27255D01*
X71449Y-27089D01*
X71450Y-26910D01*
X71450Y-27910D01*
X71381Y-27745D01*
X71255Y-27618D01*
X71089Y-27550D01*
X70910Y-27549D01*
X70745Y-27618D01*
X70618Y-27744D01*
X70550Y-27910D01*
X70549Y-28089D01*
X70618Y-28254D01*
X70744Y-28381D01*
X70910Y-28449D01*
X71089Y-28450D01*
X71254Y-28381D01*
X71381Y-28255D01*
X71449Y-28089D01*
X71450Y-27910D01*
X71450Y-32853D01*
X71439Y-32843D01*
X71154Y-32725D01*
X70846Y-32724D01*
X70561Y-32842D01*
X70343Y-33060D01*
X70225Y-33345D01*
X70224Y-33653D01*
X70342Y-33938D01*
X70560Y-34156D01*
X70845Y-34274D01*
X71153Y-34275D01*
X71438Y-34157D01*
X71656Y-33939D01*
X71774Y-33654D01*
X71775Y-33346D01*
X71775Y-34450D01*
X68575Y-34450D01*
X68575Y-29435D01*
X68525Y-29316D01*
X68434Y-29224D01*
X68314Y-29175D01*
X68185Y-29174D01*
X68066Y-29224D01*
X67974Y-29315D01*
X67925Y-29435D01*
X67924Y-29564D01*
X67974Y-29683D01*
X68065Y-29775D01*
X68185Y-29824D01*
X68314Y-29825D01*
X68433Y-29775D01*
X68525Y-29684D01*
X68574Y-29564D01*
X68575Y-29435D01*
X68575Y-34450D01*
X67445Y-34450D01*
X67445Y-22911D01*
X67377Y-22748D01*
X67252Y-22622D01*
X67212Y-22606D01*
X67254Y-22505D01*
X67254Y-22376D01*
X67204Y-22257D01*
X67113Y-22165D01*
X66994Y-22116D01*
X66864Y-22115D01*
X66745Y-22165D01*
X66653Y-22256D01*
X66604Y-22376D01*
X66604Y-22505D01*
X66653Y-22624D01*
X66699Y-22670D01*
X66622Y-22747D01*
X66554Y-22911D01*
X66554Y-23088D01*
X66622Y-23251D01*
X66729Y-23358D01*
X66729Y-26928D01*
X66642Y-26964D01*
X66551Y-27055D01*
X66501Y-27175D01*
X66501Y-27304D01*
X66551Y-27424D01*
X66642Y-27515D01*
X66761Y-27565D01*
X66891Y-27565D01*
X67010Y-27515D01*
X67102Y-27424D01*
X67151Y-27305D01*
X67151Y-27175D01*
X67129Y-27120D01*
X67129Y-23428D01*
X67251Y-23377D01*
X67377Y-23252D01*
X67445Y-23088D01*
X67445Y-22911D01*
X67445Y-34450D01*
X65325Y-34450D01*
X65325Y-23185D01*
X65275Y-23066D01*
X65184Y-22974D01*
X65064Y-22925D01*
X64935Y-22924D01*
X64816Y-22974D01*
X64724Y-23065D01*
X64675Y-23185D01*
X64674Y-23314D01*
X64724Y-23433D01*
X64815Y-23525D01*
X64935Y-23574D01*
X65064Y-23575D01*
X65183Y-23525D01*
X65275Y-23434D01*
X65324Y-23314D01*
X65325Y-23185D01*
X65325Y-34450D01*
X65075Y-34450D01*
X65075Y-25685D01*
X65025Y-25566D01*
X64934Y-25474D01*
X64814Y-25425D01*
X64707Y-25424D01*
X64423Y-25140D01*
X64445Y-25088D01*
X64445Y-24911D01*
X64377Y-24748D01*
X64252Y-24622D01*
X64088Y-24554D01*
X63911Y-24554D01*
X63748Y-24622D01*
X63622Y-24747D01*
X63554Y-24911D01*
X63554Y-25088D01*
X63622Y-25251D01*
X63747Y-25377D01*
X63911Y-25445D01*
X64088Y-25445D01*
X64140Y-25423D01*
X64425Y-25707D01*
X64424Y-25814D01*
X64474Y-25933D01*
X64565Y-26025D01*
X64685Y-26074D01*
X64814Y-26075D01*
X64933Y-26025D01*
X65025Y-25934D01*
X65074Y-25814D01*
X65075Y-25685D01*
X65075Y-34450D01*
X64445Y-34450D01*
X64445Y-25911D01*
X64377Y-25748D01*
X64252Y-25622D01*
X64088Y-25554D01*
X63911Y-25554D01*
X63748Y-25622D01*
X63622Y-25747D01*
X63575Y-25862D01*
X63575Y-25185D01*
X63525Y-25066D01*
X63450Y-24990D01*
X63450Y-19509D01*
X63525Y-19434D01*
X63574Y-19314D01*
X63575Y-19185D01*
X63525Y-19066D01*
X63434Y-18974D01*
X63314Y-18925D01*
X63207Y-18924D01*
X63200Y-18917D01*
X63200Y-18399D01*
X63251Y-18377D01*
X63377Y-18252D01*
X63445Y-18088D01*
X63445Y-17911D01*
X63377Y-17748D01*
X63252Y-17622D01*
X63088Y-17554D01*
X62911Y-17554D01*
X62748Y-17622D01*
X62622Y-17747D01*
X62560Y-17897D01*
X62560Y-12930D01*
X62525Y-12753D01*
X62442Y-12720D01*
X62229Y-12932D01*
X62229Y-12507D01*
X62196Y-12424D01*
X61980Y-12389D01*
X61803Y-12424D01*
X61770Y-12507D01*
X62000Y-12737D01*
X62229Y-12507D01*
X62229Y-12932D01*
X62212Y-12950D01*
X62442Y-13179D01*
X62525Y-13146D01*
X62560Y-12930D01*
X62560Y-17897D01*
X62554Y-17911D01*
X62554Y-18088D01*
X62622Y-18251D01*
X62747Y-18377D01*
X62800Y-18399D01*
X62800Y-19000D01*
X62815Y-19076D01*
X62858Y-19141D01*
X62925Y-19207D01*
X62924Y-19314D01*
X62974Y-19433D01*
X63050Y-19509D01*
X63050Y-24990D01*
X62974Y-25065D01*
X62925Y-25185D01*
X62924Y-25314D01*
X62974Y-25433D01*
X63065Y-25525D01*
X63185Y-25574D01*
X63314Y-25575D01*
X63433Y-25525D01*
X63525Y-25434D01*
X63574Y-25314D01*
X63575Y-25185D01*
X63575Y-25862D01*
X63554Y-25911D01*
X63554Y-26088D01*
X63576Y-26140D01*
X63509Y-26207D01*
X63452Y-26149D01*
X63332Y-26100D01*
X63203Y-26100D01*
X63083Y-26149D01*
X62992Y-26240D01*
X62942Y-26360D01*
X62942Y-26489D01*
X62992Y-26609D01*
X63083Y-26700D01*
X63202Y-26750D01*
X63332Y-26750D01*
X63451Y-26700D01*
X63527Y-26625D01*
X63574Y-26625D01*
X63651Y-26609D01*
X63716Y-26566D01*
X63859Y-26423D01*
X63911Y-26445D01*
X64088Y-26445D01*
X64251Y-26377D01*
X64377Y-26252D01*
X64445Y-26088D01*
X64445Y-25911D01*
X64445Y-34450D01*
X62450Y-34450D01*
X62450Y-13860D01*
X62381Y-13695D01*
X62255Y-13568D01*
X62089Y-13500D01*
X62071Y-13500D01*
X62196Y-13475D01*
X62229Y-13392D01*
X62000Y-13162D01*
X61787Y-13374D01*
X61787Y-12950D01*
X61557Y-12720D01*
X61474Y-12753D01*
X61450Y-12905D01*
X61450Y-12860D01*
X61381Y-12695D01*
X61255Y-12568D01*
X61089Y-12500D01*
X60910Y-12499D01*
X60745Y-12568D01*
X60618Y-12694D01*
X60550Y-12860D01*
X60549Y-13039D01*
X60618Y-13204D01*
X60744Y-13331D01*
X60910Y-13399D01*
X61089Y-13400D01*
X61254Y-13331D01*
X61381Y-13205D01*
X61449Y-13039D01*
X61449Y-13021D01*
X61474Y-13146D01*
X61557Y-13179D01*
X61787Y-12950D01*
X61787Y-13374D01*
X61770Y-13392D01*
X61803Y-13475D01*
X61955Y-13499D01*
X61910Y-13499D01*
X61745Y-13568D01*
X61618Y-13694D01*
X61550Y-13860D01*
X61549Y-14039D01*
X61618Y-14204D01*
X61744Y-14331D01*
X61910Y-14399D01*
X62089Y-14400D01*
X62254Y-14331D01*
X62381Y-14205D01*
X62449Y-14039D01*
X62450Y-13860D01*
X62450Y-34450D01*
X62445Y-34450D01*
X62445Y-20911D01*
X62377Y-20748D01*
X62252Y-20622D01*
X62088Y-20554D01*
X62087Y-20554D01*
X61824Y-20292D01*
X61825Y-20185D01*
X61775Y-20066D01*
X61684Y-19974D01*
X61564Y-19925D01*
X61450Y-19924D01*
X61450Y-13860D01*
X61381Y-13695D01*
X61255Y-13568D01*
X61089Y-13500D01*
X60910Y-13499D01*
X60745Y-13568D01*
X60618Y-13694D01*
X60550Y-13860D01*
X60549Y-14039D01*
X60618Y-14204D01*
X60744Y-14331D01*
X60800Y-14354D01*
X60800Y-15600D01*
X60748Y-15622D01*
X60622Y-15747D01*
X60554Y-15911D01*
X60554Y-16088D01*
X60622Y-16251D01*
X60747Y-16377D01*
X60911Y-16445D01*
X61088Y-16445D01*
X61251Y-16377D01*
X61377Y-16252D01*
X61445Y-16088D01*
X61445Y-15911D01*
X61377Y-15748D01*
X61252Y-15622D01*
X61200Y-15600D01*
X61200Y-14354D01*
X61254Y-14331D01*
X61381Y-14205D01*
X61449Y-14039D01*
X61450Y-13860D01*
X61450Y-19924D01*
X61435Y-19924D01*
X61316Y-19974D01*
X61224Y-20065D01*
X61175Y-20185D01*
X61174Y-20314D01*
X61224Y-20433D01*
X61307Y-20517D01*
X61307Y-21575D01*
X61232Y-21650D01*
X61182Y-21769D01*
X61182Y-21889D01*
X61165Y-21915D01*
X61150Y-21992D01*
X61150Y-26500D01*
X61075Y-26575D01*
X61025Y-26694D01*
X61025Y-26824D01*
X61074Y-26943D01*
X61166Y-27035D01*
X61285Y-27084D01*
X61414Y-27084D01*
X61534Y-27035D01*
X61625Y-26944D01*
X61675Y-26824D01*
X61675Y-26695D01*
X61626Y-26575D01*
X61550Y-26500D01*
X61550Y-22159D01*
X61572Y-22159D01*
X61691Y-22110D01*
X61783Y-22018D01*
X61832Y-21899D01*
X61832Y-21770D01*
X61783Y-21650D01*
X61707Y-21574D01*
X61707Y-21337D01*
X61747Y-21377D01*
X61911Y-21445D01*
X62088Y-21445D01*
X62251Y-21377D01*
X62377Y-21252D01*
X62445Y-21088D01*
X62445Y-20911D01*
X62445Y-34450D01*
X60825Y-34450D01*
X60825Y-29185D01*
X60775Y-29066D01*
X60684Y-28974D01*
X60564Y-28925D01*
X60450Y-28924D01*
X60450Y-13860D01*
X60450Y-12860D01*
X60381Y-12695D01*
X60255Y-12568D01*
X60089Y-12500D01*
X59910Y-12499D01*
X59745Y-12568D01*
X59618Y-12694D01*
X59550Y-12860D01*
X59549Y-13039D01*
X59618Y-13204D01*
X59744Y-13331D01*
X59910Y-13399D01*
X60089Y-13400D01*
X60254Y-13331D01*
X60381Y-13205D01*
X60449Y-13039D01*
X60450Y-12860D01*
X60450Y-13860D01*
X60381Y-13695D01*
X60255Y-13568D01*
X60089Y-13500D01*
X59910Y-13499D01*
X59745Y-13568D01*
X59618Y-13694D01*
X59550Y-13860D01*
X59549Y-14039D01*
X59618Y-14204D01*
X59744Y-14331D01*
X59800Y-14354D01*
X59800Y-15600D01*
X59748Y-15622D01*
X59622Y-15747D01*
X59554Y-15911D01*
X59554Y-16088D01*
X59622Y-16251D01*
X59624Y-16254D01*
X58775Y-17103D01*
X58775Y-12846D01*
X58657Y-12561D01*
X58439Y-12343D01*
X58154Y-12225D01*
X57846Y-12224D01*
X57561Y-12342D01*
X57343Y-12560D01*
X57225Y-12845D01*
X57224Y-13153D01*
X57342Y-13438D01*
X57560Y-13656D01*
X57845Y-13774D01*
X58153Y-13775D01*
X58438Y-13657D01*
X58656Y-13439D01*
X58774Y-13154D01*
X58775Y-12846D01*
X58775Y-17103D01*
X57553Y-18324D01*
X57447Y-18324D01*
X57327Y-18373D01*
X57236Y-18465D01*
X57186Y-18584D01*
X57186Y-18595D01*
X57088Y-18554D01*
X56911Y-18554D01*
X56748Y-18622D01*
X56622Y-18747D01*
X56554Y-18911D01*
X56554Y-19088D01*
X56622Y-19251D01*
X56747Y-19377D01*
X56911Y-19445D01*
X57088Y-19445D01*
X57140Y-19423D01*
X57608Y-19891D01*
X57608Y-19891D01*
X57651Y-19920D01*
X57673Y-19934D01*
X57673Y-19934D01*
X57749Y-19949D01*
X57750Y-19950D01*
X57767Y-19950D01*
X56388Y-21329D01*
X56388Y-19683D01*
X56338Y-19564D01*
X56262Y-19488D01*
X56262Y-18373D01*
X56322Y-18314D01*
X56372Y-18194D01*
X56372Y-18065D01*
X56322Y-17946D01*
X56231Y-17854D01*
X56112Y-17804D01*
X55982Y-17804D01*
X55863Y-17854D01*
X55771Y-17945D01*
X55722Y-18064D01*
X55722Y-18194D01*
X55771Y-18313D01*
X55862Y-18405D01*
X55862Y-18405D01*
X55862Y-19488D01*
X55787Y-19563D01*
X55738Y-19683D01*
X55737Y-19812D01*
X55787Y-19931D01*
X55878Y-20023D01*
X55998Y-20072D01*
X56127Y-20073D01*
X56246Y-20023D01*
X56338Y-19932D01*
X56387Y-19812D01*
X56388Y-19683D01*
X56388Y-21329D01*
X56042Y-21675D01*
X55935Y-21674D01*
X55816Y-21724D01*
X55724Y-21815D01*
X55675Y-21935D01*
X55674Y-22064D01*
X55724Y-22183D01*
X55815Y-22275D01*
X55935Y-22324D01*
X56064Y-22325D01*
X56183Y-22275D01*
X56275Y-22184D01*
X56324Y-22064D01*
X56325Y-21957D01*
X58207Y-20074D01*
X58314Y-20075D01*
X58433Y-20025D01*
X58525Y-19934D01*
X58574Y-19814D01*
X58575Y-19685D01*
X58525Y-19566D01*
X58434Y-19474D01*
X58314Y-19425D01*
X58185Y-19424D01*
X58066Y-19474D01*
X57990Y-19550D01*
X57832Y-19550D01*
X57423Y-19140D01*
X57445Y-19088D01*
X57445Y-18973D01*
X57446Y-18974D01*
X57576Y-18974D01*
X57695Y-18925D01*
X57787Y-18833D01*
X57836Y-18714D01*
X57836Y-18607D01*
X59998Y-16445D01*
X60088Y-16445D01*
X60251Y-16377D01*
X60377Y-16252D01*
X60445Y-16088D01*
X60445Y-15911D01*
X60377Y-15748D01*
X60252Y-15622D01*
X60200Y-15600D01*
X60200Y-14354D01*
X60254Y-14331D01*
X60381Y-14205D01*
X60449Y-14039D01*
X60450Y-13860D01*
X60450Y-28924D01*
X60445Y-28924D01*
X60445Y-20911D01*
X60445Y-18911D01*
X60377Y-18748D01*
X60252Y-18622D01*
X60088Y-18554D01*
X59911Y-18554D01*
X59748Y-18622D01*
X59622Y-18747D01*
X59554Y-18911D01*
X59554Y-18926D01*
X59487Y-18993D01*
X59380Y-18993D01*
X59261Y-19043D01*
X59169Y-19134D01*
X59119Y-19253D01*
X59119Y-19383D01*
X59169Y-19502D01*
X59260Y-19594D01*
X59379Y-19643D01*
X59509Y-19643D01*
X59628Y-19594D01*
X59720Y-19503D01*
X59768Y-19386D01*
X59911Y-19445D01*
X60088Y-19445D01*
X60251Y-19377D01*
X60377Y-19252D01*
X60445Y-19088D01*
X60445Y-18911D01*
X60445Y-20911D01*
X60377Y-20748D01*
X60252Y-20622D01*
X60088Y-20554D01*
X59911Y-20554D01*
X59748Y-20622D01*
X59622Y-20747D01*
X59600Y-20800D01*
X58259Y-20800D01*
X58184Y-20724D01*
X58064Y-20675D01*
X57935Y-20674D01*
X57816Y-20724D01*
X57724Y-20815D01*
X57675Y-20935D01*
X57674Y-21042D01*
X56542Y-22175D01*
X56435Y-22174D01*
X56316Y-22224D01*
X56224Y-22315D01*
X56175Y-22435D01*
X56174Y-22564D01*
X56224Y-22683D01*
X56315Y-22775D01*
X56435Y-22824D01*
X56564Y-22825D01*
X56683Y-22775D01*
X56775Y-22684D01*
X56824Y-22564D01*
X56825Y-22457D01*
X57957Y-21324D01*
X58064Y-21325D01*
X58183Y-21275D01*
X58259Y-21200D01*
X59600Y-21200D01*
X59622Y-21251D01*
X59747Y-21377D01*
X59911Y-21445D01*
X60088Y-21445D01*
X60251Y-21377D01*
X60377Y-21252D01*
X60445Y-21088D01*
X60445Y-20911D01*
X60445Y-28924D01*
X60435Y-28924D01*
X60316Y-28974D01*
X60224Y-29065D01*
X60175Y-29185D01*
X60174Y-29314D01*
X60224Y-29433D01*
X60315Y-29525D01*
X60435Y-29574D01*
X60564Y-29575D01*
X60683Y-29525D01*
X60775Y-29434D01*
X60824Y-29314D01*
X60825Y-29185D01*
X60825Y-34450D01*
X60006Y-34450D01*
X60006Y-24825D01*
X59956Y-24705D01*
X59865Y-24614D01*
X59746Y-24564D01*
X59638Y-24564D01*
X59351Y-24277D01*
X59377Y-24252D01*
X59445Y-24088D01*
X59445Y-23911D01*
X59377Y-23748D01*
X59252Y-23622D01*
X59088Y-23554D01*
X58911Y-23554D01*
X58748Y-23622D01*
X58622Y-23747D01*
X58554Y-23911D01*
X58554Y-24088D01*
X58622Y-24251D01*
X58747Y-24377D01*
X58911Y-24445D01*
X58953Y-24445D01*
X59356Y-24847D01*
X59356Y-24954D01*
X59405Y-25073D01*
X59496Y-25165D01*
X59616Y-25214D01*
X59745Y-25214D01*
X59864Y-25165D01*
X59956Y-25074D01*
X60006Y-24954D01*
X60006Y-24825D01*
X60006Y-34450D01*
X59445Y-34450D01*
X59445Y-25911D01*
X59377Y-25748D01*
X59252Y-25622D01*
X59088Y-25554D01*
X58911Y-25554D01*
X58849Y-25580D01*
X58826Y-25565D01*
X58750Y-25550D01*
X58255Y-25550D01*
X58180Y-25474D01*
X58060Y-25425D01*
X57931Y-25424D01*
X57812Y-25474D01*
X57720Y-25565D01*
X57671Y-25685D01*
X57671Y-25814D01*
X57720Y-25933D01*
X57811Y-26025D01*
X57931Y-26074D01*
X58060Y-26075D01*
X58179Y-26025D01*
X58255Y-25950D01*
X58554Y-25950D01*
X58554Y-26088D01*
X58622Y-26251D01*
X58747Y-26377D01*
X58911Y-26445D01*
X59088Y-26445D01*
X59251Y-26377D01*
X59377Y-26252D01*
X59445Y-26088D01*
X59445Y-25911D01*
X59445Y-34450D01*
X57325Y-34450D01*
X57325Y-23185D01*
X57275Y-23066D01*
X57184Y-22974D01*
X57064Y-22925D01*
X56935Y-22924D01*
X56816Y-22974D01*
X56724Y-23065D01*
X56675Y-23185D01*
X56674Y-23314D01*
X56724Y-23433D01*
X56815Y-23525D01*
X56935Y-23574D01*
X57064Y-23575D01*
X57183Y-23525D01*
X57275Y-23434D01*
X57324Y-23314D01*
X57325Y-23185D01*
X57325Y-34450D01*
X55075Y-34450D01*
X55075Y-26535D01*
X55025Y-26416D01*
X54934Y-26324D01*
X54828Y-26280D01*
X54828Y-20931D01*
X54779Y-20812D01*
X54688Y-20720D01*
X54568Y-20671D01*
X54439Y-20671D01*
X54320Y-20720D01*
X54228Y-20811D01*
X54178Y-20931D01*
X54178Y-21060D01*
X54228Y-21179D01*
X54300Y-21251D01*
X54300Y-22740D01*
X54224Y-22815D01*
X54175Y-22935D01*
X54174Y-23064D01*
X54224Y-23183D01*
X54315Y-23275D01*
X54435Y-23324D01*
X54564Y-23325D01*
X54683Y-23275D01*
X54775Y-23184D01*
X54824Y-23064D01*
X54825Y-22935D01*
X54775Y-22816D01*
X54700Y-22740D01*
X54700Y-21259D01*
X54779Y-21180D01*
X54828Y-21060D01*
X54828Y-20931D01*
X54828Y-26280D01*
X54814Y-26275D01*
X54685Y-26274D01*
X54566Y-26324D01*
X54474Y-26415D01*
X54425Y-26535D01*
X54424Y-26664D01*
X54474Y-26783D01*
X54565Y-26875D01*
X54685Y-26924D01*
X54814Y-26925D01*
X54933Y-26875D01*
X55025Y-26784D01*
X55074Y-26664D01*
X55075Y-26535D01*
X55075Y-34450D01*
X53773Y-34450D01*
X53773Y-24156D01*
X53724Y-24036D01*
X53668Y-23980D01*
X53668Y-20669D01*
X53668Y-20669D01*
X53653Y-20592D01*
X53653Y-20592D01*
X53638Y-20571D01*
X53609Y-20527D01*
X53609Y-20527D01*
X53440Y-20358D01*
X53430Y-20348D01*
X52940Y-19858D01*
X52875Y-19815D01*
X52799Y-19800D01*
X52450Y-19800D01*
X52450Y-18910D01*
X52450Y-17910D01*
X52450Y-16910D01*
X52450Y-15910D01*
X52450Y-14910D01*
X52450Y-13910D01*
X52381Y-13745D01*
X52255Y-13618D01*
X52089Y-13550D01*
X51910Y-13549D01*
X51745Y-13618D01*
X51618Y-13744D01*
X51550Y-13910D01*
X51549Y-14089D01*
X51618Y-14254D01*
X51744Y-14381D01*
X51910Y-14449D01*
X52089Y-14450D01*
X52254Y-14381D01*
X52381Y-14255D01*
X52449Y-14089D01*
X52450Y-13910D01*
X52450Y-14910D01*
X52381Y-14745D01*
X52255Y-14618D01*
X52089Y-14550D01*
X51910Y-14549D01*
X51745Y-14618D01*
X51618Y-14744D01*
X51550Y-14910D01*
X51549Y-15089D01*
X51618Y-15254D01*
X51744Y-15381D01*
X51910Y-15449D01*
X52089Y-15450D01*
X52254Y-15381D01*
X52381Y-15255D01*
X52449Y-15089D01*
X52450Y-14910D01*
X52450Y-15910D01*
X52381Y-15745D01*
X52255Y-15618D01*
X52089Y-15550D01*
X51910Y-15549D01*
X51745Y-15618D01*
X51618Y-15744D01*
X51550Y-15910D01*
X51549Y-16089D01*
X51618Y-16254D01*
X51744Y-16381D01*
X51910Y-16449D01*
X52089Y-16450D01*
X52254Y-16381D01*
X52381Y-16255D01*
X52449Y-16089D01*
X52450Y-15910D01*
X52450Y-16910D01*
X52381Y-16745D01*
X52255Y-16618D01*
X52089Y-16550D01*
X51910Y-16549D01*
X51745Y-16618D01*
X51618Y-16744D01*
X51550Y-16910D01*
X51549Y-17089D01*
X51618Y-17254D01*
X51744Y-17381D01*
X51910Y-17449D01*
X52089Y-17450D01*
X52254Y-17381D01*
X52381Y-17255D01*
X52449Y-17089D01*
X52450Y-16910D01*
X52450Y-17910D01*
X52381Y-17745D01*
X52255Y-17618D01*
X52089Y-17550D01*
X51910Y-17549D01*
X51745Y-17618D01*
X51618Y-17744D01*
X51550Y-17910D01*
X51549Y-18089D01*
X51618Y-18254D01*
X51744Y-18381D01*
X51910Y-18449D01*
X52089Y-18450D01*
X52254Y-18381D01*
X52381Y-18255D01*
X52449Y-18089D01*
X52450Y-17910D01*
X52450Y-18910D01*
X52381Y-18745D01*
X52255Y-18618D01*
X52089Y-18550D01*
X51910Y-18549D01*
X51745Y-18618D01*
X51618Y-18744D01*
X51550Y-18910D01*
X51549Y-19089D01*
X51618Y-19254D01*
X51744Y-19381D01*
X51910Y-19449D01*
X52089Y-19450D01*
X52254Y-19381D01*
X52381Y-19255D01*
X52449Y-19089D01*
X52450Y-18910D01*
X52450Y-19800D01*
X52404Y-19800D01*
X52381Y-19745D01*
X52255Y-19618D01*
X52089Y-19550D01*
X51910Y-19549D01*
X51745Y-19618D01*
X51618Y-19744D01*
X51550Y-19910D01*
X51549Y-20089D01*
X51618Y-20254D01*
X51744Y-20381D01*
X51910Y-20449D01*
X52089Y-20450D01*
X52254Y-20381D01*
X52381Y-20255D01*
X52404Y-20200D01*
X52716Y-20200D01*
X53147Y-20631D01*
X53157Y-20641D01*
X53268Y-20752D01*
X53268Y-23943D01*
X53264Y-23944D01*
X53173Y-24036D01*
X53123Y-24155D01*
X53123Y-24284D01*
X53173Y-24404D01*
X53264Y-24495D01*
X53383Y-24545D01*
X53513Y-24545D01*
X53632Y-24496D01*
X53724Y-24404D01*
X53773Y-24285D01*
X53773Y-24156D01*
X53773Y-34450D01*
X52775Y-34450D01*
X52775Y-32846D01*
X52657Y-32561D01*
X52560Y-32464D01*
X52560Y-28580D01*
X52525Y-28403D01*
X52450Y-28373D01*
X52450Y-27510D01*
X52450Y-26510D01*
X52450Y-25510D01*
X52450Y-24510D01*
X52450Y-23510D01*
X52450Y-22510D01*
X52450Y-20910D01*
X52381Y-20745D01*
X52255Y-20618D01*
X52089Y-20550D01*
X51910Y-20549D01*
X51745Y-20618D01*
X51618Y-20744D01*
X51550Y-20910D01*
X51549Y-21089D01*
X51618Y-21254D01*
X51744Y-21381D01*
X51910Y-21449D01*
X52089Y-21450D01*
X52254Y-21381D01*
X52381Y-21255D01*
X52449Y-21089D01*
X52450Y-20910D01*
X52450Y-22510D01*
X52381Y-22345D01*
X52255Y-22218D01*
X52089Y-22150D01*
X51910Y-22149D01*
X51745Y-22218D01*
X51618Y-22344D01*
X51550Y-22510D01*
X51549Y-22689D01*
X51618Y-22854D01*
X51744Y-22981D01*
X51910Y-23049D01*
X52089Y-23050D01*
X52254Y-22981D01*
X52381Y-22855D01*
X52449Y-22689D01*
X52450Y-22510D01*
X52450Y-23510D01*
X52381Y-23345D01*
X52255Y-23218D01*
X52089Y-23150D01*
X51910Y-23149D01*
X51745Y-23218D01*
X51618Y-23344D01*
X51550Y-23510D01*
X51549Y-23689D01*
X51618Y-23854D01*
X51744Y-23981D01*
X51910Y-24049D01*
X52089Y-24050D01*
X52254Y-23981D01*
X52381Y-23855D01*
X52449Y-23689D01*
X52450Y-23510D01*
X52450Y-24510D01*
X52381Y-24345D01*
X52255Y-24218D01*
X52089Y-24150D01*
X51910Y-24149D01*
X51745Y-24218D01*
X51618Y-24344D01*
X51550Y-24510D01*
X51549Y-24689D01*
X51618Y-24854D01*
X51744Y-24981D01*
X51910Y-25049D01*
X52089Y-25050D01*
X52254Y-24981D01*
X52381Y-24855D01*
X52449Y-24689D01*
X52450Y-24510D01*
X52450Y-25510D01*
X52381Y-25345D01*
X52255Y-25218D01*
X52089Y-25150D01*
X51910Y-25149D01*
X51745Y-25218D01*
X51618Y-25344D01*
X51550Y-25510D01*
X51549Y-25689D01*
X51618Y-25854D01*
X51744Y-25981D01*
X51910Y-26049D01*
X52089Y-26050D01*
X52254Y-25981D01*
X52381Y-25855D01*
X52449Y-25689D01*
X52450Y-25510D01*
X52450Y-26510D01*
X52381Y-26345D01*
X52255Y-26218D01*
X52089Y-26150D01*
X51910Y-26149D01*
X51745Y-26218D01*
X51618Y-26344D01*
X51550Y-26510D01*
X51549Y-26689D01*
X51618Y-26854D01*
X51744Y-26981D01*
X51910Y-27049D01*
X52089Y-27050D01*
X52254Y-26981D01*
X52381Y-26855D01*
X52449Y-26689D01*
X52450Y-26510D01*
X52450Y-27510D01*
X52381Y-27345D01*
X52255Y-27218D01*
X52089Y-27150D01*
X51910Y-27149D01*
X51745Y-27218D01*
X51618Y-27344D01*
X51550Y-27510D01*
X51549Y-27689D01*
X51618Y-27854D01*
X51744Y-27981D01*
X51910Y-28049D01*
X51928Y-28049D01*
X51803Y-28074D01*
X51770Y-28157D01*
X52000Y-28387D01*
X52229Y-28157D01*
X52196Y-28074D01*
X52044Y-28050D01*
X52089Y-28050D01*
X52254Y-27981D01*
X52381Y-27855D01*
X52449Y-27689D01*
X52450Y-27510D01*
X52450Y-28373D01*
X52442Y-28370D01*
X52212Y-28600D01*
X52442Y-28829D01*
X52525Y-28796D01*
X52560Y-28580D01*
X52560Y-32464D01*
X52450Y-32353D01*
X52450Y-31510D01*
X52450Y-30510D01*
X52450Y-29510D01*
X52381Y-29345D01*
X52255Y-29218D01*
X52089Y-29150D01*
X52071Y-29150D01*
X52196Y-29125D01*
X52229Y-29042D01*
X52000Y-28812D01*
X51787Y-29024D01*
X51787Y-28600D01*
X51557Y-28370D01*
X51474Y-28403D01*
X51439Y-28619D01*
X51474Y-28796D01*
X51557Y-28829D01*
X51787Y-28600D01*
X51787Y-29024D01*
X51770Y-29042D01*
X51803Y-29125D01*
X51955Y-29149D01*
X51910Y-29149D01*
X51745Y-29218D01*
X51618Y-29344D01*
X51550Y-29510D01*
X51549Y-29689D01*
X51618Y-29854D01*
X51744Y-29981D01*
X51910Y-30049D01*
X52089Y-30050D01*
X52254Y-29981D01*
X52381Y-29855D01*
X52449Y-29689D01*
X52450Y-29510D01*
X52450Y-30510D01*
X52381Y-30345D01*
X52255Y-30218D01*
X52089Y-30150D01*
X51910Y-30149D01*
X51745Y-30218D01*
X51618Y-30344D01*
X51550Y-30510D01*
X51549Y-30689D01*
X51618Y-30854D01*
X51744Y-30981D01*
X51910Y-31049D01*
X52089Y-31050D01*
X52254Y-30981D01*
X52381Y-30855D01*
X52449Y-30689D01*
X52450Y-30510D01*
X52450Y-31510D01*
X52381Y-31345D01*
X52255Y-31218D01*
X52089Y-31150D01*
X51910Y-31149D01*
X51745Y-31218D01*
X51618Y-31344D01*
X51550Y-31510D01*
X51549Y-31689D01*
X51618Y-31854D01*
X51744Y-31981D01*
X51910Y-32049D01*
X52089Y-32050D01*
X52254Y-31981D01*
X52381Y-31855D01*
X52449Y-31689D01*
X52450Y-31510D01*
X52450Y-32353D01*
X52439Y-32343D01*
X52154Y-32225D01*
X51846Y-32224D01*
X51561Y-32342D01*
X51343Y-32560D01*
X51225Y-32845D01*
X51224Y-33153D01*
X51342Y-33438D01*
X51560Y-33656D01*
X51845Y-33774D01*
X52153Y-33775D01*
X52438Y-33657D01*
X52656Y-33439D01*
X52774Y-33154D01*
X52775Y-32846D01*
X52775Y-34450D01*
X50990Y-34450D01*
X50990Y-14951D01*
X50941Y-14831D01*
X50849Y-14740D01*
X50730Y-14690D01*
X50600Y-14690D01*
X50481Y-14740D01*
X50421Y-14800D01*
X50399Y-14800D01*
X50377Y-14748D01*
X50252Y-14622D01*
X50088Y-14554D01*
X49911Y-14554D01*
X49748Y-14622D01*
X49622Y-14747D01*
X49554Y-14911D01*
X49554Y-15088D01*
X49622Y-15251D01*
X49747Y-15377D01*
X49911Y-15445D01*
X50088Y-15445D01*
X50251Y-15377D01*
X50377Y-15252D01*
X50394Y-15211D01*
X50394Y-23949D01*
X50325Y-24018D01*
X50325Y-22935D01*
X50275Y-22816D01*
X50200Y-22740D01*
X50200Y-21509D01*
X50275Y-21434D01*
X50324Y-21314D01*
X50325Y-21185D01*
X50275Y-21066D01*
X50184Y-20974D01*
X50064Y-20925D01*
X49935Y-20924D01*
X49816Y-20974D01*
X49724Y-21065D01*
X49675Y-21185D01*
X49674Y-21314D01*
X49724Y-21433D01*
X49800Y-21509D01*
X49800Y-22740D01*
X49724Y-22815D01*
X49675Y-22935D01*
X49674Y-23064D01*
X49724Y-23183D01*
X49815Y-23275D01*
X49935Y-23324D01*
X50064Y-23325D01*
X50183Y-23275D01*
X50275Y-23184D01*
X50324Y-23064D01*
X50325Y-22935D01*
X50325Y-24018D01*
X50319Y-24024D01*
X50269Y-24143D01*
X50269Y-24273D01*
X50318Y-24392D01*
X50410Y-24484D01*
X50529Y-24533D01*
X50658Y-24533D01*
X50778Y-24484D01*
X50869Y-24392D01*
X50919Y-24273D01*
X50919Y-24144D01*
X50870Y-24024D01*
X50794Y-23948D01*
X50794Y-15314D01*
X50849Y-15291D01*
X50940Y-15200D01*
X50990Y-15080D01*
X50990Y-14951D01*
X50990Y-34450D01*
X49050Y-34450D01*
X49050Y-12050D01*
X71950Y-12050D01*
X71950Y-34450D01*
M02*
