G04 (created by PCBNEW (2013-jul-07)-stable) date Sun Aug 30 17:14:34 2015*
%MOIN*%
G04 Gerber Fmt 3.4, Leading zero omitted, Abs format*
%FSLAX34Y34*%
G01*
G70*
G90*
G04 APERTURE LIST*
%ADD10C,0.00590551*%
%ADD11C,0.1495*%
%ADD12C,0.0590551*%
%ADD13R,0.05X0.061811*%
%ADD14R,0.06X0.06*%
%ADD15C,0.06*%
%ADD16C,0.125*%
G04 APERTURE END LIST*
G54D10*
G54D11*
X27000Y-33500D03*
X27000Y-13000D03*
G54D12*
X27000Y-28000D03*
X27000Y-30000D03*
X27000Y-25000D03*
X27000Y-17000D03*
X27000Y-19000D03*
X27000Y-21000D03*
X27000Y-23000D03*
X67000Y-23000D03*
X27000Y-26000D03*
X27000Y-24000D03*
X27000Y-22000D03*
X27000Y-20000D03*
X27000Y-18000D03*
X27000Y-16000D03*
X43000Y-25000D03*
X27000Y-27000D03*
X27000Y-29000D03*
X27000Y-31000D03*
X27000Y-15000D03*
X69000Y-27000D03*
X69000Y-26000D03*
X69000Y-25000D03*
X69000Y-23000D03*
X35000Y-16000D03*
X64000Y-25000D03*
X60000Y-19000D03*
X60000Y-16000D03*
X50000Y-15000D03*
X61000Y-16000D03*
X44000Y-24000D03*
X64000Y-26000D03*
X59000Y-24000D03*
X62000Y-21000D03*
X59000Y-26000D03*
X63000Y-18000D03*
X60000Y-21000D03*
X57000Y-19000D03*
X40000Y-26000D03*
X42000Y-24000D03*
X41000Y-25000D03*
X43000Y-20000D03*
X45000Y-20000D03*
X43000Y-21000D03*
X36000Y-16000D03*
X37000Y-16000D03*
X42000Y-15000D03*
X42000Y-16000D03*
X41000Y-23000D03*
X38000Y-16000D03*
X34000Y-16000D03*
G54D13*
X44000Y-17608D03*
X43000Y-17608D03*
X45000Y-17608D03*
X45000Y-15391D03*
X44000Y-15391D03*
X43000Y-15391D03*
G54D14*
X41000Y-15000D03*
G54D15*
X40000Y-15000D03*
X39000Y-15000D03*
X38000Y-15000D03*
X37000Y-15000D03*
X36000Y-15000D03*
X35000Y-15000D03*
G54D14*
X25000Y-32000D03*
G54D15*
X25000Y-31000D03*
X25000Y-30000D03*
X25000Y-29000D03*
X25000Y-28000D03*
X25000Y-27000D03*
X25000Y-26000D03*
X25000Y-25000D03*
X25000Y-24000D03*
X25000Y-23000D03*
X25000Y-22000D03*
X25000Y-21000D03*
X25000Y-20000D03*
X25000Y-19000D03*
X25000Y-18000D03*
X25000Y-17000D03*
X25000Y-16000D03*
X25000Y-15000D03*
X71000Y-28000D03*
X71000Y-27000D03*
X71000Y-26000D03*
X71000Y-25000D03*
X71000Y-24000D03*
X71000Y-23000D03*
X71000Y-22000D03*
X71000Y-21000D03*
X71000Y-19000D03*
X71000Y-18000D03*
X71000Y-17000D03*
X71000Y-16000D03*
X71000Y-15000D03*
X71000Y-14000D03*
X60000Y-13950D03*
X61000Y-13950D03*
X62000Y-13950D03*
X62000Y-12950D03*
X61000Y-12950D03*
X60000Y-12950D03*
X52000Y-14000D03*
X52000Y-15000D03*
X52000Y-16000D03*
X52000Y-17000D03*
X52000Y-18000D03*
X52000Y-19000D03*
X52000Y-20000D03*
X52000Y-21000D03*
X52000Y-22600D03*
X52000Y-23600D03*
X52000Y-24600D03*
X52000Y-25600D03*
X52000Y-26600D03*
X52000Y-27600D03*
X52000Y-28600D03*
X52000Y-29600D03*
X52000Y-30600D03*
X52000Y-31600D03*
G54D16*
X52000Y-33000D03*
X58000Y-13000D03*
X71000Y-33500D03*
X69000Y-13000D03*
M02*
