M48
INCH,TZ
T1C0.025
T2C0.039
T3C0.040
%
G90
G05
T1
X028500Y-032000
X029000Y-015000
X029000Y-016000
X029000Y-017000
X029000Y-018000
X029000Y-019000
X029000Y-020000
X029000Y-021000
X029000Y-022000
X029000Y-023000
X029000Y-024000
X029000Y-025000
X029000Y-026000
X029000Y-027000
X029000Y-028000
X029000Y-029000
X029000Y-030000
X029000Y-031000
X031752Y-032031
X032000Y-015000
X032000Y-016000
X032000Y-017000
X032000Y-018000
X032000Y-019000
X032000Y-020000
X032000Y-021000
X032000Y-022000
X032000Y-023250
X032000Y-024000
X032000Y-025000
X032000Y-026000
X032000Y-027000
X032000Y-028000
X032000Y-029000
X032000Y-030000
X032000Y-031000
X032535Y-032264
X034000Y-026500
X034000Y-028303
X034252Y-015024
X034748Y-030878
X035000Y-028287
X035685Y-016744
X035843Y-029630
X036000Y-019201
X036000Y-019750
X036004Y-028307
X036705Y-025091
X036717Y-020398
X037008Y-028323
X037142Y-017559
X037461Y-030272
X037681Y-018638
X037681Y-032087
X038051Y-020449
X038618Y-017890
X038736Y-024457
X038866Y-025866
X039173Y-019594
X039173Y-020817
X039303Y-028594
X039374Y-021559
X039750Y-020250
X040000Y-025000
X040122Y-018669
X040150Y-028728
X040150Y-030228
X040150Y-030882
X040307Y-017370
X040630Y-022228
X040800Y-024200
X040886Y-025969
X041291Y-022035
X041748Y-018543
X041800Y-024400
X041874Y-025193
X042134Y-022366
X042335Y-023063
X043000Y-016500
X043020Y-023390
X043114Y-026705
X043252Y-028236
X043331Y-019343
X043335Y-020335
X043386Y-029016
X043413Y-032106
X043500Y-021000
X043701Y-024610
X043996Y-018988
X044000Y-014500
X044310Y-020356
X044539Y-031091
X044630Y-019130
X044642Y-022720
X044649Y-020930
X044750Y-027750
X045000Y-014500
X049543Y-020535
X050000Y-021250
X050000Y-023000
X050535Y-026098
X050535Y-030890
X050594Y-024209
X050665Y-015016
X053280Y-030642
X053449Y-024220
X054500Y-023000
X054504Y-020996
X054750Y-026600
X056000Y-022000
X056047Y-018130
X056063Y-019748
X056500Y-022500
X057000Y-023250
X057512Y-018650
X057996Y-025750
X058000Y-021000
X058000Y-022750
X058250Y-018750
X058250Y-019750
X059445Y-019319
X059681Y-024890
X060500Y-029250
X061350Y-026760
X061500Y-020250
X061500Y-028750
X061508Y-021835
X061750Y-024750
X063250Y-019250
X063250Y-025250
X063268Y-026425
X064750Y-025750
X065000Y-023250
X066000Y-022750
X066250Y-018750
X066827Y-027240
X066929Y-022441
X068250Y-029500
X068634Y-031012
X069500Y-028750
T2
X052000Y-014000
X052000Y-015000
X052000Y-016000
X052000Y-017000
X052000Y-018000
X052000Y-019000
X052000Y-020000
X052000Y-021000
X052000Y-022600
X052000Y-023600
X052000Y-024600
X052000Y-025600
X052000Y-026600
X052000Y-027600
X052000Y-028600
X052000Y-029600
X052000Y-030600
X052000Y-031600
X060000Y-012950
X060000Y-013950
X061000Y-012950
X061000Y-013950
X062000Y-012950
X062000Y-013950
X071000Y-014000
X071000Y-015000
X071000Y-016000
X071000Y-017000
X071000Y-018000
X071000Y-019000
X071000Y-021000
X071000Y-022000
X071000Y-023000
X071000Y-024000
X071000Y-025000
X071000Y-026000
X071000Y-027000
X071000Y-028000
T3
X025000Y-015000
X025000Y-016000
X025000Y-017000
X025000Y-018000
X025000Y-019000
X025000Y-020000
X025000Y-021000
X025000Y-022000
X025000Y-023000
X025000Y-024000
X025000Y-025000
X025000Y-026000
X025000Y-027000
X025000Y-028000
X025000Y-029000
X025000Y-030000
X025000Y-031000
X025000Y-032000
X035000Y-015000
X036000Y-015000
X037000Y-015000
X038000Y-015000
X039000Y-015000
X040000Y-015000
X041000Y-015000
T0
M30
