G04 (created by PCBNEW (2013-jul-07)-stable) date Sun Aug 30 14:38:05 2015*
%MOIN*%
G04 Gerber Fmt 3.4, Leading zero omitted, Abs format*
%FSLAX34Y34*%
G01*
G70*
G90*
G04 APERTURE LIST*
%ADD10C,0.00590551*%
%ADD11C,0.008*%
%ADD12C,0.011811*%
%ADD13C,0.00787402*%
%ADD14C,0.005*%
%ADD15C,0.1495*%
%ADD16C,0.0590551*%
%ADD17R,0.05X0.061811*%
%ADD18R,0.06X0.06*%
%ADD19C,0.06*%
%ADD20C,0.125*%
G04 APERTURE END LIST*
G54D10*
G54D11*
X36780Y-13095D02*
X36761Y-13057D01*
X36761Y-13000D01*
X36780Y-12942D01*
X36819Y-12904D01*
X36857Y-12885D01*
X36933Y-12866D01*
X36990Y-12866D01*
X37066Y-12885D01*
X37104Y-12904D01*
X37142Y-12942D01*
X37161Y-13000D01*
X37161Y-13038D01*
X37142Y-13095D01*
X37123Y-13114D01*
X36990Y-13114D01*
X36990Y-13038D01*
X37161Y-13285D02*
X36761Y-13285D01*
X37161Y-13514D01*
X36761Y-13514D01*
X37161Y-13704D02*
X36761Y-13704D01*
X36761Y-13800D01*
X36780Y-13857D01*
X36819Y-13895D01*
X36857Y-13914D01*
X36933Y-13933D01*
X36990Y-13933D01*
X37066Y-13914D01*
X37104Y-13895D01*
X37142Y-13857D01*
X37161Y-13800D01*
X37161Y-13704D01*
X37780Y-12559D02*
X37761Y-12521D01*
X37761Y-12464D01*
X37780Y-12407D01*
X37819Y-12369D01*
X37857Y-12350D01*
X37933Y-12330D01*
X37990Y-12330D01*
X38066Y-12350D01*
X38104Y-12369D01*
X38142Y-12407D01*
X38161Y-12464D01*
X38161Y-12502D01*
X38142Y-12559D01*
X38123Y-12578D01*
X37990Y-12578D01*
X37990Y-12502D01*
X38161Y-12750D02*
X37761Y-12750D01*
X37761Y-12902D01*
X37780Y-12940D01*
X37800Y-12959D01*
X37838Y-12978D01*
X37895Y-12978D01*
X37933Y-12959D01*
X37952Y-12940D01*
X37971Y-12902D01*
X37971Y-12750D01*
X38161Y-13150D02*
X37761Y-13150D01*
X37761Y-13416D02*
X37761Y-13492D01*
X37780Y-13530D01*
X37819Y-13569D01*
X37895Y-13588D01*
X38028Y-13588D01*
X38104Y-13569D01*
X38142Y-13530D01*
X38161Y-13492D01*
X38161Y-13416D01*
X38142Y-13378D01*
X38104Y-13340D01*
X38028Y-13321D01*
X37895Y-13321D01*
X37819Y-13340D01*
X37780Y-13378D01*
X37761Y-13416D01*
X37895Y-13930D02*
X38161Y-13930D01*
X37742Y-13835D02*
X38028Y-13740D01*
X38028Y-13988D01*
X38780Y-12559D02*
X38761Y-12521D01*
X38761Y-12464D01*
X38780Y-12407D01*
X38819Y-12369D01*
X38857Y-12350D01*
X38933Y-12330D01*
X38990Y-12330D01*
X39066Y-12350D01*
X39104Y-12369D01*
X39142Y-12407D01*
X39161Y-12464D01*
X39161Y-12502D01*
X39142Y-12559D01*
X39123Y-12578D01*
X38990Y-12578D01*
X38990Y-12502D01*
X39161Y-12750D02*
X38761Y-12750D01*
X38761Y-12902D01*
X38780Y-12940D01*
X38800Y-12959D01*
X38838Y-12978D01*
X38895Y-12978D01*
X38933Y-12959D01*
X38952Y-12940D01*
X38971Y-12902D01*
X38971Y-12750D01*
X39161Y-13150D02*
X38761Y-13150D01*
X38761Y-13416D02*
X38761Y-13492D01*
X38780Y-13530D01*
X38819Y-13569D01*
X38895Y-13588D01*
X39028Y-13588D01*
X39104Y-13569D01*
X39142Y-13530D01*
X39161Y-13492D01*
X39161Y-13416D01*
X39142Y-13378D01*
X39104Y-13340D01*
X39028Y-13321D01*
X38895Y-13321D01*
X38819Y-13340D01*
X38780Y-13378D01*
X38761Y-13416D01*
X38761Y-13721D02*
X38761Y-13969D01*
X38914Y-13835D01*
X38914Y-13892D01*
X38933Y-13930D01*
X38952Y-13950D01*
X38990Y-13969D01*
X39085Y-13969D01*
X39123Y-13950D01*
X39142Y-13930D01*
X39161Y-13892D01*
X39161Y-13778D01*
X39142Y-13740D01*
X39123Y-13721D01*
X39780Y-12559D02*
X39761Y-12521D01*
X39761Y-12464D01*
X39780Y-12407D01*
X39819Y-12369D01*
X39857Y-12350D01*
X39933Y-12330D01*
X39990Y-12330D01*
X40066Y-12350D01*
X40104Y-12369D01*
X40142Y-12407D01*
X40161Y-12464D01*
X40161Y-12502D01*
X40142Y-12559D01*
X40123Y-12578D01*
X39990Y-12578D01*
X39990Y-12502D01*
X40161Y-12750D02*
X39761Y-12750D01*
X39761Y-12902D01*
X39780Y-12940D01*
X39800Y-12959D01*
X39838Y-12978D01*
X39895Y-12978D01*
X39933Y-12959D01*
X39952Y-12940D01*
X39971Y-12902D01*
X39971Y-12750D01*
X40161Y-13150D02*
X39761Y-13150D01*
X39761Y-13416D02*
X39761Y-13492D01*
X39780Y-13530D01*
X39819Y-13569D01*
X39895Y-13588D01*
X40028Y-13588D01*
X40104Y-13569D01*
X40142Y-13530D01*
X40161Y-13492D01*
X40161Y-13416D01*
X40142Y-13378D01*
X40104Y-13340D01*
X40028Y-13321D01*
X39895Y-13321D01*
X39819Y-13340D01*
X39780Y-13378D01*
X39761Y-13416D01*
X39800Y-13740D02*
X39780Y-13759D01*
X39761Y-13797D01*
X39761Y-13892D01*
X39780Y-13930D01*
X39800Y-13950D01*
X39838Y-13969D01*
X39876Y-13969D01*
X39933Y-13950D01*
X40161Y-13721D01*
X40161Y-13969D01*
X40880Y-12559D02*
X40861Y-12521D01*
X40861Y-12464D01*
X40880Y-12407D01*
X40919Y-12369D01*
X40957Y-12350D01*
X41033Y-12330D01*
X41090Y-12330D01*
X41166Y-12350D01*
X41204Y-12369D01*
X41242Y-12407D01*
X41261Y-12464D01*
X41261Y-12502D01*
X41242Y-12559D01*
X41223Y-12578D01*
X41090Y-12578D01*
X41090Y-12502D01*
X41261Y-12750D02*
X40861Y-12750D01*
X40861Y-12902D01*
X40880Y-12940D01*
X40900Y-12959D01*
X40938Y-12978D01*
X40995Y-12978D01*
X41033Y-12959D01*
X41052Y-12940D01*
X41071Y-12902D01*
X41071Y-12750D01*
X41261Y-13150D02*
X40861Y-13150D01*
X40861Y-13416D02*
X40861Y-13492D01*
X40880Y-13530D01*
X40919Y-13569D01*
X40995Y-13588D01*
X41128Y-13588D01*
X41204Y-13569D01*
X41242Y-13530D01*
X41261Y-13492D01*
X41261Y-13416D01*
X41242Y-13378D01*
X41204Y-13340D01*
X41128Y-13321D01*
X40995Y-13321D01*
X40919Y-13340D01*
X40880Y-13378D01*
X40861Y-13416D01*
X41261Y-13969D02*
X41261Y-13740D01*
X41261Y-13854D02*
X40861Y-13854D01*
X40919Y-13816D01*
X40957Y-13778D01*
X40976Y-13740D01*
X35047Y-12583D02*
X35047Y-12773D01*
X35161Y-12545D02*
X34761Y-12678D01*
X35161Y-12811D01*
X34761Y-12888D02*
X35161Y-13021D01*
X34761Y-13154D01*
X35123Y-13516D02*
X35142Y-13497D01*
X35161Y-13440D01*
X35161Y-13402D01*
X35142Y-13345D01*
X35104Y-13307D01*
X35066Y-13288D01*
X34990Y-13269D01*
X34933Y-13269D01*
X34857Y-13288D01*
X34819Y-13307D01*
X34780Y-13345D01*
X34761Y-13402D01*
X34761Y-13440D01*
X34780Y-13497D01*
X34800Y-13516D01*
X35123Y-13916D02*
X35142Y-13897D01*
X35161Y-13840D01*
X35161Y-13802D01*
X35142Y-13745D01*
X35104Y-13707D01*
X35066Y-13688D01*
X34990Y-13669D01*
X34933Y-13669D01*
X34857Y-13688D01*
X34819Y-13707D01*
X34780Y-13745D01*
X34761Y-13802D01*
X34761Y-13840D01*
X34780Y-13897D01*
X34800Y-13916D01*
X62076Y-31161D02*
X62076Y-30895D01*
X62076Y-30971D02*
X62057Y-30933D01*
X62038Y-30914D01*
X61999Y-30895D01*
X61961Y-30895D01*
X61676Y-31142D02*
X61714Y-31161D01*
X61790Y-31161D01*
X61828Y-31142D01*
X61847Y-31104D01*
X61847Y-30952D01*
X61828Y-30914D01*
X61790Y-30895D01*
X61714Y-30895D01*
X61676Y-30914D01*
X61657Y-30952D01*
X61657Y-30990D01*
X61847Y-31028D01*
X61523Y-30895D02*
X61428Y-31161D01*
X61333Y-30895D01*
X61180Y-31123D02*
X61161Y-31142D01*
X61180Y-31161D01*
X61200Y-31142D01*
X61180Y-31123D01*
X61180Y-31161D01*
X60609Y-30761D02*
X60571Y-30761D01*
X60533Y-30780D01*
X60514Y-30800D01*
X60495Y-30838D01*
X60476Y-30914D01*
X60476Y-31009D01*
X60495Y-31085D01*
X60514Y-31123D01*
X60533Y-31142D01*
X60571Y-31161D01*
X60609Y-31161D01*
X60647Y-31142D01*
X60666Y-31123D01*
X60685Y-31085D01*
X60704Y-31009D01*
X60704Y-30914D01*
X60685Y-30838D01*
X60666Y-30800D01*
X60647Y-30780D01*
X60609Y-30761D01*
X60304Y-31123D02*
X60285Y-31142D01*
X60304Y-31161D01*
X60323Y-31142D01*
X60304Y-31123D01*
X60304Y-31161D01*
X59904Y-31161D02*
X60133Y-31161D01*
X60019Y-31161D02*
X60019Y-30761D01*
X60057Y-30819D01*
X60095Y-30857D01*
X60133Y-30876D01*
X44957Y-33961D02*
X45147Y-33961D01*
X45147Y-33561D01*
X44823Y-33961D02*
X44823Y-33695D01*
X44823Y-33561D02*
X44842Y-33580D01*
X44823Y-33600D01*
X44804Y-33580D01*
X44823Y-33561D01*
X44823Y-33600D01*
X44461Y-33942D02*
X44499Y-33961D01*
X44576Y-33961D01*
X44614Y-33942D01*
X44633Y-33923D01*
X44652Y-33885D01*
X44652Y-33771D01*
X44633Y-33733D01*
X44614Y-33714D01*
X44576Y-33695D01*
X44499Y-33695D01*
X44461Y-33714D01*
X44138Y-33942D02*
X44176Y-33961D01*
X44252Y-33961D01*
X44290Y-33942D01*
X44309Y-33904D01*
X44309Y-33752D01*
X44290Y-33714D01*
X44252Y-33695D01*
X44176Y-33695D01*
X44138Y-33714D01*
X44119Y-33752D01*
X44119Y-33790D01*
X44309Y-33828D01*
X43947Y-33695D02*
X43947Y-33961D01*
X43947Y-33733D02*
X43928Y-33714D01*
X43890Y-33695D01*
X43833Y-33695D01*
X43795Y-33714D01*
X43776Y-33752D01*
X43776Y-33961D01*
X43604Y-33942D02*
X43566Y-33961D01*
X43490Y-33961D01*
X43452Y-33942D01*
X43433Y-33904D01*
X43433Y-33885D01*
X43452Y-33847D01*
X43490Y-33828D01*
X43547Y-33828D01*
X43585Y-33809D01*
X43604Y-33771D01*
X43604Y-33752D01*
X43585Y-33714D01*
X43547Y-33695D01*
X43490Y-33695D01*
X43452Y-33714D01*
X43109Y-33942D02*
X43147Y-33961D01*
X43223Y-33961D01*
X43261Y-33942D01*
X43280Y-33904D01*
X43280Y-33752D01*
X43261Y-33714D01*
X43223Y-33695D01*
X43147Y-33695D01*
X43109Y-33714D01*
X43090Y-33752D01*
X43090Y-33790D01*
X43280Y-33828D01*
X42747Y-33961D02*
X42747Y-33561D01*
X42747Y-33942D02*
X42785Y-33961D01*
X42861Y-33961D01*
X42899Y-33942D01*
X42919Y-33923D01*
X42938Y-33885D01*
X42938Y-33771D01*
X42919Y-33733D01*
X42899Y-33714D01*
X42861Y-33695D01*
X42785Y-33695D01*
X42747Y-33714D01*
X42080Y-33695D02*
X42080Y-33961D01*
X42252Y-33695D02*
X42252Y-33904D01*
X42233Y-33942D01*
X42195Y-33961D01*
X42138Y-33961D01*
X42099Y-33942D01*
X42080Y-33923D01*
X41890Y-33695D02*
X41890Y-33961D01*
X41890Y-33733D02*
X41871Y-33714D01*
X41833Y-33695D01*
X41776Y-33695D01*
X41738Y-33714D01*
X41719Y-33752D01*
X41719Y-33961D01*
X41357Y-33961D02*
X41357Y-33561D01*
X41357Y-33942D02*
X41395Y-33961D01*
X41471Y-33961D01*
X41509Y-33942D01*
X41528Y-33923D01*
X41547Y-33885D01*
X41547Y-33771D01*
X41528Y-33733D01*
X41509Y-33714D01*
X41471Y-33695D01*
X41395Y-33695D01*
X41357Y-33714D01*
X41014Y-33942D02*
X41052Y-33961D01*
X41128Y-33961D01*
X41166Y-33942D01*
X41185Y-33904D01*
X41185Y-33752D01*
X41166Y-33714D01*
X41128Y-33695D01*
X41052Y-33695D01*
X41014Y-33714D01*
X40995Y-33752D01*
X40995Y-33790D01*
X41185Y-33828D01*
X40823Y-33961D02*
X40823Y-33695D01*
X40823Y-33771D02*
X40804Y-33733D01*
X40785Y-33714D01*
X40747Y-33695D01*
X40709Y-33695D01*
X40042Y-33923D02*
X40061Y-33942D01*
X40119Y-33961D01*
X40157Y-33961D01*
X40214Y-33942D01*
X40252Y-33904D01*
X40271Y-33866D01*
X40290Y-33790D01*
X40290Y-33733D01*
X40271Y-33657D01*
X40252Y-33619D01*
X40214Y-33580D01*
X40157Y-33561D01*
X40119Y-33561D01*
X40061Y-33580D01*
X40042Y-33600D01*
X39871Y-33752D02*
X39738Y-33752D01*
X39680Y-33961D02*
X39871Y-33961D01*
X39871Y-33561D01*
X39680Y-33561D01*
X39280Y-33961D02*
X39414Y-33771D01*
X39509Y-33961D02*
X39509Y-33561D01*
X39357Y-33561D01*
X39319Y-33580D01*
X39300Y-33600D01*
X39280Y-33638D01*
X39280Y-33695D01*
X39300Y-33733D01*
X39319Y-33752D01*
X39357Y-33771D01*
X39509Y-33771D01*
X39109Y-33961D02*
X39109Y-33561D01*
X38880Y-33961D01*
X38880Y-33561D01*
X38309Y-33561D02*
X38233Y-33561D01*
X38195Y-33580D01*
X38157Y-33619D01*
X38138Y-33695D01*
X38138Y-33828D01*
X38157Y-33904D01*
X38195Y-33942D01*
X38233Y-33961D01*
X38309Y-33961D01*
X38347Y-33942D01*
X38385Y-33904D01*
X38404Y-33828D01*
X38404Y-33695D01*
X38385Y-33619D01*
X38347Y-33580D01*
X38309Y-33561D01*
X37966Y-33961D02*
X37966Y-33561D01*
X37966Y-33752D02*
X37738Y-33752D01*
X37738Y-33961D02*
X37738Y-33561D01*
X37357Y-33961D02*
X37547Y-33961D01*
X37547Y-33561D01*
X36957Y-33695D02*
X36861Y-33961D01*
X36766Y-33695D01*
X36614Y-33923D02*
X36595Y-33942D01*
X36614Y-33961D01*
X36633Y-33942D01*
X36614Y-33923D01*
X36614Y-33961D01*
X36214Y-33961D02*
X36442Y-33961D01*
X36328Y-33961D02*
X36328Y-33561D01*
X36366Y-33619D01*
X36404Y-33657D01*
X36442Y-33676D01*
X36042Y-33923D02*
X36023Y-33942D01*
X36042Y-33961D01*
X36061Y-33942D01*
X36042Y-33923D01*
X36042Y-33961D01*
X35871Y-33600D02*
X35852Y-33580D01*
X35814Y-33561D01*
X35719Y-33561D01*
X35680Y-33580D01*
X35661Y-33600D01*
X35642Y-33638D01*
X35642Y-33676D01*
X35661Y-33733D01*
X35890Y-33961D01*
X35642Y-33961D01*
X35109Y-33961D02*
X35147Y-33942D01*
X35166Y-33923D01*
X35185Y-33885D01*
X35185Y-33771D01*
X35166Y-33733D01*
X35147Y-33714D01*
X35109Y-33695D01*
X35052Y-33695D01*
X35014Y-33714D01*
X34995Y-33733D01*
X34976Y-33771D01*
X34976Y-33885D01*
X34995Y-33923D01*
X35014Y-33942D01*
X35052Y-33961D01*
X35109Y-33961D01*
X34804Y-33961D02*
X34804Y-33695D01*
X34804Y-33771D02*
X34785Y-33733D01*
X34766Y-33714D01*
X34728Y-33695D01*
X34690Y-33695D01*
X34195Y-33961D02*
X34233Y-33942D01*
X34252Y-33904D01*
X34252Y-33561D01*
X33871Y-33961D02*
X33871Y-33752D01*
X33890Y-33714D01*
X33928Y-33695D01*
X34004Y-33695D01*
X34042Y-33714D01*
X33871Y-33942D02*
X33909Y-33961D01*
X34004Y-33961D01*
X34042Y-33942D01*
X34061Y-33904D01*
X34061Y-33866D01*
X34042Y-33828D01*
X34004Y-33809D01*
X33909Y-33809D01*
X33871Y-33790D01*
X33738Y-33695D02*
X33585Y-33695D01*
X33680Y-33561D02*
X33680Y-33904D01*
X33661Y-33942D01*
X33623Y-33961D01*
X33585Y-33961D01*
X33300Y-33942D02*
X33338Y-33961D01*
X33414Y-33961D01*
X33452Y-33942D01*
X33471Y-33904D01*
X33471Y-33752D01*
X33452Y-33714D01*
X33414Y-33695D01*
X33338Y-33695D01*
X33300Y-33714D01*
X33280Y-33752D01*
X33280Y-33790D01*
X33471Y-33828D01*
X33109Y-33961D02*
X33109Y-33695D01*
X33109Y-33771D02*
X33090Y-33733D01*
X33071Y-33714D01*
X33033Y-33695D01*
X32995Y-33695D01*
X42709Y-34601D02*
X42709Y-34201D01*
X42538Y-34601D02*
X42538Y-34392D01*
X42557Y-34354D01*
X42595Y-34335D01*
X42652Y-34335D01*
X42690Y-34354D01*
X42709Y-34373D01*
X42404Y-34335D02*
X42252Y-34335D01*
X42347Y-34201D02*
X42347Y-34544D01*
X42328Y-34582D01*
X42290Y-34601D01*
X42252Y-34601D01*
X42176Y-34335D02*
X42023Y-34335D01*
X42119Y-34201D02*
X42119Y-34544D01*
X42099Y-34582D01*
X42061Y-34601D01*
X42023Y-34601D01*
X41890Y-34335D02*
X41890Y-34735D01*
X41890Y-34354D02*
X41852Y-34335D01*
X41776Y-34335D01*
X41738Y-34354D01*
X41719Y-34373D01*
X41700Y-34411D01*
X41700Y-34525D01*
X41719Y-34563D01*
X41738Y-34582D01*
X41776Y-34601D01*
X41852Y-34601D01*
X41890Y-34582D01*
X41528Y-34563D02*
X41509Y-34582D01*
X41528Y-34601D01*
X41547Y-34582D01*
X41528Y-34563D01*
X41528Y-34601D01*
X41528Y-34354D02*
X41509Y-34373D01*
X41528Y-34392D01*
X41547Y-34373D01*
X41528Y-34354D01*
X41528Y-34392D01*
X41052Y-34182D02*
X41395Y-34697D01*
X40633Y-34182D02*
X40976Y-34697D01*
X40442Y-34601D02*
X40480Y-34582D01*
X40499Y-34563D01*
X40519Y-34525D01*
X40519Y-34411D01*
X40499Y-34373D01*
X40480Y-34354D01*
X40442Y-34335D01*
X40385Y-34335D01*
X40347Y-34354D01*
X40328Y-34373D01*
X40309Y-34411D01*
X40309Y-34525D01*
X40328Y-34563D01*
X40347Y-34582D01*
X40385Y-34601D01*
X40442Y-34601D01*
X40138Y-34601D02*
X40138Y-34201D01*
X39966Y-34601D02*
X39966Y-34392D01*
X39985Y-34354D01*
X40023Y-34335D01*
X40080Y-34335D01*
X40119Y-34354D01*
X40138Y-34373D01*
X39814Y-34335D02*
X39738Y-34601D01*
X39661Y-34411D01*
X39585Y-34601D01*
X39509Y-34335D01*
X39357Y-34601D02*
X39357Y-34335D01*
X39357Y-34411D02*
X39338Y-34373D01*
X39319Y-34354D01*
X39280Y-34335D01*
X39242Y-34335D01*
X39109Y-34563D02*
X39090Y-34582D01*
X39109Y-34601D01*
X39128Y-34582D01*
X39109Y-34563D01*
X39109Y-34601D01*
X38861Y-34601D02*
X38899Y-34582D01*
X38919Y-34563D01*
X38938Y-34525D01*
X38938Y-34411D01*
X38919Y-34373D01*
X38899Y-34354D01*
X38861Y-34335D01*
X38804Y-34335D01*
X38766Y-34354D01*
X38747Y-34373D01*
X38728Y-34411D01*
X38728Y-34525D01*
X38747Y-34563D01*
X38766Y-34582D01*
X38804Y-34601D01*
X38861Y-34601D01*
X38557Y-34601D02*
X38557Y-34335D01*
X38557Y-34411D02*
X38538Y-34373D01*
X38519Y-34354D01*
X38480Y-34335D01*
X38442Y-34335D01*
X38138Y-34335D02*
X38138Y-34659D01*
X38157Y-34697D01*
X38176Y-34716D01*
X38214Y-34735D01*
X38271Y-34735D01*
X38309Y-34716D01*
X38138Y-34582D02*
X38176Y-34601D01*
X38252Y-34601D01*
X38290Y-34582D01*
X38309Y-34563D01*
X38328Y-34525D01*
X38328Y-34411D01*
X38309Y-34373D01*
X38290Y-34354D01*
X38252Y-34335D01*
X38176Y-34335D01*
X38138Y-34354D01*
X37661Y-34182D02*
X38004Y-34697D01*
X37357Y-34582D02*
X37395Y-34601D01*
X37471Y-34601D01*
X37509Y-34582D01*
X37528Y-34563D01*
X37547Y-34525D01*
X37547Y-34411D01*
X37528Y-34373D01*
X37509Y-34354D01*
X37471Y-34335D01*
X37395Y-34335D01*
X37357Y-34354D01*
X37033Y-34582D02*
X37071Y-34601D01*
X37147Y-34601D01*
X37185Y-34582D01*
X37204Y-34544D01*
X37204Y-34392D01*
X37185Y-34354D01*
X37147Y-34335D01*
X37071Y-34335D01*
X37033Y-34354D01*
X37014Y-34392D01*
X37014Y-34430D01*
X37204Y-34468D01*
X36842Y-34601D02*
X36842Y-34335D01*
X36842Y-34411D02*
X36823Y-34373D01*
X36804Y-34354D01*
X36766Y-34335D01*
X36728Y-34335D01*
X36595Y-34335D02*
X36595Y-34601D01*
X36595Y-34373D02*
X36576Y-34354D01*
X36538Y-34335D01*
X36480Y-34335D01*
X36442Y-34354D01*
X36423Y-34392D01*
X36423Y-34601D01*
X36176Y-34601D02*
X36214Y-34582D01*
X36233Y-34563D01*
X36252Y-34525D01*
X36252Y-34411D01*
X36233Y-34373D01*
X36214Y-34354D01*
X36176Y-34335D01*
X36119Y-34335D01*
X36080Y-34354D01*
X36061Y-34373D01*
X36042Y-34411D01*
X36042Y-34525D01*
X36061Y-34563D01*
X36080Y-34582D01*
X36119Y-34601D01*
X36176Y-34601D01*
X35871Y-34601D02*
X35871Y-34201D01*
X35700Y-34601D02*
X35700Y-34392D01*
X35719Y-34354D01*
X35757Y-34335D01*
X35814Y-34335D01*
X35852Y-34354D01*
X35871Y-34373D01*
X35452Y-34601D02*
X35490Y-34582D01*
X35509Y-34544D01*
X35509Y-34201D01*
X69649Y-34761D02*
X69649Y-34361D01*
X69478Y-34761D02*
X69478Y-34552D01*
X69497Y-34514D01*
X69535Y-34495D01*
X69592Y-34495D01*
X69630Y-34514D01*
X69649Y-34533D01*
X69345Y-34495D02*
X69192Y-34495D01*
X69288Y-34361D02*
X69288Y-34704D01*
X69269Y-34742D01*
X69230Y-34761D01*
X69192Y-34761D01*
X69116Y-34495D02*
X68964Y-34495D01*
X69059Y-34361D02*
X69059Y-34704D01*
X69040Y-34742D01*
X69002Y-34761D01*
X68964Y-34761D01*
X68830Y-34495D02*
X68830Y-34895D01*
X68830Y-34514D02*
X68792Y-34495D01*
X68716Y-34495D01*
X68678Y-34514D01*
X68659Y-34533D01*
X68640Y-34571D01*
X68640Y-34685D01*
X68659Y-34723D01*
X68678Y-34742D01*
X68716Y-34761D01*
X68792Y-34761D01*
X68830Y-34742D01*
X68469Y-34723D02*
X68449Y-34742D01*
X68469Y-34761D01*
X68488Y-34742D01*
X68469Y-34723D01*
X68469Y-34761D01*
X68469Y-34514D02*
X68449Y-34533D01*
X68469Y-34552D01*
X68488Y-34533D01*
X68469Y-34514D01*
X68469Y-34552D01*
X67992Y-34342D02*
X68335Y-34857D01*
X67573Y-34342D02*
X67916Y-34857D01*
X67383Y-34761D02*
X67421Y-34742D01*
X67440Y-34723D01*
X67459Y-34685D01*
X67459Y-34571D01*
X67440Y-34533D01*
X67421Y-34514D01*
X67383Y-34495D01*
X67326Y-34495D01*
X67288Y-34514D01*
X67269Y-34533D01*
X67249Y-34571D01*
X67249Y-34685D01*
X67269Y-34723D01*
X67288Y-34742D01*
X67326Y-34761D01*
X67383Y-34761D01*
X67078Y-34495D02*
X67078Y-34895D01*
X67078Y-34514D02*
X67040Y-34495D01*
X66964Y-34495D01*
X66926Y-34514D01*
X66907Y-34533D01*
X66888Y-34571D01*
X66888Y-34685D01*
X66907Y-34723D01*
X66926Y-34742D01*
X66964Y-34761D01*
X67040Y-34761D01*
X67078Y-34742D01*
X66564Y-34742D02*
X66602Y-34761D01*
X66678Y-34761D01*
X66716Y-34742D01*
X66735Y-34704D01*
X66735Y-34552D01*
X66716Y-34514D01*
X66678Y-34495D01*
X66602Y-34495D01*
X66564Y-34514D01*
X66545Y-34552D01*
X66545Y-34590D01*
X66735Y-34628D01*
X66373Y-34495D02*
X66373Y-34761D01*
X66373Y-34533D02*
X66354Y-34514D01*
X66316Y-34495D01*
X66259Y-34495D01*
X66221Y-34514D01*
X66202Y-34552D01*
X66202Y-34761D01*
X65859Y-34742D02*
X65897Y-34761D01*
X65973Y-34761D01*
X66011Y-34742D01*
X66030Y-34704D01*
X66030Y-34552D01*
X66011Y-34514D01*
X65973Y-34495D01*
X65897Y-34495D01*
X65859Y-34514D01*
X65840Y-34552D01*
X65840Y-34590D01*
X66030Y-34628D01*
X65611Y-34761D02*
X65649Y-34742D01*
X65669Y-34704D01*
X65669Y-34361D01*
X65307Y-34742D02*
X65345Y-34761D01*
X65421Y-34761D01*
X65459Y-34742D01*
X65478Y-34704D01*
X65478Y-34552D01*
X65459Y-34514D01*
X65421Y-34495D01*
X65345Y-34495D01*
X65307Y-34514D01*
X65288Y-34552D01*
X65288Y-34590D01*
X65478Y-34628D01*
X64945Y-34742D02*
X64983Y-34761D01*
X65059Y-34761D01*
X65097Y-34742D01*
X65116Y-34723D01*
X65135Y-34685D01*
X65135Y-34571D01*
X65116Y-34533D01*
X65097Y-34514D01*
X65059Y-34495D01*
X64983Y-34495D01*
X64945Y-34514D01*
X64830Y-34495D02*
X64678Y-34495D01*
X64773Y-34361D02*
X64773Y-34704D01*
X64754Y-34742D01*
X64716Y-34761D01*
X64678Y-34761D01*
X64545Y-34761D02*
X64545Y-34495D01*
X64545Y-34571D02*
X64526Y-34533D01*
X64507Y-34514D01*
X64469Y-34495D01*
X64430Y-34495D01*
X64240Y-34761D02*
X64278Y-34742D01*
X64297Y-34723D01*
X64316Y-34685D01*
X64316Y-34571D01*
X64297Y-34533D01*
X64278Y-34514D01*
X64240Y-34495D01*
X64183Y-34495D01*
X64145Y-34514D01*
X64126Y-34533D01*
X64107Y-34571D01*
X64107Y-34685D01*
X64126Y-34723D01*
X64145Y-34742D01*
X64183Y-34761D01*
X64240Y-34761D01*
X63935Y-34495D02*
X63935Y-34761D01*
X63935Y-34533D02*
X63916Y-34514D01*
X63878Y-34495D01*
X63821Y-34495D01*
X63783Y-34514D01*
X63764Y-34552D01*
X63764Y-34761D01*
X63573Y-34761D02*
X63573Y-34495D01*
X63573Y-34361D02*
X63592Y-34380D01*
X63573Y-34400D01*
X63554Y-34380D01*
X63573Y-34361D01*
X63573Y-34400D01*
X63211Y-34742D02*
X63250Y-34761D01*
X63326Y-34761D01*
X63364Y-34742D01*
X63383Y-34723D01*
X63402Y-34685D01*
X63402Y-34571D01*
X63383Y-34533D01*
X63364Y-34514D01*
X63326Y-34495D01*
X63250Y-34495D01*
X63211Y-34514D01*
X63059Y-34742D02*
X63021Y-34761D01*
X62945Y-34761D01*
X62907Y-34742D01*
X62888Y-34704D01*
X62888Y-34685D01*
X62907Y-34647D01*
X62945Y-34628D01*
X63002Y-34628D01*
X63040Y-34609D01*
X63059Y-34571D01*
X63059Y-34552D01*
X63040Y-34514D01*
X63002Y-34495D01*
X62945Y-34495D01*
X62907Y-34514D01*
X62659Y-34761D02*
X62697Y-34742D01*
X62716Y-34704D01*
X62716Y-34361D01*
X62335Y-34761D02*
X62335Y-34552D01*
X62354Y-34514D01*
X62392Y-34495D01*
X62469Y-34495D01*
X62507Y-34514D01*
X62335Y-34742D02*
X62373Y-34761D01*
X62469Y-34761D01*
X62507Y-34742D01*
X62526Y-34704D01*
X62526Y-34666D01*
X62507Y-34628D01*
X62469Y-34609D01*
X62373Y-34609D01*
X62335Y-34590D01*
X62145Y-34761D02*
X62145Y-34361D01*
X62145Y-34514D02*
X62107Y-34495D01*
X62030Y-34495D01*
X61992Y-34514D01*
X61973Y-34533D01*
X61954Y-34571D01*
X61954Y-34685D01*
X61973Y-34723D01*
X61992Y-34742D01*
X62030Y-34761D01*
X62107Y-34761D01*
X62145Y-34742D01*
X61783Y-34723D02*
X61764Y-34742D01*
X61783Y-34761D01*
X61802Y-34742D01*
X61783Y-34723D01*
X61783Y-34761D01*
X61421Y-34495D02*
X61421Y-34819D01*
X61440Y-34857D01*
X61459Y-34876D01*
X61497Y-34895D01*
X61554Y-34895D01*
X61592Y-34876D01*
X61421Y-34742D02*
X61459Y-34761D01*
X61535Y-34761D01*
X61573Y-34742D01*
X61592Y-34723D01*
X61611Y-34685D01*
X61611Y-34571D01*
X61592Y-34533D01*
X61573Y-34514D01*
X61535Y-34495D01*
X61459Y-34495D01*
X61421Y-34514D01*
X61230Y-34761D02*
X61230Y-34495D01*
X61230Y-34361D02*
X61250Y-34380D01*
X61230Y-34400D01*
X61211Y-34380D01*
X61230Y-34361D01*
X61230Y-34400D01*
X61097Y-34495D02*
X60945Y-34495D01*
X61040Y-34361D02*
X61040Y-34704D01*
X61021Y-34742D01*
X60983Y-34761D01*
X60945Y-34761D01*
X60811Y-34761D02*
X60811Y-34361D01*
X60640Y-34761D02*
X60640Y-34552D01*
X60659Y-34514D01*
X60697Y-34495D01*
X60754Y-34495D01*
X60792Y-34514D01*
X60811Y-34533D01*
X60278Y-34495D02*
X60278Y-34761D01*
X60450Y-34495D02*
X60450Y-34704D01*
X60430Y-34742D01*
X60392Y-34761D01*
X60335Y-34761D01*
X60297Y-34742D01*
X60278Y-34723D01*
X60088Y-34761D02*
X60088Y-34361D01*
X60088Y-34514D02*
X60050Y-34495D01*
X59973Y-34495D01*
X59935Y-34514D01*
X59916Y-34533D01*
X59897Y-34571D01*
X59897Y-34685D01*
X59916Y-34723D01*
X59935Y-34742D01*
X59973Y-34761D01*
X60050Y-34761D01*
X60088Y-34742D01*
X59726Y-34723D02*
X59707Y-34742D01*
X59726Y-34761D01*
X59745Y-34742D01*
X59726Y-34723D01*
X59726Y-34761D01*
X59535Y-34761D02*
X59535Y-34495D01*
X59535Y-34361D02*
X59554Y-34380D01*
X59535Y-34400D01*
X59516Y-34380D01*
X59535Y-34361D01*
X59535Y-34400D01*
X59288Y-34761D02*
X59326Y-34742D01*
X59345Y-34723D01*
X59364Y-34685D01*
X59364Y-34571D01*
X59345Y-34533D01*
X59326Y-34514D01*
X59288Y-34495D01*
X59230Y-34495D01*
X59192Y-34514D01*
X59173Y-34533D01*
X59154Y-34571D01*
X59154Y-34685D01*
X59173Y-34723D01*
X59192Y-34742D01*
X59230Y-34761D01*
X59288Y-34761D01*
X58697Y-34342D02*
X59040Y-34857D01*
X58488Y-34361D02*
X58411Y-34361D01*
X58373Y-34380D01*
X58335Y-34419D01*
X58316Y-34495D01*
X58316Y-34628D01*
X58335Y-34704D01*
X58373Y-34742D01*
X58411Y-34761D01*
X58488Y-34761D01*
X58526Y-34742D01*
X58564Y-34704D01*
X58583Y-34628D01*
X58583Y-34495D01*
X58564Y-34419D01*
X58526Y-34380D01*
X58488Y-34361D01*
X58145Y-34495D02*
X58145Y-34895D01*
X58145Y-34514D02*
X58107Y-34495D01*
X58030Y-34495D01*
X57992Y-34514D01*
X57973Y-34533D01*
X57954Y-34571D01*
X57954Y-34685D01*
X57973Y-34723D01*
X57992Y-34742D01*
X58030Y-34761D01*
X58107Y-34761D01*
X58145Y-34742D01*
X57630Y-34742D02*
X57669Y-34761D01*
X57745Y-34761D01*
X57783Y-34742D01*
X57802Y-34704D01*
X57802Y-34552D01*
X57783Y-34514D01*
X57745Y-34495D01*
X57669Y-34495D01*
X57630Y-34514D01*
X57611Y-34552D01*
X57611Y-34590D01*
X57802Y-34628D01*
X57440Y-34495D02*
X57440Y-34761D01*
X57440Y-34533D02*
X57421Y-34514D01*
X57383Y-34495D01*
X57326Y-34495D01*
X57288Y-34514D01*
X57269Y-34552D01*
X57269Y-34761D01*
X57078Y-34761D02*
X57078Y-34361D01*
X57078Y-34552D02*
X56850Y-34552D01*
X56850Y-34761D02*
X56850Y-34361D01*
X56488Y-34761D02*
X56488Y-34552D01*
X56507Y-34514D01*
X56545Y-34495D01*
X56621Y-34495D01*
X56659Y-34514D01*
X56488Y-34742D02*
X56526Y-34761D01*
X56621Y-34761D01*
X56659Y-34742D01*
X56678Y-34704D01*
X56678Y-34666D01*
X56659Y-34628D01*
X56621Y-34609D01*
X56526Y-34609D01*
X56488Y-34590D01*
X56297Y-34761D02*
X56297Y-34495D01*
X56297Y-34571D02*
X56278Y-34533D01*
X56259Y-34514D01*
X56221Y-34495D01*
X56183Y-34495D01*
X55878Y-34761D02*
X55878Y-34361D01*
X55878Y-34742D02*
X55916Y-34761D01*
X55992Y-34761D01*
X56030Y-34742D01*
X56050Y-34723D01*
X56069Y-34685D01*
X56069Y-34571D01*
X56050Y-34533D01*
X56030Y-34514D01*
X55992Y-34495D01*
X55916Y-34495D01*
X55878Y-34514D01*
X55726Y-34495D02*
X55650Y-34761D01*
X55573Y-34571D01*
X55497Y-34761D01*
X55421Y-34495D01*
X55097Y-34761D02*
X55097Y-34552D01*
X55116Y-34514D01*
X55154Y-34495D01*
X55230Y-34495D01*
X55269Y-34514D01*
X55097Y-34742D02*
X55135Y-34761D01*
X55230Y-34761D01*
X55269Y-34742D01*
X55288Y-34704D01*
X55288Y-34666D01*
X55269Y-34628D01*
X55230Y-34609D01*
X55135Y-34609D01*
X55097Y-34590D01*
X54907Y-34761D02*
X54907Y-34495D01*
X54907Y-34571D02*
X54888Y-34533D01*
X54869Y-34514D01*
X54830Y-34495D01*
X54792Y-34495D01*
X54507Y-34742D02*
X54545Y-34761D01*
X54621Y-34761D01*
X54659Y-34742D01*
X54678Y-34704D01*
X54678Y-34552D01*
X54659Y-34514D01*
X54621Y-34495D01*
X54545Y-34495D01*
X54507Y-34514D01*
X54488Y-34552D01*
X54488Y-34590D01*
X54678Y-34628D01*
X54316Y-34552D02*
X54183Y-34552D01*
X54126Y-34761D02*
X54316Y-34761D01*
X54316Y-34361D01*
X54126Y-34361D01*
X53992Y-34761D02*
X53783Y-34495D01*
X53992Y-34495D02*
X53783Y-34761D01*
X53421Y-34380D02*
X53459Y-34361D01*
X53516Y-34361D01*
X53573Y-34380D01*
X53611Y-34419D01*
X53630Y-34457D01*
X53650Y-34533D01*
X53650Y-34590D01*
X53630Y-34666D01*
X53611Y-34704D01*
X53573Y-34742D01*
X53516Y-34761D01*
X53478Y-34761D01*
X53421Y-34742D01*
X53402Y-34723D01*
X53402Y-34590D01*
X53478Y-34590D01*
X53326Y-34800D02*
X53021Y-34800D01*
X52945Y-34742D02*
X52888Y-34761D01*
X52792Y-34761D01*
X52754Y-34742D01*
X52735Y-34723D01*
X52716Y-34685D01*
X52716Y-34647D01*
X52735Y-34609D01*
X52754Y-34590D01*
X52792Y-34571D01*
X52869Y-34552D01*
X52907Y-34533D01*
X52926Y-34514D01*
X52945Y-34476D01*
X52945Y-34438D01*
X52926Y-34400D01*
X52907Y-34380D01*
X52869Y-34361D01*
X52773Y-34361D01*
X52716Y-34380D01*
X52545Y-34761D02*
X52545Y-34361D01*
X52373Y-34761D02*
X52373Y-34552D01*
X52392Y-34514D01*
X52430Y-34495D01*
X52488Y-34495D01*
X52526Y-34514D01*
X52545Y-34533D01*
X52183Y-34761D02*
X52183Y-34495D01*
X52183Y-34361D02*
X52202Y-34380D01*
X52183Y-34400D01*
X52164Y-34380D01*
X52183Y-34361D01*
X52183Y-34400D01*
X51840Y-34742D02*
X51878Y-34761D01*
X51954Y-34761D01*
X51992Y-34742D01*
X52011Y-34704D01*
X52011Y-34552D01*
X51992Y-34514D01*
X51954Y-34495D01*
X51878Y-34495D01*
X51840Y-34514D01*
X51821Y-34552D01*
X51821Y-34590D01*
X52011Y-34628D01*
X51592Y-34761D02*
X51630Y-34742D01*
X51650Y-34704D01*
X51650Y-34361D01*
X51269Y-34761D02*
X51269Y-34361D01*
X51269Y-34742D02*
X51307Y-34761D01*
X51383Y-34761D01*
X51421Y-34742D01*
X51440Y-34723D01*
X51459Y-34685D01*
X51459Y-34571D01*
X51440Y-34533D01*
X51421Y-34514D01*
X51383Y-34495D01*
X51307Y-34495D01*
X51269Y-34514D01*
X50792Y-34342D02*
X51135Y-34857D01*
X62890Y-32147D02*
X62699Y-32147D01*
X62928Y-32261D02*
X62795Y-31861D01*
X62661Y-32261D01*
X62357Y-32242D02*
X62395Y-32261D01*
X62471Y-32261D01*
X62509Y-32242D01*
X62528Y-32223D01*
X62547Y-32185D01*
X62547Y-32071D01*
X62528Y-32033D01*
X62509Y-32014D01*
X62471Y-31995D01*
X62395Y-31995D01*
X62357Y-32014D01*
X62033Y-32242D02*
X62071Y-32261D01*
X62147Y-32261D01*
X62185Y-32242D01*
X62204Y-32204D01*
X62204Y-32052D01*
X62185Y-32014D01*
X62147Y-31995D01*
X62071Y-31995D01*
X62033Y-32014D01*
X62014Y-32052D01*
X62014Y-32090D01*
X62204Y-32128D01*
X61538Y-32261D02*
X61538Y-31861D01*
X61404Y-32147D01*
X61271Y-31861D01*
X61271Y-32261D01*
X60928Y-32242D02*
X60966Y-32261D01*
X61042Y-32261D01*
X61080Y-32242D01*
X61099Y-32204D01*
X61099Y-32052D01*
X61080Y-32014D01*
X61042Y-31995D01*
X60966Y-31995D01*
X60928Y-32014D01*
X60909Y-32052D01*
X60909Y-32090D01*
X61099Y-32128D01*
X60566Y-32261D02*
X60566Y-31861D01*
X60566Y-32242D02*
X60604Y-32261D01*
X60680Y-32261D01*
X60719Y-32242D01*
X60738Y-32223D01*
X60757Y-32185D01*
X60757Y-32071D01*
X60738Y-32033D01*
X60719Y-32014D01*
X60680Y-31995D01*
X60604Y-31995D01*
X60566Y-32014D01*
X60319Y-32261D02*
X60357Y-32242D01*
X60376Y-32204D01*
X60376Y-31861D01*
X60109Y-32261D02*
X60147Y-32242D01*
X60166Y-32223D01*
X60185Y-32185D01*
X60185Y-32071D01*
X60166Y-32033D01*
X60147Y-32014D01*
X60109Y-31995D01*
X60052Y-31995D01*
X60014Y-32014D01*
X59995Y-32033D01*
X59976Y-32071D01*
X59976Y-32185D01*
X59995Y-32223D01*
X60014Y-32242D01*
X60052Y-32261D01*
X60109Y-32261D01*
X59633Y-32242D02*
X59671Y-32261D01*
X59747Y-32261D01*
X59785Y-32242D01*
X59804Y-32223D01*
X59823Y-32185D01*
X59823Y-32071D01*
X59804Y-32033D01*
X59785Y-32014D01*
X59747Y-31995D01*
X59671Y-31995D01*
X59633Y-32014D01*
X59461Y-32261D02*
X59461Y-31861D01*
X59423Y-32109D02*
X59309Y-32261D01*
X59309Y-31995D02*
X59461Y-32147D01*
X62861Y-32692D02*
X62728Y-32692D01*
X62671Y-32901D02*
X62861Y-32901D01*
X62861Y-32501D01*
X62671Y-32501D01*
X62499Y-32901D02*
X62499Y-32635D01*
X62499Y-32711D02*
X62480Y-32673D01*
X62461Y-32654D01*
X62423Y-32635D01*
X62385Y-32635D01*
X62252Y-32901D02*
X62252Y-32635D01*
X62252Y-32501D02*
X62271Y-32520D01*
X62252Y-32540D01*
X62233Y-32520D01*
X62252Y-32501D01*
X62252Y-32540D01*
X61890Y-32882D02*
X61928Y-32901D01*
X62004Y-32901D01*
X62042Y-32882D01*
X62061Y-32863D01*
X62080Y-32825D01*
X62080Y-32711D01*
X62061Y-32673D01*
X62042Y-32654D01*
X62004Y-32635D01*
X61928Y-32635D01*
X61890Y-32654D01*
X61414Y-32901D02*
X61414Y-32501D01*
X61414Y-32692D02*
X61185Y-32692D01*
X61185Y-32901D02*
X61185Y-32501D01*
X60842Y-32882D02*
X60880Y-32901D01*
X60957Y-32901D01*
X60995Y-32882D01*
X61014Y-32844D01*
X61014Y-32692D01*
X60995Y-32654D01*
X60957Y-32635D01*
X60880Y-32635D01*
X60842Y-32654D01*
X60823Y-32692D01*
X60823Y-32730D01*
X61014Y-32768D01*
X60652Y-32901D02*
X60652Y-32635D01*
X60652Y-32711D02*
X60633Y-32673D01*
X60614Y-32654D01*
X60576Y-32635D01*
X60538Y-32635D01*
X60404Y-32901D02*
X60404Y-32635D01*
X60404Y-32673D02*
X60385Y-32654D01*
X60347Y-32635D01*
X60290Y-32635D01*
X60252Y-32654D01*
X60233Y-32692D01*
X60233Y-32901D01*
X60233Y-32692D02*
X60214Y-32654D01*
X60176Y-32635D01*
X60119Y-32635D01*
X60080Y-32654D01*
X60061Y-32692D01*
X60061Y-32901D01*
X59700Y-32901D02*
X59700Y-32692D01*
X59719Y-32654D01*
X59757Y-32635D01*
X59833Y-32635D01*
X59871Y-32654D01*
X59700Y-32882D02*
X59738Y-32901D01*
X59833Y-32901D01*
X59871Y-32882D01*
X59890Y-32844D01*
X59890Y-32806D01*
X59871Y-32768D01*
X59833Y-32749D01*
X59738Y-32749D01*
X59700Y-32730D01*
X59509Y-32635D02*
X59509Y-32901D01*
X59509Y-32673D02*
X59490Y-32654D01*
X59452Y-32635D01*
X59395Y-32635D01*
X59357Y-32654D01*
X59338Y-32692D01*
X59338Y-32901D01*
X63204Y-33541D02*
X63204Y-33141D01*
X62976Y-33541D02*
X63147Y-33313D01*
X62976Y-33141D02*
X63204Y-33370D01*
X62652Y-33522D02*
X62690Y-33541D01*
X62766Y-33541D01*
X62804Y-33522D01*
X62823Y-33484D01*
X62823Y-33332D01*
X62804Y-33294D01*
X62766Y-33275D01*
X62690Y-33275D01*
X62652Y-33294D01*
X62633Y-33332D01*
X62633Y-33370D01*
X62823Y-33408D01*
X62461Y-33275D02*
X62461Y-33541D01*
X62461Y-33313D02*
X62442Y-33294D01*
X62404Y-33275D01*
X62347Y-33275D01*
X62309Y-33294D01*
X62290Y-33332D01*
X62290Y-33541D01*
X61928Y-33541D02*
X61928Y-33141D01*
X61928Y-33522D02*
X61966Y-33541D01*
X62042Y-33541D01*
X62080Y-33522D01*
X62099Y-33503D01*
X62119Y-33465D01*
X62119Y-33351D01*
X62099Y-33313D01*
X62080Y-33294D01*
X62042Y-33275D01*
X61966Y-33275D01*
X61928Y-33294D01*
X61738Y-33541D02*
X61738Y-33275D01*
X61738Y-33351D02*
X61719Y-33313D01*
X61699Y-33294D01*
X61661Y-33275D01*
X61623Y-33275D01*
X61490Y-33541D02*
X61490Y-33275D01*
X61490Y-33141D02*
X61509Y-33160D01*
X61490Y-33180D01*
X61471Y-33160D01*
X61490Y-33141D01*
X61490Y-33180D01*
X61128Y-33522D02*
X61166Y-33541D01*
X61242Y-33541D01*
X61280Y-33522D01*
X61299Y-33503D01*
X61319Y-33465D01*
X61319Y-33351D01*
X61299Y-33313D01*
X61280Y-33294D01*
X61242Y-33275D01*
X61166Y-33275D01*
X61128Y-33294D01*
X60957Y-33541D02*
X60957Y-33141D01*
X60919Y-33389D02*
X60804Y-33541D01*
X60804Y-33275D02*
X60957Y-33427D01*
X60347Y-33522D02*
X60290Y-33541D01*
X60195Y-33541D01*
X60157Y-33522D01*
X60138Y-33503D01*
X60119Y-33465D01*
X60119Y-33427D01*
X60138Y-33389D01*
X60157Y-33370D01*
X60195Y-33351D01*
X60271Y-33332D01*
X60309Y-33313D01*
X60328Y-33294D01*
X60347Y-33256D01*
X60347Y-33218D01*
X60328Y-33180D01*
X60309Y-33160D01*
X60271Y-33141D01*
X60176Y-33141D01*
X60119Y-33160D01*
X59947Y-33541D02*
X59947Y-33141D01*
X59776Y-33541D02*
X59776Y-33332D01*
X59795Y-33294D01*
X59833Y-33275D01*
X59890Y-33275D01*
X59928Y-33294D01*
X59947Y-33313D01*
X59414Y-33541D02*
X59414Y-33332D01*
X59433Y-33294D01*
X59471Y-33275D01*
X59547Y-33275D01*
X59585Y-33294D01*
X59414Y-33522D02*
X59452Y-33541D01*
X59547Y-33541D01*
X59585Y-33522D01*
X59604Y-33484D01*
X59604Y-33446D01*
X59585Y-33408D01*
X59547Y-33389D01*
X59452Y-33389D01*
X59414Y-33370D01*
X59261Y-33275D02*
X59185Y-33541D01*
X59109Y-33351D01*
X59033Y-33541D01*
X58957Y-33275D01*
G54D12*
X66472Y-29898D02*
X66360Y-29898D01*
X66304Y-29926D01*
X66247Y-29982D01*
X66219Y-30095D01*
X66219Y-30292D01*
X66247Y-30404D01*
X66304Y-30460D01*
X66360Y-30489D01*
X66472Y-30489D01*
X66529Y-30460D01*
X66585Y-30404D01*
X66613Y-30292D01*
X66613Y-30095D01*
X66585Y-29982D01*
X66529Y-29926D01*
X66472Y-29898D01*
X65966Y-30095D02*
X65966Y-30685D01*
X65966Y-30123D02*
X65910Y-30095D01*
X65797Y-30095D01*
X65741Y-30123D01*
X65713Y-30151D01*
X65685Y-30207D01*
X65685Y-30376D01*
X65713Y-30432D01*
X65741Y-30460D01*
X65797Y-30489D01*
X65910Y-30489D01*
X65966Y-30460D01*
X65207Y-30460D02*
X65263Y-30489D01*
X65376Y-30489D01*
X65432Y-30460D01*
X65460Y-30404D01*
X65460Y-30179D01*
X65432Y-30123D01*
X65376Y-30095D01*
X65263Y-30095D01*
X65207Y-30123D01*
X65179Y-30179D01*
X65179Y-30235D01*
X65460Y-30292D01*
X64926Y-30095D02*
X64926Y-30489D01*
X64926Y-30151D02*
X64897Y-30123D01*
X64841Y-30095D01*
X64757Y-30095D01*
X64701Y-30123D01*
X64673Y-30179D01*
X64673Y-30489D01*
X64391Y-30489D02*
X64391Y-29898D01*
X64391Y-30179D02*
X64054Y-30179D01*
X64054Y-30489D02*
X64054Y-29898D01*
X63520Y-30489D02*
X63520Y-30179D01*
X63548Y-30123D01*
X63604Y-30095D01*
X63716Y-30095D01*
X63773Y-30123D01*
X63520Y-30460D02*
X63576Y-30489D01*
X63716Y-30489D01*
X63773Y-30460D01*
X63801Y-30404D01*
X63801Y-30348D01*
X63773Y-30292D01*
X63716Y-30264D01*
X63576Y-30264D01*
X63520Y-30235D01*
X63238Y-30489D02*
X63238Y-30095D01*
X63238Y-30207D02*
X63210Y-30151D01*
X63182Y-30123D01*
X63126Y-30095D01*
X63070Y-30095D01*
X62620Y-30489D02*
X62620Y-29898D01*
X62620Y-30460D02*
X62676Y-30489D01*
X62788Y-30489D01*
X62845Y-30460D01*
X62873Y-30432D01*
X62901Y-30376D01*
X62901Y-30207D01*
X62873Y-30151D01*
X62845Y-30123D01*
X62788Y-30095D01*
X62676Y-30095D01*
X62620Y-30123D01*
X62395Y-30095D02*
X62282Y-30489D01*
X62170Y-30207D01*
X62057Y-30489D01*
X61945Y-30095D01*
X61467Y-30489D02*
X61467Y-30179D01*
X61495Y-30123D01*
X61551Y-30095D01*
X61664Y-30095D01*
X61720Y-30123D01*
X61467Y-30460D02*
X61523Y-30489D01*
X61664Y-30489D01*
X61720Y-30460D01*
X61748Y-30404D01*
X61748Y-30348D01*
X61720Y-30292D01*
X61664Y-30264D01*
X61523Y-30264D01*
X61467Y-30235D01*
X61185Y-30489D02*
X61185Y-30095D01*
X61185Y-30207D02*
X61157Y-30151D01*
X61129Y-30123D01*
X61073Y-30095D01*
X61017Y-30095D01*
X60595Y-30460D02*
X60651Y-30489D01*
X60764Y-30489D01*
X60820Y-30460D01*
X60848Y-30404D01*
X60848Y-30179D01*
X60820Y-30123D01*
X60764Y-30095D01*
X60651Y-30095D01*
X60595Y-30123D01*
X60567Y-30179D01*
X60567Y-30235D01*
X60848Y-30292D01*
X60314Y-30179D02*
X60117Y-30179D01*
X60032Y-30489D02*
X60314Y-30489D01*
X60314Y-29898D01*
X60032Y-29898D01*
X59836Y-30489D02*
X59526Y-30095D01*
X59836Y-30095D02*
X59526Y-30489D01*
X58992Y-29926D02*
X59048Y-29898D01*
X59133Y-29898D01*
X59217Y-29926D01*
X59273Y-29982D01*
X59301Y-30039D01*
X59329Y-30151D01*
X59329Y-30235D01*
X59301Y-30348D01*
X59273Y-30404D01*
X59217Y-30460D01*
X59133Y-30489D01*
X59076Y-30489D01*
X58992Y-30460D01*
X58964Y-30432D01*
X58964Y-30235D01*
X59076Y-30235D01*
X58851Y-30545D02*
X58401Y-30545D01*
X58289Y-30460D02*
X58205Y-30489D01*
X58064Y-30489D01*
X58008Y-30460D01*
X57980Y-30432D01*
X57951Y-30376D01*
X57951Y-30320D01*
X57980Y-30264D01*
X58008Y-30235D01*
X58064Y-30207D01*
X58176Y-30179D01*
X58233Y-30151D01*
X58261Y-30123D01*
X58289Y-30067D01*
X58289Y-30010D01*
X58261Y-29954D01*
X58233Y-29926D01*
X58176Y-29898D01*
X58036Y-29898D01*
X57951Y-29926D01*
X57698Y-30489D02*
X57698Y-29898D01*
X57445Y-30489D02*
X57445Y-30179D01*
X57473Y-30123D01*
X57530Y-30095D01*
X57614Y-30095D01*
X57670Y-30123D01*
X57698Y-30151D01*
X57164Y-30489D02*
X57164Y-30095D01*
X57164Y-29898D02*
X57192Y-29926D01*
X57164Y-29954D01*
X57136Y-29926D01*
X57164Y-29898D01*
X57164Y-29954D01*
X56658Y-30460D02*
X56714Y-30489D01*
X56827Y-30489D01*
X56883Y-30460D01*
X56911Y-30404D01*
X56911Y-30179D01*
X56883Y-30123D01*
X56827Y-30095D01*
X56714Y-30095D01*
X56658Y-30123D01*
X56630Y-30179D01*
X56630Y-30235D01*
X56911Y-30292D01*
X56292Y-30489D02*
X56349Y-30460D01*
X56377Y-30404D01*
X56377Y-29898D01*
X55814Y-30489D02*
X55814Y-29898D01*
X55814Y-30460D02*
X55870Y-30489D01*
X55983Y-30489D01*
X56039Y-30460D01*
X56067Y-30432D01*
X56095Y-30376D01*
X56095Y-30207D01*
X56067Y-30151D01*
X56039Y-30123D01*
X55983Y-30095D01*
X55870Y-30095D01*
X55814Y-30123D01*
X47439Y-12173D02*
X46848Y-12173D01*
X47410Y-12426D02*
X47439Y-12483D01*
X47439Y-12595D01*
X47410Y-12651D01*
X47354Y-12679D01*
X47326Y-12679D01*
X47270Y-12651D01*
X47242Y-12595D01*
X47242Y-12511D01*
X47214Y-12455D01*
X47157Y-12426D01*
X47129Y-12426D01*
X47073Y-12455D01*
X47045Y-12511D01*
X47045Y-12595D01*
X47073Y-12651D01*
X47439Y-13017D02*
X47410Y-12961D01*
X47382Y-12933D01*
X47326Y-12904D01*
X47157Y-12904D01*
X47101Y-12933D01*
X47073Y-12961D01*
X47045Y-13017D01*
X47045Y-13101D01*
X47073Y-13158D01*
X47101Y-13186D01*
X47157Y-13214D01*
X47326Y-13214D01*
X47382Y-13186D01*
X47410Y-13158D01*
X47439Y-13101D01*
X47439Y-13017D01*
X47439Y-13551D02*
X47410Y-13495D01*
X47354Y-13467D01*
X46848Y-13467D01*
X47439Y-14029D02*
X47129Y-14029D01*
X47073Y-14001D01*
X47045Y-13945D01*
X47045Y-13832D01*
X47073Y-13776D01*
X47410Y-14029D02*
X47439Y-13973D01*
X47439Y-13832D01*
X47410Y-13776D01*
X47354Y-13748D01*
X47298Y-13748D01*
X47242Y-13776D01*
X47214Y-13832D01*
X47214Y-13973D01*
X47185Y-14029D01*
X47045Y-14226D02*
X47045Y-14451D01*
X46848Y-14311D02*
X47354Y-14311D01*
X47410Y-14339D01*
X47439Y-14395D01*
X47439Y-14451D01*
X47439Y-14648D02*
X47045Y-14648D01*
X46848Y-14648D02*
X46876Y-14620D01*
X46904Y-14648D01*
X46876Y-14676D01*
X46848Y-14648D01*
X46904Y-14648D01*
X47439Y-15014D02*
X47410Y-14957D01*
X47382Y-14929D01*
X47326Y-14901D01*
X47157Y-14901D01*
X47101Y-14929D01*
X47073Y-14957D01*
X47045Y-15014D01*
X47045Y-15098D01*
X47073Y-15154D01*
X47101Y-15182D01*
X47157Y-15210D01*
X47326Y-15210D01*
X47382Y-15182D01*
X47410Y-15154D01*
X47439Y-15098D01*
X47439Y-15014D01*
X47045Y-15464D02*
X47439Y-15464D01*
X47101Y-15464D02*
X47073Y-15492D01*
X47045Y-15548D01*
X47045Y-15632D01*
X47073Y-15688D01*
X47129Y-15717D01*
X47439Y-15717D01*
X46876Y-16757D02*
X46848Y-16701D01*
X46848Y-16616D01*
X46876Y-16532D01*
X46932Y-16476D01*
X46989Y-16448D01*
X47101Y-16420D01*
X47185Y-16420D01*
X47298Y-16448D01*
X47354Y-16476D01*
X47410Y-16532D01*
X47439Y-16616D01*
X47439Y-16673D01*
X47410Y-16757D01*
X47382Y-16785D01*
X47185Y-16785D01*
X47185Y-16673D01*
X47439Y-17291D02*
X47129Y-17291D01*
X47073Y-17263D01*
X47045Y-17207D01*
X47045Y-17095D01*
X47073Y-17038D01*
X47410Y-17291D02*
X47439Y-17235D01*
X47439Y-17095D01*
X47410Y-17038D01*
X47354Y-17010D01*
X47298Y-17010D01*
X47242Y-17038D01*
X47214Y-17095D01*
X47214Y-17235D01*
X47185Y-17291D01*
X47045Y-17573D02*
X47635Y-17573D01*
X47073Y-17573D02*
X47045Y-17629D01*
X47045Y-17741D01*
X47073Y-17798D01*
X47101Y-17826D01*
X47157Y-17854D01*
X47326Y-17854D01*
X47382Y-17826D01*
X47410Y-17798D01*
X47439Y-17741D01*
X47439Y-17629D01*
X47410Y-17573D01*
G54D13*
X45500Y-11500D02*
X45500Y-35000D01*
G54D11*
X35761Y-12709D02*
X35761Y-12957D01*
X35914Y-12823D01*
X35914Y-12880D01*
X35933Y-12919D01*
X35952Y-12938D01*
X35990Y-12957D01*
X36085Y-12957D01*
X36123Y-12938D01*
X36142Y-12919D01*
X36161Y-12880D01*
X36161Y-12766D01*
X36142Y-12728D01*
X36123Y-12709D01*
X36123Y-13128D02*
X36142Y-13147D01*
X36161Y-13128D01*
X36142Y-13109D01*
X36123Y-13128D01*
X36161Y-13128D01*
X35761Y-13280D02*
X35761Y-13528D01*
X35914Y-13395D01*
X35914Y-13452D01*
X35933Y-13490D01*
X35952Y-13509D01*
X35990Y-13528D01*
X36085Y-13528D01*
X36123Y-13509D01*
X36142Y-13490D01*
X36161Y-13452D01*
X36161Y-13338D01*
X36142Y-13300D01*
X36123Y-13280D01*
X35761Y-13642D02*
X36161Y-13776D01*
X35761Y-13909D01*
G54D13*
X49000Y-11500D02*
X49000Y-35000D01*
G54D14*
X26549Y-28095D02*
X26549Y-27859D01*
X26459Y-27859D01*
X26436Y-27870D01*
X26425Y-27881D01*
X26414Y-27904D01*
X26414Y-27938D01*
X26425Y-27960D01*
X26436Y-27971D01*
X26459Y-27983D01*
X26549Y-27983D01*
X26335Y-27859D02*
X26178Y-27859D01*
X26279Y-28095D01*
X26549Y-30095D02*
X26549Y-29859D01*
X26459Y-29859D01*
X26436Y-29870D01*
X26425Y-29881D01*
X26414Y-29904D01*
X26414Y-29938D01*
X26425Y-29960D01*
X26436Y-29971D01*
X26459Y-29983D01*
X26549Y-29983D01*
X26279Y-29960D02*
X26301Y-29949D01*
X26313Y-29938D01*
X26324Y-29915D01*
X26324Y-29904D01*
X26313Y-29881D01*
X26301Y-29870D01*
X26279Y-29859D01*
X26234Y-29859D01*
X26211Y-29870D01*
X26200Y-29881D01*
X26189Y-29904D01*
X26189Y-29915D01*
X26200Y-29938D01*
X26211Y-29949D01*
X26234Y-29960D01*
X26279Y-29960D01*
X26301Y-29971D01*
X26313Y-29983D01*
X26324Y-30005D01*
X26324Y-30050D01*
X26313Y-30073D01*
X26301Y-30084D01*
X26279Y-30095D01*
X26234Y-30095D01*
X26211Y-30084D01*
X26200Y-30073D01*
X26189Y-30050D01*
X26189Y-30005D01*
X26200Y-29983D01*
X26211Y-29971D01*
X26234Y-29960D01*
X28036Y-25095D02*
X28036Y-24859D01*
X27946Y-24859D01*
X27924Y-24870D01*
X27913Y-24881D01*
X27901Y-24904D01*
X27901Y-24938D01*
X27913Y-24960D01*
X27924Y-24971D01*
X27946Y-24983D01*
X28036Y-24983D01*
X27676Y-25095D02*
X27811Y-25095D01*
X27744Y-25095D02*
X27744Y-24859D01*
X27766Y-24893D01*
X27789Y-24915D01*
X27811Y-24926D01*
X27463Y-24859D02*
X27575Y-24859D01*
X27586Y-24971D01*
X27575Y-24960D01*
X27553Y-24949D01*
X27496Y-24949D01*
X27474Y-24960D01*
X27463Y-24971D01*
X27451Y-24994D01*
X27451Y-25050D01*
X27463Y-25073D01*
X27474Y-25084D01*
X27496Y-25095D01*
X27553Y-25095D01*
X27575Y-25084D01*
X27586Y-25073D01*
X28036Y-17095D02*
X28036Y-16859D01*
X27946Y-16859D01*
X27924Y-16870D01*
X27913Y-16881D01*
X27901Y-16904D01*
X27901Y-16938D01*
X27913Y-16960D01*
X27924Y-16971D01*
X27946Y-16983D01*
X28036Y-16983D01*
X27676Y-17095D02*
X27811Y-17095D01*
X27744Y-17095D02*
X27744Y-16859D01*
X27766Y-16893D01*
X27789Y-16915D01*
X27811Y-16926D01*
X27451Y-17095D02*
X27586Y-17095D01*
X27519Y-17095D02*
X27519Y-16859D01*
X27541Y-16893D01*
X27564Y-16915D01*
X27586Y-16926D01*
X28036Y-19095D02*
X28036Y-18859D01*
X27946Y-18859D01*
X27924Y-18870D01*
X27913Y-18881D01*
X27901Y-18904D01*
X27901Y-18938D01*
X27913Y-18960D01*
X27924Y-18971D01*
X27946Y-18983D01*
X28036Y-18983D01*
X27676Y-19095D02*
X27811Y-19095D01*
X27744Y-19095D02*
X27744Y-18859D01*
X27766Y-18893D01*
X27789Y-18915D01*
X27811Y-18926D01*
X27586Y-18881D02*
X27575Y-18870D01*
X27553Y-18859D01*
X27496Y-18859D01*
X27474Y-18870D01*
X27463Y-18881D01*
X27451Y-18904D01*
X27451Y-18926D01*
X27463Y-18960D01*
X27598Y-19095D01*
X27451Y-19095D01*
X28036Y-21095D02*
X28036Y-20859D01*
X27946Y-20859D01*
X27924Y-20870D01*
X27913Y-20881D01*
X27901Y-20904D01*
X27901Y-20938D01*
X27913Y-20960D01*
X27924Y-20971D01*
X27946Y-20983D01*
X28036Y-20983D01*
X27676Y-21095D02*
X27811Y-21095D01*
X27744Y-21095D02*
X27744Y-20859D01*
X27766Y-20893D01*
X27789Y-20915D01*
X27811Y-20926D01*
X27598Y-20859D02*
X27451Y-20859D01*
X27530Y-20949D01*
X27496Y-20949D01*
X27474Y-20960D01*
X27463Y-20971D01*
X27451Y-20994D01*
X27451Y-21050D01*
X27463Y-21073D01*
X27474Y-21084D01*
X27496Y-21095D01*
X27564Y-21095D01*
X27586Y-21084D01*
X27598Y-21073D01*
X28036Y-23095D02*
X28036Y-22859D01*
X27946Y-22859D01*
X27924Y-22870D01*
X27913Y-22881D01*
X27901Y-22904D01*
X27901Y-22938D01*
X27913Y-22960D01*
X27924Y-22971D01*
X27946Y-22983D01*
X28036Y-22983D01*
X27676Y-23095D02*
X27811Y-23095D01*
X27744Y-23095D02*
X27744Y-22859D01*
X27766Y-22893D01*
X27789Y-22915D01*
X27811Y-22926D01*
X27474Y-22938D02*
X27474Y-23095D01*
X27530Y-22848D02*
X27586Y-23016D01*
X27440Y-23016D01*
X66536Y-23220D02*
X66536Y-22984D01*
X66446Y-22984D01*
X66424Y-22995D01*
X66413Y-23006D01*
X66401Y-23029D01*
X66401Y-23063D01*
X66413Y-23085D01*
X66424Y-23096D01*
X66446Y-23108D01*
X66536Y-23108D01*
X66188Y-22984D02*
X66300Y-22984D01*
X66311Y-23096D01*
X66300Y-23085D01*
X66278Y-23074D01*
X66221Y-23074D01*
X66199Y-23085D01*
X66188Y-23096D01*
X66176Y-23119D01*
X66176Y-23175D01*
X66188Y-23198D01*
X66199Y-23209D01*
X66221Y-23220D01*
X66278Y-23220D01*
X66300Y-23209D01*
X66311Y-23198D01*
X66030Y-22984D02*
X66008Y-22984D01*
X65985Y-22995D01*
X65974Y-23006D01*
X65963Y-23029D01*
X65951Y-23074D01*
X65951Y-23130D01*
X65963Y-23175D01*
X65974Y-23198D01*
X65985Y-23209D01*
X66008Y-23220D01*
X66030Y-23220D01*
X66053Y-23209D01*
X66064Y-23198D01*
X66075Y-23175D01*
X66086Y-23130D01*
X66086Y-23074D01*
X66075Y-23029D01*
X66064Y-23006D01*
X66053Y-22995D01*
X66030Y-22984D01*
X26549Y-26095D02*
X26549Y-25859D01*
X26459Y-25859D01*
X26436Y-25870D01*
X26425Y-25881D01*
X26414Y-25904D01*
X26414Y-25938D01*
X26425Y-25960D01*
X26436Y-25971D01*
X26459Y-25983D01*
X26549Y-25983D01*
X26211Y-25859D02*
X26256Y-25859D01*
X26279Y-25870D01*
X26290Y-25881D01*
X26313Y-25915D01*
X26324Y-25960D01*
X26324Y-26050D01*
X26313Y-26073D01*
X26301Y-26084D01*
X26279Y-26095D01*
X26234Y-26095D01*
X26211Y-26084D01*
X26200Y-26073D01*
X26189Y-26050D01*
X26189Y-25994D01*
X26200Y-25971D01*
X26211Y-25960D01*
X26234Y-25949D01*
X26279Y-25949D01*
X26301Y-25960D01*
X26313Y-25971D01*
X26324Y-25994D01*
X26549Y-24095D02*
X26549Y-23859D01*
X26459Y-23859D01*
X26436Y-23870D01*
X26425Y-23881D01*
X26414Y-23904D01*
X26414Y-23938D01*
X26425Y-23960D01*
X26436Y-23971D01*
X26459Y-23983D01*
X26549Y-23983D01*
X26200Y-23859D02*
X26313Y-23859D01*
X26324Y-23971D01*
X26313Y-23960D01*
X26290Y-23949D01*
X26234Y-23949D01*
X26211Y-23960D01*
X26200Y-23971D01*
X26189Y-23994D01*
X26189Y-24050D01*
X26200Y-24073D01*
X26211Y-24084D01*
X26234Y-24095D01*
X26290Y-24095D01*
X26313Y-24084D01*
X26324Y-24073D01*
X26549Y-22095D02*
X26549Y-21859D01*
X26459Y-21859D01*
X26436Y-21870D01*
X26425Y-21881D01*
X26414Y-21904D01*
X26414Y-21938D01*
X26425Y-21960D01*
X26436Y-21971D01*
X26459Y-21983D01*
X26549Y-21983D01*
X26211Y-21938D02*
X26211Y-22095D01*
X26268Y-21848D02*
X26324Y-22016D01*
X26178Y-22016D01*
X26549Y-20095D02*
X26549Y-19859D01*
X26459Y-19859D01*
X26436Y-19870D01*
X26425Y-19881D01*
X26414Y-19904D01*
X26414Y-19938D01*
X26425Y-19960D01*
X26436Y-19971D01*
X26459Y-19983D01*
X26549Y-19983D01*
X26335Y-19859D02*
X26189Y-19859D01*
X26268Y-19949D01*
X26234Y-19949D01*
X26211Y-19960D01*
X26200Y-19971D01*
X26189Y-19994D01*
X26189Y-20050D01*
X26200Y-20073D01*
X26211Y-20084D01*
X26234Y-20095D01*
X26301Y-20095D01*
X26324Y-20084D01*
X26335Y-20073D01*
X26549Y-18095D02*
X26549Y-17859D01*
X26459Y-17859D01*
X26436Y-17870D01*
X26425Y-17881D01*
X26414Y-17904D01*
X26414Y-17938D01*
X26425Y-17960D01*
X26436Y-17971D01*
X26459Y-17983D01*
X26549Y-17983D01*
X26324Y-17881D02*
X26313Y-17870D01*
X26290Y-17859D01*
X26234Y-17859D01*
X26211Y-17870D01*
X26200Y-17881D01*
X26189Y-17904D01*
X26189Y-17926D01*
X26200Y-17960D01*
X26335Y-18095D01*
X26189Y-18095D01*
X26549Y-16095D02*
X26549Y-15859D01*
X26459Y-15859D01*
X26436Y-15870D01*
X26425Y-15881D01*
X26414Y-15904D01*
X26414Y-15938D01*
X26425Y-15960D01*
X26436Y-15971D01*
X26459Y-15983D01*
X26549Y-15983D01*
X26189Y-16095D02*
X26324Y-16095D01*
X26256Y-16095D02*
X26256Y-15859D01*
X26279Y-15893D01*
X26301Y-15915D01*
X26324Y-15926D01*
X44036Y-25095D02*
X44036Y-24859D01*
X43946Y-24859D01*
X43924Y-24870D01*
X43913Y-24881D01*
X43901Y-24904D01*
X43901Y-24938D01*
X43913Y-24960D01*
X43924Y-24971D01*
X43946Y-24983D01*
X44036Y-24983D01*
X43823Y-24859D02*
X43676Y-24859D01*
X43755Y-24949D01*
X43721Y-24949D01*
X43699Y-24960D01*
X43688Y-24971D01*
X43676Y-24994D01*
X43676Y-25050D01*
X43688Y-25073D01*
X43699Y-25084D01*
X43721Y-25095D01*
X43789Y-25095D01*
X43811Y-25084D01*
X43823Y-25073D01*
X43541Y-24960D02*
X43564Y-24949D01*
X43575Y-24938D01*
X43586Y-24915D01*
X43586Y-24904D01*
X43575Y-24881D01*
X43564Y-24870D01*
X43541Y-24859D01*
X43496Y-24859D01*
X43474Y-24870D01*
X43463Y-24881D01*
X43451Y-24904D01*
X43451Y-24915D01*
X43463Y-24938D01*
X43474Y-24949D01*
X43496Y-24960D01*
X43541Y-24960D01*
X43564Y-24971D01*
X43575Y-24983D01*
X43586Y-25005D01*
X43586Y-25050D01*
X43575Y-25073D01*
X43564Y-25084D01*
X43541Y-25095D01*
X43496Y-25095D01*
X43474Y-25084D01*
X43463Y-25073D01*
X43451Y-25050D01*
X43451Y-25005D01*
X43463Y-24983D01*
X43474Y-24971D01*
X43496Y-24960D01*
X28036Y-27095D02*
X28036Y-26859D01*
X27946Y-26859D01*
X27924Y-26870D01*
X27913Y-26881D01*
X27901Y-26904D01*
X27901Y-26938D01*
X27913Y-26960D01*
X27924Y-26971D01*
X27946Y-26983D01*
X28036Y-26983D01*
X27676Y-27095D02*
X27811Y-27095D01*
X27744Y-27095D02*
X27744Y-26859D01*
X27766Y-26893D01*
X27789Y-26915D01*
X27811Y-26926D01*
X27474Y-26859D02*
X27519Y-26859D01*
X27541Y-26870D01*
X27553Y-26881D01*
X27575Y-26915D01*
X27586Y-26960D01*
X27586Y-27050D01*
X27575Y-27073D01*
X27564Y-27084D01*
X27541Y-27095D01*
X27496Y-27095D01*
X27474Y-27084D01*
X27463Y-27073D01*
X27451Y-27050D01*
X27451Y-26994D01*
X27463Y-26971D01*
X27474Y-26960D01*
X27496Y-26949D01*
X27541Y-26949D01*
X27564Y-26960D01*
X27575Y-26971D01*
X27586Y-26994D01*
X28036Y-29095D02*
X28036Y-28859D01*
X27946Y-28859D01*
X27924Y-28870D01*
X27913Y-28881D01*
X27901Y-28904D01*
X27901Y-28938D01*
X27913Y-28960D01*
X27924Y-28971D01*
X27946Y-28983D01*
X28036Y-28983D01*
X27676Y-29095D02*
X27811Y-29095D01*
X27744Y-29095D02*
X27744Y-28859D01*
X27766Y-28893D01*
X27789Y-28915D01*
X27811Y-28926D01*
X27598Y-28859D02*
X27440Y-28859D01*
X27541Y-29095D01*
X28036Y-31095D02*
X28036Y-30859D01*
X27946Y-30859D01*
X27924Y-30870D01*
X27913Y-30881D01*
X27901Y-30904D01*
X27901Y-30938D01*
X27913Y-30960D01*
X27924Y-30971D01*
X27946Y-30983D01*
X28036Y-30983D01*
X27676Y-31095D02*
X27811Y-31095D01*
X27744Y-31095D02*
X27744Y-30859D01*
X27766Y-30893D01*
X27789Y-30915D01*
X27811Y-30926D01*
X27541Y-30960D02*
X27564Y-30949D01*
X27575Y-30938D01*
X27586Y-30915D01*
X27586Y-30904D01*
X27575Y-30881D01*
X27564Y-30870D01*
X27541Y-30859D01*
X27496Y-30859D01*
X27474Y-30870D01*
X27463Y-30881D01*
X27451Y-30904D01*
X27451Y-30915D01*
X27463Y-30938D01*
X27474Y-30949D01*
X27496Y-30960D01*
X27541Y-30960D01*
X27564Y-30971D01*
X27575Y-30983D01*
X27586Y-31005D01*
X27586Y-31050D01*
X27575Y-31073D01*
X27564Y-31084D01*
X27541Y-31095D01*
X27496Y-31095D01*
X27474Y-31084D01*
X27463Y-31073D01*
X27451Y-31050D01*
X27451Y-31005D01*
X27463Y-30983D01*
X27474Y-30971D01*
X27496Y-30960D01*
X27799Y-15095D02*
X27799Y-14859D01*
X27709Y-14859D01*
X27686Y-14870D01*
X27675Y-14881D01*
X27664Y-14904D01*
X27664Y-14938D01*
X27675Y-14960D01*
X27686Y-14971D01*
X27709Y-14983D01*
X27799Y-14983D01*
X27551Y-15095D02*
X27506Y-15095D01*
X27484Y-15084D01*
X27473Y-15073D01*
X27450Y-15039D01*
X27439Y-14994D01*
X27439Y-14904D01*
X27450Y-14881D01*
X27461Y-14870D01*
X27484Y-14859D01*
X27529Y-14859D01*
X27551Y-14870D01*
X27563Y-14881D01*
X27574Y-14904D01*
X27574Y-14960D01*
X27563Y-14983D01*
X27551Y-14994D01*
X27529Y-15005D01*
X27484Y-15005D01*
X27461Y-14994D01*
X27450Y-14983D01*
X27439Y-14960D01*
X68536Y-27095D02*
X68536Y-26859D01*
X68446Y-26859D01*
X68424Y-26870D01*
X68413Y-26881D01*
X68401Y-26904D01*
X68401Y-26938D01*
X68413Y-26960D01*
X68424Y-26971D01*
X68446Y-26983D01*
X68536Y-26983D01*
X68199Y-26938D02*
X68199Y-27095D01*
X68255Y-26848D02*
X68311Y-27016D01*
X68165Y-27016D01*
X67974Y-26859D02*
X68019Y-26859D01*
X68041Y-26870D01*
X68053Y-26881D01*
X68075Y-26915D01*
X68086Y-26960D01*
X68086Y-27050D01*
X68075Y-27073D01*
X68064Y-27084D01*
X68041Y-27095D01*
X67996Y-27095D01*
X67974Y-27084D01*
X67963Y-27073D01*
X67951Y-27050D01*
X67951Y-26994D01*
X67963Y-26971D01*
X67974Y-26960D01*
X67996Y-26949D01*
X68041Y-26949D01*
X68064Y-26960D01*
X68075Y-26971D01*
X68086Y-26994D01*
X68536Y-26095D02*
X68536Y-25859D01*
X68446Y-25859D01*
X68424Y-25870D01*
X68413Y-25881D01*
X68401Y-25904D01*
X68401Y-25938D01*
X68413Y-25960D01*
X68424Y-25971D01*
X68446Y-25983D01*
X68536Y-25983D01*
X68199Y-25938D02*
X68199Y-26095D01*
X68255Y-25848D02*
X68311Y-26016D01*
X68165Y-26016D01*
X68098Y-25859D02*
X67940Y-25859D01*
X68041Y-26095D01*
X68536Y-25095D02*
X68536Y-24859D01*
X68446Y-24859D01*
X68424Y-24870D01*
X68413Y-24881D01*
X68401Y-24904D01*
X68401Y-24938D01*
X68413Y-24960D01*
X68424Y-24971D01*
X68446Y-24983D01*
X68536Y-24983D01*
X68199Y-24938D02*
X68199Y-25095D01*
X68255Y-24848D02*
X68311Y-25016D01*
X68165Y-25016D01*
X68041Y-24960D02*
X68064Y-24949D01*
X68075Y-24938D01*
X68086Y-24915D01*
X68086Y-24904D01*
X68075Y-24881D01*
X68064Y-24870D01*
X68041Y-24859D01*
X67996Y-24859D01*
X67974Y-24870D01*
X67963Y-24881D01*
X67951Y-24904D01*
X67951Y-24915D01*
X67963Y-24938D01*
X67974Y-24949D01*
X67996Y-24960D01*
X68041Y-24960D01*
X68064Y-24971D01*
X68075Y-24983D01*
X68086Y-25005D01*
X68086Y-25050D01*
X68075Y-25073D01*
X68064Y-25084D01*
X68041Y-25095D01*
X67996Y-25095D01*
X67974Y-25084D01*
X67963Y-25073D01*
X67951Y-25050D01*
X67951Y-25005D01*
X67963Y-24983D01*
X67974Y-24971D01*
X67996Y-24960D01*
X68536Y-23095D02*
X68536Y-22859D01*
X68446Y-22859D01*
X68424Y-22870D01*
X68413Y-22881D01*
X68401Y-22904D01*
X68401Y-22938D01*
X68413Y-22960D01*
X68424Y-22971D01*
X68446Y-22983D01*
X68536Y-22983D01*
X68199Y-22938D02*
X68199Y-23095D01*
X68255Y-22848D02*
X68311Y-23016D01*
X68165Y-23016D01*
X68064Y-23095D02*
X68019Y-23095D01*
X67996Y-23084D01*
X67985Y-23073D01*
X67963Y-23039D01*
X67951Y-22994D01*
X67951Y-22904D01*
X67963Y-22881D01*
X67974Y-22870D01*
X67996Y-22859D01*
X68041Y-22859D01*
X68064Y-22870D01*
X68075Y-22881D01*
X68086Y-22904D01*
X68086Y-22960D01*
X68075Y-22983D01*
X68064Y-22994D01*
X68041Y-23005D01*
X67996Y-23005D01*
X67974Y-22994D01*
X67963Y-22983D01*
X67951Y-22960D01*
X35095Y-16463D02*
X34859Y-16463D01*
X34859Y-16553D01*
X34870Y-16575D01*
X34881Y-16586D01*
X34904Y-16598D01*
X34938Y-16598D01*
X34960Y-16586D01*
X34971Y-16575D01*
X34983Y-16553D01*
X34983Y-16463D01*
X34881Y-16688D02*
X34870Y-16699D01*
X34859Y-16721D01*
X34859Y-16778D01*
X34870Y-16800D01*
X34881Y-16811D01*
X34904Y-16823D01*
X34926Y-16823D01*
X34960Y-16811D01*
X35095Y-16676D01*
X35095Y-16823D01*
X35095Y-16935D02*
X35095Y-16980D01*
X35084Y-17003D01*
X35073Y-17014D01*
X35039Y-17036D01*
X34994Y-17048D01*
X34904Y-17048D01*
X34881Y-17036D01*
X34870Y-17025D01*
X34859Y-17003D01*
X34859Y-16958D01*
X34870Y-16935D01*
X34881Y-16924D01*
X34904Y-16913D01*
X34960Y-16913D01*
X34983Y-16924D01*
X34994Y-16935D01*
X35005Y-16958D01*
X35005Y-17003D01*
X34994Y-17025D01*
X34983Y-17036D01*
X34960Y-17048D01*
X63536Y-24970D02*
X63536Y-24734D01*
X63446Y-24734D01*
X63424Y-24745D01*
X63413Y-24756D01*
X63401Y-24779D01*
X63401Y-24813D01*
X63413Y-24835D01*
X63424Y-24846D01*
X63446Y-24858D01*
X63536Y-24858D01*
X63188Y-24734D02*
X63300Y-24734D01*
X63311Y-24846D01*
X63300Y-24835D01*
X63278Y-24824D01*
X63221Y-24824D01*
X63199Y-24835D01*
X63188Y-24846D01*
X63176Y-24869D01*
X63176Y-24925D01*
X63188Y-24948D01*
X63199Y-24959D01*
X63221Y-24970D01*
X63278Y-24970D01*
X63300Y-24959D01*
X63311Y-24948D01*
X62951Y-24970D02*
X63086Y-24970D01*
X63019Y-24970D02*
X63019Y-24734D01*
X63041Y-24768D01*
X63064Y-24790D01*
X63086Y-24801D01*
X59536Y-19095D02*
X59536Y-18859D01*
X59446Y-18859D01*
X59424Y-18870D01*
X59413Y-18881D01*
X59401Y-18904D01*
X59401Y-18938D01*
X59413Y-18960D01*
X59424Y-18971D01*
X59446Y-18983D01*
X59536Y-18983D01*
X59188Y-18859D02*
X59300Y-18859D01*
X59311Y-18971D01*
X59300Y-18960D01*
X59278Y-18949D01*
X59221Y-18949D01*
X59199Y-18960D01*
X59188Y-18971D01*
X59176Y-18994D01*
X59176Y-19050D01*
X59188Y-19073D01*
X59199Y-19084D01*
X59221Y-19095D01*
X59278Y-19095D01*
X59300Y-19084D01*
X59311Y-19073D01*
X59086Y-18881D02*
X59075Y-18870D01*
X59053Y-18859D01*
X58996Y-18859D01*
X58974Y-18870D01*
X58963Y-18881D01*
X58951Y-18904D01*
X58951Y-18926D01*
X58963Y-18960D01*
X59098Y-19095D01*
X58951Y-19095D01*
X59536Y-16095D02*
X59536Y-15859D01*
X59446Y-15859D01*
X59424Y-15870D01*
X59413Y-15881D01*
X59401Y-15904D01*
X59401Y-15938D01*
X59413Y-15960D01*
X59424Y-15971D01*
X59446Y-15983D01*
X59536Y-15983D01*
X59188Y-15859D02*
X59300Y-15859D01*
X59311Y-15971D01*
X59300Y-15960D01*
X59278Y-15949D01*
X59221Y-15949D01*
X59199Y-15960D01*
X59188Y-15971D01*
X59176Y-15994D01*
X59176Y-16050D01*
X59188Y-16073D01*
X59199Y-16084D01*
X59221Y-16095D01*
X59278Y-16095D01*
X59300Y-16084D01*
X59311Y-16073D01*
X59098Y-15859D02*
X58951Y-15859D01*
X59030Y-15949D01*
X58996Y-15949D01*
X58974Y-15960D01*
X58963Y-15971D01*
X58951Y-15994D01*
X58951Y-16050D01*
X58963Y-16073D01*
X58974Y-16084D01*
X58996Y-16095D01*
X59064Y-16095D01*
X59086Y-16084D01*
X59098Y-16073D01*
X50286Y-15784D02*
X50286Y-15548D01*
X50196Y-15548D01*
X50174Y-15559D01*
X50163Y-15570D01*
X50151Y-15593D01*
X50151Y-15627D01*
X50163Y-15649D01*
X50174Y-15660D01*
X50196Y-15672D01*
X50286Y-15672D01*
X49938Y-15548D02*
X50050Y-15548D01*
X50061Y-15660D01*
X50050Y-15649D01*
X50028Y-15638D01*
X49971Y-15638D01*
X49949Y-15649D01*
X49938Y-15660D01*
X49926Y-15683D01*
X49926Y-15739D01*
X49938Y-15762D01*
X49949Y-15773D01*
X49971Y-15784D01*
X50028Y-15784D01*
X50050Y-15773D01*
X50061Y-15762D01*
X49724Y-15627D02*
X49724Y-15784D01*
X49780Y-15537D02*
X49836Y-15705D01*
X49690Y-15705D01*
X62036Y-16095D02*
X62036Y-15859D01*
X61946Y-15859D01*
X61924Y-15870D01*
X61913Y-15881D01*
X61901Y-15904D01*
X61901Y-15938D01*
X61913Y-15960D01*
X61924Y-15971D01*
X61946Y-15983D01*
X62036Y-15983D01*
X61688Y-15859D02*
X61800Y-15859D01*
X61811Y-15971D01*
X61800Y-15960D01*
X61778Y-15949D01*
X61721Y-15949D01*
X61699Y-15960D01*
X61688Y-15971D01*
X61676Y-15994D01*
X61676Y-16050D01*
X61688Y-16073D01*
X61699Y-16084D01*
X61721Y-16095D01*
X61778Y-16095D01*
X61800Y-16084D01*
X61811Y-16073D01*
X61463Y-15859D02*
X61575Y-15859D01*
X61586Y-15971D01*
X61575Y-15960D01*
X61553Y-15949D01*
X61496Y-15949D01*
X61474Y-15960D01*
X61463Y-15971D01*
X61451Y-15994D01*
X61451Y-16050D01*
X61463Y-16073D01*
X61474Y-16084D01*
X61496Y-16095D01*
X61553Y-16095D01*
X61575Y-16084D01*
X61586Y-16073D01*
X45036Y-24095D02*
X45036Y-23859D01*
X44946Y-23859D01*
X44924Y-23870D01*
X44913Y-23881D01*
X44901Y-23904D01*
X44901Y-23938D01*
X44913Y-23960D01*
X44924Y-23971D01*
X44946Y-23983D01*
X45036Y-23983D01*
X44823Y-23859D02*
X44676Y-23859D01*
X44755Y-23949D01*
X44721Y-23949D01*
X44699Y-23960D01*
X44688Y-23971D01*
X44676Y-23994D01*
X44676Y-24050D01*
X44688Y-24073D01*
X44699Y-24084D01*
X44721Y-24095D01*
X44789Y-24095D01*
X44811Y-24084D01*
X44823Y-24073D01*
X44474Y-23859D02*
X44519Y-23859D01*
X44541Y-23870D01*
X44553Y-23881D01*
X44575Y-23915D01*
X44586Y-23960D01*
X44586Y-24050D01*
X44575Y-24073D01*
X44564Y-24084D01*
X44541Y-24095D01*
X44496Y-24095D01*
X44474Y-24084D01*
X44463Y-24073D01*
X44451Y-24050D01*
X44451Y-23994D01*
X44463Y-23971D01*
X44474Y-23960D01*
X44496Y-23949D01*
X44541Y-23949D01*
X44564Y-23960D01*
X44575Y-23971D01*
X44586Y-23994D01*
X65036Y-26345D02*
X65036Y-26109D01*
X64946Y-26109D01*
X64924Y-26120D01*
X64913Y-26131D01*
X64901Y-26154D01*
X64901Y-26188D01*
X64913Y-26210D01*
X64924Y-26221D01*
X64946Y-26233D01*
X65036Y-26233D01*
X64823Y-26109D02*
X64676Y-26109D01*
X64755Y-26199D01*
X64721Y-26199D01*
X64699Y-26210D01*
X64688Y-26221D01*
X64676Y-26244D01*
X64676Y-26300D01*
X64688Y-26323D01*
X64699Y-26334D01*
X64721Y-26345D01*
X64789Y-26345D01*
X64811Y-26334D01*
X64823Y-26323D01*
X64564Y-26345D02*
X64519Y-26345D01*
X64496Y-26334D01*
X64485Y-26323D01*
X64463Y-26289D01*
X64451Y-26244D01*
X64451Y-26154D01*
X64463Y-26131D01*
X64474Y-26120D01*
X64496Y-26109D01*
X64541Y-26109D01*
X64564Y-26120D01*
X64575Y-26131D01*
X64586Y-26154D01*
X64586Y-26210D01*
X64575Y-26233D01*
X64564Y-26244D01*
X64541Y-26255D01*
X64496Y-26255D01*
X64474Y-26244D01*
X64463Y-26233D01*
X64451Y-26210D01*
X58536Y-24095D02*
X58536Y-23859D01*
X58446Y-23859D01*
X58424Y-23870D01*
X58413Y-23881D01*
X58401Y-23904D01*
X58401Y-23938D01*
X58413Y-23960D01*
X58424Y-23971D01*
X58446Y-23983D01*
X58536Y-23983D01*
X58199Y-23938D02*
X58199Y-24095D01*
X58255Y-23848D02*
X58311Y-24016D01*
X58165Y-24016D01*
X58030Y-23859D02*
X58008Y-23859D01*
X57985Y-23870D01*
X57974Y-23881D01*
X57963Y-23904D01*
X57951Y-23949D01*
X57951Y-24005D01*
X57963Y-24050D01*
X57974Y-24073D01*
X57985Y-24084D01*
X58008Y-24095D01*
X58030Y-24095D01*
X58053Y-24084D01*
X58064Y-24073D01*
X58075Y-24050D01*
X58086Y-24005D01*
X58086Y-23949D01*
X58075Y-23904D01*
X58064Y-23881D01*
X58053Y-23870D01*
X58030Y-23859D01*
X63036Y-21095D02*
X63036Y-20859D01*
X62946Y-20859D01*
X62924Y-20870D01*
X62913Y-20881D01*
X62901Y-20904D01*
X62901Y-20938D01*
X62913Y-20960D01*
X62924Y-20971D01*
X62946Y-20983D01*
X63036Y-20983D01*
X62699Y-20938D02*
X62699Y-21095D01*
X62755Y-20848D02*
X62811Y-21016D01*
X62665Y-21016D01*
X62451Y-21095D02*
X62586Y-21095D01*
X62519Y-21095D02*
X62519Y-20859D01*
X62541Y-20893D01*
X62564Y-20915D01*
X62586Y-20926D01*
X59286Y-26784D02*
X59286Y-26548D01*
X59196Y-26548D01*
X59174Y-26559D01*
X59163Y-26570D01*
X59151Y-26593D01*
X59151Y-26627D01*
X59163Y-26649D01*
X59174Y-26660D01*
X59196Y-26672D01*
X59286Y-26672D01*
X58949Y-26627D02*
X58949Y-26784D01*
X59005Y-26537D02*
X59061Y-26705D01*
X58915Y-26705D01*
X58836Y-26570D02*
X58825Y-26559D01*
X58803Y-26548D01*
X58746Y-26548D01*
X58724Y-26559D01*
X58713Y-26570D01*
X58701Y-26593D01*
X58701Y-26615D01*
X58713Y-26649D01*
X58848Y-26784D01*
X58701Y-26784D01*
X62536Y-18095D02*
X62536Y-17859D01*
X62446Y-17859D01*
X62424Y-17870D01*
X62413Y-17881D01*
X62401Y-17904D01*
X62401Y-17938D01*
X62413Y-17960D01*
X62424Y-17971D01*
X62446Y-17983D01*
X62536Y-17983D01*
X62199Y-17938D02*
X62199Y-18095D01*
X62255Y-17848D02*
X62311Y-18016D01*
X62165Y-18016D01*
X62098Y-17859D02*
X61951Y-17859D01*
X62030Y-17949D01*
X61996Y-17949D01*
X61974Y-17960D01*
X61963Y-17971D01*
X61951Y-17994D01*
X61951Y-18050D01*
X61963Y-18073D01*
X61974Y-18084D01*
X61996Y-18095D01*
X62064Y-18095D01*
X62086Y-18084D01*
X62098Y-18073D01*
X59536Y-21095D02*
X59536Y-20859D01*
X59446Y-20859D01*
X59424Y-20870D01*
X59413Y-20881D01*
X59401Y-20904D01*
X59401Y-20938D01*
X59413Y-20960D01*
X59424Y-20971D01*
X59446Y-20983D01*
X59536Y-20983D01*
X59199Y-20938D02*
X59199Y-21095D01*
X59255Y-20848D02*
X59311Y-21016D01*
X59165Y-21016D01*
X58974Y-20938D02*
X58974Y-21095D01*
X59030Y-20848D02*
X59086Y-21016D01*
X58940Y-21016D01*
X56536Y-19095D02*
X56536Y-18859D01*
X56446Y-18859D01*
X56424Y-18870D01*
X56413Y-18881D01*
X56401Y-18904D01*
X56401Y-18938D01*
X56413Y-18960D01*
X56424Y-18971D01*
X56446Y-18983D01*
X56536Y-18983D01*
X56199Y-18938D02*
X56199Y-19095D01*
X56255Y-18848D02*
X56311Y-19016D01*
X56165Y-19016D01*
X55963Y-18859D02*
X56075Y-18859D01*
X56086Y-18971D01*
X56075Y-18960D01*
X56053Y-18949D01*
X55996Y-18949D01*
X55974Y-18960D01*
X55963Y-18971D01*
X55951Y-18994D01*
X55951Y-19050D01*
X55963Y-19073D01*
X55974Y-19084D01*
X55996Y-19095D01*
X56053Y-19095D01*
X56075Y-19084D01*
X56086Y-19073D01*
X40286Y-26784D02*
X40286Y-26548D01*
X40196Y-26548D01*
X40174Y-26559D01*
X40163Y-26570D01*
X40151Y-26593D01*
X40151Y-26627D01*
X40163Y-26649D01*
X40174Y-26660D01*
X40196Y-26672D01*
X40286Y-26672D01*
X40061Y-26570D02*
X40050Y-26559D01*
X40028Y-26548D01*
X39971Y-26548D01*
X39949Y-26559D01*
X39938Y-26570D01*
X39926Y-26593D01*
X39926Y-26615D01*
X39938Y-26649D01*
X40073Y-26784D01*
X39926Y-26784D01*
X39848Y-26548D02*
X39701Y-26548D01*
X39780Y-26638D01*
X39746Y-26638D01*
X39724Y-26649D01*
X39713Y-26660D01*
X39701Y-26683D01*
X39701Y-26739D01*
X39713Y-26762D01*
X39724Y-26773D01*
X39746Y-26784D01*
X39814Y-26784D01*
X39836Y-26773D01*
X39848Y-26762D01*
X43036Y-24095D02*
X43036Y-23859D01*
X42946Y-23859D01*
X42924Y-23870D01*
X42913Y-23881D01*
X42901Y-23904D01*
X42901Y-23938D01*
X42913Y-23960D01*
X42924Y-23971D01*
X42946Y-23983D01*
X43036Y-23983D01*
X42811Y-23881D02*
X42800Y-23870D01*
X42778Y-23859D01*
X42721Y-23859D01*
X42699Y-23870D01*
X42688Y-23881D01*
X42676Y-23904D01*
X42676Y-23926D01*
X42688Y-23960D01*
X42823Y-24095D01*
X42676Y-24095D01*
X42474Y-23938D02*
X42474Y-24095D01*
X42530Y-23848D02*
X42586Y-24016D01*
X42440Y-24016D01*
X41286Y-25720D02*
X41286Y-25484D01*
X41196Y-25484D01*
X41174Y-25495D01*
X41163Y-25506D01*
X41151Y-25529D01*
X41151Y-25563D01*
X41163Y-25585D01*
X41174Y-25596D01*
X41196Y-25608D01*
X41286Y-25608D01*
X41061Y-25506D02*
X41050Y-25495D01*
X41028Y-25484D01*
X40971Y-25484D01*
X40949Y-25495D01*
X40938Y-25506D01*
X40926Y-25529D01*
X40926Y-25551D01*
X40938Y-25585D01*
X41073Y-25720D01*
X40926Y-25720D01*
X40713Y-25484D02*
X40825Y-25484D01*
X40836Y-25596D01*
X40825Y-25585D01*
X40803Y-25574D01*
X40746Y-25574D01*
X40724Y-25585D01*
X40713Y-25596D01*
X40701Y-25619D01*
X40701Y-25675D01*
X40713Y-25698D01*
X40724Y-25709D01*
X40746Y-25720D01*
X40803Y-25720D01*
X40825Y-25709D01*
X40836Y-25698D01*
X42536Y-20095D02*
X42536Y-19859D01*
X42446Y-19859D01*
X42424Y-19870D01*
X42413Y-19881D01*
X42401Y-19904D01*
X42401Y-19938D01*
X42413Y-19960D01*
X42424Y-19971D01*
X42446Y-19983D01*
X42536Y-19983D01*
X42311Y-19881D02*
X42300Y-19870D01*
X42278Y-19859D01*
X42221Y-19859D01*
X42199Y-19870D01*
X42188Y-19881D01*
X42176Y-19904D01*
X42176Y-19926D01*
X42188Y-19960D01*
X42323Y-20095D01*
X42176Y-20095D01*
X41974Y-19859D02*
X42019Y-19859D01*
X42041Y-19870D01*
X42053Y-19881D01*
X42075Y-19915D01*
X42086Y-19960D01*
X42086Y-20050D01*
X42075Y-20073D01*
X42064Y-20084D01*
X42041Y-20095D01*
X41996Y-20095D01*
X41974Y-20084D01*
X41963Y-20073D01*
X41951Y-20050D01*
X41951Y-19994D01*
X41963Y-19971D01*
X41974Y-19960D01*
X41996Y-19949D01*
X42041Y-19949D01*
X42064Y-19960D01*
X42075Y-19971D01*
X42086Y-19994D01*
X44536Y-20095D02*
X44536Y-19859D01*
X44446Y-19859D01*
X44424Y-19870D01*
X44413Y-19881D01*
X44401Y-19904D01*
X44401Y-19938D01*
X44413Y-19960D01*
X44424Y-19971D01*
X44446Y-19983D01*
X44536Y-19983D01*
X44311Y-19881D02*
X44300Y-19870D01*
X44278Y-19859D01*
X44221Y-19859D01*
X44199Y-19870D01*
X44188Y-19881D01*
X44176Y-19904D01*
X44176Y-19926D01*
X44188Y-19960D01*
X44323Y-20095D01*
X44176Y-20095D01*
X44098Y-19859D02*
X43940Y-19859D01*
X44041Y-20095D01*
X42536Y-21095D02*
X42536Y-20859D01*
X42446Y-20859D01*
X42424Y-20870D01*
X42413Y-20881D01*
X42401Y-20904D01*
X42401Y-20938D01*
X42413Y-20960D01*
X42424Y-20971D01*
X42446Y-20983D01*
X42536Y-20983D01*
X42311Y-20881D02*
X42300Y-20870D01*
X42278Y-20859D01*
X42221Y-20859D01*
X42199Y-20870D01*
X42188Y-20881D01*
X42176Y-20904D01*
X42176Y-20926D01*
X42188Y-20960D01*
X42323Y-21095D01*
X42176Y-21095D01*
X42041Y-20960D02*
X42064Y-20949D01*
X42075Y-20938D01*
X42086Y-20915D01*
X42086Y-20904D01*
X42075Y-20881D01*
X42064Y-20870D01*
X42041Y-20859D01*
X41996Y-20859D01*
X41974Y-20870D01*
X41963Y-20881D01*
X41951Y-20904D01*
X41951Y-20915D01*
X41963Y-20938D01*
X41974Y-20949D01*
X41996Y-20960D01*
X42041Y-20960D01*
X42064Y-20971D01*
X42075Y-20983D01*
X42086Y-21005D01*
X42086Y-21050D01*
X42075Y-21073D01*
X42064Y-21084D01*
X42041Y-21095D01*
X41996Y-21095D01*
X41974Y-21084D01*
X41963Y-21073D01*
X41951Y-21050D01*
X41951Y-21005D01*
X41963Y-20983D01*
X41974Y-20971D01*
X41996Y-20960D01*
X36220Y-16463D02*
X35984Y-16463D01*
X35984Y-16553D01*
X35995Y-16575D01*
X36006Y-16586D01*
X36029Y-16598D01*
X36063Y-16598D01*
X36085Y-16586D01*
X36096Y-16575D01*
X36108Y-16553D01*
X36108Y-16463D01*
X35984Y-16676D02*
X35984Y-16823D01*
X36074Y-16744D01*
X36074Y-16778D01*
X36085Y-16800D01*
X36096Y-16811D01*
X36119Y-16823D01*
X36175Y-16823D01*
X36198Y-16811D01*
X36209Y-16800D01*
X36220Y-16778D01*
X36220Y-16710D01*
X36209Y-16688D01*
X36198Y-16676D01*
X35984Y-16969D02*
X35984Y-16991D01*
X35995Y-17014D01*
X36006Y-17025D01*
X36029Y-17036D01*
X36074Y-17048D01*
X36130Y-17048D01*
X36175Y-17036D01*
X36198Y-17025D01*
X36209Y-17014D01*
X36220Y-16991D01*
X36220Y-16969D01*
X36209Y-16946D01*
X36198Y-16935D01*
X36175Y-16924D01*
X36130Y-16913D01*
X36074Y-16913D01*
X36029Y-16924D01*
X36006Y-16935D01*
X35995Y-16946D01*
X35984Y-16969D01*
X37095Y-16463D02*
X36859Y-16463D01*
X36859Y-16553D01*
X36870Y-16575D01*
X36881Y-16586D01*
X36904Y-16598D01*
X36938Y-16598D01*
X36960Y-16586D01*
X36971Y-16575D01*
X36983Y-16553D01*
X36983Y-16463D01*
X36859Y-16676D02*
X36859Y-16823D01*
X36949Y-16744D01*
X36949Y-16778D01*
X36960Y-16800D01*
X36971Y-16811D01*
X36994Y-16823D01*
X37050Y-16823D01*
X37073Y-16811D01*
X37084Y-16800D01*
X37095Y-16778D01*
X37095Y-16710D01*
X37084Y-16688D01*
X37073Y-16676D01*
X37095Y-17048D02*
X37095Y-16913D01*
X37095Y-16980D02*
X36859Y-16980D01*
X36893Y-16958D01*
X36915Y-16935D01*
X36926Y-16913D01*
X42286Y-14495D02*
X42286Y-14259D01*
X42196Y-14259D01*
X42174Y-14270D01*
X42163Y-14281D01*
X42151Y-14304D01*
X42151Y-14338D01*
X42163Y-14360D01*
X42174Y-14371D01*
X42196Y-14383D01*
X42286Y-14383D01*
X42073Y-14259D02*
X41926Y-14259D01*
X42005Y-14349D01*
X41971Y-14349D01*
X41949Y-14360D01*
X41938Y-14371D01*
X41926Y-14394D01*
X41926Y-14450D01*
X41938Y-14473D01*
X41949Y-14484D01*
X41971Y-14495D01*
X42039Y-14495D01*
X42061Y-14484D01*
X42073Y-14473D01*
X41836Y-14281D02*
X41825Y-14270D01*
X41803Y-14259D01*
X41746Y-14259D01*
X41724Y-14270D01*
X41713Y-14281D01*
X41701Y-14304D01*
X41701Y-14326D01*
X41713Y-14360D01*
X41848Y-14495D01*
X41701Y-14495D01*
X42286Y-16784D02*
X42286Y-16548D01*
X42196Y-16548D01*
X42174Y-16559D01*
X42163Y-16570D01*
X42151Y-16593D01*
X42151Y-16627D01*
X42163Y-16649D01*
X42174Y-16660D01*
X42196Y-16672D01*
X42286Y-16672D01*
X42073Y-16548D02*
X41926Y-16548D01*
X42005Y-16638D01*
X41971Y-16638D01*
X41949Y-16649D01*
X41938Y-16660D01*
X41926Y-16683D01*
X41926Y-16739D01*
X41938Y-16762D01*
X41949Y-16773D01*
X41971Y-16784D01*
X42039Y-16784D01*
X42061Y-16773D01*
X42073Y-16762D01*
X41848Y-16548D02*
X41701Y-16548D01*
X41780Y-16638D01*
X41746Y-16638D01*
X41724Y-16649D01*
X41713Y-16660D01*
X41701Y-16683D01*
X41701Y-16739D01*
X41713Y-16762D01*
X41724Y-16773D01*
X41746Y-16784D01*
X41814Y-16784D01*
X41836Y-16773D01*
X41848Y-16762D01*
X40536Y-23095D02*
X40536Y-22859D01*
X40446Y-22859D01*
X40424Y-22870D01*
X40413Y-22881D01*
X40401Y-22904D01*
X40401Y-22938D01*
X40413Y-22960D01*
X40424Y-22971D01*
X40446Y-22983D01*
X40536Y-22983D01*
X40323Y-22859D02*
X40176Y-22859D01*
X40255Y-22949D01*
X40221Y-22949D01*
X40199Y-22960D01*
X40188Y-22971D01*
X40176Y-22994D01*
X40176Y-23050D01*
X40188Y-23073D01*
X40199Y-23084D01*
X40221Y-23095D01*
X40289Y-23095D01*
X40311Y-23084D01*
X40323Y-23073D01*
X39974Y-22938D02*
X39974Y-23095D01*
X40030Y-22848D02*
X40086Y-23016D01*
X39940Y-23016D01*
X38095Y-16463D02*
X37859Y-16463D01*
X37859Y-16553D01*
X37870Y-16575D01*
X37881Y-16586D01*
X37904Y-16598D01*
X37938Y-16598D01*
X37960Y-16586D01*
X37971Y-16575D01*
X37983Y-16553D01*
X37983Y-16463D01*
X37859Y-16676D02*
X37859Y-16823D01*
X37949Y-16744D01*
X37949Y-16778D01*
X37960Y-16800D01*
X37971Y-16811D01*
X37994Y-16823D01*
X38050Y-16823D01*
X38073Y-16811D01*
X38084Y-16800D01*
X38095Y-16778D01*
X38095Y-16710D01*
X38084Y-16688D01*
X38073Y-16676D01*
X37859Y-17036D02*
X37859Y-16924D01*
X37971Y-16913D01*
X37960Y-16924D01*
X37949Y-16946D01*
X37949Y-17003D01*
X37960Y-17025D01*
X37971Y-17036D01*
X37994Y-17048D01*
X38050Y-17048D01*
X38073Y-17036D01*
X38084Y-17025D01*
X38095Y-17003D01*
X38095Y-16946D01*
X38084Y-16924D01*
X38073Y-16913D01*
X34095Y-16463D02*
X33859Y-16463D01*
X33859Y-16553D01*
X33870Y-16575D01*
X33881Y-16586D01*
X33904Y-16598D01*
X33938Y-16598D01*
X33960Y-16586D01*
X33971Y-16575D01*
X33983Y-16553D01*
X33983Y-16463D01*
X33859Y-16676D02*
X33859Y-16823D01*
X33949Y-16744D01*
X33949Y-16778D01*
X33960Y-16800D01*
X33971Y-16811D01*
X33994Y-16823D01*
X34050Y-16823D01*
X34073Y-16811D01*
X34084Y-16800D01*
X34095Y-16778D01*
X34095Y-16710D01*
X34084Y-16688D01*
X34073Y-16676D01*
X33859Y-16901D02*
X33859Y-17059D01*
X34095Y-16958D01*
X44286Y-18682D02*
X44286Y-18446D01*
X44196Y-18446D01*
X44174Y-18457D01*
X44163Y-18468D01*
X44151Y-18491D01*
X44151Y-18524D01*
X44163Y-18547D01*
X44174Y-18558D01*
X44196Y-18569D01*
X44286Y-18569D01*
X44061Y-18468D02*
X44050Y-18457D01*
X44028Y-18446D01*
X43971Y-18446D01*
X43949Y-18457D01*
X43938Y-18468D01*
X43926Y-18491D01*
X43926Y-18513D01*
X43938Y-18547D01*
X44073Y-18682D01*
X43926Y-18682D01*
X43701Y-18682D02*
X43836Y-18682D01*
X43769Y-18682D02*
X43769Y-18446D01*
X43791Y-18479D01*
X43814Y-18502D01*
X43836Y-18513D01*
%LPC*%
G54D15*
X27000Y-33500D03*
X27000Y-13000D03*
G54D16*
X27000Y-28000D03*
X27000Y-30000D03*
X27000Y-25000D03*
X27000Y-17000D03*
X27000Y-19000D03*
X27000Y-21000D03*
X27000Y-23000D03*
X67000Y-23000D03*
X27000Y-26000D03*
X27000Y-24000D03*
X27000Y-22000D03*
X27000Y-20000D03*
X27000Y-18000D03*
X27000Y-16000D03*
X43000Y-25000D03*
X27000Y-27000D03*
X27000Y-29000D03*
X27000Y-31000D03*
X27000Y-15000D03*
X69000Y-27000D03*
X69000Y-26000D03*
X69000Y-25000D03*
X69000Y-23000D03*
X35000Y-16000D03*
X64000Y-25000D03*
X60000Y-19000D03*
X60000Y-16000D03*
X50000Y-15000D03*
X61000Y-16000D03*
X44000Y-24000D03*
X64000Y-26000D03*
X59000Y-24000D03*
X62000Y-21000D03*
X59000Y-26000D03*
X63000Y-18000D03*
X60000Y-21000D03*
X57000Y-19000D03*
X40000Y-26000D03*
X42000Y-24000D03*
X41000Y-25000D03*
X43000Y-20000D03*
X45000Y-20000D03*
X43000Y-21000D03*
X36000Y-16000D03*
X37000Y-16000D03*
X42000Y-15000D03*
X42000Y-16000D03*
X41000Y-23000D03*
X38000Y-16000D03*
X34000Y-16000D03*
G54D17*
X44000Y-17608D03*
X43000Y-17608D03*
X45000Y-17608D03*
X45000Y-15391D03*
X44000Y-15391D03*
X43000Y-15391D03*
G54D18*
X41000Y-15000D03*
G54D19*
X40000Y-15000D03*
X39000Y-15000D03*
X38000Y-15000D03*
X37000Y-15000D03*
X36000Y-15000D03*
X35000Y-15000D03*
G54D18*
X25000Y-32000D03*
G54D19*
X25000Y-31000D03*
X25000Y-30000D03*
X25000Y-29000D03*
X25000Y-28000D03*
X25000Y-27000D03*
X25000Y-26000D03*
X25000Y-25000D03*
X25000Y-24000D03*
X25000Y-23000D03*
X25000Y-22000D03*
X25000Y-21000D03*
X25000Y-20000D03*
X25000Y-19000D03*
X25000Y-18000D03*
X25000Y-17000D03*
X25000Y-16000D03*
X25000Y-15000D03*
X71000Y-28000D03*
X71000Y-27000D03*
X71000Y-26000D03*
X71000Y-25000D03*
X71000Y-24000D03*
X71000Y-23000D03*
X71000Y-22000D03*
X71000Y-21000D03*
X71000Y-19000D03*
X71000Y-18000D03*
X71000Y-17000D03*
X71000Y-16000D03*
X71000Y-15000D03*
X71000Y-14000D03*
X60000Y-13950D03*
X61000Y-13950D03*
X62000Y-13950D03*
X62000Y-12950D03*
X61000Y-12950D03*
X60000Y-12950D03*
X52000Y-14000D03*
X52000Y-15000D03*
X52000Y-16000D03*
X52000Y-17000D03*
X52000Y-18000D03*
X52000Y-19000D03*
X52000Y-20000D03*
X52000Y-21000D03*
X52000Y-22600D03*
X52000Y-23600D03*
X52000Y-24600D03*
X52000Y-25600D03*
X52000Y-26600D03*
X52000Y-27600D03*
X52000Y-28600D03*
X52000Y-29600D03*
X52000Y-30600D03*
X52000Y-31600D03*
G54D20*
X52000Y-33000D03*
X58000Y-13000D03*
X71000Y-33500D03*
X69000Y-13000D03*
M02*
