G04 #@! TF.FileFunction,Soldermask,Bot*
%FSLAX46Y46*%
G04 Gerber Fmt 4.6, Leading zero omitted, Abs format (unit mm)*
G04 Created by KiCad (PCBNEW 4.0.0-2.201511301920+6191~38~ubuntu14.04.1-stable) date Sat Dec  5 18:00:00 2015*
%MOMM*%
G01*
G04 APERTURE LIST*
%ADD10C,0.150000*%
%ADD11C,3.797300*%
%ADD12C,1.500000*%
%ADD13R,1.270000X1.570000*%
%ADD14R,1.524000X1.524000*%
%ADD15C,1.524000*%
%ADD16C,3.175000*%
G04 APERTURE END LIST*
D10*
D11*
X68580000Y-85090000D03*
X68580000Y-33020000D03*
D12*
X68580000Y-71120000D03*
X68580000Y-76200000D03*
X68580000Y-63500000D03*
X68580000Y-43180000D03*
X68580000Y-48260000D03*
X68580000Y-53340000D03*
X68580000Y-58420000D03*
X170180000Y-58420000D03*
X68580000Y-66040000D03*
X68580000Y-60960000D03*
X68580000Y-55880000D03*
X68580000Y-50800000D03*
X68580000Y-45720000D03*
X68580000Y-40640000D03*
X109220000Y-63500000D03*
X68580000Y-68580000D03*
X68580000Y-73660000D03*
X68580000Y-78740000D03*
X68580000Y-38100000D03*
X175260000Y-68580000D03*
X175260000Y-66040000D03*
X175260000Y-63500000D03*
X175260000Y-58420000D03*
X88900000Y-40640000D03*
X162560000Y-63500000D03*
X152400000Y-48260000D03*
X152400000Y-40640000D03*
X127000000Y-38100000D03*
X154940000Y-40640000D03*
X111760000Y-60960000D03*
X162560000Y-66040000D03*
X149860000Y-60960000D03*
X157480000Y-53340000D03*
X149860000Y-66040000D03*
X160020000Y-45720000D03*
X152400000Y-53340000D03*
X144780000Y-48260000D03*
X101600000Y-66040000D03*
X106680000Y-60960000D03*
X104140000Y-63500000D03*
X109220000Y-50800000D03*
X114300000Y-50800000D03*
X109220000Y-53340000D03*
X91440000Y-40640000D03*
X93980000Y-40640000D03*
X106680000Y-38100000D03*
X106680000Y-40640000D03*
X104140000Y-58420000D03*
X96520000Y-40640000D03*
X86360000Y-40640000D03*
D13*
X111760000Y-44725000D03*
X109220000Y-44725000D03*
X114300000Y-44725000D03*
X114300000Y-39095000D03*
X111760000Y-39095000D03*
X109220000Y-39095000D03*
D14*
X104140000Y-38100000D03*
D15*
X101600000Y-38100000D03*
X99060000Y-38100000D03*
X96520000Y-38100000D03*
X93980000Y-38100000D03*
X91440000Y-38100000D03*
X88900000Y-38100000D03*
D14*
X63500000Y-81280000D03*
D15*
X63500000Y-78740000D03*
X63500000Y-76200000D03*
X63500000Y-73660000D03*
X63500000Y-71120000D03*
X63500000Y-68580000D03*
X63500000Y-66040000D03*
X63500000Y-63500000D03*
X63500000Y-60960000D03*
X63500000Y-58420000D03*
X63500000Y-55880000D03*
X63500000Y-53340000D03*
X63500000Y-50800000D03*
X63500000Y-48260000D03*
X63500000Y-45720000D03*
X63500000Y-43180000D03*
X63500000Y-40640000D03*
X63500000Y-38100000D03*
X180340000Y-71120000D03*
X180340000Y-68580000D03*
X180340000Y-66040000D03*
X180340000Y-63500000D03*
X180340000Y-60960000D03*
X180340000Y-58420000D03*
X180340000Y-55880000D03*
X180340000Y-53340000D03*
X180340000Y-48260000D03*
X180340000Y-45720000D03*
X180340000Y-43180000D03*
X180340000Y-40640000D03*
X180340000Y-38100000D03*
X180340000Y-35560000D03*
X152400000Y-35433000D03*
X154940000Y-35433000D03*
X157480000Y-35433000D03*
X157480000Y-32893000D03*
X154940000Y-32893000D03*
X152400000Y-32893000D03*
X132080000Y-35560000D03*
X132080000Y-38100000D03*
X132080000Y-40640000D03*
X132080000Y-43180000D03*
X132080000Y-45720000D03*
X132080000Y-48260000D03*
X132080000Y-50800000D03*
X132080000Y-53340000D03*
X132080000Y-57404000D03*
X132080000Y-59944000D03*
X132080000Y-62484000D03*
X132080000Y-65024000D03*
X132080000Y-67564000D03*
X132080000Y-70104000D03*
X132080000Y-72644000D03*
X132080000Y-75184000D03*
X132080000Y-77724000D03*
X132080000Y-80264000D03*
D16*
X132080000Y-83820000D03*
X147320000Y-33020000D03*
X180340000Y-85090000D03*
X175260000Y-33020000D03*
M02*
