G04 #@! TF.FileFunction,Legend,Bot*
%FSLAX46Y46*%
G04 Gerber Fmt 4.6, Leading zero omitted, Abs format (unit mm)*
G04 Created by KiCad (PCBNEW 4.0.1-3.201512221402+6198~38~ubuntu14.04.1-stable) date Sun Jan 24 13:17:44 2016*
%MOMM*%
G01*
G04 APERTURE LIST*
%ADD10C,0.150000*%
%ADD11C,0.203200*%
%ADD12C,0.300000*%
%ADD13C,0.200000*%
%ADD14C,0.127000*%
%ADD15C,2.540000*%
%ADD16C,3.797300*%
%ADD17C,1.500000*%
%ADD18R,1.270000X1.570000*%
%ADD19R,1.524000X1.524000*%
%ADD20C,1.524000*%
%ADD21C,3.175000*%
G04 APERTURE END LIST*
D10*
D11*
X93472000Y-33261905D02*
X93423619Y-33165143D01*
X93423619Y-33020000D01*
X93472000Y-32874858D01*
X93568762Y-32778096D01*
X93665524Y-32729715D01*
X93859048Y-32681334D01*
X94004190Y-32681334D01*
X94197714Y-32729715D01*
X94294476Y-32778096D01*
X94391238Y-32874858D01*
X94439619Y-33020000D01*
X94439619Y-33116762D01*
X94391238Y-33261905D01*
X94342857Y-33310286D01*
X94004190Y-33310286D01*
X94004190Y-33116762D01*
X94439619Y-33745715D02*
X93423619Y-33745715D01*
X94439619Y-34326286D01*
X93423619Y-34326286D01*
X94439619Y-34810096D02*
X93423619Y-34810096D01*
X93423619Y-35052001D01*
X93472000Y-35197143D01*
X93568762Y-35293905D01*
X93665524Y-35342286D01*
X93859048Y-35390667D01*
X94004190Y-35390667D01*
X94197714Y-35342286D01*
X94294476Y-35293905D01*
X94391238Y-35197143D01*
X94439619Y-35052001D01*
X94439619Y-34810096D01*
X96012000Y-31901190D02*
X95963619Y-31804428D01*
X95963619Y-31659285D01*
X96012000Y-31514143D01*
X96108762Y-31417381D01*
X96205524Y-31369000D01*
X96399048Y-31320619D01*
X96544190Y-31320619D01*
X96737714Y-31369000D01*
X96834476Y-31417381D01*
X96931238Y-31514143D01*
X96979619Y-31659285D01*
X96979619Y-31756047D01*
X96931238Y-31901190D01*
X96882857Y-31949571D01*
X96544190Y-31949571D01*
X96544190Y-31756047D01*
X96979619Y-32385000D02*
X95963619Y-32385000D01*
X95963619Y-32772047D01*
X96012000Y-32868809D01*
X96060381Y-32917190D01*
X96157143Y-32965571D01*
X96302286Y-32965571D01*
X96399048Y-32917190D01*
X96447429Y-32868809D01*
X96495810Y-32772047D01*
X96495810Y-32385000D01*
X96979619Y-33401000D02*
X95963619Y-33401000D01*
X95963619Y-34078334D02*
X95963619Y-34271857D01*
X96012000Y-34368619D01*
X96108762Y-34465381D01*
X96302286Y-34513762D01*
X96640952Y-34513762D01*
X96834476Y-34465381D01*
X96931238Y-34368619D01*
X96979619Y-34271857D01*
X96979619Y-34078334D01*
X96931238Y-33981572D01*
X96834476Y-33884810D01*
X96640952Y-33836429D01*
X96302286Y-33836429D01*
X96108762Y-33884810D01*
X96012000Y-33981572D01*
X95963619Y-34078334D01*
X96302286Y-35384619D02*
X96979619Y-35384619D01*
X95915238Y-35142715D02*
X96640952Y-34900810D01*
X96640952Y-35529762D01*
X98552000Y-31901190D02*
X98503619Y-31804428D01*
X98503619Y-31659285D01*
X98552000Y-31514143D01*
X98648762Y-31417381D01*
X98745524Y-31369000D01*
X98939048Y-31320619D01*
X99084190Y-31320619D01*
X99277714Y-31369000D01*
X99374476Y-31417381D01*
X99471238Y-31514143D01*
X99519619Y-31659285D01*
X99519619Y-31756047D01*
X99471238Y-31901190D01*
X99422857Y-31949571D01*
X99084190Y-31949571D01*
X99084190Y-31756047D01*
X99519619Y-32385000D02*
X98503619Y-32385000D01*
X98503619Y-32772047D01*
X98552000Y-32868809D01*
X98600381Y-32917190D01*
X98697143Y-32965571D01*
X98842286Y-32965571D01*
X98939048Y-32917190D01*
X98987429Y-32868809D01*
X99035810Y-32772047D01*
X99035810Y-32385000D01*
X99519619Y-33401000D02*
X98503619Y-33401000D01*
X98503619Y-34078334D02*
X98503619Y-34271857D01*
X98552000Y-34368619D01*
X98648762Y-34465381D01*
X98842286Y-34513762D01*
X99180952Y-34513762D01*
X99374476Y-34465381D01*
X99471238Y-34368619D01*
X99519619Y-34271857D01*
X99519619Y-34078334D01*
X99471238Y-33981572D01*
X99374476Y-33884810D01*
X99180952Y-33836429D01*
X98842286Y-33836429D01*
X98648762Y-33884810D01*
X98552000Y-33981572D01*
X98503619Y-34078334D01*
X98503619Y-34852429D02*
X98503619Y-35481381D01*
X98890667Y-35142715D01*
X98890667Y-35287857D01*
X98939048Y-35384619D01*
X98987429Y-35433000D01*
X99084190Y-35481381D01*
X99326095Y-35481381D01*
X99422857Y-35433000D01*
X99471238Y-35384619D01*
X99519619Y-35287857D01*
X99519619Y-34997572D01*
X99471238Y-34900810D01*
X99422857Y-34852429D01*
X101092000Y-31901190D02*
X101043619Y-31804428D01*
X101043619Y-31659285D01*
X101092000Y-31514143D01*
X101188762Y-31417381D01*
X101285524Y-31369000D01*
X101479048Y-31320619D01*
X101624190Y-31320619D01*
X101817714Y-31369000D01*
X101914476Y-31417381D01*
X102011238Y-31514143D01*
X102059619Y-31659285D01*
X102059619Y-31756047D01*
X102011238Y-31901190D01*
X101962857Y-31949571D01*
X101624190Y-31949571D01*
X101624190Y-31756047D01*
X102059619Y-32385000D02*
X101043619Y-32385000D01*
X101043619Y-32772047D01*
X101092000Y-32868809D01*
X101140381Y-32917190D01*
X101237143Y-32965571D01*
X101382286Y-32965571D01*
X101479048Y-32917190D01*
X101527429Y-32868809D01*
X101575810Y-32772047D01*
X101575810Y-32385000D01*
X102059619Y-33401000D02*
X101043619Y-33401000D01*
X101043619Y-34078334D02*
X101043619Y-34271857D01*
X101092000Y-34368619D01*
X101188762Y-34465381D01*
X101382286Y-34513762D01*
X101720952Y-34513762D01*
X101914476Y-34465381D01*
X102011238Y-34368619D01*
X102059619Y-34271857D01*
X102059619Y-34078334D01*
X102011238Y-33981572D01*
X101914476Y-33884810D01*
X101720952Y-33836429D01*
X101382286Y-33836429D01*
X101188762Y-33884810D01*
X101092000Y-33981572D01*
X101043619Y-34078334D01*
X101140381Y-34900810D02*
X101092000Y-34949191D01*
X101043619Y-35045953D01*
X101043619Y-35287857D01*
X101092000Y-35384619D01*
X101140381Y-35433000D01*
X101237143Y-35481381D01*
X101333905Y-35481381D01*
X101479048Y-35433000D01*
X102059619Y-34852429D01*
X102059619Y-35481381D01*
X103886000Y-31901190D02*
X103837619Y-31804428D01*
X103837619Y-31659285D01*
X103886000Y-31514143D01*
X103982762Y-31417381D01*
X104079524Y-31369000D01*
X104273048Y-31320619D01*
X104418190Y-31320619D01*
X104611714Y-31369000D01*
X104708476Y-31417381D01*
X104805238Y-31514143D01*
X104853619Y-31659285D01*
X104853619Y-31756047D01*
X104805238Y-31901190D01*
X104756857Y-31949571D01*
X104418190Y-31949571D01*
X104418190Y-31756047D01*
X104853619Y-32385000D02*
X103837619Y-32385000D01*
X103837619Y-32772047D01*
X103886000Y-32868809D01*
X103934381Y-32917190D01*
X104031143Y-32965571D01*
X104176286Y-32965571D01*
X104273048Y-32917190D01*
X104321429Y-32868809D01*
X104369810Y-32772047D01*
X104369810Y-32385000D01*
X104853619Y-33401000D02*
X103837619Y-33401000D01*
X103837619Y-34078334D02*
X103837619Y-34271857D01*
X103886000Y-34368619D01*
X103982762Y-34465381D01*
X104176286Y-34513762D01*
X104514952Y-34513762D01*
X104708476Y-34465381D01*
X104805238Y-34368619D01*
X104853619Y-34271857D01*
X104853619Y-34078334D01*
X104805238Y-33981572D01*
X104708476Y-33884810D01*
X104514952Y-33836429D01*
X104176286Y-33836429D01*
X103982762Y-33884810D01*
X103886000Y-33981572D01*
X103837619Y-34078334D01*
X104853619Y-35481381D02*
X104853619Y-34900810D01*
X104853619Y-35191096D02*
X103837619Y-35191096D01*
X103982762Y-35094334D01*
X104079524Y-34997572D01*
X104127905Y-34900810D01*
X89069333Y-31961667D02*
X89069333Y-32445476D01*
X89359619Y-31864905D02*
X88343619Y-32203572D01*
X89359619Y-32542238D01*
X88343619Y-32735762D02*
X89359619Y-33074429D01*
X88343619Y-33413095D01*
X89262857Y-34332333D02*
X89311238Y-34283952D01*
X89359619Y-34138809D01*
X89359619Y-34042047D01*
X89311238Y-33896905D01*
X89214476Y-33800143D01*
X89117714Y-33751762D01*
X88924190Y-33703381D01*
X88779048Y-33703381D01*
X88585524Y-33751762D01*
X88488762Y-33800143D01*
X88392000Y-33896905D01*
X88343619Y-34042047D01*
X88343619Y-34138809D01*
X88392000Y-34283952D01*
X88440381Y-34332333D01*
X89262857Y-35348333D02*
X89311238Y-35299952D01*
X89359619Y-35154809D01*
X89359619Y-35058047D01*
X89311238Y-34912905D01*
X89214476Y-34816143D01*
X89117714Y-34767762D01*
X88924190Y-34719381D01*
X88779048Y-34719381D01*
X88585524Y-34767762D01*
X88488762Y-34816143D01*
X88392000Y-34912905D01*
X88343619Y-35058047D01*
X88343619Y-35154809D01*
X88392000Y-35299952D01*
X88440381Y-35348333D01*
X157673523Y-79199619D02*
X157673523Y-78522286D01*
X157673523Y-78715810D02*
X157625142Y-78619048D01*
X157576761Y-78570667D01*
X157479999Y-78522286D01*
X157383238Y-78522286D01*
X156657524Y-79151238D02*
X156754286Y-79199619D01*
X156947809Y-79199619D01*
X157044571Y-79151238D01*
X157092952Y-79054476D01*
X157092952Y-78667429D01*
X157044571Y-78570667D01*
X156947809Y-78522286D01*
X156754286Y-78522286D01*
X156657524Y-78570667D01*
X156609143Y-78667429D01*
X156609143Y-78764190D01*
X157092952Y-78860952D01*
X156270476Y-78522286D02*
X156028571Y-79199619D01*
X155786667Y-78522286D01*
X155399619Y-79102857D02*
X155351238Y-79151238D01*
X155399619Y-79199619D01*
X155448000Y-79151238D01*
X155399619Y-79102857D01*
X155399619Y-79199619D01*
X153948190Y-78183619D02*
X153851429Y-78183619D01*
X153754667Y-78232000D01*
X153706286Y-78280381D01*
X153657905Y-78377143D01*
X153609524Y-78570667D01*
X153609524Y-78812571D01*
X153657905Y-79006095D01*
X153706286Y-79102857D01*
X153754667Y-79151238D01*
X153851429Y-79199619D01*
X153948190Y-79199619D01*
X154044952Y-79151238D01*
X154093333Y-79102857D01*
X154141714Y-79006095D01*
X154190095Y-78812571D01*
X154190095Y-78570667D01*
X154141714Y-78377143D01*
X154093333Y-78280381D01*
X154044952Y-78232000D01*
X153948190Y-78183619D01*
X153174095Y-79102857D02*
X153125714Y-79151238D01*
X153174095Y-79199619D01*
X153222476Y-79151238D01*
X153174095Y-79102857D01*
X153174095Y-79199619D01*
X152158095Y-79199619D02*
X152738666Y-79199619D01*
X152448380Y-79199619D02*
X152448380Y-78183619D01*
X152545142Y-78328762D01*
X152641904Y-78425524D01*
X152738666Y-78473905D01*
X114191141Y-85498819D02*
X114674950Y-85498819D01*
X114674950Y-84482819D01*
X113852474Y-85498819D02*
X113852474Y-84821486D01*
X113852474Y-84482819D02*
X113900855Y-84531200D01*
X113852474Y-84579581D01*
X113804093Y-84531200D01*
X113852474Y-84482819D01*
X113852474Y-84579581D01*
X112933236Y-85450438D02*
X113029998Y-85498819D01*
X113223521Y-85498819D01*
X113320283Y-85450438D01*
X113368664Y-85402057D01*
X113417045Y-85305295D01*
X113417045Y-85015010D01*
X113368664Y-84918248D01*
X113320283Y-84869867D01*
X113223521Y-84821486D01*
X113029998Y-84821486D01*
X112933236Y-84869867D01*
X112110760Y-85450438D02*
X112207522Y-85498819D01*
X112401045Y-85498819D01*
X112497807Y-85450438D01*
X112546188Y-85353676D01*
X112546188Y-84966629D01*
X112497807Y-84869867D01*
X112401045Y-84821486D01*
X112207522Y-84821486D01*
X112110760Y-84869867D01*
X112062379Y-84966629D01*
X112062379Y-85063390D01*
X112546188Y-85160152D01*
X111626950Y-84821486D02*
X111626950Y-85498819D01*
X111626950Y-84918248D02*
X111578569Y-84869867D01*
X111481807Y-84821486D01*
X111336665Y-84821486D01*
X111239903Y-84869867D01*
X111191522Y-84966629D01*
X111191522Y-85498819D01*
X110756093Y-85450438D02*
X110659331Y-85498819D01*
X110465807Y-85498819D01*
X110369046Y-85450438D01*
X110320665Y-85353676D01*
X110320665Y-85305295D01*
X110369046Y-85208533D01*
X110465807Y-85160152D01*
X110610950Y-85160152D01*
X110707712Y-85111771D01*
X110756093Y-85015010D01*
X110756093Y-84966629D01*
X110707712Y-84869867D01*
X110610950Y-84821486D01*
X110465807Y-84821486D01*
X110369046Y-84869867D01*
X109498189Y-85450438D02*
X109594951Y-85498819D01*
X109788474Y-85498819D01*
X109885236Y-85450438D01*
X109933617Y-85353676D01*
X109933617Y-84966629D01*
X109885236Y-84869867D01*
X109788474Y-84821486D01*
X109594951Y-84821486D01*
X109498189Y-84869867D01*
X109449808Y-84966629D01*
X109449808Y-85063390D01*
X109933617Y-85160152D01*
X108578951Y-85498819D02*
X108578951Y-84482819D01*
X108578951Y-85450438D02*
X108675713Y-85498819D01*
X108869236Y-85498819D01*
X108965998Y-85450438D01*
X109014379Y-85402057D01*
X109062760Y-85305295D01*
X109062760Y-85015010D01*
X109014379Y-84918248D01*
X108965998Y-84869867D01*
X108869236Y-84821486D01*
X108675713Y-84821486D01*
X108578951Y-84869867D01*
X106885618Y-84821486D02*
X106885618Y-85498819D01*
X107321046Y-84821486D02*
X107321046Y-85353676D01*
X107272665Y-85450438D01*
X107175903Y-85498819D01*
X107030761Y-85498819D01*
X106933999Y-85450438D01*
X106885618Y-85402057D01*
X106401808Y-84821486D02*
X106401808Y-85498819D01*
X106401808Y-84918248D02*
X106353427Y-84869867D01*
X106256665Y-84821486D01*
X106111523Y-84821486D01*
X106014761Y-84869867D01*
X105966380Y-84966629D01*
X105966380Y-85498819D01*
X105047142Y-85498819D02*
X105047142Y-84482819D01*
X105047142Y-85450438D02*
X105143904Y-85498819D01*
X105337427Y-85498819D01*
X105434189Y-85450438D01*
X105482570Y-85402057D01*
X105530951Y-85305295D01*
X105530951Y-85015010D01*
X105482570Y-84918248D01*
X105434189Y-84869867D01*
X105337427Y-84821486D01*
X105143904Y-84821486D01*
X105047142Y-84869867D01*
X104176285Y-85450438D02*
X104273047Y-85498819D01*
X104466570Y-85498819D01*
X104563332Y-85450438D01*
X104611713Y-85353676D01*
X104611713Y-84966629D01*
X104563332Y-84869867D01*
X104466570Y-84821486D01*
X104273047Y-84821486D01*
X104176285Y-84869867D01*
X104127904Y-84966629D01*
X104127904Y-85063390D01*
X104611713Y-85160152D01*
X103692475Y-85498819D02*
X103692475Y-84821486D01*
X103692475Y-85015010D02*
X103644094Y-84918248D01*
X103595713Y-84869867D01*
X103498951Y-84821486D01*
X103402190Y-84821486D01*
X101708857Y-85402057D02*
X101757238Y-85450438D01*
X101902381Y-85498819D01*
X101999143Y-85498819D01*
X102144285Y-85450438D01*
X102241047Y-85353676D01*
X102289428Y-85256914D01*
X102337809Y-85063390D01*
X102337809Y-84918248D01*
X102289428Y-84724724D01*
X102241047Y-84627962D01*
X102144285Y-84531200D01*
X101999143Y-84482819D01*
X101902381Y-84482819D01*
X101757238Y-84531200D01*
X101708857Y-84579581D01*
X101273428Y-84966629D02*
X100934762Y-84966629D01*
X100789619Y-85498819D02*
X101273428Y-85498819D01*
X101273428Y-84482819D01*
X100789619Y-84482819D01*
X99773619Y-85498819D02*
X100112285Y-85015010D01*
X100354190Y-85498819D02*
X100354190Y-84482819D01*
X99967143Y-84482819D01*
X99870381Y-84531200D01*
X99822000Y-84579581D01*
X99773619Y-84676343D01*
X99773619Y-84821486D01*
X99822000Y-84918248D01*
X99870381Y-84966629D01*
X99967143Y-85015010D01*
X100354190Y-85015010D01*
X99338190Y-85498819D02*
X99338190Y-84482819D01*
X98757619Y-85498819D01*
X98757619Y-84482819D01*
X97306190Y-84482819D02*
X97112667Y-84482819D01*
X97015905Y-84531200D01*
X96919143Y-84627962D01*
X96870762Y-84821486D01*
X96870762Y-85160152D01*
X96919143Y-85353676D01*
X97015905Y-85450438D01*
X97112667Y-85498819D01*
X97306190Y-85498819D01*
X97402952Y-85450438D01*
X97499714Y-85353676D01*
X97548095Y-85160152D01*
X97548095Y-84821486D01*
X97499714Y-84627962D01*
X97402952Y-84531200D01*
X97306190Y-84482819D01*
X96435333Y-85498819D02*
X96435333Y-84482819D01*
X96435333Y-84966629D02*
X95854762Y-84966629D01*
X95854762Y-85498819D02*
X95854762Y-84482819D01*
X94887143Y-85498819D02*
X95370952Y-85498819D01*
X95370952Y-84482819D01*
X93871143Y-84821486D02*
X93629238Y-85498819D01*
X93387334Y-84821486D01*
X93000286Y-85402057D02*
X92951905Y-85450438D01*
X93000286Y-85498819D01*
X93048667Y-85450438D01*
X93000286Y-85402057D01*
X93000286Y-85498819D01*
X91984286Y-85498819D02*
X92564857Y-85498819D01*
X92274571Y-85498819D02*
X92274571Y-84482819D01*
X92371333Y-84627962D01*
X92468095Y-84724724D01*
X92564857Y-84773105D01*
X91548857Y-85402057D02*
X91500476Y-85450438D01*
X91548857Y-85498819D01*
X91597238Y-85450438D01*
X91548857Y-85402057D01*
X91548857Y-85498819D01*
X91113428Y-84579581D02*
X91065047Y-84531200D01*
X90968285Y-84482819D01*
X90726381Y-84482819D01*
X90629619Y-84531200D01*
X90581238Y-84579581D01*
X90532857Y-84676343D01*
X90532857Y-84773105D01*
X90581238Y-84918248D01*
X91161809Y-85498819D01*
X90532857Y-85498819D01*
X89178190Y-85498819D02*
X89274952Y-85450438D01*
X89323333Y-85402057D01*
X89371714Y-85305295D01*
X89371714Y-85015010D01*
X89323333Y-84918248D01*
X89274952Y-84869867D01*
X89178190Y-84821486D01*
X89033048Y-84821486D01*
X88936286Y-84869867D01*
X88887905Y-84918248D01*
X88839524Y-85015010D01*
X88839524Y-85305295D01*
X88887905Y-85402057D01*
X88936286Y-85450438D01*
X89033048Y-85498819D01*
X89178190Y-85498819D01*
X88404095Y-85498819D02*
X88404095Y-84821486D01*
X88404095Y-85015010D02*
X88355714Y-84918248D01*
X88307333Y-84869867D01*
X88210571Y-84821486D01*
X88113810Y-84821486D01*
X86855905Y-85498819D02*
X86952667Y-85450438D01*
X87001048Y-85353676D01*
X87001048Y-84482819D01*
X86033430Y-85498819D02*
X86033430Y-84966629D01*
X86081811Y-84869867D01*
X86178573Y-84821486D01*
X86372096Y-84821486D01*
X86468858Y-84869867D01*
X86033430Y-85450438D02*
X86130192Y-85498819D01*
X86372096Y-85498819D01*
X86468858Y-85450438D01*
X86517239Y-85353676D01*
X86517239Y-85256914D01*
X86468858Y-85160152D01*
X86372096Y-85111771D01*
X86130192Y-85111771D01*
X86033430Y-85063390D01*
X85694763Y-84821486D02*
X85307715Y-84821486D01*
X85549620Y-84482819D02*
X85549620Y-85353676D01*
X85501239Y-85450438D01*
X85404477Y-85498819D01*
X85307715Y-85498819D01*
X84582002Y-85450438D02*
X84678764Y-85498819D01*
X84872287Y-85498819D01*
X84969049Y-85450438D01*
X85017430Y-85353676D01*
X85017430Y-84966629D01*
X84969049Y-84869867D01*
X84872287Y-84821486D01*
X84678764Y-84821486D01*
X84582002Y-84869867D01*
X84533621Y-84966629D01*
X84533621Y-85063390D01*
X85017430Y-85160152D01*
X84098192Y-85498819D02*
X84098192Y-84821486D01*
X84098192Y-85015010D02*
X84049811Y-84918248D01*
X84001430Y-84869867D01*
X83904668Y-84821486D01*
X83807907Y-84821486D01*
X108482189Y-87124419D02*
X108482189Y-86108419D01*
X108046761Y-87124419D02*
X108046761Y-86592229D01*
X108095142Y-86495467D01*
X108191904Y-86447086D01*
X108337046Y-86447086D01*
X108433808Y-86495467D01*
X108482189Y-86543848D01*
X107708094Y-86447086D02*
X107321046Y-86447086D01*
X107562951Y-86108419D02*
X107562951Y-86979276D01*
X107514570Y-87076038D01*
X107417808Y-87124419D01*
X107321046Y-87124419D01*
X107127523Y-86447086D02*
X106740475Y-86447086D01*
X106982380Y-86108419D02*
X106982380Y-86979276D01*
X106933999Y-87076038D01*
X106837237Y-87124419D01*
X106740475Y-87124419D01*
X106401809Y-86447086D02*
X106401809Y-87463086D01*
X106401809Y-86495467D02*
X106305047Y-86447086D01*
X106111524Y-86447086D01*
X106014762Y-86495467D01*
X105966381Y-86543848D01*
X105918000Y-86640610D01*
X105918000Y-86930895D01*
X105966381Y-87027657D01*
X106014762Y-87076038D01*
X106111524Y-87124419D01*
X106305047Y-87124419D01*
X106401809Y-87076038D01*
X105482571Y-87027657D02*
X105434190Y-87076038D01*
X105482571Y-87124419D01*
X105530952Y-87076038D01*
X105482571Y-87027657D01*
X105482571Y-87124419D01*
X105482571Y-86495467D02*
X105434190Y-86543848D01*
X105482571Y-86592229D01*
X105530952Y-86543848D01*
X105482571Y-86495467D01*
X105482571Y-86592229D01*
X104273047Y-86060038D02*
X105143904Y-87366324D01*
X103208666Y-86060038D02*
X104079523Y-87366324D01*
X102724856Y-87124419D02*
X102821618Y-87076038D01*
X102869999Y-87027657D01*
X102918380Y-86930895D01*
X102918380Y-86640610D01*
X102869999Y-86543848D01*
X102821618Y-86495467D01*
X102724856Y-86447086D01*
X102579714Y-86447086D01*
X102482952Y-86495467D01*
X102434571Y-86543848D01*
X102386190Y-86640610D01*
X102386190Y-86930895D01*
X102434571Y-87027657D01*
X102482952Y-87076038D01*
X102579714Y-87124419D01*
X102724856Y-87124419D01*
X101950761Y-87124419D02*
X101950761Y-86108419D01*
X101515333Y-87124419D02*
X101515333Y-86592229D01*
X101563714Y-86495467D01*
X101660476Y-86447086D01*
X101805618Y-86447086D01*
X101902380Y-86495467D01*
X101950761Y-86543848D01*
X101128285Y-86447086D02*
X100934761Y-87124419D01*
X100741238Y-86640610D01*
X100547714Y-87124419D01*
X100354190Y-86447086D01*
X99967142Y-87124419D02*
X99967142Y-86447086D01*
X99967142Y-86640610D02*
X99918761Y-86543848D01*
X99870380Y-86495467D01*
X99773618Y-86447086D01*
X99676857Y-86447086D01*
X99338190Y-87027657D02*
X99289809Y-87076038D01*
X99338190Y-87124419D01*
X99386571Y-87076038D01*
X99338190Y-87027657D01*
X99338190Y-87124419D01*
X98709237Y-87124419D02*
X98805999Y-87076038D01*
X98854380Y-87027657D01*
X98902761Y-86930895D01*
X98902761Y-86640610D01*
X98854380Y-86543848D01*
X98805999Y-86495467D01*
X98709237Y-86447086D01*
X98564095Y-86447086D01*
X98467333Y-86495467D01*
X98418952Y-86543848D01*
X98370571Y-86640610D01*
X98370571Y-86930895D01*
X98418952Y-87027657D01*
X98467333Y-87076038D01*
X98564095Y-87124419D01*
X98709237Y-87124419D01*
X97935142Y-87124419D02*
X97935142Y-86447086D01*
X97935142Y-86640610D02*
X97886761Y-86543848D01*
X97838380Y-86495467D01*
X97741618Y-86447086D01*
X97644857Y-86447086D01*
X96870762Y-86447086D02*
X96870762Y-87269562D01*
X96919143Y-87366324D01*
X96967524Y-87414705D01*
X97064285Y-87463086D01*
X97209428Y-87463086D01*
X97306190Y-87414705D01*
X96870762Y-87076038D02*
X96967524Y-87124419D01*
X97161047Y-87124419D01*
X97257809Y-87076038D01*
X97306190Y-87027657D01*
X97354571Y-86930895D01*
X97354571Y-86640610D01*
X97306190Y-86543848D01*
X97257809Y-86495467D01*
X97161047Y-86447086D01*
X96967524Y-86447086D01*
X96870762Y-86495467D01*
X95661238Y-86060038D02*
X96532095Y-87366324D01*
X94887143Y-87076038D02*
X94983905Y-87124419D01*
X95177428Y-87124419D01*
X95274190Y-87076038D01*
X95322571Y-87027657D01*
X95370952Y-86930895D01*
X95370952Y-86640610D01*
X95322571Y-86543848D01*
X95274190Y-86495467D01*
X95177428Y-86447086D01*
X94983905Y-86447086D01*
X94887143Y-86495467D01*
X94064667Y-87076038D02*
X94161429Y-87124419D01*
X94354952Y-87124419D01*
X94451714Y-87076038D01*
X94500095Y-86979276D01*
X94500095Y-86592229D01*
X94451714Y-86495467D01*
X94354952Y-86447086D01*
X94161429Y-86447086D01*
X94064667Y-86495467D01*
X94016286Y-86592229D01*
X94016286Y-86688990D01*
X94500095Y-86785752D01*
X93580857Y-87124419D02*
X93580857Y-86447086D01*
X93580857Y-86640610D02*
X93532476Y-86543848D01*
X93484095Y-86495467D01*
X93387333Y-86447086D01*
X93290572Y-86447086D01*
X92951905Y-86447086D02*
X92951905Y-87124419D01*
X92951905Y-86543848D02*
X92903524Y-86495467D01*
X92806762Y-86447086D01*
X92661620Y-86447086D01*
X92564858Y-86495467D01*
X92516477Y-86592229D01*
X92516477Y-87124419D01*
X91887524Y-87124419D02*
X91984286Y-87076038D01*
X92032667Y-87027657D01*
X92081048Y-86930895D01*
X92081048Y-86640610D01*
X92032667Y-86543848D01*
X91984286Y-86495467D01*
X91887524Y-86447086D01*
X91742382Y-86447086D01*
X91645620Y-86495467D01*
X91597239Y-86543848D01*
X91548858Y-86640610D01*
X91548858Y-86930895D01*
X91597239Y-87027657D01*
X91645620Y-87076038D01*
X91742382Y-87124419D01*
X91887524Y-87124419D01*
X91113429Y-87124419D02*
X91113429Y-86108419D01*
X90678001Y-87124419D02*
X90678001Y-86592229D01*
X90726382Y-86495467D01*
X90823144Y-86447086D01*
X90968286Y-86447086D01*
X91065048Y-86495467D01*
X91113429Y-86543848D01*
X90049048Y-87124419D02*
X90145810Y-87076038D01*
X90194191Y-86979276D01*
X90194191Y-86108419D01*
X176910997Y-88343619D02*
X176910997Y-87327619D01*
X176475569Y-88343619D02*
X176475569Y-87811429D01*
X176523950Y-87714667D01*
X176620712Y-87666286D01*
X176765854Y-87666286D01*
X176862616Y-87714667D01*
X176910997Y-87763048D01*
X176136902Y-87666286D02*
X175749854Y-87666286D01*
X175991759Y-87327619D02*
X175991759Y-88198476D01*
X175943378Y-88295238D01*
X175846616Y-88343619D01*
X175749854Y-88343619D01*
X175556331Y-87666286D02*
X175169283Y-87666286D01*
X175411188Y-87327619D02*
X175411188Y-88198476D01*
X175362807Y-88295238D01*
X175266045Y-88343619D01*
X175169283Y-88343619D01*
X174830617Y-87666286D02*
X174830617Y-88682286D01*
X174830617Y-87714667D02*
X174733855Y-87666286D01*
X174540332Y-87666286D01*
X174443570Y-87714667D01*
X174395189Y-87763048D01*
X174346808Y-87859810D01*
X174346808Y-88150095D01*
X174395189Y-88246857D01*
X174443570Y-88295238D01*
X174540332Y-88343619D01*
X174733855Y-88343619D01*
X174830617Y-88295238D01*
X173911379Y-88246857D02*
X173862998Y-88295238D01*
X173911379Y-88343619D01*
X173959760Y-88295238D01*
X173911379Y-88246857D01*
X173911379Y-88343619D01*
X173911379Y-87714667D02*
X173862998Y-87763048D01*
X173911379Y-87811429D01*
X173959760Y-87763048D01*
X173911379Y-87714667D01*
X173911379Y-87811429D01*
X172701855Y-87279238D02*
X173572712Y-88585524D01*
X171637474Y-87279238D02*
X172508331Y-88585524D01*
X171153664Y-88343619D02*
X171250426Y-88295238D01*
X171298807Y-88246857D01*
X171347188Y-88150095D01*
X171347188Y-87859810D01*
X171298807Y-87763048D01*
X171250426Y-87714667D01*
X171153664Y-87666286D01*
X171008522Y-87666286D01*
X170911760Y-87714667D01*
X170863379Y-87763048D01*
X170814998Y-87859810D01*
X170814998Y-88150095D01*
X170863379Y-88246857D01*
X170911760Y-88295238D01*
X171008522Y-88343619D01*
X171153664Y-88343619D01*
X170379569Y-87666286D02*
X170379569Y-88682286D01*
X170379569Y-87714667D02*
X170282807Y-87666286D01*
X170089284Y-87666286D01*
X169992522Y-87714667D01*
X169944141Y-87763048D01*
X169895760Y-87859810D01*
X169895760Y-88150095D01*
X169944141Y-88246857D01*
X169992522Y-88295238D01*
X170089284Y-88343619D01*
X170282807Y-88343619D01*
X170379569Y-88295238D01*
X169073284Y-88295238D02*
X169170046Y-88343619D01*
X169363569Y-88343619D01*
X169460331Y-88295238D01*
X169508712Y-88198476D01*
X169508712Y-87811429D01*
X169460331Y-87714667D01*
X169363569Y-87666286D01*
X169170046Y-87666286D01*
X169073284Y-87714667D01*
X169024903Y-87811429D01*
X169024903Y-87908190D01*
X169508712Y-88004952D01*
X168589474Y-87666286D02*
X168589474Y-88343619D01*
X168589474Y-87763048D02*
X168541093Y-87714667D01*
X168444331Y-87666286D01*
X168299189Y-87666286D01*
X168202427Y-87714667D01*
X168154046Y-87811429D01*
X168154046Y-88343619D01*
X167283189Y-88295238D02*
X167379951Y-88343619D01*
X167573474Y-88343619D01*
X167670236Y-88295238D01*
X167718617Y-88198476D01*
X167718617Y-87811429D01*
X167670236Y-87714667D01*
X167573474Y-87666286D01*
X167379951Y-87666286D01*
X167283189Y-87714667D01*
X167234808Y-87811429D01*
X167234808Y-87908190D01*
X167718617Y-88004952D01*
X166654236Y-88343619D02*
X166750998Y-88295238D01*
X166799379Y-88198476D01*
X166799379Y-87327619D01*
X165880142Y-88295238D02*
X165976904Y-88343619D01*
X166170427Y-88343619D01*
X166267189Y-88295238D01*
X166315570Y-88198476D01*
X166315570Y-87811429D01*
X166267189Y-87714667D01*
X166170427Y-87666286D01*
X165976904Y-87666286D01*
X165880142Y-87714667D01*
X165831761Y-87811429D01*
X165831761Y-87908190D01*
X166315570Y-88004952D01*
X164960904Y-88295238D02*
X165057666Y-88343619D01*
X165251189Y-88343619D01*
X165347951Y-88295238D01*
X165396332Y-88246857D01*
X165444713Y-88150095D01*
X165444713Y-87859810D01*
X165396332Y-87763048D01*
X165347951Y-87714667D01*
X165251189Y-87666286D01*
X165057666Y-87666286D01*
X164960904Y-87714667D01*
X164670618Y-87666286D02*
X164283570Y-87666286D01*
X164525475Y-87327619D02*
X164525475Y-88198476D01*
X164477094Y-88295238D01*
X164380332Y-88343619D01*
X164283570Y-88343619D01*
X163944904Y-88343619D02*
X163944904Y-87666286D01*
X163944904Y-87859810D02*
X163896523Y-87763048D01*
X163848142Y-87714667D01*
X163751380Y-87666286D01*
X163654619Y-87666286D01*
X163170809Y-88343619D02*
X163267571Y-88295238D01*
X163315952Y-88246857D01*
X163364333Y-88150095D01*
X163364333Y-87859810D01*
X163315952Y-87763048D01*
X163267571Y-87714667D01*
X163170809Y-87666286D01*
X163025667Y-87666286D01*
X162928905Y-87714667D01*
X162880524Y-87763048D01*
X162832143Y-87859810D01*
X162832143Y-88150095D01*
X162880524Y-88246857D01*
X162928905Y-88295238D01*
X163025667Y-88343619D01*
X163170809Y-88343619D01*
X162396714Y-87666286D02*
X162396714Y-88343619D01*
X162396714Y-87763048D02*
X162348333Y-87714667D01*
X162251571Y-87666286D01*
X162106429Y-87666286D01*
X162009667Y-87714667D01*
X161961286Y-87811429D01*
X161961286Y-88343619D01*
X161477476Y-88343619D02*
X161477476Y-87666286D01*
X161477476Y-87327619D02*
X161525857Y-87376000D01*
X161477476Y-87424381D01*
X161429095Y-87376000D01*
X161477476Y-87327619D01*
X161477476Y-87424381D01*
X160558238Y-88295238D02*
X160655000Y-88343619D01*
X160848523Y-88343619D01*
X160945285Y-88295238D01*
X160993666Y-88246857D01*
X161042047Y-88150095D01*
X161042047Y-87859810D01*
X160993666Y-87763048D01*
X160945285Y-87714667D01*
X160848523Y-87666286D01*
X160655000Y-87666286D01*
X160558238Y-87714667D01*
X160171190Y-88295238D02*
X160074428Y-88343619D01*
X159880904Y-88343619D01*
X159784143Y-88295238D01*
X159735762Y-88198476D01*
X159735762Y-88150095D01*
X159784143Y-88053333D01*
X159880904Y-88004952D01*
X160026047Y-88004952D01*
X160122809Y-87956571D01*
X160171190Y-87859810D01*
X160171190Y-87811429D01*
X160122809Y-87714667D01*
X160026047Y-87666286D01*
X159880904Y-87666286D01*
X159784143Y-87714667D01*
X159155190Y-88343619D02*
X159251952Y-88295238D01*
X159300333Y-88198476D01*
X159300333Y-87327619D01*
X158332715Y-88343619D02*
X158332715Y-87811429D01*
X158381096Y-87714667D01*
X158477858Y-87666286D01*
X158671381Y-87666286D01*
X158768143Y-87714667D01*
X158332715Y-88295238D02*
X158429477Y-88343619D01*
X158671381Y-88343619D01*
X158768143Y-88295238D01*
X158816524Y-88198476D01*
X158816524Y-88101714D01*
X158768143Y-88004952D01*
X158671381Y-87956571D01*
X158429477Y-87956571D01*
X158332715Y-87908190D01*
X157848905Y-88343619D02*
X157848905Y-87327619D01*
X157848905Y-87714667D02*
X157752143Y-87666286D01*
X157558620Y-87666286D01*
X157461858Y-87714667D01*
X157413477Y-87763048D01*
X157365096Y-87859810D01*
X157365096Y-88150095D01*
X157413477Y-88246857D01*
X157461858Y-88295238D01*
X157558620Y-88343619D01*
X157752143Y-88343619D01*
X157848905Y-88295238D01*
X156929667Y-88246857D02*
X156881286Y-88295238D01*
X156929667Y-88343619D01*
X156978048Y-88295238D01*
X156929667Y-88246857D01*
X156929667Y-88343619D01*
X156010429Y-87666286D02*
X156010429Y-88488762D01*
X156058810Y-88585524D01*
X156107191Y-88633905D01*
X156203952Y-88682286D01*
X156349095Y-88682286D01*
X156445857Y-88633905D01*
X156010429Y-88295238D02*
X156107191Y-88343619D01*
X156300714Y-88343619D01*
X156397476Y-88295238D01*
X156445857Y-88246857D01*
X156494238Y-88150095D01*
X156494238Y-87859810D01*
X156445857Y-87763048D01*
X156397476Y-87714667D01*
X156300714Y-87666286D01*
X156107191Y-87666286D01*
X156010429Y-87714667D01*
X155526619Y-88343619D02*
X155526619Y-87666286D01*
X155526619Y-87327619D02*
X155575000Y-87376000D01*
X155526619Y-87424381D01*
X155478238Y-87376000D01*
X155526619Y-87327619D01*
X155526619Y-87424381D01*
X155187952Y-87666286D02*
X154800904Y-87666286D01*
X155042809Y-87327619D02*
X155042809Y-88198476D01*
X154994428Y-88295238D01*
X154897666Y-88343619D01*
X154800904Y-88343619D01*
X154462238Y-88343619D02*
X154462238Y-87327619D01*
X154026810Y-88343619D02*
X154026810Y-87811429D01*
X154075191Y-87714667D01*
X154171953Y-87666286D01*
X154317095Y-87666286D01*
X154413857Y-87714667D01*
X154462238Y-87763048D01*
X153107572Y-87666286D02*
X153107572Y-88343619D01*
X153543000Y-87666286D02*
X153543000Y-88198476D01*
X153494619Y-88295238D01*
X153397857Y-88343619D01*
X153252715Y-88343619D01*
X153155953Y-88295238D01*
X153107572Y-88246857D01*
X152623762Y-88343619D02*
X152623762Y-87327619D01*
X152623762Y-87714667D02*
X152527000Y-87666286D01*
X152333477Y-87666286D01*
X152236715Y-87714667D01*
X152188334Y-87763048D01*
X152139953Y-87859810D01*
X152139953Y-88150095D01*
X152188334Y-88246857D01*
X152236715Y-88295238D01*
X152333477Y-88343619D01*
X152527000Y-88343619D01*
X152623762Y-88295238D01*
X151704524Y-88246857D02*
X151656143Y-88295238D01*
X151704524Y-88343619D01*
X151752905Y-88295238D01*
X151704524Y-88246857D01*
X151704524Y-88343619D01*
X151220714Y-88343619D02*
X151220714Y-87666286D01*
X151220714Y-87327619D02*
X151269095Y-87376000D01*
X151220714Y-87424381D01*
X151172333Y-87376000D01*
X151220714Y-87327619D01*
X151220714Y-87424381D01*
X150591761Y-88343619D02*
X150688523Y-88295238D01*
X150736904Y-88246857D01*
X150785285Y-88150095D01*
X150785285Y-87859810D01*
X150736904Y-87763048D01*
X150688523Y-87714667D01*
X150591761Y-87666286D01*
X150446619Y-87666286D01*
X150349857Y-87714667D01*
X150301476Y-87763048D01*
X150253095Y-87859810D01*
X150253095Y-88150095D01*
X150301476Y-88246857D01*
X150349857Y-88295238D01*
X150446619Y-88343619D01*
X150591761Y-88343619D01*
X149091952Y-87279238D02*
X149962809Y-88585524D01*
X148559761Y-87327619D02*
X148366238Y-87327619D01*
X148269476Y-87376000D01*
X148172714Y-87472762D01*
X148124333Y-87666286D01*
X148124333Y-88004952D01*
X148172714Y-88198476D01*
X148269476Y-88295238D01*
X148366238Y-88343619D01*
X148559761Y-88343619D01*
X148656523Y-88295238D01*
X148753285Y-88198476D01*
X148801666Y-88004952D01*
X148801666Y-87666286D01*
X148753285Y-87472762D01*
X148656523Y-87376000D01*
X148559761Y-87327619D01*
X147688904Y-87666286D02*
X147688904Y-88682286D01*
X147688904Y-87714667D02*
X147592142Y-87666286D01*
X147398619Y-87666286D01*
X147301857Y-87714667D01*
X147253476Y-87763048D01*
X147205095Y-87859810D01*
X147205095Y-88150095D01*
X147253476Y-88246857D01*
X147301857Y-88295238D01*
X147398619Y-88343619D01*
X147592142Y-88343619D01*
X147688904Y-88295238D01*
X146382619Y-88295238D02*
X146479381Y-88343619D01*
X146672904Y-88343619D01*
X146769666Y-88295238D01*
X146818047Y-88198476D01*
X146818047Y-87811429D01*
X146769666Y-87714667D01*
X146672904Y-87666286D01*
X146479381Y-87666286D01*
X146382619Y-87714667D01*
X146334238Y-87811429D01*
X146334238Y-87908190D01*
X146818047Y-88004952D01*
X145898809Y-87666286D02*
X145898809Y-88343619D01*
X145898809Y-87763048D02*
X145850428Y-87714667D01*
X145753666Y-87666286D01*
X145608524Y-87666286D01*
X145511762Y-87714667D01*
X145463381Y-87811429D01*
X145463381Y-88343619D01*
X144979571Y-88343619D02*
X144979571Y-87327619D01*
X144979571Y-87811429D02*
X144399000Y-87811429D01*
X144399000Y-88343619D02*
X144399000Y-87327619D01*
X143479762Y-88343619D02*
X143479762Y-87811429D01*
X143528143Y-87714667D01*
X143624905Y-87666286D01*
X143818428Y-87666286D01*
X143915190Y-87714667D01*
X143479762Y-88295238D02*
X143576524Y-88343619D01*
X143818428Y-88343619D01*
X143915190Y-88295238D01*
X143963571Y-88198476D01*
X143963571Y-88101714D01*
X143915190Y-88004952D01*
X143818428Y-87956571D01*
X143576524Y-87956571D01*
X143479762Y-87908190D01*
X142995952Y-88343619D02*
X142995952Y-87666286D01*
X142995952Y-87859810D02*
X142947571Y-87763048D01*
X142899190Y-87714667D01*
X142802428Y-87666286D01*
X142705667Y-87666286D01*
X141931572Y-88343619D02*
X141931572Y-87327619D01*
X141931572Y-88295238D02*
X142028334Y-88343619D01*
X142221857Y-88343619D01*
X142318619Y-88295238D01*
X142367000Y-88246857D01*
X142415381Y-88150095D01*
X142415381Y-87859810D01*
X142367000Y-87763048D01*
X142318619Y-87714667D01*
X142221857Y-87666286D01*
X142028334Y-87666286D01*
X141931572Y-87714667D01*
X141544524Y-87666286D02*
X141351000Y-88343619D01*
X141157477Y-87859810D01*
X140963953Y-88343619D01*
X140770429Y-87666286D01*
X139947953Y-88343619D02*
X139947953Y-87811429D01*
X139996334Y-87714667D01*
X140093096Y-87666286D01*
X140286619Y-87666286D01*
X140383381Y-87714667D01*
X139947953Y-88295238D02*
X140044715Y-88343619D01*
X140286619Y-88343619D01*
X140383381Y-88295238D01*
X140431762Y-88198476D01*
X140431762Y-88101714D01*
X140383381Y-88004952D01*
X140286619Y-87956571D01*
X140044715Y-87956571D01*
X139947953Y-87908190D01*
X139464143Y-88343619D02*
X139464143Y-87666286D01*
X139464143Y-87859810D02*
X139415762Y-87763048D01*
X139367381Y-87714667D01*
X139270619Y-87666286D01*
X139173858Y-87666286D01*
X138448144Y-88295238D02*
X138544906Y-88343619D01*
X138738429Y-88343619D01*
X138835191Y-88295238D01*
X138883572Y-88198476D01*
X138883572Y-87811429D01*
X138835191Y-87714667D01*
X138738429Y-87666286D01*
X138544906Y-87666286D01*
X138448144Y-87714667D01*
X138399763Y-87811429D01*
X138399763Y-87908190D01*
X138883572Y-88004952D01*
X137964334Y-87811429D02*
X137625668Y-87811429D01*
X137480525Y-88343619D02*
X137964334Y-88343619D01*
X137964334Y-87327619D01*
X137480525Y-87327619D01*
X137141858Y-88343619D02*
X136609668Y-87666286D01*
X137141858Y-87666286D02*
X136609668Y-88343619D01*
X135690430Y-87376000D02*
X135787192Y-87327619D01*
X135932335Y-87327619D01*
X136077477Y-87376000D01*
X136174239Y-87472762D01*
X136222620Y-87569524D01*
X136271001Y-87763048D01*
X136271001Y-87908190D01*
X136222620Y-88101714D01*
X136174239Y-88198476D01*
X136077477Y-88295238D01*
X135932335Y-88343619D01*
X135835573Y-88343619D01*
X135690430Y-88295238D01*
X135642049Y-88246857D01*
X135642049Y-87908190D01*
X135835573Y-87908190D01*
X135448525Y-88440381D02*
X134674430Y-88440381D01*
X134480906Y-88295238D02*
X134335763Y-88343619D01*
X134093859Y-88343619D01*
X133997097Y-88295238D01*
X133948716Y-88246857D01*
X133900335Y-88150095D01*
X133900335Y-88053333D01*
X133948716Y-87956571D01*
X133997097Y-87908190D01*
X134093859Y-87859810D01*
X134287382Y-87811429D01*
X134384144Y-87763048D01*
X134432525Y-87714667D01*
X134480906Y-87617905D01*
X134480906Y-87521143D01*
X134432525Y-87424381D01*
X134384144Y-87376000D01*
X134287382Y-87327619D01*
X134045478Y-87327619D01*
X133900335Y-87376000D01*
X133464906Y-88343619D02*
X133464906Y-87327619D01*
X133029478Y-88343619D02*
X133029478Y-87811429D01*
X133077859Y-87714667D01*
X133174621Y-87666286D01*
X133319763Y-87666286D01*
X133416525Y-87714667D01*
X133464906Y-87763048D01*
X132545668Y-88343619D02*
X132545668Y-87666286D01*
X132545668Y-87327619D02*
X132594049Y-87376000D01*
X132545668Y-87424381D01*
X132497287Y-87376000D01*
X132545668Y-87327619D01*
X132545668Y-87424381D01*
X131674811Y-88295238D02*
X131771573Y-88343619D01*
X131965096Y-88343619D01*
X132061858Y-88295238D01*
X132110239Y-88198476D01*
X132110239Y-87811429D01*
X132061858Y-87714667D01*
X131965096Y-87666286D01*
X131771573Y-87666286D01*
X131674811Y-87714667D01*
X131626430Y-87811429D01*
X131626430Y-87908190D01*
X132110239Y-88004952D01*
X131045858Y-88343619D02*
X131142620Y-88295238D01*
X131191001Y-88198476D01*
X131191001Y-87327619D01*
X130223383Y-88343619D02*
X130223383Y-87327619D01*
X130223383Y-88295238D02*
X130320145Y-88343619D01*
X130513668Y-88343619D01*
X130610430Y-88295238D01*
X130658811Y-88246857D01*
X130707192Y-88150095D01*
X130707192Y-87859810D01*
X130658811Y-87763048D01*
X130610430Y-87714667D01*
X130513668Y-87666286D01*
X130320145Y-87666286D01*
X130223383Y-87714667D01*
X129013859Y-87279238D02*
X129884716Y-88585524D01*
X159741808Y-80077733D02*
X159257999Y-80077733D01*
X159838570Y-80368019D02*
X159499903Y-79352019D01*
X159161237Y-80368019D01*
X158387142Y-80319638D02*
X158483904Y-80368019D01*
X158677427Y-80368019D01*
X158774189Y-80319638D01*
X158822570Y-80271257D01*
X158870951Y-80174495D01*
X158870951Y-79884210D01*
X158822570Y-79787448D01*
X158774189Y-79739067D01*
X158677427Y-79690686D01*
X158483904Y-79690686D01*
X158387142Y-79739067D01*
X157564666Y-80319638D02*
X157661428Y-80368019D01*
X157854951Y-80368019D01*
X157951713Y-80319638D01*
X158000094Y-80222876D01*
X158000094Y-79835829D01*
X157951713Y-79739067D01*
X157854951Y-79690686D01*
X157661428Y-79690686D01*
X157564666Y-79739067D01*
X157516285Y-79835829D01*
X157516285Y-79932590D01*
X158000094Y-80029352D01*
X156306761Y-80368019D02*
X156306761Y-79352019D01*
X155968095Y-80077733D01*
X155629428Y-79352019D01*
X155629428Y-80368019D01*
X154758571Y-80319638D02*
X154855333Y-80368019D01*
X155048856Y-80368019D01*
X155145618Y-80319638D01*
X155193999Y-80222876D01*
X155193999Y-79835829D01*
X155145618Y-79739067D01*
X155048856Y-79690686D01*
X154855333Y-79690686D01*
X154758571Y-79739067D01*
X154710190Y-79835829D01*
X154710190Y-79932590D01*
X155193999Y-80029352D01*
X153839333Y-80368019D02*
X153839333Y-79352019D01*
X153839333Y-80319638D02*
X153936095Y-80368019D01*
X154129618Y-80368019D01*
X154226380Y-80319638D01*
X154274761Y-80271257D01*
X154323142Y-80174495D01*
X154323142Y-79884210D01*
X154274761Y-79787448D01*
X154226380Y-79739067D01*
X154129618Y-79690686D01*
X153936095Y-79690686D01*
X153839333Y-79739067D01*
X153210380Y-80368019D02*
X153307142Y-80319638D01*
X153355523Y-80222876D01*
X153355523Y-79352019D01*
X152678190Y-80368019D02*
X152774952Y-80319638D01*
X152823333Y-80271257D01*
X152871714Y-80174495D01*
X152871714Y-79884210D01*
X152823333Y-79787448D01*
X152774952Y-79739067D01*
X152678190Y-79690686D01*
X152533048Y-79690686D01*
X152436286Y-79739067D01*
X152387905Y-79787448D01*
X152339524Y-79884210D01*
X152339524Y-80174495D01*
X152387905Y-80271257D01*
X152436286Y-80319638D01*
X152533048Y-80368019D01*
X152678190Y-80368019D01*
X151468667Y-80319638D02*
X151565429Y-80368019D01*
X151758952Y-80368019D01*
X151855714Y-80319638D01*
X151904095Y-80271257D01*
X151952476Y-80174495D01*
X151952476Y-79884210D01*
X151904095Y-79787448D01*
X151855714Y-79739067D01*
X151758952Y-79690686D01*
X151565429Y-79690686D01*
X151468667Y-79739067D01*
X151033238Y-80368019D02*
X151033238Y-79352019D01*
X150936476Y-79980971D02*
X150646191Y-80368019D01*
X150646191Y-79690686D02*
X151033238Y-80077733D01*
X159669237Y-81461429D02*
X159330571Y-81461429D01*
X159185428Y-81993619D02*
X159669237Y-81993619D01*
X159669237Y-80977619D01*
X159185428Y-80977619D01*
X158749999Y-81993619D02*
X158749999Y-81316286D01*
X158749999Y-81509810D02*
X158701618Y-81413048D01*
X158653237Y-81364667D01*
X158556475Y-81316286D01*
X158459714Y-81316286D01*
X158121047Y-81993619D02*
X158121047Y-81316286D01*
X158121047Y-80977619D02*
X158169428Y-81026000D01*
X158121047Y-81074381D01*
X158072666Y-81026000D01*
X158121047Y-80977619D01*
X158121047Y-81074381D01*
X157201809Y-81945238D02*
X157298571Y-81993619D01*
X157492094Y-81993619D01*
X157588856Y-81945238D01*
X157637237Y-81896857D01*
X157685618Y-81800095D01*
X157685618Y-81509810D01*
X157637237Y-81413048D01*
X157588856Y-81364667D01*
X157492094Y-81316286D01*
X157298571Y-81316286D01*
X157201809Y-81364667D01*
X155992285Y-81993619D02*
X155992285Y-80977619D01*
X155992285Y-81461429D02*
X155411714Y-81461429D01*
X155411714Y-81993619D02*
X155411714Y-80977619D01*
X154540857Y-81945238D02*
X154637619Y-81993619D01*
X154831142Y-81993619D01*
X154927904Y-81945238D01*
X154976285Y-81848476D01*
X154976285Y-81461429D01*
X154927904Y-81364667D01*
X154831142Y-81316286D01*
X154637619Y-81316286D01*
X154540857Y-81364667D01*
X154492476Y-81461429D01*
X154492476Y-81558190D01*
X154976285Y-81654952D01*
X154057047Y-81993619D02*
X154057047Y-81316286D01*
X154057047Y-81509810D02*
X154008666Y-81413048D01*
X153960285Y-81364667D01*
X153863523Y-81316286D01*
X153766762Y-81316286D01*
X153428095Y-81993619D02*
X153428095Y-81316286D01*
X153428095Y-81413048D02*
X153379714Y-81364667D01*
X153282952Y-81316286D01*
X153137810Y-81316286D01*
X153041048Y-81364667D01*
X152992667Y-81461429D01*
X152992667Y-81993619D01*
X152992667Y-81461429D02*
X152944286Y-81364667D01*
X152847524Y-81316286D01*
X152702381Y-81316286D01*
X152605619Y-81364667D01*
X152557238Y-81461429D01*
X152557238Y-81993619D01*
X151638000Y-81993619D02*
X151638000Y-81461429D01*
X151686381Y-81364667D01*
X151783143Y-81316286D01*
X151976666Y-81316286D01*
X152073428Y-81364667D01*
X151638000Y-81945238D02*
X151734762Y-81993619D01*
X151976666Y-81993619D01*
X152073428Y-81945238D01*
X152121809Y-81848476D01*
X152121809Y-81751714D01*
X152073428Y-81654952D01*
X151976666Y-81606571D01*
X151734762Y-81606571D01*
X151638000Y-81558190D01*
X151154190Y-81316286D02*
X151154190Y-81993619D01*
X151154190Y-81413048D02*
X151105809Y-81364667D01*
X151009047Y-81316286D01*
X150863905Y-81316286D01*
X150767143Y-81364667D01*
X150718762Y-81461429D01*
X150718762Y-81993619D01*
X160540094Y-83619219D02*
X160540094Y-82603219D01*
X159959523Y-83619219D02*
X160394951Y-83038648D01*
X159959523Y-82603219D02*
X160540094Y-83183790D01*
X159137047Y-83570838D02*
X159233809Y-83619219D01*
X159427332Y-83619219D01*
X159524094Y-83570838D01*
X159572475Y-83474076D01*
X159572475Y-83087029D01*
X159524094Y-82990267D01*
X159427332Y-82941886D01*
X159233809Y-82941886D01*
X159137047Y-82990267D01*
X159088666Y-83087029D01*
X159088666Y-83183790D01*
X159572475Y-83280552D01*
X158653237Y-82941886D02*
X158653237Y-83619219D01*
X158653237Y-83038648D02*
X158604856Y-82990267D01*
X158508094Y-82941886D01*
X158362952Y-82941886D01*
X158266190Y-82990267D01*
X158217809Y-83087029D01*
X158217809Y-83619219D01*
X157298571Y-83619219D02*
X157298571Y-82603219D01*
X157298571Y-83570838D02*
X157395333Y-83619219D01*
X157588856Y-83619219D01*
X157685618Y-83570838D01*
X157733999Y-83522457D01*
X157782380Y-83425695D01*
X157782380Y-83135410D01*
X157733999Y-83038648D01*
X157685618Y-82990267D01*
X157588856Y-82941886D01*
X157395333Y-82941886D01*
X157298571Y-82990267D01*
X156814761Y-83619219D02*
X156814761Y-82941886D01*
X156814761Y-83135410D02*
X156766380Y-83038648D01*
X156717999Y-82990267D01*
X156621237Y-82941886D01*
X156524476Y-82941886D01*
X156185809Y-83619219D02*
X156185809Y-82941886D01*
X156185809Y-82603219D02*
X156234190Y-82651600D01*
X156185809Y-82699981D01*
X156137428Y-82651600D01*
X156185809Y-82603219D01*
X156185809Y-82699981D01*
X155266571Y-83570838D02*
X155363333Y-83619219D01*
X155556856Y-83619219D01*
X155653618Y-83570838D01*
X155701999Y-83522457D01*
X155750380Y-83425695D01*
X155750380Y-83135410D01*
X155701999Y-83038648D01*
X155653618Y-82990267D01*
X155556856Y-82941886D01*
X155363333Y-82941886D01*
X155266571Y-82990267D01*
X154831142Y-83619219D02*
X154831142Y-82603219D01*
X154734380Y-83232171D02*
X154444095Y-83619219D01*
X154444095Y-82941886D02*
X154831142Y-83328933D01*
X153282952Y-83570838D02*
X153137809Y-83619219D01*
X152895905Y-83619219D01*
X152799143Y-83570838D01*
X152750762Y-83522457D01*
X152702381Y-83425695D01*
X152702381Y-83328933D01*
X152750762Y-83232171D01*
X152799143Y-83183790D01*
X152895905Y-83135410D01*
X153089428Y-83087029D01*
X153186190Y-83038648D01*
X153234571Y-82990267D01*
X153282952Y-82893505D01*
X153282952Y-82796743D01*
X153234571Y-82699981D01*
X153186190Y-82651600D01*
X153089428Y-82603219D01*
X152847524Y-82603219D01*
X152702381Y-82651600D01*
X152266952Y-83619219D02*
X152266952Y-82603219D01*
X151831524Y-83619219D02*
X151831524Y-83087029D01*
X151879905Y-82990267D01*
X151976667Y-82941886D01*
X152121809Y-82941886D01*
X152218571Y-82990267D01*
X152266952Y-83038648D01*
X150912286Y-83619219D02*
X150912286Y-83087029D01*
X150960667Y-82990267D01*
X151057429Y-82941886D01*
X151250952Y-82941886D01*
X151347714Y-82990267D01*
X150912286Y-83570838D02*
X151009048Y-83619219D01*
X151250952Y-83619219D01*
X151347714Y-83570838D01*
X151396095Y-83474076D01*
X151396095Y-83377314D01*
X151347714Y-83280552D01*
X151250952Y-83232171D01*
X151009048Y-83232171D01*
X150912286Y-83183790D01*
X150525238Y-82941886D02*
X150331714Y-83619219D01*
X150138191Y-83135410D01*
X149944667Y-83619219D01*
X149751143Y-82941886D01*
D12*
X168840857Y-76013571D02*
X168555143Y-76013571D01*
X168412285Y-76085000D01*
X168269428Y-76227857D01*
X168198000Y-76513571D01*
X168198000Y-77013571D01*
X168269428Y-77299286D01*
X168412285Y-77442143D01*
X168555143Y-77513571D01*
X168840857Y-77513571D01*
X168983714Y-77442143D01*
X169126571Y-77299286D01*
X169198000Y-77013571D01*
X169198000Y-76513571D01*
X169126571Y-76227857D01*
X168983714Y-76085000D01*
X168840857Y-76013571D01*
X167555142Y-76513571D02*
X167555142Y-78013571D01*
X167555142Y-76585000D02*
X167412285Y-76513571D01*
X167126571Y-76513571D01*
X166983714Y-76585000D01*
X166912285Y-76656429D01*
X166840856Y-76799286D01*
X166840856Y-77227857D01*
X166912285Y-77370714D01*
X166983714Y-77442143D01*
X167126571Y-77513571D01*
X167412285Y-77513571D01*
X167555142Y-77442143D01*
X165626571Y-77442143D02*
X165769428Y-77513571D01*
X166055142Y-77513571D01*
X166197999Y-77442143D01*
X166269428Y-77299286D01*
X166269428Y-76727857D01*
X166197999Y-76585000D01*
X166055142Y-76513571D01*
X165769428Y-76513571D01*
X165626571Y-76585000D01*
X165555142Y-76727857D01*
X165555142Y-76870714D01*
X166269428Y-77013571D01*
X164912285Y-76513571D02*
X164912285Y-77513571D01*
X164912285Y-76656429D02*
X164840857Y-76585000D01*
X164697999Y-76513571D01*
X164483714Y-76513571D01*
X164340857Y-76585000D01*
X164269428Y-76727857D01*
X164269428Y-77513571D01*
X163555142Y-77513571D02*
X163555142Y-76013571D01*
X163555142Y-76727857D02*
X162697999Y-76727857D01*
X162697999Y-77513571D02*
X162697999Y-76013571D01*
X161340856Y-77513571D02*
X161340856Y-76727857D01*
X161412285Y-76585000D01*
X161555142Y-76513571D01*
X161840856Y-76513571D01*
X161983713Y-76585000D01*
X161340856Y-77442143D02*
X161483713Y-77513571D01*
X161840856Y-77513571D01*
X161983713Y-77442143D01*
X162055142Y-77299286D01*
X162055142Y-77156429D01*
X161983713Y-77013571D01*
X161840856Y-76942143D01*
X161483713Y-76942143D01*
X161340856Y-76870714D01*
X160626570Y-77513571D02*
X160626570Y-76513571D01*
X160626570Y-76799286D02*
X160555142Y-76656429D01*
X160483713Y-76585000D01*
X160340856Y-76513571D01*
X160197999Y-76513571D01*
X159055142Y-77513571D02*
X159055142Y-76013571D01*
X159055142Y-77442143D02*
X159197999Y-77513571D01*
X159483713Y-77513571D01*
X159626571Y-77442143D01*
X159697999Y-77370714D01*
X159769428Y-77227857D01*
X159769428Y-76799286D01*
X159697999Y-76656429D01*
X159626571Y-76585000D01*
X159483713Y-76513571D01*
X159197999Y-76513571D01*
X159055142Y-76585000D01*
X158483713Y-76513571D02*
X158197999Y-77513571D01*
X157912285Y-76799286D01*
X157626570Y-77513571D01*
X157340856Y-76513571D01*
X156126570Y-77513571D02*
X156126570Y-76727857D01*
X156197999Y-76585000D01*
X156340856Y-76513571D01*
X156626570Y-76513571D01*
X156769427Y-76585000D01*
X156126570Y-77442143D02*
X156269427Y-77513571D01*
X156626570Y-77513571D01*
X156769427Y-77442143D01*
X156840856Y-77299286D01*
X156840856Y-77156429D01*
X156769427Y-77013571D01*
X156626570Y-76942143D01*
X156269427Y-76942143D01*
X156126570Y-76870714D01*
X155412284Y-77513571D02*
X155412284Y-76513571D01*
X155412284Y-76799286D02*
X155340856Y-76656429D01*
X155269427Y-76585000D01*
X155126570Y-76513571D01*
X154983713Y-76513571D01*
X153912285Y-77442143D02*
X154055142Y-77513571D01*
X154340856Y-77513571D01*
X154483713Y-77442143D01*
X154555142Y-77299286D01*
X154555142Y-76727857D01*
X154483713Y-76585000D01*
X154340856Y-76513571D01*
X154055142Y-76513571D01*
X153912285Y-76585000D01*
X153840856Y-76727857D01*
X153840856Y-76870714D01*
X154555142Y-77013571D01*
X153197999Y-76727857D02*
X152697999Y-76727857D01*
X152483713Y-77513571D02*
X153197999Y-77513571D01*
X153197999Y-76013571D01*
X152483713Y-76013571D01*
X151983713Y-77513571D02*
X151197999Y-76513571D01*
X151983713Y-76513571D02*
X151197999Y-77513571D01*
X149840856Y-76085000D02*
X149983713Y-76013571D01*
X150197999Y-76013571D01*
X150412284Y-76085000D01*
X150555142Y-76227857D01*
X150626570Y-76370714D01*
X150697999Y-76656429D01*
X150697999Y-76870714D01*
X150626570Y-77156429D01*
X150555142Y-77299286D01*
X150412284Y-77442143D01*
X150197999Y-77513571D01*
X150055142Y-77513571D01*
X149840856Y-77442143D01*
X149769427Y-77370714D01*
X149769427Y-76870714D01*
X150055142Y-76870714D01*
X149483713Y-77656429D02*
X148340856Y-77656429D01*
X148055142Y-77442143D02*
X147840856Y-77513571D01*
X147483713Y-77513571D01*
X147340856Y-77442143D01*
X147269427Y-77370714D01*
X147197999Y-77227857D01*
X147197999Y-77085000D01*
X147269427Y-76942143D01*
X147340856Y-76870714D01*
X147483713Y-76799286D01*
X147769427Y-76727857D01*
X147912285Y-76656429D01*
X147983713Y-76585000D01*
X148055142Y-76442143D01*
X148055142Y-76299286D01*
X147983713Y-76156429D01*
X147912285Y-76085000D01*
X147769427Y-76013571D01*
X147412285Y-76013571D01*
X147197999Y-76085000D01*
X146555142Y-77513571D02*
X146555142Y-76013571D01*
X145912285Y-77513571D02*
X145912285Y-76727857D01*
X145983714Y-76585000D01*
X146126571Y-76513571D01*
X146340856Y-76513571D01*
X146483714Y-76585000D01*
X146555142Y-76656429D01*
X145197999Y-77513571D02*
X145197999Y-76513571D01*
X145197999Y-76013571D02*
X145269428Y-76085000D01*
X145197999Y-76156429D01*
X145126571Y-76085000D01*
X145197999Y-76013571D01*
X145197999Y-76156429D01*
X143912285Y-77442143D02*
X144055142Y-77513571D01*
X144340856Y-77513571D01*
X144483713Y-77442143D01*
X144555142Y-77299286D01*
X144555142Y-76727857D01*
X144483713Y-76585000D01*
X144340856Y-76513571D01*
X144055142Y-76513571D01*
X143912285Y-76585000D01*
X143840856Y-76727857D01*
X143840856Y-76870714D01*
X144555142Y-77013571D01*
X142983713Y-77513571D02*
X143126571Y-77442143D01*
X143197999Y-77299286D01*
X143197999Y-76013571D01*
X141769428Y-77513571D02*
X141769428Y-76013571D01*
X141769428Y-77442143D02*
X141912285Y-77513571D01*
X142197999Y-77513571D01*
X142340857Y-77442143D01*
X142412285Y-77370714D01*
X142483714Y-77227857D01*
X142483714Y-76799286D01*
X142412285Y-76656429D01*
X142340857Y-76585000D01*
X142197999Y-76513571D01*
X141912285Y-76513571D01*
X141769428Y-76585000D01*
X120566571Y-30921428D02*
X119066571Y-30921428D01*
X120495143Y-31564285D02*
X120566571Y-31707142D01*
X120566571Y-31992857D01*
X120495143Y-32135714D01*
X120352286Y-32207142D01*
X120280857Y-32207142D01*
X120138000Y-32135714D01*
X120066571Y-31992857D01*
X120066571Y-31778571D01*
X119995143Y-31635714D01*
X119852286Y-31564285D01*
X119780857Y-31564285D01*
X119638000Y-31635714D01*
X119566571Y-31778571D01*
X119566571Y-31992857D01*
X119638000Y-32135714D01*
X120566571Y-33064286D02*
X120495143Y-32921428D01*
X120423714Y-32850000D01*
X120280857Y-32778571D01*
X119852286Y-32778571D01*
X119709429Y-32850000D01*
X119638000Y-32921428D01*
X119566571Y-33064286D01*
X119566571Y-33278571D01*
X119638000Y-33421428D01*
X119709429Y-33492857D01*
X119852286Y-33564286D01*
X120280857Y-33564286D01*
X120423714Y-33492857D01*
X120495143Y-33421428D01*
X120566571Y-33278571D01*
X120566571Y-33064286D01*
X120566571Y-34421429D02*
X120495143Y-34278571D01*
X120352286Y-34207143D01*
X119066571Y-34207143D01*
X120566571Y-35635714D02*
X119780857Y-35635714D01*
X119638000Y-35564285D01*
X119566571Y-35421428D01*
X119566571Y-35135714D01*
X119638000Y-34992857D01*
X120495143Y-35635714D02*
X120566571Y-35492857D01*
X120566571Y-35135714D01*
X120495143Y-34992857D01*
X120352286Y-34921428D01*
X120209429Y-34921428D01*
X120066571Y-34992857D01*
X119995143Y-35135714D01*
X119995143Y-35492857D01*
X119923714Y-35635714D01*
X119566571Y-36135714D02*
X119566571Y-36707143D01*
X119066571Y-36350000D02*
X120352286Y-36350000D01*
X120495143Y-36421428D01*
X120566571Y-36564286D01*
X120566571Y-36707143D01*
X120566571Y-37207143D02*
X119566571Y-37207143D01*
X119066571Y-37207143D02*
X119138000Y-37135714D01*
X119209429Y-37207143D01*
X119138000Y-37278571D01*
X119066571Y-37207143D01*
X119209429Y-37207143D01*
X120566571Y-38135715D02*
X120495143Y-37992857D01*
X120423714Y-37921429D01*
X120280857Y-37850000D01*
X119852286Y-37850000D01*
X119709429Y-37921429D01*
X119638000Y-37992857D01*
X119566571Y-38135715D01*
X119566571Y-38350000D01*
X119638000Y-38492857D01*
X119709429Y-38564286D01*
X119852286Y-38635715D01*
X120280857Y-38635715D01*
X120423714Y-38564286D01*
X120495143Y-38492857D01*
X120566571Y-38350000D01*
X120566571Y-38135715D01*
X119566571Y-39278572D02*
X120566571Y-39278572D01*
X119709429Y-39278572D02*
X119638000Y-39350000D01*
X119566571Y-39492858D01*
X119566571Y-39707143D01*
X119638000Y-39850000D01*
X119780857Y-39921429D01*
X120566571Y-39921429D01*
X119138000Y-42564286D02*
X119066571Y-42421429D01*
X119066571Y-42207143D01*
X119138000Y-41992858D01*
X119280857Y-41850000D01*
X119423714Y-41778572D01*
X119709429Y-41707143D01*
X119923714Y-41707143D01*
X120209429Y-41778572D01*
X120352286Y-41850000D01*
X120495143Y-41992858D01*
X120566571Y-42207143D01*
X120566571Y-42350000D01*
X120495143Y-42564286D01*
X120423714Y-42635715D01*
X119923714Y-42635715D01*
X119923714Y-42350000D01*
X120566571Y-43921429D02*
X119780857Y-43921429D01*
X119638000Y-43850000D01*
X119566571Y-43707143D01*
X119566571Y-43421429D01*
X119638000Y-43278572D01*
X120495143Y-43921429D02*
X120566571Y-43778572D01*
X120566571Y-43421429D01*
X120495143Y-43278572D01*
X120352286Y-43207143D01*
X120209429Y-43207143D01*
X120066571Y-43278572D01*
X119995143Y-43421429D01*
X119995143Y-43778572D01*
X119923714Y-43921429D01*
X119566571Y-44635715D02*
X121066571Y-44635715D01*
X119638000Y-44635715D02*
X119566571Y-44778572D01*
X119566571Y-45064286D01*
X119638000Y-45207143D01*
X119709429Y-45278572D01*
X119852286Y-45350001D01*
X120280857Y-45350001D01*
X120423714Y-45278572D01*
X120495143Y-45207143D01*
X120566571Y-45064286D01*
X120566571Y-44778572D01*
X120495143Y-44635715D01*
D13*
X115570000Y-29210000D02*
X115570000Y-88900000D01*
D11*
X90883619Y-32282191D02*
X90883619Y-32911143D01*
X91270667Y-32572477D01*
X91270667Y-32717619D01*
X91319048Y-32814381D01*
X91367429Y-32862762D01*
X91464190Y-32911143D01*
X91706095Y-32911143D01*
X91802857Y-32862762D01*
X91851238Y-32814381D01*
X91899619Y-32717619D01*
X91899619Y-32427334D01*
X91851238Y-32330572D01*
X91802857Y-32282191D01*
X91802857Y-33346572D02*
X91851238Y-33394953D01*
X91899619Y-33346572D01*
X91851238Y-33298191D01*
X91802857Y-33346572D01*
X91899619Y-33346572D01*
X90883619Y-33733620D02*
X90883619Y-34362572D01*
X91270667Y-34023906D01*
X91270667Y-34169048D01*
X91319048Y-34265810D01*
X91367429Y-34314191D01*
X91464190Y-34362572D01*
X91706095Y-34362572D01*
X91802857Y-34314191D01*
X91851238Y-34265810D01*
X91899619Y-34169048D01*
X91899619Y-33878763D01*
X91851238Y-33782001D01*
X91802857Y-33733620D01*
X90883619Y-34652858D02*
X91899619Y-34991525D01*
X90883619Y-35330191D01*
D13*
X124460000Y-29210000D02*
X124460000Y-88900000D01*
D14*
X67435357Y-71391429D02*
X67435357Y-70791429D01*
X67206785Y-70791429D01*
X67149643Y-70820000D01*
X67121071Y-70848571D01*
X67092500Y-70905714D01*
X67092500Y-70991429D01*
X67121071Y-71048571D01*
X67149643Y-71077143D01*
X67206785Y-71105714D01*
X67435357Y-71105714D01*
X66892500Y-70791429D02*
X66492500Y-70791429D01*
X66749643Y-71391429D01*
X67435357Y-76471429D02*
X67435357Y-75871429D01*
X67206785Y-75871429D01*
X67149643Y-75900000D01*
X67121071Y-75928571D01*
X67092500Y-75985714D01*
X67092500Y-76071429D01*
X67121071Y-76128571D01*
X67149643Y-76157143D01*
X67206785Y-76185714D01*
X67435357Y-76185714D01*
X66749643Y-76128571D02*
X66806785Y-76100000D01*
X66835357Y-76071429D01*
X66863928Y-76014286D01*
X66863928Y-75985714D01*
X66835357Y-75928571D01*
X66806785Y-75900000D01*
X66749643Y-75871429D01*
X66635357Y-75871429D01*
X66578214Y-75900000D01*
X66549643Y-75928571D01*
X66521071Y-75985714D01*
X66521071Y-76014286D01*
X66549643Y-76071429D01*
X66578214Y-76100000D01*
X66635357Y-76128571D01*
X66749643Y-76128571D01*
X66806785Y-76157143D01*
X66835357Y-76185714D01*
X66863928Y-76242857D01*
X66863928Y-76357143D01*
X66835357Y-76414286D01*
X66806785Y-76442857D01*
X66749643Y-76471429D01*
X66635357Y-76471429D01*
X66578214Y-76442857D01*
X66549643Y-76414286D01*
X66521071Y-76357143D01*
X66521071Y-76242857D01*
X66549643Y-76185714D01*
X66578214Y-76157143D01*
X66635357Y-76128571D01*
X71213572Y-63771429D02*
X71213572Y-63171429D01*
X70985000Y-63171429D01*
X70927858Y-63200000D01*
X70899286Y-63228571D01*
X70870715Y-63285714D01*
X70870715Y-63371429D01*
X70899286Y-63428571D01*
X70927858Y-63457143D01*
X70985000Y-63485714D01*
X71213572Y-63485714D01*
X70299286Y-63771429D02*
X70642143Y-63771429D01*
X70470715Y-63771429D02*
X70470715Y-63171429D01*
X70527858Y-63257143D01*
X70585000Y-63314286D01*
X70642143Y-63342857D01*
X69756429Y-63171429D02*
X70042143Y-63171429D01*
X70070714Y-63457143D01*
X70042143Y-63428571D01*
X69985000Y-63400000D01*
X69842143Y-63400000D01*
X69785000Y-63428571D01*
X69756429Y-63457143D01*
X69727857Y-63514286D01*
X69727857Y-63657143D01*
X69756429Y-63714286D01*
X69785000Y-63742857D01*
X69842143Y-63771429D01*
X69985000Y-63771429D01*
X70042143Y-63742857D01*
X70070714Y-63714286D01*
X71213572Y-43451429D02*
X71213572Y-42851429D01*
X70985000Y-42851429D01*
X70927858Y-42880000D01*
X70899286Y-42908571D01*
X70870715Y-42965714D01*
X70870715Y-43051429D01*
X70899286Y-43108571D01*
X70927858Y-43137143D01*
X70985000Y-43165714D01*
X71213572Y-43165714D01*
X70299286Y-43451429D02*
X70642143Y-43451429D01*
X70470715Y-43451429D02*
X70470715Y-42851429D01*
X70527858Y-42937143D01*
X70585000Y-42994286D01*
X70642143Y-43022857D01*
X69727857Y-43451429D02*
X70070714Y-43451429D01*
X69899286Y-43451429D02*
X69899286Y-42851429D01*
X69956429Y-42937143D01*
X70013571Y-42994286D01*
X70070714Y-43022857D01*
X71213572Y-48531429D02*
X71213572Y-47931429D01*
X70985000Y-47931429D01*
X70927858Y-47960000D01*
X70899286Y-47988571D01*
X70870715Y-48045714D01*
X70870715Y-48131429D01*
X70899286Y-48188571D01*
X70927858Y-48217143D01*
X70985000Y-48245714D01*
X71213572Y-48245714D01*
X70299286Y-48531429D02*
X70642143Y-48531429D01*
X70470715Y-48531429D02*
X70470715Y-47931429D01*
X70527858Y-48017143D01*
X70585000Y-48074286D01*
X70642143Y-48102857D01*
X70070714Y-47988571D02*
X70042143Y-47960000D01*
X69985000Y-47931429D01*
X69842143Y-47931429D01*
X69785000Y-47960000D01*
X69756429Y-47988571D01*
X69727857Y-48045714D01*
X69727857Y-48102857D01*
X69756429Y-48188571D01*
X70099286Y-48531429D01*
X69727857Y-48531429D01*
X71213572Y-53611429D02*
X71213572Y-53011429D01*
X70985000Y-53011429D01*
X70927858Y-53040000D01*
X70899286Y-53068571D01*
X70870715Y-53125714D01*
X70870715Y-53211429D01*
X70899286Y-53268571D01*
X70927858Y-53297143D01*
X70985000Y-53325714D01*
X71213572Y-53325714D01*
X70299286Y-53611429D02*
X70642143Y-53611429D01*
X70470715Y-53611429D02*
X70470715Y-53011429D01*
X70527858Y-53097143D01*
X70585000Y-53154286D01*
X70642143Y-53182857D01*
X70099286Y-53011429D02*
X69727857Y-53011429D01*
X69927857Y-53240000D01*
X69842143Y-53240000D01*
X69785000Y-53268571D01*
X69756429Y-53297143D01*
X69727857Y-53354286D01*
X69727857Y-53497143D01*
X69756429Y-53554286D01*
X69785000Y-53582857D01*
X69842143Y-53611429D01*
X70013571Y-53611429D01*
X70070714Y-53582857D01*
X70099286Y-53554286D01*
X71213572Y-58691429D02*
X71213572Y-58091429D01*
X70985000Y-58091429D01*
X70927858Y-58120000D01*
X70899286Y-58148571D01*
X70870715Y-58205714D01*
X70870715Y-58291429D01*
X70899286Y-58348571D01*
X70927858Y-58377143D01*
X70985000Y-58405714D01*
X71213572Y-58405714D01*
X70299286Y-58691429D02*
X70642143Y-58691429D01*
X70470715Y-58691429D02*
X70470715Y-58091429D01*
X70527858Y-58177143D01*
X70585000Y-58234286D01*
X70642143Y-58262857D01*
X69785000Y-58291429D02*
X69785000Y-58691429D01*
X69927857Y-58062857D02*
X70070714Y-58491429D01*
X69699286Y-58491429D01*
X169003572Y-59008929D02*
X169003572Y-58408929D01*
X168775000Y-58408929D01*
X168717858Y-58437500D01*
X168689286Y-58466071D01*
X168660715Y-58523214D01*
X168660715Y-58608929D01*
X168689286Y-58666071D01*
X168717858Y-58694643D01*
X168775000Y-58723214D01*
X169003572Y-58723214D01*
X168117858Y-58408929D02*
X168403572Y-58408929D01*
X168432143Y-58694643D01*
X168403572Y-58666071D01*
X168346429Y-58637500D01*
X168203572Y-58637500D01*
X168146429Y-58666071D01*
X168117858Y-58694643D01*
X168089286Y-58751786D01*
X168089286Y-58894643D01*
X168117858Y-58951786D01*
X168146429Y-58980357D01*
X168203572Y-59008929D01*
X168346429Y-59008929D01*
X168403572Y-58980357D01*
X168432143Y-58951786D01*
X167717857Y-58408929D02*
X167660714Y-58408929D01*
X167603571Y-58437500D01*
X167575000Y-58466071D01*
X167546429Y-58523214D01*
X167517857Y-58637500D01*
X167517857Y-58780357D01*
X167546429Y-58894643D01*
X167575000Y-58951786D01*
X167603571Y-58980357D01*
X167660714Y-59008929D01*
X167717857Y-59008929D01*
X167775000Y-58980357D01*
X167803571Y-58951786D01*
X167832143Y-58894643D01*
X167860714Y-58780357D01*
X167860714Y-58637500D01*
X167832143Y-58523214D01*
X167803571Y-58466071D01*
X167775000Y-58437500D01*
X167717857Y-58408929D01*
X67435357Y-66311429D02*
X67435357Y-65711429D01*
X67206785Y-65711429D01*
X67149643Y-65740000D01*
X67121071Y-65768571D01*
X67092500Y-65825714D01*
X67092500Y-65911429D01*
X67121071Y-65968571D01*
X67149643Y-65997143D01*
X67206785Y-66025714D01*
X67435357Y-66025714D01*
X66578214Y-65711429D02*
X66692500Y-65711429D01*
X66749643Y-65740000D01*
X66778214Y-65768571D01*
X66835357Y-65854286D01*
X66863928Y-65968571D01*
X66863928Y-66197143D01*
X66835357Y-66254286D01*
X66806785Y-66282857D01*
X66749643Y-66311429D01*
X66635357Y-66311429D01*
X66578214Y-66282857D01*
X66549643Y-66254286D01*
X66521071Y-66197143D01*
X66521071Y-66054286D01*
X66549643Y-65997143D01*
X66578214Y-65968571D01*
X66635357Y-65940000D01*
X66749643Y-65940000D01*
X66806785Y-65968571D01*
X66835357Y-65997143D01*
X66863928Y-66054286D01*
X67435357Y-61231429D02*
X67435357Y-60631429D01*
X67206785Y-60631429D01*
X67149643Y-60660000D01*
X67121071Y-60688571D01*
X67092500Y-60745714D01*
X67092500Y-60831429D01*
X67121071Y-60888571D01*
X67149643Y-60917143D01*
X67206785Y-60945714D01*
X67435357Y-60945714D01*
X66549643Y-60631429D02*
X66835357Y-60631429D01*
X66863928Y-60917143D01*
X66835357Y-60888571D01*
X66778214Y-60860000D01*
X66635357Y-60860000D01*
X66578214Y-60888571D01*
X66549643Y-60917143D01*
X66521071Y-60974286D01*
X66521071Y-61117143D01*
X66549643Y-61174286D01*
X66578214Y-61202857D01*
X66635357Y-61231429D01*
X66778214Y-61231429D01*
X66835357Y-61202857D01*
X66863928Y-61174286D01*
X67435357Y-56151429D02*
X67435357Y-55551429D01*
X67206785Y-55551429D01*
X67149643Y-55580000D01*
X67121071Y-55608571D01*
X67092500Y-55665714D01*
X67092500Y-55751429D01*
X67121071Y-55808571D01*
X67149643Y-55837143D01*
X67206785Y-55865714D01*
X67435357Y-55865714D01*
X66578214Y-55751429D02*
X66578214Y-56151429D01*
X66721071Y-55522857D02*
X66863928Y-55951429D01*
X66492500Y-55951429D01*
X67435357Y-51071429D02*
X67435357Y-50471429D01*
X67206785Y-50471429D01*
X67149643Y-50500000D01*
X67121071Y-50528571D01*
X67092500Y-50585714D01*
X67092500Y-50671429D01*
X67121071Y-50728571D01*
X67149643Y-50757143D01*
X67206785Y-50785714D01*
X67435357Y-50785714D01*
X66892500Y-50471429D02*
X66521071Y-50471429D01*
X66721071Y-50700000D01*
X66635357Y-50700000D01*
X66578214Y-50728571D01*
X66549643Y-50757143D01*
X66521071Y-50814286D01*
X66521071Y-50957143D01*
X66549643Y-51014286D01*
X66578214Y-51042857D01*
X66635357Y-51071429D01*
X66806785Y-51071429D01*
X66863928Y-51042857D01*
X66892500Y-51014286D01*
X67435357Y-45991429D02*
X67435357Y-45391429D01*
X67206785Y-45391429D01*
X67149643Y-45420000D01*
X67121071Y-45448571D01*
X67092500Y-45505714D01*
X67092500Y-45591429D01*
X67121071Y-45648571D01*
X67149643Y-45677143D01*
X67206785Y-45705714D01*
X67435357Y-45705714D01*
X66863928Y-45448571D02*
X66835357Y-45420000D01*
X66778214Y-45391429D01*
X66635357Y-45391429D01*
X66578214Y-45420000D01*
X66549643Y-45448571D01*
X66521071Y-45505714D01*
X66521071Y-45562857D01*
X66549643Y-45648571D01*
X66892500Y-45991429D01*
X66521071Y-45991429D01*
X67435357Y-40911429D02*
X67435357Y-40311429D01*
X67206785Y-40311429D01*
X67149643Y-40340000D01*
X67121071Y-40368571D01*
X67092500Y-40425714D01*
X67092500Y-40511429D01*
X67121071Y-40568571D01*
X67149643Y-40597143D01*
X67206785Y-40625714D01*
X67435357Y-40625714D01*
X66521071Y-40911429D02*
X66863928Y-40911429D01*
X66692500Y-40911429D02*
X66692500Y-40311429D01*
X66749643Y-40397143D01*
X66806785Y-40454286D01*
X66863928Y-40482857D01*
X111853572Y-63771429D02*
X111853572Y-63171429D01*
X111625000Y-63171429D01*
X111567858Y-63200000D01*
X111539286Y-63228571D01*
X111510715Y-63285714D01*
X111510715Y-63371429D01*
X111539286Y-63428571D01*
X111567858Y-63457143D01*
X111625000Y-63485714D01*
X111853572Y-63485714D01*
X111310715Y-63171429D02*
X110939286Y-63171429D01*
X111139286Y-63400000D01*
X111053572Y-63400000D01*
X110996429Y-63428571D01*
X110967858Y-63457143D01*
X110939286Y-63514286D01*
X110939286Y-63657143D01*
X110967858Y-63714286D01*
X110996429Y-63742857D01*
X111053572Y-63771429D01*
X111225000Y-63771429D01*
X111282143Y-63742857D01*
X111310715Y-63714286D01*
X110596429Y-63428571D02*
X110653571Y-63400000D01*
X110682143Y-63371429D01*
X110710714Y-63314286D01*
X110710714Y-63285714D01*
X110682143Y-63228571D01*
X110653571Y-63200000D01*
X110596429Y-63171429D01*
X110482143Y-63171429D01*
X110425000Y-63200000D01*
X110396429Y-63228571D01*
X110367857Y-63285714D01*
X110367857Y-63314286D01*
X110396429Y-63371429D01*
X110425000Y-63400000D01*
X110482143Y-63428571D01*
X110596429Y-63428571D01*
X110653571Y-63457143D01*
X110682143Y-63485714D01*
X110710714Y-63542857D01*
X110710714Y-63657143D01*
X110682143Y-63714286D01*
X110653571Y-63742857D01*
X110596429Y-63771429D01*
X110482143Y-63771429D01*
X110425000Y-63742857D01*
X110396429Y-63714286D01*
X110367857Y-63657143D01*
X110367857Y-63542857D01*
X110396429Y-63485714D01*
X110425000Y-63457143D01*
X110482143Y-63428571D01*
X71213572Y-68851429D02*
X71213572Y-68251429D01*
X70985000Y-68251429D01*
X70927858Y-68280000D01*
X70899286Y-68308571D01*
X70870715Y-68365714D01*
X70870715Y-68451429D01*
X70899286Y-68508571D01*
X70927858Y-68537143D01*
X70985000Y-68565714D01*
X71213572Y-68565714D01*
X70299286Y-68851429D02*
X70642143Y-68851429D01*
X70470715Y-68851429D02*
X70470715Y-68251429D01*
X70527858Y-68337143D01*
X70585000Y-68394286D01*
X70642143Y-68422857D01*
X69785000Y-68251429D02*
X69899286Y-68251429D01*
X69956429Y-68280000D01*
X69985000Y-68308571D01*
X70042143Y-68394286D01*
X70070714Y-68508571D01*
X70070714Y-68737143D01*
X70042143Y-68794286D01*
X70013571Y-68822857D01*
X69956429Y-68851429D01*
X69842143Y-68851429D01*
X69785000Y-68822857D01*
X69756429Y-68794286D01*
X69727857Y-68737143D01*
X69727857Y-68594286D01*
X69756429Y-68537143D01*
X69785000Y-68508571D01*
X69842143Y-68480000D01*
X69956429Y-68480000D01*
X70013571Y-68508571D01*
X70042143Y-68537143D01*
X70070714Y-68594286D01*
X71213572Y-73931429D02*
X71213572Y-73331429D01*
X70985000Y-73331429D01*
X70927858Y-73360000D01*
X70899286Y-73388571D01*
X70870715Y-73445714D01*
X70870715Y-73531429D01*
X70899286Y-73588571D01*
X70927858Y-73617143D01*
X70985000Y-73645714D01*
X71213572Y-73645714D01*
X70299286Y-73931429D02*
X70642143Y-73931429D01*
X70470715Y-73931429D02*
X70470715Y-73331429D01*
X70527858Y-73417143D01*
X70585000Y-73474286D01*
X70642143Y-73502857D01*
X70099286Y-73331429D02*
X69699286Y-73331429D01*
X69956429Y-73931429D01*
X71213572Y-79011429D02*
X71213572Y-78411429D01*
X70985000Y-78411429D01*
X70927858Y-78440000D01*
X70899286Y-78468571D01*
X70870715Y-78525714D01*
X70870715Y-78611429D01*
X70899286Y-78668571D01*
X70927858Y-78697143D01*
X70985000Y-78725714D01*
X71213572Y-78725714D01*
X70299286Y-79011429D02*
X70642143Y-79011429D01*
X70470715Y-79011429D02*
X70470715Y-78411429D01*
X70527858Y-78497143D01*
X70585000Y-78554286D01*
X70642143Y-78582857D01*
X69956429Y-78668571D02*
X70013571Y-78640000D01*
X70042143Y-78611429D01*
X70070714Y-78554286D01*
X70070714Y-78525714D01*
X70042143Y-78468571D01*
X70013571Y-78440000D01*
X69956429Y-78411429D01*
X69842143Y-78411429D01*
X69785000Y-78440000D01*
X69756429Y-78468571D01*
X69727857Y-78525714D01*
X69727857Y-78554286D01*
X69756429Y-78611429D01*
X69785000Y-78640000D01*
X69842143Y-78668571D01*
X69956429Y-78668571D01*
X70013571Y-78697143D01*
X70042143Y-78725714D01*
X70070714Y-78782857D01*
X70070714Y-78897143D01*
X70042143Y-78954286D01*
X70013571Y-78982857D01*
X69956429Y-79011429D01*
X69842143Y-79011429D01*
X69785000Y-78982857D01*
X69756429Y-78954286D01*
X69727857Y-78897143D01*
X69727857Y-78782857D01*
X69756429Y-78725714D01*
X69785000Y-78697143D01*
X69842143Y-78668571D01*
X70610357Y-38371429D02*
X70610357Y-37771429D01*
X70381785Y-37771429D01*
X70324643Y-37800000D01*
X70296071Y-37828571D01*
X70267500Y-37885714D01*
X70267500Y-37971429D01*
X70296071Y-38028571D01*
X70324643Y-38057143D01*
X70381785Y-38085714D01*
X70610357Y-38085714D01*
X69981785Y-38371429D02*
X69867500Y-38371429D01*
X69810357Y-38342857D01*
X69781785Y-38314286D01*
X69724643Y-38228571D01*
X69696071Y-38114286D01*
X69696071Y-37885714D01*
X69724643Y-37828571D01*
X69753214Y-37800000D01*
X69810357Y-37771429D01*
X69924643Y-37771429D01*
X69981785Y-37800000D01*
X70010357Y-37828571D01*
X70038928Y-37885714D01*
X70038928Y-38028571D01*
X70010357Y-38085714D01*
X69981785Y-38114286D01*
X69924643Y-38142857D01*
X69810357Y-38142857D01*
X69753214Y-38114286D01*
X69724643Y-38085714D01*
X69696071Y-38028571D01*
X174083572Y-68851429D02*
X174083572Y-68251429D01*
X173855000Y-68251429D01*
X173797858Y-68280000D01*
X173769286Y-68308571D01*
X173740715Y-68365714D01*
X173740715Y-68451429D01*
X173769286Y-68508571D01*
X173797858Y-68537143D01*
X173855000Y-68565714D01*
X174083572Y-68565714D01*
X173226429Y-68451429D02*
X173226429Y-68851429D01*
X173369286Y-68222857D02*
X173512143Y-68651429D01*
X173140715Y-68651429D01*
X172655000Y-68251429D02*
X172769286Y-68251429D01*
X172826429Y-68280000D01*
X172855000Y-68308571D01*
X172912143Y-68394286D01*
X172940714Y-68508571D01*
X172940714Y-68737143D01*
X172912143Y-68794286D01*
X172883571Y-68822857D01*
X172826429Y-68851429D01*
X172712143Y-68851429D01*
X172655000Y-68822857D01*
X172626429Y-68794286D01*
X172597857Y-68737143D01*
X172597857Y-68594286D01*
X172626429Y-68537143D01*
X172655000Y-68508571D01*
X172712143Y-68480000D01*
X172826429Y-68480000D01*
X172883571Y-68508571D01*
X172912143Y-68537143D01*
X172940714Y-68594286D01*
X174083572Y-66311429D02*
X174083572Y-65711429D01*
X173855000Y-65711429D01*
X173797858Y-65740000D01*
X173769286Y-65768571D01*
X173740715Y-65825714D01*
X173740715Y-65911429D01*
X173769286Y-65968571D01*
X173797858Y-65997143D01*
X173855000Y-66025714D01*
X174083572Y-66025714D01*
X173226429Y-65911429D02*
X173226429Y-66311429D01*
X173369286Y-65682857D02*
X173512143Y-66111429D01*
X173140715Y-66111429D01*
X172969286Y-65711429D02*
X172569286Y-65711429D01*
X172826429Y-66311429D01*
X174083572Y-63771429D02*
X174083572Y-63171429D01*
X173855000Y-63171429D01*
X173797858Y-63200000D01*
X173769286Y-63228571D01*
X173740715Y-63285714D01*
X173740715Y-63371429D01*
X173769286Y-63428571D01*
X173797858Y-63457143D01*
X173855000Y-63485714D01*
X174083572Y-63485714D01*
X173226429Y-63371429D02*
X173226429Y-63771429D01*
X173369286Y-63142857D02*
X173512143Y-63571429D01*
X173140715Y-63571429D01*
X172826429Y-63428571D02*
X172883571Y-63400000D01*
X172912143Y-63371429D01*
X172940714Y-63314286D01*
X172940714Y-63285714D01*
X172912143Y-63228571D01*
X172883571Y-63200000D01*
X172826429Y-63171429D01*
X172712143Y-63171429D01*
X172655000Y-63200000D01*
X172626429Y-63228571D01*
X172597857Y-63285714D01*
X172597857Y-63314286D01*
X172626429Y-63371429D01*
X172655000Y-63400000D01*
X172712143Y-63428571D01*
X172826429Y-63428571D01*
X172883571Y-63457143D01*
X172912143Y-63485714D01*
X172940714Y-63542857D01*
X172940714Y-63657143D01*
X172912143Y-63714286D01*
X172883571Y-63742857D01*
X172826429Y-63771429D01*
X172712143Y-63771429D01*
X172655000Y-63742857D01*
X172626429Y-63714286D01*
X172597857Y-63657143D01*
X172597857Y-63542857D01*
X172626429Y-63485714D01*
X172655000Y-63457143D01*
X172712143Y-63428571D01*
X174083572Y-58691429D02*
X174083572Y-58091429D01*
X173855000Y-58091429D01*
X173797858Y-58120000D01*
X173769286Y-58148571D01*
X173740715Y-58205714D01*
X173740715Y-58291429D01*
X173769286Y-58348571D01*
X173797858Y-58377143D01*
X173855000Y-58405714D01*
X174083572Y-58405714D01*
X173226429Y-58291429D02*
X173226429Y-58691429D01*
X173369286Y-58062857D02*
X173512143Y-58491429D01*
X173140715Y-58491429D01*
X172883571Y-58691429D02*
X172769286Y-58691429D01*
X172712143Y-58662857D01*
X172683571Y-58634286D01*
X172626429Y-58548571D01*
X172597857Y-58434286D01*
X172597857Y-58205714D01*
X172626429Y-58148571D01*
X172655000Y-58120000D01*
X172712143Y-58091429D01*
X172826429Y-58091429D01*
X172883571Y-58120000D01*
X172912143Y-58148571D01*
X172940714Y-58205714D01*
X172940714Y-58348571D01*
X172912143Y-58405714D01*
X172883571Y-58434286D01*
X172826429Y-58462857D01*
X172712143Y-58462857D01*
X172655000Y-58434286D01*
X172626429Y-58405714D01*
X172597857Y-58348571D01*
X89171429Y-41816428D02*
X88571429Y-41816428D01*
X88571429Y-42045000D01*
X88600000Y-42102142D01*
X88628571Y-42130714D01*
X88685714Y-42159285D01*
X88771429Y-42159285D01*
X88828571Y-42130714D01*
X88857143Y-42102142D01*
X88885714Y-42045000D01*
X88885714Y-41816428D01*
X88628571Y-42387857D02*
X88600000Y-42416428D01*
X88571429Y-42473571D01*
X88571429Y-42616428D01*
X88600000Y-42673571D01*
X88628571Y-42702142D01*
X88685714Y-42730714D01*
X88742857Y-42730714D01*
X88828571Y-42702142D01*
X89171429Y-42359285D01*
X89171429Y-42730714D01*
X89171429Y-43016429D02*
X89171429Y-43130714D01*
X89142857Y-43187857D01*
X89114286Y-43216429D01*
X89028571Y-43273571D01*
X88914286Y-43302143D01*
X88685714Y-43302143D01*
X88628571Y-43273571D01*
X88600000Y-43245000D01*
X88571429Y-43187857D01*
X88571429Y-43073571D01*
X88600000Y-43016429D01*
X88628571Y-42987857D01*
X88685714Y-42959286D01*
X88828571Y-42959286D01*
X88885714Y-42987857D01*
X88914286Y-43016429D01*
X88942857Y-43073571D01*
X88942857Y-43187857D01*
X88914286Y-43245000D01*
X88885714Y-43273571D01*
X88828571Y-43302143D01*
X161383572Y-63453929D02*
X161383572Y-62853929D01*
X161155000Y-62853929D01*
X161097858Y-62882500D01*
X161069286Y-62911071D01*
X161040715Y-62968214D01*
X161040715Y-63053929D01*
X161069286Y-63111071D01*
X161097858Y-63139643D01*
X161155000Y-63168214D01*
X161383572Y-63168214D01*
X160497858Y-62853929D02*
X160783572Y-62853929D01*
X160812143Y-63139643D01*
X160783572Y-63111071D01*
X160726429Y-63082500D01*
X160583572Y-63082500D01*
X160526429Y-63111071D01*
X160497858Y-63139643D01*
X160469286Y-63196786D01*
X160469286Y-63339643D01*
X160497858Y-63396786D01*
X160526429Y-63425357D01*
X160583572Y-63453929D01*
X160726429Y-63453929D01*
X160783572Y-63425357D01*
X160812143Y-63396786D01*
X159897857Y-63453929D02*
X160240714Y-63453929D01*
X160069286Y-63453929D02*
X160069286Y-62853929D01*
X160126429Y-62939643D01*
X160183571Y-62996786D01*
X160240714Y-63025357D01*
X151223572Y-48531429D02*
X151223572Y-47931429D01*
X150995000Y-47931429D01*
X150937858Y-47960000D01*
X150909286Y-47988571D01*
X150880715Y-48045714D01*
X150880715Y-48131429D01*
X150909286Y-48188571D01*
X150937858Y-48217143D01*
X150995000Y-48245714D01*
X151223572Y-48245714D01*
X150337858Y-47931429D02*
X150623572Y-47931429D01*
X150652143Y-48217143D01*
X150623572Y-48188571D01*
X150566429Y-48160000D01*
X150423572Y-48160000D01*
X150366429Y-48188571D01*
X150337858Y-48217143D01*
X150309286Y-48274286D01*
X150309286Y-48417143D01*
X150337858Y-48474286D01*
X150366429Y-48502857D01*
X150423572Y-48531429D01*
X150566429Y-48531429D01*
X150623572Y-48502857D01*
X150652143Y-48474286D01*
X150080714Y-47988571D02*
X150052143Y-47960000D01*
X149995000Y-47931429D01*
X149852143Y-47931429D01*
X149795000Y-47960000D01*
X149766429Y-47988571D01*
X149737857Y-48045714D01*
X149737857Y-48102857D01*
X149766429Y-48188571D01*
X150109286Y-48531429D01*
X149737857Y-48531429D01*
X151223572Y-40911429D02*
X151223572Y-40311429D01*
X150995000Y-40311429D01*
X150937858Y-40340000D01*
X150909286Y-40368571D01*
X150880715Y-40425714D01*
X150880715Y-40511429D01*
X150909286Y-40568571D01*
X150937858Y-40597143D01*
X150995000Y-40625714D01*
X151223572Y-40625714D01*
X150337858Y-40311429D02*
X150623572Y-40311429D01*
X150652143Y-40597143D01*
X150623572Y-40568571D01*
X150566429Y-40540000D01*
X150423572Y-40540000D01*
X150366429Y-40568571D01*
X150337858Y-40597143D01*
X150309286Y-40654286D01*
X150309286Y-40797143D01*
X150337858Y-40854286D01*
X150366429Y-40882857D01*
X150423572Y-40911429D01*
X150566429Y-40911429D01*
X150623572Y-40882857D01*
X150652143Y-40854286D01*
X150109286Y-40311429D02*
X149737857Y-40311429D01*
X149937857Y-40540000D01*
X149852143Y-40540000D01*
X149795000Y-40568571D01*
X149766429Y-40597143D01*
X149737857Y-40654286D01*
X149737857Y-40797143D01*
X149766429Y-40854286D01*
X149795000Y-40882857D01*
X149852143Y-40911429D01*
X150023571Y-40911429D01*
X150080714Y-40882857D01*
X150109286Y-40854286D01*
X127728572Y-40121429D02*
X127728572Y-39521429D01*
X127500000Y-39521429D01*
X127442858Y-39550000D01*
X127414286Y-39578571D01*
X127385715Y-39635714D01*
X127385715Y-39721429D01*
X127414286Y-39778571D01*
X127442858Y-39807143D01*
X127500000Y-39835714D01*
X127728572Y-39835714D01*
X126842858Y-39521429D02*
X127128572Y-39521429D01*
X127157143Y-39807143D01*
X127128572Y-39778571D01*
X127071429Y-39750000D01*
X126928572Y-39750000D01*
X126871429Y-39778571D01*
X126842858Y-39807143D01*
X126814286Y-39864286D01*
X126814286Y-40007143D01*
X126842858Y-40064286D01*
X126871429Y-40092857D01*
X126928572Y-40121429D01*
X127071429Y-40121429D01*
X127128572Y-40092857D01*
X127157143Y-40064286D01*
X126300000Y-39721429D02*
X126300000Y-40121429D01*
X126442857Y-39492857D02*
X126585714Y-39921429D01*
X126214286Y-39921429D01*
X157573572Y-40911429D02*
X157573572Y-40311429D01*
X157345000Y-40311429D01*
X157287858Y-40340000D01*
X157259286Y-40368571D01*
X157230715Y-40425714D01*
X157230715Y-40511429D01*
X157259286Y-40568571D01*
X157287858Y-40597143D01*
X157345000Y-40625714D01*
X157573572Y-40625714D01*
X156687858Y-40311429D02*
X156973572Y-40311429D01*
X157002143Y-40597143D01*
X156973572Y-40568571D01*
X156916429Y-40540000D01*
X156773572Y-40540000D01*
X156716429Y-40568571D01*
X156687858Y-40597143D01*
X156659286Y-40654286D01*
X156659286Y-40797143D01*
X156687858Y-40854286D01*
X156716429Y-40882857D01*
X156773572Y-40911429D01*
X156916429Y-40911429D01*
X156973572Y-40882857D01*
X157002143Y-40854286D01*
X156116429Y-40311429D02*
X156402143Y-40311429D01*
X156430714Y-40597143D01*
X156402143Y-40568571D01*
X156345000Y-40540000D01*
X156202143Y-40540000D01*
X156145000Y-40568571D01*
X156116429Y-40597143D01*
X156087857Y-40654286D01*
X156087857Y-40797143D01*
X156116429Y-40854286D01*
X156145000Y-40882857D01*
X156202143Y-40911429D01*
X156345000Y-40911429D01*
X156402143Y-40882857D01*
X156430714Y-40854286D01*
X114393572Y-61231429D02*
X114393572Y-60631429D01*
X114165000Y-60631429D01*
X114107858Y-60660000D01*
X114079286Y-60688571D01*
X114050715Y-60745714D01*
X114050715Y-60831429D01*
X114079286Y-60888571D01*
X114107858Y-60917143D01*
X114165000Y-60945714D01*
X114393572Y-60945714D01*
X113850715Y-60631429D02*
X113479286Y-60631429D01*
X113679286Y-60860000D01*
X113593572Y-60860000D01*
X113536429Y-60888571D01*
X113507858Y-60917143D01*
X113479286Y-60974286D01*
X113479286Y-61117143D01*
X113507858Y-61174286D01*
X113536429Y-61202857D01*
X113593572Y-61231429D01*
X113765000Y-61231429D01*
X113822143Y-61202857D01*
X113850715Y-61174286D01*
X112965000Y-60631429D02*
X113079286Y-60631429D01*
X113136429Y-60660000D01*
X113165000Y-60688571D01*
X113222143Y-60774286D01*
X113250714Y-60888571D01*
X113250714Y-61117143D01*
X113222143Y-61174286D01*
X113193571Y-61202857D01*
X113136429Y-61231429D01*
X113022143Y-61231429D01*
X112965000Y-61202857D01*
X112936429Y-61174286D01*
X112907857Y-61117143D01*
X112907857Y-60974286D01*
X112936429Y-60917143D01*
X112965000Y-60888571D01*
X113022143Y-60860000D01*
X113136429Y-60860000D01*
X113193571Y-60888571D01*
X113222143Y-60917143D01*
X113250714Y-60974286D01*
X165193572Y-66946429D02*
X165193572Y-66346429D01*
X164965000Y-66346429D01*
X164907858Y-66375000D01*
X164879286Y-66403571D01*
X164850715Y-66460714D01*
X164850715Y-66546429D01*
X164879286Y-66603571D01*
X164907858Y-66632143D01*
X164965000Y-66660714D01*
X165193572Y-66660714D01*
X164650715Y-66346429D02*
X164279286Y-66346429D01*
X164479286Y-66575000D01*
X164393572Y-66575000D01*
X164336429Y-66603571D01*
X164307858Y-66632143D01*
X164279286Y-66689286D01*
X164279286Y-66832143D01*
X164307858Y-66889286D01*
X164336429Y-66917857D01*
X164393572Y-66946429D01*
X164565000Y-66946429D01*
X164622143Y-66917857D01*
X164650715Y-66889286D01*
X163993571Y-66946429D02*
X163879286Y-66946429D01*
X163822143Y-66917857D01*
X163793571Y-66889286D01*
X163736429Y-66803571D01*
X163707857Y-66689286D01*
X163707857Y-66460714D01*
X163736429Y-66403571D01*
X163765000Y-66375000D01*
X163822143Y-66346429D01*
X163936429Y-66346429D01*
X163993571Y-66375000D01*
X164022143Y-66403571D01*
X164050714Y-66460714D01*
X164050714Y-66603571D01*
X164022143Y-66660714D01*
X163993571Y-66689286D01*
X163936429Y-66717857D01*
X163822143Y-66717857D01*
X163765000Y-66689286D01*
X163736429Y-66660714D01*
X163707857Y-66603571D01*
X148683572Y-61231429D02*
X148683572Y-60631429D01*
X148455000Y-60631429D01*
X148397858Y-60660000D01*
X148369286Y-60688571D01*
X148340715Y-60745714D01*
X148340715Y-60831429D01*
X148369286Y-60888571D01*
X148397858Y-60917143D01*
X148455000Y-60945714D01*
X148683572Y-60945714D01*
X147826429Y-60831429D02*
X147826429Y-61231429D01*
X147969286Y-60602857D02*
X148112143Y-61031429D01*
X147740715Y-61031429D01*
X147397857Y-60631429D02*
X147340714Y-60631429D01*
X147283571Y-60660000D01*
X147255000Y-60688571D01*
X147226429Y-60745714D01*
X147197857Y-60860000D01*
X147197857Y-61002857D01*
X147226429Y-61117143D01*
X147255000Y-61174286D01*
X147283571Y-61202857D01*
X147340714Y-61231429D01*
X147397857Y-61231429D01*
X147455000Y-61202857D01*
X147483571Y-61174286D01*
X147512143Y-61117143D01*
X147540714Y-61002857D01*
X147540714Y-60860000D01*
X147512143Y-60745714D01*
X147483571Y-60688571D01*
X147455000Y-60660000D01*
X147397857Y-60631429D01*
X160113572Y-53611429D02*
X160113572Y-53011429D01*
X159885000Y-53011429D01*
X159827858Y-53040000D01*
X159799286Y-53068571D01*
X159770715Y-53125714D01*
X159770715Y-53211429D01*
X159799286Y-53268571D01*
X159827858Y-53297143D01*
X159885000Y-53325714D01*
X160113572Y-53325714D01*
X159256429Y-53211429D02*
X159256429Y-53611429D01*
X159399286Y-52982857D02*
X159542143Y-53411429D01*
X159170715Y-53411429D01*
X158627857Y-53611429D02*
X158970714Y-53611429D01*
X158799286Y-53611429D02*
X158799286Y-53011429D01*
X158856429Y-53097143D01*
X158913571Y-53154286D01*
X158970714Y-53182857D01*
X150588572Y-68061429D02*
X150588572Y-67461429D01*
X150360000Y-67461429D01*
X150302858Y-67490000D01*
X150274286Y-67518571D01*
X150245715Y-67575714D01*
X150245715Y-67661429D01*
X150274286Y-67718571D01*
X150302858Y-67747143D01*
X150360000Y-67775714D01*
X150588572Y-67775714D01*
X149731429Y-67661429D02*
X149731429Y-68061429D01*
X149874286Y-67432857D02*
X150017143Y-67861429D01*
X149645715Y-67861429D01*
X149445714Y-67518571D02*
X149417143Y-67490000D01*
X149360000Y-67461429D01*
X149217143Y-67461429D01*
X149160000Y-67490000D01*
X149131429Y-67518571D01*
X149102857Y-67575714D01*
X149102857Y-67632857D01*
X149131429Y-67718571D01*
X149474286Y-68061429D01*
X149102857Y-68061429D01*
X158843572Y-45991429D02*
X158843572Y-45391429D01*
X158615000Y-45391429D01*
X158557858Y-45420000D01*
X158529286Y-45448571D01*
X158500715Y-45505714D01*
X158500715Y-45591429D01*
X158529286Y-45648571D01*
X158557858Y-45677143D01*
X158615000Y-45705714D01*
X158843572Y-45705714D01*
X157986429Y-45591429D02*
X157986429Y-45991429D01*
X158129286Y-45362857D02*
X158272143Y-45791429D01*
X157900715Y-45791429D01*
X157729286Y-45391429D02*
X157357857Y-45391429D01*
X157557857Y-45620000D01*
X157472143Y-45620000D01*
X157415000Y-45648571D01*
X157386429Y-45677143D01*
X157357857Y-45734286D01*
X157357857Y-45877143D01*
X157386429Y-45934286D01*
X157415000Y-45962857D01*
X157472143Y-45991429D01*
X157643571Y-45991429D01*
X157700714Y-45962857D01*
X157729286Y-45934286D01*
X151223572Y-53611429D02*
X151223572Y-53011429D01*
X150995000Y-53011429D01*
X150937858Y-53040000D01*
X150909286Y-53068571D01*
X150880715Y-53125714D01*
X150880715Y-53211429D01*
X150909286Y-53268571D01*
X150937858Y-53297143D01*
X150995000Y-53325714D01*
X151223572Y-53325714D01*
X150366429Y-53211429D02*
X150366429Y-53611429D01*
X150509286Y-52982857D02*
X150652143Y-53411429D01*
X150280715Y-53411429D01*
X149795000Y-53211429D02*
X149795000Y-53611429D01*
X149937857Y-52982857D02*
X150080714Y-53411429D01*
X149709286Y-53411429D01*
X143603572Y-48531429D02*
X143603572Y-47931429D01*
X143375000Y-47931429D01*
X143317858Y-47960000D01*
X143289286Y-47988571D01*
X143260715Y-48045714D01*
X143260715Y-48131429D01*
X143289286Y-48188571D01*
X143317858Y-48217143D01*
X143375000Y-48245714D01*
X143603572Y-48245714D01*
X142746429Y-48131429D02*
X142746429Y-48531429D01*
X142889286Y-47902857D02*
X143032143Y-48331429D01*
X142660715Y-48331429D01*
X142146429Y-47931429D02*
X142432143Y-47931429D01*
X142460714Y-48217143D01*
X142432143Y-48188571D01*
X142375000Y-48160000D01*
X142232143Y-48160000D01*
X142175000Y-48188571D01*
X142146429Y-48217143D01*
X142117857Y-48274286D01*
X142117857Y-48417143D01*
X142146429Y-48474286D01*
X142175000Y-48502857D01*
X142232143Y-48531429D01*
X142375000Y-48531429D01*
X142432143Y-48502857D01*
X142460714Y-48474286D01*
X102328572Y-68061429D02*
X102328572Y-67461429D01*
X102100000Y-67461429D01*
X102042858Y-67490000D01*
X102014286Y-67518571D01*
X101985715Y-67575714D01*
X101985715Y-67661429D01*
X102014286Y-67718571D01*
X102042858Y-67747143D01*
X102100000Y-67775714D01*
X102328572Y-67775714D01*
X101757143Y-67518571D02*
X101728572Y-67490000D01*
X101671429Y-67461429D01*
X101528572Y-67461429D01*
X101471429Y-67490000D01*
X101442858Y-67518571D01*
X101414286Y-67575714D01*
X101414286Y-67632857D01*
X101442858Y-67718571D01*
X101785715Y-68061429D01*
X101414286Y-68061429D01*
X101214286Y-67461429D02*
X100842857Y-67461429D01*
X101042857Y-67690000D01*
X100957143Y-67690000D01*
X100900000Y-67718571D01*
X100871429Y-67747143D01*
X100842857Y-67804286D01*
X100842857Y-67947143D01*
X100871429Y-68004286D01*
X100900000Y-68032857D01*
X100957143Y-68061429D01*
X101128571Y-68061429D01*
X101185714Y-68032857D01*
X101214286Y-68004286D01*
X109313572Y-61231429D02*
X109313572Y-60631429D01*
X109085000Y-60631429D01*
X109027858Y-60660000D01*
X108999286Y-60688571D01*
X108970715Y-60745714D01*
X108970715Y-60831429D01*
X108999286Y-60888571D01*
X109027858Y-60917143D01*
X109085000Y-60945714D01*
X109313572Y-60945714D01*
X108742143Y-60688571D02*
X108713572Y-60660000D01*
X108656429Y-60631429D01*
X108513572Y-60631429D01*
X108456429Y-60660000D01*
X108427858Y-60688571D01*
X108399286Y-60745714D01*
X108399286Y-60802857D01*
X108427858Y-60888571D01*
X108770715Y-61231429D01*
X108399286Y-61231429D01*
X107885000Y-60831429D02*
X107885000Y-61231429D01*
X108027857Y-60602857D02*
X108170714Y-61031429D01*
X107799286Y-61031429D01*
X104868572Y-65358929D02*
X104868572Y-64758929D01*
X104640000Y-64758929D01*
X104582858Y-64787500D01*
X104554286Y-64816071D01*
X104525715Y-64873214D01*
X104525715Y-64958929D01*
X104554286Y-65016071D01*
X104582858Y-65044643D01*
X104640000Y-65073214D01*
X104868572Y-65073214D01*
X104297143Y-64816071D02*
X104268572Y-64787500D01*
X104211429Y-64758929D01*
X104068572Y-64758929D01*
X104011429Y-64787500D01*
X103982858Y-64816071D01*
X103954286Y-64873214D01*
X103954286Y-64930357D01*
X103982858Y-65016071D01*
X104325715Y-65358929D01*
X103954286Y-65358929D01*
X103411429Y-64758929D02*
X103697143Y-64758929D01*
X103725714Y-65044643D01*
X103697143Y-65016071D01*
X103640000Y-64987500D01*
X103497143Y-64987500D01*
X103440000Y-65016071D01*
X103411429Y-65044643D01*
X103382857Y-65101786D01*
X103382857Y-65244643D01*
X103411429Y-65301786D01*
X103440000Y-65330357D01*
X103497143Y-65358929D01*
X103640000Y-65358929D01*
X103697143Y-65330357D01*
X103725714Y-65301786D01*
X108043572Y-51071429D02*
X108043572Y-50471429D01*
X107815000Y-50471429D01*
X107757858Y-50500000D01*
X107729286Y-50528571D01*
X107700715Y-50585714D01*
X107700715Y-50671429D01*
X107729286Y-50728571D01*
X107757858Y-50757143D01*
X107815000Y-50785714D01*
X108043572Y-50785714D01*
X107472143Y-50528571D02*
X107443572Y-50500000D01*
X107386429Y-50471429D01*
X107243572Y-50471429D01*
X107186429Y-50500000D01*
X107157858Y-50528571D01*
X107129286Y-50585714D01*
X107129286Y-50642857D01*
X107157858Y-50728571D01*
X107500715Y-51071429D01*
X107129286Y-51071429D01*
X106615000Y-50471429D02*
X106729286Y-50471429D01*
X106786429Y-50500000D01*
X106815000Y-50528571D01*
X106872143Y-50614286D01*
X106900714Y-50728571D01*
X106900714Y-50957143D01*
X106872143Y-51014286D01*
X106843571Y-51042857D01*
X106786429Y-51071429D01*
X106672143Y-51071429D01*
X106615000Y-51042857D01*
X106586429Y-51014286D01*
X106557857Y-50957143D01*
X106557857Y-50814286D01*
X106586429Y-50757143D01*
X106615000Y-50728571D01*
X106672143Y-50700000D01*
X106786429Y-50700000D01*
X106843571Y-50728571D01*
X106872143Y-50757143D01*
X106900714Y-50814286D01*
X113123572Y-51071429D02*
X113123572Y-50471429D01*
X112895000Y-50471429D01*
X112837858Y-50500000D01*
X112809286Y-50528571D01*
X112780715Y-50585714D01*
X112780715Y-50671429D01*
X112809286Y-50728571D01*
X112837858Y-50757143D01*
X112895000Y-50785714D01*
X113123572Y-50785714D01*
X112552143Y-50528571D02*
X112523572Y-50500000D01*
X112466429Y-50471429D01*
X112323572Y-50471429D01*
X112266429Y-50500000D01*
X112237858Y-50528571D01*
X112209286Y-50585714D01*
X112209286Y-50642857D01*
X112237858Y-50728571D01*
X112580715Y-51071429D01*
X112209286Y-51071429D01*
X112009286Y-50471429D02*
X111609286Y-50471429D01*
X111866429Y-51071429D01*
X108043572Y-53611429D02*
X108043572Y-53011429D01*
X107815000Y-53011429D01*
X107757858Y-53040000D01*
X107729286Y-53068571D01*
X107700715Y-53125714D01*
X107700715Y-53211429D01*
X107729286Y-53268571D01*
X107757858Y-53297143D01*
X107815000Y-53325714D01*
X108043572Y-53325714D01*
X107472143Y-53068571D02*
X107443572Y-53040000D01*
X107386429Y-53011429D01*
X107243572Y-53011429D01*
X107186429Y-53040000D01*
X107157858Y-53068571D01*
X107129286Y-53125714D01*
X107129286Y-53182857D01*
X107157858Y-53268571D01*
X107500715Y-53611429D01*
X107129286Y-53611429D01*
X106786429Y-53268571D02*
X106843571Y-53240000D01*
X106872143Y-53211429D01*
X106900714Y-53154286D01*
X106900714Y-53125714D01*
X106872143Y-53068571D01*
X106843571Y-53040000D01*
X106786429Y-53011429D01*
X106672143Y-53011429D01*
X106615000Y-53040000D01*
X106586429Y-53068571D01*
X106557857Y-53125714D01*
X106557857Y-53154286D01*
X106586429Y-53211429D01*
X106615000Y-53240000D01*
X106672143Y-53268571D01*
X106786429Y-53268571D01*
X106843571Y-53297143D01*
X106872143Y-53325714D01*
X106900714Y-53382857D01*
X106900714Y-53497143D01*
X106872143Y-53554286D01*
X106843571Y-53582857D01*
X106786429Y-53611429D01*
X106672143Y-53611429D01*
X106615000Y-53582857D01*
X106586429Y-53554286D01*
X106557857Y-53497143D01*
X106557857Y-53382857D01*
X106586429Y-53325714D01*
X106615000Y-53297143D01*
X106672143Y-53268571D01*
X92028929Y-41816428D02*
X91428929Y-41816428D01*
X91428929Y-42045000D01*
X91457500Y-42102142D01*
X91486071Y-42130714D01*
X91543214Y-42159285D01*
X91628929Y-42159285D01*
X91686071Y-42130714D01*
X91714643Y-42102142D01*
X91743214Y-42045000D01*
X91743214Y-41816428D01*
X91428929Y-42359285D02*
X91428929Y-42730714D01*
X91657500Y-42530714D01*
X91657500Y-42616428D01*
X91686071Y-42673571D01*
X91714643Y-42702142D01*
X91771786Y-42730714D01*
X91914643Y-42730714D01*
X91971786Y-42702142D01*
X92000357Y-42673571D01*
X92028929Y-42616428D01*
X92028929Y-42445000D01*
X92000357Y-42387857D01*
X91971786Y-42359285D01*
X91428929Y-43102143D02*
X91428929Y-43159286D01*
X91457500Y-43216429D01*
X91486071Y-43245000D01*
X91543214Y-43273571D01*
X91657500Y-43302143D01*
X91800357Y-43302143D01*
X91914643Y-43273571D01*
X91971786Y-43245000D01*
X92000357Y-43216429D01*
X92028929Y-43159286D01*
X92028929Y-43102143D01*
X92000357Y-43045000D01*
X91971786Y-43016429D01*
X91914643Y-42987857D01*
X91800357Y-42959286D01*
X91657500Y-42959286D01*
X91543214Y-42987857D01*
X91486071Y-43016429D01*
X91457500Y-43045000D01*
X91428929Y-43102143D01*
X94251429Y-41816428D02*
X93651429Y-41816428D01*
X93651429Y-42045000D01*
X93680000Y-42102142D01*
X93708571Y-42130714D01*
X93765714Y-42159285D01*
X93851429Y-42159285D01*
X93908571Y-42130714D01*
X93937143Y-42102142D01*
X93965714Y-42045000D01*
X93965714Y-41816428D01*
X93651429Y-42359285D02*
X93651429Y-42730714D01*
X93880000Y-42530714D01*
X93880000Y-42616428D01*
X93908571Y-42673571D01*
X93937143Y-42702142D01*
X93994286Y-42730714D01*
X94137143Y-42730714D01*
X94194286Y-42702142D01*
X94222857Y-42673571D01*
X94251429Y-42616428D01*
X94251429Y-42445000D01*
X94222857Y-42387857D01*
X94194286Y-42359285D01*
X94251429Y-43302143D02*
X94251429Y-42959286D01*
X94251429Y-43130714D02*
X93651429Y-43130714D01*
X93737143Y-43073571D01*
X93794286Y-43016429D01*
X93822857Y-42959286D01*
X107408572Y-36847429D02*
X107408572Y-36247429D01*
X107180000Y-36247429D01*
X107122858Y-36276000D01*
X107094286Y-36304571D01*
X107065715Y-36361714D01*
X107065715Y-36447429D01*
X107094286Y-36504571D01*
X107122858Y-36533143D01*
X107180000Y-36561714D01*
X107408572Y-36561714D01*
X106865715Y-36247429D02*
X106494286Y-36247429D01*
X106694286Y-36476000D01*
X106608572Y-36476000D01*
X106551429Y-36504571D01*
X106522858Y-36533143D01*
X106494286Y-36590286D01*
X106494286Y-36733143D01*
X106522858Y-36790286D01*
X106551429Y-36818857D01*
X106608572Y-36847429D01*
X106780000Y-36847429D01*
X106837143Y-36818857D01*
X106865715Y-36790286D01*
X106265714Y-36304571D02*
X106237143Y-36276000D01*
X106180000Y-36247429D01*
X106037143Y-36247429D01*
X105980000Y-36276000D01*
X105951429Y-36304571D01*
X105922857Y-36361714D01*
X105922857Y-36418857D01*
X105951429Y-36504571D01*
X106294286Y-36847429D01*
X105922857Y-36847429D01*
X107408572Y-42661429D02*
X107408572Y-42061429D01*
X107180000Y-42061429D01*
X107122858Y-42090000D01*
X107094286Y-42118571D01*
X107065715Y-42175714D01*
X107065715Y-42261429D01*
X107094286Y-42318571D01*
X107122858Y-42347143D01*
X107180000Y-42375714D01*
X107408572Y-42375714D01*
X106865715Y-42061429D02*
X106494286Y-42061429D01*
X106694286Y-42290000D01*
X106608572Y-42290000D01*
X106551429Y-42318571D01*
X106522858Y-42347143D01*
X106494286Y-42404286D01*
X106494286Y-42547143D01*
X106522858Y-42604286D01*
X106551429Y-42632857D01*
X106608572Y-42661429D01*
X106780000Y-42661429D01*
X106837143Y-42632857D01*
X106865715Y-42604286D01*
X106294286Y-42061429D02*
X105922857Y-42061429D01*
X106122857Y-42290000D01*
X106037143Y-42290000D01*
X105980000Y-42318571D01*
X105951429Y-42347143D01*
X105922857Y-42404286D01*
X105922857Y-42547143D01*
X105951429Y-42604286D01*
X105980000Y-42632857D01*
X106037143Y-42661429D01*
X106208571Y-42661429D01*
X106265714Y-42632857D01*
X106294286Y-42604286D01*
X102963572Y-58691429D02*
X102963572Y-58091429D01*
X102735000Y-58091429D01*
X102677858Y-58120000D01*
X102649286Y-58148571D01*
X102620715Y-58205714D01*
X102620715Y-58291429D01*
X102649286Y-58348571D01*
X102677858Y-58377143D01*
X102735000Y-58405714D01*
X102963572Y-58405714D01*
X102420715Y-58091429D02*
X102049286Y-58091429D01*
X102249286Y-58320000D01*
X102163572Y-58320000D01*
X102106429Y-58348571D01*
X102077858Y-58377143D01*
X102049286Y-58434286D01*
X102049286Y-58577143D01*
X102077858Y-58634286D01*
X102106429Y-58662857D01*
X102163572Y-58691429D01*
X102335000Y-58691429D01*
X102392143Y-58662857D01*
X102420715Y-58634286D01*
X101535000Y-58291429D02*
X101535000Y-58691429D01*
X101677857Y-58062857D02*
X101820714Y-58491429D01*
X101449286Y-58491429D01*
X96791429Y-41816428D02*
X96191429Y-41816428D01*
X96191429Y-42045000D01*
X96220000Y-42102142D01*
X96248571Y-42130714D01*
X96305714Y-42159285D01*
X96391429Y-42159285D01*
X96448571Y-42130714D01*
X96477143Y-42102142D01*
X96505714Y-42045000D01*
X96505714Y-41816428D01*
X96191429Y-42359285D02*
X96191429Y-42730714D01*
X96420000Y-42530714D01*
X96420000Y-42616428D01*
X96448571Y-42673571D01*
X96477143Y-42702142D01*
X96534286Y-42730714D01*
X96677143Y-42730714D01*
X96734286Y-42702142D01*
X96762857Y-42673571D01*
X96791429Y-42616428D01*
X96791429Y-42445000D01*
X96762857Y-42387857D01*
X96734286Y-42359285D01*
X96191429Y-43273571D02*
X96191429Y-42987857D01*
X96477143Y-42959286D01*
X96448571Y-42987857D01*
X96420000Y-43045000D01*
X96420000Y-43187857D01*
X96448571Y-43245000D01*
X96477143Y-43273571D01*
X96534286Y-43302143D01*
X96677143Y-43302143D01*
X96734286Y-43273571D01*
X96762857Y-43245000D01*
X96791429Y-43187857D01*
X96791429Y-43045000D01*
X96762857Y-42987857D01*
X96734286Y-42959286D01*
X86631429Y-41816428D02*
X86031429Y-41816428D01*
X86031429Y-42045000D01*
X86060000Y-42102142D01*
X86088571Y-42130714D01*
X86145714Y-42159285D01*
X86231429Y-42159285D01*
X86288571Y-42130714D01*
X86317143Y-42102142D01*
X86345714Y-42045000D01*
X86345714Y-41816428D01*
X86031429Y-42359285D02*
X86031429Y-42730714D01*
X86260000Y-42530714D01*
X86260000Y-42616428D01*
X86288571Y-42673571D01*
X86317143Y-42702142D01*
X86374286Y-42730714D01*
X86517143Y-42730714D01*
X86574286Y-42702142D01*
X86602857Y-42673571D01*
X86631429Y-42616428D01*
X86631429Y-42445000D01*
X86602857Y-42387857D01*
X86574286Y-42359285D01*
X86031429Y-42930714D02*
X86031429Y-43330714D01*
X86631429Y-43073571D01*
X112488572Y-47481429D02*
X112488572Y-46881429D01*
X112260000Y-46881429D01*
X112202858Y-46910000D01*
X112174286Y-46938571D01*
X112145715Y-46995714D01*
X112145715Y-47081429D01*
X112174286Y-47138571D01*
X112202858Y-47167143D01*
X112260000Y-47195714D01*
X112488572Y-47195714D01*
X111917143Y-46938571D02*
X111888572Y-46910000D01*
X111831429Y-46881429D01*
X111688572Y-46881429D01*
X111631429Y-46910000D01*
X111602858Y-46938571D01*
X111574286Y-46995714D01*
X111574286Y-47052857D01*
X111602858Y-47138571D01*
X111945715Y-47481429D01*
X111574286Y-47481429D01*
X111002857Y-47481429D02*
X111345714Y-47481429D01*
X111174286Y-47481429D02*
X111174286Y-46881429D01*
X111231429Y-46967143D01*
X111288571Y-47024286D01*
X111345714Y-47052857D01*
D10*
X116493333Y-32772381D02*
X116826667Y-32296190D01*
X117064762Y-32772381D02*
X117064762Y-31772381D01*
X116683809Y-31772381D01*
X116588571Y-31820000D01*
X116540952Y-31867619D01*
X116493333Y-31962857D01*
X116493333Y-32105714D01*
X116540952Y-32200952D01*
X116588571Y-32248571D01*
X116683809Y-32296190D01*
X117064762Y-32296190D01*
X116064762Y-32248571D02*
X115731428Y-32248571D01*
X115588571Y-32772381D02*
X116064762Y-32772381D01*
X116064762Y-31772381D01*
X115588571Y-31772381D01*
X114826666Y-32248571D02*
X115160000Y-32248571D01*
X115160000Y-32772381D02*
X115160000Y-31772381D01*
X114683809Y-31772381D01*
X114160000Y-31772381D02*
X114160000Y-32010476D01*
X114398095Y-31915238D02*
X114160000Y-32010476D01*
X113921904Y-31915238D01*
X114302857Y-32200952D02*
X114160000Y-32010476D01*
X114017142Y-32200952D01*
X113398095Y-31772381D02*
X113398095Y-32010476D01*
X113636190Y-31915238D02*
X113398095Y-32010476D01*
X113159999Y-31915238D01*
X113540952Y-32200952D02*
X113398095Y-32010476D01*
X113255237Y-32200952D01*
%LPC*%
D15*
X165100000Y-81280000D03*
X165100000Y-33020000D03*
D16*
X68580000Y-85090000D03*
X68580000Y-33020000D03*
D17*
X68580000Y-71120000D03*
X68580000Y-76200000D03*
X68580000Y-63500000D03*
X68580000Y-43180000D03*
X68580000Y-48260000D03*
X68580000Y-53340000D03*
X68580000Y-58420000D03*
X170180000Y-58420000D03*
X68580000Y-66040000D03*
X68580000Y-60960000D03*
X68580000Y-55880000D03*
X68580000Y-50800000D03*
X68580000Y-45720000D03*
X68580000Y-40640000D03*
X109220000Y-63500000D03*
X68580000Y-68580000D03*
X68580000Y-73660000D03*
X68580000Y-78740000D03*
X68580000Y-38100000D03*
X175260000Y-68580000D03*
X175260000Y-66040000D03*
X175260000Y-63500000D03*
X175260000Y-58420000D03*
X88900000Y-40640000D03*
X162560000Y-63500000D03*
X152400000Y-48260000D03*
X152400000Y-40640000D03*
X127000000Y-38100000D03*
X154940000Y-40640000D03*
X111760000Y-60960000D03*
X162560000Y-66040000D03*
X149860000Y-60960000D03*
X157480000Y-53340000D03*
X149860000Y-66040000D03*
X160020000Y-45720000D03*
X152400000Y-53340000D03*
X144780000Y-48260000D03*
X101600000Y-66040000D03*
X106680000Y-60960000D03*
X104140000Y-63500000D03*
X109220000Y-50800000D03*
X114300000Y-50800000D03*
X109220000Y-53340000D03*
X91440000Y-40640000D03*
X93980000Y-40640000D03*
X106680000Y-38100000D03*
X106680000Y-40640000D03*
X104140000Y-58420000D03*
X96520000Y-40640000D03*
X86360000Y-40640000D03*
D18*
X111760000Y-44725000D03*
X109220000Y-44725000D03*
X114300000Y-44725000D03*
X114300000Y-39095000D03*
X111760000Y-39095000D03*
X109220000Y-39095000D03*
D19*
X104140000Y-38100000D03*
D20*
X101600000Y-38100000D03*
X99060000Y-38100000D03*
X96520000Y-38100000D03*
X93980000Y-38100000D03*
X91440000Y-38100000D03*
X88900000Y-38100000D03*
D19*
X63500000Y-81280000D03*
D20*
X63500000Y-78740000D03*
X63500000Y-76200000D03*
X63500000Y-73660000D03*
X63500000Y-71120000D03*
X63500000Y-68580000D03*
X63500000Y-66040000D03*
X63500000Y-63500000D03*
X63500000Y-60960000D03*
X63500000Y-58420000D03*
X63500000Y-55880000D03*
X63500000Y-53340000D03*
X63500000Y-50800000D03*
X63500000Y-48260000D03*
X63500000Y-45720000D03*
X63500000Y-43180000D03*
X63500000Y-40640000D03*
X63500000Y-38100000D03*
X180340000Y-71120000D03*
X180340000Y-68580000D03*
X180340000Y-66040000D03*
X180340000Y-63500000D03*
X180340000Y-60960000D03*
X180340000Y-58420000D03*
X180340000Y-55880000D03*
X180340000Y-53340000D03*
X180340000Y-48260000D03*
X180340000Y-45720000D03*
X180340000Y-43180000D03*
X180340000Y-40640000D03*
X180340000Y-38100000D03*
X180340000Y-35560000D03*
X152400000Y-35433000D03*
X154940000Y-35433000D03*
X157480000Y-35433000D03*
X157480000Y-32893000D03*
X154940000Y-32893000D03*
X152400000Y-32893000D03*
X132080000Y-35560000D03*
X132080000Y-38100000D03*
X132080000Y-40640000D03*
X132080000Y-43180000D03*
X132080000Y-45720000D03*
X132080000Y-48260000D03*
X132080000Y-50800000D03*
X132080000Y-53340000D03*
X132080000Y-57404000D03*
X132080000Y-59944000D03*
X132080000Y-62484000D03*
X132080000Y-65024000D03*
X132080000Y-67564000D03*
X132080000Y-70104000D03*
X132080000Y-72644000D03*
X132080000Y-75184000D03*
X132080000Y-77724000D03*
X132080000Y-80264000D03*
D21*
X132080000Y-83820000D03*
X147320000Y-33020000D03*
X180340000Y-85090000D03*
X175260000Y-33020000D03*
D15*
X111760000Y-33020000D03*
M02*
