M48
;DRILL file {KiCad 4.0.1-3.201512221402+6198~38~ubuntu14.04.1-stable} date Sun Jan 24 13:17:54 2016
;FORMAT={-:-/ absolute / inch / decimal}
FMAT,2
INCH,TZ
T1C0.025
T2C0.039
T3C0.040
%
G90
G05
M72
T1
X2.85Y-3.2
X2.9Y-1.5
X2.9Y-1.6
X2.9Y-1.7
X2.9Y-1.8
X2.9Y-1.9
X2.9Y-2.
X2.9Y-2.1
X2.9Y-2.2
X2.9Y-2.3
X2.9Y-2.4
X2.9Y-2.5
X2.9Y-2.6
X2.9Y-2.7
X2.9Y-2.8
X2.9Y-2.9
X2.9Y-3.
X2.9Y-3.1
X2.975Y-1.3
X3.1752Y-3.2031
X3.2Y-1.5
X3.2Y-1.6
X3.2Y-1.7
X3.2Y-1.8
X3.2Y-1.9
X3.2Y-2.
X3.2Y-2.1
X3.2Y-2.2
X3.2Y-2.325
X3.2Y-2.4
X3.2Y-2.5
X3.2Y-2.6
X3.2Y-2.7
X3.2Y-2.8
X3.2Y-2.9
X3.2Y-3.
X3.2Y-3.1
X3.2535Y-3.2264
X3.4Y-2.65
X3.4Y-2.8303
X3.4252Y-1.5024
X3.4748Y-3.0878
X3.5Y-2.8287
X3.55Y-1.3
X3.5685Y-1.6744
X3.5843Y-2.963
X3.6Y-1.9201
X3.6Y-1.975
X3.6004Y-2.8307
X3.6705Y-2.5091
X3.6717Y-2.0398
X3.7008Y-2.8323
X3.7142Y-1.7559
X3.7461Y-3.0272
X3.7681Y-1.8638
X3.7681Y-3.2087
X3.8051Y-2.0449
X3.8618Y-1.789
X3.87Y-2.395
X3.875Y-2.45
X3.8866Y-2.5866
X3.9173Y-1.9594
X3.9173Y-2.0817
X3.9303Y-2.8594
X3.9374Y-2.1559
X3.94Y-2.54
X3.975Y-2.025
X4.Y-2.5
X4.0122Y-1.8669
X4.015Y-2.8728
X4.015Y-3.0228
X4.015Y-3.0882
X4.0307Y-1.737
X4.063Y-2.2228
X4.08Y-2.42
X4.0886Y-2.5969
X4.1291Y-2.2035
X4.1748Y-1.8543
X4.18Y-2.44
X4.1874Y-2.5193
X4.2134Y-2.2366
X4.2335Y-2.3063
X4.3Y-1.65
X4.302Y-2.339
X4.3114Y-2.6705
X4.3252Y-2.8236
X4.3331Y-1.9343
X4.3335Y-2.0335
X4.3386Y-2.9016
X4.3413Y-3.2106
X4.35Y-2.1
X4.3701Y-2.461
X4.3996Y-1.8988
X4.4Y-1.45
X4.431Y-2.0356
X4.4539Y-3.1091
X4.463Y-1.913
X4.4642Y-2.272
X4.4649Y-2.093
X4.475Y-2.775
X4.5Y-1.45
X4.9543Y-2.0535
X5.Y-2.125
X5.Y-2.3
X5.0535Y-2.6098
X5.0535Y-3.089
X5.0594Y-2.4209
X5.0665Y-1.5016
X5.328Y-3.0642
X5.3449Y-2.422
X5.45Y-2.3
X5.4504Y-2.0996
X5.475Y-2.66
X5.6Y-2.2
X5.6047Y-1.813
X5.6063Y-1.9748
X5.65Y-2.25
X5.7Y-2.325
X5.7512Y-1.865
X5.7996Y-2.575
X5.8Y-2.1
X5.8Y-2.275
X5.825Y-1.875
X5.825Y-1.975
X5.9445Y-1.9319
X5.9681Y-2.489
X6.05Y-2.925
X6.135Y-2.676
X6.15Y-2.025
X6.15Y-2.875
X6.1508Y-2.1835
X6.175Y-2.475
X6.325Y-1.925
X6.325Y-2.525
X6.3268Y-2.6425
X6.475Y-2.575
X6.5Y-2.325
X6.6Y-2.275
X6.625Y-1.875
X6.6827Y-2.724
X6.6929Y-2.2441
X6.825Y-2.95
X6.8634Y-3.1012
X6.95Y-2.875
T2
X5.2Y-1.4
X5.2Y-1.5
X5.2Y-1.6
X5.2Y-1.7
X5.2Y-1.8
X5.2Y-1.9
X5.2Y-2.
X5.2Y-2.1
X5.2Y-2.26
X5.2Y-2.36
X5.2Y-2.46
X5.2Y-2.56
X5.2Y-2.66
X5.2Y-2.76
X5.2Y-2.86
X5.2Y-2.96
X5.2Y-3.06
X5.2Y-3.16
X6.Y-1.295
X6.Y-1.395
X6.1Y-1.295
X6.1Y-1.395
X6.2Y-1.295
X6.2Y-1.395
X7.1Y-1.4
X7.1Y-1.5
X7.1Y-1.6
X7.1Y-1.7
X7.1Y-1.8
X7.1Y-1.9
X7.1Y-2.1
X7.1Y-2.2
X7.1Y-2.3
X7.1Y-2.4
X7.1Y-2.5
X7.1Y-2.6
X7.1Y-2.7
X7.1Y-2.8
T3
X2.5Y-1.5
X2.5Y-1.6
X2.5Y-1.7
X2.5Y-1.8
X2.5Y-1.9
X2.5Y-2.
X2.5Y-2.1
X2.5Y-2.2
X2.5Y-2.3
X2.5Y-2.4
X2.5Y-2.5
X2.5Y-2.6
X2.5Y-2.7
X2.5Y-2.8
X2.5Y-2.9
X2.5Y-3.
X2.5Y-3.1
X2.5Y-3.2
X3.5Y-1.5
X3.6Y-1.5
X3.7Y-1.5
X3.8Y-1.5
X3.9Y-1.5
X4.Y-1.5
X4.1Y-1.5
T0
M30
