G04 #@! TF.FileFunction,Profile,NP*
%FSLAX46Y46*%
G04 Gerber Fmt 4.6, Leading zero omitted, Abs format (unit mm)*
G04 Created by KiCad (PCBNEW 4.0.2+e4-6225~38~ubuntu14.04.1-stable) date Sat Jul 23 15:42:03 2016*
%MOMM*%
G01*
G04 APERTURE LIST*
%ADD10C,0.150000*%
%ADD11C,0.100000*%
G04 APERTURE END LIST*
D10*
D11*
X158750000Y-88900000D02*
X158750000Y-99060000D01*
X88900000Y-88900000D02*
X88900000Y-99060000D01*
X158750000Y-88900000D02*
X88900000Y-88900000D01*
X195580000Y-99060000D02*
X158750000Y-99060000D01*
X48260000Y-99060000D02*
X88900000Y-99060000D01*
X48260000Y-99060000D02*
X48260000Y-17780000D01*
X195580000Y-17780000D02*
X195580000Y-99060000D01*
X48260000Y-17780000D02*
X195580000Y-17780000D01*
X130810000Y-83820000D02*
X130810000Y-34290000D01*
X133350000Y-83820000D02*
X130810000Y-83820000D01*
X133350000Y-34290000D02*
X133350000Y-83820000D01*
X62230000Y-82550000D02*
X62230000Y-36830000D01*
X160020000Y-30480000D02*
X149860000Y-30480000D01*
X160020000Y-38100000D02*
X160020000Y-30480000D01*
X149860000Y-38100000D02*
X160020000Y-38100000D01*
X149860000Y-30480000D02*
X149860000Y-38100000D01*
X106680000Y-45720000D02*
X106680000Y-38100000D01*
X116840000Y-45720000D02*
X106680000Y-45720000D01*
X116840000Y-38100000D02*
X116840000Y-45720000D01*
X106680000Y-38100000D02*
X116840000Y-38100000D01*
X64770000Y-82550000D02*
X62230000Y-82550000D01*
X64770000Y-36830000D02*
X64770000Y-82550000D01*
X62230000Y-36830000D02*
X64770000Y-36830000D01*
X87630000Y-36830000D02*
X87630000Y-39370000D01*
X105410000Y-39370000D02*
X87630000Y-39370000D01*
X105410000Y-36830000D02*
X105410000Y-39370000D01*
X87630000Y-36830000D02*
X105410000Y-36830000D01*
X179070000Y-72390000D02*
X179070000Y-34290000D01*
X181610000Y-72390000D02*
X179070000Y-72390000D01*
X181610000Y-34290000D02*
X181610000Y-72390000D01*
X179070000Y-34290000D02*
X181610000Y-34290000D01*
X130810000Y-34290000D02*
X133350000Y-34290000D01*
M02*
