G04 (created by PCBNEW (2013-jul-07)-stable) date Sat 02 May 2015 02:19:32 PM CEST*
%MOIN*%
G04 Gerber Fmt 3.4, Leading zero omitted, Abs format*
%FSLAX34Y34*%
G01*
G70*
G90*
G04 APERTURE LIST*
%ADD10C,0.00590551*%
%ADD11R,0.05X0.015*%
%ADD12R,0.045X0.02*%
%ADD13R,0.1575X0.06*%
%ADD14R,0.055X0.035*%
%ADD15R,0.035X0.055*%
%ADD16R,0.025X0.045*%
%ADD17R,0.045X0.025*%
%ADD18R,0.0314X0.0314*%
G04 APERTURE END LIST*
G54D10*
G54D11*
X116602Y-56146D03*
X116602Y-55890D03*
X116602Y-55634D03*
X116602Y-55378D03*
X116602Y-55122D03*
X116602Y-54866D03*
X116602Y-54610D03*
X116602Y-54354D03*
X114398Y-54354D03*
X114398Y-54610D03*
X114398Y-54866D03*
X114398Y-55122D03*
X114398Y-55378D03*
X114398Y-55634D03*
X114398Y-55890D03*
X114398Y-56146D03*
G54D12*
X110000Y-45250D03*
X110000Y-44750D03*
X110000Y-44250D03*
X110000Y-43750D03*
X110000Y-43250D03*
X110000Y-42750D03*
X110000Y-42250D03*
X110000Y-41750D03*
X106000Y-41750D03*
X106000Y-42250D03*
X106000Y-42750D03*
X106000Y-43250D03*
X106000Y-43750D03*
X106000Y-44250D03*
X106000Y-44750D03*
X106000Y-45250D03*
X125250Y-64750D03*
X125250Y-64250D03*
X125250Y-63750D03*
X125250Y-63250D03*
X125250Y-62750D03*
X125250Y-62250D03*
X125250Y-61750D03*
X125250Y-61250D03*
X123250Y-61250D03*
X123250Y-61750D03*
X123250Y-62250D03*
X123250Y-62750D03*
X123250Y-63250D03*
X123250Y-63750D03*
X123250Y-64250D03*
X123250Y-64750D03*
X116500Y-62000D03*
X116500Y-61500D03*
X116500Y-61000D03*
X116500Y-60500D03*
X116500Y-60000D03*
X116500Y-59500D03*
X116500Y-59000D03*
X116500Y-58500D03*
X114500Y-58500D03*
X114500Y-59000D03*
X114500Y-59500D03*
X114500Y-60000D03*
X114500Y-60500D03*
X114500Y-61000D03*
X114500Y-61500D03*
X114500Y-62000D03*
X97000Y-60750D03*
X97000Y-60250D03*
X97000Y-59750D03*
X97000Y-59250D03*
X97000Y-58750D03*
X97000Y-58250D03*
X97000Y-57750D03*
X97000Y-57250D03*
X95000Y-57250D03*
X95000Y-57750D03*
X95000Y-58250D03*
X95000Y-58750D03*
X95000Y-59250D03*
X95000Y-59750D03*
X95000Y-60250D03*
X95000Y-60750D03*
X97000Y-54750D03*
X97000Y-54250D03*
X97000Y-53750D03*
X97000Y-53250D03*
X97000Y-52750D03*
X97000Y-52250D03*
X97000Y-51750D03*
X97000Y-51250D03*
X95000Y-51250D03*
X95000Y-51750D03*
X95000Y-52250D03*
X95000Y-52750D03*
X95000Y-53250D03*
X95000Y-53750D03*
X95000Y-54250D03*
X95000Y-54750D03*
X108600Y-54750D03*
X108600Y-54250D03*
X108600Y-53750D03*
X108600Y-53250D03*
X108600Y-52750D03*
X108600Y-52250D03*
X108600Y-51750D03*
X106500Y-51750D03*
X106500Y-52250D03*
X106500Y-52750D03*
X106500Y-53250D03*
X106500Y-53750D03*
X106500Y-54250D03*
X106500Y-54750D03*
G54D13*
X117425Y-69213D03*
X117425Y-70787D03*
X120575Y-69213D03*
X120575Y-70787D03*
G54D14*
X103500Y-50375D03*
X103500Y-49625D03*
G54D15*
X101625Y-65000D03*
X102375Y-65000D03*
X98375Y-54750D03*
X99125Y-54750D03*
X98375Y-53250D03*
X99125Y-53250D03*
X98375Y-52000D03*
X99125Y-52000D03*
X98375Y-50750D03*
X99125Y-50750D03*
G54D14*
X95000Y-46125D03*
X95000Y-45375D03*
X95000Y-47125D03*
X95000Y-47875D03*
G54D15*
X92875Y-46000D03*
X93625Y-46000D03*
G54D14*
X93500Y-61125D03*
X93500Y-61875D03*
X102000Y-45125D03*
X102000Y-45875D03*
X103500Y-45125D03*
X103500Y-45875D03*
X93500Y-59125D03*
X93500Y-59875D03*
X93500Y-57625D03*
X93500Y-56875D03*
X112500Y-45125D03*
X112500Y-45875D03*
X93750Y-54625D03*
X93750Y-55375D03*
X114000Y-45125D03*
X114000Y-45875D03*
X100250Y-59125D03*
X100250Y-59875D03*
X102500Y-59375D03*
X102500Y-60125D03*
X99250Y-57125D03*
X99250Y-56375D03*
G54D16*
X128200Y-50250D03*
X128800Y-50250D03*
X131200Y-50000D03*
X131800Y-50000D03*
X128200Y-51000D03*
X128800Y-51000D03*
X131200Y-51000D03*
X131800Y-51000D03*
G54D17*
X127250Y-48550D03*
X127250Y-47950D03*
G54D16*
X95200Y-56000D03*
X95800Y-56000D03*
X106450Y-56000D03*
X107050Y-56000D03*
X94950Y-62000D03*
X95550Y-62000D03*
X108950Y-69250D03*
X109550Y-69250D03*
X113450Y-69250D03*
X114050Y-69250D03*
G54D17*
X122000Y-64700D03*
X122000Y-65300D03*
G54D16*
X117450Y-67500D03*
X118050Y-67500D03*
X91700Y-56000D03*
X92300Y-56000D03*
G54D17*
X131250Y-49050D03*
X131250Y-48450D03*
G54D16*
X91700Y-54000D03*
X92300Y-54000D03*
X91700Y-53000D03*
X92300Y-53000D03*
X91700Y-52000D03*
X92300Y-52000D03*
X91700Y-51000D03*
X92300Y-51000D03*
X91700Y-50000D03*
X92300Y-50000D03*
X91700Y-55000D03*
X92300Y-55000D03*
X96450Y-69500D03*
X97050Y-69500D03*
G54D17*
X111250Y-45200D03*
X111250Y-45800D03*
X104750Y-45200D03*
X104750Y-45800D03*
G54D16*
X91700Y-65000D03*
X92300Y-65000D03*
G54D17*
X128250Y-48450D03*
X128250Y-49050D03*
X131000Y-46950D03*
X131000Y-47550D03*
G54D16*
X91700Y-66000D03*
X92300Y-66000D03*
X91700Y-57000D03*
X92300Y-57000D03*
X91700Y-64000D03*
X92300Y-64000D03*
X91700Y-63000D03*
X92300Y-63000D03*
X91700Y-62000D03*
X92300Y-62000D03*
X91700Y-61000D03*
X92300Y-61000D03*
X91700Y-60000D03*
X92300Y-60000D03*
X91700Y-59000D03*
X92300Y-59000D03*
X91700Y-58000D03*
X92300Y-58000D03*
G54D18*
X97045Y-70750D03*
X96455Y-70750D03*
X109545Y-70750D03*
X108955Y-70750D03*
X114045Y-70750D03*
X113455Y-70750D03*
G54D15*
X115875Y-53250D03*
X116625Y-53250D03*
G54D17*
X126500Y-64450D03*
X126500Y-65050D03*
X113250Y-62050D03*
X113250Y-61450D03*
X113250Y-56050D03*
X113250Y-55450D03*
G54D11*
X57602Y-23146D03*
X57602Y-22890D03*
X57602Y-22634D03*
X57602Y-22378D03*
X57602Y-22122D03*
X57602Y-21866D03*
X57602Y-21610D03*
X57602Y-21354D03*
X55398Y-21354D03*
X55398Y-21610D03*
X55398Y-21866D03*
X55398Y-22122D03*
X55398Y-22378D03*
X55398Y-22634D03*
X55398Y-22890D03*
X55398Y-23146D03*
G54D12*
X51000Y-12250D03*
X51000Y-11750D03*
X51000Y-11250D03*
X51000Y-10750D03*
X51000Y-10250D03*
X51000Y-9750D03*
X51000Y-9250D03*
X51000Y-8750D03*
X47000Y-8750D03*
X47000Y-9250D03*
X47000Y-9750D03*
X47000Y-10250D03*
X47000Y-10750D03*
X47000Y-11250D03*
X47000Y-11750D03*
X47000Y-12250D03*
X66250Y-31750D03*
X66250Y-31250D03*
X66250Y-30750D03*
X66250Y-30250D03*
X66250Y-29750D03*
X66250Y-29250D03*
X66250Y-28750D03*
X66250Y-28250D03*
X64250Y-28250D03*
X64250Y-28750D03*
X64250Y-29250D03*
X64250Y-29750D03*
X64250Y-30250D03*
X64250Y-30750D03*
X64250Y-31250D03*
X64250Y-31750D03*
X57500Y-29000D03*
X57500Y-28500D03*
X57500Y-28000D03*
X57500Y-27500D03*
X57500Y-27000D03*
X57500Y-26500D03*
X57500Y-26000D03*
X57500Y-25500D03*
X55500Y-25500D03*
X55500Y-26000D03*
X55500Y-26500D03*
X55500Y-27000D03*
X55500Y-27500D03*
X55500Y-28000D03*
X55500Y-28500D03*
X55500Y-29000D03*
X38000Y-27750D03*
X38000Y-27250D03*
X38000Y-26750D03*
X38000Y-26250D03*
X38000Y-25750D03*
X38000Y-25250D03*
X38000Y-24750D03*
X38000Y-24250D03*
X36000Y-24250D03*
X36000Y-24750D03*
X36000Y-25250D03*
X36000Y-25750D03*
X36000Y-26250D03*
X36000Y-26750D03*
X36000Y-27250D03*
X36000Y-27750D03*
X38000Y-21750D03*
X38000Y-21250D03*
X38000Y-20750D03*
X38000Y-20250D03*
X38000Y-19750D03*
X38000Y-19250D03*
X38000Y-18750D03*
X38000Y-18250D03*
X36000Y-18250D03*
X36000Y-18750D03*
X36000Y-19250D03*
X36000Y-19750D03*
X36000Y-20250D03*
X36000Y-20750D03*
X36000Y-21250D03*
X36000Y-21750D03*
X49600Y-21750D03*
X49600Y-21250D03*
X49600Y-20750D03*
X49600Y-20250D03*
X49600Y-19750D03*
X49600Y-19250D03*
X49600Y-18750D03*
X47500Y-18750D03*
X47500Y-19250D03*
X47500Y-19750D03*
X47500Y-20250D03*
X47500Y-20750D03*
X47500Y-21250D03*
X47500Y-21750D03*
G54D13*
X58425Y-36213D03*
X58425Y-37787D03*
X61575Y-36213D03*
X61575Y-37787D03*
G54D14*
X44500Y-17375D03*
X44500Y-16625D03*
G54D15*
X42625Y-32000D03*
X43375Y-32000D03*
X39375Y-21750D03*
X40125Y-21750D03*
X39375Y-20250D03*
X40125Y-20250D03*
X39375Y-19000D03*
X40125Y-19000D03*
X39375Y-17750D03*
X40125Y-17750D03*
G54D14*
X36000Y-13125D03*
X36000Y-12375D03*
X36000Y-14125D03*
X36000Y-14875D03*
G54D15*
X33875Y-13000D03*
X34625Y-13000D03*
G54D14*
X34500Y-28125D03*
X34500Y-28875D03*
X43000Y-12125D03*
X43000Y-12875D03*
X44500Y-12125D03*
X44500Y-12875D03*
X34500Y-26125D03*
X34500Y-26875D03*
X34500Y-24625D03*
X34500Y-23875D03*
X53500Y-12125D03*
X53500Y-12875D03*
X34750Y-21625D03*
X34750Y-22375D03*
X55000Y-12125D03*
X55000Y-12875D03*
X41250Y-26125D03*
X41250Y-26875D03*
X43500Y-26375D03*
X43500Y-27125D03*
X40250Y-24125D03*
X40250Y-23375D03*
G54D16*
X69200Y-17250D03*
X69800Y-17250D03*
X72200Y-17000D03*
X72800Y-17000D03*
X69200Y-18000D03*
X69800Y-18000D03*
X72200Y-18000D03*
X72800Y-18000D03*
G54D17*
X68250Y-15550D03*
X68250Y-14950D03*
G54D16*
X36200Y-23000D03*
X36800Y-23000D03*
X47450Y-23000D03*
X48050Y-23000D03*
X35950Y-29000D03*
X36550Y-29000D03*
X49950Y-36250D03*
X50550Y-36250D03*
X54450Y-36250D03*
X55050Y-36250D03*
G54D17*
X63000Y-31700D03*
X63000Y-32300D03*
G54D16*
X58450Y-34500D03*
X59050Y-34500D03*
X32700Y-23000D03*
X33300Y-23000D03*
G54D17*
X72250Y-16050D03*
X72250Y-15450D03*
G54D16*
X32700Y-21000D03*
X33300Y-21000D03*
X32700Y-20000D03*
X33300Y-20000D03*
X32700Y-19000D03*
X33300Y-19000D03*
X32700Y-18000D03*
X33300Y-18000D03*
X32700Y-17000D03*
X33300Y-17000D03*
X32700Y-22000D03*
X33300Y-22000D03*
X37450Y-36500D03*
X38050Y-36500D03*
G54D17*
X52250Y-12200D03*
X52250Y-12800D03*
X45750Y-12200D03*
X45750Y-12800D03*
G54D16*
X32700Y-32000D03*
X33300Y-32000D03*
G54D17*
X69250Y-15450D03*
X69250Y-16050D03*
X72000Y-13950D03*
X72000Y-14550D03*
G54D16*
X32700Y-33000D03*
X33300Y-33000D03*
X32700Y-24000D03*
X33300Y-24000D03*
X32700Y-31000D03*
X33300Y-31000D03*
X32700Y-30000D03*
X33300Y-30000D03*
X32700Y-29000D03*
X33300Y-29000D03*
X32700Y-28000D03*
X33300Y-28000D03*
X32700Y-27000D03*
X33300Y-27000D03*
X32700Y-26000D03*
X33300Y-26000D03*
X32700Y-25000D03*
X33300Y-25000D03*
G54D18*
X38045Y-37750D03*
X37455Y-37750D03*
X50545Y-37750D03*
X49955Y-37750D03*
X55045Y-37750D03*
X54455Y-37750D03*
G54D15*
X56875Y-20250D03*
X57625Y-20250D03*
G54D17*
X67500Y-31450D03*
X67500Y-32050D03*
X54250Y-29050D03*
X54250Y-28450D03*
X54250Y-23050D03*
X54250Y-22450D03*
M02*
