G04 (created by PCBNEW (2013-jul-07)-stable) date Sat 02 May 2015 02:19:32 PM CEST*
%MOIN*%
G04 Gerber Fmt 3.4, Leading zero omitted, Abs format*
%FSLAX34Y34*%
G01*
G70*
G90*
G04 APERTURE LIST*
%ADD10C,0.00590551*%
%ADD11C,0.1495*%
%ADD12C,0.0590551*%
%ADD13C,0.06*%
%ADD14C,0.125*%
%ADD15R,0.06X0.06*%
G04 APERTURE END LIST*
G54D10*
G54D11*
X90300Y-28000D03*
X85750Y-28000D03*
X85750Y-21250D03*
X90300Y-21250D03*
X90300Y-14450D03*
X80000Y-19000D03*
X134000Y-9000D03*
X124000Y-9000D03*
X90000Y-9000D03*
X80000Y-9000D03*
X80000Y-37000D03*
X90000Y-37000D03*
X134000Y-37000D03*
X124000Y-37000D03*
X80000Y-27000D03*
X85750Y-14450D03*
X134000Y-19000D03*
X134000Y-27000D03*
X75000Y-42000D03*
X65000Y-42000D03*
X31000Y-42000D03*
X21000Y-42000D03*
X21000Y-70000D03*
X31000Y-70000D03*
X75000Y-70000D03*
X65000Y-70000D03*
X21000Y-60000D03*
X21000Y-52000D03*
X75000Y-52000D03*
X75000Y-60000D03*
X86000Y-46000D03*
X86000Y-66500D03*
G54D12*
X86000Y-61000D03*
X86000Y-63000D03*
X86000Y-58000D03*
X86000Y-50000D03*
X86000Y-52000D03*
X86000Y-54000D03*
X86000Y-56000D03*
X126000Y-56000D03*
X86000Y-59000D03*
X86000Y-57000D03*
X86000Y-55000D03*
X86000Y-53000D03*
X86000Y-51000D03*
X86000Y-49000D03*
X102000Y-58000D03*
X86000Y-60000D03*
X86000Y-62000D03*
X86000Y-64000D03*
X86000Y-48000D03*
X128000Y-60000D03*
X128000Y-59000D03*
X128000Y-58000D03*
X128000Y-56000D03*
X94000Y-49000D03*
X123000Y-58000D03*
X119000Y-52000D03*
X119000Y-49000D03*
X109000Y-48000D03*
X120000Y-49000D03*
X103000Y-57000D03*
X123000Y-59000D03*
X118000Y-57000D03*
X121000Y-54000D03*
X118000Y-59000D03*
X122000Y-51000D03*
X119000Y-54000D03*
X116000Y-52000D03*
X99000Y-59000D03*
X101000Y-57000D03*
X100000Y-58000D03*
X102000Y-53000D03*
X104000Y-53000D03*
X102000Y-54000D03*
X95000Y-49000D03*
X96000Y-49000D03*
X101000Y-48000D03*
X101000Y-49000D03*
X100000Y-56000D03*
X97000Y-49000D03*
X93000Y-49000D03*
G54D13*
X130000Y-61000D03*
X130000Y-60000D03*
X130000Y-59000D03*
X130000Y-58000D03*
X130000Y-57000D03*
X130000Y-56000D03*
X130000Y-55000D03*
X130000Y-54000D03*
X130000Y-52000D03*
X130000Y-51000D03*
X130000Y-50000D03*
X130000Y-49000D03*
X130000Y-48000D03*
X130000Y-47000D03*
X119000Y-46950D03*
X120000Y-46950D03*
X121000Y-46950D03*
X121000Y-45950D03*
X120000Y-45950D03*
X119000Y-45950D03*
X111000Y-47000D03*
X111000Y-48000D03*
X111000Y-49000D03*
X111000Y-50000D03*
X111000Y-51000D03*
X111000Y-52000D03*
X111000Y-53000D03*
X111000Y-54000D03*
X111000Y-55600D03*
X111000Y-56600D03*
X111000Y-57600D03*
X111000Y-58600D03*
X111000Y-59600D03*
X111000Y-60600D03*
X111000Y-61600D03*
X111000Y-62600D03*
X111000Y-63600D03*
X111000Y-64600D03*
G54D14*
X111000Y-66000D03*
X117000Y-46000D03*
X130000Y-66500D03*
X128000Y-46000D03*
G54D15*
X103750Y-67000D03*
G54D13*
X103750Y-68000D03*
X102750Y-67000D03*
X102750Y-68000D03*
X101750Y-67000D03*
X101750Y-68000D03*
G54D15*
X89000Y-45000D03*
G54D13*
X90000Y-45000D03*
X89000Y-50000D03*
X90000Y-46000D03*
X89000Y-51000D03*
X90000Y-47000D03*
X89000Y-52000D03*
X90000Y-48000D03*
X89000Y-53000D03*
X90000Y-49000D03*
X89000Y-54000D03*
X90000Y-50000D03*
X89000Y-55000D03*
X90000Y-51000D03*
X89000Y-56000D03*
X90000Y-52000D03*
X89000Y-57000D03*
X90000Y-53000D03*
X89000Y-58000D03*
X90000Y-54000D03*
X89000Y-59000D03*
X90000Y-55000D03*
X89000Y-60000D03*
X90000Y-56000D03*
X90000Y-57000D03*
X89000Y-61000D03*
X90000Y-58000D03*
X90000Y-60000D03*
X90000Y-61000D03*
X90000Y-62000D03*
X90000Y-63000D03*
X89000Y-62000D03*
X89000Y-63000D03*
X89000Y-46000D03*
X89000Y-47000D03*
X89000Y-48000D03*
X89000Y-49000D03*
X89000Y-64000D03*
X90000Y-64000D03*
X90000Y-59000D03*
G54D11*
X134000Y-42000D03*
X124000Y-42000D03*
X90000Y-42000D03*
X80000Y-42000D03*
X80000Y-70000D03*
X90000Y-70000D03*
X134000Y-70000D03*
X124000Y-70000D03*
X80000Y-60000D03*
X80000Y-52000D03*
X134000Y-52000D03*
X134000Y-60000D03*
X27000Y-13000D03*
X27000Y-33500D03*
G54D12*
X27000Y-28000D03*
X27000Y-30000D03*
X27000Y-25000D03*
X27000Y-17000D03*
X27000Y-19000D03*
X27000Y-21000D03*
X27000Y-23000D03*
X67000Y-23000D03*
X27000Y-26000D03*
X27000Y-24000D03*
X27000Y-22000D03*
X27000Y-20000D03*
X27000Y-18000D03*
X27000Y-16000D03*
X43000Y-25000D03*
X27000Y-27000D03*
X27000Y-29000D03*
X27000Y-31000D03*
X27000Y-15000D03*
X69000Y-27000D03*
X69000Y-26000D03*
X69000Y-25000D03*
X69000Y-23000D03*
X35000Y-16000D03*
X64000Y-25000D03*
X60000Y-19000D03*
X60000Y-16000D03*
X50000Y-15000D03*
X61000Y-16000D03*
X44000Y-24000D03*
X64000Y-26000D03*
X59000Y-24000D03*
X62000Y-21000D03*
X59000Y-26000D03*
X63000Y-18000D03*
X60000Y-21000D03*
X57000Y-19000D03*
X40000Y-26000D03*
X42000Y-24000D03*
X41000Y-25000D03*
X43000Y-20000D03*
X45000Y-20000D03*
X43000Y-21000D03*
X36000Y-16000D03*
X37000Y-16000D03*
X42000Y-15000D03*
X42000Y-16000D03*
X41000Y-23000D03*
X38000Y-16000D03*
X34000Y-16000D03*
G54D13*
X71000Y-28000D03*
X71000Y-27000D03*
X71000Y-26000D03*
X71000Y-25000D03*
X71000Y-24000D03*
X71000Y-23000D03*
X71000Y-22000D03*
X71000Y-21000D03*
X71000Y-19000D03*
X71000Y-18000D03*
X71000Y-17000D03*
X71000Y-16000D03*
X71000Y-15000D03*
X71000Y-14000D03*
X60000Y-13950D03*
X61000Y-13950D03*
X62000Y-13950D03*
X62000Y-12950D03*
X61000Y-12950D03*
X60000Y-12950D03*
X52000Y-14000D03*
X52000Y-15000D03*
X52000Y-16000D03*
X52000Y-17000D03*
X52000Y-18000D03*
X52000Y-19000D03*
X52000Y-20000D03*
X52000Y-21000D03*
X52000Y-22600D03*
X52000Y-23600D03*
X52000Y-24600D03*
X52000Y-25600D03*
X52000Y-26600D03*
X52000Y-27600D03*
X52000Y-28600D03*
X52000Y-29600D03*
X52000Y-30600D03*
X52000Y-31600D03*
G54D14*
X52000Y-33000D03*
X58000Y-13000D03*
X71000Y-33500D03*
X69000Y-13000D03*
G54D15*
X44750Y-34000D03*
G54D13*
X44750Y-35000D03*
X43750Y-34000D03*
X43750Y-35000D03*
X42750Y-34000D03*
X42750Y-35000D03*
G54D15*
X30000Y-12000D03*
G54D13*
X31000Y-12000D03*
X30000Y-17000D03*
X31000Y-13000D03*
X30000Y-18000D03*
X31000Y-14000D03*
X30000Y-19000D03*
X31000Y-15000D03*
X30000Y-20000D03*
X31000Y-16000D03*
X30000Y-21000D03*
X31000Y-17000D03*
X30000Y-22000D03*
X31000Y-18000D03*
X30000Y-23000D03*
X31000Y-19000D03*
X30000Y-24000D03*
X31000Y-20000D03*
X30000Y-25000D03*
X31000Y-21000D03*
X30000Y-26000D03*
X31000Y-22000D03*
X30000Y-27000D03*
X31000Y-23000D03*
X31000Y-24000D03*
X30000Y-28000D03*
X31000Y-25000D03*
X31000Y-27000D03*
X31000Y-28000D03*
X31000Y-29000D03*
X31000Y-30000D03*
X30000Y-29000D03*
X30000Y-30000D03*
X30000Y-13000D03*
X30000Y-14000D03*
X30000Y-15000D03*
X30000Y-16000D03*
X30000Y-31000D03*
X31000Y-31000D03*
X31000Y-26000D03*
G54D11*
X75000Y-9000D03*
X65000Y-9000D03*
X31000Y-9000D03*
X21000Y-9000D03*
X21000Y-37000D03*
X31000Y-37000D03*
X75000Y-37000D03*
X65000Y-37000D03*
X21000Y-27000D03*
X21000Y-19000D03*
X75000Y-19000D03*
X75000Y-27000D03*
M02*
